<svg id="5d14372f-c293-4f9d-9470-ff9951bc8599" data-name="Layer 1" xmlns="http://www.w3.org/2000/svg" viewBox="0 0 32 6.08333"><title>mapanything-logo-tm</title><polygon points="7.96 2.165 7.288 4.411 6.601 2.165 5.995 2.165 5.542 4.998 6.024 4.998 6.367 2.804 7.04 4.998 7.517 4.998 8.189 2.804 8.533 4.998 9.019 4.998 8.571 2.165 7.96 2.165" style="fill:#fff"/><path d="M10.17828,2.83708a1.40809,1.40809,0,0,0-.687.17181v.41a1.19028,1.19028,0,0,1,.61047-.17151c.23376,0,.40533.1048.40533.3338v.17657h-.2337c-.61041,0-.9776.20972-.9776.63885,0,.47717.40057.64435.9491.64435a3.143,3.143,0,0,0,.7251-.08624V3.55717C10.97,3.02787,10.64087,2.83708,10.17828,2.83708Zm.32886,1.8269a1.7217,1.7217,0,0,1-.25745.0238c-.28613,0-.48651-.08575-.48651-.30536,0-.2146.2146-.31006.54376-.31006h.2002Z" style="fill:#fff"/><path d="M12.33069,2.83708a2.32574,2.32574,0,0,0-.8537.167V5.85624h.46765v-.868a1.181,1.181,0,0,0,.386.05719,1.05681,1.05681,0,0,0,1.16388-1.13031A1.03691,1.03691,0,0,0,12.33069,2.83708Zm-.0285,1.80286a1.01627,1.01627,0,0,1-.35754-.06207V3.31413a1.31872,1.31872,0,0,1,.38141-.05261.62817.62817,0,0,1,.69177.668A.65531.65531,0,0,1,12.30219,4.63993Z" style="fill:#fff"/><path d="M14.66913,2.16459,13.56738,4.99766h.515l.248-.66754h1.264l.24811.66754h.52936L15.26532,2.16459Zm-.19061,1.76489L14.965,2.62242l.48163,1.30707Z" style="fill:#fff"/><path d="M17.62219,2.83708a2.83163,2.83163,0,0,0-.9682.18127V4.99766h.47217V3.32835a1.63661,1.63661,0,0,1,.45795-.06226c.26233,0,.45294.1098.45294.41528V4.99766h.46759V3.63829C18.50464,3.04222,18.16119,2.83708,17.62219,2.83708Z" style="fill:#fff"/><polygon points="19.776 4.549 19.175 2.885 18.67 2.885 19.543 5.093 19.247 5.856 19.71 5.856 20.854 2.885 20.368 2.885 19.776 4.549" style="fill:#fff"/><path d="M21.78162,4.28715V3.2808h.601V2.885h-.601V2.36961h-.46729V2.885h-.3197V3.2808h.3197V4.392a.58179.58179,0,0,0,.63434.65338,1.1034,1.1034,0,0,0,.51044-.11456V4.50657a.73685.73685,0,0,1-.38647.11926C21.89142,4.62583,21.78162,4.5399,21.78162,4.28715Z" style="fill:#fff"/><path d="M23.83289,2.83708a1.58913,1.58913,0,0,0-.55347.10034V1.75431H22.8075V4.99766h.47192V3.33787a1.47009,1.47009,0,0,1,.45813-.07178c.26227,0,.45313.1098.45313.41528V4.99766h.46759V3.63829A.72418.72418,0,0,0,23.83289,2.83708Z" style="fill:#fff"/><circle cx="25.40276" cy="2.23851" r="0.29567" style="fill:#fff"/><rect x="25.16913" y="2.88499" width="0.47186" height="2.11267" style="fill:#fff"/><path d="M27.13574,2.83708a2.82837,2.82837,0,0,0-.968.18127V4.99766H26.64V3.32835a1.63447,1.63447,0,0,1,.4577-.06226c.26239,0,.45313.1098.45313.41528V4.99766h.46759V3.63829C28.01837,3.04222,27.675,2.83708,27.13574,2.83708Z" style="fill:#fff"/><path d="M28.40155,3.92442A1.01138,1.01138,0,0,0,29.52234,4.993a.9448.9448,0,0,0,.40533-.08112v.04761a.50558.50558,0,0,1-.55786.54883,1.40975,1.40975,0,0,1-.69647-.18634v.434a1.67824,1.67824,0,0,0,.69647.14795A.90851.90851,0,0,0,30.3952,4.9882V2.98979a2.21326,2.21326,0,0,0-.79651-.15271A1.06173,1.06173,0,0,0,28.40155,3.92442Zm1.52612.6012a.96785.96785,0,0,1-.36731.07153.63125.63125,0,0,1-.68188-.67273.636.636,0,0,1,.72021-.67242.9688.9688,0,0,1,.329.05255Z" style="fill:#fff"/><polygon points="30.58 1.903 30.801 1.903 30.801 2.494 30.89 2.494 30.89 1.903 31.112 1.903 31.112 1.823 30.58 1.823 30.58 1.903" style="fill:#fff"/><path d="M31.72058,1.82347l-.16052.46661q-.02435.07086-.03571.10754-.01007-.033-.032-.09937l-.15869-.47479h-.13354v.67059h.08551v-.5708l.19391.5708h.08008l.19489-.56122v.56122H31.84V1.82347Z" style="fill:#fff"/><path d="M2.38782.13865A2.23172,2.23172,0,0,0,.16,2.37419,4.13353,4.13353,0,0,0,1.18939,4.506,14.67261,14.67261,0,0,0,2.20624,5.705a.2644.2644,0,0,0,.38165-.00055A14.515,14.515,0,0,0,3.60107,4.50205,4.1316,4.1316,0,0,0,4.6236,2.36674,2.237,2.237,0,0,0,2.38782.13865Zm.37976,3.51862-.00067.00659-.00208.01959-.00208.01935L2.76062,3.722l-.02667.05078a.17693.17693,0,0,0-.02106.05859.09934.09934,0,0,1-.00641.03485.33229.33229,0,0,0-.01282.04431.15519.15519,0,0,0-.0022.04712.02444.02444,0,0,1-.0105.02625.02869.02869,0,0,0-.0163.01715l-.00031.00305a1.69963,1.69963,0,0,1-1.46954-2.885L1.212,1.11753c.02-.01117.03522-.01794.034-.0152l-.014.02222a.25227.25227,0,0,1-.05042.0437L1.179,1.17008a.27576.27576,0,0,0-.04865.04047A.196.196,0,0,0,1.11078,1.26c-.00525.01953-.00586.03583-.0014.03619a.04047.04047,0,0,0,.01331-.001c.00281-.00092.0047.0033.00421.00946a.0881.0881,0,0,1-.006.022c-.00232.00513-.00159.00909.00159.00885l.0119-.00079.01807-.00116c.00818-.00214.00311.01367-.01117.03516l-.00562.00842c-.057.04657-.085.06128-.1402.11.04541-.03162.0611-.02252.10748-.05273l.01831-.01605c.01941-.017.05035-.04468.06879-.06146a.43776.43776,0,0,1,.047-.03839c.00739-.00433.02289-.01465.03442-.023a.15366.15366,0,0,1,.0318-.01855.12925.12925,0,0,0,.03058-.01959c.01086-.00891.02106-.01129.02271-.00537a.03314.03314,0,0,0,.01709.01721.1289.1289,0,0,0,.03168.0083.072.072,0,0,1,.02869.01013.18519.18519,0,0,1,.03009.051l.00793.01788a.3016.3016,0,0,1,.02118.08978l.0022.04468a.05787.05787,0,0,0,.04321.05383c.02252.00385.03967.02008.03809.03613a.1592.1592,0,0,0,.00153.04529.112.112,0,0,0,.02222.03564.094.094,0,0,1,.01917.05139.32155.32155,0,0,1-.00421.061c-.00305.016-.009.04-.01312.05328a.15274.15274,0,0,0-.00568.04871.27268.27268,0,0,1,.001.03253L1.596,1.92527l-.00244.02478.02814.06738c.00995.0238.02478.05548.033.07043a.13005.13005,0,0,0,.03949.04169.13766.13766,0,0,1,.04187.05707c.00952.02332.02246.0592.02869.07977a.28083.28083,0,0,0,.04028.07428l.0014.00177a.62832.62832,0,0,0,.063.06726c.01874.01672.02917.01843.02319.00378a.58771.58771,0,0,0-.03375-.06433c-.01263-.02081-.03314-.05627-.04559-.07886L1.811,2.26622a.32812.32812,0,0,1-.02728-.06146c-.00256-.01123.0047-.01624.01605-.01117a.06561.06561,0,0,1,.02881.03906.20616.20616,0,0,0,.03931.06488l.00458.00513a.21414.21414,0,0,1,.03479.04834.08089.08089,0,0,0,.02728.03033.25979.25979,0,0,1,.04761.05121.09681.09681,0,0,1,.02051.053.05871.05871,0,0,0,.01886.0415.11907.11907,0,0,0,.04456.02814.2638.2638,0,0,1,.05939.02991.46824.46824,0,0,0,.06488.03552.07393.07393,0,0,0,.046.00372.05857.05857,0,0,1,.03485-.00171.17377.17377,0,0,1,.04248.02783.17312.17312,0,0,0,.07159.0296.11075.11075,0,0,1,.06757.04211.1522.1522,0,0,0,.04724.04742c.01392.007.04364.02313.0661.03589l.00049.00024c.02246.01276.04248.01837.04456.01245a.0911.0911,0,0,1,.01807-.02533.02269.02269,0,0,1,.03192.00354.05848.05848,0,0,1,.0174.03125l-.00006.00653-.00031.01971-.00037.01965-.00031.01953-.01447.03412a.14872.14872,0,0,1-.03247.052.08063.08063,0,0,0-.02319.03815l-.00909.03223-.00018.01428c.01141.00171.01685.00934.012.01685a.28525.28525,0,0,0-.01581.02887.04443.04443,0,0,0,.01294.03839c.011.01282.02441.02991.02985.038a.29557.29557,0,0,1,.02216.05048.30316.30316,0,0,0,.02161.05.136.136,0,0,1,.01361.0285.1009.1009,0,0,0,.03851.03424c.0188.011.04364.02686.05518.03522a.085.085,0,0,1,.02374.05579A.20629.20629,0,0,1,2.80829,3.5a.34967.34967,0,0,0-.01031.0437.5026.5026,0,0,1-.01642.06244A.3779.3779,0,0,0,2.76758,3.65727ZM2.7887,3.979l.00592-.00677a.08018.08018,0,0,1,.02368-.01135A.10372.10372,0,0,0,2.85168,3.93c.01227-.01562.01758-.03455.01178-.04205s-.00323-.01123.00562-.00824.01862.00226.02161-.00171a.14082.14082,0,0,0,.01263-.02765.05457.05457,0,0,1,.0423-.025A.08787.08787,0,0,0,2.99579,3.802c.0083-.01044.01318-.02283.01086-.02759l-.0083-.02386c-.00226-.00836.007-.01263.02045-.00946a.12024.12024,0,0,0,.0658-.0166l.00385-.00208c.0343-.03607.07941-.08472.1134-.12109a.14146.14146,0,0,1,.03595-.0672.17262.17262,0,0,1,.0481-.03149.1661.1661,0,0,1,.027-.00659l.01343-.00043.02-.00067c.01257-.01477.03223-.03979.04364-.0556a.35776.35776,0,0,0,.03552-.067c.00806-.02106.01807-.05029.02216-.06494a.18185.18185,0,0,1,.04028-.06l.05713-.058.00677-.02777a.11814.11814,0,0,0,.00378-.04083.02416.02416,0,0,0-.02222-.01416.06433.06433,0,0,1-.037-.02228.12439.12439,0,0,0-.05872-.0304.34852.34852,0,0,1-.0719-.02563c-.01709-.009-.04089-.02081-.05292-.02625s-.02167-.01141-.02148-.01331l.00183-.01727-.011-.02875A.11037.11037,0,0,0,3.23755,2.887a.3654.3654,0,0,0-.0614-.01868.14392.14392,0,0,1-.06329-.03851L3.05914,2.7711a.06547.06547,0,0,0-.062-.01581.11961.11961,0,0,1-.06171.0022.36913.36913,0,0,0-.05505-.01434.516.516,0,0,1-.05908-.01434.10944.10944,0,0,0-.06171.00385.06742.06742,0,0,0-.03943.03467.03944.03944,0,0,1-.0163.02539c-.00592.002-.02026-.0069-.03186-.01978a.03439.03439,0,0,0-.048.00012.04526.04526,0,0,1-.05927-.009.09989.09989,0,0,1-.0249-.07684A.061.061,0,0,0,2.52545,2.63.09285.09285,0,0,0,2.48969,2.617H2.41974l.02808-.10846c.00647-.025-.00812-.04205-.03235-.0379a.07369.07369,0,0,0-.055.0434.0618.0618,0,0,1-.04944.03955.094.094,0,0,1-.06458-.02081.17752.17752,0,0,1-.03851-.06976L2.1994,2.43211a.07951.07951,0,0,1,.00043-.05853.04638.04638,0,0,0,.00745-.038.05909.05909,0,0,1,.0094-.04346.06927.06927,0,0,1,.03149-.02264c.00922-.00208.01672-.00543.01678-.00757l.00012-.01886.03406.00311A.2733.2733,0,0,0,2.36792,2.245c.01215-.00305.01965-.00977.0166-.01489s.01514-.00861.04041-.00757a.14129.14129,0,0,1,.06036.01312.03043.03043,0,0,0,.02728.00562.02326.02326,0,0,1,.0238.00568.103.103,0,0,1,.01642.04333.172.172,0,0,0,.03088.06427c.014.01782.02716.0127.02917-.01123a.20989.20989,0,0,0-.01544-.08649l-.002-.00446a.07263.07263,0,0,1-.0011-.06519.12307.12307,0,0,1,.03424-.02966.10993.10993,0,0,0,.0321-.02759.50732.50732,0,0,1,.03894-.04218.15429.15429,0,0,0,.03278-.0672.4823.4823,0,0,1,.02307-.0755.07945.07945,0,0,1,.039-.03894.19688.19688,0,0,1,.03143-.00867l.01154.00006.01721.00012a.11634.11634,0,0,1-.00916-.058.08519.08519,0,0,1,.0509-.03259c.02472-.00739.04614-.00568.04755.00378s.02057.00616.04254-.00739l.04047-.025c.022-.01361.03833-.03461.03638-.04675a.01357.01357,0,0,0-.022-.01056.05406.05406,0,0,1-.04944-.009c-.01709-.01135-.03137-.02441-.03174-.029l-.00128-.01666-.002-.0249-.00562-.00043c-.02576-.002-.04382-.01239-.04016-.02325s.02771-.01764.05334-.01514l.02319.00232a.16812.16812,0,0,0,.0835-.016c.02026-.01129.04376-.02545.05225-.03149s.01489-.01483.01422-.01953L3.13525,1.521l-.00366-.02545-.035-.02808c-.02014-.01611-.05334-.04218-.07379-.05792l-.00311-.00238c-.02051-.01569-.03442-.03259-.03094-.03748s-.00525-.02655-.01929-.04816l-.0318-.04877c-.0141-.02161-.02936-.0329-.03394-.02509a.068.068,0,0,0-.00757.03168.03787.03787,0,0,1-.01593.02893.02731.02731,0,0,1-.034-.00934.13988.13988,0,0,1-.02368-.05237.05414.05414,0,0,0-.03058-.039.111.111,0,0,1-.044-.03125c-.0108-.01306-.02679-.022-.0354-.01984a.07963.07963,0,0,1-.03979-.00592c-.01324-.00537-.027-.00305-.03064.00525a.03315.03315,0,0,0-.00006.02625.027.027,0,0,1,.001.02246.05189.05189,0,0,0,.00775.03564.03113.03113,0,0,1-.00317.03754.01946.01946,0,0,0-.00012.02942.13765.13765,0,0,1,.02557.05127.06913.06913,0,0,1-.02179.06238.06989.06989,0,0,0-.01868.06732.08956.08956,0,0,1,.00287.05579.03875.03875,0,0,1-.0246.0177c-.0083.00085-.02271-.01361-.032-.03223a.20766.20766,0,0,1-.019-.06689.03885.03885,0,0,0-.03125-.03632.1936.1936,0,0,1-.06317-.02332l-.06067-.03668a.06489.06489,0,0,0-.04-.01215c-.0072.00244-.01788-.01227-.02368-.03271s-.017-.03644-.02484-.03558-.01068-.01855-.00629-.043a.16184.16184,0,0,1,.04236-.0766l.00861-.008A.24975.24975,0,0,0,2.405,1.106c.00543-.011.0127-.02008.01617-.02008H2.4527c.01013-.02295.02368-.05255.03021-.0658A.05774.05774,0,0,1,2.52356.99253.06853.06853,0,0,0,2.56561.97068a.04052.04052,0,0,0-.00073-.041C2.55731.91728,2.55573.90452,2.56134.90135A.01518.01518,0,0,0,2.56348.88078.089.089,0,0,0,2.52771.8535c-.01526-.00684-.02844-.00586-.0293.00208a.05227.05227,0,0,0,.0022.02252c.00208.00439-.0069.0116-.02.016A.03051.03051,0,0,1,2.44623.88487C2.44031.87541,2.43213.87437,2.428.88255s-.01465.00366-.02344-.01A.06016.06016,0,0,1,2.39227.83781a.08392.08392,0,0,0-.011-.04028.102.102,0,0,0-.02441-.0354c-.00543-.00275-.01715.00958-.02606.02734a.08446.08446,0,0,0-.01117.04761.05217.05217,0,0,0,.02051.02417.03731.03731,0,0,1,.01416.03192C2.35358.9058,2.34546.91,2.3363.90238A.164.164,0,0,1,2.30554.864C2.29779.8505,2.28845.847,2.28467.85612a.06461.06461,0,0,1-.02136.026.392.392,0,0,1-.0531.02362.06364.06364,0,0,1-.05359.00073A.04979.04979,0,0,0,2.11481.90019c-.01465.00409-.02472.01526-.02228.0249S2.088.93852,2.07709.93351A.05772.05772,0,0,0,2.03992.9307a.17264.17264,0,0,1-.04773.00574C1.97546.9362,1.96759.93223,1.97473.92753A.03248.03248,0,0,0,1.98853.90635a.01712.01712,0,0,0-.015-.01562A.22647.22647,0,0,1,1.92883.87309.171.171,0,0,0,1.89032.85765a.03192.03192,0,0,0-.0202.00946C1.86432.87272,1.862.86943,1.86493.85972s.00031-.0155-.0058-.01294a.05315.05315,0,0,0-.01892.01593c-.00433.00616-.0083.0011-.00891-.01129s-.01373-.01917-.02917-.015-.04663.01532-.0694.02466a.19214.19214,0,0,0-.05652.0343C1.66791.90489,1.65765.90788,1.6535.902A.11979.11979,0,0,0,1.63458.88218.07008.07008,0,0,1,1.61847.86393C1.61584.85887,1.60565.8571,1.59583.86a.04815.04815,0,0,1-.03491-.0058L1.55023.84886A1.70008,1.70008,0,1,1,2.7887,3.979Z" style="fill:#fff"/></svg>