<svg id="584ec251-efb0-4545-a64d-e8af63bfcbbe" xmlns="http://www.w3.org/2000/svg" viewBox="0 0 174.5 173.5"><circle cx="87.16667" cy="86.83203" r="85.54303" style="fill:#eef1f6"/><path d="M171.80721,160.81264,139.18894,128.4378a46.03652,46.03652,0,0,0-32.86167-72.78253c-28.72354-2.921-53.06552,21.42095-50.14449,50.38791a46.03652,46.03652,0,0,0,72.78253,32.86167l32.37484,32.37484a3.52959,3.52959,0,0,0,5.11181,0l5.11181-5.11181A4.082,4.082,0,0,0,171.80721,160.81264ZM70.54456,101.4182a31.40116,31.40116,0,1,1,31.40116,31.40116A31.47775,31.47775,0,0,1,70.54456,101.4182Z" style="fill:#cfd7e6"/><ellipse cx="25.7145" cy="114.61956" rx="5.54259" ry="1.57174" style="fill:#cfd7e6"/><path d="M25.7145,81.62653a9.53245,9.53245,0,0,0-9.52825,9.5843c0,6.66978,6.83792,16.75852,8.91172,18.32788a1.00851,1.00851,0,0,0,1.23307,0c2.12984-1.62541,8.91172-11.6581,8.91172-18.32788A9.53245,9.53245,0,0,0,25.7145,81.62653Zm0,13.56375a4.0355,4.0355,0,1,1,4.0355-4.0355A4.05456,4.05456,0,0,1,25.7145,95.19028Z" style="fill:#fff"/><ellipse cx="47.7832" cy="65.37847" rx="5.54259" ry="1.57174" style="fill:#cfd7e6"/><path d="M47.7832,32.38544a9.53245,9.53245,0,0,0-9.52825,9.5843c0,6.66978,6.83792,16.75852,8.91172,18.32788a1.00851,1.00851,0,0,0,1.23307,0c2.12984-1.62541,8.91172-11.6581,8.91172-18.32788A9.53245,9.53245,0,0,0,47.7832,32.38544Zm0,13.56375a4.0355,4.0355,0,1,1,4.0355-4.0355A4.05456,4.05456,0,0,1,47.7832,45.9492Z" style="fill:#fff"/><ellipse cx="97.54259" cy="42.47731" rx="5.54259" ry="1.57174" style="fill:#cfd7e6"/><path d="M97.54259,9.48428a9.53245,9.53245,0,0,0-9.52825,9.5843c0,6.66978,6.83792,16.75852,8.91172,18.32788a1.00851,1.00851,0,0,0,1.23307,0c2.12984-1.62541,8.91172-11.6581,8.91172-18.32788A9.53245,9.53245,0,0,0,97.54259,9.48428Zm0,13.56375a4.0355,4.0355,0,1,1,4.0355-4.0355A4.05456,4.05456,0,0,1,97.54259,23.048Z" style="fill:#fff"/><path d="M107.17222,101.1375l13-13.1a1.45,1.45,0,0,0,0-2.1l-2-2.1a1.45,1.45,0,0,0-2.1,0l-13.1,13.1a.96667.96667,0,0,1-1.4,0l-13.1-13.2a1.45,1.45,0,0,0-2.1,0l-2.1,2.1a1.45,1.45,0,0,0,0,2.1l13.1,13.1a.96667.96667,0,0,1,0,1.4l-13.2,13.2a1.45,1.45,0,0,0,0,2.1l2.1,2.1a1.45,1.45,0,0,0,2.1,0l13.1-13.1a.96667.96667,0,0,1,1.4,0l13.1,13.1a1.45,1.45,0,0,0,2.1,0l2.1-2.1a1.45,1.45,0,0,0,0-2.1l-13-13.1A.96666.96666,0,0,1,107.17222,101.1375Z" style="fill:#fff"/></svg>