<svg xmlns="http://www.w3.org/2000/svg" width="32" height="32" viewBox="0 0 32 32">
<path d="M23.973 21.72l-2.853 2.853-2.853-2.853c-0.52-0.52-1.36-0.52-1.88 0s-0.52 1.36 0 1.88l3.773 3.773c0.267 0.267 0.613 0.387 0.96 0.387s0.693-0.12 0.96-0.387l3.773-3.773c0.52-0.52 0.52-1.36 0-1.88s-1.36-0.52-1.88 0z"></path>
<path d="M29.333 14.667c1.467 0 2.667-1.2 2.667-2.667v-9.333c0-1.467-1.2-2.667-2.667-2.667h-26.667c-1.467 0-2.667 1.2-2.667 2.667v9.333c0 1.467 1.2 2.667 2.667 2.667h1.333v8.667c0 1.467 1.2 2.667 2.667 2.667h4v3.333c0 1.467 1.2 2.667 2.667 2.667h16c1.467 0 2.667-1.2 2.667-2.667v-9.333c0-1.467-1.2-2.667-2.667-2.667h-16c-1.467 0-2.667 1.2-2.667 2.667v3.333h-4v-8.667h22.667zM13.333 20h16v9.333h-16v-9.333zM2.667 2.667h26.667v9.333h-26.667v-9.333z"></path>
<path d="M23.973 4.387l-2.853 2.853-2.853-2.853c-0.52-0.52-1.36-0.52-1.88 0s-0.52 1.36 0 1.88l3.773 3.773c0.267 0.267 0.613 0.387 0.96 0.387s0.693-0.12 0.96-0.387l3.773-3.773c0.52-0.52 0.52-1.36 0-1.88s-1.36-0.52-1.88 0z"></path>
</svg>
