<svg xmlns="http://www.w3.org/2000/svg" xmlns:xlink="http://www.w3.org/1999/xlink" width="24" height="24" viewBox="0 0 24 24">
    <defs>
        <path id="prefix__a" d="M.892 13.77c-.369.368-.369.876 0 1.245L7.815 21.8c.37.37.923.37 1.293 0l6.969-6.785c.37-.369.37-.877 0-1.246l-1.292-1.246c-.37-.37-.923-.37-1.293 0l-2.169 2.123c-.37.37-1.015.139-1.015-.415V1.769c0-.461-.416-.923-.923-.923H7.538c-.507 0-.923.508-.923.923v12.462c0 .554-.646.784-1.015.415l-2.17-2.123c-.368-.37-.922-.37-1.292 0L.892 13.77z"/>
    </defs>
    <g fill="none" fill-rule="evenodd" transform="rotate(-90 10 10)">
        <mask id="prefix__b" fill="#fff">
            <use xlink:href="#prefix__a"/>
        </mask>
        <use fill="#706E6B" xlink:href="#prefix__a"/>
        <g fill="#706E6B" mask="url(#prefix__b)">
            <path d="M0 0H26V26H0z" transform="translate(-5 -2)"/>
        </g>
    </g>
</svg>
