<svg xmlns="http://www.w3.org/2000/svg" xmlns:xlink="http://www.w3.org/1999/xlink" width="15" height="15" viewBox="0 0 15 15">
    <defs>
        <path id="prefix__a" d="M5.466 10.534L.706 5.745c-.172-.173-.172-.461 0-.634l.635-.635c.173-.173.462-.173.635 0l3.577 3.606c.115.115.317.115.433 0l7.01-7.068c.172-.173.46-.173.634 0l.634.635c.174.173.174.462 0 .635l-8.163 8.25c-.173.202-.462.202-.635 0z"/>
    </defs>
    <g fill="none" fill-rule="evenodd">
        <path d="M0 0H15V15H0z"/>
        <g transform="translate(0 2)">
            <mask id="prefix__b" fill="#fff">
                <use xlink:href="#prefix__a"/>
            </mask>
            <use fill="#706E6B" xlink:href="#prefix__a"/>
            <g fill="#FFFFFF" mask="url(#prefix__b)">
                <path d="M0 0H16V16H0z" transform="translate(-1 -3)"/>
            </g>
        </g>
    </g>
</svg>
