<svg xmlns="http://www.w3.org/2000/svg" xmlns:xlink="http://www.w3.org/1999/xlink" width="18" height="18" viewBox="0 0 18 18">
    <defs>
        <path id="prefix__a" d="M17.7 6h-3.875c-.25 0-.325.225-.125.425l1.225 1.225-2.25 2.25c-.125.125-.125.325 0 .475l.925.925c.125.125.325.125.475 0l2.275-2.275 1.225 1.225c.2.2.425.125.425-.125v-3.85c0-.15-.15-.275-.3-.275zM6.375 18h3.85c.25 0 .325-.275.125-.475l-1.225-1.25L11.375 14c.125-.125.125-.35 0-.475l-.925-.925c-.125-.125-.325-.125-.475 0l-2.25 2.25-1.25-1.225C6.25 13.425 6 13.5 6 13.75v3.85c0 .175.2.4.375.4zM18 17.7v-3.875c0-.25-.225-.325-.425-.125l-1.225 1.225-2.25-2.25c-.125-.125-.325-.125-.475 0l-.925.925c-.125.125-.125.325 0 .475l2.275 2.275-1.225 1.225c-.2.2-.125.425.125.425h3.85c.15 0 .275-.15.275-.3zM6 6.375v3.85c0 .25.275.325.475.125l1.25-1.225L10 11.375c.125.125.35.125.475 0l.925-.925c.125-.125.125-.325 0-.475l-2.25-2.25 1.225-1.25c.2-.225.125-.475-.125-.475H6.4c-.175 0-.4.2-.4.375z"/>
    </defs>
    <g fill="none" fill-rule="evenodd" transform="translate(-3 -3)">
        <use fill="#FFF" transform="rotate(45 12 12)" xlink:href="#prefix__a"/>
    </g>
</svg>
