<svg xmlns="http://www.w3.org/2000/svg" xmlns:xlink="http://www.w3.org/1999/xlink" width="16" height="16" viewBox="0 0 16 16">
    <defs>
        <path id="prefix__a" d="M14.923 9.554H14c-.246 0-.462.246-.462.461v3.077c0 .246-.215.462-.461.462H2.923c-.246 0-.461-.216-.461-.462v-3.077c0-.215-.216-.461-.462-.461h-.923c-.246 0-.462.246-.462.461v4.154c0 .677.554 1.231 1.231 1.231h12.308c.677 0 1.23-.554 1.23-1.23v-4.155c0-.215-.215-.461-.46-.461zM8.308.754c-.185-.185-.462-.185-.646 0L3.508 4.908c-.185.184-.185.461 0 .646l.646.646c.184.185.461.185.646 0l1.723-1.723c.185-.185.554-.062.554.215v6.523c0 .247.185.462.43.462h.924c.246 0 .492-.246.492-.462V4.723c0-.277.308-.4.523-.215L11.17 6.23c.185.184.462.184.646 0l.647-.646c.184-.185.184-.462 0-.647L8.308.754z"/>
    </defs>
    <g fill="none" fill-rule="evenodd">
        <mask id="prefix__b" fill="#fff">
            <use xlink:href="#prefix__a"/>
        </mask>
        <use fill="#706E6B" xlink:href="#prefix__a"/>
        <g fill="#FFF" mask="url(#prefix__b)">
            <path d="M0 0H17V17H0z" transform="translate(-1 -1)"/>
        </g>
    </g>
</svg>
