<svg xmlns="http://www.w3.org/2000/svg" xmlns:xlink="http://www.w3.org/1999/xlink" width="18" height="15" viewBox="0 0 18 15">
    <defs>
        <path id="prefix__a" d="M14.8.23H1.138c-.461 0-.677.524-.4.862l5.97 6.985c.184.215.277.523.277.8v4.43c0 .247.246.462.492.462H8.4c.246 0 .43-.215.43-.461V8.877c0-.308.124-.585.34-.8l6.03-6.985c.277-.338.061-.861-.4-.861z"/>
    </defs>
    <g fill="none" fill-rule="evenodd">
        <mask id="prefix__b" fill="#fff">
            <use xlink:href="#prefix__a"/>
        </mask>
        <use fill="#706E6B" xlink:href="#prefix__a"/>
        <g fill="#FFF" mask="url(#prefix__b)">
            <path d="M0 0H17V17H0z" transform="translate(-1 -2)"/>
        </g>
        <path fill="#F86E00" d="M13 5c.902 0 1.738.227 2.507.678.745.439 1.34 1.034 1.785 1.785.452.77.688 1.615.708 2.532 0 .917-.23 1.765-.688 2.542-.445.751-1.043 1.346-1.795 1.785-.777.452-1.62.678-2.527.678s-1.75-.23-2.527-.688c-.751-.445-1.346-1.043-1.785-1.795C8.226 11.74 8 10.9 8 9.995c0-.917.226-1.761.678-2.532.439-.751 1.034-1.346 1.785-1.785.77-.451 1.615-.677 2.537-.678z"/>
        <path fill="#FFF" d="M12.4 12.543L16.303 8.8 15.61 8 12.346 11.104 10.693 9.44 10 10.197z"/>
    </g>
</svg>
