<svg xmlns="http://www.w3.org/2000/svg" width="22" height="22" viewBox="0 0 22 22">
    <g fill="#706E6B">
        <path d="M20.51 20.524c1.643-1.643 1.643-4.331 0-5.974-1.419-1.419-3.584-1.642-5.152-.672L11.55 10.07l1.493-1.494-5.974-1.493 1.494 5.974 1.493-1.494 3.808 3.808c-.896 1.643-.746 3.734.672 5.153 1.643 1.642 4.332 1.642 5.974 0zm-1.493-1.494c-.822.822-2.166.822-2.987 0-.821-.82-.821-2.165 0-2.986.821-.822 2.165-.822 2.987 0 .82.82.82 2.165 0 2.986zM4.224 7.666C2.339 7.666.795 6.123.795 4.238.795 2.352 2.34.809 4.224.809c1.885 0 3.429 1.543 3.429 3.429 0 1.885-1.544 3.428-3.429 3.428z" transform="rotate(90 11 11)"/>
    </g>
</svg>
