<svg xmlns="http://www.w3.org/2000/svg" xmlns:xlink="http://www.w3.org/1999/xlink" width="16" height="16" viewBox="0 0 16 16">
    <defs>
        <path id="prefix__a" d="M15.946 7.688c-.492-.985-1.138-1.877-1.938-2.585l-2.616 2.585v.277c0 1.877-1.507 3.384-3.384 3.384H7.73l-1.662 1.662c.616.123 1.262.215 1.908.215 3.477 0 6.492-2.03 7.938-4.953.123-.216.123-.4.031-.585zm-1.015-6l-.646-.646c-.185-.185-.523-.154-.739.092L11.3 3.38c-1.015-.43-2.123-.646-3.292-.646-3.477 0-6.493 2.03-7.939 4.954-.092.185-.092.4 0 .554.677 1.384 1.693 2.523 2.954 3.384l-1.846 1.877c-.215.216-.246.554-.092.739l.646.646c.184.185.523.154.738-.092l12.37-12.37c.246-.215.276-.553.092-.738zM4.623 7.965c0-1.877 1.508-3.385 3.385-3.385.615 0 1.169.154 1.661.431l-.923.923c-.246-.061-.492-.123-.738-.123-1.2 0-2.154.954-2.154 2.154 0 .246.061.492.123.738l-.923.923c-.277-.492-.43-1.046-.43-1.661z"/>
    </defs>
    <g fill="none" fill-rule="evenodd">
        <mask id="prefix__b" fill="#fff">
            <use xlink:href="#prefix__a"/>
        </mask>
        <use fill="#706E6B" xlink:href="#prefix__a"/>
        <g fill="#FFF" mask="url(#prefix__b)">
            <path d="M0 0H17V17H0z" transform="translate(-1 -1)"/>
        </g>
    </g>
</svg>
