<svg xmlns="http://www.w3.org/2000/svg" xmlns:xlink="http://www.w3.org/1999/xlink" width="16" height="16" viewBox="0 0 16 16">
    <defs>
        <path id="prefix__a" d="M14.77 15.385H1.23c-.338 0-.615-.277-.615-.616V1.231c0-.339.277-.616.616-.616h13.538c.339 0 .616.277.616.616v13.538c0 .339-.277.616-.616.616zM1.845 14.154h12.308V1.846H1.846v12.308zm10.154-8H4c-.185 0-.308-.123-.308-.308V4c0-.185.123-.308.308-.308h8c.185 0 .308.123.308.308v1.846c0 .185-.123.308-.308.308zm-6.154 6.154H4c-.185 0-.308-.123-.308-.308V8.308C3.692 8.123 3.815 8 4 8h1.846c.185 0 .308.123.308.308V12c0 .185-.123.308-.308.308zm6.154 0H8.308C8.123 12.308 8 12.185 8 12V8.308C8 8.123 8.123 8 8.308 8H12c.185 0 .308.123.308.308V12c0 .185-.123.308-.308.308z"/>
    </defs>
    <g fill="none" fill-rule="evenodd">
        <mask id="prefix__b" fill="#fff">
            <use xlink:href="#prefix__a"/>
        </mask>
        <use fill="#706E6B" xlink:href="#prefix__a"/>
        <g fill="#FFF" mask="url(#prefix__b)">
            <path d="M0 0H17V17H0z" transform="translate(-1 -1)"/>
        </g>
    </g>
</svg>
