<svg xmlns="http://www.w3.org/2000/svg" xmlns:xlink="http://www.w3.org/1999/xlink" width="16" height="16" viewBox="0 0 16 16">
    <defs>
        <path id="prefix__a" d="M7.105 5.846c-1.2 0-2.154.954-2.154 2.154s.954 2.154 2.154 2.154S9.259 9.2 9.259 8s-.954-2.154-2.154-2.154zm6.462 4.092l-1.139-.953c.062-.339.092-.708.092-1.047 0-.338-.03-.707-.092-1.046l1.139-.954c.369-.307.492-.861.246-1.292l-.493-.861c-.184-.308-.523-.493-.892-.493-.123 0-.246.031-.338.062l-1.416.523c-.554-.492-1.169-.83-1.815-1.046l-.246-1.446C8.52.892 8.09.615 7.597.615h-.984c-.493 0-.923.277-1.016.77L5.351 2.8c-.677.215-1.292.585-1.846 1.046L2.09 3.323c-.123-.03-.216-.061-.339-.061-.37 0-.708.184-.892.492l-.492.861C.12 5.046.213 5.6.613 5.908l1.138.954c-.061.338-.092.707-.092 1.046 0 .369.03.707.092 1.046l-1.138.954c-.37.307-.493.861-.246 1.292l.492.862c.184.307.523.492.892.492.123 0 .246-.03.339-.062l1.415-.523c.554.493 1.17.831 1.815 1.046l.247 1.477c.092.493.492.831 1.015.831h.985c.492 0 .923-.37 1.015-.861l.246-1.477c.708-.247 1.354-.616 1.908-1.139l1.323.523c.123.031.246.062.37.062.368 0 .707-.185.891-.493l.462-.8c.277-.338.154-.892-.215-1.2zm-6.462 1.447C5.228 11.385 3.72 9.877 3.72 8c0-1.877 1.508-3.385 3.385-3.385 1.877 0 3.385 1.508 3.385 3.385 0 1.877-1.508 3.385-3.385 3.385z"/>
    </defs>
    <g fill="none" fill-rule="evenodd" transform="translate(1)">
        <mask id="prefix__b" fill="#fff">
            <use xlink:href="#prefix__a"/>
        </mask>
        <use fill="#706E6B" xlink:href="#prefix__a"/>
        <g fill="#FFF" mask="url(#prefix__b)">
            <path d="M0 0H17V17H0z" transform="translate(-2 -1)"/>
        </g>
    </g>
</svg>
