<svg xmlns="http://www.w3.org/2000/svg" width="20" height="21" viewBox="0 0 20 21">
    <g fill="none">
        <path fill="#FF7100" d="M17.263.044V0c.534.026.989.245 1.355.639.367.393.534.875.51 1.452V18.91c0 .577-.19 1.067-.566 1.479-.383.41-.829.612-1.355.612H1.921c-.534 0-.997-.201-1.363-.612-.375-.411-.558-.902-.558-1.48V2.092C0 1.514.183 1.024.558.612.932.201 1.387 0 1.92 0h15.342v.044z"/>
        <g fill="#FFF">
            <path d="M0 2.5H1V12.5H0zM14.063 2.5H15.063V12.5H14.063zM1.875 1.25H2.875V13.75H1.875zM12.188 1.25H13.188V13.75H12.188zM10 0H5c-.688 0-1.25.563-1.25 1.25v12.5c0 .688.563 1.25 1.25 1.25h5c.688 0 1.25-.563 1.25-1.25V1.25C11.25.562 10.687 0 10 0z" transform="translate(2 3)"/>
        </g>
    </g>
</svg>
