<svg xmlns="http://www.w3.org/2000/svg" width="21" height="19" viewBox="0 0 21 19">
    <g fill="none" fill-rule="evenodd">
        <g transform="translate(0 1)">
            <g fill="#333">
                <path d="M19.8 4.243L9.9 9.318 0 4.243 9.9 0l9.9 4.243zm-2.405.093L9.9 1.167 2.436 4.336 9.9 7.956l7.495-3.62zM4.363 10.382L0 12.552 9.9 17.6l9.9-5.047-4.333-2.17-1.05.535 3.158 1.635L9.9 16.419l-7.56-3.866 3.125-1.6z"/>
                <path d="M4.163 6.212L0 8.262l9.9 5.047 9.9-5.048-4.15-2.05-1.05.537 2.975 1.513L9.9 12.127 2.34 8.261l2.925-1.48z"/>
            </g>
            <circle cx="15.5" cy="11.6" r="7" fill="#FFF"/>
        </g>
        <path fill="#F86E00" d="M15.5 7c.992 0 1.912.25 2.758.746a5.49 5.49 0 0 1 1.963 1.963A5.66 5.66 0 0 1 21 12.495a5.407 5.407 0 0 1-.757 2.796 5.463 5.463 0 0 1-1.974 1.963 5.437 5.437 0 0 1-2.78.746 5.377 5.377 0 0 1-2.78-.757 5.463 5.463 0 0 1-1.963-1.974A5.427 5.427 0 0 1 10 12.495a5.41 5.41 0 0 1 .746-2.786 5.378 5.378 0 0 1 1.963-1.963A5.429 5.429 0 0 1 15.5 7zm-.454 9L20 11.056 19.12 10l-4.142 4.099L12.88 11.9l-.88 1L15.046 16z"/>
    </g>
</svg>
