<svg xmlns="http://www.w3.org/2000/svg" width="20" height="18" viewBox="0 0 20 18">
    <g fill="#333" fill-rule="evenodd">
        <path d="M19.8 4.243L9.9 9.318 0 4.243 9.9 0l9.9 4.243zm-2.405.093L9.9 1.167 2.436 4.336 9.9 7.956l7.495-3.62zM4.363 10.382L0 12.552 9.9 17.6l9.9-5.047-4.333-2.17-1.05.535 3.158 1.635L9.9 16.419l-7.56-3.866 3.125-1.6z"/>
        <path d="M4.163 6.212L0 8.262l9.9 5.047 9.9-5.048-4.15-2.05-1.05.537 2.975 1.513L9.9 12.127 2.34 8.261l2.925-1.48z"/>
    </g>
</svg>
