<svg xmlns="http://www.w3.org/2000/svg" xmlns:xlink="http://www.w3.org/1999/xlink" width="18" height="18" viewBox="0 0 18 18">
    <defs>
        <path id="prefix__a" d="M2.154.23c.677 0 1.23.555 1.23 1.232 0 .676-.553 1.23-1.23 1.23-.677 0-1.23-.554-1.23-1.23C.923.785 1.476.23 2.153.23zm3.692 0c.677 0 1.23.555 1.23 1.232 0 .676-.553 1.23-1.23 1.23-.677 0-1.23-.554-1.23-1.23 0-.677.553-1.231 1.23-1.231zM2.154 3.924c.677 0 1.23.554 1.23 1.23 0 .678-.553 1.232-1.23 1.232-.677 0-1.23-.554-1.23-1.231s.553-1.23 1.23-1.23zm3.692 0c.677 0 1.23.554 1.23 1.23 0 .678-.553 1.232-1.23 1.232-.677 0-1.23-.554-1.23-1.231s.553-1.23 1.23-1.23zM2.154 7.615c.677 0 1.23.554 1.23 1.231s-.553 1.23-1.23 1.23c-.677 0-1.23-.553-1.23-1.23 0-.677.553-1.23 1.23-1.23zm3.692 0c.677 0 1.23.554 1.23 1.231s-.553 1.23-1.23 1.23c-.677 0-1.23-.553-1.23-1.23 0-.677.553-1.23 1.23-1.23zm-3.692 3.693c.677 0 1.23.554 1.23 1.23 0 .677-.553 1.231-1.23 1.231-.677 0-1.23-.554-1.23-1.23 0-.677.553-1.231 1.23-1.231zm3.692 0c.677 0 1.23.554 1.23 1.23 0 .677-.553 1.231-1.23 1.231-.677 0-1.23-.554-1.23-1.23 0-.677.553-1.231 1.23-1.231z"/>
    </defs>
    <g fill="none" fill-rule="evenodd" transform="translate(5 2)">
        <mask id="prefix__b" fill="#fff">
            <use xlink:href="#prefix__a"/>
        </mask>
        <use fill="#706E6B" xlink:href="#prefix__a"/>
        <g fill="#706E6B" mask="url(#prefix__b)">
            <path d="M0 0H17.231V17.231H0z" transform="translate(-4.615 -1.615)"/>
        </g>
    </g>
</svg>
