<svg xmlns="http://www.w3.org/2000/svg" width="21" height="22" viewBox="0 0 21 22">
    <path fill="#414042" fill-rule="evenodd" d="M20.02 19.019c0 .546-.196 1.016-.59 1.409-.392.393-.869.589-1.428.589H1.998c-.56 0-1.032-.196-1.419-.59A1.939 1.939 0 0 1 0 19.02V2.975c0-.546.193-1.016.58-1.409.386-.393.859-.589 1.418-.589h15.944c.6 0 1.096.196 1.489.59.393.392.589.862.589 1.408v16.044zm-6.154-10.75l1.658-1.678-1.038-1.039-1.719 1.599a4.541 4.541 0 0 0-1.688-.76 4.868 4.868 0 0 0-1.808-.06c-.6.094-1.172.3-1.719.62A4.59 4.59 0 0 0 6.134 8.27a4.67 4.67 0 0 0-.88 2.767 4.76 4.76 0 0 0 .88 2.787l-1.658 1.639L5.514 16.5l1.659-1.638c.533.373 1.112.63 1.738.77.626.14 1.232.156 1.818.05a5.331 5.331 0 0 0 1.689-.62c.539-.306.995-.72 1.368-1.239.626-.852.946-1.785.96-2.797a4.48 4.48 0 0 0-.88-2.757zm-2.138 0l-4.495 4.496c-.16-.226-.28-.5-.36-.819a4.044 4.044 0 0 1-.1-.899c0-.92.317-1.695.95-2.328a3.118 3.118 0 0 1 2.287-.949c.306 0 .603.047.89.14.285.093.562.213.828.36zm1.04 1.04c.146.293.259.576.339.849.08.273.12.57.12.889 0 .892-.317 1.655-.95 2.288-.632.632-1.388.949-2.267.949-.293 0-.58-.034-.86-.1-.319-.08-.592-.2-.818-.36l4.435-4.515z"/>
</svg>
