<svg xmlns="http://www.w3.org/2000/svg" width="29" height="32" viewBox="0 0 29 32">
<path d="M26.57 13.341l-16.72 16.961c-1.169 1.137-2.53 1.714-4.116 1.714-1.57 0-2.931-0.577-4.052-1.714s-1.682-2.514-1.682-4.148c0-1.602 0.545-2.979 1.666-4.116l13.982-14.142c0.705-0.753 1.57-1.121 2.611-1.121s1.938 0.368 2.643 1.073c0.721 0.737 1.089 1.618 1.089 2.675 0 1.073-0.368 1.97-1.089 2.675l-10.458 10.666-1.89-1.97 10.474-10.618c0.176-0.208 0.272-0.464 0.272-0.737s-0.096-0.529-0.272-0.737c-0.224-0.176-0.497-0.272-0.769-0.272s-0.529 0.096-0.721 0.272l-13.966 14.142c-0.561 0.625-0.865 1.345-0.865 2.194 0 0.865 0.288 1.602 0.865 2.194 0.593 0.593 1.313 0.897 2.162 0.897 0.865 0 1.586-0.304 2.21-0.913l16.752-16.913c0.993-1.009 1.505-2.226 1.505-3.62s-0.497-2.611-1.505-3.588c-1.009-1.009-2.194-1.505-3.572-1.505-1.409 0-2.595 0.497-3.587 1.505l-12.732 12.909-1.922-1.954 12.732-12.909c1.521-1.505 3.363-2.258 5.509-2.258 2.114 0 3.94 0.753 5.461 2.258 1.505 1.538 2.258 3.379 2.258 5.557s-0.769 4.036-2.274 5.541z"></path>
</svg>
