<?xml version="1.0" encoding="utf-8"?>
<!-- Generator: Adobe Illustrator 23.0.2, SVG Export Plug-In . SVG Version: 6.00 Build 0)  -->
<svg version="1.1" id="Layer_1" xmlns="http://www.w3.org/2000/svg" xmlns:xlink="http://www.w3.org/1999/xlink" x="0px" y="0px"
	 viewBox="0 0 24 24" style="enable-background:new 0 0 24 24;" xml:space="preserve">
<g>
	<defs>
		<rect id="SVGID_3_" x="36" y="-66" width="19" height="19"/>
	</defs>
	<clipPath id="SVGID_2_">
		<use xlink:href="#SVGID_3_"  style="overflow:visible;"/>
	</clipPath>
	<g style="clip-path:url(#SVGID_2_);">
		
			<image style="overflow:visible;" width="2128" height="1002" xlink:href="Screen Shot 2019-03-21 at 12.49.35.png"  transform="matrix(0.5 0 0 0.5 -748 -248)">
		</image>
	</g>
</g>
<path class="st0" d="M11.83,16.69L8,20.5V24H0v-3.75c0-1.64,2.51-3.02,6-3.54c0.25-0.03,0.5-0.06,0.75-0.09v-0.85
	c-0.27-0.18-0.52-0.4-0.75-0.64c-0.92-0.95-1.5-2.33-1.5-3.88C4.5,8.35,6.51,6,9,6c0.56,0,1.1,0.12,1.6,0.35
	c1.56,0.69,2.71,2.36,2.88,4.37c-0.36,0.45-0.66,0.95-0.89,1.48c-0.21,0.47-0.36,0.93-0.45,1.41C12.05,14.02,12,14.5,12,15
	c0,0.04,0,0.08,0.01,0.12c-0.23,0.25-0.49,0.47-0.76,0.65v0.85C11.45,16.64,11.64,16.67,11.83,16.69z M15.21,9.12
	c0.73-0.47,1.53-0.8,2.36-0.97c0.39-0.09,0.81-0.14,1.24-0.14c0.44-0.8,0.69-1.74,0.69-2.76C19.5,2.35,17.49,0,15,0
	c-2.19,0-4.01,1.82-4.42,4.23C12.78,4.84,14.54,6.71,15.21,9.12z M24,15c0,0.9-0.24,1.74-0.65,2.47c-0.11,0.18-0.22,0.36-0.36,0.53
	c-0.14,0.2-0.31,0.39-0.49,0.56c-0.78,0.78-1.82,1.29-2.96,1.41C19.36,19.99,19.18,20,19,20c-0.34,0-0.68-0.03-1-0.1
	c-0.01,0-0.03-0.01-0.04-0.01c-0.34-0.07-0.65-0.17-0.96-0.3L15.5,21H14v1.5h-1.5V24H10v-2.67l4.16-4.15l0.23-0.22v-0.01
	c-0.13-0.3-0.22-0.62-0.29-0.95c-0.07-0.32-0.1-0.66-0.1-1c0-0.34,0.03-0.68,0.1-1c0.07-0.35,0.18-0.68,0.32-1
	c0.26-0.58,0.62-1.11,1.07-1.55c0.16-0.16,0.33-0.31,0.52-0.45c0.05-0.04,0.1-0.07,0.15-0.11c0.34-0.23,0.7-0.43,1.09-0.57
	c0.24-0.09,0.49-0.17,0.75-0.22c0.32-0.07,0.66-0.1,1-0.1c1.13,0,2.17,0.37,3,1c0.76,0.57,1.36,1.36,1.7,2.28
	C23.89,13.82,24,14.4,24,15z M20.5,12.5c-0.4,0-0.74,0.23-0.9,0.57c-0.06,0.13-0.1,0.28-0.1,0.43c0,0.55,0.45,1,1,1s1-0.45,1-1
	S21.05,12.5,20.5,12.5z" fill='#3597d2'/>










</svg>
