<svg xmlns="http://www.w3.org/2000/svg" width="29" height="32" viewBox="0 0 29 32">
<path d="M4.098 21.258c0 0.561-0.2 1.041-0.614 1.441s-0.894 0.601-1.455 0.601-1.041-0.2-1.441-0.601-0.587-0.881-0.587-1.441 0.2-1.054 0.601-1.455 0.881-0.614 1.441-0.614 1.054 0.2 1.455 0.614 0.601 0.894 0.601 1.455zM7.221 2.293c0 0.561-0.2 1.041-0.601 1.441s-0.867 0.601-1.428 0.601-1.041-0.2-1.441-0.601-0.587-0.868-0.587-1.441 0.2-1.041 0.601-1.441 0.881-0.601 1.441-0.601 1.041 0.2 1.441 0.601 0.574 0.881 0.574 1.441zM5.312 18.843c-0.16 0.080-0.28 0.214-0.347 0.4s-0.040 0.36 0.067 0.534c0.067 0.12 0.147 0.214 0.267 0.28s0.24 0.093 0.36 0.093c0.067 0 0.12-0.013 0.173-0.027s0.107-0.040 0.173-0.067l1.628-0.908c0.16-0.080 0.28-0.214 0.334-0.4s0.040-0.36-0.053-0.534c-0.107-0.16-0.254-0.28-0.44-0.334s-0.36-0.040-0.534 0.053l-1.628 0.908zM7.408 4.989c-0.080-0.173-0.214-0.28-0.387-0.334s-0.36-0.027-0.547 0.053c-0.16 0.107-0.28 0.24-0.32 0.427s-0.040 0.347 0.040 0.507l0.814 1.495c0.067 0.107 0.147 0.187 0.254 0.267s0.214 0.12 0.347 0.12c0.067 0 0.12-0.013 0.173-0.027s0.107-0.040 0.173-0.067c0.16-0.080 0.28-0.214 0.334-0.4s0.027-0.374-0.067-0.534l-0.814-1.508zM9.25 11.115c0.107 0.067 0.227 0.093 0.36 0.093 0.040 0 0.093 0 0.16-0.013s0.107-0.027 0.147-0.080c0.16-0.080 0.28-0.214 0.347-0.4s0.040-0.36-0.067-0.534l-0.787-1.468c-0.080-0.16-0.214-0.28-0.4-0.347s-0.36-0.040-0.534 0.067c-0.16 0.080-0.28 0.214-0.347 0.4s-0.040 0.36 0.067 0.534l0.787 1.468c0.053 0.133 0.147 0.227 0.267 0.28zM26.653 0.892c-0.601-0.601-1.348-0.908-2.229-0.908-0.854 0-1.588 0.307-2.202 0.908s-0.921 1.335-0.921 2.189c0 0.294 0.040 0.561 0.107 0.814s0.174 0.494 0.294 0.721l-7.127 7.447c-0.307-0.187-0.654-0.334-1.014-0.44s-0.761-0.16-1.175-0.16c-1.175 0-2.175 0.414-3.016 1.255s-1.268 1.842-1.268 3.003c0 1.188 0.427 2.202 1.268 3.030s1.855 1.255 3.016 1.255c0.027 0 0.040 0 0.067 0s0.053 0 0.093 0l1.562 6.259c-0.44 0.267-0.787 0.641-1.068 1.108s-0.4 0.988-0.4 1.548c0 0.854 0.307 1.588 0.921 2.189s1.348 0.908 2.202 0.908 1.588-0.307 2.202-0.908 0.921-1.335 0.921-2.189c0-0.827-0.28-1.548-0.854-2.162s-1.281-0.934-2.109-0.974l-1.562-6.219c0.694-0.36 1.255-0.867 1.695-1.548s0.654-1.428 0.654-2.269c0-0.44-0.067-0.854-0.187-1.268s-0.307-0.774-0.534-1.108l7.1-7.474c0.214 0.107 0.427 0.187 0.654 0.24s0.467 0.080 0.721 0.080c0.854 0 1.588-0.307 2.189-0.921s0.908-1.348 0.908-2.202-0.307-1.602-0.908-2.202zM14.495 16.934c-0.12 0.214-0.267 0.387-0.454 0.534-0.027 0.040-0.053 0.080-0.093 0.107s-0.080 0.053-0.12 0.080c-0.187 0.147-0.4 0.267-0.654 0.36s-0.507 0.147-0.787 0.147c-0.067 0-0.12 0-0.187-0.013s-0.12-0.027-0.16-0.053c-0.267-0.027-0.521-0.093-0.734-0.2s-0.427-0.254-0.614-0.427c-0.174-0.16-0.307-0.36-0.427-0.561s-0.2-0.427-0.267-0.654c-0.013-0.093-0.013-0.174-0.013-0.254s0-0.174 0-0.28c0-0.334 0.067-0.641 0.187-0.934s0.307-0.547 0.534-0.787c0.16-0.147 0.347-0.28 0.547-0.387s0.427-0.187 0.667-0.24c0.067-0.013 0.133-0.040 0.214-0.040s0.16-0.013 0.254-0.013c0.16 0 0.32 0.013 0.467 0.053s0.28 0.067 0.4 0.107c0.307 0.107 0.587 0.267 0.814 0.507s0.4 0.494 0.534 0.787c0.067 0.147 0.12 0.307 0.16 0.467s0.067 0.334 0.067 0.507c0 0.107-0.013 0.2-0.027 0.28s-0.040 0.174-0.067 0.28c-0.040 0.2-0.12 0.427-0.24 0.627zM14.481 27.731c0.16-0.16 0.36-0.307 0.574-0.4s0.44-0.16 0.667-0.16c0.107 0 0.2 0 0.294 0.013s0.187 0.040 0.267 0.080c0.334 0.107 0.614 0.307 0.841 0.614s0.347 0.641 0.347 1.014c0 0.454-0.174 0.854-0.52 1.201s-0.761 0.52-1.241 0.52c-0.454 0-0.854-0.174-1.201-0.52s-0.494-0.747-0.494-1.201c0-0.227 0.040-0.44 0.12-0.641s0.2-0.374 0.347-0.52zM17.645 17.909c-0.16-0.080-0.347-0.093-0.534-0.053s-0.32 0.16-0.4 0.334c-0.107 0.16-0.133 0.334-0.080 0.52s0.16 0.32 0.334 0.427l1.628 0.908c0.040 0.040 0.093 0.067 0.16 0.080s0.12 0.013 0.187 0.013 0.24-0.027 0.347-0.080 0.187-0.147 0.254-0.267c0.107-0.16 0.133-0.347 0.080-0.534s-0.16-0.32-0.334-0.4l-1.642-0.948zM21.675 20.217c-0.16-0.080-0.334-0.107-0.52-0.067s-0.32 0.147-0.427 0.307c-0.080 0.16-0.107 0.347-0.067 0.534s0.147 0.334 0.307 0.44l1.628 0.908c0.040 0.040 0.093 0.067 0.16 0.080s0.12 0.013 0.187 0.013 0.24-0.027 0.347-0.093 0.187-0.147 0.254-0.254c0.107-0.16 0.133-0.347 0.080-0.534s-0.16-0.32-0.334-0.4l-1.615-0.934zM24.424 4.802c-0.040 0-0.093 0-0.147 0s-0.107 0-0.174 0c-0.334-0.067-0.614-0.214-0.854-0.454s-0.4-0.521-0.48-0.827c-0.027-0.080-0.040-0.16-0.053-0.214s-0.013-0.12-0.013-0.187c0-0.48 0.174-0.881 0.52-1.215s0.747-0.507 1.201-0.507c0.48 0 0.881 0.16 1.215 0.507s0.507 0.734 0.507 1.215c0 0.454-0.16 0.854-0.507 1.188s-0.734 0.494-1.215 0.494zM28.562 23.607c0 0.561-0.2 1.041-0.601 1.441s-0.881 0.601-1.441 0.601-1.041-0.2-1.441-0.601-0.601-0.881-0.601-1.441 0.2-1.041 0.601-1.441 0.881-0.601 1.441-0.601 1.041 0.2 1.441 0.601 0.601 0.867 0.601 1.441z"></path>
</svg>
