<svg xmlns="http://www.w3.org/2000/svg" width="17" height="17" viewBox="0 0 17 17">
  <g fill="none" fill-rule="evenodd" stroke="#FFCB6C" stroke-linecap="round" stroke-linejoin="round" transform="matrix(1 0 0 -1 1.5 16)">
    <polyline points="8.564 10.167 8.012 8.991 9.188 8.439"/>
    <path d="M8.28374872,5.36179886 C12.05663,4.41857852 13.9430707,5.36179886 13.9430707,7.24823952 C13.9430707,9.13468018 12.05663,10.0779005 8.28374872,9.13468018"/>
    <polyline points="6.487 3.487 5.745 4.553 4.678 3.811"/>
    <path d="M2.42117323,6.22528563 C-0.282096241,3.42947576 -0.408487765,1.32420798 1.22516985,0.380987652 C2.85893227,-0.562232679 4.6189814,0.599814769 5.68859326,4.33884497"/>
    <polyline points="1.188 8.555 2.483 8.664 2.373 9.959"/>
    <path d="M5.58233425,10.664594 C4.51272239,14.4036242 2.75267326,15.5657765 1.11901564,14.6225562 C-0.514746776,13.6793358 -0.388355251,11.5739632 2.31491422,8.77815338"/>
  </g>
</svg>
