<svg xmlns="http://www.w3.org/2000/svg" width="17" height="17" viewBox="0 0 17 17">
  <g fill="none" fill-rule="evenodd" stroke="#C76B00" stroke-linecap="round" stroke-linejoin="round" transform="translate(.5 .5)">
    <path d="M15.4318319,6.16109192 C15.5106922,6.58020956 15.5519422,7.0126728 15.5519422,7.45473162 C15.5519422,11.0757978 12.7854349,14.050761 9.25083927,14.3812022"/>
    <polyline points="9.856 15.349 8.911 14.361 9.898 13.416"/>
    <path d="M2.11413706,4.92028309 C3.12740912,2.33134927 5.64696795,0.497819857 8.59501942,0.497819857 C11.5428503,0.497819857 14.0625194,2.33134927 15.0757915,4.92028309"/>
    <polyline points="15.662 3.815 15.201 5.102 13.914 4.64"/>
    <path d="M7.95133192,14.3823713 C4.41078045,14.0575552 1.63798633,11.0800552 1.63798633,7.4547978 C1.63798633,7.01273897 1.67923633,6.58027574 1.75809662,6.1610478"/>
    <polyline points=".707 6.674 1.9 6.005 2.569 7.198"/>
  </g>
</svg>
