<?xml version="1.0" encoding="UTF-8"?>
<svg width="336px" height="142px" viewBox="0 0 336 142" version="1.1" xmlns="http://www.w3.org/2000/svg" xmlns:xlink="http://www.w3.org/1999/xlink">
    <!-- Generator: Sketch 56.3 (81716) - https://sketch.com -->
    <title>Artboard</title>
    <desc>Created with Sketch.</desc>
    <g id="Artboard" stroke="none" stroke-width="1" fill="none" fill-rule="evenodd">
        <path d="M201.82208,119.387836 L200.778709,116.480558 L195.166092,116.480558 L194.068753,119.387836 L192,119.387836 L196.965007,106.681954 L198.997782,106.681954 L203.96279,119.387836 L201.82208,119.387836 Z M197.9724,108.584247 L195.705766,114.955135 L200.239034,114.955135 L197.9724,108.584247 Z M213.946772,119.387836 L212.183834,119.387836 C212.111877,118.825521 212.069903,118.430709 212.05791,118.20339 L212.021932,118.20339 C211.67414,118.681954 211.242404,119.040876 210.726713,119.28016 C210.211021,119.519443 209.581407,119.639083 208.837851,119.639083 C207.51864,119.639083 206.520251,119.193424 205.842656,118.302094 C205.165062,117.410763 204.826269,116.247265 204.826269,114.811565 C204.826269,113.890324 205.000163,113.058827 205.347955,112.317049 C205.695747,111.57527 206.190444,110.989035 206.83206,110.558325 C207.473677,110.127615 208.232212,109.912263 209.107689,109.912263 C210.223022,109.912263 211.158449,110.247255 211.913997,110.917248 L211.913997,106.681954 L213.802859,106.681954 L213.802859,117.306082 C213.802859,117.856433 213.850829,118.550345 213.946772,119.387836 Z M211.913997,115.385842 L211.913997,112.568295 C211.254391,111.802588 210.414906,111.419741 209.395515,111.419741 C208.580002,111.419741 207.941394,111.730804 207.47967,112.352941 C207.017946,112.975078 206.787087,113.794611 206.787087,114.811565 C206.787087,115.852448 207.008951,116.665999 207.452686,117.252243 C207.896421,117.838487 208.508046,118.131605 209.28758,118.131605 C210.067114,118.131605 210.699727,117.874379 211.185436,117.35992 C211.671146,116.845461 211.913997,116.187442 211.913997,115.385842 Z M224.290537,110.163509 L220.872597,119.387836 L218.785855,119.387836 L215.295959,110.163509 L217.328733,110.163509 L219.847215,117.50349 L219.883194,117.50349 L222.329719,110.163509 L224.290537,110.163509 Z M225.046082,116.821535 C225.046082,115.625119 225.477817,114.79063 226.341301,114.318046 C227.204785,113.845461 228.476006,113.609172 230.155002,113.609172 C230.550766,113.609172 230.856579,113.615154 231.072449,113.627119 L231.072449,113.142572 C231.072449,111.970084 230.376876,111.383848 228.985707,111.383848 C228.014288,111.383848 227.102846,111.62911 226.251355,112.119641 L225.603746,110.86341 C226.095452,110.564306 226.644116,110.331008 227.249754,110.163509 C227.855392,109.996011 228.464019,109.912263 229.075653,109.912263 C230.430843,109.912263 231.417239,110.220336 232.034869,110.836491 C232.6525,111.452645 232.961311,112.394809 232.961311,113.663011 L232.961311,117.306082 C232.961311,117.856433 233.009282,118.550345 233.105224,119.387836 L231.360276,119.387836 C231.276326,118.90927 231.234352,118.544368 231.234352,118.293121 L231.180384,118.293121 C230.820599,118.747759 230.400857,119.085742 229.921143,119.307079 C229.44143,119.528416 228.811816,119.639083 228.032282,119.639083 C227.144812,119.639083 226.425253,119.396812 225.873583,118.912263 C225.321913,118.427714 225.046082,117.730812 225.046082,116.821535 Z M231.072449,115.888335 L231.072449,114.937188 L230.334894,114.919242 C229.135611,114.919242 228.278136,115.053837 227.762445,115.323031 C227.246753,115.592225 226.988911,116.055829 226.988911,116.713858 C226.988911,117.168497 227.126826,117.521434 227.402661,117.772682 C227.678497,118.023929 228.056265,118.149551 228.535978,118.149551 C229.05167,118.149551 229.501394,118.038884 229.885165,117.817547 C230.268936,117.59621 230.562756,117.312066 230.766634,116.965105 C230.970512,116.618144 231.072449,116.259224 231.072449,115.888335 Z M235.803598,112.245264 C235.803598,111.563307 235.761624,110.869395 235.677674,110.163509 L237.476589,110.163509 C237.548546,110.522434 237.596517,110.881354 237.620503,111.240279 L237.656481,111.240279 C237.956302,110.833497 238.36705,110.51047 238.888738,110.271186 C239.410426,110.031903 240.031046,109.912263 240.750616,109.912263 C241.913921,109.912263 242.78039,110.244264 243.350049,110.908275 C243.919709,111.572286 244.204534,112.382847 244.204534,113.33998 L244.204534,119.387836 L242.315673,119.387836 L242.315673,113.752742 C242.315673,113.094713 242.147776,112.550351 241.811976,112.119641 C241.476177,111.688931 240.942504,111.473579 240.210941,111.473579 C239.4434,111.473579 238.831775,111.730805 238.376047,112.245264 C237.92032,112.759723 237.692459,113.405779 237.692459,114.18345 L237.692459,119.387836 L235.803598,119.387836 L235.803598,112.245264 Z M251.076392,109.912263 C251.652048,109.912263 252.20371,109.996011 252.731395,110.163509 C253.259079,110.331008 253.738785,110.57627 254.170527,110.899302 L253.432972,112.209372 C252.737388,111.718841 251.957865,111.473579 251.094381,111.473579 C250.170933,111.473579 249.478358,111.766697 249.016634,112.352941 C248.55491,112.939185 248.324051,113.740773 248.324051,114.757727 C248.324051,115.750753 248.55491,116.549349 249.016634,117.153539 C249.478358,117.75773 250.158941,118.059821 251.058403,118.059821 C251.84993,118.059821 252.647441,117.808577 253.450961,117.306082 L254.134549,118.634098 C253.199108,119.304091 252.125766,119.639083 250.91449,119.639083 C249.823142,119.639083 248.941682,119.396812 248.270084,118.912263 C247.598485,118.427714 247.121777,117.817551 246.839946,117.081755 C246.558114,116.345958 246.417201,115.57129 246.417201,114.757727 C246.417201,113.788629 246.603087,112.939186 246.974864,112.209372 C247.346642,111.479558 247.883313,110.914259 248.584894,110.51346 C249.286475,110.11266 250.116966,109.912263 251.076392,109.912263 Z M264.100542,115.457627 L257.444554,115.457627 C257.516511,116.295119 257.792342,116.950147 258.272055,117.422732 C258.751768,117.895316 259.411364,118.131605 260.250862,118.131605 C260.79054,118.131605 261.267248,118.059821 261.681,117.916251 C262.094753,117.772681 262.529487,117.557329 262.985214,117.270189 L263.812716,118.472582 C263.285031,118.8674 262.724375,119.160517 262.130729,119.351944 C261.537084,119.543371 260.868494,119.639083 260.124938,119.639083 C259.165512,119.639083 258.341017,119.435695 257.651429,119.028913 C256.961841,118.622132 256.437163,118.050851 256.077378,117.315055 C255.717593,116.579259 255.537703,115.726824 255.537703,114.757727 C255.537703,113.298098 255.921468,112.125628 256.689009,111.240279 C257.456551,110.354931 258.541886,109.912263 259.945047,109.912263 C261.31223,109.912263 262.35559,110.348949 263.07516,111.222333 C263.79473,112.095717 264.15451,113.256224 264.15451,114.703888 C264.15451,114.9671 264.136521,115.218344 264.100542,115.457627 Z M262.301626,114.003988 C262.277641,113.214353 262.064771,112.571289 261.663011,112.074776 C261.261251,111.578263 260.682606,111.33001 259.927058,111.33001 C259.159516,111.33001 258.562882,111.584245 258.137137,112.092722 C257.711391,112.601199 257.474536,113.238281 257.426565,114.003988 L262.301626,114.003988 Z M274.948004,119.387836 L273.185067,119.387836 C273.11311,118.825521 273.071135,118.430709 273.059142,118.20339 L273.023164,118.20339 C272.675372,118.681954 272.243637,119.040876 271.727945,119.28016 C271.212253,119.519443 270.582639,119.639083 269.839083,119.639083 C268.519872,119.639083 267.521484,119.193424 266.843889,118.302094 C266.166294,117.410763 265.827501,116.247265 265.827501,114.811565 C265.827501,113.890324 266.001395,113.058827 266.349187,112.317049 C266.696979,111.57527 267.191676,110.989035 267.833292,110.558325 C268.474909,110.127615 269.233444,109.912263 270.108921,109.912263 C271.224254,109.912263 272.159681,110.247255 272.915229,110.917248 L272.915229,106.681954 L274.804091,106.681954 L274.804091,117.306082 C274.804091,117.856433 274.852061,118.550345 274.948004,119.387836 Z M272.915229,115.385842 L272.915229,112.568295 C272.255623,111.802588 271.416138,111.419741 270.396747,111.419741 C269.581235,111.419741 268.942626,111.730804 268.480902,112.352941 C268.019178,112.975078 267.788319,113.794611 267.788319,114.811565 C267.788319,115.852448 268.010183,116.665999 268.453918,117.252243 C268.897653,117.838487 269.509278,118.131605 270.288812,118.131605 C271.068346,118.131605 271.700959,117.874379 272.186668,117.35992 C272.672378,116.845461 272.915229,116.187442 272.915229,115.385842 Z" id="AdvancedRoutePlanning" fill="#3E3E3C" fill-rule="nonzero"></path>
        <polygon id="Clip-2" points="1 1 201.730217 1 201.730217 141.477697 1 141.477697"></polygon>
        <path d="M84.5310918,16.3246369 C91.006314,9.57954401 100.019101,5.39543416 109.988144,5.39543416 C123.237453,5.39543416 134.798399,12.7834213 140.951337,23.7522125 C146.305258,21.3629653 152.227357,20.0320125 158.456685,20.0320125 C182.356405,20.0320125 201.730217,39.575887 201.730217,63.6869315 C201.730217,87.7957457 182.356405,107.33962 158.456685,107.33962 C155.537733,107.33962 152.689037,107.047446 149.931784,106.489862 C144.510396,116.158368 134.177808,122.692694 122.322458,122.692694 C117.358846,122.692694 112.662874,121.546859 108.483225,119.508332 C102.987678,132.435358 90.1805322,141.5 75.2590285,141.5 C59.7186066,141.5 46.4715275,131.66868 41.3902651,117.876841 C39.1682931,118.345212 36.8637987,118.593337 34.5029883,118.593337 C16.000123,118.593337 1,103.438763 1,84.7424161 C1,72.2118323 7.73895944,61.2714779 17.7537245,55.4190769 C15.6912215,50.6729225 14.5453865,45.4388821 14.5453865,39.934971 C14.5453865,18.431189 32.0005516,1 53.5327705,1 C66.1743134,1 77.4085146,7.00908207 84.5310918,16.3246369" id="Fill-1" fill="#00A1E0"></path>
        <path d="M30.072984,73.860608 C29.9464124,74.1895825 30.1187058,74.2592805 30.1599671,74.3155965 C30.5368938,74.5899278 30.919954,74.7861973 31.305802,75.0081157 C33.3526927,76.0931741 35.2869513,76.4087666 37.3081931,76.4087666 C41.4248353,76.4087666 43.9841456,74.219692 43.9841456,70.6957616 L43.9841456,70.6260636 C43.9841456,67.3653127 41.0958608,66.1804469 38.3910211,65.3267859 L38.0358401,65.211366 C35.9950829,64.5495139 34.2331177,63.9785479 34.2331177,62.6325403 L34.2331177,62.5628423 C34.2331177,61.4131042 35.2652056,60.5655766 36.859338,60.5655766 C38.632455,60.5655766 40.7345464,61.156058 42.0911481,61.9048932 C42.0911481,61.9048932 42.4898206,62.1619394 42.6359076,61.7766489 C42.7139694,61.5697853 43.4003552,59.7225097 43.4722835,59.5245674 C43.5503453,59.3065521 43.4131796,59.1454104 43.2737836,59.0606576 C41.725373,58.1177832 39.5864811,57.4748889 37.3734304,57.4748889 L36.9619335,57.4771192 C33.1937813,57.4771192 30.5631002,59.7554072 30.5631002,63.0183884 L30.5631002,63.0880864 C30.5631002,66.5250337 33.4642095,67.6424319 36.1846615,68.4197039 L36.6223649,68.5524089 C38.6023454,69.1601754 40.3118978,69.6854195 40.3118978,71.0793793 L40.3118978,71.1490773 C40.3118978,72.4253869 39.2011906,73.372722 37.4107886,73.372722 C36.716039,73.372722 34.500758,73.35934 32.1070502,71.8460572 C31.8176641,71.6782245 31.6498313,71.5561136 31.4273553,71.4211783 C31.3097051,71.3470196 31.0158584,71.2187753 30.8876141,71.6062961 L30.072984,73.860608 Z" id="Fill-4" fill="#FFFFFF"></path>
        <path d="M90.3528256,73.860608 C90.2262541,74.1895825 90.3985475,74.2592805 90.4375784,74.3155965 C90.8145051,74.5899278 91.1981229,74.7861973 91.5856437,75.0081157 C93.6308616,76.0931741 95.5651202,76.4087666 97.586362,76.4087666 C101.704677,76.4087666 104.261757,74.219692 104.261757,70.6957616 L104.261757,70.6260636 C104.261757,67.3653127 101.37626,66.1804469 98.6686324,65.3267859 L98.3156818,65.211366 C96.2749246,64.5495139 94.5129594,63.9785479 94.5129594,62.6325403 L94.5129594,62.5628423 C94.5129594,61.4131042 95.5433745,60.5655766 97.1375069,60.5655766 C98.9128542,60.5655766 101.014388,61.156058 102.369317,61.9048932 C102.369317,61.9048932 102.77022,62.1619394 102.915749,61.7766489 C102.992138,61.5697853 103.680197,59.7225097 103.752125,59.5245674 C103.828514,59.3065521 103.693579,59.1454104 103.551953,59.0606576 C102.003542,58.1177832 99.8663227,57.4748889 97.6538297,57.4748889 L97.2417751,57.4771192 C93.4741805,57.4771192 90.8407116,59.7554072 90.8407116,63.0183884 L90.8407116,63.0880864 C90.8407116,66.5250337 93.7440511,67.6424319 96.4645031,68.4197039 L96.8999762,68.5524089 C98.8799567,69.1601754 100.591739,69.6854195 100.591739,71.0793793 L100.591739,71.1490773 C100.591739,72.4253869 99.4788019,73.372722 97.6883999,73.372722 C96.9936503,73.372722 94.7805997,73.35934 92.3852191,71.8460572 C92.0952754,71.6782245 91.9252123,71.5628046 91.7077546,71.4211783 C91.6313656,71.373226 91.285106,71.2382907 91.1652254,71.6062961 L90.3528256,73.860608 Z" id="Fill-5" fill="#FFFFFF"></path>
        <path d="M131.503078,66.9538158 C131.503078,68.9443904 131.132842,70.5173347 130.400734,71.6258116 C129.675317,72.7259247 128.580223,73.2595325 127.053,73.2595325 C125.526335,73.2595325 124.435144,72.7259247 123.723109,71.6258116 C123.002153,70.519565 122.63582,68.9443904 122.63582,66.9538158 C122.63582,64.9632411 123.002153,63.3969879 123.723109,62.2996627 C124.435144,61.2101437 125.526335,60.6832268 127.053,60.6832268 C128.580223,60.6832268 129.675317,61.212374 130.400734,62.2996627 C131.132842,63.3969879 131.503078,64.9632411 131.503078,66.9538158 M134.942255,63.2598222 C134.602129,62.1184479 134.077443,61.1125665 133.378232,60.2739602 C132.676792,59.4331237 131.788003,58.7578895 130.73863,58.2677732 C129.688699,57.777657 128.44696,57.5295321 127.053,57.5295321 C125.65904,57.5295321 124.417859,57.777657 123.367928,58.2677732 C122.317997,58.7578895 121.429209,59.4331237 120.728326,60.2761906 C120.029115,61.1164696 119.501641,62.1206782 119.164303,63.2598222 C118.828637,64.3945055 118.659132,65.6362449 118.659132,66.9538158 C118.659132,68.2713866 118.828637,69.5153564 119.164303,70.6478093 C119.501641,71.7869533 120.026885,72.791162 120.728326,73.6342289 C121.431439,74.4745079 122.320228,75.145839 123.370158,75.6248036 C124.420089,76.1015378 125.65904,76.3457596 127.053,76.3457596 C128.44696,76.3457596 129.684239,76.1015378 130.7364,75.6248036 C131.78633,75.145839 132.674561,74.4745079 133.378232,73.6342289 C134.077443,72.7956227 134.602129,71.7891837 134.942255,70.6478093 C135.277363,69.513126 135.447426,68.2697139 135.447426,66.9538158 C135.447426,65.6384753 135.277363,64.3945055 134.942255,63.2598222" id="Fill-6" fill="#FFFFFF"></path>
        <path d="M163.165481,72.728155 C163.052292,72.3924895 162.727778,72.519061 162.727778,72.519061 C162.22651,72.7103123 161.695133,72.8870664 161.129185,72.9740495 C160.555989,73.0654933 159.922573,73.1089848 159.245109,73.1089848 C157.582951,73.1089848 156.258689,72.6149655 155.313584,71.6391936 C154.366249,70.658961 153.830411,69.077653 153.836545,66.938761 C153.843236,64.9939082 154.313836,63.5302504 155.156903,62.4128522 C155.993279,61.3038178 157.269589,60.7356397 158.968547,60.7356397 C160.388156,60.7356397 161.468753,60.8990118 162.603437,61.2536352 C162.603437,61.2536352 162.871635,61.3712854 163.002109,61.016662 C163.302647,60.1825165 163.524565,59.5853441 163.847407,58.6686761 C163.93885,58.4071692 163.714144,58.29621 163.633852,58.2633126 C163.187227,58.0915767 162.135066,57.8060937 161.339952,57.6839829 C160.59725,57.5730237 159.728534,57.512247 158.761683,57.512247 C157.317541,57.512247 156.03008,57.7581415 154.929967,58.2482578 C153.832641,58.7383741 152.900361,59.4136082 152.16212,60.2544448 C151.425552,61.0947238 150.861834,62.0989325 150.491041,63.2403068 C150.119132,64.3749901 149.929554,65.6211902 149.929554,66.938761 C149.929554,69.791918 150.698462,72.0941821 152.216206,73.7819886 C153.738967,75.4742559 156.021158,76.3346079 159.003117,76.3346079 C160.762852,76.3346079 162.568867,75.9777542 163.869152,75.4658921 C163.869152,75.4658921 164.117277,75.3460116 164.010779,75.0582983 L163.165481,72.728155 Z" id="Fill-7" fill="#FFFFFF"></path>
        <path d="M169.179024,65.0457636 C169.342396,63.9372867 169.647395,63.0183884 170.117995,62.2996627 C170.83226,61.212374 171.916761,60.6112985 173.445656,60.6112985 C174.972879,60.6112985 175.980991,61.212374 176.706407,62.2996627 C177.185372,63.0183884 177.394466,63.9763176 177.477546,65.0457636 L169.179024,65.0457636 Z M180.748891,62.6130248 C180.457274,61.5106814 179.736318,60.3977439 179.261257,59.8881122 C178.511864,59.0824034 177.780314,58.5181284 177.052667,58.2069966 C176.103101,57.7994027 174.966188,57.5295321 173.720545,57.5295321 C172.267482,57.5295321 170.949911,57.7754266 169.878234,58.2766946 C168.806558,58.7796353 167.907175,59.4654635 167.199044,60.3196821 C166.4937,61.1733431 165.962322,62.1903762 165.624427,63.3406719 C165.284858,64.4859493 165.114795,65.73661 165.114795,67.0541809 C165.114795,68.3957278 165.290991,69.645831 165.641712,70.7699202 C165.994662,71.9023732 166.563398,72.8976605 167.327845,73.7256727 C168.092293,74.5575879 169.076986,75.2088459 170.252931,75.6638344 C171.424415,76.1171502 172.844581,76.3524506 174.476072,76.3480522 C177.83663,76.3368382 179.605286,75.5857727 180.337394,75.1826395 C180.465638,75.1129415 180.587749,74.9863699 180.435529,74.6272859 L179.672754,72.4973153 C179.557334,72.1789348 179.23505,72.2943547 179.23505,72.2943547 C178.403135,72.6060441 177.2205,73.1613977 174.458786,73.1547067 C172.655002,73.1524764 171.317916,72.6188686 170.47931,71.7869533 C169.618958,70.9355227 169.19854,69.6831891 169.126611,67.9167632 L180.757812,67.925127 C180.757812,67.925127 181.065041,67.9228967 181.097381,67.6223589 C181.108532,67.4985753 181.496053,65.2331118 180.748891,62.6130248 L180.748891,62.6130248 Z" id="Fill-8" fill="#FFFFFF"></path>
        <path d="M75.9995,65.0457636 C76.1651024,63.9372867 76.4678705,63.0183884 76.9401441,62.2996627 C77.6527363,61.212374 78.7394674,60.6112985 80.2661322,60.6112985 C81.7950274,60.6112985 82.8014664,61.212374 83.5268831,62.2996627 C84.0058477,63.0183884 84.2149417,63.9763176 84.2980217,65.0457636 L75.9995,65.0457636 Z M87.5693666,62.6130248 C87.279423,61.5106814 86.5562366,60.3977439 86.0817327,59.8881122 C85.3345702,59.0824034 84.6030201,58.5181284 83.8731427,58.2069966 C82.9235773,57.7994027 81.7866636,57.5295321 80.5404635,57.5295321 C79.0901877,57.5295321 77.7703865,57.7754266 76.7009406,58.2766946 C75.6292642,58.7796353 74.727651,59.4654635 74.0217497,60.3196821 C73.3136181,61.1733431 72.784471,62.1903762 72.4449024,63.3406719 C72.1070065,64.4859493 71.9352707,65.73661 71.9352707,67.0541809 C71.9352707,68.3957278 72.1114672,69.645831 72.4621875,70.7699202 C72.8173684,71.9023732 73.3833161,72.8976605 74.1483213,73.7256727 C74.9144416,74.5575879 75.8969045,75.2088459 77.075637,75.6638344 C78.2448905,76.1171502 79.6672871,76.3524506 81.2965473,76.3480522 C84.6593361,76.3368382 86.4279923,75.5857727 87.1578697,75.1826395 C87.286114,75.1129415 87.4082249,74.9863699 87.2554469,74.6272859 L86.49546,72.4973153 C86.3778097,72.1789348 86.0577566,72.2943547 86.0577566,72.2943547 C85.223611,72.6060441 84.0432058,73.1613977 81.2792622,73.1547067 C79.4777085,73.1524764 78.1406223,72.6188686 77.2997857,71.7869533 C76.441664,70.9355227 76.0190154,69.6831891 75.9470871,67.9167632 L87.5799607,67.925127 C87.5799607,67.925127 87.8849591,67.9228967 87.9178566,67.6223589 C87.930681,67.4985753 88.3187594,65.2331118 87.5693666,62.6130248 L87.5693666,62.6130248 Z" id="Fill-9" fill="#FFFFFF"></path>
        <path d="M50.8513493,72.6623601 C50.3963608,72.2988154 50.3333538,72.209602 50.1805758,71.9743015 C49.9497361,71.6168902 49.8320859,71.1072585 49.8320859,70.4604611 C49.8320859,69.4389674 50.1722121,68.7029566 50.8708648,68.2083796 C50.862501,68.21061 51.8728431,67.3374335 54.2448051,67.3675431 C55.9108659,67.3892888 57.4029606,67.6357409 57.4029606,67.6357409 L57.4029606,72.9260973 C57.4029606,72.9260973 55.9264783,73.2416898 54.2620902,73.3420549 C51.8945889,73.4859116 50.8452159,72.6606874 50.8513493,72.6623601 M55.4820839,64.4859493 C55.0092527,64.4536094 54.3975831,64.434094 53.6654754,64.434094 C52.6679578,64.434094 51.7055679,64.5578776 50.7989364,64.8020994 C49.8911898,65.0479939 49.0743293,65.427151 48.3706584,65.9300917 C47.6630844,66.4374931 47.0943488,67.0803873 46.6828518,67.8470652 C46.2707973,68.6159735 46.059473,69.5175867 46.059473,70.5301591 C46.059473,71.5605743 46.2406878,72.4554965 46.5936384,73.1853738 C46.9482618,73.9191543 47.4601238,74.5336118 48.1113819,75.006443 C48.7581792,75.4764862 49.5555242,75.8227459 50.4811136,76.0318398 C51.3938785,76.2409338 52.430427,76.3479899 53.5612072,76.3479899 C54.7544369,76.3479899 55.9437634,76.2476248 57.0957318,76.0519129 C58.2371061,75.8578736 59.637757,75.574621 60.0252778,75.4831772 C60.4133562,75.3939638 60.8421383,75.2763136 60.8421383,75.2763136 C61.1298516,75.2043853 61.1058755,74.8971565 61.1058755,74.8971565 L61.1014148,64.2573399 C61.1014148,61.9227359 60.4785935,60.1953409 59.2524665,59.1192039 C58.0302425,58.0519883 56.233707,57.512247 53.9096972,57.512247 C53.0337328,57.512247 51.6314092,57.6293396 50.7905727,57.7994027 C50.7905727,57.7994027 48.2507778,58.2917493 47.2030776,59.1108401 C47.2030776,59.1108401 46.9744682,59.2524665 47.0988094,59.57475 L47.9240337,61.7855703 C48.0266291,62.072726 48.3054211,61.9745912 48.3054211,61.9745912 C48.3054211,61.9745912 48.3924042,61.940021 48.4972299,61.8792444 C50.7336991,60.6637114 53.5651103,60.6982816 53.5651103,60.6982816 C54.8219045,60.6982816 55.791543,60.9530975 56.4405707,61.4499048 C57.0762164,61.9377907 57.3984999,62.6715712 57.3984999,64.2227697 L57.3984999,64.7151163 C56.3987519,64.5712596 55.4820839,64.4859493 55.4820839,64.4859493" id="Fill-10" fill="#FFFFFF"></path>
        <path d="M149.321787,58.4941523 C149.411001,58.2309727 149.223653,58.1044011 149.147264,58.073734 C148.949321,57.9979026 147.957937,57.7888086 147.19572,57.7430868 C145.734292,57.6533157 144.924123,57.8975375 144.196476,58.226512 C143.47552,58.5510259 142.676502,59.0757124 142.229877,59.6745575 L142.229877,58.2571791 C142.229877,58.0631399 142.090481,57.9042285 141.896442,57.9042285 L138.912811,57.9042285 C138.718771,57.9042285 138.579375,58.0631399 138.579375,58.2571791 L138.579375,75.6136519 C138.579375,75.8076911 138.736056,75.9666025 138.932326,75.9666025 L141.990116,75.9666025 C142.184155,75.9666025 142.340837,75.8076911 142.340837,75.6136519 L142.340837,66.9432217 C142.340837,65.7778713 142.471869,64.6192118 142.726685,63.8893345 C142.97927,63.1661481 143.321069,62.5912791 143.745948,62.1775518 C144.170827,61.7654973 144.654252,61.4761112 145.183399,61.3127391 C145.723698,61.1471367 146.322543,61.0947238 146.745192,61.0947238 C147.352959,61.0947238 148.021502,61.2497321 148.021502,61.2497321 C148.247881,61.2759386 148.372222,61.1382153 148.446381,60.9358124 C148.646553,60.4044349 149.212501,58.8103024 149.321787,58.4941523" id="Fill-11" fill="#FFFFFF"></path>
        <path d="M120.630191,50.451004 C120.257725,50.3350266 119.919829,50.2591952 119.477665,50.1761152 C119.031598,50.0958231 118.499663,50.0545619 117.898587,50.0545619 C115.794823,50.0545619 114.134896,50.6489463 112.969545,51.8226605 C111.813116,52.9902413 111.026923,54.7655885 110.632711,57.1001925 L110.488854,57.8863858 L107.849252,57.8863858 C107.849252,57.8863858 107.526968,57.8757917 107.459501,58.226512 L107.0257,60.6464263 C106.995591,60.8772661 107.093168,61.0211227 107.404858,61.0211227 L109.974762,61.0211227 L107.365827,75.581312 C107.162866,76.7550262 106.929796,77.7179736 106.671077,78.4495238 C106.414031,79.1704798 106.165348,79.7107786 105.858677,80.1049905 C105.562043,80.4841476 105.279348,80.7629395 104.793134,80.9263116 C104.392789,81.0612469 103.93111,81.1242539 103.425381,81.1242539 C103.142686,81.1242539 102.76799,81.0763017 102.493101,81.022216 C102.216539,80.9653425 102.07101,80.9045658 101.864146,80.8170252 C101.864146,80.8170252 101.563051,80.7016053 101.443728,81.0043734 C101.347823,81.2508255 100.661437,83.1371319 100.581145,83.3679717 C100.498065,83.5988114 100.613485,83.7816989 100.759572,83.8318815 C101.101371,83.9556651 101.356187,84.0342845 101.822327,84.1452437 C102.469125,84.2957913 103.016114,84.3063854 103.527976,84.3063854 C104.597422,84.3063854 105.573194,84.154165 106.383364,83.8642214 C107.197994,83.5681443 107.905568,83.0562822 108.53285,82.363763 C109.210314,81.6143702 109.637424,80.8304072 110.04446,79.7609612 C110.447593,78.7004365 110.791622,77.3845385 111.068184,75.8511826 L113.688828,61.0211227 L117.519988,61.0211227 C117.519988,61.0211227 117.842271,61.0317168 117.909739,60.6809965 L118.342982,58.2633126 C118.373649,58.0302425 118.275514,57.8863858 117.964382,57.8863858 L114.244182,57.8863858 C114.263698,57.8038634 114.433761,56.4968867 114.860312,55.2640686 C115.04097,54.7371518 115.383326,54.3145031 115.674942,54.0228867 C115.960425,53.7374038 116.2894,53.5327705 116.648484,53.4151202 C117.01872,53.29747 117.439138,53.2366934 117.898587,53.2366934 C118.247077,53.2366934 118.593337,53.2779546 118.852613,53.3320402 C119.214485,53.4106596 119.356112,53.4496905 119.449786,53.4781272 C119.828385,53.5935471 119.878568,53.4825879 119.952726,53.2997004 L120.843746,50.85581 C120.935189,50.5943031 120.710483,50.4811136 120.630191,50.451004" id="Fill-12" fill="#FFFFFF"></path>
        <path d="M68.652774,75.6136519 C68.652774,75.8076911 68.513378,75.9666025 68.3193388,75.9666025 L65.2331118,75.9666025 C65.0396301,75.9666025 64.9002341,75.8076911 64.9002341,75.6136519 L64.9002341,50.7816513 C64.9002341,50.5881697 65.0396301,50.4287007 65.2331118,50.4287007 L68.3193388,50.4287007 C68.513378,50.4287007 68.652774,50.5881697 68.652774,50.7816513 L68.652774,75.6136519 Z" id="Fill-13" fill="#FFFFFF"></path>
        <path d="M218.022262,56.1199599 C218.022262,54.2470355 217.904611,52.3389833 217.671541,50.3985912 L221.735771,50.3985912 C221.901373,51.3024347 222.019023,52.506816 222.086491,54.0117351 L222.186856,54.0117351 C222.990335,52.7421164 224.118327,51.7033376 225.575851,50.9015319 C227.030588,50.0980534 228.712261,49.6971506 230.618083,49.6971506 C232.791545,49.6971506 234.564662,50.1565997 235.936876,51.0760556 C237.30909,51.9971843 238.312741,53.2606695 238.948944,54.8653961 L239.049309,54.8653961 C239.918025,53.2606695 241.105121,51.9971843 242.612271,51.0760556 C244.117747,50.1565997 245.923204,49.6971506 248.031429,49.6971506 C250.139654,49.6971506 251.895486,50.1565997 253.30004,51.0760556 C254.705151,51.9971843 255.7417,53.2015656 256.412473,54.6891995 C257.081574,56.1790638 257.414452,57.8105544 257.414452,59.5831137 L257.414452,75.9426264 L253.15005,75.9426264 L253.15005,60.1847468 C253.15005,58.2108997 252.672758,56.5559906 251.718732,55.2161164 C250.766936,53.8790301 249.23581,53.2104869 247.127586,53.2104869 C245.587539,53.2104869 244.267738,53.6108322 243.163721,54.4126379 C242.059148,55.2161164 241.222772,56.2877927 240.654594,57.6254365 C240.085858,58.9647532 239.800375,60.4022045 239.800375,61.940021 L239.800375,75.9426264 L235.535973,75.9426264 L235.535973,60.0843817 C235.535973,58.143432 235.050317,56.5141718 234.081237,55.1921402 C233.109368,53.8701087 231.587164,53.2104869 229.513509,53.2104869 C227.304919,53.2104869 225.549645,53.9877589 224.244898,55.5428605 C222.940152,57.0979621 222.286664,59.0149357 222.286664,61.288763 L222.286664,75.9426264 L218.022262,75.9426264 L218.022262,56.1199599 Z" id="Fill-14" fill="#032E61"></path>
        <path d="M278.691855,66.507191 L278.691855,63.1945849 L276.43364,63.1444023 C273.924512,63.1444023 271.925016,63.3144654 270.437382,63.647343 C268.947518,63.9830086 267.842944,64.5517442 267.124218,65.3529923 C266.405492,66.1564708 266.046408,67.2783296 266.046408,68.715781 C266.046408,70.1883602 266.479651,71.3163525 267.351155,72.1031034 C268.219871,72.8892968 269.424252,73.2835086 270.964299,73.2835086 C272.569583,73.2835086 273.956852,72.9394793 275.128893,72.2530935 C276.300377,71.568938 277.186935,70.7069132 277.788011,69.6698071 C278.391317,68.6332586 278.691855,67.5788674 278.691855,66.507191 M261.629229,68.9666938 C261.629229,65.65353 262.824688,63.3557266 265.218396,62.0665926 C267.609874,60.7791313 271.214654,60.1345643 276.032737,60.1345643 C277.204221,60.1345643 278.090779,60.1518494 278.691855,60.1847468 L278.691855,58.7294527 C278.691855,56.8214005 278.173859,55.4012342 277.136753,54.4650508 C276.100204,53.5283098 274.509975,53.0577089 272.36941,53.0577089 C269.659552,53.0577089 267.100242,53.778665 264.691479,55.2161164 L263.18656,52.3562684 C266.063694,50.583709 269.209025,49.6971506 272.619765,49.6971506 C276.200569,49.6971506 278.818426,50.5335265 280.473893,52.2062783 C282.128802,53.8790301 282.956814,56.4210552 282.956814,59.8340265 L282.956814,70.2708826 C282.956814,72.1114672 283.074464,74.0022343 283.309765,75.9426264 L279.395525,75.9426264 C279.160225,74.4706048 279.042575,73.3158485 279.042575,72.4794726 L278.892585,72.4794726 C277.955844,73.8516866 276.775439,74.8887928 275.355272,75.5919061 C273.932876,76.2933467 272.101212,76.644067 269.860283,76.644067 C267.383495,76.644067 265.39292,75.9838876 263.888001,74.6618561 C262.382524,73.3420549 261.629229,71.442924 261.629229,68.9666938" id="Fill-15" fill="#032E61"></path>
        <path d="M309.213442,63.1444023 C309.213442,60.0670966 308.535977,57.6254365 307.178818,55.8194222 C305.826119,54.0117351 303.944273,53.1078915 301.535511,53.1078915 C299.963124,53.1078915 298.555782,53.4781272 297.319061,54.2124653 C296.081782,54.9484761 295.127756,55.9526847 294.459213,57.2245337 C293.790112,58.4963826 293.455004,59.8836515 293.455004,61.3891281 L293.455004,69.8705373 C294.626488,71.0420212 295.789608,71.8956822 296.944365,72.42929 C298.096333,72.9651282 299.427286,73.2310957 300.932205,73.2310957 C303.609165,73.2310957 305.658844,72.3032761 307.080683,70.4476367 C308.500849,68.589767 309.213442,66.1564708 309.213442,63.1444023 M313.628391,63.1444023 C313.628391,65.6886578 313.160021,67.9797702 312.22328,70.0205274 C311.286539,72.0612846 309.923246,73.6754901 308.132844,74.8625863 C306.342442,76.0519129 304.244811,76.644067 301.836048,76.644067 C298.59091,76.644067 295.796299,75.5919061 293.455004,73.4836812 L293.455004,88.1877272 L289.190045,88.1877272 L289.190045,56.1199599 C289.190045,54.2470355 289.072952,52.3389833 288.839882,50.3985912 L292.904111,50.3985912 C293.071387,51.5026073 293.186806,52.8073538 293.254832,54.3122728 L293.354639,54.3122728 C294.191015,52.9077189 295.363057,51.7880903 296.867976,50.9517144 C298.372895,50.1153385 300.213479,49.6971506 302.386941,49.6971506 C304.828601,49.6971506 306.887201,50.291535 308.559953,51.4786312 C310.232705,52.6657274 311.495633,54.2710116 312.349851,56.2944837 C313.203512,58.3201861 313.628391,60.6029348 313.628391,63.1444023" id="Fill-16" fill="#032E61"></path>
        <path d="M334.37832,52.4064509 L332.472498,55.0661263 C330.497536,53.6961426 328.356413,53.0075264 326.049688,53.0075264 C324.442174,53.0075264 323.18761,53.3192158 322.285997,53.9375764 C321.382153,54.5564946 320.928838,55.4341317 320.928838,56.5710453 C320.928838,57.4074212 321.113955,58.093807 321.482518,58.6290876 C321.850524,59.1649258 322.468884,59.6160112 323.338158,59.9840166 C324.209104,60.352022 325.47928,60.7378701 327.152032,61.1382153 C329.763197,61.7744186 331.695226,62.7022383 332.94979,63.9244623 C334.204354,65.1438983 334.831635,66.7424915 334.831635,68.715781 C334.831635,71.2249087 333.892664,73.1742222 332.01974,74.5620486 C330.146815,75.9493174 327.83786,76.644067 325.095662,76.644067 C321.414493,76.644067 318.337187,75.6593738 315.860957,73.6838539 L317.818634,71.0247361 C318.955548,71.7936443 320.077407,72.3618224 321.181423,72.7303853 C322.285997,73.1006211 323.540561,73.2835086 324.945115,73.2835086 C326.650764,73.2835086 327.996772,72.9155032 328.983695,72.1789348 C329.970061,71.442924 330.464638,70.3885328 330.464638,69.0163188 C330.464638,68.1124752 330.27952,67.3853857 329.913745,66.8339352 C329.543509,66.280812 328.933513,65.8235931 328.081524,65.4533574 C327.227863,65.085352 325.947093,64.6844492 324.242001,64.2489761 C321.599611,63.5798754 319.674274,62.6782622 318.472123,61.5391182 C317.267741,60.4022045 316.664436,58.8298178 316.664436,56.8214005 C316.664436,54.6479383 317.509733,52.9160826 319.197539,51.6291789 C320.887576,50.3417176 323.120142,49.6971506 325.897468,49.6971506 C329.177177,49.6971506 332.002455,50.5987638 334.37832,52.4064509" id="Fill-17" fill="#032E61"></path>
    </g>
</svg>