<?xml version="1.0" encoding="UTF-8"?>
<svg width="599px" height="252px" viewBox="0 0 599 252" version="1.1" xmlns="http://www.w3.org/2000/svg" xmlns:xlink="http://www.w3.org/1999/xlink">
    <!-- Generator: Sketch 56.3 (81716) - https://sketch.com -->
    <title>2019sf_maps_logo_RGB</title>
    <desc>Created with Sketch.</desc>
    <g id="2019sf_maps_logo_RGB" stroke="none" stroke-width="1" fill="none" fill-rule="evenodd">
        <polygon id="Clip-2" points="0 0 360 0 360 251.94 0 251.94"></polygon>
        <path d="M149.809,27.484 C161.422,15.387 177.586,7.883 195.465,7.883 C219.227,7.883 239.961,21.133 250.996,40.805 C260.598,36.52 271.219,34.133 282.391,34.133 C325.254,34.133 360,69.184 360,112.426 C360,155.664 325.254,190.715 282.391,190.715 C277.156,190.715 272.047,190.191 267.102,189.191 C257.379,206.531 238.848,218.25 217.586,218.25 C208.684,218.25 200.262,216.195 192.766,212.539 C182.91,235.723 159.941,251.98 133.18,251.98 C105.309,251.98 81.551,234.348 72.438,209.613 C68.453,210.453 64.32,210.898 60.086,210.898 C26.902,210.898 0,183.719 0,150.188 C0,127.715 12.086,108.094 30.047,97.598 C26.348,89.086 24.293,79.699 24.293,69.828 C24.293,31.262 55.598,0 94.215,0 C116.887,0 137.035,10.777 149.809,27.484" id="Fill-1" fill="#00A1E0"></path>
        <path d="M52.141,130.672 C51.914,131.262 52.223,131.387 52.297,131.488 C52.973,131.98 53.66,132.332 54.352,132.73 C58.023,134.676 61.492,135.242 65.117,135.242 C72.5,135.242 77.09,131.316 77.09,124.996 L77.09,124.871 C77.09,119.023 71.91,116.898 67.059,115.367 L66.422,115.16 C62.762,113.973 59.602,112.949 59.602,110.535 L59.602,110.41 C59.602,108.348 61.453,106.828 64.312,106.828 C67.492,106.828 71.262,107.887 73.695,109.23 C73.695,109.23 74.41,109.691 74.672,109 C74.812,108.629 76.043,105.316 76.172,104.961 C76.312,104.57 76.066,104.281 75.816,104.129 C73.039,102.438 69.203,101.285 65.234,101.285 L64.496,101.289 C57.738,101.289 53.02,105.375 53.02,111.227 L53.02,111.352 C53.02,117.516 58.223,119.52 63.102,120.914 L63.887,121.152 C67.438,122.242 70.504,123.184 70.504,125.684 L70.504,125.809 C70.504,128.098 68.512,129.797 65.301,129.797 C64.055,129.797 60.082,129.773 55.789,127.059 C55.27,126.758 54.969,126.539 54.57,126.297 C54.359,126.164 53.832,125.934 53.602,126.629 L52.141,130.672 Z" id="Fill-4" fill="#FFFFFF"></path>
        <path d="M160.25,130.672 C160.023,131.262 160.332,131.387 160.402,131.488 C161.078,131.98 161.766,132.332 162.461,132.73 C166.129,134.676 169.598,135.242 173.223,135.242 C180.609,135.242 185.195,131.316 185.195,124.996 L185.195,124.871 C185.195,119.023 180.02,116.898 175.164,115.367 L174.531,115.16 C170.871,113.973 167.711,112.949 167.711,110.535 L167.711,110.41 C167.711,108.348 169.559,106.828 172.418,106.828 C175.602,106.828 179.371,107.887 181.801,109.23 C181.801,109.23 182.52,109.691 182.781,109 C182.918,108.629 184.152,105.316 184.281,104.961 C184.418,104.57 184.176,104.281 183.922,104.129 C181.145,102.438 177.312,101.285 173.344,101.285 L172.605,101.289 C165.848,101.289 161.125,105.375 161.125,111.227 L161.125,111.352 C161.125,117.516 166.332,119.52 171.211,120.914 L171.992,121.152 C175.543,122.242 178.613,123.184 178.613,125.684 L178.613,125.809 C178.613,128.098 176.617,129.797 173.406,129.797 C172.16,129.797 168.191,129.773 163.895,127.059 C163.375,126.758 163.07,126.551 162.68,126.297 C162.543,126.211 161.922,125.969 161.707,126.629 L160.25,130.672 Z" id="Fill-5" fill="#FFFFFF"></path>
        <path d="M234.051,118.285 C234.051,121.855 233.387,124.676 232.074,126.664 C230.773,128.637 228.809,129.594 226.07,129.594 C223.332,129.594 221.375,128.637 220.098,126.664 C218.805,124.68 218.148,121.855 218.148,118.285 C218.148,114.715 218.805,111.906 220.098,109.938 C221.375,107.984 223.332,107.039 226.07,107.039 C228.809,107.039 230.773,107.988 232.074,109.938 C233.387,111.906 234.051,114.715 234.051,118.285 M240.219,111.66 C239.609,109.613 238.668,107.809 237.414,106.305 C236.156,104.797 234.562,103.586 232.68,102.707 C230.797,101.828 228.57,101.383 226.07,101.383 C223.57,101.383 221.344,101.828 219.461,102.707 C217.578,103.586 215.984,104.797 214.727,106.309 C213.473,107.816 212.527,109.617 211.922,111.66 C211.32,113.695 211.016,115.922 211.016,118.285 C211.016,120.648 211.32,122.879 211.922,124.91 C212.527,126.953 213.469,128.754 214.727,130.266 C215.988,131.773 217.582,132.977 219.465,133.836 C221.348,134.691 223.57,135.129 226.07,135.129 C228.57,135.129 230.789,134.691 232.676,133.836 C234.559,132.977 236.152,131.773 237.414,130.266 C238.668,128.762 239.609,126.957 240.219,124.91 C240.82,122.875 241.125,120.645 241.125,118.285 C241.125,115.926 240.82,113.695 240.219,111.66" id="Fill-6" fill="#FFFFFF"></path>
        <path d="M290.836,128.641 C290.633,128.039 290.051,128.266 290.051,128.266 C289.152,128.609 288.199,128.926 287.184,129.082 C286.156,129.246 285.02,129.324 283.805,129.324 C280.824,129.324 278.449,128.438 276.754,126.688 C275.055,124.93 274.094,122.094 274.105,118.258 C274.117,114.77 274.961,112.145 276.473,110.141 C277.973,108.152 280.262,107.133 283.309,107.133 C285.855,107.133 287.793,107.426 289.828,108.062 C289.828,108.062 290.309,108.273 290.543,107.637 C291.082,106.141 291.48,105.07 292.059,103.426 C292.223,102.957 291.82,102.758 291.676,102.699 C290.875,102.391 288.988,101.879 287.562,101.66 C286.23,101.461 284.672,101.352 282.938,101.352 C280.348,101.352 278.039,101.793 276.066,102.672 C274.098,103.551 272.426,104.762 271.102,106.27 C269.781,107.777 268.77,109.578 268.105,111.625 C267.438,113.66 267.098,115.895 267.098,118.258 C267.098,123.375 268.477,127.504 271.199,130.531 C273.93,133.566 278.023,135.109 283.371,135.109 C286.527,135.109 289.766,134.469 292.098,133.551 C292.098,133.551 292.543,133.336 292.352,132.82 L290.836,128.641 Z" id="Fill-7" fill="#FFFFFF"></path>
        <path d="M301.621,114.863 C301.914,112.875 302.461,111.227 303.305,109.938 C304.586,107.988 306.531,106.91 309.273,106.91 C312.012,106.91 313.82,107.988 315.121,109.938 C315.98,111.227 316.355,112.945 316.504,114.863 L301.621,114.863 Z M322.371,110.5 C321.848,108.523 320.555,106.527 319.703,105.613 C318.359,104.168 317.047,103.156 315.742,102.598 C314.039,101.867 312,101.383 309.766,101.383 C307.16,101.383 304.797,101.824 302.875,102.723 C300.953,103.625 299.34,104.855 298.07,106.387 C296.805,107.918 295.852,109.742 295.246,111.805 C294.637,113.859 294.332,116.102 294.332,118.465 C294.332,120.871 294.648,123.113 295.277,125.129 C295.91,127.16 296.93,128.945 298.301,130.43 C299.672,131.922 301.438,133.09 303.547,133.906 C305.648,134.719 308.195,135.141 311.121,135.133112 C317.148,135.113 320.32,133.766 321.633,133.043 C321.863,132.918 322.082,132.691 321.809,132.047 L320.441,128.227 C320.234,127.656 319.656,127.863 319.656,127.863 C318.164,128.422 316.043,129.418 311.09,129.406 C307.855,129.402 305.457,128.445 303.953,126.953 C302.41,125.426 301.656,123.18 301.527,120.012 L322.387,120.027 C322.387,120.027 322.938,120.023 322.996,119.484 C323.016,119.262 323.711,115.199 322.371,110.5 L322.371,110.5 Z" id="Fill-8" fill="#FFFFFF"></path>
        <path d="M134.508,114.863 C134.805,112.875 135.348,111.227 136.195,109.938 C137.473,107.988 139.422,106.91 142.16,106.91 C144.902,106.91 146.707,107.988 148.008,109.938 C148.867,111.227 149.242,112.945 149.391,114.863 L134.508,114.863 Z M155.258,110.5 C154.738,108.523 153.441,106.527 152.59,105.613 C151.25,104.168 149.938,103.156 148.629,102.598 C146.926,101.867 144.887,101.383 142.652,101.383 C140.051,101.383 137.684,101.824 135.766,102.723 C133.844,103.625 132.227,104.855 130.961,106.387 C129.691,107.918 128.742,109.742 128.133,111.805 C127.527,113.859 127.219,116.102 127.219,118.465 C127.219,120.871 127.535,123.113 128.164,125.129 C128.801,127.16 129.816,128.945 131.188,130.43 C132.562,131.922 134.324,133.09 136.438,133.906 C138.535,134.719 141.086,135.141 144.008,135.133112 C150.039,135.113 153.211,133.766 154.52,133.043 C154.75,132.918 154.969,132.691 154.695,132.047 L153.332,128.227 C153.121,127.656 152.547,127.863 152.547,127.863 C151.051,128.422 148.934,129.418 143.977,129.406 C140.746,129.402 138.348,128.445 136.84,126.953 C135.301,125.426 134.543,123.18 134.414,120.012 L155.277,120.027 C155.277,120.027 155.824,120.023 155.883,119.484 C155.906,119.262 156.602,115.199 155.258,110.5 L155.258,110.5 Z" id="Fill-9" fill="#FFFFFF"></path>
        <path d="M89.406,128.523 C88.59,127.871 88.477,127.711 88.203,127.289 C87.789,126.648 87.578,125.734 87.578,124.574 C87.578,122.742 88.188,121.422 89.441,120.535 C89.426,120.539 91.238,118.973 95.492,119.027 C98.48,119.066 101.156,119.508 101.156,119.508 L101.156,128.996 C101.156,128.996 98.508,129.562 95.523,129.742 C91.277,130 89.395,128.52 89.406,128.523 M97.711,113.859 C96.863,113.801 95.766,113.766 94.453,113.766 C92.664,113.766 90.938,113.988 89.312,114.426 C87.684,114.867 86.219,115.547 84.957,116.449 C83.688,117.359 82.668,118.512 81.93,119.887 C81.191,121.266 80.812,122.883 80.812,124.699 C80.812,126.547 81.137,128.152 81.77,129.461 C82.406,130.777 83.324,131.879 84.492,132.727 C85.652,133.57 87.082,134.191 88.742,134.566 C90.379,134.941 92.238,135.133 94.266,135.133 C96.406,135.133 98.539,134.953 100.605,134.602 C102.652,134.254 105.164,133.746 105.859,133.582 C106.555,133.422 107.324,133.211 107.324,133.211 C107.84,133.082 107.797,132.531 107.797,132.531 L107.789,113.449 C107.789,109.262 106.672,106.164 104.473,104.234 C102.281,102.32 99.059,101.352 94.891,101.352 C93.32,101.352 90.805,101.562 89.297,101.867 C89.297,101.867 84.742,102.75 82.863,104.219 C82.863,104.219 82.453,104.473 82.676,105.051 L84.156,109.016 C84.34,109.531 84.84,109.355 84.84,109.355 C84.84,109.355 84.996,109.293 85.184,109.184 C89.195,107.004 94.273,107.066 94.273,107.066 C96.527,107.066 98.266,107.523 99.43,108.414 C100.57,109.289 101.148,110.605 101.148,113.387 L101.148,114.27 C99.355,114.012 97.711,113.859 97.711,113.859" id="Fill-10" fill="#FFFFFF"></path>
        <path d="M266.008,103.113 C266.168,102.641 265.832,102.414 265.695,102.359 C265.34,102.223 263.562,101.848 262.195,101.766 C259.574,101.605 258.121,102.043 256.816,102.633 C255.523,103.215 254.09,104.156 253.289,105.23 L253.289,102.688 C253.289,102.34 253.039,102.055 252.691,102.055 L247.34,102.055 C246.992,102.055 246.742,102.34 246.742,102.688 L246.742,133.816 C246.742,134.164 247.023,134.449 247.375,134.449 L252.859,134.449 C253.207,134.449 253.488,134.164 253.488,133.816 L253.488,118.266 C253.488,116.176 253.723,114.098 254.18,112.789 C254.633,111.492 255.246,110.461 256.008,109.719 C256.77,108.98 257.637,108.461 258.586,108.168 C259.555,107.871 260.629,107.777 261.387,107.777 C262.477,107.777 263.676,108.055 263.676,108.055 C264.082,108.102 264.305,107.855 264.438,107.492 C264.797,106.539 265.812,103.68 266.008,103.113" id="Fill-11" fill="#FFFFFF"></path>
        <path d="M214.551,88.688 C213.883,88.48 213.277,88.344 212.484,88.195 C211.684,88.051 210.73,87.977 209.652,87.977 C205.879,87.977 202.902,89.043 200.812,91.148 C198.738,93.242 197.328,96.426 196.621,100.613 L196.363,102.023 L191.629,102.023 C191.629,102.023 191.051,102.004 190.93,102.633 L190.152,106.973 C190.098,107.387 190.273,107.645 190.832,107.645 L195.441,107.645 L190.762,133.758 C190.398,135.863 189.98,137.59 189.516,138.902 C189.055,140.195 188.609,141.164 188.059,141.871 C187.527,142.551 187.02,143.051 186.148,143.344 C185.43,143.586 184.602,143.699 183.695,143.699 C183.188,143.699 182.516,143.613 182.023,143.516 C181.527,143.414 181.266,143.305 180.895,143.148 C180.895,143.148 180.355,142.941 180.141,143.484 C179.969,143.926 178.738,147.309 178.594,147.723 C178.445,148.137 178.652,148.465 178.914,148.555 C179.527,148.777 179.984,148.918 180.82,149.117 C181.98,149.387 182.961,149.406 183.879,149.406 C185.797,149.406 187.547,149.133 189,148.613 C190.461,148.082 191.73,147.164 192.855,145.922 C194.07,144.578 194.836,143.172 195.566,141.254 C196.289,139.352 196.906,136.992 197.402,134.242 L202.102,107.645 L208.973,107.645 C208.973,107.645 209.551,107.664 209.672,107.035 L210.449,102.699 C210.504,102.281 210.328,102.023 209.77,102.023 L203.098,102.023 C203.133,101.875 203.438,99.531 204.203,97.32 C204.527,96.375 205.141,95.617 205.664,95.094 C206.176,94.582 206.766,94.215 207.41,94.004 C208.074,93.793 208.828,93.684 209.652,93.684 C210.277,93.684 210.898,93.758 211.363,93.855 C212.012,93.996 212.266,94.066 212.434,94.117 C213.113,94.324 213.203,94.125 213.336,93.797 L214.934,89.414 C215.098,88.945 214.695,88.742 214.551,88.688" id="Fill-12" fill="#FFFFFF"></path>
        <path d="M121.332,133.816 C121.332,134.164 121.082,134.449 120.734,134.449 L115.199,134.449 C114.852,134.449 114.602,134.164 114.602,133.816 L114.602,89.281 C114.602,88.934 114.852,88.648 115.199,88.648 L120.734,88.648 C121.082,88.648 121.332,88.934 121.332,89.281 L121.332,133.816 Z" id="Fill-13" fill="#FFFFFF"></path>
        <path d="M389.219,98.855 C389.219,95.496 389.008,92.074 388.59,88.594 L395.879,88.594 C396.176,90.215 396.387,92.375 396.508,95.074 L396.688,95.074 C398.129,92.797 400.152,90.934 402.766,89.496 C405.375,88.055 408.391,87.336 411.809,87.336 C415.707,87.336 418.887,88.16 421.348,89.809 C423.809,91.461 425.609,93.727 426.75,96.605 L426.93,96.605 C428.488,93.727 430.617,91.461 433.32,89.809 C436.02,88.16 439.258,87.336 443.039,87.336 C446.82,87.336 449.969,88.16 452.488,89.809 C455.008,91.461 456.867,93.621 458.07,96.289 C459.27,98.961 459.867,101.887 459.867,105.066 L459.867,134.406 L452.219,134.406 L452.219,106.145 C452.219,102.605 451.363,99.637 449.652,97.234 C447.945,94.836 445.199,93.637 441.418,93.637 C438.656,93.637 436.289,94.355 434.309,95.793 C432.328,97.234 430.828,99.156 429.809,101.555 C428.789,103.957 428.277,106.535 428.277,109.293 L428.277,134.406 L420.629,134.406 L420.629,105.965 C420.629,102.484 419.758,99.562 418.02,97.191 C416.277,94.82 413.547,93.637 409.828,93.637 C405.867,93.637 402.719,95.031 400.379,97.82 C398.039,100.609 396.867,104.047 396.867,108.125 L396.867,134.406 L389.219,134.406 L389.219,98.855 Z" id="Fill-14" fill="#032E61"></path>
        <path d="M498.027,117.484 L498.027,111.543 L493.977,111.453 C489.477,111.453 485.891,111.758 483.223,112.355 C480.551,112.957 478.57,113.977 477.281,115.414 C475.992,116.855 475.348,118.867 475.348,121.445 C475.348,124.086 476.125,126.109 477.688,127.52 C479.246,128.93 481.406,129.637 484.168,129.637 C487.047,129.637 489.535,129.02 491.637,127.789 C493.738,126.562 495.328,125.016 496.406,123.156 C497.488,121.297 498.027,119.406 498.027,117.484 M467.426,121.895 C467.426,115.953 469.57,111.832 473.863,109.52 C478.152,107.211 484.617,106.055 493.258,106.055 C495.359,106.055 496.949,106.086 498.027,106.145 L498.027,103.535 C498.027,100.113 497.098,97.566 495.238,95.887 C493.379,94.207 490.527,93.363 486.688,93.363 C481.828,93.363 477.238,94.656 472.918,97.234 L470.219,92.105 C475.379,88.926 481.02,87.336 487.137,87.336 C493.559,87.336 498.254,88.836 501.223,91.836 C504.191,94.836 505.676,99.395 505.676,105.516 L505.676,124.234 C505.676,127.535 505.887,130.926 506.309,134.406 L499.289,134.406 C498.867,131.766 498.656,129.695 498.656,128.195 L498.387,128.195 C496.707,130.656 494.59,132.516 492.043,133.777 C489.492,135.035 486.207,135.664 482.188,135.664 C477.746,135.664 474.176,134.48 471.477,132.109 C468.777,129.742 467.426,126.336 467.426,121.895" id="Fill-15" fill="#032E61"></path>
        <path d="M552.766,111.453 C552.766,105.934 551.551,101.555 549.117,98.316 C546.691,95.074 543.316,93.453 538.996,93.453 C536.176,93.453 533.652,94.117 531.434,95.434 C529.215,96.754 527.504,98.555 526.305,100.836 C525.105,103.117 524.504,105.605 524.504,108.305 L524.504,123.516 C526.605,125.617 528.691,127.148 530.762,128.105 C532.828,129.066 535.215,129.543 537.914,129.543 C542.715,129.543 546.391,127.879 548.941,124.551 C551.488,121.219 552.766,116.855 552.766,111.453 M560.684,111.453 C560.684,116.016 559.844,120.125 558.164,123.785 C556.484,127.445 554.039,130.34 550.828,132.469 C547.617,134.602 543.855,135.664 539.535,135.664 C533.715,135.664 528.703,133.777 524.504,129.996 L524.504,156.367 L516.855,156.367 L516.855,98.855 C516.855,95.496 516.645,92.074 516.227,88.594 L523.516,88.594 C523.816,90.574 524.023,92.914 524.145,95.613 L524.324,95.613 C525.824,93.094 527.926,91.086 530.625,89.586 C533.324,88.086 536.625,87.336 540.523,87.336 C544.902,87.336 548.594,88.402 551.594,90.531 C554.594,92.66 556.859,95.539 558.391,99.168 C559.922,102.801 560.684,106.895 560.684,111.453" id="Fill-16" fill="#032E61"></path>
        <path d="M597.898,92.195 L594.48,96.965 C590.938,94.508 587.098,93.273 582.961,93.273 C580.078,93.273 577.828,93.832 576.211,94.941 C574.59,96.051 573.777,97.625 573.777,99.664 C573.777,101.164 574.109,102.395 574.77,103.355 C575.43,104.316 576.539,105.125 578.098,105.785 C579.66,106.445 581.938,107.137 584.938,107.855 C589.621,108.996 593.086,110.66 595.336,112.852 C597.586,115.039 598.711,117.906 598.711,121.445 C598.711,125.945 597.027,129.441 593.668,131.93 C590.309,134.418 586.168,135.664 581.25,135.664 C574.648,135.664 569.129,133.898 564.688,130.355 L568.199,125.586 C570.238,126.965 572.25,127.984 574.23,128.645 C576.211,129.309 578.461,129.637 580.98,129.637 C584.039,129.637 586.453,128.977 588.223,127.656 C589.992,126.336 590.879,124.445 590.879,121.984 C590.879,120.363 590.547,119.059 589.891,118.07 C589.227,117.078 588.133,116.258 586.605,115.594 C585.074,114.934 582.777,114.215 579.719,113.434 C574.98,112.234 571.527,110.617 569.371,108.574 C567.211,106.535 566.129,103.715 566.129,100.113 C566.129,96.215 567.645,93.109 570.672,90.801 C573.703,88.492 577.707,87.336 582.688,87.336 C588.57,87.336 593.637,88.953 597.898,92.195" id="Fill-17" fill="#032E61"></path>
    </g>
</svg>