<svg xmlns="http://www.w3.org/2000/svg"><symbol id="speeding" viewBox="0 0 32 32" width="32" height="32"><path d="M31.9,14.0761l-.7495-1.12424-2.19495.96364c-2.83738-4.5505-7.97677-7.8697-13.3303-7.8697C7.64848,6.04579.1,13.43367.1,21.1963v.48182l.05354.64242h3.801L3.901,21.67812V21.1963a11.62179,11.62179,0,0,1,11.72424-11.403A11.76489,11.76489,0,0,1,25.6899,15.36094l-7.44141,3.21212a4.40739,4.40739,0,0,0-4.76465-.48182A3.887,3.887,0,0,0,11.396,20.50034a3.95287,3.95287,0,0,0,.26768,3.21212,4.35706,4.35706,0,0,0,5.78182,1.76667,4.07158,4.07158,0,0,0,2.24849-4.12222L26.6,17.23468a10.20978,10.20978,0,0,1,.7495,3.96162v1.12424h3.801V21.1963a13.00624,13.00624,0,0,0-1.39192-5.83535Z" style="fill:#706e6b"/></svg>