<svg xmlns="http://www.w3.org/2000/svg" viewBox="0 0 101 101"><path d="M99.583,21.316a10.3,10.3,0,1,0-20.6,0c0,.166.017.327.025.491L55.852,33.823a10.241,10.241,0,0,0-13.194.449L21.586,25.091a10.294,10.294,0,1,0-10.6,10.5l15.887,37.71a10.3,10.3,0,1,0,18.078,7.161L76.782,67.9A10.3,10.3,0,1,0,89.455,51.821l2.814-20.632A10.316,10.316,0,0,0,99.583,21.316ZM80.945,50.729a10.313,10.313,0,0,0-7.181,9.127L41.706,72.508a10.243,10.243,0,0,0-7.036-2.8h0L19.419,33.52l19.814,8.633a10.293,10.293,0,0,0,20.585-.2c0-.166-.017-.327-.025-.49L82.954,29.441q.393.308.815.576Z"/></svg>