<svg viewBox="0 0 100 100" version="1.1" xmlns="http://www.w3.org/2000/svg" xmlns:xlink="http://www.w3.org/1999/xlink"><path d="M79.6790199,84.708351 L20.3209801,84.708351 C19.3008212,82.4877351 17.5122649,80.6991789 15.291649,79.6790199 L15.291649,20.3203245 C17.5122649,19.3001656 19.3008212,17.5116093 20.3209801,15.2909934 L79.6790199,15.2909934 C80.6991788,17.5116093 82.4877351,19.3001656 84.708351,20.3203245 L84.708351,79.6790199 C82.4877351,80.6991789 80.6991788,82.4877351 79.6790199,84.708351 M93.2315298,79.6790199 L93.2315298,20.3209802 C96.750947,18.7035431 99.1997219,15.1565894 99.1997219,11.029404 C99.1997219,5.37984769 94.6194967,0.800278144 88.9699404,0.800278144 C84.8434106,0.800278144 81.296457,3.24905298 79.6790199,6.76781457 L20.3209801,6.76781457 C18.7035431,3.24905298 15.1565894,0.800278144 11.0300596,0.800278144 C5.3805033,0.800278144 0.800278131,5.37984769 0.800278131,11.029404 C0.800278131,15.1565894 3.24905297,18.7035431 6.76847019,20.3209802 L6.76847019,79.6790199 C3.24905297,81.2958014 0.800278131,84.842755 0.800278131,88.9699404 C0.800278131,94.6194967 5.3805033,99.1997219 11.0300596,99.1997219 C15.1565894,99.1997219 18.7035431,96.7509471 20.3209801,93.2315298 L79.6790199,93.2315298 C81.296457,96.7509471 84.8434106,99.1997219 88.9699404,99.1997219 C94.6194967,99.1997219 99.1997219,94.6194967 99.1997219,88.9699404 C99.1997219,84.842755 96.750947,81.2958014 93.2315298,79.6790199" id="Fill-1" fill="#000000" fill-rule="nonzero"></path></svg>