<svg xmlns="http://www.w3.org/2000/svg" width="52" height="52" viewBox="0 0 52 52">
  <path fill-rule="evenodd" d="M44.863,44.863 L44.863,37.317 C44.863,36.59 45.453,36 46.179,36 L50.411,36 C51.137,36 51.727,36.59 51.727,37.317 L51.727,51.727 L37.317,51.727 C36.59,51.727 36,51.137 36,50.411 L36,46.179 C36,45.453 36.59,44.863 37.317,44.863 L44.863,44.863 Z M5.80799999,36 C6.53499999,36 7.12399999,36.59 7.12399999,37.317 L7.12399999,44.863 L14.67,44.863 C15.398,44.863 15.988,45.453 15.988,46.18 L15.988,50.411 C15.988,51.138 15.398,51.728 14.67,51.728 L0.25999999,51.728 L0.25999999,37.317 C0.25999999,36.59 0.84999999,36 1.57699999,36 L5.80799999,36 Z M36,1.57699999 C36,0.84999999 36.59,0.25999999 37.317,0.25999999 L51.728,0.25999999 L51.728,14.671 C51.728,15.398 51.138,15.987 50.411,15.987 L46.18,15.987 C45.453,15.987 44.863,15.398 44.863,14.671 L44.863,7.12399999 L37.317,7.12399999 C36.59,7.12399999 36,6.53499999 36,5.80699999 L36,1.57699999 Z M1.57599999,15.987 C0.84899999,15.987 0.25999999,15.398 0.25999999,14.671 L0.25999999,0.25999999 L14.67,0.25999999 C15.397,0.25999999 15.987,0.84999999 15.987,1.57699999 L15.987,5.80699999 C15.987,6.53499999 15.397,7.12399999 14.67,7.12399999 L7.12399999,7.12399999 L7.12399999,14.671 C7.12399999,15.398 6.53399999,15.987 5.80699999,15.987 L1.57599999,15.987 Z M39.457,36.919 C39.745,37.323 39.745,37.899 39.399,38.246 L38.187,39.457 C37.842,39.803 37.322,39.803 36.976,39.457 L30.343,32.823 C28.439,34.208 26.074,35.073 23.536,35.073 C17.191,35.073 12,29.882 12,23.536 C12,17.191 17.191,12 23.536,12 C29.882,12 35.073,17.191 35.073,23.536 C35.073,26.074 34.208,28.439 32.823,30.342 L39.457,36.919 Z M23.536,31.612 C27.977,31.612 31.612,27.978 31.612,23.536 C31.612,19.095 27.977,15.461 23.536,15.461 C19.095,15.461 15.461,19.095 15.461,23.536 C15.461,27.978 19.095,31.612 23.536,31.612 Z"/>
</svg>
