<?xml version="1.0" encoding="UTF-8"?><svg viewBox="0 0 52 52" version="1.1" xmlns="http://www.w3.org/2000/svg" xmlns:xlink="http://www.w3.org/1999/xlink"><path d="M49.1111111,14 L44.7777778,14 L44.7777778,21.9444444 C44.7777778,22.3434722 44.4545833,22.6666667 44.0555556,22.6666667 L42.6111111,22.6666667 C42.2120833,22.6666667 41.8888889,22.3434722 41.8888889,21.9444444 L41.8888889,14 L36.1111111,14 L36.1111111,21.9444444 C36.1111111,22.3434722 35.7879167,22.6666667 35.3888889,22.6666667 L33.9444444,22.6666667 C33.5454167,22.6666667 33.2222222,22.3434722 33.2222222,21.9444444 L33.2222222,14 L27.4444444,14 L27.4444444,21.9444444 C27.4444444,22.3434722 27.12125,22.6666667 26.7222222,22.6666667 L25.2777778,22.6666667 C24.87875,22.6666667 24.5555556,22.3434722 24.5555556,21.9444444 L24.5555556,14 L18.7777778,14 L18.7777778,21.9444444 C18.7777778,22.3434722 18.4545833,22.6666667 18.0555556,22.6666667 L16.6111111,22.6666667 C16.2120833,22.6666667 15.8888889,22.3434722 15.8888889,21.9444444 L15.8888889,14 L10.1111111,14 L10.1111111,21.9444444 C10.1111111,22.3434722 9.78791667,22.6666667 9.38888889,22.6666667 L7.94444444,22.6666667 C7.54541667,22.6666667 7.22222222,22.3434722 7.22222222,21.9444444 L7.22222222,14 L2.88888889,14 C1.29368056,14 0,15.2936806 0,16.8888889 L0,34.2222222 C0,35.8174306 1.29368056,37.1111111 2.88888889,37.1111111 L49.1111111,37.1111111 C50.7063194,37.1111111 52,35.8174306 52,34.2222222 L52,16.8888889 C52,15.2936806 50.7063194,14 49.1111111,14 Z" fill="#706E6B" fill-rule="nonzero"></path></svg>