<svg viewBox="0 0 100 100" version="1.1" xmlns="http://www.w3.org/2000/svg" xmlns:xlink="http://www.w3.org/1999/xlink"><path d="M50.25,91.05 C27.55,91.15 9.15,72.85 9.05,50.15 C8.95,27.55 27.25,9.05 49.95,9.05 C72.55,8.95 91.05,27.25 91.15,49.95 C91.15,49.95 91.15,50.05 91.15,50.05 C91.15,72.65 72.85,91.05 50.25,91.05 M50.25,0.35 C22.75,0.25 0.449999999,22.45 0.349999999,49.85 C0.249999999,77.25 22.45,99.55 49.85,99.65 C77.25,99.75 99.55,77.55 99.65,50.15 C99.65,50.05 99.65,50.05 99.65,49.95 C99.75,22.65 77.55,0.45 50.25,0.35" id="Shape" fill="#000000" fill-rule="nonzero"></path><path d="M50.05,39.65 C44.35,39.65 39.75,44.25 39.65,49.95 C39.65,55.65 44.25,60.25 49.95,60.35 C55.65,60.35 60.25,55.75 60.35,50.05 C60.35,50.05 60.35,50.05 60.35,50.05 C60.35,44.25 55.75,39.65 50.05,39.65 C50.05,39.65 50.05,39.65 50.05,39.65" id="Path" fill="#000000" fill-rule="nonzero"></path></svg>