<?xml version="1.0" encoding="UTF-8"?>
<svg width="178px" height="168px" viewBox="0 0 178 168" version="1.1" xmlns="http://www.w3.org/2000/svg" xmlns:xlink="http://www.w3.org/1999/xlink">
    <!-- Generator: Sketch 55.2 (78181) - https://sketchapp.com -->
    <title>vennDiagramContinuityBalanceCompactness</title>
    <desc>Created with Sketch.</desc>
    <g id="vennDiagramContinuityBalanceCompactness" stroke="none" stroke-width="1" fill="none" fill-rule="evenodd">
        <path d="M145.799456,61.2942697 C164.827083,70.240675 178,89.5819877 178,112 C178,142.927946 152.927946,168 122,168 C109.661228,168 98.2544961,164.00946 89,157.248576 C79.7455039,164.00946 68.3387722,168 56,168 C25.072054,168 0,142.927946 0,112 C0,89.205111 13.6195488,69.5912381 33.1651127,60.851915 C33.0557054,59.4156231 33,57.9643169 33,56.5 C33,25.2959116 58.2959116,0 89.5,0 C120.704088,0 146,25.2959116 146,56.5 C146,58.1148079 145.932256,59.7137935 145.799456,61.2942697 Z" id="Combined-Shape" fill="#C2E8FF" opacity="0.5"></path>
        <circle id="Oval" stroke="#8CD3F8" stroke-width="2" cx="122" cy="112" r="55"></circle>
        <circle id="Oval" stroke="#8CD3F8" stroke-width="2" cx="56" cy="112" r="55"></circle>
        <circle id="Oval" stroke="#8CD3F8" stroke-width="2" cx="89.5" cy="56.5" r="55.5"></circle>
        <path d="M67.4251686,106.037412 C69.2814903,91.27083 76.8476676,77.9417205 88.3516897,68.7197519 L88.9771599,68.2183563 L89.6026301,68.7197519 C101.208237,78.0231537 108.802215,91.5021643 110.575646,106.417574 L110.667775,107.192421 L109.93857,107.470154 C103.460817,109.937346 96.5564921,111.217597 89.4771599,111.217597 C82.0406938,111.217597 74.7987518,109.804813 68.0444198,107.089997 L67.3289959,106.802442 L67.4251686,106.037412 Z" id="Combined-Shape" stroke="#0070D2" stroke-width="2" fill="#8CD3F8"></path>
    </g>
</svg>