<svg xmlns="http://www.w3.org/2000/svg" xmlns:xlink="http://www.w3.org/1999/xlink" width="16" height="16" viewBox="0 0 16 16">
    <defs>
        <path id="prefix__a" d="M7.677 5.954l4-4.03c.185-.186.185-.462 0-.647L11.062.63c-.185-.185-.462-.185-.647 0l-4.03 4.03c-.123.124-.308.124-.431 0L1.924.6c-.186-.185-.462-.185-.647 0l-.646.646c-.185.185-.185.462 0 .646l4.03 4.031c.124.123.124.308 0 .43L.6 10.416c-.185.185-.185.462 0 .647l.646.646c.185.184.462.184.646 0l4.031-4.031c.123-.123.308-.123.43 0l4.032 4.03c.184.185.461.185.646 0l.646-.645c.185-.185.185-.462 0-.647l-4-4.03c-.123-.123-.123-.308 0-.431z"/>
    </defs>
    <g fill="none" fill-rule="evenodd" transform="translate(2 2)">
        <mask id="prefix__b" fill="#fff">
            <use xlink:href="#prefix__a"/>
        </mask>
        <use fill="#706E6B" xlink:href="#prefix__a"/>
        <g mask="url(#prefix__b)">
            <path fill="#706E6B" d="M0 0L17.231 0 17.231 17.231 0 17.231z" transform="translate(-2.615 -2.615)"/>
        </g>
    </g>
</svg>
