<svg xmlns="http://www.w3.org/2000/svg" width="22" height="22" viewBox="0 0 22 22">
    <path fill="#333" fill-rule="evenodd" d="M6.727 10.987c-.349 0-.619.128-.81.39-.19.261-.286.623-.286 1.084 0 .963.365 1.447 1.096 1.447.309 0 .68-.078 1.113-.228v.767c-.36.15-.76.223-1.203.223-.635 0-1.119-.19-1.456-.573-.337-.384-.506-.93-.506-1.641 0-.45.084-.846.247-1.18.163-.333.405-.595.714-.778.31-.178.675-.273 1.09-.273.422 0 .85.1 1.282.306l-.298.746a4.18 4.18 0 0 0-.494-.2 1.402 1.402 0 0 0-.49-.09zm4.27 3.683L9.93 11.184H9.9c.04.707.057 1.18.057 1.42v2.066H9.12v-4.445h1.284l1.05 3.395h.017l1.113-3.395h1.283v4.445h-.878v-2.106c0-.097 0-.21.005-.342.006-.131.017-.473.04-1.033h-.028l-1.147 3.48h-.862zM18.004 1c.466 0 .862.163 1.189.49.326.326.49.715.49 1.168v13.347c0 .453-.164.842-.49 1.169-.327.326-.723.49-1.189.49V3.497a.823.823 0 0 0-.24-.59.797.797 0 0 0-.6-.25h-9.17L6.337 4.337h8.331c.467 0 .863.163 1.19.49.325.326.489.715.489 1.168v13.347c0 .453-.164.842-.49 1.168-.326.327-.722.49-1.189.49h-9.99c-.466 0-.862-.163-1.188-.49A1.595 1.595 0 0 1 3 19.342V5.995c0-.466.166-.86.5-1.179L6.836 1.5c.32-.334.713-.5 1.179-.5h9.99z"/>
</svg>
