<svg xmlns="http://www.w3.org/2000/svg" width="22" height="22" viewBox="0 0 22 22">
    <g fill="#333" fill-rule="nonzero">
        <path d="M3 4.192v1.616c0 .369.25.692.536.692h14.928c.286 0 .536-.323.536-.692V4.192c0-.369-.25-.692-.536-.692H3.536C3.25 3.5 3 3.823 3 4.192zM3 8.192v1.616c0 .369.25.692.536.692h14.928c.286 0 .536-.323.536-.692V8.192c0-.369-.25-.692-.536-.692H3.536C3.25 7.5 3 7.823 3 8.192zM3 12.192v1.616c0 .369.25.692.536.692h14.928c.286 0 .536-.323.536-.692v-1.616c0-.369-.25-.692-.536-.692H3.536c-.286 0-.536.323-.536.692zM3 16.192v1.616c0 .369.25.692.536.692h14.928c.286 0 .536-.323.536-.692v-1.616c0-.369-.25-.692-.536-.692H3.536c-.286 0-.536.323-.536.692z"/>
        <path d="M2 20h18V2H2v18zm-1 1V1h20v20H1z"/>
    </g>
</svg>
