<svg xmlns="http://www.w3.org/2000/svg" width="22" height="22" viewBox="0 0 22 22">
    <g fill="none" fill-rule="evenodd">
        <path fill="#333" fill-rule="nonzero" d="M15.168 9.334a5.834 5.834 0 0 0-5.834 5.833A5.84 5.84 0 0 0 15.168 21a5.834 5.834 0 0 0 0-11.666zm2.074 4.916l-3.65 3.65a.13.13 0 0 1-.058.034h-.058l-1.641.567.566-1.642a.095.095 0 0 1 0-.067.178.178 0 0 1 .034-.05l3.658-3.658c.025-.025.058-.033.1-.033s.075.008.1.033l.95.958c.032.025.041.058.041.1a.138.138 0 0 1-.042.109zm.492-.491L16.576 12.6l.767-.767 1.158 1.15-.767.775z"/>
        <path fill="#333" d="M2.658 17.66h5.435c.213.6.493 1.16.84 1.679H2.657c-.453 0-.842-.164-1.168-.49A1.619 1.619 0 0 1 1 17.66V2.655c0-.453.163-.842.49-1.168.326-.327.715-.49 1.168-.49h15.005c.467 0 .863.163 1.19.49.325.326.489.715.489 1.168V8.93a7.607 7.607 0 0 0-1.679-.84V2.656H2.658V17.66zM5.176 6.831V5.173h9.99V6.83h-9.99zM10.47 9.33a7.616 7.616 0 0 0-1.539 1.658H5.176V9.329h5.295zm-2.618 4.175c-.12.56-.18 1.113-.18 1.659H5.176v-1.659h2.677z"/>
    </g>
</svg>
