<svg xmlns="http://www.w3.org/2000/svg" xmlns:xlink="http://www.w3.org/1999/xlink" width="22" height="22" viewBox="0 0 22 22">
    <defs>
        <path id="a" d="M0 .04h19.955V19.9H0z"/>
    </defs>
    <g fill="none" fill-rule="evenodd">
        <g transform="translate(1 1.06)">
            <mask id="b" fill="#fff">
                <use xlink:href="#a"/>
            </mask>
            <path fill="#000" d="M9.971 18.935c4.947-.042 8.985-3.919 9.006-8.932.02-5.019-4.014-8.983-8.987-8.989C5.035 1.008 1 4.955.98 9.935c-.019 4.988 4.001 8.948 8.991 9m9.984-8.962c.024 5.459-4.478 9.93-9.978 9.927C4.464 19.895-.003 15.41 0 9.965.003 4.51 4.485.04 9.985.04c5.49 0 9.996 4.462 9.97 9.933" mask="url(#b)"/>
        </g>
        <path fill="#000" d="M4.934 11.835c.525.14.955.017 1.188-.32.203-.295.2-.833-.008-1.135-.237-.345-.633-.448-1.18-.292v1.747zM8.44 10.64l.469.352 2.06-1.584.767.57-2.038 1.606.434.395 2.144-1.67V8.89h1.39v2.952h1.48v1.156h-2.823l-.073-1.423c-.927.595-1.653 1.31-2.531 1.885l-2.215-1.72c-.094.126-.174.225-.245.329-.417.608-.985.947-1.733.954-.636.006-1.273.001-1.944.001V8.901c.102-.016.212-.047.323-.048.538-.004 1.077-.019 1.614.004.694.029 1.26.323 1.676.886.088.12.169.245.293.427l2.255-1.74.743.585-2.046 1.626zM17.096 11.879h1.429v1.118h-2.823v-4.11h1.394z"/>
    </g>
</svg>
