<svg xmlns="http://www.w3.org/2000/svg" width="21" height="22" viewBox="0 0 21 22">
    <path fill="#333" fill-rule="evenodd" d="M9.452 20.058c.4.386.792.706 1.178.959H2.698c-.48 0-.885-.17-1.218-.51-.333-.34-.5-.742-.5-1.208V2.755c0-.466.167-.876.5-1.229.333-.353.739-.529 1.218-.529h2.138v1.518H2.758c-.08 0-.136.02-.17.06-.033.04-.05.1-.05.18V19.24c0 .066.02.12.06.16.04.04.094.06.16.06h6.174c.12.173.293.373.52.599zm7.252-18.581c.307.32.46.692.46 1.118V7.65a7.016 7.016 0 0 0-1.539-.36V2.896a.352.352 0 0 0-.12-.27.378.378 0 0 0-.26-.11h-1.937V.977h2.317c.427 0 .786.167 1.08.5zM13.108 7.39l.02.02a8.22 8.22 0 0 0-1.299.42c-.52.226-.999.505-1.438.838H5.515a.615.615 0 0 1-.479-.23.823.823 0 0 1-.2-.559c0-.22.07-.396.21-.53.14-.133.296-.2.47-.2h7.112c.187 0 .347.08.48.24zm-7.593 2.837h3.277a6.45 6.45 0 0 0-.919 1.538H5.515c-.173 0-.33-.083-.469-.25-.14-.166-.21-.336-.21-.509 0-.253.067-.446.2-.58a.654.654 0 0 1 .48-.2zm0 3.077h1.879c-.094.493-.14.972-.14 1.438v.1H5.515c-.173 0-.33-.08-.469-.24a.798.798 0 0 1-.21-.54c0-.239.07-.425.21-.559.14-.133.296-.2.47-.2zM6.375.977h5.394v2.318H6.375V.977zm8.371 7.513c.88 0 1.695.17 2.448.509.752.34 1.412.79 1.978 1.349a6.049 6.049 0 0 1 1.328 1.978c.347.786.52 1.591.52 2.417 0 .88-.173 1.695-.52 2.448a6.982 6.982 0 0 1-1.348 1.978 5.937 5.937 0 0 1-1.968 1.329 5.984 5.984 0 0 1-2.438.519 5.804 5.804 0 0 1-2.437-.52 6.939 6.939 0 0 1-1.988-1.348 5.937 5.937 0 0 1-1.329-1.968 6.188 6.188 0 0 1-.5-2.438 5.9 5.9 0 0 1 .51-2.437 6.68 6.68 0 0 1 1.349-1.988 6.049 6.049 0 0 1 1.978-1.329 6.14 6.14 0 0 1 2.417-.5zm0 11.268a4.88 4.88 0 0 0 1.948-.4 5.012 5.012 0 0 0 1.609-1.088c.453-.46.809-.986 1.069-1.579a4.75 4.75 0 0 0 .39-1.928c0-.692-.134-1.345-.4-1.958a5.042 5.042 0 0 0-1.09-1.598 5.207 5.207 0 0 0-1.578-1.07 4.775 4.775 0 0 0-1.938-.389c-.7 0-1.348.13-1.948.39-.6.26-1.129.616-1.588 1.069a4.937 4.937 0 0 0-1.469 3.526 5.023 5.023 0 0 0 1.469 3.556c.46.46.989.82 1.588 1.08.6.26 1.246.39 1.938.39zm1.379-6.853l2.377-.04v2.398l-.719.02-.02-1.14-2.377 2.378-1.918-1.878-1.978 1.978-.48-.52 2.478-2.497 1.898 1.879 1.918-1.899h-1.18v-.679z"/>
</svg>
