<svg xmlns="http://www.w3.org/2000/svg" width="22" height="22" viewBox="0 0 22 22">
    <path fill="#333" fill-rule="evenodd" d="M16.013 9.002h1.991v2.01h-1.991v-2.01zm-3.015 0h2.01v2.01h-2.01v-2.01zm-2.996 0h2.01v2.01h-2.01v-2.01zM4.01 12.017h1.991v1.991H4.01v-1.991zm12.003 0h1.991v1.991h-1.991v-1.991zm-3.015 0h2.01v1.991h-2.01v-1.991zm-2.996 0h2.01v1.991h-2.01v-1.991zm-2.996 0h1.991v1.991H7.006v-1.991zM4.01 15.013h1.991v1.991H4.01v-1.991zm8.988 0h2.01v1.991h-2.01v-1.991zm-2.996 0h2.01v1.991h-2.01v-1.991zm-2.996 0h1.991v1.991H7.006v-1.991zM20.014 3.01V20H2V3.01h2.996V1h3.015v2.01h5.992V1h2.996v2.01h3.015zm-5.006 2.996h1.005V2.005h-1.005v4.001zm-9.007 0h1.005V2.005H6.001v4.001zm13.008 2.01H3.005v10.998h16.004V8.016z"/>
</svg>
