<svg xmlns="http://www.w3.org/2000/svg" width="23" height="22" viewBox="0 0 23 22">
    <path fill="#333" fill-rule="evenodd" d="M6.182 6.545V4.552h2.014v1.993H6.182zm2.853-.314V4.972h7.993v1.259H9.035zm-5.16-2.832a.666.666 0 0 1 .25-.095c.07-.007.162-.01.274-.01l.125.063a.59.59 0 0 1 .19.094.387.387 0 0 1 .104.157c.07.07.105.21.105.42a.381.381 0 0 1-.073.241.696.696 0 0 1-.242.179c-.447.223-.762.468-.944.734-.14.21-.28.524-.42.944-.07.21-.104.56-.104 1.049 0 .28.14.63.42 1.049l1.468-.84-.315 3.798-3.671-1.385 1.468-.944c-.35-.461-.524-.95-.524-1.468 0-.7.035-1.224.105-1.574.098-.475.308-.93.63-1.363.14-.182.321-.371.545-.567.126-.112.328-.273.608-.482zM19.23 17.895a.666.666 0 0 1-.252.095c-.07.007-.16.01-.273.01l-.126-.063a.59.59 0 0 1-.188-.094.387.387 0 0 1-.105-.158c-.07-.07-.105-.21-.105-.42 0-.055.028-.125.084-.21a.671.671 0 0 1 .23-.209c.21-.14.364-.252.462-.336.154-.125.28-.258.378-.398.28-.42.454-.734.524-.944.07-.21.105-.56.105-1.05 0-.279-.14-.628-.42-1.048l-1.468.84.315-3.798 3.566 1.385-1.468.944c.181.293.307.538.377.734.098.238.147.482.147.734.042.224.049.483.021.776a7.275 7.275 0 0 1-.126.798c-.098.475-.308.93-.63 1.363-.097.182-.244.37-.44.567-.126.111-.329.272-.608.482zM6.18 10.007V8.119h2.015v1.888H6.182zm2.854-.21V8.434h7.993v1.363H9.035zM6.182 13.49v-1.993h2.014v1.993H6.182zm2.853-.315v-1.259h7.993v1.259H9.035zM6.182 16.95v-1.993h2.014v1.993H6.182zm2.853-.21v-1.258h7.993v1.258H9.035z"/>
</svg>
