<svg xmlns="http://www.w3.org/2000/svg" width="22" height="22" viewBox="0 0 22 22">
    <path fill="#333" fill-rule="evenodd" d="M15.785 7.45v1.24H9.132V7.45h6.653zm-8.751-.22c.24 0 .44.084.6.25.16.167.24.363.24.59 0 .226-.08.423-.24.59a.785.785 0 0 1-.59.25.785.785 0 0 1-.59-.25.823.823 0 0 1-.24-.59c0-.227.08-.423.24-.59a.774.774 0 0 1 .58-.25zm2.098 4.376v-1.238h6.653v.659a3.446 3.446 0 0 0-.66-.02 6.769 6.769 0 0 0-2.896.6H9.132zm-2.098-1.458c.24 0 .44.083.6.25.16.166.24.363.24.589 0 .226-.08.423-.24.59a.785.785 0 0 1-.59.25.785.785 0 0 1-.59-.25.823.823 0 0 1-.24-.59c0-.226.08-.423.24-.59a.774.774 0 0 1 .58-.25zm2.098 3.916v-.78h.7c-.227.214-.46.474-.7.78zm-2.098-1c.24 0 .44.084.6.25.16.167.24.364.24.59 0 .227-.08.423-.24.59a.785.785 0 0 1-.59.25.785.785 0 0 1-.59-.25.823.823 0 0 1-.24-.59c0-.226.08-.423.24-.59a.774.774 0 0 1 .58-.25zM21 2.656v11.23c-.4-.48-.86-.92-1.379-1.32l-.28-.22V5.993H2.659v10.01h5.275c-.08.147-.166.353-.26.62V17c.067.173.16.393.28.66H2.658c-.453 0-.842-.164-1.168-.49A1.595 1.595 0 0 1 1 16.002V2.655c0-.453.163-.842.49-1.168.326-.327.715-.49 1.168-.49h16.684c.453 0 .842.163 1.168.49.327.326.49.715.49 1.168zm-16.663.84a.806.806 0 0 0-.25-.59.806.806 0 0 0-.59-.25.806.806 0 0 0-.589.25.806.806 0 0 0-.25.59c0 .226.084.422.25.589.167.166.363.25.59.25a.806.806 0 0 0 .589-.25.806.806 0 0 0 .25-.59zm15.005.839V2.655H5.995v1.679h13.347zM20.96 16.72c.027.04.04.08.04.12 0 .04-.013.073-.04.1-.52 1.226-1.302 2.208-2.348 2.947a5.856 5.856 0 0 1-3.456 1.109c-1.259 0-2.418-.373-3.477-1.119a6.655 6.655 0 0 1-2.347-2.937v-.26a6.528 6.528 0 0 1 2.347-2.917c1.06-.732 2.218-1.099 3.477-1.099s2.414.37 3.466 1.11c1.053.738 1.832 1.72 2.338 2.946zm-2.877.1c0-.52-.13-1.002-.39-1.448a2.962 2.962 0 0 0-1.059-1.07 2.812 2.812 0 0 0-1.468-.399c-.533 0-1.022.133-1.469.4-.446.266-.799.622-1.059 1.069-.26.446-.39.932-.39 1.458 0 .526.13 1.012.39 1.459.26.446.613.799 1.06 1.059.446.26.935.39 1.468.39.533 0 1.022-.13 1.468-.39.447-.26.8-.613 1.06-1.06.259-.446.389-.935.389-1.468zm-2.917-1.658c.453 0 .842.163 1.169.49.326.326.49.719.49 1.178 0 .46-.164.853-.49 1.179-.327.326-.716.49-1.17.49-.452 0-.842-.164-1.168-.49a1.607 1.607 0 0 1-.49-1.179c0-.46.164-.852.49-1.179.326-.326.716-.49 1.169-.49z"/>
</svg>
