<svg xmlns="http://www.w3.org/2000/svg" width="22" height="22" viewBox="0 0 22 22">
    <g fill="#333" fill-rule="nonzero">
        <path d="M3 15.182v3.273c0 .29.255.545.545.545h6.182a.56.56 0 0 0 .546-.545v-3.273a.56.56 0 0 0-.546-.546H3.545a.56.56 0 0 0-.545.546zm0-5.818v3.272c0 .291.255.546.545.546h6.182a.56.56 0 0 0 .546-.546V9.364a.56.56 0 0 0-.546-.546H3.545A.56.56 0 0 0 3 9.364zm0-5.819v3.273c0 .291.255.546.545.546h6.182a.56.56 0 0 0 .546-.546V3.545A.56.56 0 0 0 9.727 3H3.545A.56.56 0 0 0 3 3.545zm8.727 11.637v3.273c0 .29.255.545.546.545h6.182a.56.56 0 0 0 .545-.545v-3.273a.56.56 0 0 0-.545-.546h-6.182a.56.56 0 0 0-.546.546zm0-5.818v3.272c0 .291.255.546.546.546h6.182a.56.56 0 0 0 .545-.546V9.364a.56.56 0 0 0-.545-.546h-6.182a.56.56 0 0 0-.546.546zm0-5.819v3.273c0 .291.255.546.546.546h6.182A.56.56 0 0 0 19 6.818V3.545A.56.56 0 0 0 18.455 3h-6.182a.56.56 0 0 0-.546.545z"/>
        <path d="M2 20h18V2H2v18zm-1 1V1h20v20H1z"/>
    </g>
</svg>
