<svg xmlns="http://www.w3.org/2000/svg" width="22" height="22" viewBox="0 0 22 22">
    <path fill="#333" fill-rule="evenodd" d="M10.352 7.238h-3.11v6.242h2.492c.452 0 .867.113 1.246.338.379.226.681.529.907.908.226.379.34.794.34 1.246v2.493c0 .452-.114.87-.34 1.256a2.553 2.553 0 0 1-.907.917 2.388 2.388 0 0 1-1.246.339H3.492a2.44 2.44 0 0 1-1.256-.339 2.529 2.529 0 0 1-.917-.917 2.44 2.44 0 0 1-.339-1.256v-2.493c0-.452.113-.867.339-1.246.226-.38.532-.682.917-.908a2.44 2.44 0 0 1 1.256-.338h2.493V5.982h4.367L15.357.977 20.98 6.6l-5.623 5.623-5.005-4.985zm5.005-2.752L13.223 6.6l2.134 2.134L17.47 6.6l-2.114-2.114zM9.734 15.972H3.492v2.493h6.242v-2.493z"/>
</svg>
