<svg xmlns="http://www.w3.org/2000/svg" width="22" height="22" viewBox="0 0 22 22">
    <path fill="#333" fill-rule="evenodd" d="M4.557 14.284c0 .346-.126.646-.38.899a1.24 1.24 0 0 1-.908.38c-.353 0-.653-.124-.9-.37a1.236 1.236 0 0 1-.369-.91c0-.359.127-.665.38-.918a1.24 1.24 0 0 1 .909-.38c.353 0 .652.13.899.39.246.26.37.562.37.909zM6.515 2.436c0 .346-.126.646-.38.899-.252.253-.552.38-.898.38-.347 0-.643-.127-.89-.38a1.257 1.257 0 0 1-.369-.91c0-.352.127-.652.38-.899.253-.246.552-.37.899-.37.346 0 .642.124.889.37.246.247.37.55.37.91zm-1.198 10.33l1.019-.56a.437.437 0 0 1 .33-.03.466.466 0 0 1 .27.21.39.39 0 0 1 .049.33.392.392 0 0 1-.21.249l-1.059.58-.08.02a.329.329 0 0 1-.1.02.484.484 0 0 1-.22-.05.48.48 0 0 1-.18-.17.412.412 0 0 1-.04-.35.429.429 0 0 1 .22-.25zm1.318-8.652l.5.939a.39.39 0 0 1 .05.33.392.392 0 0 1-.21.25l-.12.06h-.1a.375.375 0 0 1-.22-.07.554.554 0 0 1-.16-.17l-.499-.94a.458.458 0 0 1-.03-.29c.02-.112.09-.202.21-.269a.422.422 0 0 1 .34-.05.392.392 0 0 1 .24.21zm1.14 3.836a.303.303 0 0 1-.16-.18l-.5-.919a.365.365 0 0 1-.04-.33c.04-.113.113-.2.22-.26a.384.384 0 0 1 .33-.03c.113.04.196.114.25.22l.499.9c.066.12.08.236.04.35a.429.429 0 0 1-.22.249c-.014.027-.04.04-.08.04l-.1.02a.458.458 0 0 1-.24-.06zm10.888-6.394c.373.373.56.83.56 1.37 0 .539-.187 1.001-.56 1.388a1.84 1.84 0 0 1-1.378.58 1.895 1.895 0 0 1-.86-.2L11.99 9.348c.16.226.273.46.34.699.08.266.12.533.12.8 0 .519-.137.988-.41 1.408a2.77 2.77 0 0 1-1.069.969l.979 3.896a1.8 1.8 0 0 1 1.319.6c.36.386.54.842.54 1.368 0 .526-.194.979-.58 1.359a1.9 1.9 0 0 1-1.379.569 1.9 1.9 0 0 1-1.378-.57 1.85 1.85 0 0 1-.58-1.368c0-.373.09-.703.27-.99.18-.285.396-.509.65-.668l-.98-3.917h-.1c-.719 0-1.345-.26-1.878-.779a2.54 2.54 0 0 1-.8-1.888c0-.74.264-1.368.79-1.888a2.593 2.593 0 0 1 1.888-.78c.267 0 .516.034.75.1.233.067.442.154.629.26l4.455-4.655a1.459 1.459 0 0 1-.18-.44 1.85 1.85 0 0 1 .5-1.888c.386-.38.85-.569 1.389-.569.54 0 1.002.193 1.388.58zm-7.612 10.03c.08-.12.133-.253.16-.4l.04-.179a.657.657 0 0 0 .02-.16c0-.106-.014-.213-.04-.32a1.977 1.977 0 0 0-.1-.3 1.762 1.762 0 0 0-.33-.479 1.23 1.23 0 0 0-.51-.32l-.259-.08a1.721 1.721 0 0 0-.28-.02h-.16l-.14.02a1.721 1.721 0 0 0-.759.4c-.16.16-.276.33-.35.51-.073.18-.11.37-.11.57l.02.319c.054.173.107.313.16.42.094.16.18.272.26.34.12.119.247.212.38.279.133.066.293.106.48.12.013.013.046.026.1.04h.1c.172 0 .339-.03.499-.09.16-.06.3-.137.42-.23l.06-.04a.13.13 0 0 0 .06-.06v-.02a.814.814 0 0 0 .279-.32zm0 6.734c-.093.106-.167.22-.22.34a.973.973 0 0 0-.08.399c0 .293.107.546.32.76.213.212.466.319.76.319.292 0 .549-.11.768-.33.22-.22.33-.47.33-.75a1.02 1.02 0 0 0-.22-.628 1.069 1.069 0 0 0-.54-.39.446.446 0 0 0-.159-.06h-.18a1.169 1.169 0 0 0-.78.34zm1.978-6.134l1.019.6a.392.392 0 0 1 .21.249.39.39 0 0 1-.05.33.362.362 0 0 1-.16.17.484.484 0 0 1-.22.05h-.1a.25.25 0 0 1-.1-.06l-1.019-.56a.467.467 0 0 1-.21-.28.432.432 0 0 1 .04-.34c.06-.106.15-.17.27-.19.12-.02.227-.01.32.03zm2.517 1.438l1.02.6c.093.04.16.12.2.24.04.12.02.233-.06.34a.494.494 0 0 1-.15.159.37.37 0 0 1-.21.06l-.12-.02a.136.136 0 0 1-.1-.04l-1.02-.58a.42.42 0 0 1-.14-.6.386.386 0 0 1 .26-.189.587.587 0 0 1 .32.03zm1.719-9.63c.293 0 .546-.103.759-.31a.994.994 0 0 0 .32-.739c0-.286-.104-.536-.31-.75a1.005 1.005 0 0 0-.75-.319c-.292 0-.549.103-.769.31-.22.206-.33.463-.33.769l.02.14.02.1c.054.2.154.373.3.52.147.146.327.239.54.279h.2zm2.577 11.748c0 .36-.123.663-.37.91-.246.246-.546.369-.899.369s-.652-.123-.899-.37a1.224 1.224 0 0 1-.37-.899c0-.353.124-.652.37-.899.247-.246.546-.37.9-.37.352 0 .652.124.899.37.246.247.37.543.37.89z"/>
</svg>
