<svg xmlns="http://www.w3.org/2000/svg" xmlns:xlink="http://www.w3.org/1999/xlink" width="24" height="24" viewBox="0 0 24 24">
    <defs>
        <circle id="prefix__a" cx="12" cy="12" r="12"/>
        <path id="prefix__c" d="M4.373 8.027L.565 4.197c-.138-.14-.138-.37 0-.509l.508-.507c.139-.139.37-.139.508 0l2.861 2.884c.093.093.254.093.346 0L10.396.412c.139-.139.37-.139.508 0l.508.507c.138.139.138.37 0 .508l-6.531 6.6c-.139.161-.37.161-.508 0z"/>
    </defs>
    <g fill="none" fill-rule="evenodd">
        <mask id="prefix__b" fill="#fff">
            <use xlink:href="#prefix__a"/>
        </mask>
        <g fill="#4BCA81" mask="url(#prefix__b)">
            <path d="M0 0H24V24H0z"/>
        </g>
        <g>
            <path d="M0 0H12V12H0z" transform="translate(6 6)"/>
            <g transform="translate(6 6) translate(0 2)">
                <mask id="prefix__d" fill="#fff">
                    <use xlink:href="#prefix__c"/>
                </mask>
                <use fill="#706E6B" xlink:href="#prefix__c"/>
                <g fill="#FFF" mask="url(#prefix__d)">
                    <path d="M1 1H14V14H1z" transform="translate(-1 -3)"/>
                </g>
            </g>
        </g>
    </g>
</svg>
