<svg xmlns="http://www.w3.org/2000/svg" xmlns:xlink="http://www.w3.org/1999/xlink" width="24" height="24" viewBox="0 0 24 24">
    <defs>
        <path id="prefix__a" d="M11.52 2.692H8.153V1.615c0-.592-.485-1.077-1.077-1.077H5.462c-.593 0-1.077.485-1.077 1.077v1.077H1.019c-.215 0-.404.189-.404.404v.808c0 .215.189.404.404.404h10.5c.216 0 .404-.189.404-.404v-.808c0-.215-.188-.404-.404-.404zm-6.058-.807c0-.162.107-.27.269-.27h1.077c.161 0 .269.108.269.27v.807H5.462v-.807zm4.98 3.5H2.096c-.215 0-.404.188-.404.403v6.327c0 .754.593 1.347 1.346 1.347H9.5c.754 0 1.346-.593 1.346-1.347V5.788c0-.215-.188-.403-.404-.403zm-4.98 5.923c0 .161-.108.269-.27.269h-.538c-.162 0-.27-.108-.27-.27V7.539c0-.161.108-.269.27-.269h.538c.162 0 .27.108.27.27v3.769zm2.692 0c0 .161-.108.269-.27.269h-.538c-.161 0-.27-.108-.27-.27V7.539c0-.161.109-.269.27-.269h.539c.161 0 .269.108.269.27v3.769z"/>
    </defs>
    <g fill="none" fill-rule="evenodd">
        <rect width="24" height="24" fill="#0070D2" fill-opacity="0" rx="4"/>
        <g>
            <path d="M0 0H14V14H0z" transform="translate(5 5)"/>
            <g transform="translate(5 5) translate(1)">
                <use fill="#706E6B" xlink:href="#prefix__a"/>
            </g>
        </g>
    </g>
</svg>
