<svg xmlns="http://www.w3.org/2000/svg" width="16" height="16" viewBox="0 0 16 16">
    <path fill="#333" fill-rule="evenodd" d="M9.88.233v.015c.2 0 .378.03.533.09.154.06.302.16.442.3l2.772 2.772c.27.27.404.599.404.989v9.59c0 .34-.124.634-.374.884a1.21 1.21 0 0 1-.884.375h-9.59c-.35 0-.65-.125-.9-.375a1.21 1.21 0 0 1-.374-.884V1.506c0-.34.124-.636.374-.891s.55-.382.9-.382H9.88zm.69 1.678V3.71h1.738L10.57 1.911zm2.218 12.078h.06V4.803h-2.803a.538.538 0 0 1-.404-.172.575.575 0 0 1-.165-.412V1.342H3.182c-.12 0-.18.055-.18.164V13.99c0 .05.02.09.06.12a.2.2 0 0 0 .12.045h9.44c.05 0 .09-.02.12-.06.03-.04.046-.075.046-.105z"/>
</svg>
