<svg xmlns="http://www.w3.org/2000/svg" width="22" height="22" viewBox="0 0 22 22">
    <path fill="#333" fill-rule="evenodd" d="M11.055 2.407c.322 0 .59.131.802.395.213.264.319.535.319.813 0 .279-.106.535-.319.77-.212.234-.48.351-.802.351-.762 0-1.473.125-2.132.374-.66.249-1.23.604-1.714 1.066a5.41 5.41 0 0 0-1.165 1.626c-.293.623-.44 1.315-.44 2.077h3.187l-4.395 5.824L0 9.901h3.275c0-1.084.201-2.084.604-3a7.262 7.262 0 0 1 1.66-2.374 7.63 7.63 0 0 1 2.472-1.56 8.204 8.204 0 0 1 3.044-.56zm7.758 10.263c0 1.085-.201 2.085-.604 3a7.47 7.47 0 0 1-1.649 2.385 7.388 7.388 0 0 1-2.472 1.571 8.23 8.23 0 0 1-3.033.56c-.337 0-.612-.12-.824-.362-.213-.242-.319-.498-.319-.77 0-.27.121-.523.363-.757.241-.235.502-.352.78-.352.747 0 1.447-.124 2.099-.374a5.165 5.165 0 0 0 1.714-1.066 5.279 5.279 0 0 0 1.176-1.637c.293-.63.44-1.319.44-2.066h-3.275l4.395-5.824 4.418 5.824h-3.209v-.132z"/>
</svg>
