<svg xmlns="http://www.w3.org/2000/svg" width="22" height="22" viewBox="0 0 22 22">
    <path fill="#333" fill-rule="evenodd" d="M20.48 12.665h-1.618c-.133 0-.27.05-.41.15a.67.67 0 0 0-.27.35l-.559 1.358a.725.725 0 0 0-.06.45.63.63 0 0 0 .2.39l1.16 1.158c.092.107.139.234.139.38a.557.557 0 0 1-.14.38l-1.618 1.598a.519.519 0 0 1-.38.16.519.519 0 0 1-.38-.16l-1.158-1.159a.79.79 0 0 0-.4-.18.701.701 0 0 0-.44.06l-1.358.56a.684.684 0 0 0-.35.26.689.689 0 0 0-.15.42v1.658c0 .133-.05.253-.15.36a.487.487 0 0 1-.37.159H9.872a.487.487 0 0 1-.37-.16.513.513 0 0 1-.15-.36V18.84c0-.133-.05-.27-.15-.41a.665.665 0 0 0-.369-.27L7.474 17.6a.651.651 0 0 0-.43-.06.798.798 0 0 0-.41.18l-1.158 1.16a.519.519 0 0 1-.38.159.456.456 0 0 1-.36-.16l-1.618-1.598a.557.557 0 0 1-.14-.38c0-.146.047-.273.14-.38l1.159-1.158a.664.664 0 0 0 .19-.4.753.753 0 0 0-.07-.44l-.56-1.358a.634.634 0 0 0-.26-.36.72.72 0 0 0-.42-.14H1.52a.502.502 0 0 1-.37-.15c-.1-.1-.149-.23-.149-.39V9.849c0-.146.05-.27.15-.37.1-.1.223-.15.37-.15h1.638c.146 0 .286-.05.42-.15.133-.1.22-.222.26-.369l.559-1.338a.777.777 0 0 0 .07-.45.589.589 0 0 0-.19-.39l-1.16-1.158a.557.557 0 0 1-.139-.38c0-.147.047-.273.14-.38l1.618-1.618a.557.557 0 0 1 .38-.14c.146 0 .266.047.36.14l1.158 1.159a.723.723 0 0 0 .41.2c.166.026.31.006.43-.06l1.358-.56a.634.634 0 0 0 .36-.26.72.72 0 0 0 .14-.42V1.498c0-.147.053-.27.16-.37.106-.1.233-.15.38-.15h2.277c.146 0 .27.05.37.15.1.1.15.223.15.37v1.638c0 .146.05.286.15.42.1.133.222.22.369.26l1.338.559c.134.066.284.09.45.07a.589.589 0 0 0 .39-.19l1.158-1.16a.519.519 0 0 1 .38-.159c.147 0 .273.053.38.16l1.618 1.618c.093.107.14.233.14.38a.487.487 0 0 1-.14.36L17.743 6.61a.723.723 0 0 0-.2.41.651.651 0 0 0 .06.43l.56 1.358c.04.147.13.27.27.37.14.1.276.15.41.15h1.638c.146 0 .273.05.38.15.106.1.159.223.159.37v2.277a.519.519 0 0 1-.16.38.519.519 0 0 1-.38.16zm-9.47 2.837c.76 0 1.462-.19 2.108-.569a4.181 4.181 0 0 0 1.528-1.538c.373-.646.56-1.352.56-2.118 0-.766-.187-1.472-.56-2.118a4.106 4.106 0 0 0-1.528-1.529A4.162 4.162 0 0 0 11 7.07c-.766 0-1.472.187-2.118.56A4.106 4.106 0 0 0 7.354 9.16a4.162 4.162 0 0 0-.56 2.118c0 .766.187 1.472.56 2.118a4.181 4.181 0 0 0 1.528 1.538c.646.38 1.355.57 2.128.57z"/>
</svg>
