<svg xmlns="http://www.w3.org/2000/svg" width="22" height="22" viewBox="0 0 22 22">
    <path fill="#333" fill-rule="evenodd" d="M19.342 2.655h-5.835V8.49h5.835V2.655zm-10.85 10.85H2.659v5.834h5.835v-5.835zM19.343.996c.453 0 .842.163 1.168.49.327.326.49.715.49 1.168V8.49c0 .466-.163.862-.49 1.188-.326.327-.715.49-1.168.49h-5.835c-.466 0-.862-.163-1.188-.49a1.619 1.619 0 0 1-.49-1.188V6.432H4.097L6.135 8.49 4.976 9.568 1 5.572l3.976-3.976 1.119 1.2-2.058 2.057h7.792V2.655c0-.453.163-.842.49-1.168.326-.327.722-.49 1.188-.49h5.835zm-10.85 10.83c.467 0 .863.162 1.19.489.326.326.489.722.489 1.188v2.058h7.732l-2.038-2.058 1.159-1.078L21 16.422l-3.976 3.976-1.119-1.2 2.058-2.057h-7.792v2.198c0 .453-.163.842-.49 1.168-.326.327-.722.49-1.188.49H2.658c-.453 0-.842-.163-1.168-.49A1.595 1.595 0 0 1 1 19.34v-5.835c0-.466.163-.862.49-1.188.326-.327.715-.49 1.168-.49h5.835z"/>
</svg>
