<svg xmlns="http://www.w3.org/2000/svg" xmlns:xlink="http://www.w3.org/1999/xlink" width="24" height="24" viewBox="0 0 24 24">
    <defs>
        <path id="prefix__a" d="M12 .923C5.862.923.923 5.862.923 12S5.862 23.077 12 23.077 23.077 18.138 23.077 12 18.138.923 12 .923zm0 5.585c.785 0 1.385.6 1.385 1.384 0 .785-.6 1.385-1.385 1.385s-1.385-.6-1.385-1.385c0-.784.6-1.384 1.385-1.384zm2.308 9.692c0 .23-.185.415-.462.415h-3.692c-.23 0-.462-.138-.462-.415v-.923c0-.23.185-.508.462-.508.23 0 .461-.138.461-.415v-1.846c0-.231-.184-.508-.461-.508-.23 0-.462-.138-.462-.415v-.923c0-.231.185-.508.462-.508h2.77c.23 0 .46.23.46.508v3.692c0 .23.185.415.462.415.23 0 .462.231.462.508v.923z"/>
    </defs>
    <g fill="none" fill-rule="evenodd">
        <path d="M0 0H24V24H0z"/>
        <use fill="#706E6B" xlink:href="#prefix__a"/>
    </g>
</svg>
