<svg xmlns="http://www.w3.org/2000/svg" width="24" height="24" viewBox="0 0 24 24">
    <path fill="#514F4D" fill-rule="evenodd" d="M23.702 19.615L13.133 2.538c-.554-.923-1.754-.923-2.308 0L.256 19.615c-.646 1.062 0 2.539 1.154 2.539H22.55c1.153 0 1.846-1.477 1.153-2.539zM11.98 18.462c-.784 0-1.384-.6-1.384-1.385s.6-1.385 1.384-1.385c.785 0 1.385.6 1.385 1.385s-.6 1.385-1.385 1.385zm1.385-4.154c0 .277-.185.461-.462.461h-1.846c-.277 0-.461-.184-.461-.461v-6c0-.277.184-.462.461-.462h1.846c.277 0 .462.185.462.462v6z"/>
</svg>
