<svg id="Layer_1" data-name="Layer 1" xmlns="http://www.w3.org/2000/svg" viewBox="0 0 119 27"><title>mapanything_logo</title><path d="M116.13282,8.05348h-4.9043a1.00294,1.00294,0,0,0-1,1v1.28369a0.95619,0.95619,0,0,0,.39551,1,0.397,0.397,0,0,1,.39551.39624c0,0.21793-.43783.2923-0.973,0.16527a9.05722,9.05722,0,0,0-1.83368-.21434,7.3051,7.3051,0,0,0-3.9121,1.45529,1.17737,1.17737,0,0,1-1.50247-.082,5.33618,5.33618,0,0,0-3.40868-1.37331,13.6787,13.6787,0,0,0-2.88865.44084,1.41854,1.41854,0,0,1-.96585.08785,4.92323,4.92323,0,0,1,.20605-0.823V11.03151a2.55914,2.55914,0,0,0-5.11816,0V11.4026a4.39075,4.39075,0,0,1,.22266,1.06281c0,0.216-.38191.15463-0.84869-0.13626a5.03985,5.03985,0,0,0-2.43842-.64481H87.4004a0.994,0.994,0,0,1-.32422-0.98291v-1.896a1.00294,1.00294,0,0,0-1-1H83.38575a1.00294,1.00294,0,0,0-1,1v2.05029a1.02277,1.02277,0,0,1-.3374,1,0.91051,0.91051,0,0,1-.3374-0.9231,0.9667,0.9667,0,0,0-1-.9231H78.03712a0.9667,0.9667,0,0,0-1,.9231,0.81662,0.81662,0,0,1-.57275.9231H74.98975A1.45188,1.45188,0,0,0,73.753,12.798l-0.4015,1.12965c-0.18419.51824-.48779,0.519-0.67466,0.00174L72.2675,12.79624a1.53172,1.53172,0,0,0-1.33976-.94051H67.85743c-0.55,0-.9981.00479-0.99579,0.01065s-0.43739-.07587-0.97713-0.18161c0,0-.00218-0.00043-0.574-0.00043a14.11682,14.11682,0,0,0-3.045.48386c-0.53009.14664-1.17957,0.35012-1.44329,0.45217a1.35878,1.35878,0,0,0-.47949,1.18555v0.74219c0,0.55-.16372.58084-0.36383,0.06853l-1.72254-4.41a1.58188,1.58188,0,0,0-1.36383-.93147H54.70606a1.5788,1.5788,0,0,0-1.36238.932l-1.403,3.60854a0.557,0.557,0,0,1-1.02079.17937s-2.0214-2.31076-4.56339-2.31076a11.34831,11.34831,0,0,0-2.68154.43269c-0.5275.15572-1.157,0.3665-1.39884,0.4684a1.90169,1.90169,0,0,1-1.29968-.32516,4.97122,4.97122,0,0,0-2.33088-.57594,7.03519,7.03519,0,0,0-2.26752.44087c-0.51136.20251-1.08883,0.458-1.28326,0.56782s-0.42383-.24486-0.50977-0.7881L34.3252,10.26288A1.21285,1.21285,0,0,0,33.169,9.27516H30.585a1.42957,1.42957,0,0,0-1.287.95792l-0.73453,2.45135c-0.15787.52686-.41849,0.52755-0.57917,0.00154l-0.74972-2.45443a1.439,1.439,0,0,0-1.29213-.95638H23.38282a1.21543,1.21543,0,0,0-1.158.98744L20.43728,21.43616a0.82761,0.82761,0,0,0,.842.98744h2.76758a1.21065,1.21065,0,0,0,1.15478-.98795l0.11232-.717c0.08513-.54337.28662-0.5577,0.44777-0.03183L26.001,21.46748a1.44062,1.44062,0,0,0,1.293.95612h1.92773a1.4403,1.4403,0,0,0,1.29282-.95617l0.23858-.77907c0.161-.52589.3625-0.5116,0.44768,0.03177l0.11216,0.71553a1.21077,1.21077,0,0,0,1.15486.98794H35.249a1.58382,1.58382,0,0,0,.97507-0.15765,1.44522,1.44522,0,0,1,.93182.13324,6.55547,6.55547,0,0,0,1.72885.17968,12.66509,12.66509,0,0,0,1.92838-.16961,0.81121,0.81121,0,0,1,.98471.82579v1.26422a1.00294,1.00294,0,0,0,1,1h2.67578a1.00294,1.00294,0,0,0,1-1V23.59352a1.02632,1.02632,0,0,1,.77432-1.07608c0.42588-.04184,1.41367-0.26843,1.38959-0.20648a1.975,1.975,0,0,0,.95621.11264h3.08008a1.5494,1.5494,0,0,0,1.34837-.93736l0.19192-.5164a1.5494,1.5494,0,0,1,1.34837-.93736h0.44238a1.5494,1.5494,0,0,1,1.34837.93736l0.19192,0.5164a1.5494,1.5494,0,0,0,1.34837.93736h5.14063a1.00294,1.00294,0,0,0,1-1h0.2627a1.00294,1.00294,0,0,0,1,1h2.6748a1.00294,1.00294,0,0,0,1-1,0.63418,0.63418,0,0,1,.246.78055l-0.91584,2.36273a0.63925,0.63925,0,0,0,.63858.9324h2.877a1.57276,1.57276,0,0,0,1.35953-.93313L76.67758,18.076c0.19774-.51322.35953-0.57058,0.35953-0.12747a5.87457,5.87457,0,0,0,.3597,1.73873s1.12077,2.90726,3.41178,2.90726c0.55914,0,.59929-0.00859.59929-0.00859,0.53782-.11508.97786-0.19868,0.97786-0.18578s0.45,0.02347,1,.02347h2.69043a1.00294,1.00294,0,0,0,1-1h0.26367a1.00294,1.00294,0,0,0,1,1h9.77441a1.00294,1.00294,0,0,0,1-1H99.377a1.00294,1.00294,0,0,0,1,1h2.02051a1.00294,1.00294,0,0,1,1,1v0.1748a1.47441,1.47441,0,0,0,.43457,1.20142c0.239,0.11078.86185,0.3426,1.38407,0.51517a7.93135,7.93135,0,0,0,2.17647.35519c3.09375,0,4.774-3.86325,4.774-3.86325a5.74588,5.74588,0,0,0,.39884-1.917V14.45534a0.95109,0.95109,0,0,1,.88623-1h3.28955a1.00294,1.00294,0,0,0,1-1V9.05348a1.00294,1.00294,0,0,0-1-1h-0.6084Z" style="fill:#fff"/><path d="M10.73633,2.01784a9.495,9.495,0,0,0-9.47754,9.51172C1.26368,13.721,2.56837,16.51344,5.249,20.06667a53.55754,53.55754,0,0,0,3.7627,4.43408,2.44626,2.44626,0,0,0,3.50488.01514,52.99592,52.99592,0,0,0,3.76953-4.46777c2.6709-3.563,3.9668-6.36035,3.96191-8.55127A9.51548,9.51548,0,0,0,10.73633,2.01784Z" style="fill:#fff"/><polygon points="30.701 10.775 28.291 18.822 25.833 10.775 23.662 10.775 22.038 20.924 23.764 20.924 24.994 13.065 27.403 20.924 29.112 20.924 31.522 13.065 32.751 20.924 34.493 20.924 32.888 10.775 30.701 10.775" style="fill:#0073cb"/><path d="M38.646,13.18425a5.04527,5.04527,0,0,0-2.46072.61534v1.4687A4.26321,4.26321,0,0,1,38.372,14.654a1.2287,1.2287,0,0,1,1.45209,1.1956v0.63253H38.98685c-2.18654,0-3.50176.75122-3.50176,2.28836,0,1.70943,1.43474,2.30822,3.39977,2.30822a11.26688,11.26688,0,0,0,2.59743-.30882V15.76359C41.4823,13.86769,40.30315,13.18425,38.646,13.18425Zm1.17816,6.54406a6.15566,6.15566,0,0,1-.92216.08531c-1.02508,0-1.74273-.30716-1.74273-1.09376,0-.76874.76866-1.11062,1.94766-1.11062h0.71724v2.11907Z" style="fill:#0073cb"/><path d="M46.35621,13.18425a8.33016,8.33016,0,0,0-3.05794.59814V23.99924h1.67511V20.88988a4.23121,4.23121,0,0,0,1.38283.20467c2.56372,0,4.16933-1.48592,4.16933-4.04873C50.52554,14.58485,48.88505,13.18425,46.35621,13.18425Zm-0.102,6.4581a3.638,3.638,0,0,1-1.28082-.22252V14.893a4.72507,4.72507,0,0,1,1.36621-.18845,2.25029,2.25029,0,0,1,2.47808,2.39285A2.3475,2.3475,0,0,1,46.2542,19.64236Z" style="fill:#0073cb"/><path d="M54.73287,10.77519L50.78625,20.9236h1.84489l0.88844-2.3912h4.5279l0.8886,2.3912H60.8324L56.86857,10.77519h-2.1357ZM54.05,17.0974l1.74264-4.68223,1.72529,4.68223H54.05Z" style="fill:#0073cb"/><path d="M65.311,13.18425a10.1415,10.1415,0,0,0-3.4681.64938v7.09h1.69132V14.94393a5.866,5.866,0,0,1,1.64041-.22285,1.39047,1.39047,0,0,1,1.62261,1.48756v4.715h1.67488V16.05423C68.47214,13.91894,67.24181,13.18425,65.311,13.18425Z" style="fill:#0073cb"/><polygon points="73.027 19.317 70.875 13.356 69.063 13.356 72.191 21.266 71.131 23.999 72.788 23.999 76.889 13.356 75.146 13.356 73.027 19.317" style="fill:#0073cb"/><path d="M80.21077,18.37865v-3.605h2.153V13.35586h-2.153V11.50955H78.53689v1.84632H77.39171v1.41779h1.14517v3.98059a2.08393,2.08393,0,0,0,2.27218,2.3403,3.95178,3.95178,0,0,0,1.8286-.41034V19.16459a2.63971,2.63971,0,0,1-1.38439.42718A0.9838,0.9838,0,0,1,80.21077,18.37865Z" style="fill:#0073cb"/><path d="M87.55863,13.18425a5.69282,5.69282,0,0,0-1.98252.3594V9.30549H83.88552V20.9236H85.5761V14.978a5.27091,5.27091,0,0,1,1.641-.25692,1.39095,1.39095,0,0,1,1.62312,1.48756v4.715h1.675V16.05423C90.51523,13.93614,89.26689,13.18425,87.55863,13.18425Z" style="fill:#0073cb"/><path d="M93.18187,9.98959a1.06031,1.06031,0,0,0-1.05872,1.04186,1.05927,1.05927,0,1,0,2.11826,0A1.06071,1.06071,0,0,0,93.18187,9.98959Z" style="fill:#0073cb"/><rect x="92.34534" y="13.35586" width="1.69025" height="7.56773" style="fill:#0073cb"/><path d="M99.38984,13.18425a10.13036,10.13036,0,0,0-3.46729.64938v7.09H97.614V14.94393a5.85783,5.85783,0,0,1,1.63948-.22285,1.39094,1.39094,0,0,1,1.6233,1.48756v4.715h1.67485V16.05423C102.55159,13.91894,101.32161,13.18425,99.38984,13.18425Z" style="fill:#0073cb"/><path d="M103.92411,17.07922c0,2.51255,1.657,3.82784,4.015,3.82784a3.38171,3.38171,0,0,0,1.45184-.29063V20.787a1.811,1.811,0,0,1-1.99839,1.966,5.04981,5.04981,0,0,1-2.49471-.66756v1.55468a6.009,6.009,0,0,0,2.49471.53c1.72478,0,3.67326-.80312,3.67326-3.28029V13.73114a7.93154,7.93154,0,0,0-2.85328-.54689C105.58112,13.18425,103.92411,14.654,103.92411,17.07922Zm5.46682,2.15347a3.46346,3.46346,0,0,1-1.31561.25625,2.26107,2.26107,0,0,1-2.44264-2.40972,2.27829,2.27829,0,0,1,2.57985-2.40873,3.47354,3.47354,0,0,1,1.1784.18813v4.37407Z" style="fill:#0073cb"/><polygon points="111.729 9.837 112.52 9.837 112.52 11.955 112.838 11.955 112.838 9.837 113.633 9.837 113.633 9.553 111.729 9.553 111.729 9.837" style="fill:#0073cb"/><path d="M115.8135,9.5533l-0.57514,1.67141q-0.08705.25393-.1278,0.3852-0.03621-.11806-0.11474-0.35577L114.42728,9.5533h-0.47843v2.40213h0.30633V9.91073l0.69469,2.04469h0.28682l0.698-2.01031v2.01031h0.30651V9.5533H115.8135Z" style="fill:#0073cb"/><path d="M10.73956,3.51808a7.99416,7.99416,0,0,0-7.98029,8.00807c0.003,1.82857,1.24361,4.39786,3.6873,7.63648a52.54115,52.54115,0,0,0,3.64266,4.29489,0.94293,0.94293,0,0,0,.68247.29046h0.00007a0.94225,0.94225,0,0,0,.68445-0.2926,51.95753,51.95753,0,0,0,3.62952-4.30708c2.4337-3.2467,3.66607-5.82026,3.66275-7.649A8.0135,8.0135,0,0,0,10.73956,3.51808ZM12.1,16.12222l-0.00246.02353-0.00745.07017-0.00755.06939-0.00766.06861-0.09541.18192a0.629,0.629,0,0,0-.07537.20988,0.35846,0.35846,0,0,1-.02311.125,1.172,1.172,0,0,0-.04584.15861,0.55736,0.55736,0,0,0-.008.16881,0.0874,0.0874,0,0,1-.03744.094,0.10289,0.10289,0,0,0-.05856.06151l-0.00107.01095A6.08683,6.08683,0,0,1,6.21228,7.29943a1.3212,1.3212,0,0,0-.03945.17422l-0.00005.00013a0.37972,0.37972,0,0,0-.01267.19083A0.14729,0.14729,0,0,0,6.2077,7.661c0.01014-.00335.0169,0.01188,0.015,0.03382a0.3092,0.3092,0,0,1-.02139.079c-0.00836.01823-.00576,0.03249,0.00577,0.0317L6.2496,7.80271l0.06479-.00424a0.43163,0.43163,0,0,1-.10234.1883L6.19188,8.017c-0.20405.16685-.2241,0.15789-0.4217,0.33232-0.03919.09005,0.16731-.0044,0.33354-0.11264l0.20735-.10456c0.06947-.061.144-0.15122,0.21-0.21138a0.9743,0.9743,0,0,0,.09629-0.1762C6.644,7.7291,6.69943,7.692,6.74067,7.66206A0.55757,0.55757,0,0,1,6.8546,7.59562a0.46384,0.46384,0,0,0,.10965-0.0701c0.03889-.03195.07547-0.04059,0.08131-0.01922a0.118,0.118,0,0,0,.06118.06151,0.46348,0.46348,0,0,0,.11344.02985,0.25743,0.25743,0,0,1,.10275.03621,0.66019,0.66019,0,0,1,.10783.18273L7.45914,7.88083a1.08246,1.08246,0,0,1,.076.3216L7.54283,8.3625a0.20763,0.20763,0,0,0,.15484.1928,0.14453,0.14453,0,0,1,.13639.12926,0.56972,0.56972,0,0,0,.0055.16227,0.40011,0.40011,0,0,0,.07967.12783,0.337,0.337,0,0,1,.06857.184,1.15423,1.15423,0,0,1-.015.2183C7.96189,9.43427,7.94072,9.52025,7.92572,9.568a0.5524,0.5524,0,0,0-.02035.17427,0.98123,0.98123,0,0,1,.00383.11675l-0.006.0589-0.00863.0887L7.9953,10.2481c0.03559,0.08531.08883,0.19883,0.11833,0.25227a0.47655,0.47655,0,0,0,.13131.15938,0.42073,0.42073,0,0,1,.09168.19361c0.03427,0.08364.09059,0.20228,0.11294,0.27585a0.99373,0.99373,0,0,0,.14431.266l0.005,0.00631a1.69059,1.69059,0,0,0,.19853.20641c0.06706,0.05984.08845,0.03358,0.0831,0.01353a0.82045,0.82045,0,0,0-.0939-0.19589c-0.04519-.07442-0.11869-0.20152-0.16335-0.28245l-0.00807-.01464a0.86735,0.86735,0,0,1-.07871-0.21124c-0.00912-.04013.05607-0.05628,0.09687-0.03811a0.2355,0.2355,0,0,1,.10323.13977,0.736,0.736,0,0,0,.14068.2324l0.01637,0.01844a0.7629,0.7629,0,0,1,.12463.17313,0.29026,0.29026,0,0,0,.09777.10863,0.93133,0.93133,0,0,1,.1706.18347,0.34634,0.34634,0,0,1,.07339.19,0.2102,0.2102,0,0,0,.06768.14863,0.42492,0.42492,0,0,0,.15953.10084,0.94469,0.94469,0,0,1,.21275.10724,1.679,1.679,0,0,0,.23245.12718,0.26525,0.26525,0,0,0,.16462.01342,0.20981,0.20981,0,0,1,.12489-0.00631,0.62912,0.62912,0,0,1,.15215.09978,0.6159,0.6159,0,0,0,.25631.10595,0.39752,0.39752,0,0,1,.24219.15087,0.54567,0.54567,0,0,0,.1692.17c0.0498,0.025.15631,0.08277,0.2367,0.12842l0.00182,0.001a0.39963,0.39963,0,0,0,.13178.0521l0.00092,0.0004c0.08436,0.01411.14816-.14132,0.26725,0.055l0.0006-.00048-0.001.06544-0.00113.07031-0.00118.07-0.05182.12223a0.53555,0.53555,0,0,1-.11627.18614,0.288,0.288,0,0,0-.08316.13667c-0.01788.05789-.03256,0.10986-0.03262,0.1155l-0.00059.05106a0.18328,0.18328,0,0,1,.03111.07964,0.67051,0.67051,0,0,0-.04492.08411,0.16,0.16,0,0,0,.04642.13768c0.03936,0.04582.08745,0.10714,0.10685,0.13626a1.05041,1.05041,0,0,1,.07942.18079,1.1045,1.1045,0,0,0,.07738.17908,0.48982,0.48982,0,0,1,.04873.10205,0.36275,0.36275,0,0,0,.138.12269c0.06735,0.03952.15632,0.09622,0.1977,0.126a0.30424,0.30424,0,0,1,.08512.1999,0.73729,0.73729,0,0,1-.013.21433,1.203,1.203,0,0,0-.03685.15654,1.80718,1.80718,0,0,1-.059.2236A1.34664,1.34664,0,0,0,12.1,16.12222Zm0.07553,1.15237a0.07709,0.07709,0,0,1,.02129-0.02425,0.28343,0.28343,0,0,1,.08471-0.04056,0.37126,0.37126,0,0,0,.11974-0.11046,0.15425,0.15425,0,0,0,.04211-0.15072c-0.0207-.02691-0.01162-0.04013.02018-0.02938a0.07831,0.07831,0,0,0,.07725-0.00616,0.50121,0.50121,0,0,0,.04533-0.099,0.19517,0.19517,0,0,1,.15156-0.08942,0.31485,0.31485,0,0,0,.17969-0.0839,0.13342,0.13342,0,0,0,.039-0.09877,0.61843,0.61843,0,0,1-.02973-0.08547c-0.0081-.02995.02479-0.04519,0.07311-0.03387a0.43215,0.43215,0,0,0,.23563-0.05946l0.01383-.00749c0.12288-.12917.28446-0.30353,0.40626-0.43371a0.507,0.507,0,0,1,.1287-0.24079,0.615,0.615,0,0,1,.17234-0.11275,0.58267,0.58267,0,0,1,.097-0.02368l0.04793-.00159,0.07147-.00243c0.04518-.05291.11559-0.14252,0.15648-0.19914a1.2773,1.2773,0,0,0,.1271-0.24008c0.029-.07543.06473-0.18,0.07936-0.23244a0.65326,0.65326,0,0,1,.1445-0.21508l0.20445-.20772,0.02439-.09938a0.4249,0.4249,0,0,0,.01358-0.1462A0.08638,0.08638,0,0,0,14.84313,14.15a0.2309,0.2309,0,0,1-.13264-0.08,0.44936,0.44936,0,0,0-.21034-0.1089,1.25137,1.25137,0,0,1-.25765-0.09164c-0.06112-.03233-0.14637-0.07466-0.18944-0.09408a0.19542,0.19542,0,0,1-.077-0.04767l0.0065-.062-0.03948-.103a0.39592,0.39592,0,0,0-.15958-0.19984,1.31955,1.31955,0,0,0-.21992-0.06688,0.51344,0.51344,0,0,1-.22671-0.13786c-0.0584-.06265-0.145-0.15734-0.19252-0.21042a0.235,0.235,0,0,0-.222-0.0566,0.42553,0.42553,0,0,1-.22095.00786,1.31422,1.31422,0,0,0-.19721-0.05124,1.84164,1.84164,0,0,1-.21173-0.05152,0.3933,0.3933,0,0,0-.221.01377,0.24213,0.24213,0,0,0-.14117.12417,0.14147,0.14147,0,0,1-.05845.09108,0.17016,0.17016,0,0,1-.114-0.071,0.12357,0.12357,0,0,0-.172.00045,0.16165,0.16165,0,0,1-.21218-0.03236,0.358,0.358,0,0,1-.08934-0.27515,0.21847,0.21847,0,0,0-.05179-0.2048,0.32834,0.32834,0,0,0-.12816-0.04644h-0.025l-0.07511,0-0.07517,0H10.85387l0.10058-.38868a0.09846,0.09846,0,0,0-.11591-0.1357,0.26375,0.26375,0,0,0-.19686.15535,0.22088,0.22088,0,0,1-.17712.14169,0.33635,0.33635,0,0,1-.2314-0.07451,0.63752,0.63752,0,0,1-.13791-0.24983l-0.03067-.11093a0.28559,0.28559,0,0,1,.00159-0.20971,0.16667,0.16667,0,0,0,.0268-0.1358,0.2121,0.2121,0,0,1,.0335-0.15578,0.24749,0.24749,0,0,1,.11295-0.08113,0.09718,0.09718,0,0,0,.06-0.027l0.00055-.06766,0.122,0.01123a0.98278,0.98278,0,0,0,.24648-0.00443c0.04351-.01091.07027-0.035,0.05943-0.05343s0.05425-.03069.1446-0.02713a0.50727,0.50727,0,0,1,.21632.047,0.10932,0.10932,0,0,0,.09781.0203,0.08281,0.08281,0,0,1,.08517.02033,0.36707,0.36707,0,0,1,.05874.15508,0.62056,0.62056,0,0,0,.11066.23032c0.05022,0.06369.09724,0.04552,0.10451-.04038a0.74917,0.74917,0,0,0-.05533-0.30964l-0.00719-.01611a0.25987,0.25987,0,0,1-.00385-0.23341,0.44125,0.44125,0,0,1,.12258-0.10629A0.39439,0.39439,0,0,0,11.717,10.6511a1.79161,1.79161,0,0,1,.13949-0.151,0.55347,0.55347,0,0,0,.11727-0.24082,1.72015,1.72015,0,0,1,.08271-0.27041,0.284,0.284,0,0,1,.13974-0.13945,0.6837,0.6837,0,0,1,.11266-0.03117l0.04124,0.00024a0.169,0.169,0,0,0,.08164-0.00863c0.06742-.04653-0.06452-0.16066-0.0527-0.19853a0.30453,0.30453,0,0,1,.18237-0.1169c0.0885-.02643.16509-0.02027,0.17023,0.0137s0.07369,0.022.15234-.02652L13.029,9.39206a0.236,0.236,0,0,0,.1302-0.16747,0.04852,0.04852,0,0,0-.07861-0.03765,0.19374,0.19374,0,0,1-.17716-0.03227,0.32287,0.32287,0,0,1-.11362-0.10378l-0.00463-.05973L12.77806,8.902l-0.02013-.00153c-0.09218-.007-0.15685-0.0445-0.14373-0.08328A0.198,0.198,0,0,1,12.80532,8.763l0.08294,0.0081A0.60216,0.60216,0,0,0,13.1874,8.714c0.07252-.04041.15675-0.09115,0.18715-0.11277a0.10637,0.10637,0,0,0,.05105-0.07L13.41706,8.47l-0.01312-.09114-0.12549-.10061C13.20633,8.22044,13.08734,8.12708,13.014,8.0708l-0.01119-.00859A0.2212,0.2212,0,0,1,12.89209,7.928a0.29533,0.29533,0,0,0-.06922-0.17261L12.709,7.58085c-0.05049-.07742-0.1052-0.11788-0.12158-0.08991a0.2431,0.2431,0,0,0-.027.11344,0.13647,0.13647,0,0,1-.05711.10365,0.098,0.098,0,0,1-.12192-0.03344,0.50156,0.50156,0,0,1-.0847-0.18764,0.19361,0.19361,0,0,0-.10965-0.13962,0.39866,0.39866,0,0,1-.15756-0.11191,0.16454,0.16454,0,0,0-.12686-0.07123,0.2844,0.2844,0,0,1-.14256-0.021,0.08471,0.08471,0,0,0-.10972.01864,0.11989,0.11989,0,0,0-.00031.09411,0.09626,0.09626,0,0,1,.00353.08032,0.18681,0.18681,0,0,0,.02777.12784,0.11148,0.11148,0,0,1-.01128.13434,0.06968,0.06968,0,0,0-.00045.10548,0.49671,0.49671,0,0,1,.09166.18357,0.24826,0.24826,0,0,1-.07824.22352,0.25019,0.25019,0,0,0-.06683.241,0.32147,0.32147,0,0,1,.01035.19987,0.139,0.139,0,0,1-.08826.06346,0.18888,0.18888,0,0,1-.11461-0.11548,0.74291,0.74291,0,0,1-.068-0.23952,0.139,0.139,0,0,0-.1121-0.13008,0.69759,0.69759,0,0,1-.22611-0.0835c-0.06662-.03945-0.16448-0.09858-0.21745-0.1314a0.23228,0.23228,0,0,0-.14338-0.04364,0.13092,0.13092,0,0,1-.08487-0.11711,0.16025,0.16025,0,0,0-.089-0.12758c-0.02817.00306-.03829-0.06633-0.0225-0.15417a0.58119,0.58119,0,0,1,.1517-0.27428l0.03077-.02866a0.90324,0.90324,0,0,0,.15824-0.1866A0.139,0.139,0,0,1,10.859,6.91126l0.04523,0,0.06781,0.00007c0.03626-.08219.08489-0.18824,0.10809-0.23567a0.20688,0.20688,0,0,1,.14572-0.0989,0.24563,0.24563,0,0,0,.15057-0.07825,0.14533,0.14533,0,0,0-.00249-0.14671,0.08419,0.08419,0,0,1-.01269-0.10169,0.05462,0.05462,0,0,0,.00767-0.07369,0.31979,0.31979,0,0,0-.1283-0.09766c-0.05453-.02448-0.10169-0.02111-0.10478.00749a0.1871,0.1871,0,0,0,.0078.08057,0.07128,0.07128,0,0,1-.0715.05723,0.4595,0.4595,0,0,1-.15628-0.009A0.16582,0.16582,0,0,1,10.79979,6.147a0.21514,0.21514,0,0,1-.04418-0.12446,0.29994,0.29994,0,0,0-.03946-0.14438,0.36412,0.36412,0,0,0-.08749-0.12678,0.13967,0.13967,0,0,0-.09336.09807,0.30354,0.30354,0,0,0-.03982.17049,0.18656,0.18656,0,0,0,.07346.0866,0.13311,0.13311,0,0,1,.05051.11426c-0.00256.04531-.03157,0.06018-0.06449,0.033a0.74886,0.74886,0,0,1-.15733-0.13743C10.37,6.068,10.33638,6.05524,10.323,6.08815a0.23225,0.23225,0,0,1-.07653.09305,0.57821,0.57821,0,0,1-.14317.08477,0.2279,0.2279,0,0,1-.192.0025A0.17857,0.17857,0,0,0,9.76172,6.246a0.09061,0.09061,0,0,0-.08.08919c0.00866,0.03446-.01624.04808-0.05534,0.03027a0.20661,0.20661,0,0,0-.13313-0.01022,0.61419,0.61419,0,0,1-.17091.02067c-0.05989-.00082-0.088-0.01521-0.06253-0.032a0.11594,0.11594,0,0,0,.04934-0.07578,0.06112,0.06112,0,0,0-.0538-0.056,0.80835,0.80835,0,0,1-.15991-0.06323,0.61492,0.61492,0,0,0-.138-0.05532,0.11427,0.11427,0,0,0-.0724.0339,0.14857,0.14857,0,0,0-.06548-0.034C8.79345,6.1,8.74816,6.11566,8.746,6.07121a0.07339,0.07339,0,0,0-.10441-0.05359,2.631,2.631,0,0,0-.24861.08825,0.67962,0.67962,0,0,0-.20242.12292C8.16071,6.26285,8.124,6.27348,8.10913,6.25242A0.42358,0.42358,0,0,0,8.04131,6.1816a0.25564,0.25564,0,0,1-.05767-0.06554,0.07317,0.07317,0,0,0-.08106-0.01394,0.17173,0.17173,0,0,1-.125-0.02079A0.21369,0.21369,0,0,0,7.73934,6.0621,6.08989,6.08989,0,1,1,12.17557,17.27459Z" style="fill:#0073cb"/><path d="M93.18187,9.98959a1.06031,1.06031,0,0,0-1.05872,1.04186,1.05927,1.05927,0,1,0,2.11826,0A1.06071,1.06071,0,0,0,93.18187,9.98959Z" style="fill:#0073cb"/></svg>