<?xml version="1.0" encoding="utf-8"?>
<!-- Generator: Adobe Illustrator 20.1.0, SVG Export Plug-In . SVG Version: 6.00 Build 0)  -->
<svg version="1.1" id="Layer_1" xmlns="http://www.w3.org/2000/svg" xmlns:xlink="http://www.w3.org/1999/xlink" x="0px" y="0px"
	 viewBox="0 0 179.4 27" style="enable-background:new 0 0 179.4 27;" xml:space="preserve">
<style type="text/css">
	.st0{fill:#FFFFFF;}
	.st1{fill:#0073CB;}
</style>
<path class="st0" d="M171.6,11.6c-1,0-2.1,0.3-2.1,0.3c-0.5,0.1-1.2,0.3-1.5,0.4s-0.5,0.3-0.5,0.4s-0.4,0-0.8-0.4c0,0-1-0.8-2.4-0.8
	c-1.3,0-2.1,0.3-2.1,0.3c-0.5,0.2-1.1,0.5-1.3,0.6s-0.4,0.6-0.4,1s-0.1,0.4-0.2-0.2l-0.6-3.3c-0.1-0.5-0.6-1-1.2-1h-1.8
	c-0.6,0-1.1,0.4-1.3,1l-1.1,3.5c-0.2,0.5-0.4,0.5-0.6,0l-1.1-3.5c-0.2-0.5-0.7-1-1.3-1h-1.8c-0.6,0-1.1,0.4-1.2,1l-0.5,2.7
	c-0.1,0.5-0.2,0.6-0.2,0.1s0.1-1.2,0.3-1.6c0,0,0,0,0-0.4c0-1.2-1-2.3-2.3-2.3s-2.3,1-2.3,2.3c0,0.4,0,0.4,0,0.4
	c0.1,0.4,0.3,0.9,0.3,1.3s-0.4,0.3-0.8,0c0,0-1.3-1-3-1c-1.2,0-2.7,0.4-2.7,0.4c-0.5,0.1-1,0.3-1.1,0.3s-0.2,0-0.2-0.1
	s0.1-0.5,0.3-0.8c0,0,0,0,0-0.4c0-1.2-1-2.3-2.3-2.3s-2.3,1-2.3,2.3c0,0.4,0,0.4,0,0.4c0.1,0.4,0.3,1.1,0.3,1.7s-0.1,0.6-0.2,0
	l-0.5-2.9c-0.1-0.5-0.6-1-1.2-1h-1.8c-0.6,0-1.1,0.4-1.3,1l-1.1,3.5c-0.2,0.5-0.4,0.5-0.6,0l-1.1-3.5c-0.2-0.5-0.7-1-1.3-1h-1.8
	c-0.6,0-1.1,0.4-1.2,1l-2,11.1c-0.1,0.5,0.3,1,0.8,1h2.1c0.6,0,1.1-0.4,1.2-1l0.4-2.1c0.1-0.5,0.3-0.6,0.5,0l0.7,2.2
	c0.2,0.5,0.7,1,1.3,1h1.4c0.6,0,1.1-0.4,1.3-1l0.7-2.2c0.2-0.5,0.4-0.5,0.5,0l0.4,2.1c0.1,0.5,0.6,1,1.2,1h0.6c0.6,0,1.3,0,1.7,0
	s1.2,0,1.7,0s1.1,0,1.3,0s0.8,0,1.3,0h1.3c0.6,0,1-0.5,1-1v-4.6c0-0.6,0.2-1,0.3-1c0,0,0,0,0.2,0c0.4,0,0.5,0.1,0.5,0.1c0,0,0,0,0,0
	c0,0,0,0,0,0s0,0.7,0,1.2v4.3c0,0.5,0.4,1,1,1h1.3c0.6,0,1.2,0,1.4,0s0.8,0,1.3,0s1.2,0,1.6,0s1.2,0,1.7,0h0.6c0.6,0,1.1-0.4,1.2-1
	L151,19c0.1-0.5,0.3-0.6,0.5,0l0.7,2.2c0.2,0.5,0.7,1,1.3,1h1.4c0.6,0,1.1-0.4,1.3-1l0.7-2.2c0.2-0.5,0.4-0.5,0.5,0l0.4,2.1
	c0.1,0.5,0.6,1,1.2,1h2.1c0.6,0,1-0.1,1-0.2s0.4-0.1,0.9,0.1c0,0,0.7,0.2,1.9,0.2c0.8,0,1.5-0.1,1.5-0.1c0.5-0.1,1.1-0.2,1.2-0.2
	s0.2,0.4,0.2,1v1.3c0,0.5,0.4,1,1,1h2c0.6,0,1-0.5,1-1v-0.9c0-0.5,0-1,0.1-1c0,0,0,0,0,0c3.3,0,5.5-2.2,5.5-5.4
	C177.2,13.6,175.1,11.6,171.6,11.6z M171.7,18.4C171.6,18.4,171.6,18.4,171.7,18.4c-0.1,0-0.1-0.5-0.1-1v-0.9c0-0.6,0-1,0-1
	c0,0,0,0,0,0c1.4,0,1.6,0.7,1.6,1.4C173.2,18,172.7,18.4,171.7,18.4z"/>
<path class="st0" d="M116.1,7.7h-4.9c-0.6,0-1,0.4-1,1V10c-0.1,0.4,0.1,0.8,0.4,1c0.2,0,0.4,0.2,0.4,0.4c0,0.2-0.4,0.3-1,0.2
	c-0.6-0.1-1.2-0.2-1.8-0.2c-1.4,0.1-2.8,0.6-3.9,1.5c-0.5,0.3-1.1,0.3-1.5-0.1c-0.9-0.8-2.1-1.3-3.4-1.4c-1,0-1.9,0.2-2.9,0.4
	c-0.3,0.1-0.6,0.2-1,0.1c0-0.3,0.1-0.6,0.2-0.8v-0.4c0-1.4-1.2-2.6-2.6-2.5c-1.4,0-2.5,1.1-2.5,2.5v0.4c0.1,0.3,0.2,0.7,0.2,1.1
	c0,0.2-0.4,0.2-0.8-0.1c-0.7-0.4-1.6-0.6-2.4-0.6h-0.2c-0.3-0.2-0.4-0.6-0.3-1V8.5c0-0.6-0.4-1-1-1h-2.7c-0.6,0-1,0.4-1,1v2.1
	c0.1,0.4,0,0.8-0.3,1c-0.3-0.2-0.4-0.6-0.3-0.9c0-0.5-0.5-0.9-1-0.9H78c-0.5,0-1,0.4-1,0.9c0.1,0.4-0.2,0.8-0.6,0.9H75
	c-0.6,0-1,0.4-1.2,0.9l-0.4,1.1c-0.2,0.5-0.5,0.5-0.7,0l-0.4-1.1c-0.2-0.5-0.7-0.9-1.3-0.9h-3.1c-0.6,0-1,0-1,0s-0.4-0.1-1-0.2
	c0,0,0,0-0.6,0c-1,0-2.1,0.2-3,0.5c-0.5,0.1-1.2,0.4-1.4,0.5c-0.3,0.3-0.5,0.7-0.5,1.2v0.7c0,0.6-0.2,0.6-0.4,0.1l-1.7-4.4
	C58,9.3,57.5,9,56.9,9h-2.2c-0.6,0-1.1,0.4-1.4,0.9l-1.4,3.6c-0.1,0.3-0.4,0.5-0.7,0.4c-0.2,0-0.3-0.1-0.4-0.3c0,0-2-2.3-4.6-2.3
	c-0.9,0-1.8,0.2-2.7,0.4c-0.5,0.2-1.2,0.4-1.4,0.5c-0.5,0.1-0.9-0.1-1.3-0.3c-0.7-0.4-1.5-0.6-2.3-0.6c-0.8,0-1.5,0.2-2.3,0.4
	c-0.5,0.2-1.1,0.5-1.3,0.6s-0.4-0.2-0.5-0.8l-0.3-1.6c-0.1-0.6-0.6-1-1.2-1h-2.6c-0.6,0-1.1,0.4-1.3,1l-0.7,2.5
	c-0.2,0.5-0.4,0.5-0.6,0l-0.7-2.5C27,9.4,26.5,9,25.9,9h-2.6c-0.6,0-1.1,0.4-1.2,1l-1.8,11.2c-0.1,0.4,0.2,0.9,0.7,1
	c0.1,0,0.1,0,0.2,0H24c0.6,0,1.1-0.4,1.2-1l0.1-0.7c0.1-0.5,0.3-0.6,0.4,0l0.2,0.8c0.2,0.6,0.7,0.9,1.3,1h1.9c0.6,0,1.1-0.4,1.3-1
	l0.2-0.8c0.2-0.5,0.4-0.5,0.4,0l0.1,0.7c0.1,0.6,0.6,1,1.2,1h2.8c0.3,0.1,0.7,0,1-0.2c0.3-0.1,0.6,0,0.9,0.1
	c0.6,0.1,1.1,0.2,1.7,0.2c0.6,0,1.3-0.1,1.9-0.2c0.4-0.1,0.9,0.2,1,0.6c0,0.1,0,0.1,0,0.2v1.3c0,0.6,0.4,1,1,1h2.7c0.6,0,1-0.4,1-1
	v-0.9c0-0.5,0.3-1,0.8-1.1c0.4,0,1.4-0.3,1.4-0.2c0.3,0.1,0.6,0.2,1,0.1h3.1c0.6,0,1.1-0.4,1.3-0.9l0.2-0.5c0.2-0.5,0.8-0.9,1.3-0.9
	H56c0.6,0,1.1,0.4,1.3,0.9l0.2,0.5c0.2,0.5,0.8,0.9,1.3,0.9H64c0.6,0,1-0.4,1-1h0.3c0,0.6,0.4,1,1,1H69c0.6,0,1-0.4,1-1
	c0.3,0.2,0.4,0.5,0.2,0.8l-0.9,2.4c-0.2,0.3,0,0.7,0.3,0.9c0.1,0.1,0.2,0.1,0.4,0.1h2.9c0.6,0,1.1-0.4,1.4-0.9l2.5-6.5
	c0.2-0.5,0.4-0.6,0.4-0.1c0,0.6,0.2,1.2,0.4,1.7c0,0,1.1,2.9,3.4,2.9c0.6,0,0.6,0,0.6,0c0.5-0.1,1-0.2,1-0.2s0.4,0,1,0h2.7
	c0.6,0,1-0.4,1-1h0.3c0,0.6,0.4,1,1,1h9.8c0.6,0,1-0.4,1-1h0.3c0,0.6,0.4,1,1,1h2c0.6,0,1,0.4,1,1v0.2c0,0.4,0.1,0.9,0.4,1.2
	c0.2,0.1,0.9,0.3,1.4,0.5c0.7,0.2,1.4,0.3,2.2,0.4c3.1,0,4.8-3.9,4.8-3.9c0.2-0.6,0.4-1.3,0.4-1.9v-5.4c0-0.5,0.4-1,0.9-1h3.3
	c0.6,0,1-0.4,1-1V8.7c0-0.6-0.4-1-1-1H116.1L116.1,7.7z"/>
<path class="st0" d="M10.7,1.7c-5.2,0-9.5,4.3-9.5,9.5c0,2.2,1.3,5,4,8.5c1.2,1.5,2.4,3,3.8,4.4c0.9,1,2.5,1,3.5,0.1c0,0,0,0,0,0
	c1.3-1.4,2.6-2.9,3.8-4.5c2.7-3.6,4-6.4,4-8.6C20.2,5.9,16,1.7,10.7,1.7z"/>
<polygon class="st1" points="30.7,10.5 28.3,18.5 25.8,10.5 23.7,10.5 22,20.6 23.8,20.6 25,12.7 27.4,20.6 29.1,20.6 31.5,12.7 
	32.8,20.6 34.5,20.6 32.9,10.5 "/>
<path class="st1" d="M38.6,12.9c-0.9,0-1.7,0.2-2.5,0.6v1.5c0.7-0.4,1.4-0.6,2.2-0.6c0.7-0.1,1.3,0.3,1.4,1c0,0.1,0,0.1,0,0.2v0.6
	H39c-2.2,0-3.5,0.8-3.5,2.3c0,1.7,1.4,2.3,3.4,2.3c0.9,0,1.7-0.1,2.6-0.3v-5C41.5,13.5,40.3,12.9,38.6,12.9z M39.8,19.4
	c-0.3,0.1-0.6,0.1-0.9,0.1c-1,0-1.7-0.3-1.7-1.1c0-0.8,0.8-1.1,1.9-1.1h0.7C39.8,17.3,39.8,19.4,39.8,19.4z"/>
<path class="st1" d="M46.4,12.9c-1,0-2.1,0.2-3.1,0.6v10.2H45v-3.1c0.4,0.1,0.9,0.2,1.4,0.2c2.6,0,4.2-1.5,4.2-4
	C50.5,14.3,48.9,12.9,46.4,12.9z M46.3,19.3c-0.4,0-0.9-0.1-1.3-0.2v-4.5c0.4-0.1,0.9-0.2,1.4-0.2c1.2-0.1,2.3,0.8,2.5,2
	c0,0.1,0,0.3,0,0.4c0.1,1.3-0.8,2.4-2.1,2.5C46.5,19.3,46.4,19.3,46.3,19.3L46.3,19.3z"/>
<path class="st1" d="M54.7,10.5l-3.9,10.1h1.8l0.9-2.4H58l0.9,2.4h1.9l-4-10.1H54.7z M54,16.8l1.7-4.7l1.7,4.7H54z"/>
<path class="st1" d="M65.3,12.9c-1.2,0-2.4,0.2-3.5,0.6v7.1h1.7v-6c0.5-0.2,1.1-0.2,1.6-0.2c0.8-0.1,1.5,0.4,1.6,1.1
	c0,0.1,0,0.2,0,0.4v4.7h1.7v-4.9C68.5,13.6,67.2,12.9,65.3,12.9z"/>
<polygon class="st1" points="73,19 70.9,13 69.1,13 72.2,20.9 71.1,23.7 72.8,23.7 76.9,13 75.1,13 "/>
<path class="st1" d="M80.2,18.1v-3.6h2.2V13h-2.2v-1.8h-1.7V13h-1.1v1.4h1.1v4c-0.1,1.1,0.7,2.2,1.8,2.3c0.2,0,0.3,0,0.5,0
	c0.6,0,1.3-0.1,1.8-0.4v-1.5c-0.4,0.3-0.9,0.4-1.4,0.4c-0.5,0-1-0.4-1.1-0.9C80.2,18.3,80.2,18.2,80.2,18.1z"/>
<path class="st1" d="M87.6,12.9c-0.7,0-1.3,0.1-2,0.4V9h-1.7v11.6h1.7v-5.9c0.5-0.2,1.1-0.3,1.6-0.3c0.8-0.1,1.5,0.4,1.6,1.1
	c0,0.1,0,0.2,0,0.4v4.7h1.7v-4.9C90.5,13.6,89.3,12.9,87.6,12.9z"/>
<path class="st1" d="M93.2,9.7c-0.6,0-1,0.5-1.1,1c0,0.6,0.5,1.1,1,1.1s1.1-0.5,1.1-1c0,0,0,0,0,0C94.2,10.1,93.8,9.7,93.2,9.7z"/>
<rect x="92.3" y="13" class="st1" width="1.7" height="7.6"/>
<path class="st1" d="M99.4,12.9c-1.2,0-2.4,0.2-3.5,0.6v7.1h1.7v-6c0.5-0.2,1.1-0.2,1.6-0.2c0.8-0.1,1.5,0.4,1.6,1.1
	c0,0.1,0,0.2,0,0.4v4.7h1.7v-4.9C102.6,13.6,101.3,12.9,99.4,12.9z"/>
<path class="st1" d="M103.9,16.8c0,2.5,1.7,3.8,4,3.8c0.5,0,1-0.1,1.5-0.3v0.2c0.1,1-0.6,1.9-1.6,2c-0.1,0-0.2,0-0.4,0
	c-0.9,0-1.7-0.2-2.5-0.7v1.6c0.8,0.4,1.6,0.5,2.5,0.5c1.7,0,3.7-0.8,3.7-3.3v-7.2c-0.9-0.4-1.9-0.5-2.9-0.5
	C105.6,12.9,103.9,14.3,103.9,16.8z M109.4,18.9c-0.4,0.2-0.9,0.3-1.3,0.3c-1.2,0.1-2.3-0.8-2.4-2.1c0-0.1,0-0.2,0-0.3
	c-0.1-1.3,0.9-2.3,2.1-2.4c0.2,0,0.3,0,0.5,0c0.4,0,0.8,0.1,1.2,0.2C109.4,14.5,109.4,18.9,109.4,18.9z"/>
<polygon class="st1" points="111.7,9.5 112.5,9.5 112.5,11.6 112.8,11.6 112.8,9.5 113.6,9.5 113.6,9.2 111.7,9.2 "/>
<path class="st1" d="M115.8,9.2l-0.6,1.7c-0.1,0.2-0.1,0.3-0.1,0.4c0-0.1-0.1-0.2-0.1-0.4l-0.6-1.7h-0.5v2.4h0.3v-2l0.7,2h0.3l0.7-2
	v2h0.3V9.2H115.8z"/>
<path class="st1" d="M10.7,3.2c-4.4,0-8,3.6-8,8c0,0,0,0,0,0c0,1.8,1.2,4.4,3.7,7.6c1.1,1.5,2.4,2.9,3.6,4.3
	c0.2,0.2,0.4,0.3,0.7,0.3h0c0.3,0,0.5-0.1,0.7-0.3c1.3-1.4,2.5-2.8,3.6-4.3c2.4-3.2,3.7-5.8,3.7-7.6C18.7,6.8,15.2,3.2,10.7,3.2z
	 M12.1,15.8L12.1,15.8L12.1,15.8l0,0.2l0,0.1L12,16.2c0,0.1-0.1,0.1-0.1,0.2c0,0,0,0.1,0,0.1c0,0.1,0,0.1,0,0.2c0,0.1,0,0.1,0,0.2
	c0,0,0,0.1,0,0.1c0,0,0,0-0.1,0.1l0,0c-3.3,0.5-6.4-1.7-7-5C4.4,10.2,5,8.3,6.2,7c0,0.1,0,0.1,0,0.2l0,0c0,0.1,0,0.1,0,0.2
	c0,0,0,0,0,0c0,0,0,0,0,0c0,0,0,0.1,0,0.1c0,0,0,0,0,0l0,0l0.1,0c0,0.1-0.1,0.1-0.1,0.2l0,0C6,7.9,6,7.9,5.8,8c0,0.1,0.2,0,0.3-0.1
	l0.2-0.1c0.1-0.1,0.1-0.2,0.2-0.2c0-0.1,0.1-0.1,0.1-0.2c0,0,0.1-0.1,0.1-0.1c0,0,0.1,0,0.1-0.1c0,0,0.1,0,0.1-0.1c0,0,0.1,0,0.1,0
	c0,0,0,0,0.1,0.1c0,0,0.1,0,0.1,0c0,0,0.1,0,0.1,0c0,0.1,0.1,0.1,0.1,0.2l0,0.1c0,0.1,0.1,0.2,0.1,0.3l0,0.2c0,0.1,0.1,0.2,0.2,0.2
	c0.1,0,0.1,0.1,0.1,0.1c0,0.1,0,0.1,0,0.2c0,0,0,0.1,0.1,0.1C8,8.7,8,8.8,8,8.8C8,8.9,8,9,8,9.1c0,0.1,0,0.1,0,0.2
	c0,0.1,0,0.1,0,0.2c0,0,0,0.1,0,0.1l0,0.1l0,0.1L8,9.9c0,0.1,0.1,0.2,0.1,0.3c0,0.1,0.1,0.1,0.1,0.2c0,0.1,0.1,0.1,0.1,0.2
	c0,0.1,0.1,0.2,0.1,0.3c0,0.1,0.1,0.2,0.1,0.3l0,0c0.1,0.1,0.1,0.1,0.2,0.2c0.1,0.1,0.1,0,0.1,0c0-0.1-0.1-0.1-0.1-0.2
	c0-0.1-0.1-0.2-0.2-0.3l0,0c0-0.1-0.1-0.1-0.1-0.2c0,0,0.1-0.1,0.1,0c0.1,0,0.1,0.1,0.1,0.1c0,0.1,0.1,0.2,0.1,0.2l0,0
	C8.9,11,9,11.1,9,11.1c0,0,0.1,0.1,0.1,0.1c0.1,0.1,0.1,0.1,0.2,0.2c0,0.1,0.1,0.1,0.1,0.2c0,0.1,0,0.1,0.1,0.1c0,0,0.1,0.1,0.2,0.1
	c0.1,0,0.1,0.1,0.2,0.1C9.9,12,10,12,10,12.1c0.1,0,0.1,0,0.2,0c0,0,0.1,0,0.1,0c0.1,0,0.1,0.1,0.2,0.1c0.1,0.1,0.2,0.1,0.3,0.1
	c0.1,0,0.2,0.1,0.2,0.2c0,0.1,0.1,0.1,0.2,0.2c0,0,0.2,0.1,0.2,0.1l0,0c0,0,0.1,0,0.1,0.1l0,0c0.1,0,0.1-0.1,0.3,0.1l0,0l0,0.1
	l0,0.1l0,0.1l-0.1,0.1c0,0.1-0.1,0.1-0.1,0.2c0,0-0.1,0.1-0.1,0.1c0,0.1,0,0.1,0,0.1l0,0.1c0,0,0,0.1,0,0.1c0,0,0,0.1,0,0.1
	c0,0.1,0,0.1,0,0.1c0,0,0.1,0.1,0.1,0.1c0,0.1,0.1,0.1,0.1,0.2c0,0.1,0,0.1,0.1,0.2c0,0,0,0.1,0,0.1c0,0.1,0.1,0.1,0.1,0.1
	c0.1,0,0.2,0.1,0.2,0.1c0.1,0.1,0.1,0.1,0.1,0.2c0,0.1,0,0.1,0,0.2c0,0.1,0,0.1,0,0.2c0,0.1,0,0.2-0.1,0.2
	C12.1,15.7,12.1,15.7,12.1,15.8z M12.2,17C12.2,16.9,12.2,16.9,12.2,17c0,0,0.1-0.1,0.1-0.1c0,0,0.1-0.1,0.1-0.1c0,0,0.1-0.1,0-0.2
	c0,0,0,0,0,0c0,0,0.1,0,0.1,0c0,0,0-0.1,0-0.1c0-0.1,0.1-0.1,0.2-0.1c0.1,0,0.1,0,0.2-0.1c0,0,0-0.1,0-0.1c0,0,0-0.1,0-0.1
	c0,0,0,0,0.1,0c0.1,0,0.2,0,0.2-0.1l0,0c0.1-0.1,0.3-0.3,0.4-0.4c0-0.1,0.1-0.2,0.1-0.2c0.1,0,0.1-0.1,0.2-0.1c0,0,0.1,0,0.1,0l0,0
	l0.1,0c0-0.1,0.1-0.1,0.2-0.2c0.1-0.1,0.1-0.2,0.1-0.2c0-0.1,0.1-0.2,0.1-0.2c0-0.1,0.1-0.2,0.1-0.2l0.2-0.2l0-0.1c0,0,0-0.1,0-0.1
	c0,0,0-0.1-0.1-0.1c-0.1,0-0.1,0-0.1-0.1c-0.1-0.1-0.1-0.1-0.2-0.1c-0.1,0-0.2-0.1-0.3-0.1c-0.1,0-0.1-0.1-0.2-0.1c0,0-0.1,0-0.1,0
	l0-0.1l0-0.1c0-0.1-0.1-0.2-0.2-0.2c-0.1,0-0.1-0.1-0.2-0.1c-0.1,0-0.2-0.1-0.2-0.1c-0.1-0.1-0.1-0.2-0.2-0.2
	c-0.1-0.1-0.1-0.1-0.2-0.1c-0.1,0-0.1,0-0.2,0c-0.1,0-0.1,0-0.2-0.1c-0.1,0-0.1,0-0.2-0.1c-0.1,0-0.2,0-0.2,0
	c-0.1,0-0.1,0.1-0.1,0.1c0,0,0,0.1-0.1,0.1c0,0-0.1,0-0.1-0.1c0,0-0.1,0-0.2,0c-0.1,0-0.2,0-0.2,0c-0.1-0.1-0.1-0.2-0.1-0.3
	c0-0.1,0-0.1-0.1-0.2c0,0-0.1,0-0.1,0h0H11h-0.1h-0.1l0.1-0.4c0,0,0-0.1,0-0.1c0,0,0,0-0.1,0c-0.1,0-0.2,0.1-0.2,0.2
	c0,0.1-0.1,0.1-0.2,0.1c-0.1,0-0.2,0-0.2-0.1c-0.1-0.1-0.1-0.2-0.1-0.2l0-0.1c0-0.1,0-0.1,0-0.2c0,0,0-0.1,0-0.1c0-0.1,0-0.1,0-0.2
	c0,0,0.1-0.1,0.1-0.1c0,0,0,0,0.1,0l0-0.1l0.1,0c0.1,0,0.2,0,0.2,0c0,0,0.1,0,0.1-0.1s0.1,0,0.1,0c0.1,0,0.1,0,0.2,0
	c0,0,0.1,0,0.1,0c0,0,0.1,0,0.1,0c0,0,0.1,0.1,0.1,0.2c0,0.1,0.1,0.2,0.1,0.2c0.1,0.1,0.1,0,0.1,0c0-0.1,0-0.2-0.1-0.3l0,0
	c0-0.1,0-0.2,0-0.2c0,0,0.1-0.1,0.1-0.1c0,0,0.1-0.1,0.1-0.1c0-0.1,0.1-0.1,0.1-0.2C11.9,10.1,12,10,12,9.9c0-0.1,0-0.2,0.1-0.3
	c0-0.1,0.1-0.1,0.1-0.1c0,0,0.1,0,0.1,0l0,0c0,0,0.1,0,0.1,0c0.1,0-0.1-0.2-0.1-0.2c0-0.1,0.1-0.1,0.2-0.1c0.1,0,0.2,0,0.2,0
	s0.1,0,0.2,0L13,9.1c0.1,0,0.1-0.1,0.1-0.2c0,0,0,0,0,0c0,0,0,0,0,0c-0.1,0-0.1,0-0.2,0c0,0-0.1-0.1-0.1-0.1l0-0.1l0-0.1l0,0
	c-0.1,0-0.2,0-0.1-0.1c0-0.1,0.1-0.1,0.2-0.1l0.1,0c0.1,0,0.2,0,0.3-0.1c0.1,0,0.2-0.1,0.2-0.1c0,0,0,0,0.1-0.1l0-0.1l0-0.1L13.3,8
	c-0.1-0.1-0.2-0.2-0.3-0.2l0,0c-0.1,0-0.1-0.1-0.1-0.1c0-0.1,0-0.1-0.1-0.2l-0.1-0.2c-0.1-0.1-0.1-0.1-0.1-0.1c0,0,0,0.1,0,0.1
	c0,0,0,0.1-0.1,0.1c0,0-0.1,0-0.1,0c0-0.1-0.1-0.1-0.1-0.2c0-0.1-0.1-0.1-0.1-0.1C12.1,7,12.1,7,12,6.9c0,0-0.1-0.1-0.1-0.1
	c0,0-0.1,0-0.1,0c0,0-0.1,0-0.1,0c0,0,0,0.1,0,0.1c0,0,0,0.1,0,0.1c0,0,0,0.1,0,0.1c0,0,0,0.1,0,0.1c0,0,0,0.1,0,0.1c0,0,0,0,0,0
	c0,0.1,0.1,0.1,0.1,0.2c0,0.1,0,0.2-0.1,0.2c-0.1,0.1-0.1,0.2-0.1,0.2c0,0.1,0,0.1,0,0.2c0,0-0.1,0.1-0.1,0.1
	c-0.1,0-0.1-0.1-0.1-0.1c0-0.1-0.1-0.2-0.1-0.2c0-0.1,0-0.1-0.1-0.1c-0.1,0-0.2,0-0.2-0.1c-0.1,0-0.2-0.1-0.2-0.1c0,0-0.1,0-0.1,0
	c0,0-0.1-0.1-0.1-0.1c0-0.1,0-0.1-0.1-0.1c0,0,0-0.1,0-0.2c0-0.1,0.1-0.2,0.2-0.3l0,0c0.1-0.1,0.1-0.1,0.2-0.2c0,0,0-0.1,0.1-0.1h0
	l0.1,0c0-0.1,0.1-0.2,0.1-0.2c0-0.1,0.1-0.1,0.1-0.1c0.1,0,0.1,0,0.2-0.1c0,0,0-0.1,0-0.1c0,0,0-0.1,0-0.1c0,0,0-0.1,0-0.1
	c0,0-0.1-0.1-0.1-0.1c-0.1,0-0.1,0-0.1,0c0,0,0,0.1,0,0.1c0,0,0,0.1-0.1,0.1c-0.1,0-0.1,0-0.2,0c0,0-0.1,0-0.1-0.1c0,0,0-0.1,0-0.1
	c0-0.1,0-0.1,0-0.1c0,0,0-0.1-0.1-0.1c0,0-0.1,0.1-0.1,0.1c0,0.1,0,0.1,0,0.2c0,0,0,0.1,0.1,0.1c0,0,0.1,0.1,0.1,0.1
	c0,0,0,0.1-0.1,0c-0.1,0-0.1-0.1-0.2-0.1c0,0-0.1-0.1-0.1,0c0,0,0,0.1-0.1,0.1c0,0-0.1,0.1-0.1,0.1C10,6,10,6,9.9,5.9
	c0,0-0.1,0-0.1,0c0,0-0.1,0-0.1,0.1c0,0,0,0-0.1,0c0,0-0.1,0-0.1,0c-0.1,0-0.1,0-0.2,0c-0.1,0-0.1,0-0.1,0c0,0,0,0,0-0.1
	c0,0,0-0.1-0.1-0.1c-0.1,0-0.1,0-0.2-0.1c0,0-0.1,0-0.1-0.1c0,0-0.1,0-0.1,0c0,0,0,0-0.1,0c0,0-0.1,0-0.1,0c0,0,0-0.1-0.1-0.1
	c0,0,0,0,0,0c-0.1,0-0.2,0.1-0.2,0.1c-0.1,0-0.1,0.1-0.2,0.1c0,0-0.1,0-0.1,0c0,0,0,0-0.1-0.1c0,0,0,0-0.1-0.1c0,0-0.1,0-0.1,0
	c0,0-0.1,0-0.1,0c0,0,0,0,0,0C10.7,4.1,14.4,5.1,16,8s0.6,6.6-2.3,8.3C13.3,16.6,12.7,16.8,12.2,17L12.2,17z"/>
<path class="st1" d="M93.2,9.7c-0.6,0-1,0.5-1.1,1c0,0.6,0.5,1.1,1,1.1s1.1-0.5,1.1-1c0,0,0,0,0,0C94.2,10.1,93.8,9.7,93.2,9.7z"/>
<g>
	<path class="st1" d="M125.2,20.6l-2.8-9.1l-1.5,9.1h-1l1.8-10.1h1.4l2.8,9l2.8-9h1.4l1.8,10.1h-1.1l-1.5-9.1l-2.8,9.1H125.2z"/>
	<path class="st1" d="M133.4,10.9c0-0.4,0.4-0.8,0.8-0.8c0.4,0,0.8,0.3,0.8,0.8c0,0.4-0.3,0.8-0.8,0.8
		C133.7,11.7,133.4,11.3,133.4,10.9z M134.7,20.6h-1v-7.4h1V20.6z"/>
	<path class="st1" d="M137,13.6c1-0.4,2.1-0.6,3.1-0.6c1.9,0,3,0.7,3,2.6v5h-1v-4.8c0-1.5-1.1-1.8-2.1-1.8c-0.8,0-1.5,0.1-2,0.3v6.4
		h-1V13.6z"/>
	<path class="st1" d="M145.1,10.9c0-0.4,0.4-0.8,0.8-0.8c0.4,0,0.8,0.3,0.8,0.8c0,0.4-0.3,0.8-0.8,0.8
		C145.5,11.7,145.1,11.3,145.1,10.9z M146.4,20.6h-1v-7.4h1V20.6z"/>
	<path class="st1" d="M153.5,20.6l-2.8-9.1l-1.5,9.1h-1l1.8-10.1h1.4l2.8,9l2.8-9h1.4l1.8,10.1H159l-1.5-9.1l-2.8,9.1H153.5z"/>
	<path class="st1" d="M165.7,15.5c0-1-0.6-1.4-1.6-1.4c-0.8,0-1.5,0.2-2.2,0.6v-1c0.6-0.3,1.4-0.6,2.3-0.6c1.5,0,2.5,0.7,2.5,2.3
		v5.1c-0.7,0.2-1.5,0.3-2.1,0.3c-2,0-3.3-0.6-3.3-2.2c0-1.5,1.3-2.2,3.6-2.2h0.8V15.5z M165.7,17.2H165c-1.5,0-2.7,0.4-2.7,1.4
		s1,1.3,2.4,1.3c0.3,0,0.7,0,1-0.1V17.2z"/>
	<path class="st1" d="M169,13.5c0.7-0.3,1.6-0.5,2.6-0.5c2.5,0,4.1,1.3,4.1,3.9c0,2.4-1.6,3.9-4,3.9c-0.6,0-1.2-0.1-1.6-0.3v3.2h-1
		V13.5z M170,19.6c0.5,0.2,1,0.3,1.6,0.3c1.8,0,3-1.1,3-3c0-1.8-1.1-2.9-3.1-2.9c-0.6,0-1.2,0.1-1.6,0.2V19.6z"/>
</g>
</svg>
