<svg id="Layer_1" data-name="Layer 1" xmlns="http://www.w3.org/2000/svg" xmlns:xlink="http://www.w3.org/1999/xlink" viewBox="0 0 26 42"><defs><style>.cls-1{fill:#fff;}.cls-2{fill:#f44336;}.cls-3{fill:url(#linear-gradient);}.cls-4{opacity:0.7;isolation:isolate;fill:url(#linear-gradient-2);}.cls-5{opacity:0.6;}.cls-6{fill:url(#linear-gradient-3);}</style><linearGradient id="linear-gradient" x1="12.99" y1="1.51" x2="12.99" y2="23.9" gradientUnits="userSpaceOnUse"><stop offset="0.19" stop-color="#fff" stop-opacity="0.25"/><stop offset="0.92" stop-color="#fff" stop-opacity="0"/></linearGradient><linearGradient id="linear-gradient-2" x1="9.85" y1="242.72" x2="16.15" y2="242.72" gradientTransform="translate(0 -230)" gradientUnits="userSpaceOnUse"><stop offset="0"/><stop offset="1"/></linearGradient><linearGradient id="linear-gradient-3" x1="1.99" y1="-18.97" x2="23.99" y2="-18.97" gradientTransform="matrix(1, 0, 0, -1, 0, 2)" xlink:href="#linear-gradient-2"/></defs><title>Artboard 1</title><path class="cls-1" d="M14.74,40.94H11.25v-1c0-9.38-3.73-14.92-6.19-18.58l-.79-1.12A13.67,13.67,0,0,1,1.5,12.62a11.5,11.5,0,1,1,23,0,13.68,13.68,0,0,1-2.78,7.63l-.78,1.17c-2.47,3.67-6.19,9.19-6.19,18.58v.95Zm-2.48-1h1.48c0-9.67,3.84-15.34,6.37-19.09l.79-1.17a12.75,12.75,0,0,0,2.6-7.07,10.5,10.5,0,1,0-21,0,12.74,12.74,0,0,0,2.6,7.07l.79,1.17c2.53,3.76,6.35,9.42,6.36,19.09Z"/><path class="cls-2" d="M13,1.51A11.06,11.06,0,0,0,2,12.62a13.21,13.21,0,0,0,2.7,7.32l.79,1.17C8,24.83,11.75,30.44,11.75,40v.45h2.48V40c0-9.54,3.78-15.15,6.28-18.86l.79-1.17A13.21,13.21,0,0,0,24,12.62,11.06,11.06,0,0,0,13,1.51Z"/><path class="cls-3" d="M13,1.51A11.06,11.06,0,0,0,2,12.62a13.21,13.21,0,0,0,2.7,7.32l.79,1.17c2.51,3.72,12.53,3.72,15,0l.79-1.17A13.21,13.21,0,0,0,24,12.62,11.06,11.06,0,0,0,13,1.51Z"/><ellipse class="cls-4" cx="13" cy="12.72" rx="3.15" ry="3.18"/><g class="cls-5"><path class="cls-6" d="M14.24,40.43H11.75V40c0-9.54-3.78-15.15-6.28-18.86l-.78-1.18A13.21,13.21,0,0,1,2,12.62a11,11,0,1,1,22,0,13.21,13.21,0,0,1-2.69,7.33l-.79,1.17C18,24.83,14.24,30.44,14.24,40Zm-2-.51h1.48c0-9.67,3.84-15.33,6.37-19.09l.79-1.17a12.75,12.75,0,0,0,2.6-7.07,10.5,10.5,0,1,0-21,0,12.74,12.74,0,0,0,2.6,7.07l.81,1.17c2.53,3.76,6.35,9.42,6.36,19.09Z"/></g></svg>