<svg xmlns="http://www.w3.org/2000/svg" viewBox="0 0 24 24">
    <path fill="#d9d9d9" d="M17,2.94V2.06C17,0.92,16.08,0,14.94,0H9.06C7.92,0,7,0.92,7,2.06v0.88C7,2.97,6.97,3,6.94,3H2.06
		C2.03,3,2,3.03,2,3.06v1.88C2,4.97,2.03,5,2.06,5H9h6h6.94C21.97,5,22,4.97,22,4.94V3.06C22,3.03,21.97,3,21.94,3h-4.88
		C17.03,3,17,2.97,17,2.94z M15.44,3H8.56C8.53,3,8.5,2.97,8.5,2.94V2.06c0-0.31,0.25-0.56,0.56-0.56h5.88
		c0.31,0,0.56,0.25,0.56,0.56v0.88C15.5,2.97,15.47,3,15.44,3z M3,21.94C3,23.08,3.92,24,5.06,24h13.88c1.14,0,2.06-0.92,2.06-2.06
		V7.06C21,7.03,20.97,7,20.94,7H3.06C3.03,7,3,7.03,3,7.06V21.94z M17.06,9h1.88C18.97,9,19,9.03,19,9.06v12.88
		c0,0.03-0.03,0.06-0.06,0.06h-1.88C17.03,22,17,21.97,17,21.94V9.06C17,9.03,17.03,9,17.06,9z M13.06,9h1.88
		C14.97,9,15,9.03,15,9.06v12.88c0,0.03-0.03,0.06-0.06,0.06h-1.88C13.03,22,13,21.97,13,21.94V9.06C13,9.03,13.03,9,13.06,9z
		 M9.06,9h1.88C10.97,9,11,9.03,11,9.06v12.88c0,0.03-0.03,0.06-0.06,0.06H9.06C9.03,22,9,21.97,9,21.94V9.06C9,9.03,9.03,9,9.06,9z
		 M5.06,9h1.88C6.97,9,7,9.03,7,9.06v12.88C7,21.97,6.97,22,6.94,22H5.06C5.03,22,5,21.97,5,21.94V9.06C5,9.03,5.03,9,5.06,9z"/>
</svg>
