<svg id="d64a57ba-5e3e-4b79-8d40-74f40d1f6032" data-name="Layer 1" xmlns="http://www.w3.org/2000/svg" viewBox="0 0 78 78"><title>guide-icon-white</title><path d="M59.28534,49.22507a1.32969,1.32969,0,0,0-1.88047,1.88047L58.969,52.66823h-8.1016a1.33166,1.33166,0,0,0-1.3299,1.3292v3.9655a1.32955,1.32955,0,1,0,2.6591,0V55.328H58.969l-1.56408,1.56269a1.32972,1.32972,0,1,0,1.88047,1.88054l3.83282-3.83289a1.333,1.333,0,0,0,0-1.88047Z" style="fill:#fff"/><path d="M55.57481,33.0011A21.99945,21.99945,0,1,0,77.575,55.00055,22.02468,22.02468,0,0,0,55.57481,33.0011ZM69.13417,56.80844,57.38291,68.55978a2.56418,2.56418,0,0,1-3.61578,0L42.01579,56.80844a2.56435,2.56435,0,0,1,0-3.61585L53.76712,41.44133a2.56418,2.56418,0,0,1,3.61578,0L69.13417,53.19259A2.56423,2.56423,0,0,1,69.13417,56.80844Z" style="fill:#fff"/><rect x="18.29902" y="44.74282" width="8.48917" height="8.48917" rx="1.41488" ry="1.41488" style="fill:#fff"/><path d="M19.7139,30.59418h5.6594a1.41488,1.41488,0,0,1,1.41488,1.41488v5.65947a1.41481,1.41481,0,0,1-1.41481,1.41481H19.7139A1.41488,1.41488,0,0,1,18.299,37.66847v-5.6594a1.41488,1.41488,0,0,1,1.41488-1.41488Z" style="fill:#fff"/><path d="M34.75738,39.08335a26.4364,26.4364,0,0,1,6.17943-5.85391V32.00907a1.33674,1.33674,0,0,0-1.41488-1.41488H33.86246a1.33665,1.33665,0,0,0-1.41481,1.41488v5.65947a1.33666,1.33666,0,0,0,1.41481,1.41481Z" style="fill:#fff"/><path d="M13.57093,60.66a1.48816,1.48816,0,0,1-1.48649-1.48649V22.49747H61.3V29.4047a25.99477,25.99477,0,0,1,5.65947,1.9863V12.931a7.14594,7.14594,0,0,0-7.14588-7.146h-5.8809v6.06224a5.65943,5.65943,0,1,1-11.31886,0V5.785H30.77048v6.06224a5.65943,5.65943,0,1,1-11.31886,0V5.785H13.57093A7.14589,7.14589,0,0,0,6.425,12.931V59.17353a7.14589,7.14589,0,0,0,7.14588,7.146H31.93361A25.9936,25.9936,0,0,1,29.96216,60.66Z" style="fill:#fff"/><path d="M25.1115,14.67607a2.82985,2.82985,0,0,0,2.8297-2.82977V3.8297a2.82973,2.82973,0,0,0-5.65947,0v8.01661A2.82991,2.82991,0,0,0,25.1115,14.67607Z" style="fill:#fff"/><path d="M48.273,14.67607a2.82985,2.82985,0,0,0,2.8297-2.82977V3.8297a2.82973,2.82973,0,0,0-5.65947,0v8.01661A2.82987,2.82987,0,0,0,48.273,14.67607Z" style="fill:#fff"/></svg>