<svg xmlns="http://www.w3.org/2000/svg" width="133" height="133" viewBox="0 0 133 133">
  <g fill="none">
    <path fill="#DDDBDA" d="M108.216,0 L99.9,0 L99.9,3.325 L108.212,3.325 L108.212,0 L108.216,0 Z M93.254,0 L84.942,0 L84.942,3.325 L93.254,3.325 L93.254,0 Z M78.292,0 L69.98,0 L69.98,3.325 L78.292,3.325 L78.292,0 Z M63.33,0 L55.017,0 L55.017,3.325 L63.33,3.325 L63.33,0 Z M48.368,0 L40.055,0 L40.055,3.325 L48.368,3.325 L48.368,0 Z M33.405,0 L25.093,0 L25.093,3.325 L33.405,3.325 L33.405,0 Z M18.511,0.8 C17.6039927,1.03662389 16.7112113,1.32475793 15.837,1.663 L15.732,1.704 L15.627,1.746 L15.527,1.788 L15.5,1.8 L15.483,1.807 L15.43,1.829 L15.414,1.835 L15.398,1.842 L15.381,1.849 L15.329,1.871 L15.313,1.878 L15.297,1.885 L15.281,1.892 L15.229,1.914 L15.212,1.921 L15.197,1.927 L15.182,1.933 L15.166,1.94 L15.132,1.955 L15.117,1.962 L15.103,1.968 L15.089,1.974 L15,2.006 L14.986,2.012 L14.972,2.018 L14.957,2.025 L14.906,2.048 L14.891,2.055 L14.878,2.061 L14.864,2.067 L14.813,2.089 L14.797,2.096 L14.783,2.103 L14.768,2.109 L14.701,2.14 L14.685,2.147 L14.67,2.154 L14.602,2.185 L14.586,2.193 L14.571,2.2 L14.504,2.231 L14.488,2.238 L14.473,2.245 L14.388,2.284 L14.371,2.292 L14.354,2.3 L14.286,2.332 L14.27,2.34 L14.254,2.348 L14.186,2.38 L14.17,2.388 L14.154,2.395 L14.086,2.428 L14.071,2.436 L14.056,2.444 L13.972,2.485 L13.955,2.493 L13.855,2.542 L13.555,2.694 C12.6640423,3.14394672 11.8008305,3.64684694 10.97,4.2 L12.826,6.959 C14.8192421,5.61775146 17.0250337,4.62338707 19.35,4.018 L18.511,0.8 Z M6.01,8.6 L6,8.619 L5.992,8.629 L5.984,8.638 L5.974,8.649 L5.963,8.662 L5.954,8.672 L5.954,8.677 L5.924,8.7 L5.917,8.708 L5.9,8.73 L5.9,8.736 L5.894,8.744 L5.894,8.749 L5.886,8.759 L5.877,8.771 L5.872,8.776 L5.866,8.784 L5.846,8.8 L5.84,8.8 L5.84,8.806 L5.834,8.813 L5.834,8.82 L5.828,8.827 L5.828,8.833 L5.821,8.84 L5.821,8.847 L5.814,8.855 L5.806,8.865 L5.8,8.873 L5.794,8.879 L5.788,8.886 L5.788,8.892 L5.757,8.9 L5.751,8.907 L5.751,8.913 L5.745,8.92 L5.745,8.927 L5.739,8.934 L5.733,8.941 L5.733,8.947 L5.723,8.96 L5.7,8.967 L5.7,8.974 L5.7,8.981 L5.694,8.987 L5.694,8.994 L5.674,9 L5.669,9.007 L5.669,9.013 L5.662,9.02 L5.662,9.026 L5.655,9.034 L5.655,9.041 L5.645,9.052 L5.639,9.06 L5.633,9.067 L5.633,9.073 L5.627,9.08 L5.627,9.087 L5.627,9.093 L5.621,9.1 L5.615,9.107 L5.615,9.113 L5.609,9.121 L5.609,9.126 L5.596,9.141 L5.596,9.147 L5.59,9.154 L5.59,9.16 L5.584,9.167 L5.584,9.174 L5.584,9.18 L5.578,9.187 L5.578,9.194 L5.51,9.2 L5.51,9.206 L5.504,9.214 L5.504,9.22 L5.496,9.229 L5.49,9.238 L5.482,9.246 L5.477,9.253 L5.471,9.26 L5.471,9.266 L5.465,9.274 L5.465,9.28 L5.459,9.288 L5.459,9.293 L5.452,9.301 L5.452,9.308 L5.446,9.316 L5.446,9.321 L5.435,9.334 L5.428,9.343 L5.428,9.349 L5.421,9.356 L5.421,9.363 L5.415,9.371 L5.408,9.38 L5.408,9.385 L5.4,9.394 L5.392,9.404 L5.392,9.409 L5.382,9.421 L5.376,9.429 L5.37,9.436 L5.37,9.443 L5.364,9.45 L5.364,9.456 L5.364,9.464 L5.358,9.471 L5.358,9.477 L5.352,9.485 L5.347,9.491 L5.337,9.504 L5.337,9.509 L5.33,9.518 L5.33,9.524 L5.324,9.532 L5.324,9.538 L5.318,9.545 L5.318,9.552 L5.312,9.56 L5.2,9.6 L5.195,9.605 L5.187,9.615 L5.176,9.629 L5.176,9.634 L5.169,9.642 L5.169,9.648 L5.163,9.656 L5.163,9.662 L5.157,9.67 L5.157,9.676 L5.151,9.684 L5.151,9.69 L5.144,9.699 L5.144,9.704 L5.136,9.715 L5.13,9.722 L5.123,9.731 L5.123,9.737 L5.116,9.745 L5.116,9.751 L5.109,9.76 L5.109,9.765 L5.103,9.774 L5.103,9.779 L5.096,9.788 L5.086,9.801 L5.075,9.815 L5.067,9.825 L5.067,9.831 L5,9.849 L4.993,9.858 L4.993,9.863 L4.986,9.873 L4.979,9.883 L4.979,9.888 L4.958,9.915 L4.958,9.92 L4.951,9.93 L4.951,9.935 L4.945,9.943 L4.945,9.95 L4.939,9.958 L4.932,9.968 L4.892,10 L4.881,10.015 L4.871,10.029 L4.863,10.039 L4.863,10.044 L4.856,10.053 L4.849,10.063 L4.849,10.068 L4.842,10.078 L4.832,10.091 L4.8,10.12 L4.792,10.132 L4.792,10.137 L4.785,10.147 L4.785,10.152 L4.779,10.161 L4.772,10.171 L4.764,10.182 L4.743,10.211 L4.735,10.223 L4.727,10.234 L4.72,10.245 L4.712,10.256 L4.692,10.285 L4.683,10.298 L4.675,10.309 L4.667,10.32 L4.66,10.33 L4.651,10.343 L4.63,10.372 L4.622,10.383 L4.615,10.393 L4.608,10.404 L4.599,10.416 L4.589,10.43 L4.579,10.445 L4.57,10.459 L4.562,10.471 L4.554,10.482 L4.554,10.487 L4.547,10.497 L4.538,10.51 L4.517,10.54 L4.508,10.553 L4.499,10.565 L4.491,10.577 L4.483,10.589 L4.452,10.633 L4.444,10.646 L4.436,10.658 L4.428,10.67 L4.419,10.683 L4.398,10.713 L4.388,10.728 L4.38,10.741 L4.372,10.753 L4.363,10.765 L4.353,10.78 L4.332,10.81 L4.324,10.821 L4.316,10.832 L4.307,10.844 L4.298,10.858 L4.267,10.904 L4.258,10.918 L4.25,10.931 L4.24,10.945 L4.199,11.007 L4.19,11.021 L4.181,11.034 L4.171,11.049 L4.14,11.095 L4.13,11.11 L4.12,11.124 L4,11.284 L3.959,11.346 L3.951,11.36 L3.943,11.373 L3.934,11.388 L3.903,11.435 L3.894,11.451 L3.885,11.465 L3.876,11.48 L3.837,11.542 L3.828,11.557 L3.819,11.571 L3.77,11.649 L3.761,11.663 L3.752,11.677 L3.703,11.756 L3.694,11.771 L3.684,11.785 L3.645,11.848 L3.637,11.862 L3.628,11.877 L3.59,11.94 L3.58,11.955 L3.55,12 L3.541,12.015 L3.504,12.078 L3.496,12.092 L3.488,12.106 L3.479,12.12 L3.451,12.168 L3.442,12.183 L3.435,12.195 L3.427,12.207 L3.418,12.222 L3.39,12.27 L3.382,12.284 L3.375,12.297 L3.366,12.31 L3.338,12.359 L3.329,12.374 L3.321,12.388 L3.314,12.401 L3.307,12.415 L3.28,12.462 L3.272,12.475 L3.265,12.487 L3.258,12.5 L3.25,12.514 L3.232,12.546 L3.225,12.559 L3.219,12.571 L3.213,12.583 L3.207,12.594 L3.198,12.609 L3.189,12.625 L3.183,12.637 L3.183,12.643 L3.177,12.653 L3.177,12.658 L3.171,12.669 L3.171,12.674 L3.165,12.685 L3.165,12.69 L3.1,12.77 L3.083,12.801 L3.083,12.806 L3.077,12.817 L3.077,12.822 L3.077,12.832 L3.077,12.838 L3.071,12.848 L3.065,12.859 L3.059,12.87 L3.051,12.885 L3.051,12.89 L3.045,12.9 L3.045,12.907 L3.045,12.916 L3.045,12.923 L3.045,12.931 L3.045,12.939 L3.045,12.946 L3.045,12.954 L3.045,12.961 L3.04,12.97 L3.04,12.976 L3.03,12.993 L3.03,12.999 L3.03,13.008 L3.03,13.014 L3.03,13.023 L3.03,13.03 L3.03,13.038 L3.03,13.046 L3.03,13.054 L3.03,13.061 L3.03,13.069 L3.03,13.075 L3.03,13.085 L3.019,13.107 L3.019,13.113 L3.019,13.122 L3.019,13.129 L3.019,13.137 L3.019,13.144 L3.019,13.153 L3.019,13.159 L3.019,13.168 L3.019,13.174 L3.019,13.184 L2.999,13.222 L2.993,13.233 L2.987,13.244 L2.987,13.249 L2.987,13.259 L2.987,13.264 L2.981,13.274 L2.954,13.326 L2.948,13.338 L2.942,13.349 L2.935,13.361 L2.899,13.431 L2.892,13.444 L2.885,13.458 L2.841,13.544 C2.497,14.222 2.184,14.9173333 1.902,15.63 L4.818,16.9 C5.70128948,14.6635538 6.9555573,12.5921525 8.528,10.773 L6.01,8.6 Z M0.142,22.118 C0.0833333333,22.666 0.0426666667,23.2183333 0.02,23.775 C0.02,23.875 0.013,23.975 0.01,24.067 L0.01,24.361 L0,24.361 L0,24.403 L0,24.781 L0,30.423 L3.325,30.423 L3.325,24.784 C3.32482857,24.0116936 3.36588699,23.2399288 3.448,22.472 L0.142,22.118 Z M3.325,37.076 L0,37.076 L0,45.388 L3.325,45.388 L3.325,37.076 Z M3.325,52.038 L0,52.038 L0,60.35 L3.325,60.35 L3.325,52.038 Z M3.325,67 L0,67 L0,75.312 L3.325,75.312 L3.325,67 Z M3.325,81.962 L0,81.962 L0,90.274 L3.325,90.274 L3.325,81.962 Z M3.325,96.924 L0,96.924 L0,105.237 L3.325,105.237 L3.325,96.924 Z M3.557,111.387 L0.268,111.873 C0.389793802,112.695297 0.552664179,113.510984 0.756,114.317 L0.756,114.335 L0.775,114.408 L0.775,114.425 L0.78,114.441 L0.794,114.496 L0.794,114.513 L0.794,114.528 L0.794,114.542 L0.799,114.559 L0.808,114.595 L0.808,114.61 L0.808,114.624 L0.808,114.638 L0.808,114.656 L0.817,114.692 L0.817,114.706 L0.817,114.719 L0.817,114.732 L0.827,114.768 L0.827,114.784 L0.827,114.796 L0.827,114.802 L0.827,114.814 L0.827,114.828 L0.827,114.845 L0.832,114.863 L0.832,114.877 L0.832,114.89 L0.832,114.902 L0.832,114.908 L0.832,114.92 L0.842,114.955 L0.842,114.967 L0.842,114.973 L0.842,114.984 L0.842,114.991 L0.842,115.002 L0.842,115.008 L0.842,115.02 L0.847,115.037 L0.847,115.051 L0.847,115.058 L0.847,115.069 L0.847,115.075 L0.847,115.086 L0.847,115.092 L0.847,115.104 L0.847,115.118 L0.847,115.135 L0.847,115.147 L0.847,115.154 L0.847,115.164 L0.847,115.171 L0.847,115.181 L0.847,115.189 L0.847,115.199 L0.847,115.205 L0.847,115.218 L0.847,115.235 L0.847,115.242 L0.847,115.252 L0.847,115.26 L0.847,115.269 L0.847,115.276 L0.847,115.286 L0.847,115.294 L0.847,115.304 L0.847,115.311 L0.847,115.324 L0.847,115.33 L0.852,115.345 L0.852,115.356 L0.852,115.364 L0.852,115.373 L0.852,115.381 L0.852,115.39 L0.852,115.398 L0.852,115.409 L0.852,115.415 L0.852,115.43 L0.852,115.437 L0.852,115.448 L0.852,115.456 L0.852,115.465 L0.852,115.473 L0.852,115.482 L0.852,115.49 L0.852,115.499 L0.852,115.507 L0.852,115.517 L0.852,115.524 L0.852,115.54 L0.852,115.547 L0.852,115.557 L0.852,115.564 L0.852,115.574 L0.852,115.581 L0.852,115.591 L0.852,115.598 L0.852,115.608 L0.852,115.615 L0.852,115.627 L0.852,115.644 L0.852,115.65 L0.852,115.661 L0.852,115.668 L0.852,115.678 L0.852,115.685 L0.852,115.695 L0.852,115.702 L0.852,115.713 L0.852,115.719 L0.852,115.732 L0.852,115.748 L0.852,115.755 L0.852,115.765 L0.852,115.772 L0.852,115.782 L0.852,115.789 L0.852,115.8 L0.852,115.806 L0.852,115.818 L0.852,115.823 L0.864,115.857 L0.864,115.862 L0.864,115.873 L0.864,115.88 L0.864,115.891 L0.864,115.897 L0.864,115.908 L0.864,115.914 L0.869,115.927 L0.875,115.944 L0.88,115.959 L0.88,115.966 L0.88,115.976 L0.88,115.983 L0.88,115.993 L0.88,116 L0.88,116.011 L0.88,116.017 L0.88,116.029 L0.886,116.046 L0.886,116.06 L0.886,116.072 L0.886,116.084 L0.886,116.089 L0.886,116.102 L0.892,116.119 L0.898,116.136 L0.898,116.15 L0.898,116.162 L0.898,116.175 L0.903,116.188 L0.915,116.223 L0.915,116.237 L0.915,116.25 L0.915,116.263 L0.915,116.278 L0.927,116.313 L0.932,116.328 L0.932,116.34 L0.932,116.353 L0.95,116.405 L0.956,116.419 L0.956,116.433 L0.956,116.448 L0.975,116.5 L0.975,116.514 L0.975,116.528 L1.001,116.598 L1.007,116.615 L1.014,116.632 L1.047,116.721 C1.40635037,117.674975 1.82448538,118.60576 2.299,119.508 L5.242,117.96 C4.12311565,115.83496 3.37216621,113.53579 3.021,111.16 L3.557,111.387 Z M9.107,122.87 L6.678,125.141 C6.868,125.341 7.06166667,125.541 7.259,125.741 C7.373,125.855 7.488,125.967 7.604,126.079 L7.617,126.091 L7.698,126.168 L7.711,126.18 C7.737,126.206 7.764,126.231 7.791,126.256 L7.804,126.268 L7.885,126.344 L7.898,126.356 L7.979,126.431 L7.992,126.444 L8,126.444 L8.055,126.494 L8.068,126.506 L8.081,126.517 L8.094,126.528 L8.149,126.578 L8.163,126.59 L8.176,126.602 L8.189,126.614 L8.23,126.651 L8.243,126.663 L8.255,126.675 L8.268,126.686 L8.281,126.698 L8.322,126.735 L8.335,126.747 L8.347,126.758 L8.359,126.769 L8.414,126.818 L8.427,126.829 L8.439,126.84 L8.45,126.85 L8.463,126.862 L8.504,126.898 L8.515,126.908 L8.526,126.918 L8.537,126.928 L8.579,126.964 L8.62,127 L8.631,127.009 L8.643,127.019 L8.655,127.029 L8.696,127.064 L8.708,127.074 L8.72,127.084 L8.732,127.094 L8.744,127.105 L8.785,127.14 L8.797,127.15 L8.808,127.16 L8.82,127.169 L8.832,127.179 L8.874,127.214 L8.886,127.223 L8.898,127.232 L8.91,127.242 L8.923,127.253 L8.951,127.277 L8.962,127.287 L8.972,127.295 L8.977,127.295 L8.986,127.302 L8.996,127.31 L9.008,127.32 L9.022,127.332 L9.035,127.343 L9.046,127.352 L9.056,127.36 L9.066,127.368 L9.076,127.377 L9.09,127.388 L9.104,127.4 L9.118,127.411 L9.129,127.419 L9.139,127.428 L9.15,127.436 L9.161,127.445 L9.19,127.468 L9.203,127.479 L9.214,127.488 L9.224,127.497 L9.235,127.506 L9.247,127.516 L9.275,127.539 L9.288,127.549 L9.299,127.557 L9.308,127.565 L9.313,127.565 L9.323,127.573 L9.334,127.582 L9.361,127.604 L9.366,127.604 L9.376,127.611 L9.385,127.618 L9.391,127.618 L9.4,127.625 L9.411,127.633 L9.424,127.643 L9.438,127.655 L9.451,127.666 L9.461,127.674 L9.47,127.681 L9.475,127.681 L9.484,127.688 L9.489,127.688 L9.5,127.696 L9.513,127.706 L9.527,127.717 L9.539,127.727 L9.549,127.735 L9.558,127.742 L9.563,127.742 L9.573,127.75 L9.584,127.759 L9.612,127.78 L9.623,127.788 L9.628,127.788 L9.638,127.796 L9.648,127.804 L9.657,127.811 L9.667,127.819 L9.695,127.841 L9.705,127.848 L9.714,127.855 L9.72,127.855 L9.728,127.861 L9.734,127.866 L9.742,127.872 L9.748,127.872 L9.757,127.878 L9.771,127.888 L9.782,127.896 L9.787,127.896 L9.796,127.902 L9.802,127.902 L9.81,127.909 L9.816,127.909 L9.824,127.915 L9.83,127.915 L9.839,127.921 L9.85,127.929 L9.864,127.94 L9.87,127.94 L9.878,127.946 L9.884,127.946 L9.892,127.953 L9.898,127.953 L9.907,127.959 L9.913,127.959 L9.921,127.966 L9.927,127.966 L9.936,127.973 L9.948,127.982 L9.962,127.993 L9.968,127.993 L9.976,127.999 L9.983,127.999 L9.99,127.999 L9.997,127.999 L10.005,128.005 L10.011,128.005 L10.019,128.011 L10.025,128.016 L10.033,128.022 L10.039,128.022 L10.052,128.031 L10.066,128.041 L10.073,128.041 L10.08,128.041 L10.087,128.047 L10.094,128.047 L10.102,128.053 L10.109,128.053 L10.116,128.058 L10.123,128.058 L10.13,128.058 L10.138,128.064 L10.144,128.064 L10.156,128.073 L10.163,128.073 L10.172,128.08 L10.178,128.08 L10.186,128.08 L10.193,128.08 L10.2,128.08 L10.208,128.086 L10.214,128.086 L10.222,128.092 L10.228,128.092 L10.236,128.098 L10.242,128.098 L10.25,128.104 L10.264,128.113 L10.27,128.113 L10.278,128.113 L10.285,128.119 L10.292,128.119 L10.299,128.125 L10.306,128.125 L10.313,128.125 L10.321,128.125 L10.328,128.125 L10.335,128.125 L10.342,128.125 L10.35,128.13 L10.356,128.13 L10.37,128.139 L10.376,128.139 L10.384,128.144 L10.392,128.144 L10.399,128.144 L10.406,128.144 L10.413,128.144 L10.42,128.144 L10.427,128.149 L10.435,128.155 L10.441,128.155 L10.449,128.155 L10.455,128.155 L10.472,128.167 L10.477,128.167 L10.484,128.167 L10.491,128.167 L10.499,128.173 L10.506,128.173 L10.513,128.173 L10.52,128.173 L10.528,128.179 L10.534,128.179 L10.542,128.185 L10.548,128.185 L10.556,128.19 L10.564,128.19 L10.577,128.2 L10.584,128.2 L10.592,128.206 L10.598,128.206 L10.606,128.212 L10.613,128.212 L10.621,128.218 L10.627,128.218 L10.635,128.223 L10.641,128.223 L10.65,128.229 L10.66,128.236 L10.684,128.252 L10.695,128.26 L10.705,128.267 L10.71,128.267 L10.719,128.273 L10.724,128.273 L10.733,128.28 L10.743,128.286 L10.776,128.308 L10.782,128.308 L10.791,128.314 L10.796,128.314 L10.805,128.32 L10.814,128.327 L10.819,128.327 L10.828,128.333 L10.834,128.333 L10.843,128.34 L10.877,128.362 L10.886,128.369 L10.891,128.369 L10.901,128.375 L10.911,128.382 L10.922,128.389 L10.959,128.414 L10.969,128.421 L10.978,128.427 L10.983,128.427 L10.992,128.433 L10.998,128.433 L11.007,128.439 L11.017,128.445 L11.055,128.47 L11.065,128.477 L11.074,128.483 L11.079,128.483 L11.089,128.489 L11.099,128.496 L11.11,128.503 L11.147,128.527 L11.156,128.533 L11.162,128.533 L11.171,128.533 L11.176,128.533 L11.185,128.539 L11.191,128.539 L11.2,128.545 L11.211,128.551 L11.247,128.573 L11.257,128.579 L11.262,128.579 L11.271,128.585 L11.281,128.592 L11.291,128.599 L11.341,128.63 L11.351,128.637 L11.361,128.643 L11.371,128.649 L11.382,128.656 L11.433,128.688 L11.443,128.695 L11.454,128.702 L11.466,128.709 L11.477,128.716 L11.53,128.748 L11.541,128.755 L11.546,128.755 L11.556,128.761 L11.568,128.768 L11.635,128.809 L11.646,128.816 L11.657,128.823 L11.669,128.83 L11.723,128.862 L11.735,128.87 L11.746,128.877 L11.757,128.884 L11.77,128.891 L11.825,128.924 L11.838,128.931 L11.85,128.937 L11.861,128.944 L11.873,128.951 L11.927,128.983 L11.939,128.99 L11.95,128.996 L11.961,129.003 L11.974,129.011 L12.029,129.043 L12.042,129.051 L12.055,129.058 L12.067,129.066 L12.137,129.106 L12.15,129.114 L12.163,129.121 L12.246,129.168 L12.259,129.175 L12.272,129.182 L12.355,129.229 L12.369,129.237 L12.382,129.244 L12.466,129.29 L12.479,129.298 L12.493,129.306 L12.593,129.36 L12.608,129.368 L12.694,129.414 L12.708,129.421 L12.793,129.467 L12.807,129.475 L12.82,129.482 L12.834,129.489 L14.383,126.547 C12.2528952,125.426711 10.3260906,123.956593 8.683,122.198 L9.107,122.87 Z M20.192,129.183 L19.484,132.432 C19.75,132.49 20.019,132.544 20.284,132.593 L20.302,132.593 L20.321,132.593 L20.339,132.593 L20.356,132.593 L20.374,132.593 L20.392,132.593 L20.41,132.593 L20.428,132.593 L20.508,132.607 L20.526,132.607 L20.541,132.607 L20.548,132.607 L20.561,132.607 L20.6,132.607 L20.612,132.607 L20.62,132.607 L20.631,132.607 L20.64,132.607 L20.651,132.607 L20.66,132.607 L20.671,132.607 L20.68,132.607 L20.69,132.607 L20.699,132.607 L20.711,132.607 L20.719,132.607 L20.73,132.607 L20.739,132.607 L20.749,132.607 L20.759,132.607 L20.768,132.607 L20.779,132.607 L20.785,132.607 L20.799,132.607 L20.835,132.612 L20.848,132.612 L20.854,132.612 L20.867,132.612 L20.874,132.612 L20.887,132.612 L20.9,132.612 L20.913,132.612 L20.92,132.612 L20.933,132.612 L20.94,132.612 L20.953,132.612 L20.96,132.612 L20.972,132.612 L20.979,132.612 L20.992,132.612 L20.999,132.612 L21.011,132.612 L21.019,132.612 L21.032,132.612 L21.038,132.612 L21.051,132.612 L21.057,132.612 L21.072,132.612 L21.088,132.612 L21.221,132.632 L21.239,132.632 L21.256,132.632 L21.272,132.632 L21.288,132.632 L21.304,132.632 L21.32,132.632 L21.337,132.632 L21.354,132.632 L21.547,132.657 L21.565,132.657 L21.583,132.657 L21.6,132.657 L21.617,132.657 L21.634,132.657 L21.652,132.657 L21.671,132.657 L21.884,132.682 L21.903,132.682 L21.921,132.682 L21.939,132.682 L21.958,132.682 L22.192,132.707 L22.211,132.707 L22.23,132.707 L22.248,132.707 L22.266,132.707 L22.285,132.707 L22.518,132.729 L22.537,132.729 L22.6,132.729 L22.618,132.729 L22.636,132.729 L22.658,132.729 L22.858,132.745 L22.876,132.745 L22.9,132.745 L22.916,132.745 L23.037,132.745 L23.191,132.756 L23.391,132.756 L23.491,132.761 L23.75,132.761 L23.808,132.761 L27.759,132.761 L27.759,129.436 L24.784,129.436 C23.2401307,129.436923 21.70063,129.271977 20.192,128.944 L20.192,129.183 Z M42.718,129.675 L34.406,129.675 L34.406,133 L42.718,133 L42.718,129.675 Z M57.68,129.675 L49.368,129.675 L49.368,133 L57.68,133 L57.68,129.675 Z M72.642,129.675 L64.33,129.675 L64.33,133 L72.642,133 L72.642,129.675 Z M87.604,129.675 L79.292,129.675 L79.292,133 L87.6,133 L87.6,129.675 L87.604,129.675 Z M102.566,129.675 L94.254,129.675 L94.254,133 L102.566,133 L102.566,129.675 Z M116.092,128.185 C113.855548,129.066911 111.486252,129.564909 109.084,129.658 L109.216,132.98 C111.992419,132.873116 114.730882,132.298376 117.316,131.28 L116.096,128.187 L116.092,128.185 Z M126.034,120.185 C124.690882,122.182042 123.022417,123.939744 121.098,125.385 L123.098,128.042 C125.107946,126.530249 126.877634,124.723137 128.347,122.682 L128.412,122.59 L128.422,122.578 L128.487,122.486 L128.495,122.474 L128.503,122.463 L128.549,122.397 L128.558,122.385 L128.566,122.373 L128.575,122.361 L128.621,122.295 L128.629,122.283 L128.637,122.272 L128.645,122.262 L128.689,122.198 L128.696,122.187 L128.703,122.176 L128.71,122.165 L128.754,122.101 L128.761,122.09 L128.768,122.08 L126.01,120.224 L126.034,120.185 Z M133,107.914 L129.675,107.914 L129.675,108.214 C129.677584,110.531452 129.304409,112.833993 128.57,115.032 L131.723,116.087 L131.731,116.063 L131.731,116.052 L131.731,116.047 L131.731,116.036 L131.731,116.024 L131.744,115.985 L131.744,115.979 L131.744,115.969 L131.744,115.958 L131.757,115.92 L131.757,115.909 L131.757,115.904 L131.757,115.893 L131.769,115.857 L131.769,115.851 L131.769,115.841 L131.769,115.835 L131.769,115.825 L131.781,115.788 L131.781,115.777 L131.781,115.766 L131.792,115.729 L131.792,115.724 L131.792,115.713 L131.792,115.702 L131.792,115.691 L131.798,115.67 L131.798,115.664 L131.798,115.654 L131.798,115.648 L131.798,115.637 L131.798,115.632 L131.798,115.621 L131.805,115.601 L131.805,115.595 L131.805,115.585 L131.805,115.579 L131.805,115.569 L131.805,115.562 L131.805,115.552 L131.805,115.547 L131.811,115.527 L131.811,115.517 L131.811,115.51 L131.811,115.5 L131.811,115.494 L131.811,115.484 L131.811,115.478 L131.811,115.461 L131.811,115.453 L131.811,115.444 L131.811,115.437 L131.811,115.428 L131.811,115.42 L131.811,115.411 L131.811,115.403 L131.811,115.388 L131.811,115.38 L131.811,115.371 L131.811,115.364 L131.811,115.354 L131.811,115.347 L131.811,115.338 L131.811,115.33 L131.811,115.314 L131.811,115.307 L131.811,115.298 L131.811,115.29 L131.811,115.282 L131.811,115.273 L131.811,115.265 L131.811,115.256 L131.811,115.248 L131.811,115.233 L131.811,115.227 L131.811,115.216 L131.811,115.208 L131.811,115.199 L131.811,115.192 L131.811,115.182 L131.811,115.175 L131.811,115.159 L131.811,115.152 L131.811,115.143 L131.811,115.135 L131.811,115.126 L131.811,115.118 L131.811,115.108 L131.811,115.102 L131.811,115.086 L131.811,115.078 L131.811,115.069 L131.811,115.061 L131.811,115.053 L131.811,115.044 L131.811,115.035 L131.811,115.028 L131.811,115.012 L131.811,115.006 L131.811,114.995 L131.811,114.988 L131.811,114.978 L131.811,114.971 L131.811,114.961 L131.811,114.954 L131.811,114.939 L131.811,114.933 L131.811,114.921 L131.811,114.914 L131.811,114.904 L131.811,114.897 L131.811,114.887 L131.811,114.88 L131.811,114.864 L131.811,114.851 L131.811,114.844 L131.811,114.834 L131.811,114.827 L131.811,114.817 L131.811,114.81 L131.811,114.797 L131.811,114.79 L131.811,114.777 L131.811,114.77 L131.811,114.76 L131.811,114.753 L131.811,114.743 L131.811,114.736 L131.811,114.723 L131.811,114.707 L131.811,114.7 L131.811,114.69 L131.811,114.683 L131.811,114.673 L131.811,114.666 L131.811,114.654 L131.811,114.649 L131.816,114.633 L131.816,114.626 L131.816,114.616 L131.816,114.609 L131.816,114.599 L131.816,114.592 L131.816,114.58 L131.816,114.5 L131.816,114.484 L131.816,114.477 L131.816,114.467 L131.816,114.46 L131.816,114.449 L131.816,114.443 L131.816,114.432 L131.816,114.425 L131.816,114.41 L131.816,114.402 L131.816,114.392 L131.816,114.385 L131.816,114.375 L131.816,114.368 L131.816,114.357 L131.816,114.351 L131.816,114.335 L131.816,114.33 L131.816,114.317 L131.816,114.311 L131.816,114.3 L131.816,114.294 L131.816,114.282 L131.816,114.277 L131.816,114.26 L131.816,114.247 L131.816,114.241 L131.816,114.229 L131.816,114.224 L131.816,114.21 L131.816,114.192 L131.816,114.177 L131.816,114.165 L131.816,114.159 L131.816,114.146 L131.816,114.129 L131.816,114.114 L131.816,114.102 L131.816,114.096 L131.816,114.084 L131.816,114.068 L131.816,114.052 L131.816,114.039 L131.816,114.026 L131.824,113.992 L131.824,113.979 L131.824,113.966 L131.824,113.952 L131.824,113.935 L131.824,113.922 L131.824,113.909 L131.824,113.895 L131.824,113.878 L131.824,113.873 L131.824,113.86 L131.824,113.855 L131.824,113.842 L131.824,113.837 L131.824,113.823 L131.824,113.805 L131.824,113.789 L131.824,113.7 L131.824,113.687 L131.824,113.673 L131.824,113.656 L131.824,113.642 L131.824,113.636 L131.824,113.624 L131.824,113.61 L131.824,113.593 L131.824,113.578 L131.824,113.573 L131.824,113.561 L131.824,113.555 L131.824,113.543 L131.824,113.525 L131.824,113.509 L131.824,113.504 L131.824,113.491 L131.824,113.486 L131.824,113.473 L131.832,113.438 L131.832,113.426 L131.832,113.42 L131.832,113.408 L131.84,113.373 L131.84,113.36 L131.84,113.355 L131.84,113.342 L131.84,113.337 L131.848,113.302 L131.848,113.288 L131.848,113.276 L131.848,113.27 L131.848,113.256 L131.848,113.238 L131.848,113.233 L131.848,113.221 L131.848,113.215 L131.848,113.203 L131.848,113.197 L131.848,113.181 L131.848,113.164 L131.848,113.159 L131.848,113.146 L131.848,113.14 L131.848,113.129 L131.848,113.122 L131.848,113.108 L131.848,113.09 L131.848,113.076 L131.848,113.063 L131.848,113.048 L131.848,113.031 L131.848,113.017 L131.848,113.004 L131.848,112.998 L131.848,112.985 L131.848,112.967 L131.848,112.952 L131.848,112.939 L131.848,112.923 L131.854,112.887 L131.854,112.873 L131.854,112.858 L131.86,112.822 L131.86,112.808 L131.86,112.795 L131.866,112.76 L131.866,112.746 L131.866,112.6 L131.866,112.588 L131.872,112.552 L131.872,112.538 L131.872,112.523 L131.878,112.486 L131.878,112.471 L131.878,112.466 L131.878,112.452 L131.885,112.416 L131.885,112.4 L131.885,112.385 L131.885,112.367 L131.885,112.348 L131.885,112.333 L131.885,112.319 L131.885,112.302 L131.885,112.283 L131.885,112.267 L131.885,112.253 L131.885,112.238 L131.885,112.22 L131.885,112.204 L131.885,112.191 L131.885,112.176 L131.885,112.14 L131.885,112.135 L131.885,112.122 L131.885,112.108 L131.885,112.072 L131.885,112.067 L131.885,112.055 L131.885,112.048 L131.885,112.036 L131.885,112.031 L131.885,111.995 L131.885,111.99 L131.885,111.977 L131.885,111.972 L131.885,111.958 L131.885,111.922 L131.885,111.909 L131.885,111.895 L131.885,111.858 L131.885,111.843 L131.885,111.829 L131.885,111.824 L131.885,111.788 L131.885,111.774 L131.885,111.751 L131.885,111.735 L131.885,111.717 L131.885,111.703 L131.885,111.689 L131.885,111.684 L131.885,111.669 L131.885,111.65 L131.885,111.634 L131.885,111.611 L131.885,111.595 L131.885,111.576 L131.885,111.56 L131.885,111.555 L131.885,111.542 L131.885,111.536 L131.885,111.521 L131.885,111.503 L131.885,111.488 L131.885,111.465 L131.885,111.45 L131.885,111.413 L131.885,111.399 L131.885,111.376 L131.885,111.358 L131.885,111.34 L131.885,111.317 L131.885,111.303 L131.885,111.267 L131.885,111.254 L131.885,111.1 L131.885,111.087 L131.885,111.071 L131.885,111.053 L131.885,111.039 L131.885,111.033 L131.885,111.019 L131.885,111.003 L131.885,110.985 L131.885,110.943 L131.885,110.928 L131.885,110.909 L131.885,110.894 L131.885,110.888 L131.885,110.875 L131.885,110.86 L131.885,110.841 L131.885,110.826 L131.885,110.813 L131.885,110.799 L131.885,110.794 L131.885,110.776 L131.885,110.761 L131.885,110.748 L131.885,110.742 L131.885,110.729 L131.885,110.711 L131.885,110.632 L131.885,110.615 L131.885,110.609 L131.885,110.596 L131.885,110.59 L131.885,110.577 L131.885,110.572 L131.885,110.536 L131.885,110.512 L131.885,110.499 L131.885,110.462 L131.885,110.42 L131.885,110.383 L131.885,110.342 L131.885,110.305 L131.885,110.246 L131.885,110.227 L131.885,110.204 L131.885,110.19 L131.885,110.1 L131.885,110.081 L131.885,110.002 L131.885,109.985 L131.885,109.924 L131.885,109.846 L131.885,109.786 L131.885,109.749 L131.885,109.707 L131.885,109.67 L131.885,109.61 L131.885,109.274 L131.885,109.134 L131.885,109.098 L131.885,109.036 L131.885,108.8 L131.885,108.22 L131.885,107.92 L133,107.914 Z M133,92.952 L129.675,92.952 L129.675,101.265 L133,101.265 L133,92.952 Z M133,77.99 L129.675,77.99 L129.675,86.3 L133,86.3 L133,77.99 Z M133,63.028 L129.675,63.028 L129.675,71.34 L133,71.34 L133,63.028 Z M133,48.066 L129.675,48.066 L129.675,56.378 L133,56.378 L133,48.066 Z M133,33.1 L129.675,33.1 L129.675,41.412 L133,41.412 L133,33.1 Z M132.121,18.216 L128.915,19.094 C129.420619,20.9469902 129.676217,22.8592653 129.675,24.78 L129.675,26.45 L133,26.45 L133,24.66 L133,24.581 L133,23.41 L133,23.372 L133,23.333 L133,23.294 L133,23.272 L133,23.254 L133,23.215 L133,23.19 L133,23.173 L133,23.152 L133,23.116 L133,23.08 L133,23.045 L133,23.01 L133,22.988 L133,22.967 L133,22.932 L133,22.915 L133,22.893 L133,22.876 L133,22.854 L133,22.836 L133,22.798 L133,22.7 L133,22.684 L133,22.667 L133,22.567 L133,22.55 L133,22.489 L133,22.472 L133,22.457 L133,22.441 L133,22.358 L133,22.345 L133,22.329 L133,22.316 L133,22.311 L133,22.295 L133,22.29 L133,22.277 L133,22.261 L133,22.248 L133,22.232 L133,22.227 L133,22.214 L133,22.198 L133,22.185 L133,22.169 L133,22.156 L133,22.151 L133,22.135 L133,22.091 L133,22.078 L133,22.062 L133,22.057 L133,22.044 L133,22.027 L133,22.005 L133,21.989 L133,21.983 L133,21.97 L133,21.954 L133,21.931 L133,21.915 L133,21.901 L133,21.885 L133,21.862 L133,21.846 L133,21.824 L133,21.808 L133,21.802 L133,21.789 L133,21.763 L133,21.75 L133,21.734 L133,21.729 L133,21.716 L133,21.71 L133,21.695 L133,21.681 L133,21.665 L133,21.65 L133,21.633 L133,21.617 L133,21.6 L133,21.585 L133,21.569 L133,21.552 L133,21.535 L133,21.53 L133,21.515 L133,21.5 L133,21.485 L133,21.471 L133,21.457 L133,21.45 L133,21.438 L133,21.3 L133,21.284 L133,21.271 L133,21.265 L133,21.251 L133,21.245 L133,21.232 L133,21.217 L133,21.2 L133,21.188 L133,21.18 L133,21.166 L133,21.159 L133,21.147 L133,21.131 L133,21.118 L133,21.1 L133,21.086 L133,21.062 L133,21.046 L133,21.034 L133,21.028 L133,21.013 L133,21.001 L133,20.995 L133,20.979 L133,20.966 L133,20.95 L133,20.945 L133,20.932 L133,20.916 L133,20.89 L133,20.879 L133,20.873 L133,20.857 L133,20.845 L133,20.828 L133,20.814 L133,20.799 L133,20.786 L133,20.781 L133,20.765 L133,20.76 L133,20.748 L133,20.72 L133,20.704 L133,20.691 L133,20.674 L133,20.66 L133,20.643 L133,20.629 L133,20.612 L133,20.598 L133,20.582 L133,20.569 L133,20.553 L133,20.548 L133,20.535 L133,20.519 L133,20.47 L133,20.457 L133,20.442 L133,20.437 L133,20.423 L133,20.407 L133,20.401 L133,20.389 L133,20.373 L133,20.36 L133,20.344 L133,20.331 L133,20.315 L133,20.302 L133,20.286 L133,20.272 L133,20.255 L133,20.24 L133,20.224 L133,20.219 L133,20.205 L133,20.189 L133,20.184 L133,20.17 L133,20.154 L133,20.148 L133,20.135 L133,20.119 L133,20.114 L133,20.1 L133,20.083 L133,20.068 L133,20.051 L133,20.036 L133,20.02 L133,20.015 L133,20 L133,19.984 L133,19.9 L133,19.884 L133,19.868 L133,19.863 L133,19.848 L133,19.832 L132.993,19.8 L132.993,19.794 L132.993,19.779 L132.993,19.763 L132.993,19.746 L132.993,19.73 L132.993,19.725 L132.993,19.709 L132.993,19.693 L132.993,19.676 L132.993,19.66 L132.993,19.643 L132.993,19.626 L132.993,19.608 L132.993,19.592 L132.993,19.575 L132.993,19.56 L132.993,19.543 L132.993,19.528 L132.993,19.512 L132.993,19.497 L132.993,19.48 L132.993,19.462 L132.993,19.444 L132.993,19.427 L132.993,19.41 L132.993,19.394 L132.985,19.359 L132.985,19.342 L132.985,19.325 L132.985,19.307 L132.985,19.289 L132.977,19.254 L132.977,19.236 L132.977,19.219 L132.969,19.182 L132.969,19.163 L132.969,19.145 L132.96,19.108 L132.938,19.015 L132.924,18.96 L132.924,18.942 L132.924,18.923 L132.924,18.905 C132.872667,18.6996667 132.819333,18.4956667 132.764,18.293 L132.121,18.216 Z M124.167,5.816 L122.026,8.359 C123.8678,9.90774488 125.436886,11.7543447 126.668,13.822 L129.525,12.122 C129.269,11.692 129.000667,11.271 128.72,10.859 L128.712,10.847 L128.704,10.835 L128.669,10.784 L128.662,10.773 L128.655,10.763 L128.648,10.753 L128.641,10.742 L128.633,10.731 L128.608,10.695 L128.602,10.686 L128.602,10.681 L128.596,10.672 L128.596,10.666 L128.59,10.658 L128.59,10.652 L128.584,10.644 L128.584,10.637 L128.579,10.63 L128.573,10.622 L128.566,10.612 L128.559,10.602 L128.559,10.595 L128.554,10.588 L128.554,10.58 L128.554,10.573 L128.554,10.567 L128.554,10.558 L128.554,10.552 L128.548,10.544 L128.548,10.538 L128.542,10.529 L128.542,10.524 L128.522,10.495 L128.514,10.485 L128.514,10.48 L128.507,10.47 L128.507,10.465 L128.501,10.455 L128.494,10.444 L128.463,10.4 L128.453,10.386 L128.444,10.374 L128.435,10.361 L128.425,10.347 L128.381,10.287 L128.371,10.273 L128.36,10.258 C127.176211,8.6309982 125.799496,7.15354797 124.26,5.858 L124.167,5.816 Z M110.581,0.116 L110.268,3.427 C112.660118,3.64985514 114.99719,4.27638788 117.18,5.28 L118.57,2.26 L118.544,2.248 L118.533,2.248 L118.522,2.248 L118.511,2.243 L118.472,2.226 L118.462,2.226 L118.452,2.226 L118.446,2.226 L118.436,2.226 L118.431,2.226 L118.421,2.226 L118.416,2.226 L118.397,2.217 L118.39,2.217 L118.382,2.217 L118.374,2.217 L118.367,2.217 L118.358,2.217 L118.351,2.217 L118.342,2.217 L118.335,2.217 L118.324,2.217 L118.308,2.21 L118.302,2.21 L118.292,2.21 L118.286,2.21 L118.276,2.21 L118.269,2.21 L118.259,2.205 L118.253,2.205 L118.242,2.205 L118.21,2.19 L118.198,2.184 L118.192,2.184 L118.181,2.184 L118.169,2.178 L118.119,2.156 L118.105,2.15 L118.091,2.143 L118.074,2.136 L118.023,2.114 L118.008,2.107 L117.992,2.1 L117.923,2.071 C115.897783,1.21523993 113.767242,0.634091572 111.588,0.343 L111.512,0.333 L111.493,0.333 L111.475,0.333 L111.399,0.323 L111.382,0.323 L111.364,0.323 L111.306,0.316 L111.288,0.316 L111.271,0.316 L111.214,0.31 L111.196,0.31 L111.179,0.31 L111.162,0.31 L111.105,0.303 L111.089,0.303 L111.074,0.303 L111.057,0.303 L111.019,0.298 L111.003,0.298 L110.989,0.298 L110.974,0.298 L110.936,0.298 L110.918,0.298 L110.904,0.298 L110.898,0.298 L110.885,0.298 L110.879,0.298 L110.866,0.298 L110.861,0.298 L110.824,0.298 L110.81,0.298 L110.804,0.298 L110.791,0.298 L110.749,0.298 L110.711,0.298 L110.697,0.298 L110.581,0.116 Z"/>
    <path fill="#C9C7C5" d="M66.5,86.614 C63.4587603,86.6152843 60.5434486,87.8286387 58.3993579,89.9854918 C56.2552671,92.142345 55.0592355,95.0648062 55.076,98.106 C55.076,106.106 63.276,118.2 65.761,120.081 C66.1966261,120.417365 66.8043739,120.417365 67.24,120.081 C69.793,118.132 77.925,106.103 77.925,98.106 C77.9414974,95.0647138 76.7452424,92.1422559 74.6009932,89.9854321 C72.4567439,87.8286082 69.5413307,86.6152857 66.5,86.614 Z M66.5,102.877 C64.5427162,102.877 62.778178,101.697907 62.0292514,99.8895741 C61.2803247,98.0812409 61.6945123,95.9998223 63.078664,94.6159567 C64.4628157,93.2320911 66.5443198,92.8183337 68.3524981,93.567634 C70.1606765,94.3169344 71.3394045,96.0817162 71.339,98.039 C71.3269503,100.706336 69.1673388,102.865502 66.5,102.877 Z"/>
    <path fill="#DDDBDA" d="M89.4,17.811 C93.818278,17.811 97.4,21.392722 97.4,25.811 L97.4,61.411 C97.4,65.829278 93.818278,69.411 89.4,69.411 L76.647,69.411 L66.5,79.561 L56.353,69.414 L43.6,69.414 C39.181722,69.414 35.6,65.832278 35.6,61.414 L35.6,25.814 C35.6,21.395722 39.181722,17.814 43.6,17.814 L89.4,17.814 L89.4,17.811 Z M89.4,14.503 L43.6,14.503 C37.3549704,14.5085077 32.2928198,19.5679742 32.284,25.813 L32.284,61.413 C32.291717,67.6589692 37.354029,72.7199391 43.6,72.726 L54.982,72.726 L64.158,81.9 L66.5,84.244 L68.842,81.9 L78.018,72.724 L89.4,72.724 C95.6451893,72.7162851 100.705837,67.65519 100.713,61.41 L100.713,25.81 C100.704184,19.566144 95.6438581,14.5071605 89.4,14.5 L89.4,14.503 Z"/>
    <path fill="#C9C7C5" d="M85.4,42.082 L69.02,25.706 C67.6260458,24.3205012 65.3749542,24.3205012 63.981,25.706 L47.6,42.082 C46.2150475,43.4761795 46.2150475,45.7268205 47.6,47.121 L63.981,63.5 C65.3745027,64.886593 67.6264973,64.886593 69.02,63.5 L85.4,47.121 C86.7860457,45.7272714 86.7860457,43.4757286 85.4,42.082 Z M76.737,44.235 L71.395,49.577 C70.8223669,50.1266168 69.9152898,50.1172062 69.3541829,49.5558271 C68.7930761,48.994448 68.7841054,48.0873664 69.334,47.515 L72.186,44.662 L61.4,44.662 L61.4,48.731 C61.413879,49.2608169 61.1391565,49.7564372 60.6824951,50.0254334 C60.2258337,50.2944295 59.6591663,50.2944295 59.2025049,50.0254334 C58.7458435,49.7564372 58.471121,49.2608169 58.485,48.731 L58.485,43.2 C58.485,42.3947688 59.1377688,41.742 59.943,41.742 L72.182,41.742 L69.33,38.894 C68.7801054,38.3216336 68.7890761,37.414552 69.3501829,36.8531729 C69.9112898,36.2917938 70.8183669,36.2823832 71.391,36.832 L76.733,42.174 C77.3017691,42.7432786 77.3017691,43.6657214 76.733,44.235 L76.737,44.235 Z"/>
  </g>
</svg>
