<?xml version="1.0" encoding="UTF-8"?>
<svg width="26px" height="26px" viewBox="0 0 26 26" version="1.1" xmlns="http://www.w3.org/2000/svg" xmlns:xlink="http://www.w3.org/1999/xlink">
    <!-- Generator: Sketch 50.2 (55047) - http://www.bohemiancoding.com/sketch -->
    <title>icons / BroadCasts / BroadCast_26</title>
    <desc>Created with Sketch.</desc>
    <defs></defs>
    <g id="icons-/-BroadCasts-/-BroadCast_26" stroke="none" stroke-width="1" fill="none" fill-rule="evenodd">
        <g>
            <rect id="ico_range" fill-opacity="0" fill="#D0021B" x="0" y="0" width="26" height="26"></rect>
            <path d="M25.5844156,4.32467532 C25.8441571,4.46320416 25.9826839,4.67965221 26,4.97402597 L26,20.7142857 C26,20.8181823 25.9567104,20.9350643 25.8701299,21.0649351 C25.7835494,21.1948058 25.6883122,21.2943719 25.5844156,21.3636364 C25.3593062,21.5194813 25.1428582,21.5974026 24.9350649,21.5974026 L24.7012987,21.5974026 L16.0519481,19.7532468 L16.0519481,21.8051948 C16.0519481,22.4458906 15.8961055,22.9307343 15.5844156,23.2597403 C15.324674,23.5194818 14.9783571,23.6493506 14.5454545,23.6493506 L6.93506494,23.6493506 C6.29436909,23.6493506 5.80086753,23.4329026 5.45454545,23 C5.14285558,22.6536779 4.98701299,22.2554135 4.98701299,21.8051948 L4.98701299,17.3896104 L0.649350649,16.4025974 C0.424241299,16.3506491 0.259740779,16.251083 0.155844156,16.1038961 C0.0519475325,15.9567092 0,15.7705639 0,15.5454545 L0,10.2467532 C0,10.03896 0.0519475325,9.85714364 0.155844156,9.7012987 C0.259740779,9.54545377 0.424241299,9.4415587 0.649350649,9.38961039 L24.8051948,4.22077922 C24.9610397,4.18614701 25.1082244,4.18181805 25.2467532,4.20779221 C25.3852821,4.23376636 25.4978351,4.27272701 25.5844156,4.32467532 Z M6.93506494,21.7012987 L14,21.7012987 L14,19.5454545 L6.93506494,17.8051948 L6.93506494,21.7012987 Z M24,19.4155844 L24,6.37662338 L1.94805195,11.2337662 L1.94805195,14.5584416 L24,19.4155844 Z" fill="#333333"></path>
        </g>
    </g>
</svg>