<svg xmlns="http://www.w3.org/2000/svg" style="fill:#00a79d;" viewBox="0 0 25.89 32.03"><title>Asset 2</title><g id="Layer_2" data-name="Layer 2"><g id="Layer_2-2" data-name="Layer 2"><path d="M9,24.87l1.07.34a2.44,2.44,0,0,1-.82,1.32A2.31,2.31,0,0,1,7.85,27a2.35,2.35,0,0,1-1.78-.74,2.83,2.83,0,0,1-.7-2,3,3,0,0,1,.7-2.11,2.4,2.4,0,0,1,1.84-.75,2.3,2.3,0,0,1,1.63.59,2.18,2.18,0,0,1,.55,1L9,23.19a1.2,1.2,0,0,0-.41-.67,1.15,1.15,0,0,0-.74-.24,1.23,1.23,0,0,0-1,.43,2.14,2.14,0,0,0-.38,1.41,2.26,2.26,0,0,0,.37,1.47,1.22,1.22,0,0,0,1,.44,1.12,1.12,0,0,0,.75-.28A1.63,1.63,0,0,0,9,24.87Z"/><path d="M10.77,25.1l1.07-.1a1.32,1.32,0,0,0,.39.79A1.18,1.18,0,0,0,13,26a1.23,1.23,0,0,0,.8-.22.68.68,0,0,0,.27-.53A.48.48,0,0,0,14,25a.79.79,0,0,0-.39-.23,8.87,8.87,0,0,0-.88-.24A3.08,3.08,0,0,1,11.47,24a1.42,1.42,0,0,1-.5-1.09,1.45,1.45,0,0,1,.23-.78,1.55,1.55,0,0,1,.68-.55A2.69,2.69,0,0,1,13,21.34a2.31,2.31,0,0,1,1.55.45A1.61,1.61,0,0,1,15,23l-1.1.05a1,1,0,0,0-.3-.61,1.15,1.15,0,0,0-.7-.18,1.19,1.19,0,0,0-.75.2.39.39,0,0,0-.17.33.41.41,0,0,0,.16.33,2.91,2.91,0,0,0,1,.37,4.82,4.82,0,0,1,1.19.39,1.59,1.59,0,0,1,.6.55,1.67,1.67,0,0,1,.22.87,1.61,1.61,0,0,1-.26.87,1.54,1.54,0,0,1-.74.61A3.13,3.13,0,0,1,13,27a2.36,2.36,0,0,1-1.59-.48A2.06,2.06,0,0,1,10.77,25.1Z"/><path d="M17.51,26.87l-2-5.44h1.19l1.38,4,1.33-4h1.17l-1.95,5.44Z"/><path d="M16.82,0H2.67A2.88,2.88,0,0,0,0,2.67V29.36A2.86,2.86,0,0,0,2.67,32H23.22a2.86,2.86,0,0,0,2.67-2.67V8.81a3.54,3.54,0,0,0-.8-2.14L19,.8A2.62,2.62,0,0,0,16.82,0Zm1.6,3.47,3.73,3.74H18.42ZM23,29.63H2.67a.9.9,0,0,1-.53-.27V2.67A.26.26,0,0,1,2.4,2.4H15.75V8.54a1.43,1.43,0,0,0,1.33,1.34h6.41V29.36c0,.27-.27.27-.53.27ZM17.88,14.42l-4.8,4.8L8.27,14.41h3.21V9.61h3.2v4.8h3.2Z"/></g></g></svg>