<svg xmlns="http://www.w3.org/2000/svg" width="32" height="32" viewBox="0 0 32 32">
    <g fill="none" fill-rule="evenodd">
        <path fill="#D0021B" fill-opacity="0" d="M0 0H32V32H0z"/>
        <path fill="#333" d="M8.106 26.85h6.787v2.272H12.68v1.062h-.088v.088h-2.213v-1.12h.059v-.119h-.06v.089H8.107v-2.273zm-1.121-3.394h9.089v2.272H6.985v-2.272zm14.784-12.718c0 1.849-.364 3.501-1.092 4.957-.787 1.574-1.938 2.794-3.452 3.66v2.95H5.835v-2.95c-1.516-.807-2.666-2.017-3.453-3.63-.728-1.476-1.092-3.138-1.092-4.987 0-1.79.472-3.463 1.416-5.017.905-1.515 2.135-2.725 3.689-3.63 1.593-.904 3.31-1.357 5.15-1.357 1.839 0 3.555.443 5.148 1.328 1.555.885 2.774 2.085 3.66 3.6.944 1.554 1.416 3.246 1.416 5.076zm-2.272 0c0-1.378-.364-2.666-1.092-3.866-.728-1.2-1.692-2.144-2.892-2.833-1.24-.728-2.567-1.092-3.984-1.092-1.377 0-2.675.36-3.895 1.077-1.22.718-2.193 1.658-2.921 2.818-.767 1.22-1.151 2.518-1.151 3.896 0 1.514.305 2.842.915 3.983.669 1.299 1.652 2.243 2.95 2.833l.68.325v2.154h6.845v-2.154l.68-.325c1.317-.61 2.3-1.534 2.95-2.774.61-1.14.915-2.488.915-4.042z"/>
        <path fill="#1DA31D" d="M22.77 14.69c1.445 0 2.785.363 4.02 1.086 1.193.704 2.146 1.657 2.86 2.861.725 1.236 1.103 2.59 1.135 4.06 0 1.47-.367 2.83-1.103 4.076-.714 1.204-1.673 2.158-2.877 2.861-1.247.725-2.597 1.087-4.052 1.087-1.454 0-2.805-.367-4.052-1.103-1.204-.714-2.158-1.673-2.86-2.877-.725-1.247-1.088-2.594-1.088-4.044 0-1.47.363-2.824 1.087-4.06.703-1.204 1.657-2.157 2.861-2.86 1.234-.724 2.59-1.086 4.068-1.088zm0 0h-.009.016-.008zm-1.208 11.62l5.85-5.61-1.038-1.2-4.891 4.652-2.478-2.494-1.039 1.135 3.596 3.517z"/>
    </g>
</svg>
