<?xml version="1.0" encoding="UTF-8"?>
<svg width="26px" height="26px" viewBox="0 0 26 26" version="1.1" xmlns="http://www.w3.org/2000/svg" xmlns:xlink="http://www.w3.org/1999/xlink">
    <!-- Generator: Sketch 50.2 (55047) - http://www.bohemiancoding.com/sketch -->
    <title>icons / KA_custom / KA_custom_26</title>
    <desc>Created with Sketch.</desc>
    <defs></defs>
    <g id="icons-/-KA_custom-/-KA_custom_26" stroke="none" stroke-width="1" fill="none" fill-rule="evenodd">
        <g>
            <rect id="ico_range" fill-opacity="0" fill="#D0021B" x="0" y="0" width="26" height="26"></rect>
            <path d="M6.58641359,21.8151848 L12.1008991,21.8151848 L12.1008991,23.6613387 L10.3026973,23.6613387 L10.3026973,24.5244755 L10.2307692,24.5244755 L10.2307692,24.5964036 L8.43256743,24.5964036 L8.43256743,23.6853147 L8.48051948,23.6853147 L8.48051948,23.5894106 L8.43256743,23.5894106 L8.43256743,23.6613387 L6.58641359,23.6613387 L6.58641359,21.8151848 Z M5.67532468,19.0579421 L13.0599401,19.0579421 L13.0599401,20.9040959 L5.67532468,20.9040959 L5.67532468,19.0579421 Z M17.6873127,8.72427572 C17.6873127,10.2267807 17.3916113,11.5694247 16.8001998,12.7522478 C16.160836,14.0309754 15.2257804,15.0219745 13.995005,15.7252747 L13.995005,18.1228771 L4.74025974,18.1228771 L4.74025974,15.7252747 C3.50948436,15.0699268 2.57442877,14.0869196 1.93506494,12.7762238 C1.34365339,11.5774166 1.04795205,10.2267807 1.04795205,8.72427572 C1.04795205,7.269723 1.4315646,5.91109522 2.1988012,4.64835165 C2.93406961,3.41757626 3.93306062,2.43456911 5.1958042,1.6993007 C6.49051596,0.964032288 7.88510741,0.596403596 9.37962038,0.596403596 C10.8741333,0.596403596 12.2687248,0.95604036 13.5634366,1.67532468 C14.8261801,2.39460899 15.8171792,3.36962422 16.5364635,4.6003996 C17.3037001,5.86314318 17.6873127,7.23775481 17.6873127,8.72427572 Z M15.8411588,8.72427572 C15.8411588,7.60538901 15.5454575,6.55844643 14.954046,5.58341658 C14.3626344,4.60838673 13.5794255,3.84116164 12.6043956,3.28171828 C11.5973976,2.69030673 10.5184873,2.39460539 9.36763237,2.39460539 C8.24874565,2.39460539 7.19381115,2.68631077 6.2027972,3.26973027 C5.21178326,3.85314977 4.42058238,4.6163789 3.82917083,5.55944056 C3.20579109,6.55045451 2.89410589,7.60538901 2.89410589,8.72427572 C2.89410589,9.95505111 3.14185566,11.0339614 3.63736264,11.961039 C4.1808219,13.0159893 4.98001471,13.7832144 6.03496503,14.2627373 L6.58641359,14.5264735 L6.58641359,16.2767233 L12.1488511,16.2767233 L12.1488511,14.5264735 L12.7002997,14.2627373 C13.7712341,13.7672303 14.5704269,13.0159891 15.0979021,12.008991 C15.5934091,11.0819134 15.8411588,9.9870193 15.8411588,8.72427572 Z" fill="#333333"></path>
            <path d="M18.5064935,11.9350649 C19.6839886,11.9350649 20.7748868,12.2337632 21.7792208,12.8311688 C22.7662387,13.4026003 23.5454517,14.1818132 24.1168831,15.1688312 C24.7142887,16.1731652 25.012987,17.2662279 25.012987,18.4480519 C25.012987,19.629876 24.7142887,20.7229387 24.1168831,21.7272727 C23.5454517,22.7142906 22.7662387,23.4935036 21.7792208,24.0649351 C20.7748868,24.6623406 19.6818241,24.961039 18.5,24.961039 C17.3181759,24.961039 16.2251132,24.6623406 15.2207792,24.0649351 C14.2337613,23.4935036 13.4545483,22.7142906 12.8831169,21.7272727 C12.2857113,20.7229387 11.987013,19.629876 11.987013,18.4480519 C11.987013,17.2662279 12.2857113,16.1731652 12.8831169,15.1688312 C13.4545483,14.1818132 14.2337613,13.4026003 15.2207792,12.8311688 C16.2251132,12.2337632 17.3203404,11.9350649 18.5064935,11.9350649 Z M21.4545455,19.038961 L21.4545455,17.8571429 L19.0909091,17.8571429 L19.0909091,15.4935065 L17.9090909,15.4935065 L17.9090909,17.8571429 L15.5454545,17.8571429 L15.5454545,19.038961 L17.9090909,19.038961 L17.9090909,21.4025974 L19.0909091,21.4025974 L19.0909091,19.038961 L21.4545455,19.038961 Z" fill="#999999"></path>
        </g>
    </g>
</svg>