<?xml version="1.0" encoding="UTF-8"?>
<svg width="26px" height="26px" viewBox="0 0 26 26" version="1.1" xmlns="http://www.w3.org/2000/svg" xmlns:xlink="http://www.w3.org/1999/xlink">
    <!-- Generator: Sketch 50.2 (55047) - http://www.bohemiancoding.com/sketch -->
    <title>icons / KA_faq / KA_faq_26</title>
    <desc>Created with Sketch.</desc>
    <defs></defs>
    <g id="icons-/-KA_faq-/-KA_faq_26" stroke="none" stroke-width="1" fill="none" fill-rule="evenodd">
        <g>
            <rect id="ico_range" fill-opacity="0" fill="#D0021B" x="0" y="0" width="26" height="26"></rect>
            <path d="M6.58641359,21.8151848 L12.1008991,21.8151848 L12.1008991,23.6613387 L10.3026973,23.6613387 L10.3026973,24.5244755 L10.2307692,24.5244755 L10.2307692,24.5964036 L8.43256743,24.5964036 L8.43256743,23.6853147 L8.48051948,23.6853147 L8.48051948,23.5894106 L8.43256743,23.5894106 L8.43256743,23.6613387 L6.58641359,23.6613387 L6.58641359,21.8151848 Z M5.67532468,19.0579421 L13.0599401,19.0579421 L13.0599401,20.9040959 L5.67532468,20.9040959 L5.67532468,19.0579421 Z M17.6873127,8.72427572 C17.6873127,10.2267807 17.3916113,11.5694247 16.8001998,12.7522478 C16.160836,14.0309754 15.2257804,15.0219745 13.995005,15.7252747 L13.995005,18.1228771 L4.74025974,18.1228771 L4.74025974,15.7252747 C3.50948436,15.0699268 2.57442877,14.0869196 1.93506494,12.7762238 C1.34365339,11.5774166 1.04795205,10.2267807 1.04795205,8.72427572 C1.04795205,7.269723 1.4315646,5.91109522 2.1988012,4.64835165 C2.93406961,3.41757626 3.93306062,2.43456911 5.1958042,1.6993007 C6.49051596,0.964032288 7.88510741,0.596403596 9.37962038,0.596403596 C10.8741333,0.596403596 12.2687248,0.95604036 13.5634366,1.67532468 C14.8261801,2.39460899 15.8171792,3.36962422 16.5364635,4.6003996 C17.3037001,5.86314318 17.6873127,7.23775481 17.6873127,8.72427572 Z M15.8411588,8.72427572 C15.8411588,7.60538901 15.5454575,6.55844643 14.954046,5.58341658 C14.3626344,4.60838673 13.5794255,3.84116164 12.6043956,3.28171828 C11.5973976,2.69030673 10.5184873,2.39460539 9.36763237,2.39460539 C8.24874565,2.39460539 7.19381115,2.68631077 6.2027972,3.26973027 C5.21178326,3.85314977 4.42058238,4.6163789 3.82917083,5.55944056 C3.20579109,6.55045451 2.89410589,7.60538901 2.89410589,8.72427572 C2.89410589,9.95505111 3.14185566,11.0339614 3.63736264,11.961039 C4.1808219,13.0159893 4.98001471,13.7832144 6.03496503,14.2627373 L6.58641359,14.5264735 L6.58641359,16.2767233 L12.1488511,16.2767233 L12.1488511,14.5264735 L12.7002997,14.2627373 C13.7712341,13.7672303 14.5704269,13.0159891 15.0979021,12.008991 C15.5934091,11.0819134 15.8411588,9.9870193 15.8411588,8.72427572 Z" fill="#333333"></path>
            <path d="M18.5000009,11.9480549 C19.6836576,11.9491276 20.77672,12.2434959 21.7792208,12.8311688 C22.7575806,13.4112583 23.5367936,14.1904713 24.1168831,15.1688312 C24.7056306,16.1731652 25,17.2662279 25,18.4480519 C25,19.629876 24.7056306,20.7229387 24.1168831,21.7272727 C23.5367936,22.7056326 22.7575806,23.4848456 21.7792208,24.0649351 C20.7748868,24.6536826 19.6818241,24.9480519 18.5,24.9480519 C17.3181759,24.9480519 16.2251132,24.6536826 15.2207792,24.0649351 C14.2424194,23.4848456 13.4632064,22.7056326 12.8831169,21.7272727 C12.2943694,20.7229387 12,19.629876 12,18.4480519 C12,17.2662279 12.2943694,16.1731652 12.8831169,15.1688312 C13.4632064,14.1904713 14.2424194,13.4112583 15.2207792,12.8311688 C16.22328,12.2434959 17.3163424,11.9491276 18.4999991,11.9480549 L18.5000009,11.9480549 Z M18.5000009,11.9480549 C18.4978364,11.9480529 18.4956716,11.9480519 18.4935065,11.9480519 L18.5064935,11.9480519 C18.5043284,11.9480519 18.5021636,11.9480529 18.4999991,11.9480549 L18.5000009,11.9480549 Z M18.2337662,22.2337662 C18.4588756,22.2337662 18.6493499,22.1558449 18.8051948,22 C18.9610397,21.8441551 19.038961,21.6536808 19.038961,21.4285714 C19.038961,21.2034621 18.9610397,21.0108233 18.8051948,20.8506494 C18.6493499,20.6904754 18.4588756,20.6103896 18.2337662,20.6103896 C18.0086569,20.6103896 17.8160181,20.6904754 17.6558442,20.8506494 C17.4956702,21.0108233 17.4155844,21.2034621 17.4155844,21.4285714 C17.4155844,21.6536808 17.4956702,21.8441551 17.6558442,22 C17.8160181,22.1558449 18.0086569,22.2337662 18.2337662,22.2337662 Z M20.6753247,17.4415584 C20.8484857,17.1731588 20.9350649,16.8528157 20.9350649,16.4805195 C20.9350649,15.9264042 20.7207814,15.4848501 20.2922078,15.1558442 C19.8636342,14.8268382 19.2900469,14.6623377 18.5714286,14.6623377 C17.6796492,14.6623377 16.8441597,14.8701278 16.0649351,15.2857143 L16.6363636,16.3896104 C17.3116917,16.0606044 17.9134173,15.8961039 18.4415584,15.8961039 C18.7532483,15.8961039 18.9935056,15.9523804 19.1623377,16.0649351 C19.3311697,16.1774897 19.4155844,16.3376613 19.4155844,16.5454545 C19.4155844,16.7532478 19.354979,16.9372286 19.2337662,17.0974026 C19.1125535,17.2575766 18.8701317,17.4588732 18.5064935,17.7012987 C18.1082231,17.9783564 17.8441565,18.2294361 17.7142857,18.4545455 C17.5670988,18.6969709 17.4935065,18.9783534 17.4935065,19.2987013 L17.4935065,19.6623377 L18.8961039,19.6623377 L18.8961039,19.3636364 C18.8961039,19.1731592 18.941558,19.0129877 19.0324675,18.8831169 C19.1233771,18.7532461 19.3376606,18.5714297 19.6753247,18.3376623 C20.1688336,17.9913403 20.5021636,17.6926419 20.6753247,17.4415584 Z" fill="#0077FE"></path>
        </g>
    </g>
</svg>