<?xml version="1.0" encoding="UTF-8"?>
<svg width="26px" height="26px" viewBox="0 0 26 26" version="1.1" xmlns="http://www.w3.org/2000/svg" xmlns:xlink="http://www.w3.org/1999/xlink">
    <!-- Generator: Sketch 50.2 (55047) - http://www.bohemiancoding.com/sketch -->
    <title>icons / KA_howTo / KA_howTo_26</title>
    <desc>Created with Sketch.</desc>
    <defs></defs>
    <g id="icons-/-KA_howTo-/-KA_howTo_26" stroke="none" stroke-width="1" fill="none" fill-rule="evenodd">
        <g>
            <rect id="ico_range" fill-opacity="0" fill="#D0021B" x="0" y="0" width="26" height="26"></rect>
            <path d="M6.58641359,21.8151848 L12.1008991,21.8151848 L12.1008991,23.6613387 L10.3026973,23.6613387 L10.3026973,24.5244755 L10.2307692,24.5244755 L10.2307692,24.5964036 L8.43256743,24.5964036 L8.43256743,23.6853147 L8.48051948,23.6853147 L8.48051948,23.5894106 L8.43256743,23.5894106 L8.43256743,23.6613387 L6.58641359,23.6613387 L6.58641359,21.8151848 Z M5.67532468,19.0579421 L13.0599401,19.0579421 L13.0599401,20.9040959 L5.67532468,20.9040959 L5.67532468,19.0579421 Z M17.6873127,8.72427572 C17.6873127,10.2267807 17.3916113,11.5694247 16.8001998,12.7522478 C16.160836,14.0309754 15.2257804,15.0219745 13.995005,15.7252747 L13.995005,18.1228771 L4.74025974,18.1228771 L4.74025974,15.7252747 C3.50948436,15.0699268 2.57442877,14.0869196 1.93506494,12.7762238 C1.34365339,11.5774166 1.04795205,10.2267807 1.04795205,8.72427572 C1.04795205,7.269723 1.4315646,5.91109522 2.1988012,4.64835165 C2.93406961,3.41757626 3.93306062,2.43456911 5.1958042,1.6993007 C6.49051596,0.964032288 7.88510741,0.596403596 9.37962038,0.596403596 C10.8741333,0.596403596 12.2687248,0.95604036 13.5634366,1.67532468 C14.8261801,2.39460899 15.8171792,3.36962422 16.5364635,4.6003996 C17.3037001,5.86314318 17.6873127,7.23775481 17.6873127,8.72427572 Z M15.8411588,8.72427572 C15.8411588,7.60538901 15.5454575,6.55844643 14.954046,5.58341658 C14.3626344,4.60838673 13.5794255,3.84116164 12.6043956,3.28171828 C11.5973976,2.69030673 10.5184873,2.39460539 9.36763237,2.39460539 C8.24874565,2.39460539 7.19381115,2.68631077 6.2027972,3.26973027 C5.21178326,3.85314977 4.42058238,4.6163789 3.82917083,5.55944056 C3.20579109,6.55045451 2.89410589,7.60538901 2.89410589,8.72427572 C2.89410589,9.95505111 3.14185566,11.0339614 3.63736264,11.961039 C4.1808219,13.0159893 4.98001471,13.7832144 6.03496503,14.2627373 L6.58641359,14.5264735 L6.58641359,16.2767233 L12.1488511,16.2767233 L12.1488511,14.5264735 L12.7002997,14.2627373 C13.7712341,13.7672303 14.5704269,13.0159891 15.0979021,12.008991 C15.5934091,11.0819134 15.8411588,9.9870193 15.8411588,8.72427572 Z" fill="#333333"></path>
            <path d="M18.5064935,11.9350649 C19.6839886,11.9350649 20.7748868,12.2337632 21.7792208,12.8311688 C22.7662387,13.4026003 23.5454517,14.1818132 24.1168831,15.1688312 C24.7142887,16.1731652 25.012987,17.2662279 25.012987,18.4480519 C25.012987,19.629876 24.7142887,20.7229387 24.1168831,21.7272727 C23.5454517,22.7142906 22.7662387,23.4935036 21.7792208,24.0649351 C20.7748868,24.6623406 19.6818241,24.961039 18.5,24.961039 C17.3181759,24.961039 16.2251132,24.6623406 15.2207792,24.0649351 C14.2337613,23.4935036 13.4545483,22.7142906 12.8831169,21.7272727 C12.2857113,20.7229387 11.987013,19.629876 11.987013,18.4480519 C11.987013,17.2662279 12.2857113,16.1731652 12.8831169,15.1688312 C13.4545483,14.1818132 14.2337613,13.4026003 15.2207792,12.8311688 C16.2251132,12.2337632 17.3203404,11.9350649 18.5064935,11.9350649 Z M17.7272727,14.5324675 C17.7012986,14.5670997 17.6926406,14.6147183 17.7012987,14.6753247 L17.7012987,15.7532468 C17.7012987,15.8311692 17.720779,15.8874457 17.7597403,15.9220779 C17.7987015,15.9567101 17.8528135,15.974026 17.9220779,15.974026 L19.1298701,15.974026 C19.2077926,15.974026 19.2597401,15.9523812 19.2857143,15.9090909 C19.2943723,15.8744587 19.2987013,15.8181822 19.2987013,15.7402597 L19.2987013,14.7142857 C19.2987013,14.6363632 19.2770565,14.5800868 19.2337662,14.5454545 C19.190476,14.5108223 19.1341995,14.4935065 19.0649351,14.4935065 L17.8441558,14.4935065 C17.8008656,14.4935065 17.7619049,14.5064934 17.7272727,14.5324675 Z M20.1428571,21.4155844 L20.1428571,20.4025974 C20.1428571,20.3246749 20.1233768,20.266234 20.0844156,20.2272727 C20.0454544,20.1883115 19.9913423,20.1688312 19.9220779,20.1688312 L19.2987013,20.1688312 L19.2987013,16.9350649 C19.2987013,16.8571425 19.279221,16.800866 19.2402597,16.7662338 C19.2012985,16.7316016 19.1428575,16.7142857 19.0649351,16.7142857 L17.038961,16.7142857 C16.9870127,16.7142857 16.9437231,16.7316016 16.9090909,16.7662338 C16.8744587,16.800866 16.8571429,16.8441556 16.8571429,16.8961039 L16.8571429,17.961039 C16.8571429,18.0389614 16.8766232,18.0974024 16.9155844,18.1363636 C16.9545456,18.1753249 17.0086577,18.1948052 17.0779221,18.1948052 L17.7012987,18.1948052 L17.7012987,20.2337662 L17.0779221,20.2337662 C16.9999996,20.2337662 16.9437231,20.2532466 16.9090909,20.2922078 C16.8744587,20.331169 16.8571429,20.385281 16.8571429,20.4545455 L16.8571429,21.4805195 C16.8571429,21.5584419 16.8766232,21.6168829 16.9155844,21.6558442 C16.9545456,21.6948054 17.0086577,21.7142857 17.0779221,21.7142857 L19.9220779,21.7142857 C20.0000004,21.7142857 20.0562769,21.6926409 20.0909091,21.6493506 C20.0909091,21.6060604 20.103896,21.5541129 20.1298701,21.4935065 C20.1385282,21.4588743 20.1428571,21.4329005 20.1428571,21.4155844 Z" fill="#00B3F4"></path>
        </g>
    </g>
</svg>