<?xml version="1.0" encoding="UTF-8"?>
<svg width="26px" height="26px" viewBox="0 0 26 26" version="1.1" xmlns="http://www.w3.org/2000/svg" xmlns:xlink="http://www.w3.org/1999/xlink">
    <!-- Generator: Sketch 50.2 (55047) - http://www.bohemiancoding.com/sketch -->
    <title>icons / KA_problem / KA_problem_26</title>
    <desc>Created with Sketch.</desc>
    <defs></defs>
    <g id="icons-/-KA_problem-/-KA_problem_26" stroke="none" stroke-width="1" fill="none" fill-rule="evenodd">
        <g>
            <rect id="ico_range" fill-opacity="0" fill="#D0021B" x="0" y="0" width="26" height="26"></rect>
            <path d="M6.58641359,21.8151848 L12.1008991,21.8151848 L12.1008991,23.6613387 L10.3026973,23.6613387 L10.3026973,24.5244755 L10.2307692,24.5244755 L10.2307692,24.5964036 L8.43256743,24.5964036 L8.43256743,23.6853147 L8.48051948,23.6853147 L8.48051948,23.5894106 L8.43256743,23.5894106 L8.43256743,23.6613387 L6.58641359,23.6613387 L6.58641359,21.8151848 Z M5.67532468,19.0579421 L13.0599401,19.0579421 L13.0599401,20.9040959 L5.67532468,20.9040959 L5.67532468,19.0579421 Z M17.6873127,8.72427572 C17.6873127,10.2267807 17.3916113,11.5694247 16.8001998,12.7522478 C16.160836,14.0309754 15.2257804,15.0219745 13.995005,15.7252747 L13.995005,18.1228771 L4.74025974,18.1228771 L4.74025974,15.7252747 C3.50948436,15.0699268 2.57442877,14.0869196 1.93506494,12.7762238 C1.34365339,11.5774166 1.04795205,10.2267807 1.04795205,8.72427572 C1.04795205,7.269723 1.4315646,5.91109522 2.1988012,4.64835165 C2.93406961,3.41757626 3.93306062,2.43456911 5.1958042,1.6993007 C6.49051596,0.964032288 7.88510741,0.596403596 9.37962038,0.596403596 C10.8741333,0.596403596 12.2687248,0.95604036 13.5634366,1.67532468 C14.8261801,2.39460899 15.8171792,3.36962422 16.5364635,4.6003996 C17.3037001,5.86314318 17.6873127,7.23775481 17.6873127,8.72427572 Z M15.8411588,8.72427572 C15.8411588,7.60538901 15.5454575,6.55844643 14.954046,5.58341658 C14.3626344,4.60838673 13.5794255,3.84116164 12.6043956,3.28171828 C11.5973976,2.69030673 10.5184873,2.39460539 9.36763237,2.39460539 C8.24874565,2.39460539 7.19381115,2.68631077 6.2027972,3.26973027 C5.21178326,3.85314977 4.42058238,4.6163789 3.82917083,5.55944056 C3.20579109,6.55045451 2.89410589,7.60538901 2.89410589,8.72427572 C2.89410589,9.95505111 3.14185566,11.0339614 3.63736264,11.961039 C4.1808219,13.0159893 4.98001471,13.7832144 6.03496503,14.2627373 L6.58641359,14.5264735 L6.58641359,16.2767233 L12.1488511,16.2767233 L12.1488511,14.5264735 L12.7002997,14.2627373 C13.7712341,13.7672303 14.5704269,13.0159891 15.0979021,12.008991 C15.5934091,11.0819134 15.8411588,9.9870193 15.8411588,8.72427572 Z" fill="#333333"></path>
            <path d="M18.5000009,11.9350679 C19.675013,11.9361485 20.7637464,12.2305168 21.7662338,12.8181818 C22.7359356,13.3896132 23.5108196,14.1644973 24.0909091,15.1428571 C24.6796566,16.1471912 24.9870129,17.2467473 25.012987,18.4415584 C25.012987,19.6363696 24.7142887,20.7402547 24.1168831,21.7532468 C23.5367936,22.7316066 22.7575806,23.5064906 21.7792208,24.0779221 C20.7662287,24.6666696 19.6688371,24.961039 18.487013,24.961039 C17.3051889,24.961039 16.2077973,24.6623406 15.1948052,24.0649351 C14.2164453,23.4848456 13.4415613,22.7056326 12.8701299,21.7272727 C12.2813823,20.7142806 11.987013,19.6190535 11.987013,18.4415584 C11.987013,17.2467473 12.2813823,16.1471912 12.8701299,15.1428571 C13.4415613,14.1644973 14.2164453,13.3896132 15.1948052,12.8181818 C16.1973323,12.2304935 17.2990526,11.9361251 18.499999,11.9350678 L18.5000009,11.9350679 Z M18.5000009,11.9350679 C18.4978364,11.9350659 18.4956716,11.9350649 18.4935065,11.9350649 L18.5064935,11.9350649 C18.5043284,11.9350649 18.5021635,11.9350659 18.499999,11.9350678 L18.5000009,11.9350679 Z M17.5194805,21.3766234 L22.2727273,16.8181818 L21.4285714,15.8441558 L17.4545455,19.6233766 L15.4415584,17.5974026 L14.5974026,18.5194805 L17.5194805,21.3766234 Z" fill="#1DA31D"></path>
        </g>
    </g>
</svg>