<svg xmlns="http://www.w3.org/2000/svg" width="281" height="176" viewBox="0 0 281 176">
    <g fill="none" fill-rule="evenodd">
        <path stroke="#D6D7D8" stroke-linecap="round" stroke-linejoin="round" stroke-width="3" d="M162.3 118.043L169.258 130.586M174.111 111.278L181.069 123.821M206.299 164.423L190.791 173.307 166.978 132.038 182.486 123.154zM180.187 154.93L195.239 146.528M95.783 51.225c2.585-12.752 10.65-23.516 21.63-29.726M182.095 71.043c-4.88 19.15-22.243 33.311-42.913 33.311-20.826 0-38.295-14.377-43.022-33.748M148.107 16.688c17.408 3.562 31.094 17.338 34.526 34.793M145.541 20.64c-2.056 1.868-5.236 1.716-7.104-.34-1.868-2.056-1.716-5.237.34-7.105 2.056-1.868 5.237-1.715 7.105.34 1.868 2.057 1.715 5.237-.34 7.105zM140.06 125.71c-2.057 1.868-5.237 1.715-7.105-.34-1.868-2.057-1.716-5.237.34-7.105 2.056-1.868 5.237-1.716 7.105.34 1.868 2.056 1.715 5.237-.34 7.105zM130.586 121.505C103.997 117.763 82.931 96.82 79 70.293M199.335 69.855c-3.054 21.694-17.557 39.712-37.201 47.746" transform="translate(2 1)"/>
        <path stroke="#D6D7D8" stroke-linecap="round" stroke-linejoin="round" stroke-width="3" d="M79.095 51.7C83.7 22.688 108.828.51 139.135.51c30.46 0 55.687 22.4 60.109 51.626M266.211 72.678c2.406 2.405 6.307 2.405 8.712 0 2.406-2.406 2.406-6.307 0-8.712-2.405-2.406-6.306-2.406-8.712 0-2.405 2.405-2.405 6.306 0 8.712z" transform="translate(2 1)"/>
        <path stroke="#D6D7D8" stroke-linecap="round" stroke-linejoin="round" stroke-width="3" d="M264.131 68.025L251.599 68.025" transform="translate(2 1) matrix(-1 0 0 1 515.73 0)"/>
        <path stroke="#D6D7D8" stroke-linecap="round" stroke-linejoin="round" stroke-width="3" d="M233.155 60.924L194.194 60.924" transform="translate(2 1) matrix(-1 0 0 1 427.35 0)"/>
        <path stroke="#D6D7D8" stroke-linecap="round" stroke-linejoin="round" stroke-width="3" d="M251.678 53.171L247.5 67.901" transform="translate(2 1) matrix(-1 0 0 1 499.178 0)"/>
        <path stroke="#D6D7D8" stroke-linecap="round" stroke-linejoin="round" stroke-width="3" d="M240.121 61.573L233.809 76.244" transform="translate(2 1) matrix(-1 0 0 1 473.93 0)"/>
        <path stroke="#D6D7D8" stroke-linecap="round" stroke-linejoin="round" stroke-width="3" d="M247.052 75.774L240.359 53.072" transform="translate(2 1) matrix(-1 0 0 1 487.411 0)"/>
        <path stroke="#D6D7D8" stroke-linecap="round" stroke-linejoin="round" stroke-width="3" d="M10.6 72.678c-2.405 2.405-6.306 2.405-8.712 0-2.406-2.406-2.406-6.307 0-8.712 2.406-2.406 6.307-2.406 8.712 0 2.406 2.405 2.406 6.306 0 8.712zM25.213 68.025L12.68 68.025M82.618 60.924L43.656 60.924M29.311 53.171L25.134 67.901M43.003 61.573L36.691 76.244M36.452 75.774L29.76 53.072" transform="translate(2 1)"/>
        <path fill="#D6D7D8" d="M126.703 64.088h-5.207c-.22 0-.397-.178-.397-.396v-5.209c0-.218.178-.395.397-.395h5.207c.22 0 .396.177.396.395v5.209c0 .218-.177.396-.396.396M143.17 64.088h-5.207c-.22 0-.397-.178-.397-.396v-5.209c0-.218.178-.395.397-.395h5.207c.22 0 .396.177.396.395v5.209c0 .218-.177.396-.396.396M159.637 64.088h-5.207c-.22 0-.397-.178-.397-.396v-5.209c0-.218.178-.395.397-.395h5.207c.22 0 .396.177.396.395v5.209c0 .218-.177.396-.396.396" transform="translate(2 1)"/>
    </g>
</svg>
