<svg xmlns="http://www.w3.org/2000/svg" width="32" height="32" viewBox="0 0 32 32">
    <g fill="none" fill-rule="evenodd">
        <path fill="#D0021B" fill-opacity="0" d="M0 0H32V32H0z"/>
        <path fill="#333" d="M19.469-.16v.032c.426 0 .804.064 1.134.192.33.128.645.34.943.64l5.915 5.913c.575.576.863 1.28.863 2.11v20.46c0 .724-.267 1.353-.8 1.886-.532.533-1.161.8-1.886.8H5.178c-.745 0-1.384-.267-1.917-.8-.533-.533-.8-1.162-.8-1.886V2.557c0-.724.267-1.358.8-1.902C3.794.112 4.433-.16 5.179-.16h14.29zm1.47 3.58v3.837h3.708L20.94 3.42zm5.051 25.767h.128V9.59H19.82c-.34 0-.629-.122-.863-.367-.234-.245-.352-.538-.352-.88V2.207H5.18c-.256 0-.384.117-.384.351v26.63c0 .106.043.192.128.256.085.063.17.095.256.095h20.46c.106 0 .191-.042.255-.127.064-.086.096-.16.096-.224zm-2.813-12.212c0 .448-.213.853-.64 1.215-.426.362-1.054.682-1.886.959.448.874.672 1.62.672 2.238 0 .447-.139.81-.416 1.087-.32.32-.762.458-1.327.415-.564-.043-1.23-.266-1.998-.671-.277.831-.596 1.46-.959 1.886-.362.426-.767.64-1.214.64-.448 0-.858-.214-1.231-.64-.373-.426-.687-1.055-.943-1.886h-.032c-.767.405-1.433.628-1.998.671-.565.043-1.007-.096-1.327-.415-.256-.278-.394-.64-.415-1.087 0-.618.234-1.364.703-2.238-.831-.277-1.465-.597-1.902-.96-.437-.361-.656-.766-.656-1.214 0-.916.853-1.63 2.558-2.142v-.032c-.469-.874-.703-1.62-.703-2.238.02-.447.16-.81.415-1.086.32-.32.767-.459 1.343-.416.575.043 1.247.266 2.014.671.256-.83.57-1.46.943-1.886.373-.426.783-.64 1.23-.64.448 0 .853.214 1.215.64.363.426.682 1.055.96 1.886.767-.405 1.433-.628 1.997-.671.565-.043 1.007.096 1.327.416.277.277.416.639.416 1.086 0 .618-.224 1.364-.672 2.238l-.032.032c1.705.512 2.558 1.226 2.558 2.142zm-1.215 0c0-.15-.15-.309-.448-.48-.362-.234-.873-.447-1.534-.639-.213.32-.48.693-.8 1.119.257.32.523.682.8 1.087.66-.17 1.172-.373 1.534-.607.299-.192.448-.352.448-.48zm-3.74-1.183c.085.107.149.181.192.224.085-.107.191-.256.32-.448l-.512-.064v.288zm-.032 2.654l.543-.096-.32-.448-.191.224-.032.16v.16zm1.374-4.22c.299-.554.48-1.023.544-1.407.043-.256.032-.415-.032-.48-.064-.063-.16-.095-.288-.095-.447 0-1.087.234-1.918.703.085.384.16.842.224 1.375.362.042.8.106 1.31.191l.096-.16c.043-.063.064-.106.064-.127zm-1.47 5.434c-.085.597-.16 1.045-.224 1.343l.256.128c.64.34 1.15.522 1.534.543.192.022.325 0 .4-.064.075-.064.09-.234.048-.511-.064-.362-.245-.82-.544-1.375l-.127-.287c-.533.106-.98.18-1.343.223zm-2.685 3.9c.127 0 .287-.16.48-.48.234-.361.436-.862.607-1.502-.32-.213-.682-.49-1.087-.83-.448.34-.82.617-1.12.83.193.64.406 1.14.64 1.503.17.32.33.48.48.48zm.67-4.955l.48-.447.48-.512v-1.342l-.96-.96h-1.342l-.959.96v1.342l.96.96c.447.02.894.02 1.342 0zm-.67-8.215c-.15 0-.31.149-.48.447-.234.362-.447.874-.64 1.535.49.32.864.586 1.12.799.34-.256.703-.522 1.087-.8-.171-.66-.373-1.172-.608-1.534-.192-.298-.352-.447-.48-.447zm1.182 3.804l.288.032-.096-.576-.447.32.16.128.095.096zm-2.653 0h.256l.256-.224-.416-.32c-.043.128-.075.31-.096.544zm.288 5.594h-.288l.096.512.416-.32-.096-.096c-.043-.043-.086-.074-.128-.096zm2.653-.032l-.32.032-.223.192.447.32c.022-.15.053-.33.096-.544zm-4.316-1.63l-.16-.224-.32.448.512.096-.032-.32zm.032-2.622c-.234.022-.415.054-.543.096l.32.416.223-.224v-.288zm.128-1.182c.043-.512.117-.97.224-1.375-.831-.469-1.47-.703-1.918-.703-.128 0-.224.032-.288.096-.064.064-.074.223-.032.48.043.383.213.852.512 1.406l.16.287c.49-.085.937-.149 1.342-.191zm-1.918 1.534c-.66.192-1.172.405-1.534.64-.299.191-.448.351-.448.479s.15.288.448.48c.362.234.874.447 1.534.639v-.032c.32-.469.586-.831.8-1.087-.342-.448-.608-.82-.8-1.119zm.416 3.868c-.299.554-.47 1.013-.512 1.375-.042.277-.026.453.048.527.075.075.23.09.464.048.362-.042.842-.223 1.438-.543l.256-.128c-.064-.298-.128-.746-.192-1.343-.426-.042-.874-.117-1.342-.223l-.096.16-.064.127z"/>
    </g>
</svg>
