<?xml version="1.0" encoding="UTF-8"?>
<svg width="26px" height="26px" viewBox="0 0 26 26" version="1.1" xmlns="http://www.w3.org/2000/svg" xmlns:xlink="http://www.w3.org/1999/xlink">
    <!-- Generator: Sketch 50.2 (55047) - http://www.bohemiancoding.com/sketch -->
    <title>icons / ServiceRequest / ServiceRequest_26</title>
    <desc>Created with Sketch.</desc>
    <defs></defs>
    <g id="icons-/-ServiceRequest-/-ServiceRequest_26" stroke="none" stroke-width="1" fill="none" fill-rule="evenodd">
        <g>
            <rect id="ico_range" fill-opacity="0" fill="#D0021B" x="0" y="0" width="26" height="26"></rect>
            <path d="M15.8181818,-0.12987013 L15.8181818,-0.103896104 C16.1645039,-0.103896104 16.4718601,-0.0519485714 16.7402597,0.0519480519 C17.0086594,0.155844675 17.2640681,0.329003117 17.5064935,0.571428571 L22.3116883,5.37662338 C22.7792231,5.84415818 23.012987,6.41558104 23.012987,7.09090909 L23.012987,23.7142857 C23.012987,24.3030332 22.796539,24.8138506 22.3636364,25.2467532 C21.9307338,25.6796558 21.4199164,25.8961039 20.8311688,25.8961039 L4.20779221,25.8961039 C3.60172857,25.8961039 3.08225325,25.6796558 2.64935065,25.2467532 C2.21644805,24.8138506 2,24.3030332 2,23.7142857 L2,2.07792208 C2,1.48917455 2.21644805,0.974028182 2.64935065,0.532467532 C3.08225325,0.0909068831 3.60172857,-0.12987013 4.20779221,-0.12987013 L15.8181818,-0.12987013 Z M17.012987,2.77922078 L17.012987,5.8961039 L20.025974,5.8961039 L17.012987,2.77922078 Z M21.1168831,23.7142857 L21.2207792,23.7142857 L21.2207792,7.79220779 L16.1038961,7.79220779 C15.8268384,7.79220779 15.5930745,7.69264169 15.4025974,7.49350649 C15.2121203,7.2943713 15.1168831,7.05627844 15.1168831,6.77922078 L15.1168831,1.79220779 L4.20779221,1.79220779 C3.99999896,1.79220779 3.8961039,1.88744494 3.8961039,2.07792208 L3.8961039,23.7142857 C3.8961039,23.8008662 3.93073558,23.8701296 4,23.9220779 C4.06926442,23.9740262 4.13852779,24 4.20779221,24 L20.8311688,24 C20.9177494,24 20.9870127,23.9653683 21.038961,23.8961039 C21.0909094,23.8268395 21.1168831,23.766234 21.1168831,23.7142857 Z M18.8311688,13.7922078 C18.8311688,14.155846 18.6580104,14.484847 18.3116883,14.7792208 C17.9653662,15.0735945 17.4545488,15.3333322 16.7792208,15.5584416 C17.142859,16.2684018 17.3246753,16.8744564 17.3246753,17.3766234 C17.3246753,17.7402616 17.2121223,18.0346309 16.987013,18.2597403 C16.7272714,18.5194818 16.3679677,18.6320348 15.9090909,18.5974026 C15.4502142,18.5627704 14.909094,18.380954 14.2857143,18.0519481 C14.0606049,18.7272761 13.8008673,19.2380935 13.5064935,19.5844156 C13.2121197,19.9307377 12.8831187,20.1038961 12.5194805,20.1038961 C12.1558423,20.1038961 11.8225123,19.9307377 11.5194805,19.5844156 C11.2164487,19.2380935 10.96104,18.7272761 10.7532468,18.0519481 L10.7272727,18.0519481 C10.103893,18.380954 9.56277286,18.5627704 9.1038961,18.5974026 C8.64501935,18.6320348 8.28571558,18.5194818 8.02597403,18.2597403 C7.81818078,18.0346309 7.70562779,17.7402616 7.68831169,17.3766234 C7.68831169,16.8744564 7.87878597,16.2684018 8.25974026,15.5584416 C7.58441221,15.3333322 7.06926584,15.0735945 6.71428571,14.7792208 C6.35930558,14.484847 6.18181818,14.155846 6.18181818,13.7922078 C6.18181818,13.0476153 6.87445195,12.4675345 8.25974026,12.0519481 L8.25974026,12.025974 C7.87878597,11.3160138 7.68831169,10.7099592 7.68831169,10.2077922 C7.70562779,9.84415403 7.81818078,9.54978468 8.02597403,9.32467532 C8.28571558,9.06493377 8.64934831,8.95238078 9.11688312,8.98701299 C9.58441792,9.02164519 10.129867,9.20346156 10.7532468,9.53246753 C10.96104,8.85713948 11.2164487,8.34632208 11.5194805,8 C11.8225123,7.65367792 12.1558423,7.48051948 12.5194805,7.48051948 C12.8831187,7.48051948 13.2121197,7.65367792 13.5064935,8 C13.8008673,8.34632208 14.0606049,8.85713948 14.2857143,9.53246753 C14.909094,9.20346156 15.4502142,9.02164519 15.9090909,8.98701299 C16.3679677,8.95238078 16.7272714,9.06493377 16.987013,9.32467532 C17.2121223,9.54978468 17.3246753,9.84415403 17.3246753,10.2077922 C17.3246753,10.7099592 17.142859,11.3160138 16.7792208,12.025974 L16.7532468,12.0519481 C18.1385351,12.4675345 18.8311688,13.0476153 18.8311688,13.7922078 Z M17.8441558,13.7922078 C17.8441558,13.6709951 17.7229449,13.5411262 17.4805195,13.4025974 C17.1861457,13.2121203 16.7705655,13.0389618 16.2337662,12.8831169 C16.0606052,13.1428584 15.8441571,13.4458857 15.5844156,13.7922078 C15.7922088,14.0519494 16.0086569,14.3463187 16.2337662,14.6753247 C16.7705655,14.5367958 17.1861457,14.3722953 17.4805195,14.1818182 C17.7229449,14.0259732 17.8441558,13.8961044 17.8441558,13.7922078 Z M14.8051948,12.8311688 C14.8744592,12.9177494 14.9264068,12.9783548 14.961039,13.012987 C15.0303034,12.9264065 15.1168826,12.8051956 15.2207792,12.6493506 L14.8051948,12.5974026 L14.8051948,12.8311688 Z M14.7792208,14.987013 L15.2207792,14.9090909 L14.961039,14.5454545 L14.8051948,14.7272727 L14.7792208,14.8571429 L14.7792208,14.987013 Z M15.8961039,11.5584416 C16.1385294,11.1082229 16.285714,10.7272743 16.3376623,10.4155844 C16.3722945,10.2077912 16.3636366,10.0779223 16.3116883,10.025974 C16.25974,9.97402571 16.1818187,9.94805195 16.0779221,9.94805195 C15.7142839,9.94805195 15.1948086,10.1385262 14.5194805,10.5194805 C14.5887449,10.8311704 14.6493504,11.203461 14.7012987,11.6363636 C14.9956725,11.6709958 15.3506473,11.7229434 15.7662338,11.7922078 L15.8441558,11.6623377 C15.8787881,11.6103894 15.8961039,11.5757577 15.8961039,11.5584416 Z M14.7012987,15.974026 C14.6320343,16.4588769 14.5714288,16.8225096 14.5194805,17.0649351 L14.7272727,17.1688312 C15.2467558,17.4458888 15.6623361,17.5930735 15.974026,17.6103896 C16.1298709,17.6277057 16.2380949,17.6103899 16.2987013,17.5584416 C16.3593077,17.5064932 16.3722945,17.3679665 16.3376623,17.1428571 C16.285714,16.8484834 16.1385294,16.4761927 15.8961039,16.025974 L15.7922078,15.7922078 C15.3593052,15.8787883 14.9956725,15.9393938 14.7012987,15.974026 Z M12.5194805,19.1428571 C12.6233771,19.1428571 12.753246,19.0129883 12.9090909,18.7532468 C13.0995681,18.458873 13.2640686,18.0519506 13.4025974,17.5324675 C13.1428558,17.3593065 12.8484865,17.1342005 12.5194805,16.8571429 C12.1558423,17.1342005 11.8528151,17.3593065 11.6103896,17.5324675 C11.7662345,18.0519506 11.939393,18.458873 12.1298701,18.7532468 C12.268399,19.0129883 12.3982678,19.1428571 12.5194805,19.1428571 Z M13.0649351,15.1168831 L13.4545455,14.7532468 L13.8441558,14.3376623 L13.8441558,13.2467532 L13.0649351,12.4675325 L11.974026,12.4675325 L11.1948052,13.2467532 L11.1948052,14.3376623 L11.974026,15.1168831 C12.3376642,15.1341992 12.7012969,15.1341992 13.0649351,15.1168831 Z M12.5194805,8.44155844 C12.3982678,8.44155844 12.268399,8.56276935 12.1298701,8.80519481 C11.939393,9.09956857 11.7662345,9.51514883 11.6103896,10.0519481 C12.00866,10.3116896 12.3116873,10.5281377 12.5194805,10.7012987 C12.7965382,10.4935055 13.0909075,10.2770574 13.4025974,10.0519481 C13.2640686,9.51514883 13.0995681,9.09956857 12.9090909,8.80519481 C12.753246,8.56276935 12.6233771,8.44155844 12.5194805,8.44155844 Z M13.4805195,11.5324675 L13.7142857,11.5584416 L13.6363636,11.0909091 L13.2727273,11.3506494 L13.4025974,11.4545455 L13.4805195,11.5324675 Z M11.3246753,11.5324675 L11.5324675,11.5324675 L11.7402597,11.3506494 L11.4025974,11.0909091 C11.3679652,11.1948057 11.3419914,11.3419904 11.3246753,11.5324675 Z M11.5584416,16.0779221 L11.3246753,16.0779221 L11.4025974,16.4935065 L11.7402597,16.2337662 L11.6623377,16.1558442 C11.6277055,16.1212119 11.5930738,16.0952382 11.5584416,16.0779221 Z M13.7142857,16.0519481 L13.4545455,16.0779221 L13.2727273,16.2337662 L13.6363636,16.4935065 C13.6536797,16.3722938 13.6796535,16.2251091 13.7142857,16.0519481 Z M10.2077922,14.7272727 L10.0779221,14.5454545 L9.81818182,14.9090909 L10.2337662,14.987013 L10.2077922,14.7272727 Z M10.2337662,12.5974026 C10.0432891,12.6147187 9.89610442,12.6406925 9.79220779,12.6753247 L10.0519481,13.012987 L10.2337662,12.8311688 L10.2337662,12.5974026 Z M10.3376623,11.6363636 C10.3722945,11.2207771 10.4329,10.8484865 10.5194805,10.5194805 C9.84415247,10.1385262 9.32467714,9.94805195 8.96103896,9.94805195 C8.85714234,9.94805195 8.77922104,9.97402571 8.72727273,10.025974 C8.67532442,10.0779223 8.66666649,10.2077912 8.7012987,10.4155844 C8.73593091,10.7272743 8.87445766,11.1082229 9.11688312,11.5584416 L9.24675325,11.7922078 C9.64502364,11.7229434 10.0086564,11.6709958 10.3376623,11.6363636 Z M8.77922078,12.8831169 C8.24242156,13.0389618 7.8268413,13.2121203 7.53246753,13.4025974 C7.29004208,13.5584423 7.16883117,13.6883112 7.16883117,13.7922078 C7.16883117,13.8961044 7.29004208,14.0259732 7.53246753,14.1818182 C7.8268413,14.3722953 8.24242156,14.5454538 8.77922078,14.7012987 L8.77922078,14.6753247 C9.03896234,14.2943704 9.25541039,14.000001 9.42857143,13.7922078 C9.15151377,13.4285696 8.93506571,13.1255423 8.77922078,12.8831169 Z M9.11688312,16.025974 C8.87445766,16.4761927 8.73593091,16.8484834 8.7012987,17.1428571 C8.66666649,17.3679665 8.67965338,17.5108222 8.74025974,17.5714286 C8.8008661,17.6320349 8.92640597,17.6450218 9.11688312,17.6103896 C9.41125688,17.5757574 9.80086338,17.4285727 10.2857143,17.1688312 L10.4935065,17.0649351 C10.4415582,16.8225096 10.3896106,16.4588769 10.3376623,15.974026 C9.99134026,15.9393938 9.62770753,15.8787883 9.24675325,15.7922078 L9.16883117,15.9220779 L9.11688312,16.025974 Z" fill="#333333"></path>
        </g>
    </g>
</svg>