<svg xmlns="http://www.w3.org/2000/svg" width="32" height="32" viewBox="0 0 32 32">
    <g fill="none" fill-rule="evenodd">
        <path fill="#D0021B" fill-opacity="0" d="M0 0H32V32H0z"/>
        <path fill="#333" d="M13.554 12.18h2.462v1.215h-2.462V12.18zM8.631 9.718H7.385V7.257H8.63v2.461zm1.215-1.246h2.462v1.246H9.846V8.472zm0-2.462H7.385V4.795h2.461V6.01zm0 6.17h2.462v1.215H9.846V12.18zm3.708-6.17h-2.461V4.795h2.461V6.01zm3.677 6.17h2.493v1.215h-2.493V12.18zm-3.677-3.708h2.462v1.246h-2.462V8.472zm3.677-2.462h-2.462V4.795h2.462V6.01zm4.955 17.263H23.4v2.461h-1.215v-2.461zm0-3.709H23.4v2.462h-1.215v-2.462zm-2.462 6.17h2.462v1.215h-2.462v-1.215zm2.462-9.878H23.4v2.494h-1.215v-2.494zM8.63 14.641H7.385V12.18H8.63v2.461zm13.555-1.246h-1.247V12.18h2.462v2.461h-1.215v-1.246zm-6.17 12.34h2.462v1.214h-2.462v-1.215zM28.324 8.726v20.46c0 .724-.267 1.358-.8 1.902-.532.543-1.161.815-1.886.815H5.178c-.745 0-1.384-.272-1.917-.815-.533-.544-.8-1.178-.8-1.902V2.557c0-.724.267-1.353.8-1.886.533-.532 1.172-.799 1.918-.799h14.29c.426 0 .804.064 1.134.192.33.128.645.34.943.64l5.915 5.913c.575.576.863 1.28.863 2.11zm-7.385-1.47h3.708L20.94 3.42v3.836zm5.179 2.333h-6.394v.128h-2.461V8.472h1.342V2.206H5.18c-.256 0-.384.117-.384.351v26.63c0 .106.043.192.128.256.085.063.17.095.256.095h20.46c.106 0 .191-.042.255-.127.064-.086.096-.16.096-.224h.128V9.59zM8.63 22.026H7.385v-2.462H8.63v2.462zm3.677 3.708h2.461v1.215h-2.461v-1.215zM8.63 18.35H7.385v-2.494H8.63v2.494zm0 7.384h2.462v1.215H8.63v-1.215zm0-2.461v2.461H7.385v-2.461H8.63z"/>
    </g>
</svg>
