<svg xmlns="http://www.w3.org/2000/svg" width="32" height="32" viewBox="0 0 32 32">
    <g fill="none" fill-rule="evenodd">
        <path fill="#D0021B" fill-opacity="0" d="M0 0H32V32H0z"/>
        <path fill="#333" d="M19.469-.16v.032c.426 0 .804.064 1.134.192.33.128.645.34.943.64l5.915 5.913c.575.576.863 1.28.863 2.11v20.46c0 .724-.267 1.353-.8 1.886-.532.533-1.161.8-1.886.8H5.178c-.745 0-1.384-.267-1.917-.8-.533-.533-.8-1.162-.8-1.886V2.557c0-.724.267-1.358.8-1.902C3.794.112 4.433-.16 5.179-.16h14.29zm1.47 3.58v3.837h3.708L20.94 3.42zm5.051 25.767h.128V9.59H19.82c-.34 0-.629-.122-.863-.367-.234-.245-.352-.538-.352-.88V2.207H5.18c-.256 0-.384.117-.384.351v26.63c0 .106.043.192.128.256.085.063.17.095.256.095h20.46c.106 0 .191-.042.255-.127.064-.086.096-.16.096-.224zM22.186 15.76H9.11c-.362 0-.655-.117-.88-.351-.223-.235-.335-.533-.335-.896 0-.298.128-.575.384-.83.255-.256.533-.384.83-.384h13.076c.362 0 .655.112.879.335.224.224.336.517.336.88 0 .362-.123.66-.368.895-.245.234-.528.351-.847.351zm0 4.923H9.11c-.362 0-.655-.112-.88-.335-.223-.224-.335-.528-.335-.911 0-.299.128-.576.384-.832.255-.255.533-.383.83-.383h13.076c.362 0 .655.112.879.335.224.224.336.517.336.88 0 .362-.123.66-.368.895-.245.234-.528.351-.847.351z"/>
    </g>
</svg>
