<?xml version="1.0" encoding="UTF-8"?>
<svg width="26px" height="26px" viewBox="0 0 26 26" version="1.1" xmlns="http://www.w3.org/2000/svg" xmlns:xlink="http://www.w3.org/1999/xlink">
    <!-- Generator: Sketch 50.2 (55047) - http://www.bohemiancoding.com/sketch -->
    <title>icons / Tickets / Ticket_26</title>
    <desc>Created with Sketch.</desc>
    <defs></defs>
    <g id="icons-/-Tickets-/-Ticket_26" stroke="none" stroke-width="1" fill="none" fill-rule="evenodd">
        <g>
            <rect id="ico_range" fill-opacity="0" fill="#D0021B" x="0" y="0" width="26" height="26"></rect>
            <path d="M15.8181818,-0.12987013 L15.8181818,-0.103896104 C16.1645039,-0.103896104 16.4718601,-0.0519485714 16.7402597,0.0519480519 C17.0086594,0.155844675 17.2640681,0.329003117 17.5064935,0.571428571 L22.3116883,5.37662338 C22.7792231,5.84415818 23.012987,6.41558104 23.012987,7.09090909 L23.012987,23.7142857 C23.012987,24.3030332 22.796539,24.8138506 22.3636364,25.2467532 C21.9307338,25.6796558 21.4199164,25.8961039 20.8311688,25.8961039 L4.20779221,25.8961039 C3.60172857,25.8961039 3.08225325,25.6796558 2.64935065,25.2467532 C2.21644805,24.8138506 2,24.3030332 2,23.7142857 L2,2.07792208 C2,1.48917455 2.21644805,0.974028182 2.64935065,0.532467532 C3.08225325,0.0909068831 3.60172857,-0.12987013 4.20779221,-0.12987013 L15.8181818,-0.12987013 Z M17.012987,2.77922078 L17.012987,5.8961039 L20.025974,5.8961039 L17.012987,2.77922078 Z M21.1168831,23.7142857 L21.2207792,23.7142857 L21.2207792,7.79220779 L16.1038961,7.79220779 C15.8268384,7.79220779 15.5930745,7.69264169 15.4025974,7.49350649 C15.2121203,7.2943713 15.1168831,7.05627844 15.1168831,6.77922078 L15.1168831,1.79220779 L4.20779221,1.79220779 C3.99999896,1.79220779 3.8961039,1.88744494 3.8961039,2.07792208 L3.8961039,23.7142857 C3.8961039,23.8008662 3.93073558,23.8701296 4,23.9220779 C4.06926442,23.9740262 4.13852779,24 4.20779221,24 L20.8311688,24 C20.9177494,24 20.9870127,23.9653683 21.038961,23.8961039 C21.0909094,23.8268395 21.1168831,23.766234 21.1168831,23.7142857 Z M18.025974,12.8051948 L7.4025974,12.8051948 C7.10822364,12.8051948 6.87013078,12.7099577 6.68831169,12.5194805 C6.5064926,12.3290034 6.41558442,12.0865816 6.41558442,11.7922078 C6.41558442,11.5497823 6.51947948,11.3246764 6.72727273,11.1168831 C6.93506597,10.9090899 7.16017195,10.8051948 7.4025974,10.8051948 L18.025974,10.8051948 C18.3203478,10.8051948 18.5584406,10.896103 18.7402597,11.0779221 C18.9220788,11.2597412 19.012987,11.497834 19.012987,11.7922078 C19.012987,12.0865816 18.9134209,12.3290034 18.7142857,12.5194805 C18.5151505,12.7099577 18.2857156,12.8051948 18.025974,12.8051948 Z M18.025974,16.8051948 L7.4025974,16.8051948 C7.10822364,16.8051948 6.87013078,16.7142866 6.68831169,16.5324675 C6.5064926,16.3506484 6.41558442,16.1038977 6.41558442,15.7922078 C6.41558442,15.5497823 6.51947948,15.3246764 6.72727273,15.1168831 C6.93506597,14.9090899 7.16017195,14.8051948 7.4025974,14.8051948 L18.025974,14.8051948 C18.3203478,14.8051948 18.5584406,14.896103 18.7402597,15.0779221 C18.9220788,15.2597412 19.012987,15.497834 19.012987,15.7922078 C19.012987,16.0865816 18.9134209,16.3290034 18.7142857,16.5194805 C18.5151505,16.7099577 18.2857156,16.8051948 18.025974,16.8051948 Z" fill="#333333"></path>
        </g>
    </g>
</svg>