<?xml version="1.0" encoding="UTF-8"?>
<svg width="21px" height="21px" viewBox="0 0 21 21" version="1.1" xmlns="http://www.w3.org/2000/svg" xmlns:xlink="http://www.w3.org/1999/xlink">
    <!-- Generator: Sketch 51.3 (57544) - http://www.bohemiancoding.com/sketch -->
    <title>icons / classes/ Administration Application EM SERVER_Error</title>
    <desc>Created with Sketch.</desc>
    <defs></defs>
    <g id="icons-/-classes/-Administration-Application-EM-SERVER" stroke="none" stroke-width="1" fill="none" fill-rule="evenodd">
        <g>
            <g id="icons-/-20x20-icon-field" transform="translate(1.000000, 1.000000)" fill="#F5A623" fill-rule="nonzero" opacity="0">
                <rect x="0" y="0" width="20" height="20"></rect>
            </g>
            <path d="M16,21 C13.2385763,21 11,18.7614237 11,16 C11,13.2385763 13.2385763,11 16,11 C18.7614237,11 21,13.2385763 21,16 C21,18.7614237 18.7614237,21 16,21 Z M16.8320312,19 L16.8320312,13.2890625 L15.8398438,13.2890625 L14,14.7539062 L14.5820312,15.4804688 L15.2382812,14.953125 C15.3164066,14.8906247 15.4557282,14.7591156 15.65625,14.5585938 L15.6367188,15.1523438 L15.625,15.6953125 L15.625,19 L16.8320312,19 Z" id="Combined-Shape" fill="#2B2826"></path>
            <path d="M20.8401598,2.23576424 C20.8934402,2.36896503 20.9333998,2.4955039 20.96004,2.61538462 C20.9866801,2.73526533 21,2.85514426 21,2.97502498 L21,12.1858142 C20.7602386,11.7728917 20.4738611,11.3799552 20.1408591,11.006993 C19.8078571,10.6340308 19.4349005,10.3076937 19.021978,10.027972 L19.021978,5.79220779 L2.97802198,5.79220779 L2.97802198,14.983017 L8.91208791,14.983017 L8.91208791,15.3826174 C8.91208791,15.6756591 8.92540779,15.9487167 8.95204795,16.2017982 C9.00532827,16.50816 9.05860779,16.7745576 9.11188811,17.000999 L2.97802198,17.000999 C2.85814126,17.000999 2.7316024,16.9876791 2.5984016,16.961039 C2.49184096,16.9343988 2.37196204,16.8944392 2.23876124,16.8411588 C2.1322006,16.7878785 2.02564156,16.7279391 1.91908092,16.6613387 C1.81252028,16.5947383 1.70596124,16.514819 1.5994006,16.4215784 C1.49283996,16.3283379 1.3996008,16.2251088 1.31968032,16.1118881 C1.23975984,15.9986674 1.17649041,15.8787885 1.12987013,15.7522478 C1.08324985,15.625707 1.04662018,15.5024981 1.01998002,15.3826174 C0.99333986,15.2627367 0.98001998,15.1295379 0.98001998,14.983017 L0.98001998,2.97502498 C0.98001998,2.86846434 0.99666983,2.74525544 1.02997003,2.60539461 C1.06327023,2.46553377 1.0998999,2.33899491 1.13986014,2.22577423 C1.17982038,2.11255355 1.24308981,1.9960046 1.32967033,1.87612388 C1.41625085,1.75624316 1.50283007,1.65634406 1.58941059,1.57642358 C1.67599111,1.4965031 1.77589021,1.41325385 1.88911089,1.32667333 C2.00233157,1.24009281 2.12221049,1.17016344 2.24875125,1.11688312 C2.37529201,1.0636028 2.49184096,1.0303031 2.5984016,1.01698302 C2.75824256,1.00366294 2.88478142,0.997002997 2.97802198,0.997002997 L19.021978,0.997002997 C19.1684989,0.997002997 19.3050277,1.00699291 19.4315684,1.02697303 C19.5581092,1.04695315 19.6713282,1.08025285 19.7712288,1.12687313 C19.8711294,1.17349341 19.9810184,1.23676284 20.1008991,1.31668332 C20.1941397,1.38328372 20.3006987,1.47652288 20.4205794,1.5964036 C20.51382,1.68964416 20.6003992,1.7962032 20.6803197,1.91608392 C20.7602402,2.03596464 20.8135197,2.14252368 20.8401598,2.23576424 Z M4.2967033,3.91408591 C4.33666354,3.83416543 4.35664336,3.72760639 4.35664336,3.59440559 L4.33666334,3.43456543 C4.33666334,3.38128511 4.32334346,3.33466553 4.2967033,3.29470529 L4.13686314,3.03496503 L4.01698302,2.95504496 C3.9637027,2.9284048 3.92041309,2.90842498 3.88711289,2.8951049 C3.85381269,2.88178482 3.80386314,2.87512488 3.73726274,2.87512488 L3.5974026,2.85514486 L3.43756244,2.87512488 C3.3976022,2.87512488 3.35098262,2.88844476 3.2977023,2.91508492 C3.24442198,2.94172507 3.20113237,2.96503487 3.16783217,2.98501499 C3.13453197,3.0049951 3.09124236,3.04162478 3.03796204,3.09490509 C3.01132188,3.10822517 2.97802218,3.14152488 2.93806194,3.19480519 C2.92474186,3.22144535 2.90476204,3.25474505 2.87812188,3.29470529 L2.83816184,3.43456543 C2.82484176,3.46120559 2.81818182,3.51448511 2.81818182,3.59440559 L2.83816184,3.73426573 L2.85814186,3.83416583 L2.93806194,4.01398601 C2.9647021,4.06726633 2.9980018,4.11055594 3.03796204,4.14385614 C3.07792228,4.17715634 3.11788192,4.20046613 3.15784216,4.21378621 L3.2977023,4.29370629 L3.43756244,4.33366633 C3.47752268,4.34698641 3.5308022,4.35364635 3.5974026,4.35364635 C3.71728332,4.35364635 3.82717233,4.3369965 3.92707293,4.3036963 C4.02697353,4.2703961 4.10356284,4.22377652 4.15684316,4.16383616 C4.21012348,4.1038958 4.25674306,4.02064655 4.2967033,3.91408591 Z M6.17482517,4.15384615 C6.22810549,4.08724575 6.26806513,4.01065644 6.29470529,3.92407592 C6.32134545,3.8374954 6.33466533,3.72760639 6.33466533,3.59440559 L6.33466533,3.43456543 C6.32134525,3.38128511 6.30802537,3.3379955 6.29470529,3.3046953 C6.28138521,3.2713951 6.26140539,3.22810549 6.23476523,3.17482517 L6.13486513,3.03496503 C6.10822498,3.00832488 6.0715953,2.98168511 6.02497502,2.95504496 C5.97835475,2.9284048 5.93506513,2.91508492 5.8951049,2.91508492 L5.77522478,2.87512488 L5.5954046,2.85514486 L5.43556444,2.87512488 C5.3956042,2.87512488 5.35564456,2.88844476 5.31568432,2.91508492 L5.2957043,2.91508492 C5.24242398,2.94172507 5.20246434,2.96836484 5.17582418,2.995005 L5.05594406,3.09490509 C5.01598382,3.12154525 4.98268412,3.15484496 4.95604396,3.19480519 L4.93606394,3.21478521 C4.90942378,3.25474545 4.8961039,3.28804515 4.8961039,3.31468531 C4.86946374,3.35464555 4.85614386,3.40126513 4.85614386,3.45454545 L4.83616384,3.61438561 L4.85614386,3.75424575 C4.85614386,3.80752607 4.86946374,3.84748571 4.8961039,3.87412587 L4.95604396,4.01398601 C4.98268412,4.05394625 5.01265385,4.09057592 5.04595405,4.12387612 C5.07925425,4.15717632 5.12254386,4.18714605 5.17582418,4.21378621 L5.31568432,4.29370629 L5.43556444,4.33366633 C5.4622046,4.34698641 5.51548412,4.35364635 5.5954046,4.35364635 C5.72860539,4.35364635 5.84182438,4.3369965 5.93506494,4.3036963 C6.02830549,4.2703961 6.10822478,4.22044655 6.17482517,4.15384615 Z M19.001998,2.97502498 L6.99400599,2.97502498 L6.99400599,4.17382617 L19.001998,4.17382617 L19.001998,2.97502498 Z M14.6883117,8.63636364 C14.901433,9.13187061 15.007992,9.65400991 15.007992,10.2027972 C15.007992,10.7515845 14.901433,11.2683958 14.6883117,11.7532468 C14.4751904,12.2380977 14.187481,12.6616699 13.8251748,13.023976 C13.4628687,13.3862822 13.0392965,13.6726596 12.5544456,13.8831169 C12.0695946,14.0935741 11.5514513,14.1988012 11,14.1988012 C10.4485487,14.1988012 9.93040535,14.0935741 9.44555445,13.8831169 C8.96070354,13.6726596 8.53713135,13.3862822 8.17482517,13.023976 C7.812519,12.6616699 7.52614158,12.2380977 7.31568432,11.7532468 C7.10522705,11.2683958 7,10.7515845 7,10.2027972 C7,9.65400991 7.10389506,9.13453459 7.31168831,8.64435564 C7.51948156,8.1541767 7.80585898,7.72660855 8.17082917,7.36163836 C8.53579936,6.99666817 8.95937155,6.71029075 9.44155844,6.5024975 C9.92374533,6.29470426 10.4432207,6.19080919 11,6.19080919 C11.5567793,6.19080919 12.0762547,6.29470426 12.5584416,6.5024975 C13.0406285,6.71029075 13.4642006,6.99666817 13.8291708,7.36163836 C14.194141,7.72660855 14.4805184,8.15151273 14.6883117,8.63636364 Z M12.3386613,12.5364635 L13.6653347,10.1948052 L12.3306693,7.86113886 L9.66933067,7.86913087 L8.33466533,10.1948052 L9.66133866,12.5364635 L12.3386613,12.5364635 Z M10.3406593,9.003996 L11.6673327,9.003996 L12.3386613,10.1788212 L11.6673327,11.3456543 L10.3406593,11.3456543 L9.66933067,10.1788212 L10.3406593,9.003996 Z" id="" fill="#2B2826"></path>
            <g id="icons-/-Error_Mark" transform="translate(1.000000, 13.000000)">
                <circle id="Oval" fill="#FFFFFF" fill-rule="nonzero" cx="4" cy="4" r="4"></circle>
                <path d="M4.00666043,0.66666822 C4.60923891,0.667230482 5.16978374,0.820408594 5.68831169,1.12620713 C6.1900347,1.42368891 6.5896311,1.82328531 6.88711289,2.32500833 C7.19347473,2.84449144 7.34665335,3.4050364 7.34665335,4.00666001 C7.34665335,4.60828362 7.19347473,5.16882857 6.88711289,5.68831169 C6.5896311,6.1900347 6.1900347,6.5896311 5.68831169,6.88711289 C5.16882857,7.19347473 4.60828362,7.34665335 4.00666001,7.34665335 C3.4050364,7.34665335 2.84449144,7.19347473 2.32500833,6.88711289 C1.82328531,6.5896311 1.42368891,6.1900347 1.12620713,5.68831169 C0.819845288,5.16882857 0.666666667,4.60828362 0.666666667,4.00666001 C0.666666667,3.4050364 0.819845288,2.84449144 1.12620713,2.32500833 C1.42368891,1.82328531 1.82328531,1.42368891 2.32500833,1.12620713 C2.84353627,0.820408594 3.4040811,0.667230482 4.00665958,0.66666822 L4.00666043,0.66666822 Z M4.00666043,0.66666822 C4.00555043,0.666667185 4.00444029,0.666666667 4.00333,0.666666667 L4.00999001,0.666666667 C4.00887973,0.666666667 4.00776958,0.666667185 4.00665958,0.66666822 L4.00666043,0.66666822 Z M4.34299034,5.67499167 L4.34299034,5.00899101 L3.67032967,5.00899101 L3.67032967,5.67499167 L4.34299034,5.67499167 Z M4.34299034,4.34299034 L4.34299034,2.33832834 L3.67032967,2.33832834 L3.67032967,4.34299034 L4.34299034,4.34299034 Z" id="" fill="#F83200"></path>
            </g>
        </g>
    </g>
</svg>