<?xml version="1.0" encoding="UTF-8"?>
<svg width="20px" height="20px" viewBox="0 0 20 20" version="1.1" xmlns="http://www.w3.org/2000/svg" xmlns:xlink="http://www.w3.org/1999/xlink">
    <!-- Generator: Sketch 51.3 (57544) - http://www.bohemiancoding.com/sketch -->
    <title>icons / classes/ BMC_SoftwareCluster_32</title>
    <desc>Created with Sketch.</desc>
    <defs></defs>
    <g id="icons-/-classes/-BMC_SoftwareCluster_32" stroke="none" stroke-width="1" fill="none" fill-rule="evenodd">
        <g transform="translate(0.000000, -1.000000)">
            <g id="icons-/-20x20-icon-field" transform="translate(0.000000, 1.000000)" fill="#F5A623" fill-rule="nonzero" opacity="0">
                <rect x="0" y="0" width="20" height="20"></rect>
            </g>
            <path d="M7.20578307,5.76310115 C7.21365994,5.79134606 7.22350588,5.82967785 7.23532119,5.87809769 L7.26485932,6.01125158 L7.27667457,6.13835302 C7.28061301,6.15852795 7.28061301,6.19080736 7.27667457,6.23519221 L7.27667457,6.2715069 C7.27667457,6.39659148 7.26682863,6.51158687 7.24713644,6.61649652 C7.22350583,6.73754611 7.19101421,6.84648911 7.14966063,6.94332879 C7.10830705,7.04016846 7.05710814,7.13498922 6.99606238,7.22779391 C6.93501661,7.3205986 6.86609501,7.40634078 6.7892955,7.48502301 C6.71249599,7.56370525 6.63274385,7.63129026 6.55003668,7.68778007 C6.45551421,7.75233985 6.36000856,7.80479389 6.26351686,7.84514375 C6.16702517,7.88549362 6.06167358,7.91979049 5.94745892,7.94803539 C5.85293645,7.96821032 5.74266188,7.97829764 5.61663192,7.97829764 C5.49454039,7.97829764 5.38229663,7.96821032 5.27989728,7.94803539 C5.16174419,7.92382547 5.05442341,7.89053733 4.95793172,7.84816998 C4.86144002,7.80580262 4.76987275,7.75435731 4.68322715,7.69383252 C4.59658155,7.63330772 4.51486022,7.56370525 4.43806071,7.48502301 C4.3612612,7.40634078 4.29233959,7.31958987 4.23129383,7.22476769 C4.17024806,7.1299455 4.11904916,7.03411601 4.07769558,6.93727634 C4.03634199,6.84043666 4.00385038,6.73351113 3.98021976,6.61649652 C3.95658914,6.50755189 3.94477401,6.3925565 3.94477401,6.2715069 L3.95658926,6.2715069 C3.95658926,6.14642232 3.96840439,6.03142693 3.99203501,5.92651729 C4.01566563,5.80546769 4.04815724,5.69652469 4.08951083,5.59968502 C4.13086441,5.50284534 4.18304791,5.40802458 4.24606289,5.3152199 C4.301201,5.23452017 4.36815342,5.15281292 4.44692215,5.07009569 C4.52569087,4.98737847 4.60642761,4.91575854 4.68913477,4.85523374 C4.78365725,4.79067396 4.87719371,4.73721119 4.96974697,4.69484383 C5.06230022,4.65247647 5.16568263,4.6212058 5.27989728,4.60103086 C5.38623507,4.57682095 5.49847882,4.56471617 5.61663192,4.56471617 C5.71115439,4.56471617 5.80961382,4.57480348 5.91201317,4.59497841 C6.00259721,4.61111836 6.09711826,4.63734538 6.19557918,4.67366026 C6.28222478,4.70997514 6.3659153,4.75133313 6.44665324,4.79773547 C6.52739119,4.84413781 6.60714333,4.90163551 6.68591206,4.97023028 C6.74498861,5.01461513 6.79618751,5.06303424 6.83951031,5.11548906 C6.89070999,5.17601386 6.93403214,5.23048536 6.96947806,5.2789052 C7.00492399,5.32732504 7.04233858,5.38986639 7.08172294,5.46653113 C7.11323043,5.52302094 7.14276826,5.58757976 7.17033732,5.66020951 L7.19396782,5.70862911 C7.19396782,5.71669908 7.19593701,5.7267864 7.19987544,5.73889135 L7.20578307,5.76310115 Z M6.87461883,6.54991958 C6.89431101,6.46114987 6.90218777,6.3723815 6.89824933,6.2836118 C6.8943109,6.1948421 6.88446495,6.10708246 6.86871121,6.02033025 C6.85295746,5.93357804 6.8283426,5.8488446 6.79486589,5.76612738 C6.76138918,5.68341015 6.72102082,5.60977276 6.67375958,5.54521297 C6.62255991,5.46854823 6.57037641,5.40197195 6.51720751,5.34548214 C6.46403862,5.28899233 6.40200918,5.23452083 6.33111732,5.18206601 C6.26810234,5.13768116 6.19524236,5.09834063 6.11253519,5.06404324 C6.02982803,5.02974586 5.94613751,5.00351884 5.86146113,4.9853614 C5.77678474,4.96720396 5.69112504,4.95812538 5.60447944,4.95812538 C5.51783383,4.95812538 5.43315872,4.96619523 5.35045156,4.98233518 C5.26774439,4.99847512 5.18700766,5.02268468 5.10823893,5.05496457 C5.02553176,5.09531444 4.95267178,5.13768116 4.8896568,5.18206601 C4.81482651,5.23452083 4.75181247,5.28899233 4.70061279,5.34548214 C4.63759781,5.41004193 4.58639891,5.4766182 4.54701454,5.54521297 C4.49581487,5.62187772 4.45446191,5.69652385 4.42295442,5.7691536 C4.38750849,5.84985333 4.36190903,5.93256931 4.34615529,6.01730403 C4.32252467,6.12221368 4.31070954,6.21098205 4.31070954,6.2836118 C4.31070954,6.3723815 4.32055548,6.46014114 4.34024766,6.54689335 C4.35993985,6.63364556 4.38750849,6.71737027 4.42295442,6.79807 C4.45840034,6.87876973 4.49975331,6.95543332 4.54701454,7.02806308 C4.59427578,7.10069284 4.64547468,7.16323419 4.70061279,7.21568901 C4.75968934,7.28428378 4.82073419,7.33875528 4.88374917,7.37910515 C4.95857947,7.42752498 5.03143945,7.46787424 5.1023313,7.50015413 C5.1889769,7.53646901 5.27168283,7.56471349 5.35045156,7.58488843 C5.43709716,7.60102837 5.52374146,7.60909822 5.61038706,7.60909822 C5.69703266,7.60909822 5.78564615,7.60102837 5.87623019,7.58488843 C5.95499892,7.56471349 6.03573565,7.53646901 6.11844282,7.50015413 C6.20114998,7.46383926 6.27204078,7.42349 6.33111732,7.37910515 C6.40594762,7.32665032 6.47093084,7.27217882 6.52606895,7.21568901 C6.58908393,7.15516422 6.64028284,7.0906054 6.6796672,7.02201063 C6.73086688,6.94534589 6.77221984,6.8686823 6.80372733,6.79201755 C6.83129639,6.72745777 6.85492665,6.64675925 6.87461883,6.54991958 Z M5.99370823,5.87809769 C6.03703103,5.92248254 6.07149184,5.97291912 6.09709167,6.02940893 C6.12269151,6.08589874 6.13942961,6.14440516 6.14730649,6.20492996 L6.14730649,6.26545445 C6.14730649,6.32194426 6.13942973,6.37540703 6.12367599,6.42584436 C6.10792224,6.47628169 6.08429198,6.527727 6.05278448,6.58018182 C6.02521543,6.62456667 5.99173922,6.6639072 5.95235486,6.69820459 C5.91297049,6.73250197 5.86767915,6.76175518 5.81647948,6.7859651 L5.79284898,6.79807 L5.7751261,6.8101749 L5.69832698,6.8343847 L5.67469648,6.8343847 C5.67075804,6.83841969 5.6609121,6.84043715 5.64515835,6.84043715 C5.64121992,6.84447213 5.63137397,6.8464896 5.61562023,6.8464896 L5.5624516,6.8464896 L5.55063635,6.84043715 C5.47974449,6.83236718 5.41476127,6.81421001 5.35568472,6.7859651 C5.29660818,6.7577202 5.24540927,6.72140586 5.20208647,6.67702101 C5.1508868,6.62456619 5.11347221,6.56908596 5.08984159,6.51057866 C5.06621097,6.45207135 5.05242665,6.39053873 5.04848822,6.32597895 L5.04258059,6.30176915 L5.04258059,6.2715069 C5.04258059,6.21501709 5.05144194,6.15953686 5.0691649,6.10506454 C5.08688787,6.05059223 5.11347192,5.99813819 5.14891784,5.94770086 C5.18436377,5.89726353 5.22473214,5.85590554 5.27002416,5.82362565 C5.31531618,5.79134575 5.3635613,5.76511874 5.41476097,5.7449438 L5.4442991,5.73283891 C5.45217597,5.72880392 5.4639911,5.72678646 5.47974485,5.72678646 C5.48368329,5.72275147 5.49352923,5.71871654 5.50928297,5.71468156 L5.54472873,5.71468156 L5.55654398,5.70862911 L5.66878885,5.70862911 C5.73180384,5.71669908 5.7898949,5.73384752 5.84306379,5.76007493 C5.89623268,5.78630234 5.946447,5.82564287 5.99370823,5.87809769 Z M5.83386513,6.35624119 C5.841742,6.33203128 5.84568038,6.30479553 5.84568038,6.27453313 C5.84568038,6.24427073 5.8407574,6.21602625 5.83091131,6.18979884 C5.82106522,6.16357142 5.80531171,6.13936187 5.78365031,6.11716944 C5.76198891,6.09497702 5.73835865,6.07782858 5.71275881,6.06572362 C5.68715897,6.05361866 5.65860574,6.04756627 5.62709825,6.04756627 C5.59559076,6.04756627 5.56703752,6.05361866 5.54143768,6.06572362 C5.51583785,6.07782858 5.49319218,6.09396829 5.47349999,6.11414322 C5.45380781,6.13431815 5.4380543,6.15751897 5.42623899,6.18374639 C5.41442368,6.2099738 5.40851612,6.23922701 5.40851612,6.2715069 C5.40851612,6.30378679 5.41442368,6.33304001 5.42623899,6.35926742 C5.4380543,6.38549483 5.45380781,6.40869566 5.47349999,6.42887059 C5.49319218,6.44904552 5.51583785,6.46518522 5.54143768,6.47729018 C5.56703752,6.48939514 5.59559076,6.49544753 5.62709825,6.49544753 C5.65860574,6.49544753 5.68715897,6.48939514 5.71275881,6.47729018 C5.73835865,6.46518522 5.76198891,6.44904552 5.78365031,6.42887059 C5.80531171,6.40869566 5.82204982,6.3844861 5.83386513,6.35624119 Z M10.9122632,1.70486817 C10.941509,1.77228423 10.9634429,1.84157193 10.9780658,1.91273333 C10.9926887,1.98389474 11,2.05318244 11,2.1205985 L11,8.88464345 C11,8.95205951 10.989033,9.02696513 10.9670987,9.10936255 C10.9597873,9.16928794 10.941509,9.236703 10.9122632,9.31160974 C10.8903289,9.36404446 10.8537723,9.42771423 10.8025922,9.50262097 C10.7733465,9.56254637 10.723995,9.62247086 10.6545364,9.68239626 C10.5850778,9.74232165 10.528415,9.78726502 10.4845464,9.81722772 C10.4041206,9.86217176 10.3383186,9.89587929 10.2871386,9.91835131 C10.2359585,9.94082333 10.1756401,9.95954974 10.1061815,9.97453109 C10.0367228,9.98951244 9.96543739,9.997003 9.89232303,9.997003 L1.09670987,9.997003 C1.03821838,9.997003 0.972416451,9.98951244 0.899302094,9.97453109 C0.826187737,9.95954974 0.75673014,9.94082333 0.690927218,9.91835131 C0.647058604,9.89587929 0.588567996,9.86217176 0.515453639,9.81722772 L0.50448654,9.81722772 C0.467929362,9.78726502 0.413094417,9.73857637 0.33998006,9.6711603 C0.281488574,9.62621626 0.230309292,9.57003704 0.186440678,9.50262097 C0.1498835,9.45767693 0.116982532,9.39587979 0.0877367896,9.31722772 C0.0584910469,9.23857564 0.0365570688,9.16554266 0.0219341974,9.09812659 C0.00731132602,9.03071053 0,8.95955019 0,8.88464345 L0,2.1205985 C0,2.05318244 0.00913915753,1.98014946 0.0274177468,1.90149738 C0.045696336,1.8228453 0.0658024826,1.7535576 0.0877367896,1.69363221 C0.109671097,1.63370682 0.144399895,1.57190968 0.191924227,1.50823895 C0.239448559,1.44456822 0.285144347,1.39026165 0.329012961,1.3453176 C0.372881575,1.30037356 0.431372183,1.24793963 0.50448654,1.18801423 C0.55566659,1.15056086 0.617812861,1.11685333 0.690927218,1.08689064 C0.764041575,1.05692794 0.833499172,1.03445626 0.899302094,1.01947491 C0.965105015,1.00449356 1.03090695,0.997002997 1.09670987,0.997002997 L9.90329013,0.997002997 C9.96909305,0.997002997 10.0422063,1.00449356 10.1226321,1.01947491 C10.1811236,1.03445626 10.2469255,1.05692794 10.3200399,1.08689064 C10.3565971,1.10936266 10.4150877,1.14307019 10.4955135,1.18801423 C10.5466935,1.21797693 10.6051841,1.27041086 10.670987,1.3453176 C10.7221671,1.39775232 10.766035,1.45393154 10.8025922,1.51385693 L10.8245264,1.54756479 C10.8610836,1.61498086 10.8903289,1.66741479 10.9122632,1.70486817 Z M1.04187438,2.62621648 C1.05649725,2.66366985 1.0711199,2.68988682 1.08574277,2.70486817 L1.12961117,2.7722839 L1.27218345,2.85093558 C1.30142919,2.86591693 1.32701883,2.87715277 1.34895314,2.88464345 L1.43668993,2.88464345 C1.50980429,2.88464345 1.57012273,2.87528024 1.61764706,2.85655356 C1.66517139,2.83782687 1.70721152,2.81160991 1.74376869,2.77790187 C1.78032587,2.74419384 1.80774334,2.70112311 1.82602193,2.64868839 C1.84430052,2.59625367 1.85343968,2.5325839 1.85343968,2.45767715 L1.84247258,2.36778951 C1.84247258,2.36029884 1.83881692,2.349063 1.83150548,2.33408165 L1.77666999,2.2217221 L1.71635095,2.15992435 C1.69807236,2.14119766 1.68162187,2.12808918 1.666999,2.1205985 L1.59022931,2.08689064 C1.568295,2.07190929 1.54270536,2.06441873 1.51345962,2.06441873 L1.43668993,2.05318277 L1.34895314,2.06441873 C1.3197074,2.06441873 1.29411776,2.07190929 1.27218345,2.08689064 L1.14057827,2.17677828 L1.07477567,2.24419401 C1.06746424,2.25917536 1.06015291,2.27790176 1.05284148,2.30037378 L1.04187438,2.31160974 C1.02725151,2.33408176 1.01994018,2.36029873 1.01994018,2.39026142 L1.00897308,2.45767715 L1.01994018,2.54756479 L1.04187438,2.62621648 Z M9.90329013,3.70486817 L1.09670987,3.70486817 L1.09670987,8.88464345 L9.90329013,8.88464345 L9.90329013,3.70486817 Z M2.14955135,2.31160974 C2.13492847,2.33408176 2.12761715,2.36029873 2.12761715,2.39026142 L2.11665005,2.46891311 L2.12761715,2.55880075 C2.12761715,2.58127277 2.13310064,2.60374446 2.1440678,2.62621648 L2.18245264,2.70486817 C2.18976408,2.71984951 2.20804239,2.7423212 2.23728814,2.7722839 L2.37986042,2.85093558 C2.40179473,2.86591693 2.42190087,2.87528013 2.44017946,2.87902547 C2.45845805,2.88277081 2.48953119,2.88464345 2.5333998,2.88464345 C2.60651416,2.88464345 2.66866043,2.87715288 2.71984048,2.86217154 C2.77102053,2.84719019 2.81123282,2.82284586 2.84047856,2.78913783 C2.86972431,2.75542979 2.89531395,2.71235906 2.91724826,2.65992435 C2.93918256,2.60748963 2.95014955,2.54007457 2.95014955,2.45767715 L2.93918245,2.37902547 C2.93918245,2.35655345 2.93369896,2.33220912 2.9227318,2.30599176 C2.91176465,2.2797744 2.89896983,2.25543008 2.88434696,2.23295805 L2.87337986,2.2217221 C2.85875699,2.19925008 2.84413434,2.18052367 2.82951147,2.16554232 L2.76370887,2.1205985 L2.69790628,2.08689064 C2.66866054,2.07190929 2.6430709,2.06067345 2.62113659,2.05318277 L2.44566301,2.05318277 C2.4237287,2.06067345 2.39996689,2.07190929 2.37437687,2.08689064 C2.34878684,2.10187199 2.32502503,2.11685311 2.30309073,2.13183446 L2.23728814,2.18801423 L2.18245264,2.24419401 C2.16782977,2.26666603 2.15686278,2.28913772 2.14955135,2.31160974 Z M9.90329013,2.1205985 L3.30109671,2.1205985 L3.30109671,2.79475581 L9.90329013,2.79475581 L9.90329013,2.1205985 Z" id="" fill="#2B2826"></path>
            <path d="M17.2405695,8.38031495 C17.2462981,8.40036517 17.2534588,8.42757578 17.2620518,8.46194759 L17.2835341,8.55646959 L17.292127,8.64669513 C17.2949913,8.66101672 17.2949913,8.68393092 17.292127,8.71543841 L17.292127,8.74121714 C17.292127,8.83001098 17.2849663,8.9116428 17.2706447,8.98611505 C17.2534588,9.07204457 17.2298285,9.14937998 17.1997532,9.2181236 C17.1696779,9.28686722 17.1324423,9.35417767 17.0880454,9.42005697 C17.0436484,9.48593627 16.9935236,9.5468021 16.9376695,9.60265629 C16.8818153,9.65851048 16.8238137,9.70648707 16.763663,9.74658752 C16.6949194,9.7924166 16.6254608,9.82965216 16.555285,9.85829534 C16.4851092,9.88693851 16.4084899,9.91128484 16.3254247,9.93133507 C16.2566811,9.94565665 16.1764814,9.95281734 16.0848232,9.95281734 C15.9960294,9.95281734 15.9143976,9.94565665 15.8399253,9.93133507 C15.7539958,9.91414916 15.6759443,9.8905189 15.6057685,9.86044356 C15.5355927,9.83036823 15.4689984,9.79384873 15.4059834,9.75088397 C15.3429684,9.70791921 15.2835347,9.65851048 15.2276805,9.60265629 C15.1718263,9.5468021 15.1217015,9.4852202 15.0773046,9.41790874 C15.0329077,9.35059728 14.9956721,9.28257076 14.9655968,9.21382714 C14.9355214,9.14508353 14.9118912,9.06918025 14.8947053,8.98611505 C14.8775194,8.90877848 14.8689266,8.82714666 14.8689266,8.74121714 L14.8775195,8.74121714 C14.8775195,8.6524233 14.8861123,8.57079147 14.9032982,8.49631922 C14.9204841,8.4103897 14.9441144,8.33305429 14.9741897,8.26431067 C15.004265,8.19556706 15.0422167,8.12825661 15.0880457,8.06237731 C15.1281462,8.00509096 15.1768388,7.9470894 15.2341252,7.88837089 C15.2914115,7.82965239 15.3501292,7.77881152 15.4102798,7.73584675 C15.4790235,7.69001768 15.54705,7.65206604 15.6143614,7.62199071 C15.6816729,7.59191537 15.7568601,7.56971725 15.8399253,7.55539566 C15.9172619,7.53820976 15.9988937,7.52961693 16.0848232,7.52961693 C16.1535668,7.52961693 16.2251737,7.53677762 16.2996459,7.55109921 C16.3655252,7.56255648 16.4342678,7.58117426 16.5058758,7.60695312 C16.5688907,7.63273197 16.6297566,7.66209079 16.6884751,7.69503044 C16.7471936,7.72797009 16.8051951,7.768786 16.8624815,7.81747939 C16.9054463,7.84898688 16.9426818,7.88335818 16.9741893,7.9205943 C17.0114254,7.96355906 17.0429325,8.00222677 17.0687113,8.03659858 C17.0944902,8.07097039 17.1217008,8.11536664 17.150344,8.16978867 C17.1732585,8.20988911 17.1947406,8.25571751 17.2147908,8.30727522 L17.2319766,8.34164686 C17.2319766,8.34737549 17.2334087,8.35453618 17.236273,8.36312913 L17.2405695,8.38031495 Z M16.9997228,8.93885405 C17.0140444,8.87583907 17.0197729,8.81282503 17.0169086,8.74981004 C17.0140443,8.68679506 17.0068836,8.62449709 16.9954263,8.56291427 C16.9839691,8.50133144 16.9660673,8.44118168 16.9417206,8.38246317 C16.917374,8.32374467 16.8880151,8.27147166 16.8536433,8.22564258 C16.8164072,8.17122055 16.7784556,8.12396002 16.7397873,8.08385958 C16.701119,8.04375914 16.6560067,8.00509143 16.604449,7.9678553 C16.5586199,7.93634781 16.5056308,7.90842114 16.4454801,7.88407444 C16.3853295,7.85972774 16.3244636,7.84110996 16.2628808,7.82822053 C16.201298,7.8153311 16.139,7.80888648 16.075985,7.80888648 C16.0129701,7.80888648 15.9513882,7.81461503 15.8912375,7.8260723 C15.8310868,7.83752957 15.7723692,7.85471522 15.7150829,7.87762976 C15.6549322,7.90627293 15.6019431,7.93634781 15.556114,7.9678553 C15.501692,8.00509143 15.4558636,8.04375914 15.4186275,8.08385958 C15.3727984,8.12968866 15.3355628,8.17694919 15.3069197,8.22564258 C15.2696835,8.28006461 15.2396087,8.33305369 15.2166941,8.3846114 C15.1909153,8.44189775 15.1722975,8.50061538 15.1608402,8.56076604 C15.1436543,8.63523829 15.1350615,8.69825233 15.1350615,8.74981004 C15.1350615,8.81282503 15.1422222,8.875123 15.1565438,8.93670582 C15.1708653,8.99828865 15.1909153,9.05772234 15.2166941,9.11500869 C15.242473,9.17229504 15.2725479,9.22671625 15.3069197,9.27827396 C15.3412915,9.32983168 15.378527,9.37422793 15.4186275,9.41146406 C15.4615922,9.46015745 15.5059885,9.49882516 15.5518176,9.52746833 C15.6062396,9.56184014 15.6592287,9.59048288 15.7107864,9.61339742 C15.7738014,9.63917628 15.8339511,9.6592262 15.8912375,9.67354779 C15.9542525,9.68500506 16.0172665,9.69073361 16.0802815,9.69073361 C16.1432965,9.69073361 16.2077427,9.68500506 16.273622,9.67354779 C16.3309083,9.6592262 16.3896259,9.63917628 16.4497766,9.61339742 C16.5099273,9.58761857 16.5614842,9.55897582 16.604449,9.52746833 C16.658871,9.4902322 16.7061315,9.4515645 16.746232,9.41146406 C16.792061,9.3684993 16.8292966,9.3226709 16.8579398,9.27397751 C16.8951759,9.21955548 16.9252508,9.16513426 16.9481653,9.11071223 C16.9682156,9.06488315 16.9854012,9.00759767 16.9997228,8.93885405 Z M16.3590605,8.46194759 C16.390568,8.49345508 16.4156304,8.52925851 16.4342485,8.56935895 C16.4528666,8.60945939 16.4650397,8.65099137 16.4707684,8.69395613 L16.4707684,8.73692068 C16.4707684,8.77702112 16.4650398,8.81497276 16.4535825,8.85077673 C16.4421253,8.8865807 16.4249396,8.9231002 16.4020251,8.96033632 C16.3819749,8.99184381 16.3576285,9.01977049 16.3289854,9.04411719 C16.3003422,9.06846388 16.267403,9.08922987 16.2301669,9.10641578 L16.2129811,9.11500869 L16.2000917,9.1236016 L16.1442378,9.14078742 L16.127052,9.14078742 C16.1241877,9.14365173 16.117027,9.14508387 16.1055697,9.14508387 C16.1027054,9.14794819 16.0955447,9.14938032 16.0840874,9.14938032 L16.0454193,9.14938032 L16.0368264,9.14508387 C15.9852687,9.13935524 15.9380082,9.126466 15.8950434,9.10641578 C15.8520787,9.08636556 15.8148431,9.06058709 15.7833356,9.0290796 C15.7460995,8.99184347 15.7188889,8.9524597 15.701703,8.91092709 C15.6845171,8.86939449 15.6744921,8.82571431 15.6716278,8.77988523 L15.6673313,8.76269941 L15.6673313,8.74121714 C15.6673313,8.70111669 15.673776,8.66173292 15.6866654,8.62306463 C15.6995548,8.58439635 15.7188887,8.54716078 15.7446675,8.51135681 C15.7704464,8.47555285 15.7998052,8.44619403 15.8327448,8.42327949 C15.8656845,8.40036495 15.9007719,8.38174717 15.938008,8.36742558 L15.9594903,8.35883267 C15.9652189,8.35596836 15.9738117,8.35453622 15.985269,8.35453622 C15.9881333,8.3516719 15.995294,8.34880763 16.0067513,8.34594331 L16.03253,8.34594331 L16.0411229,8.34164686 L16.1227555,8.34164686 C16.1685846,8.34737549 16.2108327,8.35954866 16.2495009,8.37816672 C16.2881692,8.39678478 16.3246887,8.42471146 16.3590605,8.46194759 Z M16.242811,8.8013675 C16.2485396,8.7841816 16.2514039,8.76484774 16.2514039,8.74336536 C16.2514039,8.72188298 16.2478236,8.70183306 16.2406628,8.683215 C16.233502,8.66459694 16.2220449,8.64741129 16.2062911,8.63165754 C16.1905374,8.6159038 16.1733517,8.60373063 16.1547337,8.59513768 C16.1361156,8.58654473 16.1153496,8.58224831 16.0924351,8.58224831 C16.0695205,8.58224831 16.0487546,8.58654473 16.0301365,8.59513768 C16.0115184,8.60373063 15.9950489,8.61518773 15.9807273,8.62950932 C15.9664057,8.6438309 15.9549486,8.66030048 15.9463556,8.67891854 C15.9377627,8.69753661 15.9334663,8.7183026 15.9334663,8.74121714 C15.9334663,8.76413167 15.9377627,8.78489766 15.9463556,8.80351573 C15.9549486,8.82213379 15.9664057,8.83860337 15.9807273,8.85292496 C15.9950489,8.86724654 16.0115184,8.87870364 16.0301365,8.88729659 C16.0487546,8.89588955 16.0695205,8.90018596 16.0924351,8.90018596 C16.1153496,8.90018596 16.1361156,8.89588955 16.1547337,8.88729659 C16.1733517,8.87870364 16.1905374,8.86724654 16.2062911,8.85292496 C16.2220449,8.83860337 16.234218,8.82141772 16.242811,8.8013675 Z M19.9361914,5.49949552 C19.9574611,5.54735219 19.973413,5.59653747 19.9840479,5.64705285 C19.9946827,5.69756822 20,5.74675351 20,5.79461018 L20,10.5962054 C20,10.6440621 19.992024,10.6972353 19.9760718,10.7557268 C19.9707544,10.7982661 19.9574611,10.846122 19.9361914,10.8992961 C19.9202392,10.936518 19.8936526,10.9817153 19.8564307,11.0348893 C19.8351611,11.0774286 19.7992691,11.1199672 19.7487537,11.1625065 C19.6982384,11.2050457 19.6570291,11.2369497 19.6251246,11.2582193 C19.5666331,11.2901238 19.5187772,11.3140518 19.4815553,11.330004 C19.4443335,11.3459562 19.4004655,11.3592495 19.3499501,11.3698844 C19.2994348,11.3805192 19.2475908,11.3858365 19.1944167,11.3858365 L12.7976072,11.3858365 C12.7550679,11.3858365 12.707212,11.3805192 12.6540379,11.3698844 C12.6008638,11.3592495 12.5503492,11.3459562 12.5024925,11.330004 C12.4705881,11.3140518 12.4280495,11.2901238 12.3748754,11.2582193 L12.3668993,11.2582193 C12.3403123,11.2369497 12.3004323,11.2023871 12.2472582,11.1545304 C12.204719,11.122626 12.1674977,11.082746 12.1355932,11.0348893 C12.1090062,11.0029849 12.0850782,10.9591169 12.0638086,10.9032842 C12.0425389,10.8474514 12.026587,10.7956074 12.0159521,10.7477508 C12.0053173,10.6998941 12,10.6493795 12,10.5962054 L12,5.79461018 C12,5.74675351 12.0066467,5.69490956 12.0199402,5.63907678 C12.0332337,5.58324399 12.0478564,5.53405871 12.0638086,5.49151945 C12.0797608,5.44898019 12.1050181,5.40511223 12.1395813,5.35991426 C12.1741444,5.3147163 12.2073777,5.27616567 12.2392822,5.24426122 C12.2711866,5.21235678 12.3137252,5.17513548 12.3668993,5.13259622 C12.4041212,5.10600918 12.4493184,5.0820812 12.5024925,5.06081157 C12.5556666,5.03954194 12.6061812,5.02358996 12.6540379,5.01295514 C12.7018946,5.00232033 12.7497505,4.997003 12.7976072,4.997003 L19.2023928,4.997003 C19.2502495,4.997003 19.3034228,5.00232033 19.3619143,5.01295514 C19.4044535,5.02358996 19.4523095,5.03954194 19.5054835,5.06081157 C19.5320706,5.07676379 19.5746092,5.10069177 19.6331007,5.13259622 C19.6703226,5.15386585 19.7128612,5.19108714 19.7607178,5.24426122 C19.7979397,5.28148308 19.8298437,5.32136304 19.8564307,5.3639023 L19.8723829,5.38783051 C19.8989699,5.43568718 19.9202392,5.47290848 19.9361914,5.49949552 Z M12.7577268,6.15353341 C12.7683616,6.18012044 12.7789963,6.19873109 12.7896311,6.20936591 L12.8215354,6.25722234 L12.9252243,6.31305484 C12.946494,6.32368966 12.9651046,6.33166565 12.9810568,6.33698306 L13.0448654,6.33698306 C13.0980395,6.33698306 13.1419074,6.3303364 13.1764706,6.31704288 C13.2110337,6.30374936 13.2416084,6.28513871 13.2681954,6.26121037 C13.2947825,6.23728204 13.3147224,6.2067074 13.328016,6.16948555 C13.3413095,6.13226369 13.3479561,6.08706641 13.3479561,6.03389233 L13.3399801,5.97008375 C13.3399801,5.96476635 13.3373214,5.95679035 13.332004,5.94615554 L13.2921236,5.86639482 L13.2482552,5.82252643 C13.2349617,5.80923291 13.2229977,5.79992758 13.2123629,5.79461018 L13.1565304,5.77068196 C13.1405782,5.76004714 13.1219675,5.75472982 13.1006979,5.75472982 L13.0448654,5.74675374 L12.9810568,5.75472982 C12.9597872,5.75472982 12.9411766,5.76004714 12.9252243,5.77068196 L12.8295115,5.83449053 L12.781655,5.88234697 C12.7763376,5.89298178 12.7710203,5.9062751 12.7657029,5.92222732 L12.7577268,5.9302034 C12.747092,5.94615562 12.7417747,5.96476627 12.7417747,5.9860359 L12.7337986,6.03389233 L12.7417747,6.0977009 L12.7577268,6.15353341 Z M19.2023928,6.9192363 L12.7976072,6.9192363 L12.7976072,10.5962054 L19.2023928,10.5962054 L19.2023928,6.9192363 Z M13.5633101,5.9302034 C13.5526753,5.94615562 13.5473579,5.96476627 13.5473579,5.9860359 L13.5393819,6.0418684 L13.5473579,6.10567698 C13.5473579,6.1216292 13.5513459,6.13758118 13.559322,6.15353341 L13.5872383,6.20936591 C13.5925557,6.22000072 13.605849,6.23595271 13.6271186,6.25722234 L13.7308076,6.31305484 C13.7467598,6.32368966 13.7613825,6.33033632 13.774676,6.33299502 C13.7879695,6.33565372 13.8105681,6.33698306 13.8424726,6.33698306 C13.8956467,6.33698306 13.9408439,6.33166573 13.9780658,6.32103091 C14.0152877,6.3103961 14.044533,6.29311478 14.0658026,6.26918645 C14.0870722,6.24525811 14.1056829,6.21468348 14.1216351,6.17746162 C14.1375873,6.14023977 14.1455633,6.09238381 14.1455633,6.03389233 L14.1375872,5.97805983 C14.1375872,5.9621076 14.1335992,5.94482629 14.1256231,5.92621536 C14.117647,5.90760443 14.1083417,5.89032312 14.0977069,5.87437089 L14.0897308,5.86639482 C14.079096,5.8504426 14.0684613,5.83714928 14.0578265,5.82651446 L14.0099701,5.79461018 L13.9621137,5.77068196 C13.940844,5.76004714 13.9222334,5.75207115 13.9062812,5.74675374 L13.778664,5.74675374 C13.7627118,5.75207115 13.7454305,5.76004714 13.7268195,5.77068196 C13.7082086,5.78131678 13.6909273,5.79195143 13.6749751,5.80258625 L13.6271186,5.84246661 L13.5872383,5.88234697 C13.5766035,5.89829919 13.5686275,5.91425117 13.5633101,5.9302034 Z M19.2023928,5.79461018 L14.4007976,5.79461018 L14.4007976,6.27317448 L19.2023928,6.27317448 L19.2023928,5.79461018 Z" id="-copy" fill="#2B2826"></path>
            <path d="M8.20578307,16.7660982 C8.21365994,16.7943431 8.22350588,16.8326749 8.23532119,16.8810947 L8.26485932,17.0142486 L8.27667457,17.14135 C8.28061301,17.161525 8.28061301,17.1938044 8.27667457,17.2381892 L8.27667457,17.2745039 C8.27667457,17.3995885 8.26682863,17.5145839 8.24713644,17.6194935 C8.22350583,17.7405431 8.19101421,17.8494861 8.14966063,17.9463258 C8.10830705,18.0431655 8.05710814,18.1379862 7.99606238,18.2307909 C7.93501661,18.3235956 7.86609501,18.4093378 7.7892955,18.48802 C7.71249599,18.5667022 7.63274385,18.6342873 7.55003668,18.6907771 C7.45551421,18.7553369 7.36000856,18.8077909 7.26351686,18.8481408 C7.16702517,18.8884906 7.06167358,18.9227875 6.94745892,18.9510324 C6.85293645,18.9712073 6.74266188,18.9812946 6.61663192,18.9812946 C6.49454039,18.9812946 6.38229663,18.9712073 6.27989728,18.9510324 C6.16174419,18.9268225 6.05442341,18.8935343 5.95793172,18.851167 C5.86144002,18.8087996 5.76987275,18.7573543 5.68322715,18.6968295 C5.59658155,18.6363047 5.51486022,18.5667022 5.43806071,18.48802 C5.3612612,18.4093378 5.29233959,18.3225869 5.23129383,18.2277647 C5.17024806,18.1329425 5.11904916,18.037113 5.07769558,17.9402733 C5.03634199,17.8434337 5.00385038,17.7365081 4.98021976,17.6194935 C4.95658914,17.5105489 4.94477401,17.3955535 4.94477401,17.2745039 L4.95658926,17.2745039 C4.95658926,17.1494193 4.96840439,17.0344239 4.99203501,16.9295143 C5.01566563,16.8084647 5.04815724,16.6995217 5.08951083,16.602682 C5.13086441,16.5058423 5.18304791,16.4110216 5.24606289,16.3182169 C5.301201,16.2375172 5.36815342,16.1558099 5.44692215,16.0730927 C5.52569087,15.9903755 5.60642761,15.9187555 5.68913477,15.8582307 C5.78365725,15.793671 5.87719371,15.7402082 5.96974697,15.6978408 C6.06230022,15.6554735 6.16568263,15.6242028 6.27989728,15.6040279 C6.38623507,15.5798179 6.49847882,15.5677132 6.61663192,15.5677132 C6.71115439,15.5677132 6.80961382,15.5778005 6.91201317,15.5979754 C7.00259721,15.6141154 7.09711826,15.6403424 7.19557918,15.6766573 C7.28222478,15.7129721 7.3659153,15.7543301 7.44665324,15.8007325 C7.52739119,15.8471348 7.60714333,15.9046325 7.68591206,15.9732273 C7.74498861,16.0176121 7.79618751,16.0660312 7.83951031,16.1184861 C7.89070999,16.1790109 7.93403214,16.2334824 7.96947806,16.2819022 C8.00492399,16.330322 8.04233858,16.3928634 8.08172294,16.4695281 C8.11323043,16.5260179 8.14276826,16.5905768 8.17033732,16.6632065 L8.19396782,16.7116261 C8.19396782,16.7196961 8.19593701,16.7297834 8.19987544,16.7418884 L8.20578307,16.7660982 Z M7.87461883,17.5529166 C7.89431101,17.4641469 7.90218777,17.3753785 7.89824933,17.2866088 C7.8943109,17.1978391 7.88446495,17.1100795 7.86871121,17.0233273 C7.85295746,16.936575 7.8283426,16.8518416 7.79486589,16.7691244 C7.76138918,16.6864072 7.72102082,16.6127698 7.67375958,16.54821 C7.62255991,16.4715452 7.57037641,16.404969 7.51720751,16.3484791 C7.46403862,16.2919893 7.40200918,16.2375178 7.33111732,16.185063 C7.26810234,16.1406782 7.19524236,16.1013376 7.11253519,16.0670402 C7.02982803,16.0327429 6.94613751,16.0065158 6.86146113,15.9883584 C6.77678474,15.970201 6.69112504,15.9611224 6.60447944,15.9611224 C6.51783383,15.9611224 6.43315872,15.9691922 6.35045156,15.9853322 C6.26774439,16.0014721 6.18700766,16.0256817 6.10823893,16.0579616 C6.02553176,16.0983114 5.95267178,16.1406782 5.8896568,16.185063 C5.81482651,16.2375178 5.75181247,16.2919893 5.70061279,16.3484791 C5.63759781,16.4130389 5.58639891,16.4796152 5.54701454,16.54821 C5.49581487,16.6248747 5.45446191,16.6995208 5.42295442,16.7721506 C5.38750849,16.8528503 5.36190903,16.9355663 5.34615529,17.020301 C5.32252467,17.1252107 5.31070954,17.213979 5.31070954,17.2866088 C5.31070954,17.3753785 5.32055548,17.4631381 5.34024766,17.5498904 C5.35993985,17.6366426 5.38750849,17.7203673 5.42295442,17.801067 C5.45840034,17.8817667 5.49975331,17.9584303 5.54701454,18.0310601 C5.59427578,18.1036898 5.64547468,18.1662312 5.70061279,18.218686 C5.75968934,18.2872808 5.82073419,18.3417523 5.88374917,18.3821021 C5.95857947,18.430522 6.03143945,18.4708712 6.1023313,18.5031511 C6.1889769,18.539466 6.27168283,18.5677105 6.35045156,18.5878854 C6.43709716,18.6040254 6.52374146,18.6120952 6.61038706,18.6120952 C6.69703266,18.6120952 6.78564615,18.6040254 6.87623019,18.5878854 C6.95499892,18.5677105 7.03573565,18.539466 7.11844282,18.5031511 C7.20114998,18.4668363 7.27204078,18.426487 7.33111732,18.3821021 C7.40594762,18.3296473 7.47093084,18.2751758 7.52606895,18.218686 C7.58908393,18.1581612 7.64028284,18.0936024 7.6796672,18.0250076 C7.73086688,17.9483429 7.77221984,17.8716793 7.80372733,17.7950146 C7.83129639,17.7304548 7.85492665,17.6497563 7.87461883,17.5529166 Z M6.99370823,16.8810947 C7.03703103,16.9254795 7.07149184,16.9759161 7.09709167,17.0324059 C7.12269151,17.0888957 7.13942961,17.1474022 7.14730649,17.207927 L7.14730649,17.2684515 C7.14730649,17.3249413 7.13942973,17.378404 7.12367599,17.4288414 C7.10792224,17.4792787 7.08429198,17.530724 7.05278448,17.5831788 C7.02521543,17.6275637 6.99173922,17.6669042 6.95235486,17.7012016 C6.91297049,17.735499 6.86767915,17.7647522 6.81647948,17.7889621 L6.79284898,17.801067 L6.7751261,17.8131719 L6.69832698,17.8373817 L6.67469648,17.8373817 C6.67075804,17.8414167 6.6609121,17.8434342 6.64515835,17.8434342 C6.64121992,17.8474691 6.63137397,17.8494866 6.61562023,17.8494866 L6.5624516,17.8494866 L6.55063635,17.8434342 C6.47974449,17.8353642 6.41476127,17.817207 6.35568472,17.7889621 C6.29660818,17.7607172 6.24540927,17.7244029 6.20208647,17.680018 C6.1508868,17.6275632 6.11347221,17.572083 6.08984159,17.5135757 C6.06621097,17.4550684 6.05242665,17.3935357 6.04848822,17.328976 L6.04258059,17.3047662 L6.04258059,17.2745039 C6.04258059,17.2180141 6.05144194,17.1625339 6.0691649,17.1080615 C6.08688787,17.0535892 6.11347192,17.0011352 6.14891784,16.9506979 C6.18436377,16.9002605 6.22473214,16.8589025 6.27002416,16.8266226 C6.31531618,16.7943428 6.3635613,16.7681157 6.41476097,16.7479408 L6.4442991,16.7358359 C6.45217597,16.7318009 6.4639911,16.7297835 6.47974485,16.7297835 C6.48368329,16.7257485 6.49352923,16.7217135 6.50928297,16.7176786 L6.54472873,16.7176786 L6.55654398,16.7116261 L6.66878885,16.7116261 C6.73180384,16.7196961 6.7898949,16.7368445 6.84306379,16.7630719 C6.89623268,16.7892993 6.946447,16.8286399 6.99370823,16.8810947 Z M6.83386513,17.3592382 C6.841742,17.3350283 6.84568038,17.3077925 6.84568038,17.2775301 C6.84568038,17.2472677 6.8407574,17.2190233 6.83091131,17.1927958 C6.82106522,17.1665684 6.80531171,17.1423589 6.78365031,17.1201664 C6.76198891,17.097974 6.73835865,17.0808256 6.71275881,17.0687206 C6.68715897,17.0566157 6.65860574,17.0505633 6.62709825,17.0505633 C6.59559076,17.0505633 6.56703752,17.0566157 6.54143768,17.0687206 C6.51583785,17.0808256 6.49319218,17.0969653 6.47349999,17.1171402 C6.45380781,17.1373152 6.4380543,17.160516 6.42623899,17.1867434 C6.41442368,17.2129708 6.40851612,17.242224 6.40851612,17.2745039 C6.40851612,17.3067838 6.41442368,17.336037 6.42623899,17.3622644 C6.4380543,17.3884918 6.45380781,17.4116927 6.47349999,17.4318676 C6.49319218,17.4520425 6.51583785,17.4681822 6.54143768,17.4802872 C6.56703752,17.4923921 6.59559076,17.4984445 6.62709825,17.4984445 C6.65860574,17.4984445 6.68715897,17.4923921 6.71275881,17.4802872 C6.73835865,17.4681822 6.76198891,17.4520425 6.78365031,17.4318676 C6.80531171,17.4116927 6.82204982,17.3874831 6.83386513,17.3592382 Z M11.9122632,12.7078652 C11.941509,12.7752812 11.9634429,12.8445689 11.9780658,12.9157303 C11.9926887,12.9868917 12,13.0561794 12,13.1235955 L12,19.8876404 C12,19.9550565 11.989033,20.0299621 11.9670987,20.1123596 C11.9597873,20.1722849 11.941509,20.2397 11.9122632,20.3146067 C11.8903289,20.3670415 11.8537723,20.4307112 11.8025922,20.505618 C11.7733465,20.5655434 11.723995,20.6254679 11.6545364,20.6853933 C11.5850778,20.7453187 11.528415,20.790262 11.4845464,20.8202247 C11.4041206,20.8651688 11.3383186,20.8988763 11.2871386,20.9213483 C11.2359585,20.9438203 11.1756401,20.9625467 11.1061815,20.9775281 C11.0367228,20.9925094 10.9654374,21 10.892323,21 L2.09670987,21 C2.03821838,21 1.97241645,20.9925094 1.89930209,20.9775281 C1.82618774,20.9625467 1.75673014,20.9438203 1.69092722,20.9213483 C1.6470586,20.8988763 1.588568,20.8651688 1.51545364,20.8202247 L1.50448654,20.8202247 C1.46792936,20.790262 1.41309442,20.7415734 1.33998006,20.6741573 C1.28148857,20.6292133 1.23030929,20.573034 1.18644068,20.505618 C1.1498835,20.4606739 1.11698253,20.3988768 1.08773679,20.3202247 C1.05849105,20.2415726 1.03655707,20.1685397 1.0219342,20.1011236 C1.00731133,20.0337075 1,19.9625472 1,19.8876404 L1,13.1235955 C1,13.0561794 1.00913916,12.9831465 1.02741775,12.9044944 C1.04569634,12.8258423 1.06580248,12.7565546 1.08773679,12.6966292 C1.1096711,12.6367038 1.1443999,12.5749067 1.19192423,12.511236 C1.23944856,12.4475652 1.28514435,12.3932587 1.32901296,12.3483146 C1.37288158,12.3033706 1.43137218,12.2509366 1.50448654,12.1910112 C1.55566659,12.1535579 1.61781286,12.1198503 1.69092722,12.0898876 C1.76404158,12.0599249 1.83349917,12.0374533 1.89930209,12.0224719 C1.96510501,12.0074906 2.03090695,12 2.09670987,12 L10.9032901,12 C10.9690931,12 11.0422063,12.0074906 11.1226321,12.0224719 C11.1811236,12.0374533 11.2469255,12.0599249 11.3200399,12.0898876 C11.3565971,12.1123597 11.4150877,12.1460672 11.4955135,12.1910112 C11.5466935,12.2209739 11.6051841,12.2734079 11.670987,12.3483146 C11.7221671,12.4007493 11.766035,12.4569285 11.8025922,12.5168539 L11.8245264,12.5505618 C11.8610836,12.6179779 11.8903289,12.6704118 11.9122632,12.7078652 Z M2.04187438,13.6292135 C2.05649725,13.6666669 2.0711199,13.6928838 2.08574277,13.7078652 L2.12961117,13.7752809 L2.27218345,13.8539326 C2.30142919,13.8689139 2.32701883,13.8801498 2.34895314,13.8876404 L2.43668993,13.8876404 C2.50980429,13.8876404 2.57012273,13.8782772 2.61764706,13.8595506 C2.66517139,13.8408239 2.70721152,13.8146069 2.74376869,13.7808989 C2.78032587,13.7471908 2.80774334,13.7041201 2.82602193,13.6516854 C2.84430052,13.5992507 2.85343968,13.5355809 2.85343968,13.4606742 L2.84247258,13.3707865 C2.84247258,13.3632958 2.83881692,13.35206 2.83150548,13.3370787 L2.77666999,13.2247191 L2.71635095,13.1629213 C2.69807236,13.1441947 2.68162187,13.1310862 2.666999,13.1235955 L2.59022931,13.0898876 C2.568295,13.0749063 2.54270536,13.0674157 2.51345962,13.0674157 L2.43668993,13.0561798 L2.34895314,13.0674157 C2.3197074,13.0674157 2.29411776,13.0749063 2.27218345,13.0898876 L2.14057827,13.1797753 L2.07477567,13.247191 C2.06746424,13.2621724 2.06015291,13.2808988 2.05284148,13.3033708 L2.04187438,13.3146067 C2.02725151,13.3370788 2.01994018,13.3632957 2.01994018,13.3932584 L2.00897308,13.4606742 L2.01994018,13.5505618 L2.04187438,13.6292135 Z M10.9032901,14.7078652 L2.09670987,14.7078652 L2.09670987,19.8876404 L10.9032901,19.8876404 L10.9032901,14.7078652 Z M3.14955135,13.3146067 C3.13492847,13.3370788 3.12761715,13.3632957 3.12761715,13.3932584 L3.11665005,13.4719101 L3.12761715,13.5617978 C3.12761715,13.5842698 3.13310064,13.6067415 3.1440678,13.6292135 L3.18245264,13.7078652 C3.18976408,13.7228465 3.20804239,13.7453182 3.23728814,13.7752809 L3.37986042,13.8539326 C3.40179473,13.8689139 3.42190087,13.8782771 3.44017946,13.8820225 C3.45845805,13.8857678 3.48953119,13.8876404 3.5333998,13.8876404 C3.60651416,13.8876404 3.66866043,13.8801499 3.71984048,13.8651685 C3.77102053,13.8501872 3.81123282,13.8258429 3.84047856,13.7921348 C3.86972431,13.7584268 3.89531395,13.7153561 3.91724826,13.6629213 C3.93918256,13.6104866 3.95014955,13.5430716 3.95014955,13.4606742 L3.93918245,13.3820225 C3.93918245,13.3595504 3.93369896,13.3352061 3.9227318,13.3089888 C3.91176465,13.2827714 3.89896983,13.2584271 3.88434696,13.2359551 L3.87337986,13.2247191 C3.85875699,13.2022471 3.84413434,13.1835207 3.82951147,13.1685393 L3.76370887,13.1235955 L3.69790628,13.0898876 C3.66866054,13.0749063 3.6430709,13.0636704 3.62113659,13.0561798 L3.44566301,13.0561798 C3.4237287,13.0636704 3.39996689,13.0749063 3.37437687,13.0898876 C3.34878684,13.104869 3.32502503,13.1198501 3.30309073,13.1348315 L3.23728814,13.1910112 L3.18245264,13.247191 C3.16782977,13.269663 3.15686278,13.2921347 3.14955135,13.3146067 Z M10.9032901,13.1235955 L4.30109671,13.1235955 L4.30109671,13.7977528 L10.9032901,13.7977528 L10.9032901,13.1235955 Z" id="-copy-2" fill="#2B2826"></path>
            <g id="icons-/-Error_Mark" transform="translate(0.000000, 13.000000)" opacity="0">
                <circle id="Oval" fill="#FFFFFF" fill-rule="nonzero" cx="4" cy="4" r="4"></circle>
                <path d="M4.00666043,0.66666822 C4.60923891,0.667230482 5.16978374,0.820408594 5.68831169,1.12620713 C6.1900347,1.42368891 6.5896311,1.82328531 6.88711289,2.32500833 C7.19347473,2.84449144 7.34665335,3.4050364 7.34665335,4.00666001 C7.34665335,4.60828362 7.19347473,5.16882857 6.88711289,5.68831169 C6.5896311,6.1900347 6.1900347,6.5896311 5.68831169,6.88711289 C5.16882857,7.19347473 4.60828362,7.34665335 4.00666001,7.34665335 C3.4050364,7.34665335 2.84449144,7.19347473 2.32500833,6.88711289 C1.82328531,6.5896311 1.42368891,6.1900347 1.12620713,5.68831169 C0.819845288,5.16882857 0.666666667,4.60828362 0.666666667,4.00666001 C0.666666667,3.4050364 0.819845288,2.84449144 1.12620713,2.32500833 C1.42368891,1.82328531 1.82328531,1.42368891 2.32500833,1.12620713 C2.84353627,0.820408594 3.4040811,0.667230482 4.00665958,0.66666822 L4.00666043,0.66666822 Z M4.00666043,0.66666822 C4.00555043,0.666667185 4.00444029,0.666666667 4.00333,0.666666667 L4.00999001,0.666666667 C4.00887973,0.666666667 4.00776958,0.666667185 4.00665958,0.66666822 L4.00666043,0.66666822 Z M4.34299034,5.67499167 L4.34299034,5.00899101 L3.67032967,5.00899101 L3.67032967,5.67499167 L4.34299034,5.67499167 Z M4.34299034,4.34299034 L4.34299034,2.33832834 L3.67032967,2.33832834 L3.67032967,4.34299034 L4.34299034,4.34299034 Z" id="" fill="#F83200"></path>
            </g>
        </g>
    </g>
</svg>