<?xml version="1.0" encoding="UTF-8"?>
<svg width="20px" height="20px" viewBox="0 0 20 20" version="1.1" xmlns="http://www.w3.org/2000/svg" xmlns:xlink="http://www.w3.org/1999/xlink">
    <!-- Generator: Sketch 51.3 (57544) - http://www.bohemiancoding.com/sketch -->
    <title>icons / classes/ BMC_SystemResource_32</title>
    <desc>Created with Sketch.</desc>
    <defs>
        <polygon id="path-1" points="0 0 19.9998333 0 19.9998333 20 0 20"></polygon>
    </defs>
    <g id="icons-/-classes/-BMC_SystemResource_32" stroke="none" stroke-width="1" fill="none" fill-rule="evenodd">
        <g id="icons-/-classes/-SystemResource">
            <g id="icons-/-20x20-icon-field" fill="#F5A623" fill-rule="nonzero" opacity="0">
                <rect x="0" y="0" width="20" height="20"></rect>
            </g>
            <g id="Group-3">
                <mask id="mask-2" fill="white">
                    <use xlink:href="#path-1"></use>
                </mask>
                <g id="Clip-2"></g>
                <path d="M16.5165,15 C16.5748333,14.7833333 16.6081667,14.5666667 16.6081667,14.3333333 C16.6081667,13.975 16.5415,13.6416667 16.3998333,13.3333333 C16.3665,13.25 16.3248333,13.175 16.2831667,13.1 C16.0665,12.7166667 15.7748333,12.425 15.3915,12.2083333 C15.0165,11.9916667 14.6081667,11.8833333 14.1581667,11.8833333 C13.7165,11.8833333 13.2998333,11.9916667 12.9248333,12.2083333 C12.5498333,12.425 12.2498333,12.7166667 12.0331667,13.1 C11.9915,13.175 11.9498333,13.25 11.9165,13.3333333 C11.7748333,13.6416667 11.7081667,13.975 11.7081667,14.3333333 C11.7081667,14.5666667 11.7415,14.7833333 11.7998333,15 C11.8498333,15.1916667 11.9331667,15.3833333 12.0331667,15.5583333 C12.1165,15.7083333 12.2081667,15.8333333 12.3248333,15.9583333 C12.3998333,16.05 12.4831667,16.1333333 12.5831667,16.2083333 C12.6831667,16.3 12.7998333,16.3833333 12.9248333,16.4583333 C13.2998333,16.675 13.7165,16.7916667 14.1665,16.7916667 C14.6081667,16.7916667 15.0165,16.675 15.3915,16.4583333 C15.7748333,16.2333333 16.0665,15.9416667 16.2831667,15.5583333 C16.3831667,15.3833333 16.4665,15.1916667 16.5165,15 Z M19.9915,13.4666667 C19.9998333,13.475 19.9998333,13.4916667 19.9998333,13.5 L19.9998333,14.825 C19.9998333,14.9083333 19.9665,14.9833333 19.9081667,15.0416667 C19.8415,15.1083333 19.7748333,15.1416667 19.6831667,15.1416667 L18.7415,15.1416667 C18.6665,15.1416667 18.5831667,15.1666667 18.5081667,15.225 C18.4248333,15.2833333 18.3665,15.35 18.3498333,15.425 L18.0165,16.2166667 C17.9831667,16.3 17.9665,16.3833333 17.9831667,16.4833333 C17.9998333,16.575 18.0415,16.65 18.0998333,16.7083333 L18.7748333,17.3833333 C18.8331667,17.4416667 18.8581667,17.5166667 18.8581667,17.6 C18.8581667,17.6916667 18.8331667,17.7666667 18.7748333,17.825 L17.8331667,18.7583333 C17.7748333,18.8166667 17.6998333,18.85 17.6165,18.85 C17.5248333,18.85 17.4581667,18.8166667 17.3915,18.7583333 L16.7165,18.0833333 C16.6581667,18.025 16.5748333,17.9916667 16.4831667,17.975 C16.4581667,17.975 16.4331667,17.9666667 16.4081667,17.9666667 C16.3415,17.9666667 16.2831667,17.9833333 16.2248333,18.0083333 L15.4331667,18.3333333 C15.3581667,18.3583333 15.2915,18.4083333 15.2331667,18.4916667 C15.1748333,18.5666667 15.1415,18.65 15.1415,18.7333333 L15.1415,19.7 C15.1415,19.775 15.1165,19.8416667 15.0581667,19.9083333 C14.9998333,19.9666667 14.9248333,20 14.8415,20 L13.4998333,20 C13.4165,20 13.3415,19.9666667 13.2915,19.9083333 C13.2331667,19.8416667 13.1998333,19.775 13.1998333,19.7 L13.1998333,18.7333333 C13.1998333,18.6583333 13.1748333,18.575 13.1165,18.4916667 C13.0581667,18.4083333 12.9831667,18.3583333 12.8998333,18.3333333 L12.1081667,18.0083333 C12.0581667,17.9833333 11.9998333,17.9666667 11.9331667,17.9666667 C11.9081667,17.9666667 11.8831667,17.975 11.8581667,17.975 C11.7581667,17.9916667 11.6748333,18.025 11.6165,18.0833333 L11.3665,18.3333333 L10.9415,18.7583333 C10.8831667,18.8166667 10.8081667,18.85 10.7165,18.85 C10.6331667,18.85 10.5665,18.8166667 10.5081667,18.7583333 L10.0831667,18.3333333 L9.5665,17.825 C9.5165,17.7666667 9.48316667,17.6916667 9.48316667,17.6 C9.48316667,17.5166667 9.5165,17.4416667 9.5665,17.3833333 L10.2415,16.7083333 C10.3081667,16.65 10.3415,16.5666667 10.3498333,16.475 C10.3665,16.3833333 10.3498333,16.3 10.3165,16.2166667 L10.1581667,15.8333333 L9.98316667,15.425 C9.9665,15.3416667 9.9165,15.275 9.83316667,15.2166667 C9.75816667,15.1666667 9.67483333,15.1416667 9.5915,15.1416667 L8.63316667,15.1416667 C8.54983333,15.1416667 8.47483333,15.1083333 8.4165,15.05 C8.39983333,15.0333333 8.3915,15.0166667 8.3915,15 C8.34983333,14.95 8.33316667,14.8916667 8.33316667,14.825 L8.33316667,13.5 C8.33316667,13.4333333 8.34983333,13.3833333 8.3915,13.3333333 C8.3915,13.3166667 8.39983333,13.3 8.4165,13.2833333 C8.47483333,13.225 8.54983333,13.1916667 8.63316667,13.1916667 L9.5915,13.1916667 C9.67483333,13.1916667 9.75816667,13.1666667 9.83316667,13.1083333 C9.9165,13.05 9.9665,12.975 9.98316667,12.8916667 L10.3165,12.1166667 C10.3498333,12.0333333 10.3665,11.95 10.3498333,11.85 C10.3415,11.775 10.3248333,11.7166667 10.2748333,11.6666667 C10.2665,11.65 10.2581667,11.6333333 10.2415,11.625 L9.5665,10.95 C9.5165,10.8916667 9.48316667,10.8166667 9.48316667,10.7333333 C9.48316667,10.6416667 9.5165,10.5666667 9.5665,10.5083333 L10.5081667,9.56666667 C10.5748333,9.50833333 10.6498333,9.48333333 10.7331667,9.48333333 C10.8165,9.48333333 10.8831667,9.50833333 10.9415,9.56666667 L11.5915,10.2166667 L11.6165,10.2416667 C11.6748333,10.3 11.7581667,10.3416667 11.8581667,10.3583333 L11.8915,10.3583333 C11.9081667,10.3666667 11.9165,10.3666667 11.9331667,10.3666667 C11.9998333,10.3666667 12.0581667,10.35 12.1081667,10.325 L12.8998333,10 C12.9831667,9.975 13.0498333,9.925 13.1081667,9.84166667 C13.1415,9.79166667 13.1665,9.74166667 13.1748333,9.68333333 C13.1915,9.65833333 13.1915,9.625 13.1915,9.6 L13.1915,8.63333333 C13.1915,8.55 13.2165,8.475 13.2831667,8.41666667 C13.3415,8.35833333 13.4165,8.33333333 13.4998333,8.33333333 L14.8331667,8.33333333 C14.9165,8.33333333 14.9831667,8.35833333 15.0498333,8.41666667 C15.0998333,8.475 15.1331667,8.55 15.1331667,8.63333333 L15.1331667,9.59166667 C15.1331667,9.675 15.1581667,9.75833333 15.2165,9.83333333 C15.2748333,9.90833333 15.3498333,9.95833333 15.4331667,9.98333333 L16.2165,10.3083333 C16.2748333,10.3416667 16.3415,10.3583333 16.4081667,10.3583333 C16.4331667,10.3583333 16.4581667,10.3583333 16.4748333,10.35 C16.5748333,10.3416667 16.6498333,10.3 16.7081667,10.2416667 L17.3831667,9.56666667 C17.4415,9.50833333 17.5165,9.475 17.5998333,9.475 C17.6831667,9.475 17.7581667,9.50833333 17.8248333,9.56666667 L18.3331667,10.075 L18.7665,10.5083333 C18.8165,10.5666667 18.8498333,10.6416667 18.8498333,10.7333333 C18.8498333,10.8166667 18.8165,10.8833333 18.7665,10.9416667 L18.3331667,11.375 L18.0915,11.6166667 C18.0248333,11.675 17.9915,11.7583333 17.9748333,11.85 C17.9581667,11.95 17.9665,12.0333333 18.0081667,12.1 L18.3331667,12.8916667 C18.3581667,12.975 18.4081667,13.05 18.4915,13.1083333 C18.5748333,13.1666667 18.6498333,13.1916667 18.7331667,13.1916667 L19.6831667,13.1916667 C19.7748333,13.1916667 19.8415,13.225 19.9081667,13.2833333 C19.9581667,13.3333333 19.9915,13.3916667 19.9915,13.4666667 Z M18.3331667,0 L1.6665,0 C0.749833333,0 -0.000166666667,0.75 -0.000166666667,1.66666667 L-0.000166666667,13.3333333 C-0.000166666667,14.25 0.749833333,15 1.6665,15 L6.67483333,15 C6.6665,14.9416667 6.6665,14.8833333 6.6665,14.825 L6.6665,13.5 C6.6665,13.4416667 6.6665,13.3916667 6.67483333,13.3333333 L1.6665,13.3333333 L1.6665,1.66666667 L18.3331667,1.66666667 L18.3331667,7.95 C18.5831667,8.05 18.8081667,8.19166667 18.9998333,8.38333333 L19.9415,9.33333333 L19.9831667,9.36666667 L19.9998333,9.38333333 L19.9998333,1.66666667 C19.9998333,0.75 19.2498333,0 18.3331667,0 Z M8.3915,9.33333333 L8.8165,8.90833333 C8.68316667,8.8 8.5665,8.65833333 8.47483333,8.5 C8.32483333,8.225 8.2415,7.93333333 8.2415,7.61666667 C8.2415,7.3 8.32483333,7.00833333 8.47483333,6.73333333 C8.63316667,6.46666667 8.8415,6.25833333 9.1165,6.1 C9.38316667,5.94166667 9.67483333,5.86666667 9.99983333,5.86666667 C10.3165,5.86666667 10.6081667,5.94166667 10.8748333,6.1 C11.1498333,6.25833333 11.3581667,6.46666667 11.5165,6.73333333 C11.6665,7.00833333 11.7498333,7.3 11.7498333,7.61666667 C11.7498333,7.65833333 11.7498333,7.7 11.7415,7.74166667 C11.8331667,7.54166667 11.9665,7.35833333 12.1331667,7.20833333 C12.3998333,6.95833333 12.7165,6.79166667 13.0581667,6.71666667 C13.0165,6.675 12.9915,6.63333333 12.9748333,6.59166667 L12.7415,6.025 C12.7165,5.975 12.7081667,5.91666667 12.7165,5.85 C12.7331667,5.775 12.7581667,5.71666667 12.7998333,5.675 L13.2831667,5.19166667 C13.3248333,5.15833333 13.3415,5.10833333 13.3415,5.04166667 C13.3415,4.98333333 13.3248333,4.93333333 13.2831667,4.88333333 L12.6081667,4.21666667 C12.5665,4.16666667 12.5165,4.15 12.4498333,4.15 C12.3915,4.15 12.3415,4.16666667 12.2915,4.21666667 L11.8165,4.7 C11.7748333,4.74166667 11.7165,4.76666667 11.6498333,4.775 C11.5831667,4.78333333 11.5165,4.775 11.4665,4.74166667 L10.9081667,4.51666667 C10.8415,4.5 10.7915,4.45833333 10.7498333,4.40833333 C10.7081667,4.35 10.6915,4.29166667 10.6915,4.23333333 L10.6915,3.55 C10.6915,3.49166667 10.6665,3.43333333 10.6248333,3.39166667 C10.5831667,3.35 10.5331667,3.33333333 10.4748333,3.33333333 L9.52483333,3.33333333 C9.4665,3.33333333 9.40816667,3.35 9.3665,3.39166667 C9.32483333,3.43333333 9.29983333,3.49166667 9.29983333,3.55 L9.29983333,4.24166667 C9.29983333,4.3 9.28316667,4.35833333 9.2415,4.41666667 C9.19983333,4.46666667 9.15816667,4.50833333 9.0915,4.525 L8.52483333,4.75 C8.47483333,4.78333333 8.4165,4.79166667 8.34983333,4.775 C8.28316667,4.76666667 8.22483333,4.74166667 8.17483333,4.7 L7.69983333,4.21666667 C7.65816667,4.175 7.60816667,4.15833333 7.54983333,4.15833333 C7.48316667,4.15833333 7.43316667,4.175 7.3915,4.21666667 L6.7165,4.88333333 C6.67483333,4.93333333 6.65816667,4.98333333 6.65816667,5.04166667 C6.65816667,5.10833333 6.67483333,5.15833333 6.7165,5.2 L7.19983333,5.68333333 C7.2415,5.725 7.2665,5.775 7.27483333,5.85 C7.28316667,5.91666667 7.27483333,5.975 7.24983333,6.03333333 L7.0165,6.59166667 C6.99983333,6.65 6.95816667,6.7 6.90816667,6.74166667 C6.84983333,6.78333333 6.7915,6.80833333 6.73316667,6.80833333 L6.04983333,6.80833333 C5.9915,6.80833333 5.93316667,6.825 5.8915,6.86666667 C5.84983333,6.90833333 5.83316667,6.95833333 5.83316667,7.025 L5.83316667,7.96666667 C5.83316667,8.03333333 5.84983333,8.09166667 5.8915,8.13333333 C5.93316667,8.175 5.9915,8.19166667 6.04983333,8.19166667 L6.73316667,8.19166667 C6.7915,8.19166667 6.84983333,8.21666667 6.90816667,8.25 C6.95816667,8.29166667 6.99983333,8.34166667 7.0165,8.4 L7.24983333,8.96666667 C7.27483333,9.025 7.28316667,9.08333333 7.27483333,9.15 C7.2665,9.21666667 7.2415,9.275 7.19983333,9.31666667 L6.7165,9.8 C6.67483333,9.84166667 6.65816667,9.89166667 6.65816667,9.95833333 C6.65816667,10.0166667 6.67483333,10.0666667 6.7165,10.1166667 L7.3915,10.775 C7.42483333,10.825 7.47483333,10.8416667 7.5415,10.8416667 C7.59983333,10.8416667 7.64983333,10.825 7.69983333,10.775 L7.82483333,10.65 C7.83316667,10.1916667 8.00816667,9.75833333 8.30816667,9.41666667 L8.34983333,9.36666667 L8.3915,9.33333333 Z M8.02483333,16.7083333 C7.8915,16.9833333 7.8165,17.2916667 7.8165,17.6 C7.8165,17.8583333 7.8665,18.1 7.94983333,18.3333333 L6.64983333,18.3333333 L7.29983333,16.4 C7.30816667,16.3666667 7.32483333,16.3416667 7.33316667,16.3166667 C7.53316667,16.4916667 7.77483333,16.625 8.02483333,16.7083333 Z" id="Fill-1" fill="#333333" mask="url(#mask-2)"></path>
            </g>
        </g>
        <g id="icons-/-Error_Mark" transform="translate(0.000000, 12.000000)" opacity="0">
            <circle id="Oval" fill="#FFFFFF" fill-rule="nonzero" cx="4" cy="4" r="4"></circle>
            <path d="M4.00666043,0.66666822 C4.60923891,0.667230482 5.16978374,0.820408594 5.68831169,1.12620713 C6.1900347,1.42368891 6.5896311,1.82328531 6.88711289,2.32500833 C7.19347473,2.84449144 7.34665335,3.4050364 7.34665335,4.00666001 C7.34665335,4.60828362 7.19347473,5.16882857 6.88711289,5.68831169 C6.5896311,6.1900347 6.1900347,6.5896311 5.68831169,6.88711289 C5.16882857,7.19347473 4.60828362,7.34665335 4.00666001,7.34665335 C3.4050364,7.34665335 2.84449144,7.19347473 2.32500833,6.88711289 C1.82328531,6.5896311 1.42368891,6.1900347 1.12620713,5.68831169 C0.819845288,5.16882857 0.666666667,4.60828362 0.666666667,4.00666001 C0.666666667,3.4050364 0.819845288,2.84449144 1.12620713,2.32500833 C1.42368891,1.82328531 1.82328531,1.42368891 2.32500833,1.12620713 C2.84353627,0.820408594 3.4040811,0.667230482 4.00665958,0.66666822 L4.00666043,0.66666822 Z M4.00666043,0.66666822 C4.00555043,0.666667185 4.00444029,0.666666667 4.00333,0.666666667 L4.00999001,0.666666667 C4.00887973,0.666666667 4.00776958,0.666667185 4.00665958,0.66666822 L4.00666043,0.66666822 Z M4.34299034,5.67499167 L4.34299034,5.00899101 L3.67032967,5.00899101 L3.67032967,5.67499167 L4.34299034,5.67499167 Z M4.34299034,4.34299034 L4.34299034,2.33832834 L3.67032967,2.33832834 L3.67032967,4.34299034 L4.34299034,4.34299034 Z" id="" fill="#F83200"></path>
        </g>
    </g>
</svg>