<?xml version="1.0" encoding="UTF-8"?>
<svg width="20px" height="20px" viewBox="0 0 20 20" version="1.1" xmlns="http://www.w3.org/2000/svg" xmlns:xlink="http://www.w3.org/1999/xlink">
    <!-- Generator: Sketch 51.3 (57544) - http://www.bohemiancoding.com/sketch -->
    <title>icons / classes/ BMC_VirtualSystem_32</title>
    <desc>Created with Sketch.</desc>
    <defs></defs>
    <g id="icons-/-classes/-BMC_VirtualSystem_32" stroke="none" stroke-width="1" fill="none" fill-rule="evenodd">
        <g>
            <g id="icons-/-20x20-icon-field" fill="#F5A623" fill-rule="nonzero" opacity="0">
                <rect x="0" y="0" width="20" height="20"></rect>
            </g>
            <path d="M19.9666667,13.575 C19.9583333,13.4666667 19.9416667,13.3583333 19.925,13.25 L19.9166667,13.2416667 C19.9166667,13.2333333 19.9166667,13.225 19.9083333,13.2166667 C19.7083333,12.9416667 19.475,12.6833333 19.2175,12.425 C18.9916667,12.1916667 18.7341667,11.9583333 18.4666667,11.7333333 C18.425,11.7 18.3841667,11.6666667 18.3333333,11.6333333 C18.1091667,11.4666667 17.875,11.3 17.625,11.15 C17.3333333,10.975 17.025,10.8166667 16.7083333,10.675 C17,11.0666667 17.2666667,11.4666667 17.4916667,11.8833333 C17.725,12.3 17.9166667,12.725 18.0666667,13.1666667 C18.0833333,13.2166667 18.1091667,13.275 18.1166667,13.3333333 C18.2583333,13.7166667 18.3583333,14.1083333 18.4333333,14.5166667 C18.4666667,14.675 18.4908333,14.8333333 18.5083333,14.9916667 C18.55,15.3 18.575,15.625 18.5833333,15.9416667 C18.8008333,15.8416667 19.0166667,15.7333333 19.2416667,15.6083333 C19.4583333,15.4833333 19.6666667,15.35 19.8833333,15.2083333 L19.9083333,15.1833333 C19.9666667,14.85 20,14.5166667 20,14.1666667 C20,13.9833333 19.9916667,13.8083333 19.975,13.6333333 C19.975,13.6166667 19.9666667,13.5916667 19.9666667,13.575 Z M18.3333333,10.7833333 C18.7083333,11.0333333 19.0666667,11.3166667 19.4166667,11.6333333 C19.3333333,11.45 19.2333333,11.275 19.125,11.1 C19.125,11.0916667 19.1158333,11.0833333 19.1083333,11.075 C19.0333333,10.95 18.95,10.825 18.8583333,10.7083333 C18.8083333,10.6333333 18.75,10.5583333 18.6833333,10.4833333 C18.575,10.35 18.4583333,10.2166667 18.3333333,10.0916667 C18.1916667,9.95 18.05,9.80833333 17.8916667,9.68333333 C17.7416667,9.68333333 17.5083333,9.7 17.2,9.71666667 C16.9833333,9.74166667 16.7583333,9.78333333 16.5,9.83333333 C17.0416667,10.0416667 17.5508333,10.2916667 18.0333333,10.5916667 C18.1333333,10.6583333 18.2333333,10.7166667 18.3333333,10.7833333 Z M17.7333333,14.525 C17.6575,14.1166667 17.5508333,13.725 17.4083333,13.3333333 C17.3666667,13.2083333 17.3166667,13.075 17.2583333,12.95 C17.05,12.4333333 16.7833333,11.95 16.4666667,11.5 C16.1583333,11.05 15.7916667,10.6166667 15.35,10.1833333 L15.325,10.1666667 C15.3416667,10.175 15.35,10.1916667 15.35,10.2083333 C15.325,10.2083333 15.3083333,10.2 15.2916667,10.1833333 L15.2333333,10.175 L15.2166667,10.175 C14.6416667,10.375 14.1,10.6416667 13.5925,10.9583333 C13.4,11.0833333 13.2083333,11.2166667 13.025,11.3666667 C12.725,11.5833333 12.4416667,11.8333333 12.1666667,12.1 C11.8241667,12.4333333 11.5166667,12.7916667 11.2416667,13.1666667 C11.2083333,13.2166667 11.1666667,13.275 11.125,13.3333333 C11.0833333,13.3916667 11.05,13.45 11.0083333,13.5083333 C10.7083333,13.9833333 10.4583333,14.475 10.25,15 C10.2333333,15.0333333 10.2166667,15.075 10.2,15.1166667 C10.2,15.1166667 10.2083333,15.1166667 10.2083333,15.125 C10.5583333,15.3666667 10.925,15.6 11.3416667,15.8166667 C11.35,15.825 11.3666667,15.825 11.375,15.8333333 C11.75,16.025 12.125,16.1833333 12.5166667,16.3083333 C12.5583333,16.325 12.6,16.3416667 12.65,16.35 C13,16.4666667 13.3666667,16.55 13.7416667,16.6 C13.75,16.6083333 13.7583333,16.6083333 13.7666667,16.6083333 C13.925,16.6333333 14.0916667,16.65 14.25,16.6666667 C14.5,16.6916667 14.75,16.7083333 15,16.7083333 C15.0333333,16.7166667 15.0583333,16.7166667 15.0916667,16.7166667 C15.5741667,16.7166667 16.0416667,16.675 16.5091667,16.5916667 C16.975,16.5083333 17.4333333,16.3833333 17.8833333,16.225 C17.8833333,15.8083333 17.8583333,15.4 17.8083333,15 C17.7833333,14.8416667 17.7591667,14.6833333 17.7333333,14.525 Z M19.1158333,16.4666667 L18.5925,16.7166667 C18.5666667,17 18.5416667,17.2583333 18.5083333,17.475 C18.4833333,17.7 18.4333333,17.9333333 18.3841667,18.1916667 C18.5583333,18.0083333 18.725,17.8166667 18.875,17.6083333 C18.9425,17.5166667 19.0091667,17.425 19.075,17.325 C19.1,17.275 19.1333333,17.225 19.1583333,17.175 C19.25,17.0333333 19.3333333,16.8833333 19.4,16.7333333 C19.4833333,16.575 19.55,16.4166667 19.6166667,16.25 C19.625,16.2333333 19.6341667,16.2083333 19.6341667,16.1916667 L19.6083333,16.2083333 C19.4666667,16.3 19.3,16.3833333 19.1158333,16.4666667 Z M15.1166667,17.4083333 L15,17.4083333 C14.625,17.4083333 14.2833333,17.3833333 13.9583333,17.3416667 C13.8833333,17.3333333 13.8166667,17.325 13.7416667,17.3083333 C13.6083333,17.2916667 13.4666667,17.2666667 13.3333333,17.2333333 C13.2,17.2083333 13.0583333,17.1833333 12.925,17.15 C12.9083333,17.15 12.9008333,17.1416667 12.8833333,17.1416667 C12.525,17.05 12.175,16.9333333 11.8166667,16.7916667 C11.4666667,16.6583333 11.125,16.5 10.8,16.325 C11.1083333,16.775 11.4333333,17.1833333 11.7833333,17.55 C11.9083333,17.6833333 12.0416667,17.8083333 12.175,17.9166667 C12.3333333,18.0666667 12.5,18.2083333 12.675,18.3333333 C12.7591667,18.4083333 12.8416667,18.4666667 12.9333333,18.5333333 C13.0666667,18.625 13.2,18.7083333 13.3333333,18.7916667 C13.5583333,18.9333333 13.7833333,19.05 14.0166667,19.1666667 C14.0833333,19.2083333 14.1508333,19.2416667 14.2333333,19.275 C14.4833333,19.3833333 14.7333333,19.4833333 15,19.575 C15.225,19.65 15.4675,19.725 15.7083333,19.7916667 C15.7166667,19.7916667 15.725,19.7833333 15.7333333,19.7833333 C15.8416667,19.7583333 15.95,19.725 16.05,19.6833333 C16.1416667,19.6583333 16.2341667,19.625 16.3166667,19.5916667 C16.4583333,19.5333333 16.6,19.475 16.7333333,19.4 C16.8333333,19.3583333 16.9333333,19.3083333 17.025,19.2583333 C17.1666667,19.175 17.3,19.0916667 17.4333333,19 C17.5416667,18.6916667 17.6333333,18.3666667 17.7083333,18.0083333 C17.7833333,17.675 17.8333333,17.325 17.8583333,16.9666667 C17.4083333,17.1166667 16.9583333,17.225 16.5,17.3 C16.0333333,17.375 15.5741667,17.4083333 15.1166667,17.4083333 Z M12.8583333,19.325 C12.7833333,19.275 12.7,19.225 12.625,19.1666667 C12.3,18.95 12,18.7166667 11.7083333,18.4583333 C11.6666667,18.4166667 11.6158333,18.375 11.575,18.3333333 C11.4333333,18.2 11.2916667,18.0666667 11.1666667,17.9166667 C11.0083333,17.7583333 10.8666667,17.5833333 10.725,17.4083333 C10.4166667,17.0333333 10.1416667,16.6166667 9.89166667,16.175 C9.825,16.4333333 9.77583333,16.7083333 9.73333333,17.0083333 C9.69166667,17.3 9.675,17.5833333 9.675,17.8833333 L9.675,17.8916667 C9.8,18.05 9.94166667,18.2 10.0833333,18.3333333 L10.0916667,18.3333333 C10.2,18.4583333 10.325,18.5666667 10.4583333,18.6666667 C10.5741667,18.7666667 10.7,18.8666667 10.8333333,18.95 C10.875,18.9916667 10.9166667,19.0166667 10.9666667,19.0416667 C11.0583333,19.1083333 11.1583333,19.1666667 11.2583333,19.225 C11.325,19.2666667 11.4,19.3 11.4666667,19.3416667 C11.775,19.5083333 12.0916667,19.6416667 12.4333333,19.7416667 C12.5666667,19.7833333 12.7,19.8166667 12.8416667,19.85 C12.9008333,19.8666667 12.9583333,19.875 13.0166667,19.8833333 C13.125,19.9083333 13.225,19.9333333 13.3333333,19.9416667 C13.4666667,19.9666667 13.6,19.975 13.7416667,19.9833333 C13.875,20 14.0166667,20 14.1508333,20 C13.8666667,19.8833333 13.5925,19.75 13.3333333,19.6 C13.1758333,19.5166667 13.0166667,19.425 12.8583333,19.325 Z M8.95,15 C8.9075,14.9666667 8.86666667,14.925 8.83333333,14.8916667 C8.69916667,14.7583333 8.54166667,14.5916667 8.34166667,14.3916667 C8.34166667,14.3833333 8.34166667,14.3833333 8.33333333,14.375 C8.34166667,14.5916667 8.35833333,14.7916667 8.39166667,15 C8.40833333,15.1166667 8.425,15.225 8.45,15.3416667 C8.48333333,15.5083333 8.52583333,15.6583333 8.56666667,15.8166667 C8.56666667,15.825 8.56666667,15.825 8.575,15.8333333 C8.66666667,16.1333333 8.775,16.425 8.91666667,16.7 C8.95833333,16.7833333 9,16.8583333 9.05,16.9416667 C9.05833333,16.8666667 9.06666667,16.8 9.08333333,16.725 C9.10833333,16.5416667 9.15083333,16.35 9.18333333,16.1666667 C9.20833333,16.0583333 9.23333333,15.95 9.26666667,15.8333333 C9.3,15.6916667 9.34166667,15.5416667 9.39166667,15.3833333 L9.39166667,15.375 L9.38333333,15.3666667 C9.20833333,15.2333333 9.06666667,15.1166667 8.95,15 Z M10.3166667,13.3333333 C10.3916667,13.1916667 10.475,13.0583333 10.5666667,12.925 C10.7666667,12.6333333 10.9833333,12.35 11.225,12.0833333 C11.3083333,11.9666667 11.4075,11.8666667 11.5091667,11.7583333 C11.8,11.4416667 12.1166667,11.15 12.4666667,10.9 C12.4916667,10.875 12.5166667,10.85 12.5508333,10.825 C12.5666667,10.8083333 12.5916667,10.7916667 12.6166667,10.775 C12.625,10.775 12.625,10.7666667 12.6333333,10.7666667 C13.025,10.4833333 13.4416667,10.225 13.8833333,10 C13.9,9.98333333 13.925,9.975 13.9425,9.96666667 L13.5833333,9.95 L13.35,9.94166667 L13.2666667,9.94166667 C12.5916667,9.94166667 11.9333333,10.0166667 11.2916667,10.175 C10.6833333,10.3166667 10.0833333,10.5333333 9.51666667,10.8333333 C9.49166667,10.85 9.45833333,10.8583333 9.43333333,10.875 L9.40833333,11.2583333 C9.4,11.3666667 9.39166667,11.4833333 9.39166667,11.6166667 L9.39166667,11.6666667 C9.39166667,12.1166667 9.43333333,12.5583333 9.5,12.9916667 C9.51666667,13.1083333 9.54166667,13.225 9.5675,13.3333333 C9.5675,13.3416667 9.575,13.35 9.575,13.3583333 C9.63416667,13.675 9.71666667,13.9833333 9.81666667,14.2916667 C9.96666667,13.95 10.1333333,13.6333333 10.3166667,13.3333333 Z M8.70833333,12.1166667 C8.65833333,12.225 8.625,12.3333333 8.5925,12.45 C8.53333333,12.625 8.49083333,12.8083333 8.45,12.9916667 C8.44166667,13 8.44166667,13.0083333 8.44166667,13.025 C8.41666667,13.125 8.4,13.225 8.39166667,13.3333333 L8.39166667,13.3416667 L8.4,13.35 C8.51666667,13.5166667 8.625,13.6416667 8.71666667,13.7416667 C8.83333333,13.8833333 8.9425,13.9916667 9.03333333,14.0833333 C8.96666667,13.8333333 8.9,13.5833333 8.85833333,13.3333333 C8.84166667,13.2583333 8.825,13.1833333 8.81666667,13.1083333 C8.75833333,12.7583333 8.725,12.425 8.70833333,12.1166667 Z M15.975,8.61666667 C15.9166667,8.59166667 15.85,8.575 15.7916667,8.56666667 C15.6416667,8.51666667 15.4916667,8.48333333 15.3416667,8.45 C15.2333333,8.425 15.1166667,8.40833333 15,8.4 C14.9166667,8.38333333 14.8333333,8.36666667 14.75,8.36666667 C14.5583333,8.34166667 14.3666667,8.33333333 14.175,8.33333333 L14.1583333,8.33333333 L14.1416667,8.33333333 L14.05,8.33333333 C14.05,8.33333333 14.0583333,8.33333333 14.0583333,8.34166667 C14.3,8.45833333 14.525,8.60833333 14.7758333,8.79166667 C14.7916667,8.80833333 14.8166667,8.825 14.8333333,8.83333333 C14.8916667,8.875 14.9491667,8.91666667 15,8.96666667 C15.1666667,9.09166667 15.325,9.21666667 15.475,9.35 C15.7083333,9.26666667 15.95,9.20833333 16.1991667,9.15833333 C16.475,9.10833333 16.7333333,9.06666667 16.95,9.03333333 C16.7833333,8.95 16.6158333,8.86666667 16.4425,8.79166667 C16.2916667,8.725 16.1333333,8.66666667 15.975,8.61666667 Z M13.55,8.85833333 C13.475,8.81666667 13.4,8.775 13.3333333,8.74166667 C13.1833333,8.66666667 13.0416667,8.6 12.9166667,8.55 C12.875,8.525 12.8333333,8.51666667 12.8,8.5 C12.6925,8.525 12.5833333,8.55 12.475,8.58333333 C12.3916667,8.60833333 12.3,8.64166667 12.2166667,8.675 C11.9666667,8.75833333 11.725,8.85833333 11.4916667,8.98333333 C11.425,9.01666667 11.35,9.05 11.2833333,9.09166667 C11.275,9.09166667 11.2666667,9.1 11.2583333,9.10833333 C11.1333333,9.175 11.0166667,9.25 10.9083333,9.325 C10.7583333,9.425 10.6091667,9.53333333 10.4675,9.66666667 C10.8916667,9.53333333 11.35,9.43333333 11.8166667,9.35 C12.1166667,9.3 12.4333333,9.26666667 12.7591667,9.24166667 C12.925,9.23333333 13.0916667,9.225 13.2666667,9.21666667 L13.3333333,9.21666667 C13.4908333,9.21666667 13.625,9.225 13.7583333,9.24166667 L14.2416667,9.29166667 C14.1833333,9.25 14.1158333,9.20833333 14.05,9.16666667 C13.8916667,9.06666667 13.725,8.96666667 13.55,8.85833333 Z M6.65083333,18.3333333 L7.93333333,18.3333333 C7.61666667,17.8666667 7.35833333,17.3666667 7.15833333,16.825 L6.65083333,18.3333333 Z M18.3333333,0 L1.66666667,0 C0.75,0 0,0.75 0,1.66666667 L0,13.3333333 C0,14.25 0.75,15 1.66666667,15 L6.7175,15 C6.68333333,14.725 6.66666667,14.45 6.66666667,14.1666667 C6.66666667,13.8833333 6.68333333,13.6083333 6.7175,13.3333333 L1.66666667,13.3333333 L1.66666667,1.66666667 L18.3333333,1.66666667 L18.3333333,7.93333333 C18.9666667,8.35833333 19.5325,8.875 20,9.46666667 L20,1.66666667 C20,0.75 19.25,0 18.3333333,0 Z M7.2,9.31666667 C7.24083333,9.275 7.26666667,9.21666667 7.27583333,9.15 C7.28333333,9.08333333 7.27583333,9.025 7.25,8.96666667 L7.01666667,8.4 C7,8.34166667 6.95833333,8.29166667 6.90833333,8.25 C6.85,8.21666667 6.79166667,8.19166667 6.73333333,8.19166667 L6.05,8.19166667 C5.99083333,8.19166667 5.93333333,8.175 5.89166667,8.13333333 C5.85,8.09166667 5.83333333,8.03333333 5.83333333,7.96666667 L5.83333333,7.025 C5.83333333,6.95833333 5.85,6.90833333 5.89166667,6.86666667 C5.93333333,6.825 5.99083333,6.80833333 6.05,6.80833333 L6.73333333,6.80833333 C6.79166667,6.80833333 6.85,6.78333333 6.90833333,6.74166667 C6.95833333,6.7 7,6.65 7.01666667,6.59166667 L7.25,6.03333333 C7.27583333,5.975 7.28333333,5.91666667 7.27583333,5.85 C7.26666667,5.775 7.24083333,5.725 7.2,5.68333333 L6.7175,5.2 C6.675,5.15833333 6.65833333,5.10833333 6.65833333,5.04166667 C6.65833333,4.98333333 6.675,4.93333333 6.7175,4.88333333 L7.39166667,4.21666667 C7.43333333,4.175 7.48416667,4.15833333 7.55083333,4.15833333 C7.60833333,4.15833333 7.6575,4.175 7.7,4.21666667 L8.17583333,4.7 C8.225,4.74166667 8.2825,4.76666667 8.35,4.775 C8.41666667,4.79166667 8.475,4.78333333 8.52583333,4.75 L9.09166667,4.525 C9.15833333,4.50833333 9.2,4.46666667 9.24166667,4.41666667 C9.28333333,4.35833333 9.3,4.3 9.3,4.24166667 L9.3,3.55 C9.3,3.49166667 9.32416667,3.43333333 9.36666667,3.39166667 C9.40833333,3.35 9.46666667,3.33333333 9.525,3.33333333 L10.475,3.33333333 C10.5333333,3.33333333 10.5833333,3.35 10.625,3.39166667 C10.6666667,3.43333333 10.6916667,3.49166667 10.6916667,3.55 L10.6916667,4.23333333 C10.6916667,4.29166667 10.7083333,4.35 10.75,4.40833333 C10.7916667,4.45833333 10.8416667,4.5 10.9083333,4.51666667 L11.4666667,4.74166667 C11.5166667,4.775 11.5833333,4.78333333 11.6508333,4.775 C11.7175,4.76666667 11.775,4.74166667 11.8166667,4.7 L12.2916667,4.21666667 C12.3425,4.16666667 12.3916667,4.15 12.4491667,4.15 C12.5166667,4.15 12.5666667,4.16666667 12.6083333,4.21666667 L13.2825,4.88333333 C13.325,4.93333333 13.3416667,4.98333333 13.3416667,5.04166667 C13.3416667,5.10833333 13.325,5.15833333 13.2825,5.19166667 L12.8,5.675 C12.7591667,5.71666667 12.7333333,5.775 12.7166667,5.85 C12.7083333,5.91666667 12.7166667,5.975 12.7416667,6.025 L12.975,6.59166667 C12.9916667,6.65 13.0333333,6.7 13.0916667,6.74166667 C12.6,6.81666667 12.125,6.93333333 11.6666667,7.1 C11.6333333,6.975 11.5833333,6.85 11.5166667,6.73333333 C11.3583333,6.46666667 11.15,6.25833333 10.875,6.1 C10.6091667,5.94166667 10.3166667,5.86666667 10,5.86666667 C9.675,5.86666667 9.38333333,5.94166667 9.11583333,6.1 C8.84166667,6.25833333 8.63333333,6.46666667 8.475,6.73333333 C8.325,7.00833333 8.24166667,7.3 8.24166667,7.61666667 C8.24166667,7.93333333 8.325,8.225 8.475,8.5 C8.56666667,8.65833333 8.68333333,8.8 8.81666667,8.91666667 C8.26666667,9.475 7.80833333,10.1166667 7.45833333,10.825 L7.44916667,10.825 C7.43333333,10.8166667 7.40833333,10.8 7.39166667,10.775 L6.7175,10.1166667 C6.675,10.0666667 6.65833333,10.0166667 6.65833333,9.95833333 C6.65833333,9.89166667 6.675,9.84166667 6.7175,9.8 L7.2,9.31666667 Z" id="Fill-1" fill="#333333"></path>
            <g id="icons-/-Error_Mark" transform="translate(0.000000, 12.000000)" opacity="0">
                <circle id="Oval" fill="#FFFFFF" fill-rule="nonzero" cx="4" cy="4" r="4"></circle>
                <path d="M4.00666043,0.66666822 C4.60923891,0.667230482 5.16978374,0.820408594 5.68831169,1.12620713 C6.1900347,1.42368891 6.5896311,1.82328531 6.88711289,2.32500833 C7.19347473,2.84449144 7.34665335,3.4050364 7.34665335,4.00666001 C7.34665335,4.60828362 7.19347473,5.16882857 6.88711289,5.68831169 C6.5896311,6.1900347 6.1900347,6.5896311 5.68831169,6.88711289 C5.16882857,7.19347473 4.60828362,7.34665335 4.00666001,7.34665335 C3.4050364,7.34665335 2.84449144,7.19347473 2.32500833,6.88711289 C1.82328531,6.5896311 1.42368891,6.1900347 1.12620713,5.68831169 C0.819845288,5.16882857 0.666666667,4.60828362 0.666666667,4.00666001 C0.666666667,3.4050364 0.819845288,2.84449144 1.12620713,2.32500833 C1.42368891,1.82328531 1.82328531,1.42368891 2.32500833,1.12620713 C2.84353627,0.820408594 3.4040811,0.667230482 4.00665958,0.66666822 L4.00666043,0.66666822 Z M4.00666043,0.66666822 C4.00555043,0.666667185 4.00444029,0.666666667 4.00333,0.666666667 L4.00999001,0.666666667 C4.00887973,0.666666667 4.00776958,0.666667185 4.00665958,0.66666822 L4.00666043,0.66666822 Z M4.34299034,5.67499167 L4.34299034,5.00899101 L3.67032967,5.00899101 L3.67032967,5.67499167 L4.34299034,5.67499167 Z M4.34299034,4.34299034 L4.34299034,2.33832834 L3.67032967,2.33832834 L3.67032967,4.34299034 L4.34299034,4.34299034 Z" id="" fill="#F83200"></path>
            </g>
        </g>
    </g>
</svg>