<?xml version="1.0" encoding="UTF-8"?>
<svg width="20px" height="20px" viewBox="0 0 20 20" version="1.1" xmlns="http://www.w3.org/2000/svg" xmlns:xlink="http://www.w3.org/1999/xlink">
    <!-- Generator: Sketch 51.3 (57544) - http://www.bohemiancoding.com/sketch -->
    <title>icons / classes/ BMC_LAN_32_Error</title>
    <desc>Created with Sketch.</desc>
    <defs></defs>
    <g id="icons-/-classes/-BMC_LAN_32" stroke="none" stroke-width="1" fill="none" fill-rule="evenodd">
        <g id="icons-/-classes/-Lan">
            <g id="icons-/-20x20-icon-field" fill="#F5A623" fill-rule="nonzero" opacity="0">
                <rect x="0" y="0" width="20" height="20"></rect>
            </g>
            <path d="M14.2527473,11.1988012 L19,11.1988012 L19,18.7152847 L0.982017982,18.7152847 L0.982017982,0.697302697 L14.2527473,0.697302697 L14.2527473,11.1988012 Z M4.07492507,15.5324675 C4.18281772,15.5324675 4.2967027,15.5174827 4.41658342,15.4875125 C4.53646414,15.4575423 4.64435516,15.4065938 4.74025974,15.3346653 L4.74025974,13.2667333 C4.64435516,13.1948048 4.54245808,13.1438563 4.43456543,13.1138861 C4.32667279,13.0839159 4.20679387,13.0689311 4.07492507,13.0689311 C3.90709207,13.0689311 3.75124947,13.1018978 3.60739261,13.1678322 C3.46353574,13.2337666 3.32867196,13.3236758 3.2027972,13.4375624 C3.07692245,13.5514491 2.98401628,13.6833159 2.92407592,13.8331668 C2.86413556,13.9830177 2.83416583,14.1418573 2.83416583,14.3096903 C2.83416583,14.4775233 2.86413556,14.6333659 2.92407592,14.7772228 C2.98401628,14.9210796 3.07692245,15.0529465 3.2027972,15.1728272 C3.32867196,15.2927079 3.46053877,15.3826171 3.5984016,15.4425574 C3.73626443,15.5024978 3.895104,15.5324675 4.07492507,15.5324675 Z M18.2447552,17.9420579 L18.2447552,11.954046 L5.51348651,11.954046 L5.4955045,11.972028 L5.4955045,17.9420579 L18.2447552,17.9420579 Z M7.14985015,9.85014985 L6.39460539,10.8211788 L6.86213786,11.1988012 L6.8981019,11.1988012 L7.63536464,10.2637363 L7.14985015,9.85014985 Z M7.25774226,16.6833167 L9.36163836,16.6833167 L9.36163836,17.1868132 L6.68231768,17.1868132 L6.68231768,12.8891109 L7.25774226,12.8891109 L7.25774226,16.6833167 Z M8.57042957,8.06993007 L7.81518482,9.02297702 L8.28271728,9.4005994 L9.03796204,8.46553447 L8.57042957,8.06993007 Z M10.0989011,6.16383616 L9.32567433,7.13486513 L9.81118881,7.49450549 L10.5664336,6.55944056 L10.0989011,6.16383616 Z M11.2317682,12.9070929 L11.8431568,12.9070929 L13.5874126,17.2047952 L12.958042,17.2047952 L12.4545455,15.8921079 L10.6563437,15.8921079 L10.1708292,17.2047952 L9.57742258,17.2047952 L11.2317682,12.9070929 Z M10.2427572,4.43756244 C10.1828169,4.59340737 10.1528472,4.75524392 10.1528472,4.92307692 C10.1528472,5.09090993 10.1828169,5.24675253 10.2427572,5.39060939 C10.3026976,5.53446625 10.3926068,5.66633307 10.5124875,5.78621379 C10.6323682,5.90609451 10.770229,5.9960037 10.9260739,6.05594406 C11.0819189,6.11588442 11.2377615,6.14585415 11.3936064,6.14585415 C11.5734275,6.14585415 11.735264,6.11288744 11.8791209,6.04695305 C12.0229777,5.98101865 12.1548446,5.89110946 12.2747253,5.77722278 C12.394606,5.66333609 12.4845152,5.53146928 12.5444555,5.38161838 C12.6043959,5.23176748 12.6343656,5.07592489 12.6343656,4.91408591 C12.6343656,4.75224694 12.6073929,4.59640435 12.5534466,4.44655345 C12.4995002,4.29670255 12.409591,4.15884179 12.2837163,4.03296703 C12.1578415,3.90709228 12.0169838,3.81118914 11.8611389,3.74525475 C11.7052939,3.67932035 11.5434574,3.64635365 11.3756244,3.64635365 C11.2077914,3.64635365 11.0579427,3.68231732 10.9260739,3.75424575 C10.7582409,3.82617419 10.6203802,3.91908035 10.5124875,4.03296703 C10.4045949,4.14685372 10.3146857,4.2817175 10.2427572,4.43756244 Z M10.8247668,15.4245754 L12.2927073,15.4245754 L11.6453546,13.7522478 C11.5854143,13.5964028 11.5494506,13.464536 11.5374625,13.3566434 L11.4295704,13.7522478 C11.3816181,13.9080927 11.3336666,14.0459534 11.2857143,14.1658342 L10.8247668,15.4245754 Z M14.0549451,12.9070929 L14.6303696,12.9070929 L16.8961039,16.2877123 L16.8961039,12.9070929 L17.4355644,12.9070929 L17.4355644,17.2047952 L16.8601399,17.2047952 L14.5944056,13.8241758 L14.5944056,17.2047952 L14.0549451,17.2047952 L14.0549451,12.9070929 Z" id="" fill="#333333"></path>
        </g>
        <g id="icons-/-Error_Mark" transform="translate(0.000000, 12.000000)">
            <circle id="Oval" fill="#FFFFFF" fill-rule="nonzero" cx="4" cy="4" r="4"></circle>
            <path d="M4.00666043,0.66666822 C4.60923891,0.667230482 5.16978374,0.820408594 5.68831169,1.12620713 C6.1900347,1.42368891 6.5896311,1.82328531 6.88711289,2.32500833 C7.19347473,2.84449144 7.34665335,3.4050364 7.34665335,4.00666001 C7.34665335,4.60828362 7.19347473,5.16882857 6.88711289,5.68831169 C6.5896311,6.1900347 6.1900347,6.5896311 5.68831169,6.88711289 C5.16882857,7.19347473 4.60828362,7.34665335 4.00666001,7.34665335 C3.4050364,7.34665335 2.84449144,7.19347473 2.32500833,6.88711289 C1.82328531,6.5896311 1.42368891,6.1900347 1.12620713,5.68831169 C0.819845288,5.16882857 0.666666667,4.60828362 0.666666667,4.00666001 C0.666666667,3.4050364 0.819845288,2.84449144 1.12620713,2.32500833 C1.42368891,1.82328531 1.82328531,1.42368891 2.32500833,1.12620713 C2.84353627,0.820408594 3.4040811,0.667230482 4.00665958,0.66666822 L4.00666043,0.66666822 Z M4.00666043,0.66666822 C4.00555043,0.666667185 4.00444029,0.666666667 4.00333,0.666666667 L4.00999001,0.666666667 C4.00887973,0.666666667 4.00776958,0.666667185 4.00665958,0.66666822 L4.00666043,0.66666822 Z M4.34299034,5.67499167 L4.34299034,5.00899101 L3.67032967,5.00899101 L3.67032967,5.67499167 L4.34299034,5.67499167 Z M4.34299034,4.34299034 L4.34299034,2.33832834 L3.67032967,2.33832834 L3.67032967,4.34299034 L4.34299034,4.34299034 Z" id="" fill="#F83200"></path>
        </g>
    </g>
</svg>