<?xml version="1.0" encoding="UTF-8"?>
<svg width="20px" height="20px" viewBox="0 0 20 20" version="1.1" xmlns="http://www.w3.org/2000/svg" xmlns:xlink="http://www.w3.org/1999/xlink">
    <!-- Generator: Sketch 51.3 (57544) - http://www.bohemiancoding.com/sketch -->
    <title>icons / classes/ BMC_SystemSoftware_32</title>
    <desc>Created with Sketch.</desc>
    <defs></defs>
    <g id="icons-/-classes/-BMC_SystemSoftware_32" stroke="none" stroke-width="1" fill="none" fill-rule="evenodd">
        <g id="icons-/-classes/-System-Software">
            <g id="icons-/-20x20-icon-field" fill="#F5A623" fill-rule="nonzero" opacity="0">
                <rect x="0" y="0" width="20" height="20"></rect>
            </g>
            <path d="M18.8561439,1.81218781 C18.9040961,1.93206853 18.9400598,2.04595351 18.964036,2.15384615 C18.9880121,2.2617388 19,2.36962983 19,2.47752248 L19,10.7672328 C18.7842147,10.3956025 18.526475,10.0419597 18.2267732,9.70629371 C17.9270714,9.37062769 17.5914104,9.07692434 17.2197802,8.82517483 L17.2197802,5.01298701 L2.78021978,5.01298701 L2.78021978,13.2847153 L8.12087912,13.2847153 L8.12087912,13.6443556 C8.12087912,13.9080932 8.13286701,14.153845 8.15684316,14.3816184 C8.20479544,14.657344 8.25274701,14.8971019 8.3006993,15.1008991 L2.78021978,15.1008991 C2.67232713,15.1008991 2.55844216,15.0889112 2.43856144,15.0649351 C2.34265686,15.0409589 2.23476583,15.0049952 2.11488511,14.957043 C2.01898054,14.9090907 1.9230774,14.8551452 1.82717283,14.7952048 C1.73126825,14.7352644 1.63536511,14.6633371 1.53946054,14.5794206 C1.44355596,14.4955041 1.35964072,14.4025979 1.28771229,14.3006993 C1.21578386,14.1988007 1.15884137,14.0909097 1.11688312,13.977023 C1.07492487,13.8631363 1.04195816,13.7522483 1.01798202,13.6443556 C0.994005874,13.536463 0.982017982,13.4165841 0.982017982,13.2847153 L0.982017982,2.47752248 C0.982017982,2.3816179 0.997002847,2.2707299 1.02697303,2.14485514 C1.05694321,2.01898039 1.08990991,1.90509541 1.12587413,1.8031968 C1.16183834,1.70129819 1.21878083,1.59640414 1.2967033,1.48851149 C1.37462576,1.38061884 1.45254706,1.29070965 1.53046953,1.21878122 C1.608392,1.14685279 1.69830119,1.07192846 1.8001998,0.994005994 C1.90209841,0.916083526 2.00998944,0.853147093 2.12387612,0.805194805 C2.23776281,0.757242517 2.34265686,0.727272787 2.43856144,0.715284715 C2.5824183,0.703296643 2.69630328,0.697302697 2.78021978,0.697302697 L17.2197802,0.697302697 C17.351649,0.697302697 17.4745249,0.706293616 17.5884116,0.724275724 C17.7022983,0.742257832 17.8041954,0.772227562 17.8941059,0.814185814 C17.9840164,0.856144066 18.0829165,0.913086553 18.1908092,0.985014985 C18.2747257,1.04495534 18.3706288,1.12887059 18.4785215,1.23676324 C18.562438,1.32067974 18.6403593,1.41658288 18.7122877,1.52447552 C18.7842161,1.63236817 18.8321677,1.72827131 18.8561439,1.81218781 Z M3.96703297,3.32267732 C4.00299718,3.25074889 4.02097902,3.15484575 4.02097902,3.03496503 L4.002997,2.89110889 C4.002997,2.8431566 3.99100911,2.80119898 3.96703297,2.76523477 L3.82317682,2.53146853 L3.71528472,2.45954046 C3.66733243,2.43556432 3.62837178,2.41758248 3.5984016,2.40559441 C3.56843142,2.39360633 3.52347682,2.38761239 3.46353646,2.38761239 L3.33766234,2.36963037 L3.19380619,2.38761239 C3.15784198,2.38761239 3.11588436,2.39960028 3.06793207,2.42357642 C3.01997978,2.44755257 2.98101913,2.46853138 2.95104895,2.48651349 C2.92107877,2.50449559 2.88211812,2.5374623 2.83416583,2.58541459 C2.81018969,2.59740266 2.78021996,2.62737239 2.74425574,2.67532468 C2.73226767,2.69930082 2.71428583,2.72927055 2.69030969,2.76523477 L2.65434565,2.89110889 C2.64235758,2.91508503 2.63636364,2.9630366 2.63636364,3.03496503 L2.65434565,3.16083916 L2.67232767,3.25074925 L2.74425574,3.41258741 C2.76823189,3.4605397 2.79820162,3.49950035 2.83416583,3.52947053 C2.87013005,3.55944071 2.90609373,3.58041952 2.94205794,3.59240759 L3.06793207,3.66433566 L3.19380619,3.7002997 C3.22977041,3.71228777 3.27772198,3.71828172 3.33766234,3.71828172 C3.44555499,3.71828172 3.54445509,3.70329685 3.63436563,3.67332667 C3.72427617,3.64335649 3.79320655,3.60139887 3.84115884,3.54745255 C3.88911113,3.49350622 3.93106875,3.4185819 3.96703297,3.32267732 Z M5.65734266,3.53846154 C5.70529495,3.47852118 5.74125862,3.4095908 5.76523477,3.33166833 C5.78921091,3.25374586 5.8011988,3.15484575 5.8011988,3.03496503 L5.8011988,2.89110889 C5.78921073,2.8431566 5.77722284,2.80419595 5.76523477,2.77422577 C5.75324669,2.74425559 5.73526486,2.70529495 5.71128871,2.65734266 L5.62137862,2.53146853 C5.59740248,2.50749239 5.56443577,2.4835166 5.52247752,2.45954046 C5.48051927,2.43556432 5.44155862,2.42357642 5.40559441,2.42357642 L5.2977023,2.38761239 L5.13586414,2.36963037 L4.99200799,2.38761239 C4.95604378,2.38761239 4.9200801,2.39960028 4.88411588,2.42357642 L4.86613387,2.42357642 C4.81818158,2.44755257 4.7822179,2.47152835 4.75824176,2.4955045 L4.65034965,2.58541459 C4.61438543,2.60939073 4.5844157,2.63936046 4.56043956,2.67532468 L4.54245754,2.69330669 C4.5184814,2.72927091 4.50649351,2.75924064 4.50649351,2.78321678 C4.48251736,2.819181 4.47052947,2.86113862 4.47052947,2.90909091 L4.45254745,3.05294705 L4.47052947,3.17882118 C4.47052947,3.22677347 4.48251736,3.26273714 4.50649351,3.28671329 L4.56043956,3.41258741 C4.5844157,3.44855163 4.61138846,3.48151833 4.64135864,3.51148851 C4.67132882,3.54145869 4.71028947,3.56843145 4.75824176,3.59240759 L4.88411588,3.66433566 L4.99200799,3.7002997 C5.01598414,3.71228777 5.0639357,3.71828172 5.13586414,3.71828172 C5.25574486,3.71828172 5.35764194,3.70329685 5.44155844,3.67332667 C5.52547495,3.64335649 5.5974023,3.5984019 5.65734266,3.53846154 Z M17.2017982,2.47752248 L6.39460539,2.47752248 L6.39460539,3.55644356 L17.2017982,3.55644356 L17.2017982,2.47752248 Z M9.01998002,10.2097902 L9.03796204,10.2097902 L9.14585415,10.3176823 C9.04994957,10.4615392 8.94805249,10.6293697 8.84015984,10.8211788 C8.78021948,10.9290715 8.69630424,11.096902 8.58841159,11.3246753 L8.58841159,11.3426573 L8.57942058,11.3426573 C8.57342654,11.3426573 8.57042957,11.3486513 8.57042957,11.3606394 L8.17482517,11.7562438 L8.13886114,11.7562438 C8.12687307,11.7682318 8.11488517,11.7742258 8.1028971,11.7742258 L8.03096903,11.7742258 L7.95904096,11.7562438 L7.95904096,11.7202797 L7.41958042,11.1628372 L7.4015984,11.1448551 C7.38961033,11.1328671 7.38361638,11.1208792 7.38361638,11.1088911 L7.38361638,11.018981 L7.4015984,11.000999 L7.43756244,10.9290709 L7.81518482,10.5694306 C7.82717289,10.5694306 7.83616381,10.5664336 7.84215784,10.5604396 C7.84815188,10.5544455 7.85414582,10.5424576 7.86013986,10.5244755 C7.8661339,10.5064934 7.86913087,10.4915086 7.86913087,10.4795205 L7.86913087,10.4435564 C7.88111894,10.4315684 7.88711289,10.4135865 7.88711289,10.3896104 L7.88711289,10.3536464 C7.87512482,10.3416583 7.86913087,10.3296704 7.86913087,10.3176823 L7.65334665,9.83216783 L7.65334665,9.7962038 L7.63536464,9.76023976 C7.61138849,9.73626362 7.59340665,9.72427572 7.58141858,9.72427572 L7.54545455,9.68831169 L7.52747253,9.70629371 L7.43756244,9.68831169 L6.84415584,9.68831169 C6.84415584,9.67632362 6.8381619,9.67032967 6.82617383,9.67032967 L6.79020979,9.65234765 L6.73626374,9.54445554 L6.71828172,9.49050949 L6.71828172,8.75324675 L6.73626374,8.71728272 C6.73626374,8.70529465 6.74225768,8.6993007 6.75424575,8.6993007 L6.77222777,8.66333666 C6.77222777,8.65134859 6.77822172,8.64535465 6.79020979,8.64535465 L6.84415584,8.60939061 L7.45554446,8.60939061 L7.54545455,8.57342657 L7.5994006,8.53746254 C7.61138867,8.53746254 7.62937051,8.52547465 7.65334665,8.5014985 C7.66533473,8.48951043 7.67132867,8.47752254 7.67132867,8.46553447 L7.67132867,8.42957043 L7.86913087,7.998002 L7.88711289,7.87212787 C7.88711289,7.8601398 7.88111894,7.85414585 7.86913087,7.85414585 L7.86913087,7.81818182 C7.86913087,7.80619375 7.86313692,7.8001998 7.85114885,7.8001998 L7.85114885,7.76423576 L7.81518482,7.72827173 L7.43756244,7.33266733 L7.41958042,7.32367632 C7.40759235,7.31768229 7.39860143,7.30869137 7.39260739,7.2967033 L7.38361638,7.27872128 L7.38361638,7.18881119 L7.41958042,7.11688312 L7.95904096,6.57742258 C7.97102903,6.57742258 7.98001995,6.56843166 7.98601399,6.55044955 C7.99200802,6.53246744 8.00099894,6.52347652 8.01298701,6.52347652 L8.12087912,6.52347652 L8.17482517,6.55944056 L8.66033966,7.00899101 L8.82217782,7.02697303 L9.30769231,6.82917083 L9.37962038,6.79320679 L9.46953047,6.72127872 C9.48151854,6.70929065 9.48751249,6.69430578 9.48751249,6.67632368 L9.48751249,6.03796204 L9.52347652,5.94805195 C9.52347652,5.93606388 9.53246744,5.92707296 9.55044955,5.92107892 C9.56843166,5.91508489 9.58341652,5.90909094 9.5954046,5.9030969 C9.60739267,5.89710287 9.61938056,5.89410589 9.63136863,5.89410589 L10.4405594,5.89410589 C10.4525475,5.89410589 10.4585415,5.90009984 10.4585415,5.91208791 L10.5304695,5.93006993 L10.5304695,6.001998 C10.5424576,6.01398607 10.5484515,6.02597397 10.5484515,6.03796204 L10.5484515,6.5954046 C10.5604396,6.61938074 10.5664336,6.63736258 10.5664336,6.64935065 L10.5844156,6.7032967 C10.5844156,6.71528478 10.5904095,6.72127872 10.6023976,6.72127872 L10.6203796,6.75724276 L10.6563437,6.81118881 L11.1598402,7.00899101 L11.2317682,7.02697303 L11.3756244,7.00899101 L11.8071928,6.57742258 L11.8791209,6.54145854 L11.987013,6.54145854 L12.0589411,6.55944056 L12.0589411,6.5954046 L12.6163836,7.0989011 L12.6163836,7.17082917 C12.6283717,7.18281724 12.6343656,7.19480513 12.6343656,7.20679321 L12.6343656,7.27872128 C12.6343656,7.29070935 12.6283717,7.2967033 12.6163836,7.2967033 L12.6163836,7.36863137 L12.2207792,7.74625375 L12.1848152,7.81818182 C12.1728271,7.83016989 12.1638362,7.84515476 12.1578422,7.86313686 C12.1518481,7.88111897 12.1488511,7.89610384 12.1488511,7.90809191 L12.2207792,8.10589411 L12.1488511,8.14185814 C11.9450539,8.21378657 11.7952053,8.26773209 11.6993007,8.3036963 C11.4715273,8.39960088 11.2977029,8.48351612 11.1778222,8.55544456 L11.1598402,8.5014985 L10.9080919,8.1958042 C10.8721277,8.17182805 10.836164,8.15384621 10.8001998,8.14185814 C10.7522475,8.10589393 10.7102899,8.0759242 10.6743257,8.05194805 L10.5664336,7.998002 C10.5304694,7.97402585 10.4945057,7.95604402 10.4585415,7.94405594 C10.4225772,7.93206787 10.3686317,7.92607393 10.2967033,7.92607393 C10.2727272,7.91408585 10.2247756,7.90809191 10.1528472,7.90809191 L9.99100899,7.87212787 L9.86513487,7.87212787 L9.72127872,7.90809191 L9.5954046,7.90809191 C9.57142845,7.92007998 9.54145872,7.93206787 9.50549451,7.94405594 L9.36163836,8.01598402 C9.301698,8.05194823 9.25674341,8.08191796 9.22677323,8.10589411 C9.19680305,8.12987025 9.16983029,8.15384603 9.14585415,8.17782218 L9.03796204,8.26773227 C8.99000975,8.31568456 8.95704305,8.3546452 8.93906094,8.38461538 C8.92107883,8.41458556 8.90010002,8.44155832 8.87612388,8.46553447 L8.8041958,8.57342657 C8.79220773,8.60939079 8.77422589,8.65734236 8.75024975,8.71728272 L8.6963037,8.82517483 L8.66033966,8.96903097 C8.64835159,9.00499518 8.64235764,9.05294675 8.64235764,9.11288711 L8.62437562,9.23876124 L8.64235764,9.4005994 C8.65434571,9.46053976 8.66033966,9.49650344 8.66033966,9.50849151 L8.76823177,9.7962038 C8.78021984,9.84415608 8.79220773,9.88011976 8.8041958,9.9040959 L8.94805195,10.1198801 C8.97202809,10.1558443 8.99600388,10.1858141 9.01998002,10.2097902 Z M18.7842158,12.1158841 C18.8081919,12.1998006 18.8381617,12.3136856 18.8741259,12.4575425 L18.964036,12.8531469 L19,13.2307692 C19.0119881,13.2907096 19.0119881,13.3866127 19,13.5184815 L19,13.6263736 C19,13.9980039 18.9700303,14.3396588 18.9100899,14.6513487 C18.8381615,15.0109908 18.7392614,15.3346639 18.6133866,15.6223776 C18.4875119,15.9100913 18.3316693,16.1918068 18.1458541,16.4675325 C17.960039,16.7432581 17.7502509,16.9980008 17.5164835,17.2317682 C17.2827161,17.4655356 17.0399613,17.6663328 16.7882118,17.8341658 C16.5004981,18.025975 16.2097917,18.1818176 15.9160839,18.3016983 C15.6223762,18.421579 15.3017,18.5234761 14.954046,18.6073926 C14.6663322,18.667333 14.3306712,18.6973027 13.9470529,18.6973027 C13.5754227,18.6973027 13.2337678,18.667333 12.9220779,18.6073926 C12.5624358,18.5354642 12.2357657,18.4365641 11.9420579,18.3106893 C11.6483502,18.1848146 11.3696317,18.0319689 11.1058941,17.8521479 C10.8421565,17.6723268 10.5934078,17.4655356 10.3596404,17.2317682 C10.125873,16.9980008 9.91608485,16.7402611 9.73026973,16.4585415 C9.54445462,16.1768218 9.38861202,15.8921093 9.26273726,15.6043956 C9.13686251,15.3166819 9.0379624,14.9990027 8.96603397,14.6513487 C8.89410553,14.3276707 8.85814186,13.9860158 8.85814186,13.6263736 L8.89410589,13.6263736 C8.89410589,13.2547434 8.93006957,12.9130885 9.001998,12.6013986 C9.07392643,12.2417564 9.17282654,11.9180834 9.2987013,11.6303696 C9.42457605,11.3426559 9.58341562,11.0609404 9.77522478,10.7852148 C9.94305778,10.5454533 10.1468519,10.3026985 10.3866134,10.0569431 C10.6263748,9.81118758 10.8721266,9.5984025 11.1238761,9.41858142 C11.4115899,9.22677227 11.6963023,9.0679327 11.978022,8.94205794 C12.2597417,8.81618319 12.5744238,8.72327702 12.9220779,8.66333666 C13.2457559,8.59140823 13.5874108,8.55544456 13.9470529,8.55544456 C14.2347667,8.55544456 14.534464,8.58541429 14.8461538,8.64535465 C15.1218795,8.69330693 15.4095889,8.77122823 15.7092907,8.87912088 C15.9730283,8.98701353 16.227771,9.10988942 16.4735265,9.24775225 C16.7192819,9.38561507 16.9620368,9.55644254 17.2017982,9.76023976 C17.3816193,9.89210855 17.5374619,10.0359633 17.6693307,10.1918082 C17.8251756,10.3716293 17.9570424,10.5334658 18.0649351,10.6773227 C18.1728277,10.8211795 18.2867127,11.0069919 18.4065934,11.2347652 C18.502498,11.4025982 18.5924072,11.5944045 18.6763237,11.8101898 L18.7482517,11.954046 C18.7482517,11.9780221 18.7542457,12.0079918 18.7662338,12.043956 L18.7842158,12.1158841 Z M17.7952048,14.4535465 C17.8551452,14.1898089 17.8791209,13.9260752 17.8671329,13.6623377 C17.8551448,13.3986001 17.8251751,13.1378634 17.7772228,12.8801199 C17.7292705,12.6223763 17.6543462,12.3706306 17.5524476,12.1248751 C17.4505489,11.8791197 17.327673,11.6603406 17.1838162,11.4685315 C17.0279712,11.2407581 16.8691317,11.0429579 16.7072927,10.8751249 C16.5454537,10.7072919 16.3566444,10.5454553 16.1408591,10.3896104 C15.94905,10.2577416 15.727274,10.1408597 15.4755245,10.038961 C15.223775,9.93706243 14.9690323,9.85914113 14.7112887,9.80519481 C14.4535452,9.75124848 14.1928085,9.72427572 13.9290709,9.72427572 C13.6653333,9.72427572 13.4075937,9.74825151 13.1558442,9.7962038 C12.9040946,9.84415608 12.6583429,9.91608344 12.4185814,10.011988 C12.1668319,10.1318687 11.9450559,10.2577416 11.7532468,10.3896104 C11.5254734,10.5454553 11.3336671,10.7072919 11.1778222,10.8751249 C10.986013,11.066934 10.8301704,11.2647342 10.7102897,11.4685315 C10.5544448,11.6963048 10.4285719,11.9180808 10.3326673,12.1338661 C10.2247747,12.3736276 10.1468534,12.6193794 10.0989011,12.8711289 C10.0269727,13.1828187 9.99100899,13.4465524 9.99100899,13.6623377 C9.99100899,13.9260752 10.0209787,14.1868119 10.0809191,14.4445554 C10.1408594,14.702299 10.2247747,14.9510478 10.3326673,15.1908092 C10.44056,15.4305706 10.5664328,15.6583406 10.7102897,15.8741259 C10.8541466,16.0899112 11.0099892,16.2757235 11.1778222,16.4315684 C11.3576433,16.6353657 11.5434556,16.7972022 11.7352647,16.9170829 C11.9630381,17.0609398 12.1848141,17.1808187 12.4005994,17.2767233 C12.664337,17.3846159 12.9160827,17.4685312 13.1558442,17.5284715 C13.4195817,17.5764238 13.6833154,17.6003996 13.9470529,17.6003996 C14.2107905,17.6003996 14.4805181,17.5764238 14.7562438,17.5284715 C14.9960052,17.4685312 15.241757,17.3846159 15.4935065,17.2767233 C15.745256,17.1688306 15.9610381,17.0489517 16.1408591,16.9170829 C16.3686325,16.761238 16.5664327,16.5994014 16.7342657,16.4315684 C16.9260749,16.2517474 17.0819175,16.0599411 17.2017982,15.8561439 C17.3576431,15.6283705 17.483516,15.4006005 17.5794206,15.1728272 C17.6633371,14.981018 17.7352644,14.7412602 17.7952048,14.4535465 Z M15.1518482,12.4575425 C15.2837169,12.5894112 15.388611,12.7392599 15.4665335,12.9070929 C15.5444559,13.0749259 15.5954045,13.2487503 15.6193806,13.4285714 L15.6193806,13.6083916 C15.6193806,13.7762246 15.5954048,13.9350642 15.5474525,14.0849151 C15.4995003,14.234766 15.4275729,14.3876116 15.3316683,14.5434565 C15.2477518,14.6753253 15.1458547,14.7922073 15.025974,14.8941059 C14.9060933,14.9960045 14.7682325,15.0829167 14.6123876,15.1548452 L14.5404595,15.1908092 L14.4865135,15.2267732 L14.2527473,15.2987013 L14.1808192,15.2987013 C14.1688311,15.3106894 14.1388614,15.3166833 14.0909091,15.3166833 C14.078921,15.3286714 14.0489513,15.3346653 14.000999,15.3346653 L13.8391608,15.3346653 L13.8031968,15.3166833 C13.5874115,15.2927072 13.3896113,15.2387617 13.2097902,15.1548452 C13.0299691,15.0709287 12.8741265,14.9630376 12.7422577,14.8311688 C12.5864128,14.6753239 12.4725278,14.5104904 12.4005994,14.3366633 C12.328671,14.1628363 12.2867133,13.9800209 12.2747253,13.7882118 L12.2567433,13.7162837 L12.2567433,13.6263736 C12.2567433,13.4585406 12.283716,13.2937071 12.3376623,13.1318681 C12.3916087,12.9700292 12.4725269,12.8141866 12.5804196,12.6643357 C12.6883122,12.5144848 12.8111881,12.3916089 12.9490509,12.2957043 C13.0869138,12.1997997 13.2337655,12.1218784 13.3896104,12.0619381 L13.4795205,12.025974 C13.5034966,12.013986 13.5394603,12.007992 13.5874126,12.007992 C13.5994007,11.9960039 13.6293704,11.984016 13.6773227,11.972028 L13.7852148,11.972028 L13.8211788,11.954046 L14.1628372,11.954046 C14.3546463,11.9780221 14.5314677,12.0289706 14.6933067,12.1068931 C14.8551457,12.1848156 15.0079913,12.3016975 15.1518482,12.4575425 Z M14.5764236,13.8781219 C14.6003997,13.8061934 14.6123876,13.7252752 14.6123876,13.6353646 C14.6123876,13.5454541 14.5974027,13.4615389 14.5674326,13.3836164 C14.5374624,13.3056939 14.4895108,13.2337666 14.4235764,13.1678322 C14.357642,13.1018978 14.2857147,13.0509492 14.2077922,13.014985 C14.1298697,12.9790208 14.0429575,12.961039 13.9470529,12.961039 C13.8511484,12.961039 13.7642362,12.9790208 13.6863137,13.014985 C13.6083912,13.0509492 13.5394608,13.0989008 13.4795205,13.1588412 C13.4195801,13.2187815 13.3716286,13.2877119 13.3356643,13.3656344 C13.2997001,13.4435568 13.2817183,13.5304691 13.2817183,13.6263736 C13.2817183,13.7222782 13.2997001,13.8091904 13.3356643,13.8871129 C13.3716286,13.9650354 13.4195801,14.0339657 13.4795205,14.0939061 C13.5394608,14.1538465 13.6083912,14.201798 13.6863137,14.2377622 C13.7642362,14.2737265 13.8511484,14.2917083 13.9470529,14.2917083 C14.0429575,14.2917083 14.1298697,14.2737265 14.2077922,14.2377622 C14.2857147,14.201798 14.357642,14.1538465 14.4235764,14.0939061 C14.4895108,14.0339657 14.5404594,13.9620384 14.5764236,13.8781219 Z" id="" fill="#2B2826"></path>
        </g>
        <g id="icons-/-Error_Mark" transform="translate(0.000000, 12.000000)" opacity="0">
            <circle id="Oval" fill="#FFFFFF" fill-rule="nonzero" cx="4" cy="4" r="4"></circle>
            <path d="M4.00666043,0.66666822 C4.60923891,0.667230482 5.16978374,0.820408594 5.68831169,1.12620713 C6.1900347,1.42368891 6.5896311,1.82328531 6.88711289,2.32500833 C7.19347473,2.84449144 7.34665335,3.4050364 7.34665335,4.00666001 C7.34665335,4.60828362 7.19347473,5.16882857 6.88711289,5.68831169 C6.5896311,6.1900347 6.1900347,6.5896311 5.68831169,6.88711289 C5.16882857,7.19347473 4.60828362,7.34665335 4.00666001,7.34665335 C3.4050364,7.34665335 2.84449144,7.19347473 2.32500833,6.88711289 C1.82328531,6.5896311 1.42368891,6.1900347 1.12620713,5.68831169 C0.819845288,5.16882857 0.666666667,4.60828362 0.666666667,4.00666001 C0.666666667,3.4050364 0.819845288,2.84449144 1.12620713,2.32500833 C1.42368891,1.82328531 1.82328531,1.42368891 2.32500833,1.12620713 C2.84353627,0.820408594 3.4040811,0.667230482 4.00665958,0.66666822 L4.00666043,0.66666822 Z M4.00666043,0.66666822 C4.00555043,0.666667185 4.00444029,0.666666667 4.00333,0.666666667 L4.00999001,0.666666667 C4.00887973,0.666666667 4.00776958,0.666667185 4.00665958,0.66666822 L4.00666043,0.66666822 Z M4.34299034,5.67499167 L4.34299034,5.00899101 L3.67032967,5.00899101 L3.67032967,5.67499167 L4.34299034,5.67499167 Z M4.34299034,4.34299034 L4.34299034,2.33832834 L3.67032967,2.33832834 L3.67032967,4.34299034 L4.34299034,4.34299034 Z" id="" fill="#F83200"></path>
        </g>
    </g>
</svg>