<?xml version="1.0" encoding="UTF-8"?>
<svg width="20px" height="20px" viewBox="0 0 20 20" version="1.1" xmlns="http://www.w3.org/2000/svg" xmlns:xlink="http://www.w3.org/1999/xlink">
    <!-- Generator: Sketch 51.3 (57544) - http://www.bohemiancoding.com/sketch -->
    <title>icons / classes/ BMC_Product_32</title>
    <desc>Created with Sketch.</desc>
    <defs></defs>
    <g id="icons-/-classes/-BMC_Product_32" stroke="none" stroke-width="1" fill="none" fill-rule="evenodd">
        <g id="icons-/-classes/-Product">
            <g id="icons-/-20x20-icon-field" fill="#F5A623" fill-rule="nonzero" opacity="0">
                <rect x="0" y="0" width="20" height="20"></rect>
            </g>
            <path d="M18.982018,9.85014985 C19.0179822,9.9580425 19.0119883,10.0659335 18.964036,10.1738262 L17.5974026,12.4575425 L17.5974026,17.3486513 L17.5794206,17.4745255 C17.5674325,17.558442 17.5404598,17.6273724 17.4985015,17.6813187 C17.4565432,17.735265 17.3876129,17.7802196 17.2917083,17.8161838 L17.1838162,17.8521479 L11.7712288,18.6973027 L11.6633367,18.6973027 L11.5554446,18.6433566 L8.64235764,16.7552448 C8.52247692,16.6833163 8.46253746,16.5754253 8.46253746,16.4315684 L8.46253746,11.1628372 L7.5994006,9.13086913 C7.52747217,8.96303612 7.5574419,8.81918142 7.68931069,8.6993007 C7.74925105,8.63936034 7.81818143,8.60039969 7.8961039,8.58241758 C7.97402636,8.56443547 8.04895069,8.57342639 8.12087912,8.60939061 L10.8541459,9.92207792 C10.9500504,9.97003021 11.0159838,10.0359636 11.0519481,10.1198801 L11.2317682,10.5694306 L13.9110889,10.2637363 L15.0979021,8.37562438 C15.1458544,8.29170787 15.2147848,8.23776236 15.3046953,8.21378621 C15.3946058,8.18981007 15.487512,8.19580402 15.5834166,8.23176823 L18.7662338,9.61638362 C18.8861145,9.6643359 18.9580418,9.7422572 18.982018,9.85014985 Z M14.4865135,10.9110889 L14.4865135,12.4215784 L16.4645355,12.2057942 L14.4865135,10.9110889 Z M9.23576424,11.018981 C9.23576424,11.0429572 9.24175818,11.060939 9.25374625,11.0729271 L11.1058941,12.2777223 L10.3686314,10.5874126 L8.71428571,9.7962038 L9.21778222,10.9470529 C9.22977029,10.9830172 9.23576424,11.0069929 9.23576424,11.018981 Z M11.3396603,17.5824176 L11.3396603,12.997003 L9.23576424,11.6303696 L9.23576424,16.2157842 L11.3396603,17.5824176 Z M11.4115884,11.036963 L12.1308691,12.7092907 L14.000999,12.4755245 L14.000999,10.7852148 L13.965035,10.7492507 L11.4115884,11.036963 Z M12.1308691,17.8701299 L16.7522478,17.1328671 L16.7522478,12.6373626 L12.1488511,13.1768232 L12.1308691,13.1948052 L12.1308691,17.8701299 Z M16.95005,11.9180819 L18.028971,10.1558442 L15.5654346,9.07692308 L14.7022977,10.4795205 L16.95005,11.9180819 Z M18.8741259,1.81218781 C18.9580424,2.02797311 19,2.24974911 19,2.47752248 L19,8.8971029 L17.2017982,8.12387612 L17.2017982,5.01298701 L2.78021978,5.01298701 L2.78021978,13.3026973 L7.70729271,13.3026973 L7.70729271,15.1008991 L2.78021978,15.1008991 C2.54045834,15.1008991 2.31568536,15.0559445 2.10589411,14.966034 C1.89610285,14.8761234 1.70729355,14.7532475 1.53946054,14.5974026 C1.33566332,14.4055934 1.19180861,14.2047963 1.10789211,13.995005 C1.0239756,13.7852137 0.982017982,13.5544468 0.982017982,13.3026973 L0.982017982,2.47752248 C0.982017982,2.24974911 1.0239756,2.03097008 1.10789211,1.82117882 C1.19180861,1.61138756 1.3266724,1.41358734 1.51248751,1.22777223 C1.69830263,1.04195711 1.89610285,0.904096354 2.10589411,0.814185814 C2.31568536,0.724275275 2.54045834,0.679320679 2.78021978,0.679320679 L17.2017982,0.679320679 C17.4535477,0.679320679 17.6813177,0.724275275 17.8851149,0.814185814 C18.0889121,0.904096354 18.2837154,1.04195711 18.4695305,1.22777223 C18.6553456,1.41358734 18.7902094,1.60839059 18.8741259,1.81218781 Z M3.84115884,3.55644356 C3.94905149,3.43656284 4.002997,3.2627384 4.002997,3.03496503 C4.002997,2.92707239 3.98501516,2.8371632 3.94905095,2.76523477 C3.91308673,2.69330633 3.86213819,2.62437595 3.7962038,2.55844156 C3.7302694,2.49250716 3.65834205,2.44455559 3.58041958,2.41458541 C3.50249711,2.38461523 3.4155849,2.36963037 3.31968032,2.36963037 C3.22377574,2.36963037 3.13386655,2.39060918 3.04995005,2.43256743 C2.96603355,2.47452568 2.89410619,2.52547423 2.83416583,2.58541459 C2.77422547,2.64535495 2.72627391,2.7172823 2.69030969,2.8011988 C2.65434547,2.8851153 2.63636364,2.9630366 2.63636364,3.03496503 C2.63636364,3.10689347 2.65434547,3.19080871 2.69030969,3.28671329 C2.72627391,3.38261786 2.77422547,3.45754219 2.83416583,3.51148851 C2.89410619,3.56543484 2.96603355,3.6133864 3.04995005,3.65534466 C3.13386655,3.69730291 3.22377574,3.71828172 3.31968032,3.71828172 C3.55944176,3.71828172 3.73326619,3.6643362 3.84115884,3.55644356 Z M5.63936064,3.55644356 C5.74725329,3.43656284 5.8011988,3.2627384 5.8011988,3.03496503 C5.8011988,2.93906046 5.78621394,2.85214824 5.75624376,2.77422577 C5.72627358,2.69630331 5.68131898,2.62737293 5.62137862,2.56743257 C5.56143826,2.50749221 5.48951091,2.45954064 5.40559441,2.42357642 C5.3216779,2.38761221 5.22877174,2.36963037 5.12687313,2.36963037 C5.02497452,2.36963037 4.93506532,2.39060918 4.85714286,2.43256743 C4.77922039,2.47452568 4.70429606,2.52547423 4.63236763,2.58541459 C4.5604392,2.64535495 4.51248763,2.71428532 4.48851149,2.79220779 C4.46453534,2.87013026 4.45254745,2.95704248 4.45254745,3.05294705 C4.45254745,3.14885163 4.46453534,3.23276687 4.48851149,3.3046953 C4.51248763,3.37662374 4.5604392,3.44255714 4.63236763,3.5024975 C4.70429606,3.56243786 4.77922039,3.6133864 4.85714286,3.65534466 C4.93506532,3.69730291 5.02797149,3.71828172 5.13586414,3.71828172 C5.3636375,3.71828172 5.53146799,3.6643362 5.63936064,3.55644356 Z M17.2017982,3.57442557 L17.2017982,2.47752248 L6.39460539,2.47752248 L6.39460539,3.57442557 L17.2017982,3.57442557 Z" id="" fill="#2B2826"></path>
        </g>
        <g id="icons-/-Error_Mark" transform="translate(0.000000, 12.000000)" opacity="0">
            <circle id="Oval" fill="#FFFFFF" fill-rule="nonzero" cx="4" cy="4" r="4"></circle>
            <path d="M4.00666043,0.66666822 C4.60923891,0.667230482 5.16978374,0.820408594 5.68831169,1.12620713 C6.1900347,1.42368891 6.5896311,1.82328531 6.88711289,2.32500833 C7.19347473,2.84449144 7.34665335,3.4050364 7.34665335,4.00666001 C7.34665335,4.60828362 7.19347473,5.16882857 6.88711289,5.68831169 C6.5896311,6.1900347 6.1900347,6.5896311 5.68831169,6.88711289 C5.16882857,7.19347473 4.60828362,7.34665335 4.00666001,7.34665335 C3.4050364,7.34665335 2.84449144,7.19347473 2.32500833,6.88711289 C1.82328531,6.5896311 1.42368891,6.1900347 1.12620713,5.68831169 C0.819845288,5.16882857 0.666666667,4.60828362 0.666666667,4.00666001 C0.666666667,3.4050364 0.819845288,2.84449144 1.12620713,2.32500833 C1.42368891,1.82328531 1.82328531,1.42368891 2.32500833,1.12620713 C2.84353627,0.820408594 3.4040811,0.667230482 4.00665958,0.66666822 L4.00666043,0.66666822 Z M4.00666043,0.66666822 C4.00555043,0.666667185 4.00444029,0.666666667 4.00333,0.666666667 L4.00999001,0.666666667 C4.00887973,0.666666667 4.00776958,0.666667185 4.00665958,0.66666822 L4.00666043,0.66666822 Z M4.34299034,5.67499167 L4.34299034,5.00899101 L3.67032967,5.00899101 L3.67032967,5.67499167 L4.34299034,5.67499167 Z M4.34299034,4.34299034 L4.34299034,2.33832834 L3.67032967,2.33832834 L3.67032967,4.34299034 L4.34299034,4.34299034 Z" id="" fill="#F83200"></path>
        </g>
    </g>
</svg>