<?xml version="1.0" encoding="UTF-8"?>
<svg width="20px" height="20px" viewBox="0 0 20 20" version="1.1" xmlns="http://www.w3.org/2000/svg" xmlns:xlink="http://www.w3.org/1999/xlink">
    <!-- Generator: Sketch 51.3 (57544) - http://www.bohemiancoding.com/sketch -->
    <title>icons / classes/ BMC_HardwarePackage_32_Error</title>
    <desc>Created with Sketch.</desc>
    <defs>
        <polygon id="path-1" points="0 0.000166666667 19.9998333 0.000166666667 19.9998333 19.9999583 0 19.9999583"></polygon>
    </defs>
    <g id="icons-/-classes/-BMC_HardwarePackage_32" stroke="none" stroke-width="1" fill="none" fill-rule="evenodd">
        <g id="icons-/-classes/-Hardware-Package" fill="#F5A623" fill-rule="nonzero" opacity="0">
            <g id="icons-/-20x20-icon-field">
                <rect x="0" y="0" width="20" height="20"></rect>
            </g>
        </g>
        <g id="Group-3">
            <mask id="mask-2" fill="white">
                <use xlink:href="#path-1"></use>
            </mask>
            <g id="Clip-2"></g>
            <path d="M18.9998333,16.5651667 L15.4998333,18.631 L15.4998333,14.3735 L18.9998333,12.3485 L18.9998333,16.5651667 Z M14.9998333,13.5151667 L11.4748333,11.4818333 L14.9998333,9.39933333 L18.5248333,11.4818333 L14.9998333,13.5151667 Z M14.4998333,18.6401667 L10.9998333,16.5651667 L10.9998333,12.3485 L14.4998333,14.3735 L14.4998333,18.6401667 Z M19.7581667,11.0651667 L15.2581667,8.39933333 C15.1831667,8.34933333 15.0915,8.33266667 14.9998333,8.33266667 C14.9081667,8.33266667 14.8165,8.34933333 14.7415,8.39933333 L10.2415,11.0651667 C10.0915,11.1485 9.99983333,11.3151667 9.99983333,11.4818333 L9.99983333,16.8485 C9.99983333,17.0151667 10.0915,17.1818333 10.2498333,17.2651667 L13.2748333,19.056 L14.7415,19.9318333 C14.8998333,20.0226667 15.0998333,20.0226667 15.2581667,19.9318333 L19.7581667,17.2651667 C19.9081667,17.1818333 19.9998333,17.0151667 19.9998333,16.8485 L19.9998333,11.4818333 C19.9998333,11.3818333 19.9665,11.2901667 19.9081667,11.2068333 C19.8748333,11.1485 19.8165,11.0985 19.7581667,11.0651667 Z M8.4415,17.4985 L0.783166667,17.4985 C0.349833333,17.4985 -0.000166666667,17.1485 -0.000166666667,16.7151667 L-0.000166666667,8.28266667 C-0.000166666667,7.84933333 0.349833333,7.49933333 0.783166667,7.49933333 L11.6665,7.49933333 L12.5498333,7.49933333 C12.6665,7.49933333 12.7831667,7.52433333 12.8831667,7.566 L11.6665,8.291 L10.8831667,8.74933333 L1.24983333,8.74933333 L1.24983333,16.2485 L8.33316667,16.2485 L8.33316667,16.7235 L8.33316667,16.8485 C8.33316667,17.0735 8.3665,17.2901667 8.4415,17.4985 Z M8.74983333,19.1651667 L9.1665,19.9976667 L4.1665,19.9976667 L4.58316667,19.1651667 L4.7665,18.7893333 C4.90816667,18.5068333 5.19983333,18.3318333 5.5165,18.3318333 L7.8165,18.3318333 C8.13316667,18.3318333 8.42483333,18.5068333 8.5665,18.7893333 L8.74983333,19.1651667 Z M14.1665,4.166 L17.4998333,4.166 L17.4998333,2.49933333 L14.1665,2.49933333 L14.1665,4.166 Z M19.1665,0.000166666667 L12.4998333,0.000166666667 C12.0415,0.000166666667 11.6665,0.375166667 11.6665,0.8335 L11.6665,5.83266667 L12.5498333,5.83266667 C13.3165,5.83266667 13.9998333,6.191 14.4498333,6.741 C14.6248333,6.691 14.8165,6.666 14.9998333,6.666 C15.3915,6.666 15.7748333,6.77433333 16.1081667,6.966 L19.9998333,9.2735 L19.9998333,0.8335 C19.9998333,0.375166667 19.6248333,0.000166666667 19.1665,0.000166666667 Z" id="Fill-1" fill="#333333" mask="url(#mask-2)"></path>
        </g>
        <g id="icons-/-Error_Mark" transform="translate(0.000000, 12.000000)">
            <circle id="Oval" fill="#FFFFFF" fill-rule="nonzero" cx="4" cy="4" r="4"></circle>
            <path d="M4.00666043,0.66666822 C4.60923891,0.667230482 5.16978374,0.820408594 5.68831169,1.12620713 C6.1900347,1.42368891 6.5896311,1.82328531 6.88711289,2.32500833 C7.19347473,2.84449144 7.34665335,3.4050364 7.34665335,4.00666001 C7.34665335,4.60828362 7.19347473,5.16882857 6.88711289,5.68831169 C6.5896311,6.1900347 6.1900347,6.5896311 5.68831169,6.88711289 C5.16882857,7.19347473 4.60828362,7.34665335 4.00666001,7.34665335 C3.4050364,7.34665335 2.84449144,7.19347473 2.32500833,6.88711289 C1.82328531,6.5896311 1.42368891,6.1900347 1.12620713,5.68831169 C0.819845288,5.16882857 0.666666667,4.60828362 0.666666667,4.00666001 C0.666666667,3.4050364 0.819845288,2.84449144 1.12620713,2.32500833 C1.42368891,1.82328531 1.82328531,1.42368891 2.32500833,1.12620713 C2.84353627,0.820408594 3.4040811,0.667230482 4.00665958,0.66666822 L4.00666043,0.66666822 Z M4.00666043,0.66666822 C4.00555043,0.666667185 4.00444029,0.666666667 4.00333,0.666666667 L4.00999001,0.666666667 C4.00887973,0.666666667 4.00776958,0.666667185 4.00665958,0.66666822 L4.00666043,0.66666822 Z M4.34299034,5.67499167 L4.34299034,5.00899101 L3.67032967,5.00899101 L3.67032967,5.67499167 L4.34299034,5.67499167 Z M4.34299034,4.34299034 L4.34299034,2.33832834 L3.67032967,2.33832834 L3.67032967,4.34299034 L4.34299034,4.34299034 Z" id="" fill="#F83200"></path>
        </g>
    </g>
</svg>