<?xml version="1.0" encoding="UTF-8"?>
<svg width="20px" height="20px" viewBox="0 0 20 20" version="1.1" xmlns="http://www.w3.org/2000/svg" xmlns:xlink="http://www.w3.org/1999/xlink">
    <!-- Generator: Sketch 51.3 (57544) - http://www.bohemiancoding.com/sketch -->
    <title>icons / classes/ BMC_Share_32</title>
    <desc>Created with Sketch.</desc>
    <defs></defs>
    <g id="icons-/-classes/-BMC_Share_32" stroke="none" stroke-width="1" fill="none" fill-rule="evenodd">
        <g id="icons-/-classes/-BMC-share" fill="#F5A623" fill-rule="nonzero" opacity="0">
            <g id="icons-/-20x20-icon-field">
                <rect x="0" y="0" width="20" height="20"></rect>
            </g>
        </g>
        <path d="M20,14.1666667 L13.3333333,8.33333333 L13.3333333,11.6666667 C8.2,11.6666667 5.58333333,14.875 4.34166667,17.3166667 C3.625,18.7166667 3.36666667,19.8666667 3.34166667,19.9916667 C3.39166667,19.8833333 3.975,18.85 5.9,17.9666667 C7.40833333,17.275 9.75,16.6666667 13.325,16.6666667 L13.3333333,16.6666667 L13.3333333,20 L20,14.1666667 Z M11.6666667,10.1083333 L11.6666667,9.03333333 L8.06666667,10.2666667 L10.8666667,2.05833333 C10.0666667,1.80833333 9.21666667,1.66666667 8.33333333,1.66666667 C3.73333333,1.66666667 0,5.4 0,10 C0,12.5416667 1.14166667,14.825 2.94166667,16.35 C4.425,13.6 7.19166667,10.6916667 11.6666667,10.1083333 Z M10.7416667,7.59166667 L13.3416667,0 C14.525,0.383333333 15.5583333,1.03333333 16.4333333,1.94166667 C17.3,2.8 17.9333333,3.825 18.3333333,4.99166667 L10.7416667,7.59166667 Z" id="Fill-1" fill="#333333"></path>
        <g id="icons-/-Error_Mark" transform="translate(0.000000, 12.000000)" opacity="0">
            <circle id="Oval" fill="#FFFFFF" fill-rule="nonzero" cx="4" cy="4" r="4"></circle>
            <path d="M4.00666043,0.66666822 C4.60923891,0.667230482 5.16978374,0.820408594 5.68831169,1.12620713 C6.1900347,1.42368891 6.5896311,1.82328531 6.88711289,2.32500833 C7.19347473,2.84449144 7.34665335,3.4050364 7.34665335,4.00666001 C7.34665335,4.60828362 7.19347473,5.16882857 6.88711289,5.68831169 C6.5896311,6.1900347 6.1900347,6.5896311 5.68831169,6.88711289 C5.16882857,7.19347473 4.60828362,7.34665335 4.00666001,7.34665335 C3.4050364,7.34665335 2.84449144,7.19347473 2.32500833,6.88711289 C1.82328531,6.5896311 1.42368891,6.1900347 1.12620713,5.68831169 C0.819845288,5.16882857 0.666666667,4.60828362 0.666666667,4.00666001 C0.666666667,3.4050364 0.819845288,2.84449144 1.12620713,2.32500833 C1.42368891,1.82328531 1.82328531,1.42368891 2.32500833,1.12620713 C2.84353627,0.820408594 3.4040811,0.667230482 4.00665958,0.66666822 L4.00666043,0.66666822 Z M4.00666043,0.66666822 C4.00555043,0.666667185 4.00444029,0.666666667 4.00333,0.666666667 L4.00999001,0.666666667 C4.00887973,0.666666667 4.00776958,0.666667185 4.00665958,0.66666822 L4.00666043,0.66666822 Z M4.34299034,5.67499167 L4.34299034,5.00899101 L3.67032967,5.00899101 L3.67032967,5.67499167 L4.34299034,5.67499167 Z M4.34299034,4.34299034 L4.34299034,2.33832834 L3.67032967,2.33832834 L3.67032967,4.34299034 L4.34299034,4.34299034 Z" id="" fill="#F83200"></path>
        </g>
    </g>
</svg>