<?xml version="1.0" encoding="UTF-8"?>
<svg width="20px" height="20px" viewBox="0 0 20 20" version="1.1" xmlns="http://www.w3.org/2000/svg" xmlns:xlink="http://www.w3.org/1999/xlink">
    <!-- Generator: Sketch 51.3 (57544) - http://www.bohemiancoding.com/sketch -->
    <title>icons / classes/ BMC_MFCouplingFacility_32</title>
    <desc>Created with Sketch.</desc>
    <defs></defs>
    <g id="icons-/-classes/-BMC_MFCouplingFacility_32" stroke="none" stroke-width="1" fill="none" fill-rule="evenodd">
        <g id="icons-/-classes/-MF-Coupling-Facility">
            <g id="icons-/-20x20-icon-field" fill="#F5A623" fill-rule="nonzero" opacity="0">
                <rect x="0" y="0" width="20" height="20"></rect>
            </g>
            <path d="M11.2857143,7.54845155 L14.8821179,7.54845155 C14.7982014,7.59640384 14.6843164,7.66833119 14.5404595,7.76423576 C14.444555,7.8361642 14.3366639,7.92607339 14.2167832,8.03396603 L12.1308691,10.1018981 L11.2677323,10.1018981 L11.2677323,10.965035 L8.71428571,13.5184815 L6.98801199,13.5184815 L6.98801199,15.2627373 L7.76123876,15.2627373 C7.68931033,15.7422601 7.68931033,16.2127849 7.76123876,16.6743257 C7.83316719,17.1358664 7.96503401,17.522476 8.15684316,17.8341658 L0.982017982,17.8341658 L0.982017982,2.42357642 C0.982017982,2.15983884 1.0239756,1.92607495 1.10789211,1.72227772 C1.19180861,1.5184805 1.32067845,1.33566514 1.49450549,1.17382617 C1.66833254,1.0119872 1.85714184,0.889111309 2.06093906,0.805194805 C2.26473628,0.721278302 2.48651229,0.679320679 2.72627373,0.679320679 L9.57742258,0.679320679 C9.81718402,0.679320679 10.035963,0.721278302 10.2337662,0.805194805 C10.4315694,0.889111309 10.6173817,1.01498418 10.7912088,1.18281718 C10.9650358,1.35065019 11.0909087,1.53646252 11.1688312,1.74025974 C11.2467536,1.94405696 11.2857143,2.16583297 11.2857143,2.40559441 L11.2857143,7.54845155 Z M5.27972028,3.25074925 L3.55344655,3.25074925 L3.55344655,4.97702298 L5.27972028,4.97702298 L5.27972028,3.25074925 Z M5.27972028,6.68531469 L3.55344655,6.68531469 L3.55344655,8.41158841 L5.27972028,8.41158841 L5.27972028,6.68531469 Z M5.27972028,10.1018981 L3.55344655,10.1018981 L3.55344655,11.8461538 L5.27972028,11.8461538 L5.27972028,10.1018981 Z M5.27972028,13.5364635 L3.55344655,13.5364635 L3.55344655,15.2807193 L5.27972028,15.2807193 L5.27972028,13.5364635 Z M8.71428571,3.25074925 L6.98801199,3.25074925 L6.98801199,4.97702298 L8.71428571,4.97702298 L8.71428571,3.25074925 Z M8.71428571,6.68531469 L6.98801199,6.68531469 L6.98801199,8.41158841 L8.71428571,8.41158841 L8.71428571,6.68531469 Z M8.71428571,10.1018981 L6.98801199,10.1018981 L6.98801199,11.8461538 L8.71428571,11.8461538 L8.71428571,10.1018981 Z M13.1198801,17.9240759 C13.095904,17.936064 13.0719282,17.9600398 13.047952,17.996004 L12.9220779,18.0859141 C12.8381614,18.1338664 12.7662341,18.1878119 12.7062937,18.2477522 L12.4905095,18.3916084 C12.4185811,18.4275726 12.3436567,18.4605393 12.2657343,18.4905095 C12.1878118,18.5204797 12.0949056,18.5534464 11.987013,18.5894106 L11.7352647,18.6613387 L11.4655345,18.6973027 C11.4055941,18.7092908 11.3156849,18.7152847 11.1958042,18.7152847 L10.9260739,18.6973027 C10.8301694,18.6853146 10.7402602,18.6733267 10.6563437,18.6613387 L10.3866134,18.5894106 C10.3026969,18.5654344 10.2187816,18.5354647 10.1348651,18.4995005 L9.9010989,18.3916084 C9.82917047,18.3556442 9.75724312,18.3076926 9.68531469,18.2477522 L9.27172827,17.9420579 C9.21178791,17.8701295 9.1578424,17.7922082 9.10989011,17.7082917 L9.09190809,17.6903097 C9.01997966,17.5944051 8.97202809,17.5224778 8.94805195,17.4745255 L8.82217782,17.2587413 C8.77422553,17.1868128 8.73226791,17.1028976 8.6963037,17.006993 L8.60639361,16.7552448 L8.55244755,16.5034965 L8.51648352,16.2517483 L8.51648352,15.7122877 L8.57042957,15.4245754 C8.58241764,15.3166828 8.60039948,15.2327675 8.62437562,15.1728272 C8.64835177,15.0889107 8.68431544,15.0049954 8.73226773,14.9210789 C8.76823195,14.8491505 8.81618352,14.7652352 8.87612388,14.6693307 L9.01998002,14.4535465 C9.09190845,14.3576419 9.15184791,14.2857145 9.1998002,14.2377622 L10.4225774,13.032967 L10.5844156,12.8711289 L10.7642358,12.7272727 L10.9440559,12.6193806 L11.1598402,12.5114885 C11.2077924,12.4875124 11.2737259,12.4635366 11.3576424,12.4395604 L11.7892108,12.3136863 C11.825175,12.3016982 11.8911084,12.2957043 11.987013,12.2957043 C12.0349653,12.2837162 12.1068926,12.2717283 12.2027972,12.2597403 C12.2627376,12.2597403 12.3406589,12.2657342 12.4365634,12.2777223 C12.4965038,12.2777223 12.5684311,12.2837162 12.6523477,12.2957043 C12.712288,12.2957043 12.7902093,12.3136861 12.8861139,12.3496503 L13.0839161,12.3856144 L13.2997003,12.4575425 L13.5154845,12.5654346 C13.599401,12.6013988 13.6653344,12.6373625 13.7132867,12.6733267 L13.7672328,12.7092907 L15.4395604,11.018981 C15.4635366,10.9950049 15.4935063,10.977023 15.5294705,10.965035 L15.6193806,10.9110889 L15.7092907,10.8931069 L15.8351648,10.8751249 L15.9250749,10.8931069 L16.032967,10.9110889 L16.1228771,10.965035 C16.1588413,10.977023 16.1828171,10.9950049 16.1948052,11.018981 L16.2487512,11.1088911 L16.3026973,11.1808192 C16.3026973,11.2167834 16.3086912,11.2407592 16.3206793,11.2527473 L16.3206793,11.2887113 C16.3326674,11.3006994 16.3386613,11.3186812 16.3386613,11.3426573 L16.3386613,11.4505495 L16.3206793,11.5044955 L16.3206793,11.5584416 L16.3026973,11.6123876 L16.1948052,11.7922078 L14.6123876,13.5364635 L14.972028,13.6263736 C15.0679325,13.6623378 15.1488508,13.6833167 15.2147852,13.6893107 C15.2807196,13.6953047 15.3586409,13.6923078 15.4485514,13.6803197 C15.538462,13.6683316 15.6133863,13.6503498 15.6733267,13.6263736 L15.8891109,13.5724276 C15.9610393,13.5484514 16.0209788,13.5184817 16.0689311,13.4825175 L16.2667333,13.3566434 C16.3266736,13.3086911 16.3806191,13.2487516 16.4285714,13.1768232 L17.6153846,11.99001 C17.6513488,11.9420577 17.6813186,11.8941061 17.7052947,11.8461538 L17.7592408,11.7022977 C17.7832169,11.6543454 17.8071927,11.6033969 17.8311688,11.5494505 C17.855145,11.4955042 17.8731268,11.4445557 17.8851149,11.3966034 L17.9210789,11.2347652 C17.933067,11.198801 17.9450549,11.1508495 17.957043,11.0909091 L17.957043,10.7492507 L17.9210789,10.5874126 L17.8851149,10.4435564 C17.8731268,10.3956042 17.849151,10.3416586 17.8131868,10.2817183 L17.7592408,10.1558442 L17.7052947,10.011988 C17.6813186,9.9760238 17.6483519,9.9310692 17.6063936,9.87712288 C17.5644354,9.82317655 17.5254747,9.7842159 17.4895105,9.76023976 C17.405594,9.68831133 17.3186818,9.6253749 17.2287712,9.57142857 C17.1388607,9.51748225 17.0429576,9.46653371 16.9410589,9.41858142 C16.8391603,9.37062913 16.7402602,9.3406594 16.6443556,9.32867133 C16.5004988,9.31668326 16.3866138,9.31068931 16.3026973,9.31068931 C16.1828166,9.31068931 16.0719286,9.31968023 15.97003,9.33766234 C15.8681314,9.35564445 15.7692312,9.38561418 15.6733267,9.42757243 C15.5774221,9.46953068 15.4935069,9.52047922 15.4215784,9.58041958 C15.3136858,9.65234801 15.2297705,9.71228747 15.1698302,9.76023976 L14.1628372,10.7312687 C14.1508491,10.7432568 14.1328673,10.7492507 14.1088911,10.7492507 L14.018981,10.8031968 C14.0069929,10.8151849 13.9950051,10.8211788 13.983017,10.8211788 L13.9290709,10.8391608 L13.7132867,10.8391608 C13.7012986,10.8271728 13.6833168,10.8211788 13.6593407,10.8211788 L13.6233766,10.8211788 L13.5694306,10.7852148 L13.4975025,10.7492507 L13.3716284,10.6233766 L13.3176823,10.4795205 L13.2997003,10.4255744 L13.2997003,10.1558442 L13.3356643,10.1198801 C13.3356643,10.095904 13.3416583,10.0749252 13.3536464,10.0569431 C13.3656344,10.0389609 13.3716284,10.0239761 13.3716284,10.011988 L13.4075924,9.97602398 C13.4195805,9.9640359 13.4315684,9.95804196 13.4435564,9.95804196 L14.4325674,8.95104895 C14.5044959,8.85514438 14.5704293,8.78921097 14.6303696,8.75324675 C14.7022981,8.70529447 14.7712284,8.65434592 14.8371628,8.6003996 C14.9030972,8.54645328 14.9750246,8.49850171 15.0529471,8.45654346 C15.1308695,8.4145852 15.2117878,8.37562456 15.2957043,8.33966034 C15.3796208,8.30369612 15.463536,8.27372639 15.5474525,8.24975025 L15.7992008,8.1958042 L16.0509491,8.15984016 C16.1108894,8.14785209 16.2007986,8.14185814 16.3206793,8.14185814 L16.5724276,8.15984016 C16.644356,8.15984016 16.7342652,8.17182805 16.8421578,8.1958042 L17.0939061,8.24975025 C17.1778226,8.27372639 17.2617378,8.30369612 17.3456543,8.33966034 L17.3996004,8.37562438 C17.4835169,8.42357666 17.5494503,8.45654337 17.5974026,8.47452547 C17.6453549,8.49250758 17.7172822,8.53146823 17.8131868,8.59140859 L18.010989,8.75324675 C18.0949055,8.81318711 18.1608389,8.87912052 18.2087912,8.95104895 C18.2927077,9.02297738 18.3526472,9.08291684 18.3886114,9.13086913 L18.6763237,9.56243756 C18.724276,9.63436599 18.7602396,9.71828124 18.7842158,9.81418581 L18.8741259,10.047952 C18.898102,10.1078924 18.9160839,10.1978016 18.9280719,10.3176823 C18.9520481,10.4015988 18.9700299,10.4855141 18.982018,10.5694306 L19,10.6953047 C19.0119881,10.7792212 19.017982,10.8391607 19.017982,10.8751249 L19,11.1268731 C19,11.2227777 18.9880121,11.3126869 18.964036,11.3966034 L18.8921079,11.6483516 C18.8681317,11.7322682 18.841159,11.8161834 18.8111888,11.9000999 C18.7812186,11.9840164 18.7482519,12.0619377 18.7122877,12.1338661 C18.6523474,12.2417588 18.6043958,12.3136861 18.5684316,12.3496503 C18.5204793,12.4455549 18.4665338,12.5234762 18.4065934,12.5834166 L18.2447552,12.7632368 L17.021978,14.003996 C16.9500496,14.0759244 16.8901101,14.123876 16.8421578,14.1478521 L16.4645355,14.3816184 L16.2667333,14.4715285 L16.0509491,14.5434565 L15.8531469,14.5794206 C15.8051946,14.5914087 15.7332672,14.5974026 15.6373626,14.5974026 C15.5894103,14.6093907 15.517483,14.6213786 15.4215784,14.6333666 L15.1878122,14.6333666 L14.972028,14.6153846 L14.7202797,14.5794206 L14.5044955,14.5074925 C14.420579,14.4835164 14.3486516,14.4535466 14.2887113,14.4175824 L13.8751249,14.2017982 L13.8031968,14.1478521 L11.987013,15.9100899 L11.8971029,15.964036 L11.8071928,16 L11.5914086,16 L11.5734266,15.982018 C11.5374624,15.982018 11.5134866,15.976024 11.5014985,15.964036 L11.4115884,15.9100899 L11.2857143,15.8201798 L11.2137862,15.7122877 C11.2017981,15.7002996 11.1958042,15.6823178 11.1958042,15.6583417 L11.1598402,15.6223776 C11.1478521,15.6103896 11.1418581,15.5924077 11.1418581,15.5684316 L11.1418581,15.3706294 C11.1418581,15.3586413 11.1478521,15.3406595 11.1598402,15.3166833 L11.1958042,15.2807193 C11.1958042,15.2567431 11.2017981,15.2387613 11.2137862,15.2267732 L12.994006,13.4645355 L12.6703297,13.3746254 L12.4545455,13.3206793 L12.2027972,13.3386613 C12.1308688,13.3386613 12.0529475,13.3506492 11.969031,13.3746254 L11.7352647,13.4285714 C11.6633363,13.4525476 11.591409,13.4825173 11.5194805,13.5184815 L11.3036963,13.6803197 C11.2317679,13.74026 11.1778224,13.7882116 11.1418581,13.8241758 L10.1528472,14.8311688 L10.0629371,14.9390609 L9.95504496,15.0829171 L9.82917083,15.3526474 C9.80519469,15.4005996 9.78721285,15.4485512 9.77522478,15.4965035 L9.73926074,15.6583417 C9.72727267,15.6943059 9.72127872,15.7482514 9.72127872,15.8201798 L9.72127872,16.1798202 L9.73926074,16.3416583 L9.82917083,16.6653347 L9.95504496,16.953047 L10.0809191,17.0789211 C10.1048952,17.1268734 10.128871,17.1568431 10.1528472,17.1688312 L10.4045954,17.3666334 L10.6743257,17.5284715 L10.98002,17.6003996 C11.0039961,17.6123877 11.0519477,17.6243756 11.1238761,17.6363636 L11.4475524,17.6363636 L11.6093906,17.6003996 C11.6573429,17.6003996 11.7052945,17.5944057 11.7532468,17.5824176 L12.040959,17.4565435 C12.0889113,17.4325673 12.130869,17.4085915 12.1668332,17.3846154 L12.4185814,17.1868132 L13.3896104,16.1618382 L13.5694306,16.0539461 C13.5934067,16.0539461 13.6113886,16.0479521 13.6233766,16.035964 L13.6593407,16.035964 C13.6833168,16.023976 13.7072926,16.017982 13.7312687,16.017982 L13.8391608,16.017982 L13.8751249,16.035964 L13.9470529,16.035964 L13.983017,16.0539461 L14.036963,16.0719281 L14.1448551,16.1618382 L14.2167832,16.2517483 L14.2527473,16.3416583 L14.2887113,16.3956044 L14.2887113,16.7012987 L14.2167832,16.8631369 L13.1198801,17.9420579 L13.1198801,17.9240759 Z" id="" fill="#333333"></path>
        </g>
        <g id="icons-/-Error_Mark" transform="translate(0.000000, 12.000000)" opacity="0">
            <circle id="Oval" fill="#FFFFFF" fill-rule="nonzero" cx="4" cy="4" r="4"></circle>
            <path d="M4.00666043,0.66666822 C4.60923891,0.667230482 5.16978374,0.820408594 5.68831169,1.12620713 C6.1900347,1.42368891 6.5896311,1.82328531 6.88711289,2.32500833 C7.19347473,2.84449144 7.34665335,3.4050364 7.34665335,4.00666001 C7.34665335,4.60828362 7.19347473,5.16882857 6.88711289,5.68831169 C6.5896311,6.1900347 6.1900347,6.5896311 5.68831169,6.88711289 C5.16882857,7.19347473 4.60828362,7.34665335 4.00666001,7.34665335 C3.4050364,7.34665335 2.84449144,7.19347473 2.32500833,6.88711289 C1.82328531,6.5896311 1.42368891,6.1900347 1.12620713,5.68831169 C0.819845288,5.16882857 0.666666667,4.60828362 0.666666667,4.00666001 C0.666666667,3.4050364 0.819845288,2.84449144 1.12620713,2.32500833 C1.42368891,1.82328531 1.82328531,1.42368891 2.32500833,1.12620713 C2.84353627,0.820408594 3.4040811,0.667230482 4.00665958,0.66666822 L4.00666043,0.66666822 Z M4.00666043,0.66666822 C4.00555043,0.666667185 4.00444029,0.666666667 4.00333,0.666666667 L4.00999001,0.666666667 C4.00887973,0.666666667 4.00776958,0.666667185 4.00665958,0.66666822 L4.00666043,0.66666822 Z M4.34299034,5.67499167 L4.34299034,5.00899101 L3.67032967,5.00899101 L3.67032967,5.67499167 L4.34299034,5.67499167 Z M4.34299034,4.34299034 L4.34299034,2.33832834 L3.67032967,2.33832834 L3.67032967,4.34299034 L4.34299034,4.34299034 Z" id="" fill="#F83200"></path>
        </g>
    </g>
</svg>