<?xml version="1.0" encoding="UTF-8"?>
<svg width="20px" height="20px" viewBox="0 0 20 20" version="1.1" xmlns="http://www.w3.org/2000/svg" xmlns:xlink="http://www.w3.org/1999/xlink">
    <!-- Generator: Sketch 51.3 (57544) - http://www.bohemiancoding.com/sketch -->
    <title>icons / classes/ BMC_ApplicationSystem_32_Error</title>
    <desc>Created with Sketch.</desc>
    <defs></defs>
    <g id="icons-/-classes/-BMC_ApplicationSystem_32" stroke="none" stroke-width="1" fill="none" fill-rule="evenodd">
        <g id="icons-/-classes/-Application-System">
            <g id="icons-/-20x20-icon-field" fill="#F5A623" fill-rule="nonzero" opacity="0">
                <rect x="0" y="0" width="20" height="20"></rect>
            </g>
            <path d="M18.8741259,3.62837163 C18.9220782,3.73626428 18.9580418,3.84715228 18.982018,3.96103896 C19.0059941,4.07492564 19.017982,4.18581365 19.017982,4.29370629 L19.017982,15.1188811 C19.017982,15.2267738 19.0000002,15.3466527 18.964036,15.4785215 C18.9520479,15.5744261 18.9220782,15.6823171 18.8741259,15.8021978 C18.8381617,15.8861143 18.7782222,15.9880114 18.6943057,16.1078921 C18.6463534,16.2037967 18.5654351,16.2996998 18.4515485,16.3956044 C18.3376618,16.491509 18.2447556,16.5634363 18.1728272,16.6113886 C18.0409584,16.683317 17.9330674,16.7372626 17.8491508,16.7732268 C17.7652343,16.809191 17.6663342,16.8391607 17.5524476,16.8631369 C17.4385609,16.887113 17.3216789,16.8991009 17.2017982,16.8991009 L2.78021978,16.8991009 C2.6843152,16.8991009 2.57642418,16.887113 2.45654346,16.8631369 C2.33666274,16.8391607 2.22277776,16.809191 2.11488511,16.7732268 C2.04295668,16.7372626 1.94705355,16.683317 1.82717283,16.6113886 L1.80919081,16.6113886 C1.74925045,16.5634363 1.65934126,16.485515 1.53946054,16.3776224 C1.44355596,16.3056939 1.35964072,16.2157848 1.28771229,16.1078921 C1.22777193,16.0359637 1.17382641,15.9370636 1.12587413,15.8111888 C1.07792184,15.6853141 1.04195816,15.5684321 1.01798202,15.4605395 C0.994005874,15.3526468 0.982017982,15.2387618 0.982017982,15.1188811 L0.982017982,4.29370629 C0.982017982,4.18581365 0.997002847,4.0689317 1.02697303,3.94305694 C1.05694321,3.81718219 1.08990991,3.70629419 1.12587413,3.61038961 C1.16183834,3.51448503 1.21878083,3.41558493 1.2967033,3.31368631 C1.37462576,3.2117877 1.44955009,3.12487548 1.52147852,3.05294705 C1.59340695,2.98101862 1.68931009,2.89710338 1.80919081,2.8011988 C1.89310731,2.74125844 1.9950044,2.68731293 2.11488511,2.63936064 C2.23476583,2.59140835 2.34865081,2.55544468 2.45654346,2.53146853 C2.5644361,2.50749239 2.67232713,2.4955045 2.78021978,2.4955045 L17.2197802,2.4955045 C17.3276729,2.4955045 17.4475518,2.50749239 17.5794206,2.53146853 C17.6753252,2.55544468 17.7832162,2.59140835 17.9030969,2.63936064 C17.9630373,2.67532486 18.0589404,2.72927037 18.1908092,2.8011988 C18.2747257,2.84915109 18.3706288,2.93306633 18.4785215,3.05294705 C18.562438,3.13686356 18.6343653,3.22677275 18.6943057,3.32267732 L18.7302697,3.37662338 C18.7902101,3.48451602 18.8381617,3.56843127 18.8741259,3.62837163 Z M2.69030969,5.1028971 C2.71428583,5.16283746 2.73826162,5.20479508 2.76223776,5.22877123 L2.83416583,5.33666334 L3.06793207,5.46253746 C3.11588436,5.48651361 3.15784198,5.50449544 3.19380619,5.51648352 L3.33766234,5.51648352 C3.45754306,5.51648352 3.55644317,5.50149865 3.63436563,5.47152847 C3.7122881,5.44155829 3.78121848,5.39960067 3.84115884,5.34565435 C3.9010992,5.29170802 3.9460538,5.22277764 3.97602398,5.13886114 C4.00599416,5.05494464 4.02097902,4.95304755 4.02097902,4.83316683 L4.002997,4.68931069 C4.002997,4.67732262 3.99700306,4.65934078 3.98501499,4.63536464 L3.8951049,4.45554446 L3.7962038,4.35664336 C3.76623362,4.32667318 3.73926086,4.30569437 3.71528472,4.29370629 L3.58941059,4.23976024 C3.55344637,4.2157841 3.51148875,4.2037962 3.46353646,4.2037962 L3.33766234,4.18581419 L3.19380619,4.2037962 C3.14585391,4.2037962 3.10389628,4.2157841 3.06793207,4.23976024 L2.85214785,4.38361638 L2.74425574,4.49150849 C2.73226767,4.51548464 2.72027978,4.54545437 2.70829171,4.58141858 L2.69030969,4.5994006 C2.66633355,4.63536482 2.65434565,4.67732244 2.65434565,4.72527473 L2.63636364,4.83316683 L2.65434565,4.97702298 L2.69030969,5.1028971 Z M17.2197802,6.82917083 L2.78021978,6.82917083 L2.78021978,15.1188811 L17.2197802,15.1188811 L17.2197802,6.82917083 Z M4.50649351,4.5994006 C4.48251736,4.63536482 4.47052947,4.67732244 4.47052947,4.72527473 L4.45254745,4.85114885 L4.47052947,4.995005 C4.47052947,5.03096921 4.47952039,5.06693289 4.4975025,5.1028971 L4.56043956,5.22877123 C4.57242763,5.25274737 4.60239736,5.28871105 4.65034965,5.33666334 L4.88411588,5.46253746 C4.9200801,5.48651361 4.9530468,5.50149847 4.98301698,5.50749251 C5.01298716,5.51348654 5.0639357,5.51648352 5.13586414,5.51648352 C5.25574486,5.51648352 5.35764194,5.50449562 5.44155844,5.48051948 C5.52547495,5.45654334 5.59140835,5.41758269 5.63936064,5.36363636 C5.68731293,5.30969004 5.72927055,5.24075966 5.76523477,5.15684316 C5.80119898,5.07292665 5.81918082,4.96503562 5.81918082,4.83316683 L5.8011988,4.70729271 C5.8011988,4.67132849 5.79220788,4.63236784 5.77422577,4.59040959 C5.75624367,4.54845134 5.73526486,4.50949069 5.71128871,4.47352647 L5.69330669,4.45554446 C5.66933055,4.41958024 5.64535477,4.38961051 5.62137862,4.36563437 L5.51348651,4.29370629 L5.40559441,4.23976024 C5.35764212,4.2157841 5.3156845,4.19780226 5.27972028,4.18581419 L4.99200799,4.18581419 C4.95604378,4.19780226 4.91708313,4.2157841 4.87512488,4.23976024 C4.83316662,4.26373638 4.79420597,4.28771217 4.75824176,4.31168831 L4.65034965,4.4015984 L4.56043956,4.49150849 C4.53646342,4.52747271 4.51848158,4.56343638 4.50649351,4.5994006 Z M17.2197802,4.29370629 L6.39460539,4.29370629 L6.39460539,5.37262737 L17.2197802,5.37262737 L17.2197802,4.29370629 Z M13.2097902,10.5694306 L13.2817183,10.6413586 C13.2937064,10.6533467 13.2997003,10.6653346 13.2997003,10.6773227 L13.2997003,11.5044955 L13.2817183,11.5404595 C13.2697302,11.5644357 13.2607393,11.5794205 13.2547453,11.5854146 L13.2367632,11.6033966 C13.2307692,11.6093906 13.2157843,11.6123876 13.1918082,11.6123876 L13.1198801,11.6303696 L12.5444555,11.6303696 L12.4725275,11.6483516 C12.4605394,11.6483516 12.4545455,11.6603395 12.4545455,11.6843157 L12.3826174,11.7562438 C12.3706293,11.7562438 12.3646354,11.7682316 12.3646354,11.7922078 L12.1848152,12.2417582 L12.1668332,12.2957043 L12.1488511,12.3136863 L12.1308691,12.3676324 L12.1488511,12.3856144 L12.1488511,12.4755245 L12.1668332,12.5114885 L12.5984016,12.9070929 L12.5984016,12.9430569 L12.6163836,12.979021 C12.6283717,12.9910091 12.6343656,13.0029969 12.6343656,13.014985 L12.6343656,13.0869131 L12.5984016,13.1588412 L12.004995,13.7522478 L11.9330669,13.7702298 L11.8611389,13.7522478 L11.8251748,13.7162837 L11.7892108,13.7162837 L11.4295704,13.3206793 L11.3216783,13.2667333 L11.2677323,13.2487512 L11.1598402,13.2667333 L11.1418581,13.2847153 L10.6923077,13.4645355 L10.6203796,13.5184815 L10.5844156,13.5184815 L10.5304695,13.5904096 L10.4945055,13.7162837 L10.4945055,14.3456543 L10.4225774,14.3996004 L10.3866134,14.3996004 L10.3686314,14.4175824 L9.54145854,14.4175824 C9.52947047,14.4175824 9.52347652,14.4115885 9.52347652,14.3996004 L9.48751249,14.3996004 L9.46953047,14.3636364 C9.4575424,14.3636364 9.44555451,14.3606394 9.43356643,14.3546454 C9.42157836,14.3486513 9.41558442,14.3366634 9.41558442,14.3186813 L9.41558442,13.7162837 L9.37962038,13.6083916 L9.32567433,13.5364635 L9.34365634,13.5004995 C9.37962056,13.4645353 9.39460542,13.4435565 9.38861139,13.4375624 C9.38261735,13.4315684 9.36763249,13.4285714 9.34365634,13.4285714 L8.8041958,13.1948052 L8.71428571,13.1948052 L8.64235764,13.2127872 L8.15684316,13.6803197 L8.12087912,13.6803197 L8.08491508,13.7162837 L8.01298701,13.7162837 L7.95904096,13.6803197 C7.94705289,13.6683316 7.94105894,13.6563437 7.94105894,13.6443556 L7.41958042,13.1228771 C7.40759235,13.1228771 7.39860143,13.1198801 7.39260739,13.1138861 C7.38661336,13.1078921 7.38061941,13.0959042 7.37462537,13.0779221 C7.36863134,13.05994 7.36563437,13.0449551 7.36563437,13.032967 L7.36563437,12.961039 L7.38361638,12.8891109 L7.4015984,12.8531469 L7.7972028,12.4935065 L7.83316683,12.4575425 L7.83316683,12.4215784 C7.84515491,12.4215784 7.85114885,12.4095905 7.85114885,12.3856144 L7.85114885,12.2237762 C7.83916078,12.2117882 7.82717289,12.2057942 7.81518482,12.2057942 L7.65334665,11.7562438 C7.65334665,11.7322676 7.64735271,11.7142858 7.63536464,11.7022977 L7.5994006,11.6843157 L7.5994006,11.6483516 L7.56343656,11.6123876 L7.50949051,11.6123876 L7.43756244,11.5764236 L6.84415584,11.5764236 L6.77222777,11.5584416 L6.77222777,11.5224775 L6.73626374,11.4865135 L6.71828172,11.4145854 L6.71828172,10.6773227 C6.71828172,10.6533465 6.72427566,10.6413586 6.73626374,10.6413586 L6.73626374,10.6053946 L6.77222777,10.5694306 L6.77222777,10.5514486 L6.80819181,10.5154845 L6.84415584,10.5154845 C6.85614392,10.5034964 6.86813181,10.4975025 6.88011988,10.4975025 L7.52747253,10.4975025 L7.61738262,10.4435564 L7.63536464,10.3356643 L7.83316683,9.92207792 L7.85114885,9.85014985 C7.86313692,9.83816178 7.86913087,9.82017994 7.86913087,9.7962038 L7.85114885,9.76023976 L7.85114885,9.68831169 C7.83916078,9.70029976 7.83316683,9.70029976 7.83316683,9.68831169 C7.83316683,9.67632362 7.82717289,9.66433572 7.81518482,9.65234765 L7.41958042,9.25674326 C7.40759235,9.24475518 7.39860143,9.22977032 7.39260739,9.21178821 C7.38661336,9.1938061 7.38361638,9.17882124 7.38361638,9.16683317 L7.38361638,9.09490509 L7.4015984,8.98701299 L7.95904096,8.48351648 L7.95904096,8.44755245 L7.995005,8.42957043 L8.13886114,8.42957043 L8.17482517,8.46553447 L8.22877123,8.46553447 L8.58841159,8.86113886 L8.62437562,8.8971029 L8.66033966,8.8971029 L8.71428571,8.95104895 L8.84015984,8.95104895 L8.87612388,8.91508492 L9.28971029,8.73526474 L9.32567433,8.73526474 L9.3976024,8.6993007 L9.46953047,8.60939061 L9.46953047,7.98001998 L9.50549451,7.90809191 C9.50549451,7.88411576 9.51148845,7.86613393 9.52347652,7.85414585 L9.54145854,7.81818182 L10.4045954,7.81818182 L10.5124875,7.83616384 L10.5484515,7.87212787 L10.5484515,7.90809191 C10.5604396,7.92007998 10.5664336,7.93806182 10.5664336,7.96203796 L10.5664336,8.51948052 C10.5784216,8.53146859 10.5844156,8.54945043 10.5844156,8.57342657 L10.6203796,8.64535465 C10.6203796,8.66933079 10.6263736,8.68731263 10.6383616,8.6993007 L10.7102897,8.73526474 L11.1778222,8.93306693 L11.2497502,8.95104895 L11.4115884,8.93306693 L11.4115884,8.8971029 L11.4475524,8.8971029 L11.8251748,8.48351648 L11.969031,8.44755245 L12.004995,8.44755245 C12.0169831,8.45954052 12.022977,8.47152841 12.022977,8.48351648 L12.0589411,8.48351648 L12.6343656,9.05894106 L12.6343656,9.27472527 L12.1848152,9.76023976 L12.1488511,9.86813187 L12.1668332,9.9040959 L12.3826174,10.4255744 L12.3826174,10.4975025 L12.4545455,10.5514486 L12.5444555,10.5694306 C12.5564436,10.5814186 12.5744255,10.5874126 12.5984016,10.5874126 L13.1738262,10.5874126 L13.2097902,10.6053946 C13.2097902,10.6173827 13.2127872,10.6233766 13.2187812,10.6233766 C13.2247753,10.6233766 13.2247753,10.6143857 13.2187812,10.5964036 L13.2097902,10.5694306 Z M11.3576424,11.4325674 C11.3696304,11.4085913 11.3756244,11.3726276 11.3756244,11.3246753 L11.3936064,11.036963 L11.3756244,10.9110889 L11.3396603,10.7492507 C11.3156842,10.7012985 11.2977024,10.6653348 11.2857143,10.6413586 L11.2317682,10.4975025 C11.2077921,10.4615383 11.1778224,10.4255746 11.1418581,10.3896104 L10.998002,10.1918082 L10.9080919,10.1018981 L10.8001998,10.011988 L10.5664336,9.86813187 L10.2967033,9.7962038 L10.008991,9.77822178 L9.73926074,9.7962038 C9.69130845,9.7962038 9.64935083,9.80819169 9.61338661,9.83216783 L9.46953047,9.86813187 L9.14585415,10.0839161 L9.03796204,10.1918082 L8.94805195,10.3176823 C8.91208773,10.3536465 8.88811195,10.3776223 8.87612388,10.3896104 L8.75024975,10.6233766 L8.67832168,10.8931069 C8.66633361,10.9290711 8.65434571,10.9770227 8.64235764,11.036963 L8.64235764,11.3066933 C8.65434571,11.3666337 8.66633361,11.4085913 8.67832168,11.4325674 C8.67832168,11.4805197 8.69030957,11.5224773 8.71428571,11.5584416 L8.75024975,11.7022977 L8.87612388,11.9180819 C8.90010002,11.9660342 8.9240758,12.0079918 8.94805195,12.043956 L9.03796204,12.1338661 C9.07392625,12.1698303 9.11588388,12.2027971 9.16383616,12.2327672 C9.21178845,12.2627374 9.24775213,12.2897102 9.27172827,12.3136863 C9.29570442,12.3376625 9.32567415,12.3556443 9.36163836,12.3676324 L9.61338661,12.4755245 L9.73926074,12.5114885 C9.76323688,12.5234766 9.80519451,12.5294705 9.86513487,12.5294705 L10.1528472,12.5294705 L10.2607393,12.5114885 L10.4045954,12.4755245 L10.6743257,12.3676324 C10.722278,12.3556443 10.7582416,12.3376625 10.7822178,12.3136863 C10.8301701,12.265734 10.8661337,12.2357643 10.8901099,12.2237762 C10.914086,12.2117882 10.9500497,12.1818184 10.998002,12.1338661 L11.1598402,11.9180819 L11.2857143,11.7022977 L11.3576424,11.4325674 Z" id="" fill="#333333"></path>
        </g>
        <g id="icons-/-Error_Mark" transform="translate(0.000000, 12.000000)">
            <circle id="Oval" fill="#FFFFFF" fill-rule="nonzero" cx="4" cy="4" r="4"></circle>
            <path d="M4.00666043,0.66666822 C4.60923891,0.667230482 5.16978374,0.820408594 5.68831169,1.12620713 C6.1900347,1.42368891 6.5896311,1.82328531 6.88711289,2.32500833 C7.19347473,2.84449144 7.34665335,3.4050364 7.34665335,4.00666001 C7.34665335,4.60828362 7.19347473,5.16882857 6.88711289,5.68831169 C6.5896311,6.1900347 6.1900347,6.5896311 5.68831169,6.88711289 C5.16882857,7.19347473 4.60828362,7.34665335 4.00666001,7.34665335 C3.4050364,7.34665335 2.84449144,7.19347473 2.32500833,6.88711289 C1.82328531,6.5896311 1.42368891,6.1900347 1.12620713,5.68831169 C0.819845288,5.16882857 0.666666667,4.60828362 0.666666667,4.00666001 C0.666666667,3.4050364 0.819845288,2.84449144 1.12620713,2.32500833 C1.42368891,1.82328531 1.82328531,1.42368891 2.32500833,1.12620713 C2.84353627,0.820408594 3.4040811,0.667230482 4.00665958,0.66666822 L4.00666043,0.66666822 Z M4.00666043,0.66666822 C4.00555043,0.666667185 4.00444029,0.666666667 4.00333,0.666666667 L4.00999001,0.666666667 C4.00887973,0.666666667 4.00776958,0.666667185 4.00665958,0.66666822 L4.00666043,0.66666822 Z M4.34299034,5.67499167 L4.34299034,5.00899101 L3.67032967,5.00899101 L3.67032967,5.67499167 L4.34299034,5.67499167 Z M4.34299034,4.34299034 L4.34299034,2.33832834 L3.67032967,2.33832834 L3.67032967,4.34299034 L4.34299034,4.34299034 Z" id="" fill="#F83200"></path>
        </g>
    </g>
</svg>