<?xml version="1.0" encoding="UTF-8"?>
<svg width="20px" height="20px" viewBox="0 0 20 20" version="1.1" xmlns="http://www.w3.org/2000/svg" xmlns:xlink="http://www.w3.org/1999/xlink">
    <!-- Generator: Sketch 51.3 (57544) - http://www.bohemiancoding.com/sketch -->
    <title>icons / classes/ BMC_ConfigBaseElement_32</title>
    <desc>Created with Sketch.</desc>
    <defs>
        <polygon id="path-1" points="0.00016 0.00016 19.204 0.00016 19.204 19.204 0.00016 19.204"></polygon>
    </defs>
    <g id="icons-/-classes/-BMC_ConfigBaseElement_32" stroke="none" stroke-width="1" fill="none" fill-rule="evenodd">
        <g>
            <g id="icons-/-20x20-icon-field" fill="#F5A623" fill-rule="nonzero" opacity="0">
                <rect x="0" y="0" width="20" height="20"></rect>
            </g>
            <g id="Group-3">
                <mask id="mask-2" fill="white">
                    <use xlink:href="#path-1"></use>
                </mask>
                <g id="Clip-2"></g>
                <path d="M15.94616,13.76216 C15.94616,13.61016 15.93016,13.46616 15.90616,13.32216 C15.85816,13.05816 15.77016,12.81016 15.63416,12.57816 C15.42616,12.21016 15.14616,11.93016 14.77816,11.72216 C14.73016,11.69016 14.68216,11.66616 14.62616,11.65016 C14.31416,11.49016 13.97016,11.41016 13.59416,11.41016 C13.17016,11.41016 12.77016,11.51416 12.41016,11.72216 C12.05016,11.93016 11.76216,12.21016 11.55416,12.57816 C11.34616,12.93816 11.24216,13.33016 11.24216,13.76216 C11.24216,14.02616 11.28216,14.28216 11.37016,14.52216 C11.41016,14.66616 11.47416,14.80216 11.55416,14.93816 C11.76216,15.30616 12.05016,15.58616 12.41016,15.80216 C12.64216,15.93816 12.89016,16.03416 13.15416,16.07416 C13.29816,16.10616 13.45016,16.12216 13.60216,16.12216 C14.02616,16.12216 14.41816,16.01016 14.77816,15.80216 C15.14616,15.58616 15.42616,15.30616 15.63416,14.93816 C15.84216,14.57816 15.94616,14.18616 15.94616,13.76216 Z M19.11416,12.75416 C19.17016,12.81016 19.20216,12.88216 19.20216,12.96216 L19.20216,14.23416 C19.20216,14.31416 19.17016,14.38616 19.11416,14.44216 C19.05016,14.50616 18.98616,14.53816 18.89816,14.53816 L17.99416,14.53816 C17.92216,14.53816 17.84216,14.56216 17.77016,14.61816 C17.69016,14.67416 17.63416,14.73816 17.61816,14.81016 L17.29816,15.57016 C17.26616,15.65016 17.25016,15.73016 17.26616,15.82616 C17.28216,15.91416 17.32216,15.98616 17.37816,16.04216 L18.02616,16.69016 C18.08216,16.74616 18.10616,16.81816 18.10616,16.89816 C18.10616,16.98616 18.08216,17.05816 18.02616,17.11416 L17.12216,18.01016 C17.06616,18.06616 16.99416,18.09816 16.91416,18.09816 C16.82616,18.09816 16.76216,18.06616 16.69816,18.01016 L16.05016,17.36216 C15.99416,17.30616 15.91416,17.27416 15.82616,17.25816 C15.80216,17.25816 15.77816,17.25016 15.75416,17.25016 C15.69016,17.25016 15.63416,17.26616 15.57816,17.29016 L14.81816,17.60216 C14.74616,17.62616 14.68216,17.67416 14.62616,17.75416 C14.57016,17.82616 14.53816,17.90616 14.53816,17.98616 L14.53816,18.91416 C14.53816,18.98616 14.51416,19.05016 14.45816,19.11416 C14.40216,19.17016 14.33016,19.20216 14.25016,19.20216 L12.96216,19.20216 C12.88216,19.20216 12.81016,19.17016 12.76216,19.11416 C12.70616,19.05016 12.67416,18.98616 12.67416,18.91416 L12.67416,17.98616 C12.67416,17.91416 12.65016,17.83416 12.59416,17.75416 C12.53816,17.67416 12.46616,17.62616 12.38616,17.60216 L11.85016,17.37816 L11.62616,17.29016 C11.57816,17.26616 11.52216,17.25016 11.45816,17.25016 C11.43416,17.25016 11.41016,17.25816 11.38616,17.25816 C11.29016,17.27416 11.21016,17.30616 11.15416,17.36216 L10.50616,18.01016 C10.45016,18.06616 10.37816,18.09816 10.29016,18.09816 C10.21016,18.09816 10.14616,18.06616 10.09016,18.01016 L9.18616,17.11416 C9.13816,17.05816 9.10616,16.98616 9.10616,16.89816 C9.10616,16.81816 9.13816,16.74616 9.18616,16.69016 L9.83416,16.04216 C9.89816,15.98616 9.93016,15.90616 9.93816,15.81816 C9.95416,15.73016 9.93816,15.65016 9.90616,15.57016 L9.58616,14.81016 C9.57016,14.73016 9.52216,14.66616 9.44216,14.61016 C9.37016,14.56216 9.29016,14.53816 9.21016,14.53816 L8.29016,14.53816 C8.21016,14.53816 8.13816,14.50616 8.08216,14.45016 C8.02616,14.39416 8.00216,14.32216 8.00216,14.23416 L8.00216,12.96216 C8.00216,12.88216 8.02616,12.81016 8.08216,12.75416 C8.13816,12.69816 8.21016,12.66616 8.29016,12.66616 L9.21016,12.66616 C9.29016,12.66616 9.37016,12.64216 9.44216,12.58616 C9.52216,12.53016 9.57016,12.45816 9.58616,12.37816 L9.90616,11.63416 C9.93816,11.55416 9.95416,11.47416 9.93816,11.37816 C9.93016,11.29016 9.89816,11.21816 9.83416,11.16216 L9.18616,10.51416 C9.13816,10.45816 9.10616,10.38616 9.10616,10.30616 C9.10616,10.21816 9.13816,10.14616 9.18616,10.09016 L10.09016,9.18616 C10.15416,9.13016 10.22616,9.10616 10.30616,9.10616 C10.38616,9.10616 10.45016,9.13016 10.50616,9.18616 L11.15416,9.83416 C11.21016,9.89016 11.29016,9.93016 11.38616,9.94616 C11.41016,9.94616 11.43416,9.95416 11.45816,9.95416 C11.52216,9.95416 11.57816,9.93816 11.62616,9.91416 L12.38616,9.60216 C12.46616,9.57816 12.53016,9.53016 12.58616,9.45016 C12.63416,9.37816 12.66616,9.29816 12.66616,9.21816 L12.66616,8.29016 C12.66616,8.21016 12.69016,8.13816 12.75416,8.08216 C12.81016,8.02616 12.88216,8.00216 12.96216,8.00216 L14.24216,8.00216 C14.32216,8.00216 14.38616,8.02616 14.45016,8.08216 C14.49816,8.13816 14.53016,8.21016 14.53016,8.29016 L14.53016,9.21016 C14.53016,9.29016 14.55416,9.37016 14.61016,9.44216 C14.66616,9.51416 14.73816,9.56216 14.81816,9.58616 L15.57016,9.89816 C15.62616,9.93016 15.69016,9.94616 15.75416,9.94616 C15.77816,9.94616 15.80216,9.94616 15.81816,9.93816 C15.91416,9.93016 15.98616,9.89016 16.04216,9.83416 L16.69016,9.18616 C16.74616,9.13016 16.81816,9.09816 16.89816,9.09816 C16.97816,9.09816 17.05016,9.13016 17.11416,9.18616 L18.01816,10.09016 C18.06616,10.14616 18.09816,10.21816 18.09816,10.30616 C18.09816,10.38616 18.06616,10.45016 18.01816,10.50616 L17.37016,11.15416 C17.30616,11.21016 17.27416,11.29016 17.25816,11.37816 C17.24216,11.47416 17.25016,11.55416 17.29016,11.61816 L17.38616,11.84216 L17.60216,12.37816 C17.62616,12.45816 17.67416,12.53016 17.75416,12.58616 C17.83416,12.64216 17.90616,12.66616 17.98616,12.66616 L18.89816,12.66616 C18.98616,12.66616 19.05016,12.69816 19.11416,12.75416 Z M7.97816,9.04216 C7.67416,9.38616 7.50616,9.83416 7.50616,10.30616 C7.50616,10.60216 7.57816,10.89816 7.70616,11.16216 C7.42616,11.25016 7.17016,11.41016 6.95416,11.62616 C6.60216,11.97816 6.40216,12.45016 6.40216,12.96216 L6.40216,14.23416 C6.40216,14.74616 6.60216,15.22616 6.95416,15.58616 C7.17016,15.79416 7.42616,15.95416 7.70616,16.04216 C7.57816,16.30616 7.50616,16.60216 7.50616,16.89816 C7.50616,17.18616 7.57016,17.46616 7.69816,17.72216 L5.14616,15.17016 L4.49016,15.82616 C4.90616,16.70616 4.76216,17.78616 4.03416,18.51416 C3.11416,19.43416 1.61816,19.43416 0.69016,18.51416 C-0.22984,17.58616 -0.22984,16.09016 0.69016,15.17016 C1.41816,14.44216 2.49816,14.29816 3.37816,14.71416 L4.03416,14.05816 L0.69016,10.71416 C0.08216,10.10616 0.08216,9.09816 0.69016,8.49016 L4.03416,5.14616 L4.69016,5.80216 C4.26616,6.68216 4.41816,7.76216 5.14616,8.49016 C6.07416,9.41016 7.56216,9.41016 8.49016,8.49016 C9.41016,7.56216 9.41016,6.07416 8.49016,5.14616 C7.76216,4.41816 6.68216,4.26616 5.80216,4.69016 L5.14616,4.03416 L8.49016,0.69016 C9.09816,0.08216 10.10616,0.08216 10.71416,0.69016 L14.05816,4.03416 L14.71416,3.37816 C14.29816,2.49816 14.44216,1.41816 15.17016,0.69016 C16.09016,-0.22984 17.58616,-0.22984 18.51416,0.69016 C19.43416,1.61816 19.43416,3.11416 18.51416,4.03416 C17.78616,4.76216 16.70616,4.90616 15.82616,4.49016 L15.17016,5.14616 L17.70616,7.68216 C17.45816,7.56216 17.18616,7.49816 16.89816,7.49816 C16.59416,7.49816 16.29816,7.57016 16.03416,7.70616 C15.94616,7.42616 15.79416,7.17016 15.57816,6.95416 C15.21816,6.59416 14.74616,6.40216 14.24216,6.40216 L12.96216,6.40216 C12.47416,6.40216 12.01016,6.58616 11.65016,6.92216 C11.41816,7.13816 11.25016,7.41016 11.15416,7.70616 C10.89016,7.57816 10.60216,7.50616 10.30616,7.50616 C9.84216,7.50616 9.39416,7.67416 9.05016,7.97016 L9.00216,8.01016 L8.96216,8.05816 L8.05816,8.96216 L8.01816,8.99416 L7.97816,9.04216 Z" id="Fill-1" fill="#333333" mask="url(#mask-2)"></path>
            </g>
            <g id="icons-/-Error_Mark" transform="translate(0.000000, 12.000000)" opacity="0">
                <circle id="Oval" fill="#FFFFFF" fill-rule="nonzero" cx="4" cy="4" r="4"></circle>
                <path d="M4.00666043,0.66666822 C4.60923891,0.667230482 5.16978374,0.820408594 5.68831169,1.12620713 C6.1900347,1.42368891 6.5896311,1.82328531 6.88711289,2.32500833 C7.19347473,2.84449144 7.34665335,3.4050364 7.34665335,4.00666001 C7.34665335,4.60828362 7.19347473,5.16882857 6.88711289,5.68831169 C6.5896311,6.1900347 6.1900347,6.5896311 5.68831169,6.88711289 C5.16882857,7.19347473 4.60828362,7.34665335 4.00666001,7.34665335 C3.4050364,7.34665335 2.84449144,7.19347473 2.32500833,6.88711289 C1.82328531,6.5896311 1.42368891,6.1900347 1.12620713,5.68831169 C0.819845288,5.16882857 0.666666667,4.60828362 0.666666667,4.00666001 C0.666666667,3.4050364 0.819845288,2.84449144 1.12620713,2.32500833 C1.42368891,1.82328531 1.82328531,1.42368891 2.32500833,1.12620713 C2.84353627,0.820408594 3.4040811,0.667230482 4.00665958,0.66666822 L4.00666043,0.66666822 Z M4.00666043,0.66666822 C4.00555043,0.666667185 4.00444029,0.666666667 4.00333,0.666666667 L4.00999001,0.666666667 C4.00887973,0.666666667 4.00776958,0.666667185 4.00665958,0.66666822 L4.00666043,0.66666822 Z M4.34299034,5.67499167 L4.34299034,5.00899101 L3.67032967,5.00899101 L3.67032967,5.67499167 L4.34299034,5.67499167 Z M4.34299034,4.34299034 L4.34299034,2.33832834 L3.67032967,2.33832834 L3.67032967,4.34299034 L4.34299034,4.34299034 Z" id="" fill="#F83200"></path>
            </g>
        </g>
    </g>
</svg>