<?xml version="1.0" encoding="UTF-8"?>
<svg width="20px" height="20px" viewBox="0 0 20 20" version="1.1" xmlns="http://www.w3.org/2000/svg" xmlns:xlink="http://www.w3.org/1999/xlink">
    <!-- Generator: Sketch 51.3 (57544) - http://www.bohemiancoding.com/sketch -->
    <title>icons / classes/ BMC_DataBaseSystem_32_Error</title>
    <desc>Created with Sketch.</desc>
    <defs>
        <polygon id="path-1" points="0 0 19.9998333 0 19.9998333 19.99975 0 19.99975"></polygon>
    </defs>
    <g id="icons-/-classes/-BMC_DataBaseSystem_32" stroke="none" stroke-width="1" fill="none" fill-rule="evenodd">
        <g>
            <g id="icons-/-20x20-icon-field" fill="#F5A623" fill-rule="nonzero" opacity="0">
                <rect x="0" y="0" width="20" height="20"></rect>
            </g>
            <g id="Group-3">
                <mask id="mask-2" fill="white">
                    <use xlink:href="#path-1"></use>
                </mask>
                <g id="Clip-2"></g>
                <path d="M19.7998333,12.2330833 C19.7581667,12.2664167 19.7081667,12.29975 19.6581667,12.3330833 C19.5081667,12.4414167 19.3415,12.5414167 19.1581667,12.6255833 C19.0665,12.67475 18.9748333,12.7164167 18.8748333,12.7580833 C18.7998333,12.8005833 18.7165,12.8339167 18.6331667,12.8580833 C18.5581667,12.8914167 18.4748333,12.9164167 18.3915,12.94225 C18.3498333,12.9580833 18.3081667,12.9755833 18.2665,12.9830833 C18.2165,12.99975 18.1665,13.0164167 18.1165,13.02475 C18.0331667,13.0580833 17.9423333,13.0839167 17.8498333,13.09975 C17.7831667,13.11725 17.7165,13.1330833 17.6498333,13.1414167 C17.5256667,13.1664167 17.3998333,13.19975 17.2665,13.21725 C17.0831667,13.2505833 16.9006667,13.27475 16.7081667,13.2839167 C16.4248333,13.31725 16.1331667,13.3330833 15.8331667,13.3330833 C15.5498333,13.3330833 15.2665,13.31725 14.9998333,13.29225 C14.7915,13.27475 14.5915,13.2505833 14.4006667,13.21725 C14.2665,13.19975 14.1415,13.1664167 14.0165,13.1414167 C13.9498333,13.1330833 13.8831667,13.11725 13.8165,13.09975 C13.7248333,13.0839167 13.6331667,13.0580833 13.5498333,13.02475 C13.4998333,13.0164167 13.4498333,12.99975 13.3998333,12.9830833 C13.359,12.9755833 13.3165,12.9580833 13.2748333,12.94225 C13.2665,12.94225 13.2581667,12.9330833 13.2498333,12.9330833 C13.1748333,12.9089167 13.0998333,12.8914167 13.0331667,12.8580833 C12.9498333,12.8339167 12.8665,12.8005833 12.7915,12.7580833 C12.6915,12.7164167 12.5998333,12.67475 12.5081667,12.6255833 C12.3248333,12.5414167 12.1581667,12.4414167 12.0081667,12.3330833 C11.9581667,12.29975 11.9081667,12.2664167 11.8665,12.2330833 C11.8581667,12.2330833 11.8498333,12.22475 11.8415,12.2164167 C11.7831667,12.1755833 11.7165,12.12475 11.6665,12.0755833 L11.6665,17.9164167 C11.6665,17.94225 11.6665,17.9580833 11.6748333,17.9830833 C11.6748333,18.09975 11.7081667,18.22475 11.7498333,18.3330833 C12.0248333,18.99975 12.9248333,19.54975 14.1331667,19.81725 C14.6498333,19.9330833 15.2248333,19.99975 15.8331667,19.99975 C17.8498333,19.99975 19.5248333,19.2830833 19.9165,18.3330833 C19.9665,18.19975 19.9998333,18.0580833 19.9998333,17.9164167 L19.9998333,12.0755833 C19.9498333,12.12475 19.8831667,12.1755833 19.8248333,12.2164167 C19.8173333,12.22475 19.8081667,12.2330833 19.7998333,12.2330833 Z M14.9998333,8.37475 C14.5915,8.41641667 14.2081667,8.49225 13.8498333,8.59141667 C12.8165,8.86641667 12.0415,9.36725 11.7748333,9.95891667 C11.7581667,9.97475 11.7581667,9.98391667 11.7498333,9.99975 C11.6998333,10.1330833 11.6665,10.27475 11.6665,10.4164167 C11.6665,10.7664167 11.8415,11.1005833 12.1498333,11.3914167 C12.1748333,11.4089167 12.1915,11.4330833 12.2165,11.4505833 C12.2915,11.52475 12.3748333,11.5839167 12.4748333,11.6505833 C12.4831667,11.6505833 12.4998333,11.6589167 12.5081667,11.6664167 C12.6081667,11.7330833 12.7165,11.79975 12.8331667,11.8589167 C12.9423333,11.9164167 13.0581667,11.97475 13.1831667,12.02475 C13.2831667,12.06725 13.3915,12.1089167 13.4998333,12.14225 C13.5581667,12.1664167 13.6165,12.1830833 13.6748333,12.19975 C13.6915,12.2089167 13.7165,12.2089167 13.7331667,12.2164167 C13.7665,12.22475 13.8081667,12.24225 13.8498333,12.2505833 C14.0165,12.29975 14.1923333,12.3330833 14.3665,12.3664167 C14.3831667,12.3664167 14.3915,12.37475 14.4081667,12.37475 C14.5165,12.3914167 14.6248333,12.4080833 14.7331667,12.42475 C14.8173333,12.4414167 14.9081667,12.4505833 14.9998333,12.4505833 C15.0581667,12.4664167 15.1248333,12.47475 15.1915,12.47475 C15.234,12.47475 15.2831667,12.4839167 15.3248333,12.4839167 C15.4915,12.49225 15.6581667,12.49975 15.8331667,12.49975 C16.0081667,12.49975 16.1748333,12.49225 16.3415,12.4839167 C16.3831667,12.4839167 16.4331667,12.47475 16.4748333,12.47475 C16.6331667,12.4664167 16.7831667,12.4505833 16.9331667,12.42475 C16.9748333,12.41725 17.0248333,12.4080833 17.0665,12.4080833 C17.1331667,12.3914167 17.1915,12.3839167 17.2581667,12.37475 C17.2748333,12.37475 17.2998333,12.3664167 17.3173333,12.3664167 C17.3915,12.3505833 17.4665,12.3330833 17.5415,12.31725 C17.6331667,12.29975 17.734,12.2755833 17.8165,12.2505833 C17.8748333,12.24225 17.9331667,12.22475 17.9915,12.19975 C18.0498333,12.1830833 18.1081667,12.1664167 18.1665,12.14225 C18.2748333,12.1089167 18.3831667,12.06725 18.4831667,12.02475 C18.6081667,11.97475 18.7248333,11.9164167 18.8331667,11.8589167 C18.9498333,11.79975 19.0581667,11.7330833 19.1581667,11.6664167 C19.1665,11.6589167 19.1831667,11.6505833 19.1923333,11.6505833 C19.2915,11.5839167 19.3748333,11.52475 19.4498333,11.4505833 C19.4748333,11.4330833 19.4915,11.4089167 19.5165,11.3914167 C19.8248333,11.1005833 19.9998333,10.7664167 19.9998333,10.4164167 C19.9998333,10.27475 19.9665,10.1330833 19.9165,9.99975 C19.9081667,9.98391667 19.9081667,9.97475 19.8915,9.95891667 C19.4748333,9.02475 17.8165,8.33308333 15.8331667,8.33308333 C15.5498333,8.33308333 15.2665,8.34975 14.9998333,8.37475 Z M10.2081667,18.9664167 C10.3581667,19.3414167 10.5998333,19.6830833 10.8998333,19.99975 L8.85816667,19.99975 C8.7165,19.99975 8.5915,19.9505833 8.4915,19.8414167 C8.3915,19.7330833 8.3415,19.6164167 8.3415,19.4830833 L8.3415,17.82475 C8.3415,17.69225 8.2915,17.5589167 8.1915,17.41725 C8.0915,17.2755833 7.97483333,17.1914167 7.82483333,17.14975 L6.4665,16.5914167 C6.34983333,16.52475 6.19983333,16.49975 6.0415,16.5330833 C5.87483333,16.5580833 5.73316667,16.61725 5.63316667,16.7080833 L4.47483333,17.86725 C4.3665,17.9755833 4.2415,18.02475 4.0915,18.02475 C3.9415,18.02475 3.82483333,17.9755833 3.73316667,17.86725 L2.1165,16.2755833 C2.02483333,16.16725 1.97483333,16.0414167 1.97483333,15.89225 C1.97483333,15.7505833 2.02483333,15.61725 2.1165,15.5164167 L3.27483333,14.3589167 C3.38316667,14.24975 3.4415,14.11725 3.4665,13.9580833 C3.48316667,13.79975 3.45816667,13.64975 3.3915,13.5164167 L2.83316667,12.1664167 C2.7915,12.0164167 2.70816667,11.9005833 2.57483333,11.8080833 C2.4415,11.7080833 2.29983333,11.6664167 2.15816667,11.6664167 L0.5165,11.6664167 C0.374833333,11.6664167 0.249833333,11.61725 0.149833333,11.51725 C0.0498333333,11.41725 -0.000166666667,11.2830833 -0.000166666667,11.12475 L-0.000166666667,8.84975 C-0.000166666667,8.70891667 0.0498333333,8.58308333 0.149833333,8.48308333 C0.249833333,8.38308333 0.374833333,8.33308333 0.5165,8.33308333 L2.15816667,8.33308333 C2.29983333,8.33308333 2.4415,8.28391667 2.57483333,8.18391667 C2.70816667,8.08391667 2.7915,7.96641667 2.83316667,7.81641667 L3.3915,6.48391667 C3.45816667,6.34975 3.48316667,6.20058333 3.4665,6.03391667 C3.4415,5.86641667 3.38316667,5.73308333 3.27483333,5.64141667 L2.1165,4.48308333 C2.02483333,4.38308333 1.97483333,4.24975 1.97483333,4.10808333 C1.97483333,3.95808333 2.02483333,3.83308333 2.1165,3.72475 L3.73316667,2.11641667 C3.8415,2.02475 3.9665,1.97475 4.1165,1.97475 C4.25816667,1.97475 4.37483333,2.02475 4.47483333,2.11641667 L5.63316667,3.26641667 C5.73316667,3.37475 5.87483333,3.44141667 6.0415,3.46641667 C6.19983333,3.50058333 6.34983333,3.47475 6.4665,3.40808333 L7.82483333,2.84975 C7.97483333,2.80808333 8.0915,2.72475 8.18316667,2.59225 C8.27483333,2.45891667 8.32483333,2.31725 8.32483333,2.17558333 L8.32483333,0.516416667 C8.32483333,0.375583333 8.37483333,0.24975 8.48316667,0.14975 C8.5915,0.04975 8.7165,-0.00025 8.85816667,-0.00025 L11.1415,-0.00025 C11.2831667,-0.00025 11.4081667,0.04975 11.5081667,0.14975 C11.6081667,0.24975 11.6581667,0.375583333 11.6581667,0.516416667 L11.6581667,2.14975 C11.6581667,2.29975 11.7081667,2.44141667 11.8081667,2.57475 C11.9081667,2.70808333 12.0331667,2.79141667 12.1748333,2.83391667 L13.5081667,3.39225 C13.6415,3.45891667 13.7915,3.48308333 13.9665,3.45891667 C14.1248333,3.44141667 14.2581667,3.37475 14.3498333,3.26641667 L15.5081667,2.11641667 C15.6165,2.00808333 15.7415,1.94975 15.8915,1.94975 C16.0331667,1.94975 16.1581667,2.00808333 16.2665,2.11641667 L17.8831667,3.72475 C17.9748333,3.83308333 18.0248333,3.95808333 18.0248333,4.10808333 C18.0248333,4.24975 17.9748333,4.37475 17.8831667,4.46725 L16.7248333,5.62475 C16.6165,5.73308333 16.5498333,5.86641667 16.5248333,6.03391667 C16.4998333,6.20058333 16.5165,6.34225 16.5831667,6.45808333 L16.6831667,6.69975 C16.4081667,6.67475 16.1248333,6.66641667 15.8331667,6.66641667 C15.5248333,6.66641667 15.1915,6.68308333 14.8415,6.71641667 C14.0998333,6.79225 13.4165,6.94975 12.8165,7.16641667 C12.5998333,6.95808333 12.3665,6.79225 12.109,6.64141667 C11.4581667,6.26641667 10.7581667,6.08308333 9.9915,6.08308333 C9.22483333,6.08308333 8.5165,6.26641667 7.87483333,6.64141667 C7.22483333,7.00808333 6.7165,7.52558333 6.34983333,8.16641667 C5.97483333,8.80891667 5.7915,9.51641667 5.7915,10.2830833 C5.7915,11.0414167 5.97483333,11.74975 6.34983333,12.3914167 C6.7165,13.04225 7.22483333,13.54975 7.87483333,13.92475 C8.5165,14.3080833 9.22483333,14.5005833 9.99983333,14.5005833 L9.99983333,17.9164167 C9.99983333,18.2505833 10.0665,18.5830833 10.1915,18.91725 L10.1998333,18.94225 L10.2081667,18.9664167 Z" id="Fill-1" fill="#333333" mask="url(#mask-2)"></path>
            </g>
            <g id="icons-/-Error_Mark" transform="translate(0.000000, 12.000000)">
                <circle id="Oval" fill="#FFFFFF" fill-rule="nonzero" cx="4" cy="4" r="4"></circle>
                <path d="M4.00666043,0.66666822 C4.60923891,0.667230482 5.16978374,0.820408594 5.68831169,1.12620713 C6.1900347,1.42368891 6.5896311,1.82328531 6.88711289,2.32500833 C7.19347473,2.84449144 7.34665335,3.4050364 7.34665335,4.00666001 C7.34665335,4.60828362 7.19347473,5.16882857 6.88711289,5.68831169 C6.5896311,6.1900347 6.1900347,6.5896311 5.68831169,6.88711289 C5.16882857,7.19347473 4.60828362,7.34665335 4.00666001,7.34665335 C3.4050364,7.34665335 2.84449144,7.19347473 2.32500833,6.88711289 C1.82328531,6.5896311 1.42368891,6.1900347 1.12620713,5.68831169 C0.819845288,5.16882857 0.666666667,4.60828362 0.666666667,4.00666001 C0.666666667,3.4050364 0.819845288,2.84449144 1.12620713,2.32500833 C1.42368891,1.82328531 1.82328531,1.42368891 2.32500833,1.12620713 C2.84353627,0.820408594 3.4040811,0.667230482 4.00665958,0.66666822 L4.00666043,0.66666822 Z M4.00666043,0.66666822 C4.00555043,0.666667185 4.00444029,0.666666667 4.00333,0.666666667 L4.00999001,0.666666667 C4.00887973,0.666666667 4.00776958,0.666667185 4.00665958,0.66666822 L4.00666043,0.66666822 Z M4.34299034,5.67499167 L4.34299034,5.00899101 L3.67032967,5.00899101 L3.67032967,5.67499167 L4.34299034,5.67499167 Z M4.34299034,4.34299034 L4.34299034,2.33832834 L3.67032967,2.33832834 L3.67032967,4.34299034 L4.34299034,4.34299034 Z" id="" fill="#F83200"></path>
            </g>
        </g>
    </g>
</svg>