<?xml version="1.0" encoding="UTF-8"?>
<svg width="20px" height="20px" viewBox="0 0 20 20" version="1.1" xmlns="http://www.w3.org/2000/svg" xmlns:xlink="http://www.w3.org/1999/xlink">
    <!-- Generator: Sketch 51.3 (57544) - http://www.bohemiancoding.com/sketch -->
    <title>icons / classes/ BMC_LogicalDisk_32_Error</title>
    <desc>Created with Sketch.</desc>
    <defs>
        <polygon id="path-1" points="0 0.000333333333 19.9999167 0.000333333333 19.9999167 20 0 20"></polygon>
    </defs>
    <g id="icons-/-classes/-BMC_LogicalDisk_32" stroke="none" stroke-width="1" fill="none" fill-rule="evenodd">
        <g id="icons-/-classes/-Logical-Disk">
            <g id="icons-/-20x20-icon-field" fill="#F5A623" fill-rule="nonzero" opacity="0">
                <rect x="0" y="0" width="20" height="20"></rect>
            </g>
            <path d="M18.956863,15.9982022 C18.978774,16.0143821 18.9924681,16.0278651 18.9979458,16.0386517 C19.0034236,16.0494382 18.9979459,16.0683144 18.9815127,16.0952809 L18.3981366,16.7505618 C18.3762256,16.7775282 18.3611621,16.7937078 18.3529455,16.7991011 C18.3447289,16.8044944 18.3241877,16.8125842 18.2913212,16.8233708 C18.1215114,16.8611238 18.0352383,16.8112366 18.0324994,16.6737078 C18.0297606,16.5361791 17.9763534,16.3946074 17.8722764,16.2489887 C17.8613209,16.2328089 17.8229774,16.2125844 17.7572445,16.1883146 C17.6915117,16.1640448 17.6449516,16.1546067 17.6175629,16.16 C17.5573078,16.1707865 17.4997924,16.1883145 17.445015,16.2125842 C17.3902377,16.236854 17.3436776,16.2732582 17.3053334,16.3217977 C17.2286451,16.4188769 17.2026262,16.5173028 17.2272761,16.6170786 C17.2519259,16.7168544 17.3162883,16.8017974 17.4203653,16.8719101 C17.5244423,16.9420228 17.6161931,16.9892133 17.6956203,17.0134831 C17.7750475,17.0377529 17.8147605,17.0903366 17.8147605,17.1712359 C17.803805,17.3060681 17.7175319,17.4530329 17.5559387,17.6121348 C17.3943454,17.7712367 17.2615123,17.8777525 17.1574352,17.9316854 C17.1300466,17.9532585 17.1095054,17.9613483 17.095811,17.955955 C17.0821167,17.9505617 17.0643143,17.9370787 17.0424033,17.9155056 L16.7137407,17.5191011 C16.5932305,17.3680891 16.5138045,17.2817978 16.4754603,17.2602247 C16.4152052,17.227865 16.3371486,17.2238201 16.2412882,17.2480899 C16.1454278,17.2723596 16.0769571,17.3222468 16.0358741,17.3977528 C15.9947911,17.4732588 15.9687722,17.5608983 15.9578167,17.6606741 C15.9468613,17.7604499 15.9222118,17.8373031 15.8838677,17.8912359 C15.8729122,17.9128091 15.8510016,17.9343819 15.8181351,17.955955 C15.7852687,17.9775282 15.7524028,17.9910112 15.7195364,17.9964045 C15.6209371,18.007191 15.5319252,17.993708 15.452498,17.955955 C15.3730708,17.918202 15.3059695,17.8588768 15.2511921,17.7779775 C15.1854593,17.6808984 15.174504,17.5703377 15.2183259,17.4462921 C15.2621478,17.3222465 15.3525291,17.2440451 15.4894725,17.2116854 C15.522339,17.2062921 15.562052,17.2035955 15.6086127,17.2035955 C15.6551735,17.2035955 15.6894088,17.1982023 15.7113198,17.1874157 C15.7770526,17.1712358 15.8181351,17.1388766 15.8345683,17.090337 C15.8510015,17.0417975 15.8537403,16.9824722 15.8427848,16.9123595 C15.8153961,16.7289878 15.7195372,16.5644951 15.5552051,16.4188764 C15.4401726,16.316404 15.2703653,16.173484 15.045778,15.9901123 C15.0183893,15.9739325 15.0033258,15.9591012 15.0005869,15.945618 C14.997848,15.9321347 15.0046951,15.9119102 15.0211283,15.8849438 C15.0759057,15.7932579 15.2101082,15.6489897 15.42374,15.4521348 C15.6373718,15.2552799 15.7797908,15.1460675 15.8510014,15.1244944 C15.9879448,15.0813481 16.064632,15.1420216 16.0810652,15.3065168 C16.0974984,15.471012 16.135842,15.5991006 16.1960971,15.6907865 C16.2125303,15.7285395 16.2385492,15.7595504 16.2741545,15.7838202 C16.3097598,15.80809 16.346734,15.8256179 16.3850781,15.8364045 C16.5165438,15.884944 16.6425299,15.8687644 16.7630401,15.7878651 C16.8835503,15.7069659 16.9355881,15.5964052 16.9191549,15.4561798 C16.9136771,15.3644939 16.8862888,15.275506 16.8369892,15.1892135 C16.7876896,15.1029209 16.7164801,15.0516855 16.6233585,15.0355056 C16.5904921,15.0301123 16.5507791,15.0314606 16.5042183,15.0395506 C16.4576576,15.0476405 16.4206834,15.0476405 16.3932947,15.0395506 C16.365906,15.0314606 16.3467342,15.0193259 16.3357787,15.0031461 L16.3275622,14.9869663 C16.311129,14.9653931 16.3001736,14.9465169 16.2946959,14.9303371 C16.2673072,14.8979774 16.2481354,14.8642698 16.23718,14.8292135 C16.2262245,14.7941571 16.2289633,14.757753 16.2453965,14.72 L16.2700462,14.6876404 C16.2810017,14.6714606 16.2946958,14.6579776 16.311129,14.647191 L16.935588,14.0323596 L16.9766708,14 C16.9876263,14 17.0040593,14.013483 17.0259702,14.0404494 L17.8147605,14.7604494 L17.8722764,14.8008989 L17.9133592,14.8170786 C18.0448249,14.8278652 18.1160345,14.7766298 18.1269899,14.6633708 L18.1680728,14.3802247 C18.1790282,14.3047187 18.2009389,14.2534833 18.2338053,14.2265169 C18.2666717,14.1995504 18.3132318,14.175281 18.3734869,14.1537079 C18.4666084,14.1213482 18.544665,14.1051685 18.607659,14.1051685 C18.670653,14.1051685 18.7459707,14.1375278 18.8336145,14.2022472 C18.9103029,14.2669666 18.9596018,14.3546062 18.9815127,14.4651685 C19.0034237,14.5757309 18.9828824,14.670112 18.9198885,14.7483146 C18.8568945,14.8265172 18.7952709,14.8710112 18.7350158,14.8817977 C18.6528497,14.8925843 18.5706849,14.8979775 18.4885188,14.8979775 C18.4282637,14.8979775 18.376226,14.9060673 18.3324041,14.9222472 C18.2885822,14.938427 18.2584551,14.9680897 18.2420218,15.0112359 C18.1598558,15.1730345 18.2228488,15.3564035 18.4310028,15.5613483 C18.6501123,15.782473 18.8253973,15.9280895 18.956863,15.9982022 Z" id="Path" fill="#333333" fill-rule="nonzero"></path>
            <g id="Group-3">
                <mask id="mask-2" fill="white">
                    <use xlink:href="#path-1"></use>
                </mask>
                <g id="Clip-2"></g>
                <path d="M18.2499167,11.167 C18.35825,11.1836667 18.4665833,11.2003333 18.5749167,11.2003333 C18.93325,11.2003333 19.2999167,11.0578333 19.58325,10.7836667 C19.8499167,10.517 19.98325,10.1753333 19.9915833,9.82533333 C19.9999167,9.80783333 19.9999167,9.78366667 19.9999167,9.76616667 C19.9999167,9.72533333 19.9999167,9.68366667 19.9915833,9.642 C19.9665833,9.31616667 19.83325,8.9995 19.58325,8.75033333 C19.2999167,8.47533333 18.93325,8.33366667 18.5665833,8.33366667 C18.43325,8.33366667 18.2999167,8.3495 18.1749167,8.392 C17.9499167,8.4495 17.73325,8.57533333 17.5499167,8.75033333 C17.10825,9.192 17.0165833,9.85033333 17.2749167,10.3836667 L16.8749167,10.7836667 L14.8415833,8.75033333 C14.65825,8.567 14.40825,8.47533333 14.1665833,8.47533333 C14.0749167,8.47533333 13.98325,8.492 13.8915833,8.51616667 C13.7415833,8.55783333 13.60825,8.63366667 13.4915833,8.75033333 L11.45825,10.7836667 L11.85825,11.1836667 C11.93325,11.1495 12.00825,11.1161667 12.08325,11.1003333 C12.2165833,11.0578333 12.3499167,11.042 12.48325,11.042 C12.55825,11.042 12.63325,11.0495 12.70825,11.0578333 C12.93325,11.1003333 13.1499167,11.1911667 13.33325,11.3328333 C13.3915833,11.3661667 13.4415833,11.4086667 13.4915833,11.4586667 C13.55825,11.5253333 13.60825,11.592 13.65825,11.667 C13.6915833,11.7161667 13.7249167,11.767 13.7415833,11.8253333 C14.0249167,12.3586667 13.9415833,13.0328333 13.4915833,13.492 C13.4415833,13.542 13.3915833,13.5828333 13.33325,13.6161667 C13.08325,13.817 12.7749167,13.9086667 12.4749167,13.9086667 C12.3415833,13.9086667 12.20825,13.892 12.08325,13.8503333 C11.9915833,13.8245 11.8999167,13.7911667 11.8165833,13.7503333 C11.68325,13.6836667 11.5665833,13.6003333 11.45825,13.492 C11.2415833,13.2745 11.10825,12.9995 11.05825,12.7086667 C11.0165833,12.417 11.05825,12.1245 11.18325,11.8586667 L10.78325,11.4586667 L8.74991667,13.492 C8.63325,13.6086667 8.55825,13.742 8.51658333,13.892 C8.41658333,14.2161667 8.49991667,14.5911667 8.74991667,14.8411667 L10.78325,16.8753333 L10.38325,17.2753333 C10.18325,17.1836667 9.97491667,17.1328333 9.75825,17.1328333 C9.62491667,17.1328333 9.48325,17.1503333 9.34991667,17.1995 C9.15825,17.2586667 8.96658333,17.3586667 8.80825,17.5003333 C8.78325,17.5161667 8.76658333,17.5336667 8.74991667,17.5495 C8.69991667,17.6003333 8.65825,17.6495 8.61658333,17.7086667 C8.50825,17.8578333 8.43325,18.0086667 8.39158333,18.1745 C8.37491667,18.2253333 8.36658333,18.2836667 8.35825,18.3336667 C8.34158333,18.4003333 8.33325,18.4586667 8.33325,18.5253333 C8.32491667,18.742 8.36658333,18.9586667 8.46658333,19.167 C8.52491667,19.3161667 8.62491667,19.4578333 8.74991667,19.5836667 C8.84991667,19.6836667 8.95825,19.7586667 9.07491667,19.817 C9.22491667,19.9078333 9.39158333,19.9586667 9.54991667,19.9836667 C9.62491667,19.992 9.69158333,20.0003333 9.76658333,20.0003333 C9.79991667,20.0003333 9.82491667,20.0003333 9.85825,19.992 C9.93325,19.992 10.00825,19.9836667 10.08325,19.967 C10.3415833,19.9078333 10.58325,19.7753333 10.78325,19.5836667 C10.7915833,19.5753333 10.7999167,19.567 10.80825,19.5578333 C10.9165833,19.442 11.00825,19.3086667 11.0665833,19.167 C11.1915833,18.8995 11.2249167,18.6086667 11.1749167,18.3336667 C11.1749167,18.3078333 11.1665833,18.2745 11.15825,18.2503333 C11.1415833,18.1411667 11.0999167,18.0503333 11.05825,17.9503333 L11.45825,17.5495 L13.4915833,19.5836667 C13.6749167,19.7661667 13.9249167,19.8586667 14.1665833,19.8586667 C14.40825,19.8586667 14.65825,19.7661667 14.8415833,19.5836667 L16.8749167,17.5495 L16.4749167,17.1503333 C16.2749167,17.2503333 16.0665833,17.292 15.8499167,17.292 C15.5499167,17.292 15.2415833,17.1911667 14.98325,16.9911667 C14.93325,16.9578333 14.88325,16.9161667 14.8415833,16.8753333 C14.8249167,16.8586667 14.80825,16.842 14.7915833,16.8161667 C14.28325,16.2503333 14.2999167,15.3911667 14.8415833,14.8411667 C14.8915833,14.792 14.9415833,14.7503333 14.9999167,14.717 C15.2499167,14.517 15.55825,14.4245 15.85825,14.4245 C16.1999167,14.4245 16.5415833,14.5503333 16.8165833,14.792 C16.8415833,14.8078333 16.85825,14.8253333 16.8749167,14.8411667 C17.3165833,15.2828333 17.40825,15.9411667 17.1499167,16.4745 L17.5499167,16.8753333 L19.58325,14.8411667 C19.9499167,14.4753333 19.9499167,13.8578333 19.58325,13.492 L17.5499167,11.4586667 L17.9499167,11.0578333 C18.0499167,11.1003333 18.1499167,11.142 18.2499167,11.167 M8.33325,10.0003333 C8.33325,10.4328333 8.49158333,10.8253333 8.76658333,11.1161667 L9.09991667,10.7836667 L10.28325,9.60866667 L11.1165833,8.77533333 C10.8249167,8.492 10.43325,8.33366667 9.99991667,8.33366667 C9.08325,8.33366667 8.33325,9.08366667 8.33325,10.0003333 M9.99991667,7.08366667 C10.7749167,7.08366667 11.48325,7.38366667 11.9999167,7.89116667 L12.3165833,7.5745 C12.50825,7.3745 12.73325,7.217 12.98325,7.09116667 C12.2249167,6.317 11.1665833,5.83366667 9.99991667,5.83366667 C7.69991667,5.83366667 5.83325,7.70033333 5.83325,10.0003333 C5.83325,11.167 6.31658333,12.2253333 7.09158333,12.9836667 C7.21658333,12.742 7.37491667,12.5161667 7.57491667,12.317 L7.89158333,12.0003333 C7.38325,11.4836667 7.08325,10.7745 7.08325,10.0003333 C7.08325,8.392 8.39158333,7.08366667 9.99991667,7.08366667 M6.66658333,18.492 C6.65825,18.8328333 6.69991667,19.1586667 6.79991667,19.4753333 C2.84158333,18.1411667 -8.33333333e-05,14.4086667 -8.33333333e-05,10.0003333 C-8.33333333e-05,4.47533333 4.47491667,0.000333333333 9.99991667,0.000333333333 C14.40825,0.000333333333 18.1499167,2.85033333 19.4749167,6.80866667 C19.18325,6.71616667 18.8749167,6.667 18.5665833,6.667 C18.2665833,6.667 17.9749167,6.70783333 17.6915833,6.80033333 C16.43325,3.79116667 13.45825,1.667 9.99991667,1.667 C5.40825,1.667 1.66658333,5.40866667 1.66658333,10.0003333 C1.66658333,13.4586667 3.78325,16.4328333 6.79158333,17.692 C6.75825,17.8086667 6.73325,17.9245 6.71658333,18.042 C6.68325,18.192 6.66658333,18.3411667 6.66658333,18.492" id="Fill-1" fill="#333333" mask="url(#mask-2)"></path>
            </g>
        </g>
        <g id="icons-/-Error_Mark" transform="translate(0.000000, 12.000000)">
            <circle id="Oval" fill="#FFFFFF" fill-rule="nonzero" cx="4" cy="4" r="4"></circle>
            <path d="M4.00666043,0.66666822 C4.60923891,0.667230482 5.16978374,0.820408594 5.68831169,1.12620713 C6.1900347,1.42368891 6.5896311,1.82328531 6.88711289,2.32500833 C7.19347473,2.84449144 7.34665335,3.4050364 7.34665335,4.00666001 C7.34665335,4.60828362 7.19347473,5.16882857 6.88711289,5.68831169 C6.5896311,6.1900347 6.1900347,6.5896311 5.68831169,6.88711289 C5.16882857,7.19347473 4.60828362,7.34665335 4.00666001,7.34665335 C3.4050364,7.34665335 2.84449144,7.19347473 2.32500833,6.88711289 C1.82328531,6.5896311 1.42368891,6.1900347 1.12620713,5.68831169 C0.819845288,5.16882857 0.666666667,4.60828362 0.666666667,4.00666001 C0.666666667,3.4050364 0.819845288,2.84449144 1.12620713,2.32500833 C1.42368891,1.82328531 1.82328531,1.42368891 2.32500833,1.12620713 C2.84353627,0.820408594 3.4040811,0.667230482 4.00665958,0.66666822 L4.00666043,0.66666822 Z M4.00666043,0.66666822 C4.00555043,0.666667185 4.00444029,0.666666667 4.00333,0.666666667 L4.00999001,0.666666667 C4.00887973,0.666666667 4.00776958,0.666667185 4.00665958,0.66666822 L4.00666043,0.66666822 Z M4.34299034,5.67499167 L4.34299034,5.00899101 L3.67032967,5.00899101 L3.67032967,5.67499167 L4.34299034,5.67499167 Z M4.34299034,4.34299034 L4.34299034,2.33832834 L3.67032967,2.33832834 L3.67032967,4.34299034 L4.34299034,4.34299034 Z" id="" fill="#F83200"></path>
        </g>
    </g>
</svg>