<?xml version="1.0" encoding="UTF-8"?>
<svg width="20px" height="20px" viewBox="0 0 20 20" version="1.1" xmlns="http://www.w3.org/2000/svg" xmlns:xlink="http://www.w3.org/1999/xlink">
    <!-- Generator: Sketch 51.3 (57544) - http://www.bohemiancoding.com/sketch -->
    <title>icons / classes/ BMC_JBOD_32_Error</title>
    <desc>Created with Sketch.</desc>
    <defs></defs>
    <g id="icons-/-classes/-BMC_JBOD_32" stroke="none" stroke-width="1" fill="none" fill-rule="evenodd">
        <g>
            <g id="icons-/-20x20-icon-field" fill="#F5A623" fill-rule="nonzero" opacity="0">
                <rect x="0" y="0" width="20" height="20"></rect>
            </g>
            <path d="M15,14.1666667 C15,14.625 14.625,15 14.1666667,15 C13.7083333,15 13.3333333,14.625 13.3333333,14.1666667 C13.3333333,13.7083333 13.7083333,13.3333333 14.1666667,13.3333333 C14.625,13.3333333 15,13.7083333 15,14.1666667 M15,14.1666667 C15,14.625 14.625,15 14.1666667,15 C13.7083333,15 13.3333333,14.625 13.3333333,14.1666667 C13.3333333,13.7083333 13.7083333,13.3333333 14.1666667,13.3333333 C14.625,13.3333333 15,13.7083333 15,14.1666667 M15,14.1666667 C15,14.625 14.625,15 14.1666667,15 C13.7083333,15 13.3333333,14.625 13.3333333,14.1666667 C13.3333333,13.7083333 13.7083333,13.3333333 14.1666667,13.3333333 C14.625,13.3333333 15,13.7083333 15,14.1666667 M15,14.1666667 C15,14.625 14.625,15 14.1666667,15 C13.7083333,15 13.3333333,14.625 13.3333333,14.1666667 C13.3333333,13.7083333 13.7083333,13.3333333 14.1666667,13.3333333 C14.625,13.3333333 15,13.7083333 15,14.1666667 M15,14.1666667 C15,14.625 14.625,15 14.1666667,15 C13.7083333,15 13.3333333,14.625 13.3333333,14.1666667 C13.3333333,13.7083333 13.7083333,13.3333333 14.1666667,13.3333333 C14.625,13.3333333 15,13.7083333 15,14.1666667 M15.8333333,14.1666667 C15.8333333,13.55 15.5,13.0166667 15,12.725 C14.7583333,12.5833333 14.4666667,12.5 14.1666667,12.5 C13.25,12.5 12.5,13.25 12.5,14.1666667 C12.5,15.0833333 13.25,15.8333333 14.1666667,15.8333333 C14.4666667,15.8333333 14.7583333,15.75 15,15.6083333 C15.5,15.3166667 15.8333333,14.7833333 15.8333333,14.1666667 M16.6666667,14.1666667 C16.6666667,15.2583333 15.975,16.1833333 15,16.5166667 C14.7408333,16.6166667 14.4583333,16.6666667 14.1666667,16.6666667 C12.7833333,16.6666667 11.6666667,15.55 11.6666667,14.1666667 C11.6666667,12.7833333 12.7833333,11.6666667 14.1666667,11.6666667 C14.4583333,11.6666667 14.7408333,11.7166667 15,11.8166667 C15.975,12.15 16.6666667,13.075 16.6666667,14.1666667 M15,14.1666667 C15,14.625 14.625,15 14.1666667,15 C13.7083333,15 13.3333333,14.625 13.3333333,14.1666667 C13.3333333,13.7083333 13.7083333,13.3333333 14.1666667,13.3333333 C14.625,13.3333333 15,13.7083333 15,14.1666667 M15,14.1666667 C15,14.625 14.625,15 14.1666667,15 C13.7083333,15 13.3333333,14.625 13.3333333,14.1666667 C13.3333333,13.7083333 13.7083333,13.3333333 14.1666667,13.3333333 C14.625,13.3333333 15,13.7083333 15,14.1666667 M15,14.1666667 C15,14.625 14.625,15 14.1666667,15 C13.7083333,15 13.3333333,14.625 13.3333333,14.1666667 C13.3333333,13.7083333 13.7083333,13.3333333 14.1666667,13.3333333 C14.625,13.3333333 15,13.7083333 15,14.1666667 M15,14.1666667 C15,14.625 14.625,15 14.1666667,15 C13.7083333,15 13.3333333,14.625 13.3333333,14.1666667 C13.3333333,13.7083333 13.7083333,13.3333333 14.1666667,13.3333333 C14.625,13.3333333 15,13.7083333 15,14.1666667 M15,14.1666667 C15,14.625 14.625,15 14.1666667,15 C13.7083333,15 13.3333333,14.625 13.3333333,14.1666667 C13.3333333,13.7083333 13.7083333,13.3333333 14.1666667,13.3333333 C14.625,13.3333333 15,13.7083333 15,14.1666667 M15.8333333,14.1666667 C15.8333333,13.55 15.5,13.0166667 15,12.725 C14.7583333,12.5833333 14.4666667,12.5 14.1666667,12.5 C13.25,12.5 12.5,13.25 12.5,14.1666667 C12.5,15.0833333 13.25,15.8333333 14.1666667,15.8333333 C14.4666667,15.8333333 14.7583333,15.75 15,15.6083333 C15.5,15.3166667 15.8333333,14.7833333 15.8333333,14.1666667 M16.6666667,14.1666667 C16.6666667,15.2583333 15.975,16.1833333 15,16.5166667 C14.7408333,16.6166667 14.4583333,16.6666667 14.1666667,16.6666667 C12.7833333,16.6666667 11.6666667,15.55 11.6666667,14.1666667 C11.6666667,12.7833333 12.7833333,11.6666667 14.1666667,11.6666667 C14.4583333,11.6666667 14.7408333,11.7166667 15,11.8166667 C15.975,12.15 16.6666667,13.075 16.6666667,14.1666667 M15,14.1666667 C15,14.625 14.625,15 14.1666667,15 C13.7083333,15 13.3333333,14.625 13.3333333,14.1666667 C13.3333333,13.7083333 13.7083333,13.3333333 14.1666667,13.3333333 C14.625,13.3333333 15,13.7083333 15,14.1666667 M15,14.1666667 C15,14.625 14.625,15 14.1666667,15 C13.7083333,15 13.3333333,14.625 13.3333333,14.1666667 C13.3333333,13.7083333 13.7083333,13.3333333 14.1666667,13.3333333 C14.625,13.3333333 15,13.7083333 15,14.1666667 M15,14.1666667 C15,14.625 14.625,15 14.1666667,15 C13.7083333,15 13.3333333,14.625 13.3333333,14.1666667 C13.3333333,13.7083333 13.7083333,13.3333333 14.1666667,13.3333333 C14.625,13.3333333 15,13.7083333 15,14.1666667 M15,14.1666667 C15,14.625 14.625,15 14.1666667,15 C13.7083333,15 13.3333333,14.625 13.3333333,14.1666667 C13.3333333,13.7083333 13.7083333,13.3333333 14.1666667,13.3333333 C14.625,13.3333333 15,13.7083333 15,14.1666667 M15,14.1666667 C15,14.625 14.625,15 14.1666667,15 C13.7083333,15 13.3333333,14.625 13.3333333,14.1666667 C13.3333333,13.7083333 13.7083333,13.3333333 14.1666667,13.3333333 C14.625,13.3333333 15,13.7083333 15,14.1666667 M15,14.1666667 C15,14.625 14.625,15 14.1666667,15 C13.7083333,15 13.3333333,14.625 13.3333333,14.1666667 C13.3333333,13.7083333 13.7083333,13.3333333 14.1666667,13.3333333 C14.625,13.3333333 15,13.7083333 15,14.1666667 M15,14.1666667 C15,14.625 14.625,15 14.1666667,15 C13.7083333,15 13.3333333,14.625 13.3333333,14.1666667 C13.3333333,13.7083333 13.7083333,13.3333333 14.1666667,13.3333333 C14.625,13.3333333 15,13.7083333 15,14.1666667 M15,14.1666667 C15,14.625 14.625,15 14.1666667,15 C13.7083333,15 13.3333333,14.625 13.3333333,14.1666667 C13.3333333,13.7083333 13.7083333,13.3333333 14.1666667,13.3333333 C14.625,13.3333333 15,13.7083333 15,14.1666667 M15,14.1666667 C15,14.625 14.625,15 14.1666667,15 C13.7083333,15 13.3333333,14.625 13.3333333,14.1666667 C13.3333333,13.7083333 13.7083333,13.3333333 14.1666667,13.3333333 C14.625,13.3333333 15,13.7083333 15,14.1666667 M15.8333333,14.1666667 C15.8333333,13.55 15.5,13.0166667 15,12.725 C14.7583333,12.5833333 14.4666667,12.5 14.1666667,12.5 C13.25,12.5 12.5,13.25 12.5,14.1666667 C12.5,15.0833333 13.25,15.8333333 14.1666667,15.8333333 C14.4666667,15.8333333 14.7583333,15.75 15,15.6083333 C15.5,15.3166667 15.8333333,14.7833333 15.8333333,14.1666667 M16.6666667,14.1666667 C16.6666667,15.2583333 15.975,16.1833333 15,16.5166667 C14.7408333,16.6166667 14.4583333,16.6666667 14.1666667,16.6666667 C12.7833333,16.6666667 11.6666667,15.55 11.6666667,14.1666667 C11.6666667,12.7833333 12.7833333,11.6666667 14.1666667,11.6666667 C14.4583333,11.6666667 14.7408333,11.7166667 15,11.8166667 C15.975,12.15 16.6666667,13.075 16.6666667,14.1666667 M15,14.1666667 C15,14.625 14.625,15 14.1666667,15 C13.7083333,15 13.3333333,14.625 13.3333333,14.1666667 C13.3333333,13.7083333 13.7083333,13.3333333 14.1666667,13.3333333 C14.625,13.3333333 15,13.7083333 15,14.1666667 M15,14.1666667 C15,14.625 14.625,15 14.1666667,15 C13.7083333,15 13.3333333,14.625 13.3333333,14.1666667 C13.3333333,13.7083333 13.7083333,13.3333333 14.1666667,13.3333333 C14.625,13.3333333 15,13.7083333 15,14.1666667 M15,14.1666667 C15,14.625 14.625,15 14.1666667,15 C13.7083333,15 13.3333333,14.625 13.3333333,14.1666667 C13.3333333,13.7083333 13.7083333,13.3333333 14.1666667,13.3333333 C14.625,13.3333333 15,13.7083333 15,14.1666667 M15,14.1666667 C15,14.625 14.625,15 14.1666667,15 C13.7083333,15 13.3333333,14.625 13.3333333,14.1666667 C13.3333333,13.7083333 13.7083333,13.3333333 14.1666667,13.3333333 C14.625,13.3333333 15,13.7083333 15,14.1666667 M15,14.1666667 C15,14.625 14.625,15 14.1666667,15 C13.7083333,15 13.3333333,14.625 13.3333333,14.1666667 C13.3333333,13.7083333 13.7083333,13.3333333 14.1666667,13.3333333 C14.625,13.3333333 15,13.7083333 15,14.1666667 M15,14.1666667 C15,14.625 14.625,15 14.1666667,15 C13.7083333,15 13.3333333,14.625 13.3333333,14.1666667 C13.3333333,13.7083333 13.7083333,13.3333333 14.1666667,13.3333333 C14.625,13.3333333 15,13.7083333 15,14.1666667 M15,14.1666667 C15,14.625 14.625,15 14.1666667,15 C13.7083333,15 13.3333333,14.625 13.3333333,14.1666667 C13.3333333,13.7083333 13.7083333,13.3333333 14.1666667,13.3333333 C14.625,13.3333333 15,13.7083333 15,14.1666667 M15,14.1666667 C15,14.625 14.625,15 14.1666667,15 C13.7083333,15 13.3333333,14.625 13.3333333,14.1666667 C13.3333333,13.7083333 13.7083333,13.3333333 14.1666667,13.3333333 C14.625,13.3333333 15,13.7083333 15,14.1666667 M15,14.1666667 C15,14.625 14.625,15 14.1666667,15 C13.7083333,15 13.3333333,14.625 13.3333333,14.1666667 C13.3333333,13.7083333 13.7083333,13.3333333 14.1666667,13.3333333 C14.625,13.3333333 15,13.7083333 15,14.1666667 M15.8333333,14.1666667 C15.8333333,13.55 15.5,13.0166667 15,12.725 C14.7583333,12.5833333 14.4666667,12.5 14.1666667,12.5 C13.25,12.5 12.5,13.25 12.5,14.1666667 C12.5,15.0833333 13.25,15.8333333 14.1666667,15.8333333 C14.4666667,15.8333333 14.7583333,15.75 15,15.6083333 C15.5,15.3166667 15.8333333,14.7833333 15.8333333,14.1666667 M16.6666667,14.1666667 C16.6666667,15.2583333 15.975,16.1833333 15,16.5166667 C14.7408333,16.6166667 14.4583333,16.6666667 14.1666667,16.6666667 C12.7833333,16.6666667 11.6666667,15.55 11.6666667,14.1666667 C11.6666667,12.7833333 12.7833333,11.6666667 14.1666667,11.6666667 C14.4583333,11.6666667 14.7408333,11.7166667 15,11.8166667 C15.975,12.15 16.6666667,13.075 16.6666667,14.1666667 M15,14.1666667 C15,14.625 14.625,15 14.1666667,15 C13.7083333,15 13.3333333,14.625 13.3333333,14.1666667 C13.3333333,13.7083333 13.7083333,13.3333333 14.1666667,13.3333333 C14.625,13.3333333 15,13.7083333 15,14.1666667 M15,14.1666667 C15,14.625 14.625,15 14.1666667,15 C13.7083333,15 13.3333333,14.625 13.3333333,14.1666667 C13.3333333,13.7083333 13.7083333,13.3333333 14.1666667,13.3333333 C14.625,13.3333333 15,13.7083333 15,14.1666667 M15,14.1666667 C15,14.625 14.625,15 14.1666667,15 C13.7083333,15 13.3333333,14.625 13.3333333,14.1666667 C13.3333333,13.7083333 13.7083333,13.3333333 14.1666667,13.3333333 C14.625,13.3333333 15,13.7083333 15,14.1666667 M15,14.1666667 C15,14.625 14.625,15 14.1666667,15 C13.7083333,15 13.3333333,14.625 13.3333333,14.1666667 C13.3333333,13.7083333 13.7083333,13.3333333 14.1666667,13.3333333 C14.625,13.3333333 15,13.7083333 15,14.1666667 M15,14.1666667 C15,14.625 14.625,15 14.1666667,15 C13.7083333,15 13.3333333,14.625 13.3333333,14.1666667 C13.3333333,13.7083333 13.7083333,13.3333333 14.1666667,13.3333333 C14.625,13.3333333 15,13.7083333 15,14.1666667 M15,14.1666667 C15,14.625 14.625,15 14.1666667,15 C13.7083333,15 13.3333333,14.625 13.3333333,14.1666667 C13.3333333,13.7083333 13.7083333,13.3333333 14.1666667,13.3333333 C14.625,13.3333333 15,13.7083333 15,14.1666667 M15,14.1666667 C15,14.625 14.625,15 14.1666667,15 C13.7083333,15 13.3333333,14.625 13.3333333,14.1666667 C13.3333333,13.7083333 13.7083333,13.3333333 14.1666667,13.3333333 C14.625,13.3333333 15,13.7083333 15,14.1666667 M15,14.1666667 C15,14.625 14.625,15 14.1666667,15 C13.7083333,15 13.3333333,14.625 13.3333333,14.1666667 C13.3333333,13.7083333 13.7083333,13.3333333 14.1666667,13.3333333 C14.625,13.3333333 15,13.7083333 15,14.1666667 M15,14.1666667 C15,14.625 14.625,15 14.1666667,15 C13.7083333,15 13.3333333,14.625 13.3333333,14.1666667 C13.3333333,13.7083333 13.7083333,13.3333333 14.1666667,13.3333333 C14.625,13.3333333 15,13.7083333 15,14.1666667 M15,14.1666667 C15,14.625 14.625,15 14.1666667,15 C13.7083333,15 13.3333333,14.625 13.3333333,14.1666667 C13.3333333,13.7083333 13.7083333,13.3333333 14.1666667,13.3333333 C14.625,13.3333333 15,13.7083333 15,14.1666667 M15,14.1666667 C15,14.625 14.625,15 14.1666667,15 C13.7083333,15 13.3333333,14.625 13.3333333,14.1666667 C13.3333333,13.7083333 13.7083333,13.3333333 14.1666667,13.3333333 C14.625,13.3333333 15,13.7083333 15,14.1666667 M15,14.1666667 C15,14.625 14.625,15 14.1666667,15 C13.7083333,15 13.3333333,14.625 13.3333333,14.1666667 C13.3333333,13.7083333 13.7083333,13.3333333 14.1666667,13.3333333 C14.625,13.3333333 15,13.7083333 15,14.1666667 M15,14.1666667 C15,14.625 14.625,15 14.1666667,15 C13.7083333,15 13.3333333,14.625 13.3333333,14.1666667 C13.3333333,13.7083333 13.7083333,13.3333333 14.1666667,13.3333333 C14.625,13.3333333 15,13.7083333 15,14.1666667 M15.8333333,14.1666667 C15.8333333,13.55 15.5,13.0166667 15,12.725 C14.7583333,12.5833333 14.4666667,12.5 14.1666667,12.5 C13.25,12.5 12.5,13.25 12.5,14.1666667 C12.5,15.0833333 13.25,15.8333333 14.1666667,15.8333333 C14.4666667,15.8333333 14.7583333,15.75 15,15.6083333 C15.5,15.3166667 15.8333333,14.7833333 15.8333333,14.1666667 M16.6666667,14.1666667 C16.6666667,15.2583333 15.975,16.1833333 15,16.5166667 C14.7408333,16.6166667 14.4583333,16.6666667 14.1666667,16.6666667 C12.7833333,16.6666667 11.6666667,15.55 11.6666667,14.1666667 C11.6666667,12.7833333 12.7833333,11.6666667 14.1666667,11.6666667 C14.4583333,11.6666667 14.7408333,11.7166667 15,11.8166667 C15.975,12.15 16.6666667,13.075 16.6666667,14.1666667 M15,14.1666667 C15,14.625 14.625,15 14.1666667,15 C13.7083333,15 13.3333333,14.625 13.3333333,14.1666667 C13.3333333,13.7083333 13.7083333,13.3333333 14.1666667,13.3333333 C14.625,13.3333333 15,13.7083333 15,14.1666667 M15,14.1666667 C15,14.625 14.625,15 14.1666667,15 C13.7083333,15 13.3333333,14.625 13.3333333,14.1666667 C13.3333333,13.7083333 13.7083333,13.3333333 14.1666667,13.3333333 C14.625,13.3333333 15,13.7083333 15,14.1666667 M15,14.1666667 C15,14.625 14.625,15 14.1666667,15 C13.7083333,15 13.3333333,14.625 13.3333333,14.1666667 C13.3333333,13.7083333 13.7083333,13.3333333 14.1666667,13.3333333 C14.625,13.3333333 15,13.7083333 15,14.1666667 M15,14.1666667 C15,14.625 14.625,15 14.1666667,15 C13.7083333,15 13.3333333,14.625 13.3333333,14.1666667 C13.3333333,13.7083333 13.7083333,13.3333333 14.1666667,13.3333333 C14.625,13.3333333 15,13.7083333 15,14.1666667 M15,14.1666667 C15,14.625 14.625,15 14.1666667,15 C13.7083333,15 13.3333333,14.625 13.3333333,14.1666667 C13.3333333,13.7083333 13.7083333,13.3333333 14.1666667,13.3333333 C14.625,13.3333333 15,13.7083333 15,14.1666667 M15,14.1666667 C15,14.625 14.625,15 14.1666667,15 C13.7083333,15 13.3333333,14.625 13.3333333,14.1666667 C13.3333333,13.7083333 13.7083333,13.3333333 14.1666667,13.3333333 C14.625,13.3333333 15,13.7083333 15,14.1666667 M15,14.1666667 C15,14.625 14.625,15 14.1666667,15 C13.7083333,15 13.3333333,14.625 13.3333333,14.1666667 C13.3333333,13.7083333 13.7083333,13.3333333 14.1666667,13.3333333 C14.625,13.3333333 15,13.7083333 15,14.1666667 M15,14.1666667 C15,14.625 14.625,15 14.1666667,15 C13.7083333,15 13.3333333,14.625 13.3333333,14.1666667 C13.3333333,13.7083333 13.7083333,13.3333333 14.1666667,13.3333333 C14.625,13.3333333 15,13.7083333 15,14.1666667 M15,14.1666667 C15,14.625 14.625,15 14.1666667,15 C13.7083333,15 13.3333333,14.625 13.3333333,14.1666667 C13.3333333,13.7083333 13.7083333,13.3333333 14.1666667,13.3333333 C14.625,13.3333333 15,13.7083333 15,14.1666667 M15,14.1666667 C15,14.625 14.625,15 14.1666667,15 C13.7083333,15 13.3333333,14.625 13.3333333,14.1666667 C13.3333333,13.7083333 13.7083333,13.3333333 14.1666667,13.3333333 C14.625,13.3333333 15,13.7083333 15,14.1666667 M15,14.1666667 C15,14.625 14.625,15 14.1666667,15 C13.7083333,15 13.3333333,14.625 13.3333333,14.1666667 C13.3333333,13.7083333 13.7083333,13.3333333 14.1666667,13.3333333 C14.625,13.3333333 15,13.7083333 15,14.1666667 M15,14.1666667 C15,14.625 14.625,15 14.1666667,15 C13.7083333,15 13.3333333,14.625 13.3333333,14.1666667 C13.3333333,13.7083333 13.7083333,13.3333333 14.1666667,13.3333333 C14.625,13.3333333 15,13.7083333 15,14.1666667 M15,14.1666667 C15,14.625 14.625,15 14.1666667,15 C13.7083333,15 13.3333333,14.625 13.3333333,14.1666667 C13.3333333,13.7083333 13.7083333,13.3333333 14.1666667,13.3333333 C14.625,13.3333333 15,13.7083333 15,14.1666667 M15.8333333,14.1666667 C15.8333333,13.55 15.5,13.0166667 15,12.725 C14.7583333,12.5833333 14.4666667,12.5 14.1666667,12.5 C13.25,12.5 12.5,13.25 12.5,14.1666667 C12.5,15.0833333 13.25,15.8333333 14.1666667,15.8333333 C14.4666667,15.8333333 14.7583333,15.75 15,15.6083333 C15.5,15.3166667 15.8333333,14.7833333 15.8333333,14.1666667 M16.6666667,14.1666667 C16.6666667,15.2583333 15.975,16.1833333 15,16.5166667 C14.7408333,16.6166667 14.4583333,16.6666667 14.1666667,16.6666667 C12.7833333,16.6666667 11.6666667,15.55 11.6666667,14.1666667 C11.6666667,12.7833333 12.7833333,11.6666667 14.1666667,11.6666667 C14.4583333,11.6666667 14.7408333,11.7166667 15,11.8166667 C15.975,12.15 16.6666667,13.075 16.6666667,14.1666667 M15,14.1666667 C15,14.625 14.625,15 14.1666667,15 C13.7083333,15 13.3333333,14.625 13.3333333,14.1666667 C13.3333333,13.7083333 13.7083333,13.3333333 14.1666667,13.3333333 C14.625,13.3333333 15,13.7083333 15,14.1666667 M15,14.1666667 C15,14.625 14.625,15 14.1666667,15 C13.7083333,15 13.3333333,14.625 13.3333333,14.1666667 C13.3333333,13.7083333 13.7083333,13.3333333 14.1666667,13.3333333 C14.625,13.3333333 15,13.7083333 15,14.1666667 M15,14.1666667 C15,14.625 14.625,15 14.1666667,15 C13.7083333,15 13.3333333,14.625 13.3333333,14.1666667 C13.3333333,13.7083333 13.7083333,13.3333333 14.1666667,13.3333333 C14.625,13.3333333 15,13.7083333 15,14.1666667 M15,14.1666667 C15,14.625 14.625,15 14.1666667,15 C13.7083333,15 13.3333333,14.625 13.3333333,14.1666667 C13.3333333,13.7083333 13.7083333,13.3333333 14.1666667,13.3333333 C14.625,13.3333333 15,13.7083333 15,14.1666667 M15,14.1666667 C15,14.625 14.625,15 14.1666667,15 C13.7083333,15 13.3333333,14.625 13.3333333,14.1666667 C13.3333333,13.7083333 13.7083333,13.3333333 14.1666667,13.3333333 C14.625,13.3333333 15,13.7083333 15,14.1666667 M15,14.1666667 C15,14.625 14.625,15 14.1666667,15 C13.7083333,15 13.3333333,14.625 13.3333333,14.1666667 C13.3333333,13.7083333 13.7083333,13.3333333 14.1666667,13.3333333 C14.625,13.3333333 15,13.7083333 15,14.1666667 M15,14.1666667 C15,14.625 14.625,15 14.1666667,15 C13.7083333,15 13.3333333,14.625 13.3333333,14.1666667 C13.3333333,13.7083333 13.7083333,13.3333333 14.1666667,13.3333333 C14.625,13.3333333 15,13.7083333 15,14.1666667 M15,14.1666667 C15,14.625 14.625,15 14.1666667,15 C13.7083333,15 13.3333333,14.625 13.3333333,14.1666667 C13.3333333,13.7083333 13.7083333,13.3333333 14.1666667,13.3333333 C14.625,13.3333333 15,13.7083333 15,14.1666667 M18.75,14.1666667 C18.75,11.925 17.125,10.05 15,9.65833333 C14.7333333,9.60833333 14.45,9.58333333 14.1666667,9.58333333 C11.6416667,9.58333333 9.58333333,11.6416667 9.58333333,14.1666667 C9.58333333,16.6916667 11.6416667,18.75 14.1666667,18.75 C14.4416667,18.75 14.7166667,18.725 14.975,18.675 C17.1166667,18.2916667 18.75,16.4166667 18.75,14.1666667 M20,14.1666667 C20,17.3916667 17.3916667,20 14.1666667,20 C14,20 13.8333333,19.9916667 13.6666667,19.975 C13.6583333,19.975 13.6416667,19.975 13.6333333,19.9666667 C13.4583333,19.9583333 13.2825,19.9333333 13.1083333,19.9 C12.9833333,19.8833333 12.8658333,19.85 12.7416667,19.8166667 C12.6666667,19.8083333 12.5833333,19.7833333 12.5083333,19.7583333 C12.4166667,19.7333333 12.3166667,19.7 12.225,19.6666667 C12.15,19.6416667 12.0666667,19.6083333 11.9833333,19.575 C11.8833333,19.5416667 11.7916667,19.5 11.7,19.45 C11.6416667,19.425 11.575,19.3916667 11.5091667,19.3583333 C11.4075,19.3083333 11.3166667,19.2583333 11.225,19.2 C11.1416667,19.1583333 11.0666667,19.1083333 10.9908333,19.0583333 C10.9416667,19.0333333 10.8916667,19 10.8416667,18.9583333 C10.7083333,18.8666667 10.5833333,18.775 10.4583333,18.6666667 C10.3083333,18.55 10.175,18.425 10.0416667,18.2916667 C9.90833333,18.1583333 9.78333333,18.025 9.66666667,17.875 C9.56666667,17.7583333 9.475,17.6416667 9.4,17.5166667 C9.30833333,17.4083333 9.23333333,17.2916667 9.16666667,17.175 C9.1,17.075 9.04166667,16.9666667 8.98333333,16.85 C8.91666667,16.7166667 8.85,16.575 8.79166667,16.4333333 C8.73333333,16.2916667 8.675,16.1583333 8.63333333,16.0083333 C8.58333333,15.8833333 8.55,15.75 8.51666667,15.6166667 C8.48333333,15.5083333 8.45833333,15.4 8.44166667,15.2833333 C8.40833333,15.1166667 8.38416667,14.9416667 8.36666667,14.7666667 C8.34166667,14.5666667 8.33333333,14.3666667 8.33333333,14.1666667 C8.33333333,10.9416667 10.9416667,8.33333333 14.1666667,8.33333333 C14.3416667,8.33333333 14.5166667,8.34166667 14.6916667,8.36666667 C14.7916667,8.36666667 14.8833333,8.375 14.975,8.4 L15.0083333,8.4 C15.1833333,8.425 15.3583333,8.45833333 15.525,8.5 C15.7,8.53333333 15.8666667,8.58333333 16.025,8.64166667 C16.1916667,8.69166667 16.3583333,8.75 16.5166667,8.83333333 C16.8333333,8.96666667 17.1341667,9.13333333 17.4166667,9.325 C17.7591667,9.55 18.0666667,9.81666667 18.35,10.1083333 C18.4583333,10.2166667 18.5666667,10.3333333 18.6583333,10.45 C18.675,10.4583333 18.6833333,10.475 18.6916667,10.4916667 C18.7833333,10.5916667 18.8666667,10.7083333 18.9416667,10.8166667 C19,10.9 19.0583333,10.9833333 19.1083333,11.0666667 C19.1416667,11.1166667 19.175,11.175 19.2,11.225 C19.275,11.3416667 19.3416667,11.4583333 19.4,11.5833333 C19.4083333,11.6 19.4166667,11.6166667 19.4258333,11.6416667 C19.4916667,11.7666667 19.5416667,11.8916667 19.5916667,12.025 C19.6166667,12.0916667 19.6416667,12.1583333 19.6666667,12.225 C19.7,12.3166667 19.7333333,12.4083333 19.7583333,12.5083333 C19.7916667,12.6 19.8166667,12.6916667 19.8333333,12.7833333 C19.8583333,12.875 19.875,12.975 19.8916667,13.0666667 C19.925,13.225 19.9491667,13.3916667 19.9666667,13.5666667 C19.9916667,13.7666667 20,13.9666667 20,14.1666667 M15.8333333,14.1666667 C15.8333333,13.55 15.5,13.0166667 15,12.725 C14.7583333,12.5833333 14.4666667,12.5 14.1666667,12.5 C13.25,12.5 12.5,13.25 12.5,14.1666667 C12.5,15.0833333 13.25,15.8333333 14.1666667,15.8333333 C14.4666667,15.8333333 14.7583333,15.75 15,15.6083333 C15.5,15.3166667 15.8333333,14.7833333 15.8333333,14.1666667 M16.6666667,14.1666667 C16.6666667,15.2583333 15.975,16.1833333 15,16.5166667 C14.7408333,16.6166667 14.4583333,16.6666667 14.1666667,16.6666667 C12.7833333,16.6666667 11.6666667,15.55 11.6666667,14.1666667 C11.6666667,12.7833333 12.7833333,11.6666667 14.1666667,11.6666667 C14.4583333,11.6666667 14.7408333,11.7166667 15,11.8166667 C15.975,12.15 16.6666667,13.075 16.6666667,14.1666667 M14.1666667,13.3333333 C13.7083333,13.3333333 13.3333333,13.7083333 13.3333333,14.1666667 C13.3333333,14.625 13.7083333,15 14.1666667,15 C14.625,15 15,14.625 15,14.1666667 C15,13.7083333 14.625,13.3333333 14.1666667,13.3333333 M11.6666667,5.83333333 C11.6666667,6.29166667 11.6158333,6.73333333 11.5166667,7.15833333 C10.9166667,7.375 10.3583333,7.68333333 9.8425,8.05 C10.2083333,7.39166667 10.4166667,6.63333333 10.4166667,5.83333333 C10.4166667,3.59166667 8.79166667,1.71666667 6.66666667,1.325 C6.4,1.275 6.11666667,1.25 5.83333333,1.25 C3.30833333,1.25 1.25,3.30833333 1.25,5.83333333 C1.25,8.35833333 3.30833333,10.4166667 5.83333333,10.4166667 C6.10833333,10.4166667 6.38333333,10.3916667 6.64166667,10.3416667 C7.15,10.25 7.625,10.075 8.05,9.83333333 C7.68333333,10.35 7.375,10.9166667 7.15833333,11.5166667 C6.73333333,11.6166667 6.29166667,11.6666667 5.83333333,11.6666667 C5.66666667,11.6666667 5.5,11.6583333 5.33333333,11.6416667 C2.3425,11.3916667 0,8.89166667 0,5.83333333 C0,2.60833333 2.60833333,0 5.83333333,0 C6.11666667,0 6.4,0.0166666667 6.66666667,0.0666666667 C9.5,0.466666667 11.6666667,2.89166667 11.6666667,5.83333333 M7.5,5.83333333 C7.5,5.21666667 7.16666667,4.68333333 6.66666667,4.39166667 C6.425,4.25 6.13333333,4.16666667 5.83333333,4.16666667 C4.91666667,4.16666667 4.16666667,4.91666667 4.16666667,5.83333333 C4.16666667,6.75 4.91666667,7.5 5.83333333,7.5 C6.13333333,7.5 6.425,7.41666667 6.66666667,7.275 C7.16666667,6.98333333 7.5,6.45 7.5,5.83333333 M8.33333333,5.83333333 C8.33333333,6.925 7.64166667,7.85 6.66666667,8.18333333 C6.4075,8.28333333 6.125,8.33333333 5.83333333,8.33333333 C4.45,8.33333333 3.33333333,7.21666667 3.33333333,5.83333333 C3.33333333,4.45 4.45,3.33333333 5.83333333,3.33333333 C6.125,3.33333333 6.4075,3.38333333 6.66666667,3.48333333 C7.64166667,3.81666667 8.33333333,4.74166667 8.33333333,5.83333333 M6.66666667,5.83333333 C6.66666667,6.29166667 6.29166667,6.66666667 5.83333333,6.66666667 C5.375,6.66666667 5,6.29166667 5,5.83333333 C5,5.375 5.375,5 5.83333333,5 C6.29166667,5 6.66666667,5.375 6.66666667,5.83333333" id="Fill-1" fill="#333333"></path>
            <g id="icons-/-Error_Mark" transform="translate(0.000000, 12.000000)">
                <circle id="Oval" fill="#FFFFFF" fill-rule="nonzero" cx="4" cy="4" r="4"></circle>
                <path d="M4.00666043,0.66666822 C4.60923891,0.667230482 5.16978374,0.820408594 5.68831169,1.12620713 C6.1900347,1.42368891 6.5896311,1.82328531 6.88711289,2.32500833 C7.19347473,2.84449144 7.34665335,3.4050364 7.34665335,4.00666001 C7.34665335,4.60828362 7.19347473,5.16882857 6.88711289,5.68831169 C6.5896311,6.1900347 6.1900347,6.5896311 5.68831169,6.88711289 C5.16882857,7.19347473 4.60828362,7.34665335 4.00666001,7.34665335 C3.4050364,7.34665335 2.84449144,7.19347473 2.32500833,6.88711289 C1.82328531,6.5896311 1.42368891,6.1900347 1.12620713,5.68831169 C0.819845288,5.16882857 0.666666667,4.60828362 0.666666667,4.00666001 C0.666666667,3.4050364 0.819845288,2.84449144 1.12620713,2.32500833 C1.42368891,1.82328531 1.82328531,1.42368891 2.32500833,1.12620713 C2.84353627,0.820408594 3.4040811,0.667230482 4.00665958,0.66666822 L4.00666043,0.66666822 Z M4.00666043,0.66666822 C4.00555043,0.666667185 4.00444029,0.666666667 4.00333,0.666666667 L4.00999001,0.666666667 C4.00887973,0.666666667 4.00776958,0.666667185 4.00665958,0.66666822 L4.00666043,0.66666822 Z M4.34299034,5.67499167 L4.34299034,5.00899101 L3.67032967,5.00899101 L3.67032967,5.67499167 L4.34299034,5.67499167 Z M4.34299034,4.34299034 L4.34299034,2.33832834 L3.67032967,2.33832834 L3.67032967,4.34299034 L4.34299034,4.34299034 Z" id="" fill="#F83200"></path>
            </g>
        </g>
    </g>
</svg>