<?xml version="1.0" encoding="UTF-8"?>
<svg width="20px" height="20px" viewBox="0 0 20 20" version="1.1" xmlns="http://www.w3.org/2000/svg" xmlns:xlink="http://www.w3.org/1999/xlink">
    <!-- Generator: Sketch 51.3 (57544) - http://www.bohemiancoding.com/sketch -->
    <title>icons / classes/ BMC_FederatedInterface_32</title>
    <desc>Created with Sketch.</desc>
    <defs>
        <polygon id="path-1" points="0 0 20 0 20 19.9996667 0 19.9996667"></polygon>
    </defs>
    <g id="icons-/-classes/-BMC_FederatedInterface_32" stroke="none" stroke-width="1" fill="none" fill-rule="evenodd">
        <g>
            <g id="icons-/-20x20-icon-field" fill="#F5A623" fill-rule="nonzero" opacity="0">
                <rect x="0" y="0" width="20" height="20"></rect>
            </g>
            <g id="Group-3">
                <mask id="mask-2" fill="white">
                    <use xlink:href="#path-1"></use>
                </mask>
                <g id="Clip-2"></g>
                <path d="M20,12.7913333 L17.0833333,15.7746667 L17.775,19.9996667 L14.1666667,18.0088333 L10.5583333,19.9996667 L11.25,15.7746667 L8.33333333,12.7913333 L12.3666667,12.1755 L14.1666667,8.333 L15.9666667,12.1755 L20,12.7913333 Z M5,3.333 L18.3333333,3.333 L18.3333333,1.66633333 L5,1.66633333 L5,3.333 Z M2.5,3.333 C2.04166667,3.333 1.66666667,2.958 1.66666667,2.49966667 C1.66666667,2.03383333 2.04166667,1.66633333 2.5,1.66633333 C2.95833333,1.66633333 3.33333333,2.03383333 3.33333333,2.49966667 C3.33333333,2.958 2.95833333,3.333 2.5,3.333 Z M18.3333333,-0.000333333333 L1.66666667,-0.000333333333 C0.75,-0.000333333333 0,0.7505 0,1.66633333 L0,14.9996667 C0,15.9163333 0.75,16.6663333 1.66666667,16.6663333 L9.41666667,16.6663333 L9.46666667,16.3421667 L8.15833333,14.9996667 L1.66666667,14.9996667 L1.66666667,4.99966667 L18.3333333,4.99966667 L18.3333333,10.8496667 L20,11.1005 L20,1.66633333 C20,0.7505 19.25,-0.000333333333 18.3333333,-0.000333333333 Z" id="Fill-1" fill="#333333" mask="url(#mask-2)"></path>
            </g>
            <g id="icons-/-Error_Mark" transform="translate(0.000000, 12.000000)" opacity="0">
                <circle id="Oval" fill="#FFFFFF" fill-rule="nonzero" cx="4" cy="4" r="4"></circle>
                <path d="M4.00666043,0.66666822 C4.60923891,0.667230482 5.16978374,0.820408594 5.68831169,1.12620713 C6.1900347,1.42368891 6.5896311,1.82328531 6.88711289,2.32500833 C7.19347473,2.84449144 7.34665335,3.4050364 7.34665335,4.00666001 C7.34665335,4.60828362 7.19347473,5.16882857 6.88711289,5.68831169 C6.5896311,6.1900347 6.1900347,6.5896311 5.68831169,6.88711289 C5.16882857,7.19347473 4.60828362,7.34665335 4.00666001,7.34665335 C3.4050364,7.34665335 2.84449144,7.19347473 2.32500833,6.88711289 C1.82328531,6.5896311 1.42368891,6.1900347 1.12620713,5.68831169 C0.819845288,5.16882857 0.666666667,4.60828362 0.666666667,4.00666001 C0.666666667,3.4050364 0.819845288,2.84449144 1.12620713,2.32500833 C1.42368891,1.82328531 1.82328531,1.42368891 2.32500833,1.12620713 C2.84353627,0.820408594 3.4040811,0.667230482 4.00665958,0.66666822 L4.00666043,0.66666822 Z M4.00666043,0.66666822 C4.00555043,0.666667185 4.00444029,0.666666667 4.00333,0.666666667 L4.00999001,0.666666667 C4.00887973,0.666666667 4.00776958,0.666667185 4.00665958,0.66666822 L4.00666043,0.66666822 Z M4.34299034,5.67499167 L4.34299034,5.00899101 L3.67032967,5.00899101 L3.67032967,5.67499167 L4.34299034,5.67499167 Z M4.34299034,4.34299034 L4.34299034,2.33832834 L3.67032967,2.33832834 L3.67032967,4.34299034 L4.34299034,4.34299034 Z" id="" fill="#F83200"></path>
            </g>
        </g>
    </g>
</svg>