<?xml version="1.0" encoding="UTF-8"?>
<svg width="20px" height="20px" viewBox="0 0 20 20" version="1.1" xmlns="http://www.w3.org/2000/svg" xmlns:xlink="http://www.w3.org/1999/xlink">
    <!-- Generator: Sketch 51.3 (57544) - http://www.bohemiancoding.com/sketch -->
    <title>icons / classes/ BMC_MFResourceServer_32</title>
    <desc>Created with Sketch.</desc>
    <defs></defs>
    <g id="icons-/-classes/-BMC_MFResourceServer_32" stroke="none" stroke-width="1" fill="none" fill-rule="evenodd">
        <g>
            <g id="icons-/-20x20-icon-field" fill="#F5A623" fill-rule="nonzero" opacity="0">
                <rect x="0" y="0" width="20" height="20"></rect>
            </g>
            <g id="Group-4" fill="#333333">
                <path d="M4.16666667,7.5 L10.8333333,7.5 L10.8333333,4.16666667 L4.16666667,4.16666667 L4.16666667,7.5 Z M8.75,19.3583333 L8.39166667,19 L8.34166667,18.9583333 L8.3,18.9083333 C7.99166667,18.5416667 7.81666667,18.0833333 7.81666667,17.6 C7.81666667,17.2916667 7.89166667,16.9916667 8.025,16.7166667 C7.73333333,16.6166667 7.46666667,16.45 7.24166667,16.225 C6.86666667,15.8583333 6.66666667,15.3583333 6.66666667,14.825 L6.66666667,13.5 C6.66666667,13.1416667 6.75833333,12.8083333 6.93333333,12.5083333 C6.99166667,12.4083333 7.08333333,12.2583333 7.24166667,12.1083333 C7.46666667,11.8833333 7.73333333,11.7166667 8.025,11.6166667 C7.89166667,11.3416667 7.81666667,11.0416667 7.81666667,10.7333333 C7.81666667,10.25 7.99166667,9.79166667 8.3,9.425 L8.34166667,9.375 L8.39166667,9.33333333 L9.33333333,8.39166667 L9.36666667,8.35 L9.40833333,8.30833333 C9.775,7.99166667 10.2416667,7.81666667 10.7333333,7.81666667 C11.05,7.81666667 11.35,7.89166667 11.625,8.025 C11.65,7.95 11.675,7.875 11.7083333,7.80833333 C11.8166667,7.56666667 11.975,7.35 12.175,7.175 C12.5333333,6.84166667 13,6.66666667 13.5,6.66666667 L14.8416667,6.66666667 C14.8916667,6.66666667 14.9416667,6.66666667 15,6.675 L15,1.58333333 C15,0.708333333 14.2833333,0 13.3916667,0 L1.60833333,0 C0.716666667,0 0,0.708333333 0,1.58333333 L0,18.4166667 C0,19.2916667 0.716666667,20 1.60833333,20 L9.4,20 C9.375,19.975 9.35833333,19.9583333 9.34166667,19.9416667 L8.75,19.3583333 Z" id="Fill-1"></path>
                <path d="M16.2833333,15.55825 C16.0666667,15.9415833 15.775,16.23325 15.3916667,16.45825 C15.2666667,16.53325 15.1333333,16.5915833 15,16.63325 C14.7333333,16.7415833 14.4583333,16.7915833 14.1666667,16.7915833 C13.8833333,16.7915833 13.6083333,16.7415833 13.3491667,16.6499167 C13.2,16.5999167 13.0583333,16.53325 12.925,16.45825 C12.55,16.23325 12.25,15.9415833 12.0333333,15.55825 C11.8166667,15.18325 11.7083333,14.7749167 11.7083333,14.33325 C11.7083333,13.88325 11.8166667,13.4749167 12.0333333,13.0999167 C12.25,12.7165833 12.55,12.4249167 12.925,12.20825 C13.075,12.1165833 13.2416667,12.0499167 13.4083333,11.9999167 C13.4583333,11.9749167 13.5166667,11.9665833 13.575,11.95825 C13.7583333,11.90825 13.9583333,11.88325 14.1583333,11.88325 C14.4583333,11.88325 14.7333333,11.93325 15,12.03325 C15.1333333,12.0749167 15.2666667,12.13325 15.3916667,12.20825 C15.7,12.38325 15.95,12.60825 16.15,12.8915833 C16.2,12.95825 16.2416667,13.0249167 16.2833333,13.0999167 C16.5,13.4749167 16.6083333,13.88325 16.6083333,14.33325 C16.6083333,14.7749167 16.5,15.18325 16.2833333,15.55825 M19.9083333,13.28325 C19.8416667,13.2249167 19.775,13.1915833 19.6833333,13.1915833 L18.7333333,13.1915833 C18.65,13.1915833 18.575,13.1665833 18.4916667,13.10825 C18.4083333,13.0499167 18.3583333,12.9749167 18.3333333,12.8915833 L18.0083333,12.0999167 C17.9666667,12.03325 17.9583333,11.9499167 17.975,11.8499167 C17.9916667,11.75825 18.025,11.6749167 18.0916667,11.6165833 L18.3333333,11.3749167 L18.7658333,10.9415833 C18.8166667,10.88325 18.85,10.8165833 18.85,10.73325 C18.85,10.6415833 18.8166667,10.5665833 18.7658333,10.50825 L17.825,9.56658333 C17.7583333,9.50825 17.6833333,9.47491667 17.6,9.47491667 C17.5158333,9.47491667 17.4416667,9.50825 17.3833333,9.56658333 L16.7083333,10.2415833 C16.7,10.2499167 16.6825,10.2665833 16.6666667,10.2749167 L16.6583333,10.2749167 C16.6083333,10.3165833 16.55,10.3415833 16.4741667,10.3499167 C16.4583333,10.35825 16.4333333,10.35825 16.4083333,10.35825 C16.3416667,10.35825 16.275,10.3415833 16.2166667,10.30825 L15.8333333,10.1499167 L15.4325,9.98325 C15.35,9.95825 15.275,9.90825 15.2166667,9.83325 C15.1583333,9.75825 15.1333333,9.67491667 15.1333333,9.59158333 L15.1333333,8.63325 C15.1333333,8.54991667 15.1,8.47491667 15.05,8.41658333 C15.0333333,8.39991667 15.0158333,8.39158333 15,8.38325 C14.95,8.34991667 14.9,8.33325 14.8416667,8.33325 L13.5,8.33325 C13.4166667,8.33325 13.3416667,8.35825 13.2833333,8.41658333 C13.25,8.44158333 13.2333333,8.47491667 13.225,8.50825 C13.2,8.54158333 13.1916667,8.59158333 13.1916667,8.63325 L13.1916667,9.59991667 C13.1916667,9.68325 13.1583333,9.76658333 13.1083333,9.84158333 C13.05,9.92491667 12.9833333,9.97491667 12.9,9.99991667 L12.1083333,10.3249167 C12.0583333,10.3499167 12,10.3665833 11.9333333,10.3665833 C11.9083333,10.3665833 11.8833333,10.35825 11.8583333,10.35825 C11.7583333,10.3415833 11.675,10.2999167 11.6166667,10.2415833 L10.9416667,9.56658333 C10.8833333,9.50825 10.8166667,9.48325 10.7333333,9.48325 C10.65,9.48325 10.575,9.50825 10.5083333,9.56658333 L9.56666667,10.50825 C9.51666667,10.5665833 9.48333333,10.6415833 9.48333333,10.73325 C9.48333333,10.8165833 9.51666667,10.8915833 9.56666667,10.9499167 L10.2416667,11.6249167 C10.3083333,11.68325 10.3416667,11.75825 10.35,11.8499167 C10.3666667,11.9499167 10.35,12.03325 10.3166667,12.1165833 L9.98333333,12.8915833 C9.98333333,12.90825 9.975,12.9249167 9.96666667,12.93325 C9.95,12.9999167 9.9,13.05825 9.83333333,13.10825 C9.75833333,13.1665833 9.675,13.1915833 9.59166667,13.1915833 L8.63333333,13.1915833 C8.55,13.1915833 8.475,13.2249167 8.41666667,13.28325 C8.4,13.2999167 8.39166667,13.3165833 8.38333333,13.33325 C8.34916667,13.38325 8.33333333,13.43325 8.33333333,13.4999167 L8.33333333,14.8249167 C8.33333333,14.9165833 8.35833333,14.9915833 8.41666667,15.0499167 C8.475,15.10825 8.55,15.1415833 8.63333333,15.1415833 L9.59166667,15.1415833 C9.675,15.1415833 9.75833333,15.1665833 9.83333333,15.2165833 C9.91666667,15.2749167 9.96666667,15.3415833 9.98333333,15.4249167 L10.3166667,16.2165833 C10.35,16.2999167 10.3666667,16.38325 10.35,16.4749167 C10.3416667,16.5665833 10.3083333,16.6499167 10.2416667,16.70825 L9.56666667,17.38325 C9.51666667,17.4415833 9.48333333,17.5165833 9.48333333,17.5999167 C9.48333333,17.6915833 9.51666667,17.7665833 9.56666667,17.8249167 L9.925,18.18325 L10.5083333,18.75825 C10.5666667,18.8165833 10.6333333,18.8499167 10.7166667,18.8499167 C10.8083333,18.8499167 10.8833333,18.8165833 10.9416667,18.75825 L11.6166667,18.08325 C11.675,18.0249167 11.7583333,17.9915833 11.8583333,17.9749167 C11.8833333,17.9749167 11.9083333,17.9665833 11.9333333,17.9665833 C12,17.9665833 12.0583333,17.98325 12.1083333,18.00825 L12.9,18.33325 C12.9833333,18.35825 13.0583333,18.40825 13.1166667,18.4915833 C13.175,18.5749167 13.2,18.65825 13.2,18.73325 L13.2,19.6999167 C13.2,19.7749167 13.2333333,19.8415833 13.2916667,19.90825 C13.3333333,19.95825 13.3916667,19.9915833 13.4666667,19.9915833 C13.475,19.9999167 13.4916667,19.9999167 13.5,19.9999167 L14.8416667,19.9999167 C14.925,19.9999167 15,19.9665833 15.0583333,19.90825 C15.1166667,19.8415833 15.1416667,19.7749167 15.1416667,19.6999167 L15.1416667,18.73325 C15.1416667,18.6499167 15.175,18.5665833 15.2333333,18.4915833 C15.2916667,18.40825 15.3583333,18.35825 15.4325,18.33325 L16.225,18.00825 C16.2833333,17.98325 16.3416667,17.9665833 16.4083333,17.9665833 C16.4333333,17.9665833 16.4583333,17.9749167 16.4833333,17.9749167 C16.575,17.9915833 16.6583333,18.0249167 16.7166667,18.08325 L17.3916667,18.75825 C17.4583333,18.8165833 17.525,18.8499167 17.6166667,18.8499167 C17.7,18.8499167 17.775,18.8165833 17.8333333,18.75825 L18.775,17.8249167 C18.8333333,17.7665833 18.8583333,17.6915833 18.8583333,17.5999167 C18.8583333,17.5165833 18.8333333,17.4415833 18.775,17.38325 L18.1,16.70825 C18.0416667,16.6499167 18,16.5749167 17.9833333,16.48325 C17.9666667,16.38325 17.9833333,16.2999167 18.0166667,16.2165833 L18.3491667,15.4249167 C18.3666667,15.3499167 18.425,15.28325 18.5083333,15.2249167 C18.5833333,15.1665833 18.6666667,15.1415833 18.7416667,15.1415833 L19.6833333,15.1415833 C19.775,15.1415833 19.8416667,15.10825 19.9083333,15.0415833 C19.9666667,14.98325 20,14.90825 20,14.8249167 L20,13.4999167 C20,13.4165833 19.9666667,13.3415833 19.9083333,13.28325" id="Fill-3"></path>
            </g>
            <g id="icons-/-Error_Mark" transform="translate(0.000000, 12.000000)" opacity="0">
                <circle id="Oval" fill="#FFFFFF" fill-rule="nonzero" cx="4" cy="4" r="4"></circle>
                <path d="M4.00666043,0.66666822 C4.60923891,0.667230482 5.16978374,0.820408594 5.68831169,1.12620713 C6.1900347,1.42368891 6.5896311,1.82328531 6.88711289,2.32500833 C7.19347473,2.84449144 7.34665335,3.4050364 7.34665335,4.00666001 C7.34665335,4.60828362 7.19347473,5.16882857 6.88711289,5.68831169 C6.5896311,6.1900347 6.1900347,6.5896311 5.68831169,6.88711289 C5.16882857,7.19347473 4.60828362,7.34665335 4.00666001,7.34665335 C3.4050364,7.34665335 2.84449144,7.19347473 2.32500833,6.88711289 C1.82328531,6.5896311 1.42368891,6.1900347 1.12620713,5.68831169 C0.819845288,5.16882857 0.666666667,4.60828362 0.666666667,4.00666001 C0.666666667,3.4050364 0.819845288,2.84449144 1.12620713,2.32500833 C1.42368891,1.82328531 1.82328531,1.42368891 2.32500833,1.12620713 C2.84353627,0.820408594 3.4040811,0.667230482 4.00665958,0.66666822 L4.00666043,0.66666822 Z M4.00666043,0.66666822 C4.00555043,0.666667185 4.00444029,0.666666667 4.00333,0.666666667 L4.00999001,0.666666667 C4.00887973,0.666666667 4.00776958,0.666667185 4.00665958,0.66666822 L4.00666043,0.66666822 Z M4.34299034,5.67499167 L4.34299034,5.00899101 L3.67032967,5.00899101 L3.67032967,5.67499167 L4.34299034,5.67499167 Z M4.34299034,4.34299034 L4.34299034,2.33832834 L3.67032967,2.33832834 L3.67032967,4.34299034 L4.34299034,4.34299034 Z" id="" fill="#F83200"></path>
            </g>
        </g>
    </g>
</svg>