<?xml version="1.0" encoding="UTF-8"?>
<svg width="20px" height="20px" viewBox="0 0 20 20" version="1.1" xmlns="http://www.w3.org/2000/svg" xmlns:xlink="http://www.w3.org/1999/xlink">
    <!-- Generator: Sketch 51.3 (57544) - http://www.bohemiancoding.com/sketch -->
    <title>icons / classes/ BMC_WebCaching_32</title>
    <desc>Created with Sketch.</desc>
    <defs>
        <polygon id="path-1" points="0 0 19.99975 0 19.99975 20 0 20"></polygon>
    </defs>
    <g id="icons-/-classes/-BMC_WebCaching_32" stroke="none" stroke-width="1" fill="none" fill-rule="evenodd">
        <g>
            <g id="icons-/-20x20-icon-field" fill="#F5A623" fill-rule="nonzero" opacity="0">
                <rect x="0" y="0" width="20" height="20"></rect>
            </g>
            <g id="Group-3">
                <mask id="mask-2" fill="white">
                    <use xlink:href="#path-1"></use>
                </mask>
                <g id="Clip-2"></g>
                <path d="M18.72475,13.75 C18.57475,12.05 17.49225,10.6166667 15.9830833,9.95833333 C16.7664167,11.2583333 17.2164167,12.5083333 17.2914167,13.75 L18.72475,13.75 Z M18.72475,14.5833333 L17.2914167,14.5833333 C17.2164167,15.825 16.7664167,17.075 15.9830833,18.375 C17.49225,17.7166667 18.57475,16.2833333 18.72475,14.5833333 Z M16.5664167,14.5833333 L14.99975,14.5833333 L14.5830833,14.5833333 L14.5830833,18.725 C14.69975,18.7166667 14.81725,18.7 14.92475,18.6833333 C14.94975,18.65 14.97475,18.6166667 14.99225,18.5833333 L14.99225,18.575 C15.94975,17.1833333 16.4664167,15.8833333 16.5664167,14.5833333 Z M13.74975,18.725 L13.74975,14.5833333 L11.7664167,14.5833333 C11.86725,15.9166667 12.4080833,17.25 13.4080833,18.6833333 C13.5164167,18.7 13.6339167,18.7166667 13.74975,18.725 Z M12.3505833,18.375 C11.5664167,17.075 11.1164167,15.825 11.0414167,14.5833333 L9.60891667,14.5833333 C9.75808333,16.2833333 10.8414167,17.7166667 12.3505833,18.375 Z M9.60891667,13.75 L11.0414167,13.75 C11.1164167,12.5083333 11.5664167,11.2583333 12.3505833,9.95833333 C10.8414167,10.6166667 9.75808333,12.05 9.60891667,13.75 Z M11.7664167,13.75 L13.74975,13.75 L13.74975,9.60833333 C13.6339167,9.61666667 13.5164167,9.63333333 13.4080833,9.65 C12.4080833,11.0833333 11.86725,12.4166667 11.7664167,13.75 Z M14.5830833,13.75 L14.99975,13.75 L16.5664167,13.75 C16.4664167,12.45 15.9589167,11.1583333 14.99975,9.76666667 C14.9839167,9.725 14.94975,9.69166667 14.92475,9.65 C14.81725,9.63333333 14.69975,9.61666667 14.5830833,9.60833333 L14.5830833,13.75 Z M19.99975,13.8 L19.99975,14.5333333 L19.9839167,14.5333333 C19.9664167,14.7166667 19.94975,14.8916667 19.92475,15.075 C19.7330833,16.3166667 19.1414167,17.4333333 18.2830833,18.2833333 C17.4330833,19.1416667 16.3164167,19.7333333 15.07475,19.925 C14.8914167,19.95 14.7164167,19.9666667 14.5330833,19.9833333 L14.5330833,20 L13.8005833,20 L13.8005833,19.9833333 C13.7580833,19.9833333 13.72475,19.975 13.6830833,19.9666667 C13.5414167,19.9583333 13.39975,19.9416667 13.2580833,19.925 C12.0164167,19.7333333 10.89975,19.1416667 10.0505833,18.2833333 C9.19225,17.4333333 8.60058333,16.3166667 8.40808333,15.075 C8.38391667,14.8916667 8.36641667,14.7166667 8.34975,14.5333333 L8.33308333,14.5333333 L8.33308333,13.8 L8.34975,13.8 C8.36641667,13.6166667 8.38391667,13.4416667 8.40808333,13.2583333 C8.80058333,10.7666667 10.7664167,8.8 13.2580833,8.40833333 L13.2664167,8.40833333 C13.4414167,8.38333333 13.6164167,8.36666667 13.8005833,8.35 L13.8005833,8.33333333 L14.5330833,8.33333333 L14.5330833,8.35 C14.6914167,8.36666667 14.8505833,8.38333333 14.99975,8.4 C15.0255833,8.4 15.0414167,8.40833333 15.0664167,8.40833333 L15.07475,8.40833333 C16.3164167,8.6 17.4330833,9.19166667 18.2830833,10.05 C19.1414167,10.9 19.7330833,12.0166667 19.92475,13.2583333 C19.94975,13.4416667 19.9664167,13.6166667 19.9839167,13.8 L19.99975,13.8 Z M13.6164167,6.69166667 L19.99975,3.79166667 L9.99975,0 L-0.00025,3.79166667 L9.65808333,8.175 C10.7664167,7.33333333 12.1339167,6.79166667 13.6164167,6.69166667 Z M8.36641667,9.425 L3.80058333,7.35 L-0.00025,8.79166667 L7.00058333,11.9666667 C7.28391667,11.025 7.74975,10.1666667 8.36641667,9.425 Z M6.66641667,14.1666667 C6.66641667,15.2 6.87475,16.1833333 7.25808333,17.0833333 L-0.00025,13.7916667 L3.80058333,12.35 L6.68308333,13.6583333 C6.67475,13.825 6.66641667,13.9916667 6.66641667,14.1666667 Z" id="Fill-1" fill="#333333" mask="url(#mask-2)"></path>
            </g>
            <g id="icons-/-Error_Mark" transform="translate(0.000000, 12.000000)" opacity="0">
                <circle id="Oval" fill="#FFFFFF" fill-rule="nonzero" cx="4" cy="4" r="4"></circle>
                <path d="M4.00666043,0.66666822 C4.60923891,0.667230482 5.16978374,0.820408594 5.68831169,1.12620713 C6.1900347,1.42368891 6.5896311,1.82328531 6.88711289,2.32500833 C7.19347473,2.84449144 7.34665335,3.4050364 7.34665335,4.00666001 C7.34665335,4.60828362 7.19347473,5.16882857 6.88711289,5.68831169 C6.5896311,6.1900347 6.1900347,6.5896311 5.68831169,6.88711289 C5.16882857,7.19347473 4.60828362,7.34665335 4.00666001,7.34665335 C3.4050364,7.34665335 2.84449144,7.19347473 2.32500833,6.88711289 C1.82328531,6.5896311 1.42368891,6.1900347 1.12620713,5.68831169 C0.819845288,5.16882857 0.666666667,4.60828362 0.666666667,4.00666001 C0.666666667,3.4050364 0.819845288,2.84449144 1.12620713,2.32500833 C1.42368891,1.82328531 1.82328531,1.42368891 2.32500833,1.12620713 C2.84353627,0.820408594 3.4040811,0.667230482 4.00665958,0.66666822 L4.00666043,0.66666822 Z M4.00666043,0.66666822 C4.00555043,0.666667185 4.00444029,0.666666667 4.00333,0.666666667 L4.00999001,0.666666667 C4.00887973,0.666666667 4.00776958,0.666667185 4.00665958,0.66666822 L4.00666043,0.66666822 Z M4.34299034,5.67499167 L4.34299034,5.00899101 L3.67032967,5.00899101 L3.67032967,5.67499167 L4.34299034,5.67499167 Z M4.34299034,4.34299034 L4.34299034,2.33832834 L3.67032967,2.33832834 L3.67032967,4.34299034 L4.34299034,4.34299034 Z" id="" fill="#F83200"></path>
            </g>
        </g>
    </g>
</svg>