<?xml version="1.0" encoding="UTF-8"?>
<svg width="20px" height="20px" viewBox="0 0 20 20" version="1.1" xmlns="http://www.w3.org/2000/svg" xmlns:xlink="http://www.w3.org/1999/xlink">
    <!-- Generator: Sketch 51.3 (57544) - http://www.bohemiancoding.com/sketch -->
    <title>icons / classes/ BMC_Processor_32_Error</title>
    <desc>Created with Sketch.</desc>
    <defs></defs>
    <g id="icons-/-classes/-BMC_Processor_32" stroke="none" stroke-width="1" fill="none" fill-rule="evenodd">
        <g id="icons-/-classes/-Processor" fill="#F5A623" fill-rule="nonzero" opacity="0">
            <g id="icons-/-20x20-icon-field">
                <rect x="0" y="0" width="20" height="20"></rect>
            </g>
        </g>
        <path d="M20,6.36363636 L20,4.54545455 L18.1818182,4.54545455 L18.1818182,3.45454545 C18.1818182,2.55090909 17.4490909,1.81818182 16.5454545,1.81818182 L15.4545455,1.81818182 L15.4545455,0 L13.6363636,0 L13.6363636,1.81818182 L10.9090909,1.81818182 L10.9090909,0 L9.09090909,0 L9.09090909,1.81818182 L6.36363636,1.81818182 L6.36363636,0 L4.54545455,0 L4.54545455,1.81818182 L3.45454545,1.81818182 C2.55090909,1.81818182 1.81818182,2.55090909 1.81818182,3.45454545 L1.81818182,4.54545455 L0,4.54545455 L0,6.36363636 L1.81818182,6.36363636 L1.81818182,9.09090909 L0,9.09090909 L0,10.9090909 L1.81818182,10.9090909 L1.81818182,13.6363636 L0,13.6363636 L0,15.4545455 L1.81818182,15.4545455 L1.81818182,16.5454545 C1.81818182,17.4490909 2.55090909,18.1818182 3.45454545,18.1818182 L4.54545455,18.1818182 L4.54545455,20 L6.36363636,20 L6.36363636,18.1818182 L9.09090909,18.1818182 L9.09090909,20 L10.9090909,20 L10.9090909,18.1818182 L13.6363636,18.1818182 L13.6363636,20 L15.4545455,20 L15.4545455,18.1818182 L16.5454545,18.1818182 C17.4490909,18.1818182 18.1818182,17.4490909 18.1818182,16.5454545 L18.1818182,15.4545455 L20,15.4545455 L20,13.6363636 L18.1818182,13.6363636 L18.1818182,10.9090909 L20,10.9090909 L20,9.09090909 L18.1818182,9.09090909 L18.1818182,6.36363636 L20,6.36363636 Z" id="Fill-1" fill="#333333"></path>
        <g id="icons-/-Error_Mark" transform="translate(0.000000, 12.000000)">
            <circle id="Oval" fill="#FFFFFF" fill-rule="nonzero" cx="4" cy="4" r="4"></circle>
            <path d="M4.00666043,0.66666822 C4.60923891,0.667230482 5.16978374,0.820408594 5.68831169,1.12620713 C6.1900347,1.42368891 6.5896311,1.82328531 6.88711289,2.32500833 C7.19347473,2.84449144 7.34665335,3.4050364 7.34665335,4.00666001 C7.34665335,4.60828362 7.19347473,5.16882857 6.88711289,5.68831169 C6.5896311,6.1900347 6.1900347,6.5896311 5.68831169,6.88711289 C5.16882857,7.19347473 4.60828362,7.34665335 4.00666001,7.34665335 C3.4050364,7.34665335 2.84449144,7.19347473 2.32500833,6.88711289 C1.82328531,6.5896311 1.42368891,6.1900347 1.12620713,5.68831169 C0.819845288,5.16882857 0.666666667,4.60828362 0.666666667,4.00666001 C0.666666667,3.4050364 0.819845288,2.84449144 1.12620713,2.32500833 C1.42368891,1.82328531 1.82328531,1.42368891 2.32500833,1.12620713 C2.84353627,0.820408594 3.4040811,0.667230482 4.00665958,0.66666822 L4.00666043,0.66666822 Z M4.00666043,0.66666822 C4.00555043,0.666667185 4.00444029,0.666666667 4.00333,0.666666667 L4.00999001,0.666666667 C4.00887973,0.666666667 4.00776958,0.666667185 4.00665958,0.66666822 L4.00666043,0.66666822 Z M4.34299034,5.67499167 L4.34299034,5.00899101 L3.67032967,5.00899101 L3.67032967,5.67499167 L4.34299034,5.67499167 Z M4.34299034,4.34299034 L4.34299034,2.33832834 L3.67032967,2.33832834 L3.67032967,4.34299034 L4.34299034,4.34299034 Z" id="" fill="#F83200"></path>
        </g>
    </g>
</svg>