<?xml version="1.0" encoding="UTF-8"?>
<svg width="20px" height="20px" viewBox="0 0 20 20" version="1.1" xmlns="http://www.w3.org/2000/svg" xmlns:xlink="http://www.w3.org/1999/xlink">
    <!-- Generator: Sketch 51.3 (57544) - http://www.bohemiancoding.com/sketch -->
    <title>icons / classes/ BMC_Unknown_32</title>
    <desc>Created with Sketch.</desc>
    <defs></defs>
    <g id="icons-/-classes/-BMC_Unknown_32" stroke="none" stroke-width="1" fill="none" fill-rule="evenodd">
        <g>
            <g id="icons-/-20x20-icon-field" fill="#F5A623" fill-rule="nonzero" opacity="0">
                <rect x="0" y="0" width="20" height="20"></rect>
            </g>
            <path d="M10.015985,2.00000373 C11.4621734,2.00135316 12.807481,2.36898063 14.0519481,3.1028971 C15.2560833,3.81685339 16.2151146,4.77588476 16.9290709,5.98001998 C17.6643393,7.22677946 18.031968,8.57208735 18.031968,10.015984 C18.031968,11.4598807 17.6643393,12.8051886 16.9290709,14.0519481 C16.2151146,15.2560833 15.2560833,16.2151146 14.0519481,16.9290709 C12.8051886,17.6643393 11.4598807,18.031968 10.015984,18.031968 C8.57208735,18.031968 7.22677946,17.6643393 5.98001998,16.9290709 C4.77588476,16.2151146 3.81685339,15.2560833 3.1028971,14.0519481 C2.36762869,12.8051886 2,11.4598807 2,10.015984 C2,8.57208735 2.36762869,7.22677946 3.1028971,5.98001998 C3.81685339,4.77588476 4.77588476,3.81685339 5.98001998,3.1028971 C7.22448705,2.36898063 8.56979465,2.00135316 10.015983,2.00000373 L10.015985,2.00000373 Z M10.015985,2.00000373 C10.013321,2.00000124 10.0106567,2 10.007992,2 L10.023976,2 C10.0213113,2 10.018647,2.00000124 10.015983,2.00000373 L10.015985,2.00000373 Z M10.7592408,13.972028 L10.7592408,12.4215784 L9.20879121,12.4215784 L9.20879121,13.972028 L10.7592408,13.972028 Z M12.3256743,9.46453546 C12.5387956,9.13419748 12.6719944,8.71861722 12.7252747,8.21778222 C12.7252747,7.84481998 12.6586753,7.52514286 12.5254745,7.25874126 C12.3922737,6.99233966 12.1898115,6.76057375 11.9180819,6.56343656 C11.6463523,6.36629938 11.3559789,6.22510865 11.046953,6.13986014 C10.7379272,6.05461163 10.3756265,6.01198801 9.96003996,6.01198801 C9.42723676,6.01198801 8.92640927,6.12920296 8.45754246,6.36363636 C8.1485166,6.55544551 7.90343081,6.84049095 7.72227772,7.21878122 C7.54112464,7.59707149 7.43989355,8.03129958 7.41858142,8.52147852 L8.85714286,8.52147852 C8.85714286,8.3509815 8.87845467,8.20712679 8.92107892,8.08991009 C8.94239105,8.01531764 8.99034262,7.90343065 9.06493506,7.75424575 L9.11288711,7.65834166 C9.32600839,7.39194006 9.60838985,7.25874126 9.96003996,7.25874126 C10.3543143,7.25874126 10.6366958,7.37329223 10.8071928,7.6023976 C10.9776898,7.83150298 11.0629371,8.06859684 11.0629371,8.31368631 C11.0629371,8.6120561 10.9990016,8.83050214 10.8711289,8.96903097 L10.8231768,9.03296703 C10.7379283,9.1608398 10.6526811,9.25674294 10.5674326,9.32067932 L10.1678322,9.60839161 C9.81618206,9.91741746 9.58175217,10.189143 9.46453546,10.4235764 C9.41125514,10.679322 9.36330358,11.0949022 9.32067932,11.6703297 L10.7112887,11.6703297 C10.7112887,11.4252402 10.7432564,11.222778 10.8071928,11.0629371 L10.8231768,11.014985 C10.844489,10.9297365 10.8924405,10.8338334 10.967033,10.7272727 C11.0416254,10.6207121 11.1268726,10.5354649 11.2227772,10.4715285 L11.5744256,10.1678322 C11.7982029,9.96536695 12.0486167,9.73093706 12.3256743,9.46453546 Z" id="" fill="#2B2826"></path>
            <g id="icons-/-Error_Mark" transform="translate(0.000000, 12.000000)" opacity="0">
                <circle id="Oval" fill="#FFFFFF" fill-rule="nonzero" cx="4" cy="4" r="4"></circle>
                <path d="M4.00666043,0.66666822 C4.60923891,0.667230482 5.16978374,0.820408594 5.68831169,1.12620713 C6.1900347,1.42368891 6.5896311,1.82328531 6.88711289,2.32500833 C7.19347473,2.84449144 7.34665335,3.4050364 7.34665335,4.00666001 C7.34665335,4.60828362 7.19347473,5.16882857 6.88711289,5.68831169 C6.5896311,6.1900347 6.1900347,6.5896311 5.68831169,6.88711289 C5.16882857,7.19347473 4.60828362,7.34665335 4.00666001,7.34665335 C3.4050364,7.34665335 2.84449144,7.19347473 2.32500833,6.88711289 C1.82328531,6.5896311 1.42368891,6.1900347 1.12620713,5.68831169 C0.819845288,5.16882857 0.666666667,4.60828362 0.666666667,4.00666001 C0.666666667,3.4050364 0.819845288,2.84449144 1.12620713,2.32500833 C1.42368891,1.82328531 1.82328531,1.42368891 2.32500833,1.12620713 C2.84353627,0.820408594 3.4040811,0.667230482 4.00665958,0.66666822 L4.00666043,0.66666822 Z M4.00666043,0.66666822 C4.00555043,0.666667185 4.00444029,0.666666667 4.00333,0.666666667 L4.00999001,0.666666667 C4.00887973,0.666666667 4.00776958,0.666667185 4.00665958,0.66666822 L4.00666043,0.66666822 Z M4.34299034,5.67499167 L4.34299034,5.00899101 L3.67032967,5.00899101 L3.67032967,5.67499167 L4.34299034,5.67499167 Z M4.34299034,4.34299034 L4.34299034,2.33832834 L3.67032967,2.33832834 L3.67032967,4.34299034 L4.34299034,4.34299034 Z" id="" fill="#F83200"></path>
            </g>
        </g>
    </g>
</svg>