<?xml version="1.0" encoding="UTF-8"?>
<svg width="20px" height="20px" viewBox="0 0 20 20" version="1.1" xmlns="http://www.w3.org/2000/svg" xmlns:xlink="http://www.w3.org/1999/xlink">
    <!-- Generator: Sketch 51.3 (57544) - http://www.bohemiancoding.com/sketch -->
    <title>icons / classes/ BMC_CloudInstance_32</title>
    <desc>Created with Sketch.</desc>
    <defs>
        <polygon id="path-1" points="0 0.000347826087 20 0.000347826087 20 20 0 20"></polygon>
    </defs>
    <g id="icons-/-classes/-BMC_CloudInstance_32" stroke="none" stroke-width="1" fill="none" fill-rule="evenodd">
        <g id="icons-/-classes/-Cloud-Instance" fill="#F5A623" fill-rule="nonzero" opacity="0">
            <g id="icons-/-20x20-icon-field">
                <rect x="0" y="0" width="20" height="20"></rect>
            </g>
        </g>
        <g id="Group-3">
            <mask id="mask-2" fill="white">
                <use xlink:href="#path-1"></use>
            </mask>
            <g id="Clip-2"></g>
            <path d="M19.1304348,16.2177391 C18.9391304,16.069913 18.7130435,15.956 18.4695652,15.896 C18.4695652,15.869913 18.4782609,15.8525217 18.4782609,15.8264348 C18.4782609,14.3829565 17.3391304,13.2177391 15.9391304,13.2177391 C15.2956522,13.2177391 14.7043478,13.4786087 14.2608696,13.8864348 C13.9043478,12.8873043 12.973913,12.1742609 11.8869565,12.1742609 C10.4869565,12.1742609 9.34782609,13.3386087 9.34782609,14.7829565 C9.34782609,15.1655652 9.43478261,15.5307826 9.57391304,15.8525217 C8.59130435,15.9907826 7.82608696,16.8603478 7.82608696,17.9125217 C7.82608696,18.3655652 7.96521739,18.782087 8.20869565,19.1307826 C8.57391304,19.6612174 9.17391304,20.0003478 9.85217391,20.0003478 L17.973913,20.0003478 C19.0956522,20.0003478 20,19.0690435 20,17.9125217 C20,17.2090435 19.6608696,16.5916522 19.1304348,16.2177391 M7.60869565,14.7829565 L7.60869565,14.8525217 C6.67826087,15.556 6.08695652,16.6777391 6.08695652,17.9125217 C6.08695652,18.3386087 6.15652174,18.7473043 6.27826087,19.1307826 L1.73913043,19.1307826 C0.782608696,19.1307826 0,18.3473043 0,17.3916522 L0,1.73947826 C0,0.782956522 0.782608696,0.000347826087 1.73913043,0.000347826087 L17.3913043,0.000347826087 C18.3478261,0.000347826087 19.1304348,0.782956522 19.1304348,1.73947826 L19.1304348,12.9307826 C18.3478261,12.0429565 17.2086957,11.4786087 15.9391304,11.4786087 C15.5565217,11.4786087 15.1826087,11.529913 14.8173913,11.6342609 C14.0434783,10.8777391 13,10.4351304 11.8869565,10.4351304 C9.53043478,10.4351304 7.60869565,12.3829565 7.60869565,14.7829565" id="Fill-1" fill="#333333" mask="url(#mask-2)"></path>
        </g>
        <g id="icons-/-Error_Mark" transform="translate(0.000000, 12.000000)" opacity="0">
            <circle id="Oval" fill="#FFFFFF" fill-rule="nonzero" cx="4" cy="4" r="4"></circle>
            <path d="M4.00666043,0.66666822 C4.60923891,0.667230482 5.16978374,0.820408594 5.68831169,1.12620713 C6.1900347,1.42368891 6.5896311,1.82328531 6.88711289,2.32500833 C7.19347473,2.84449144 7.34665335,3.4050364 7.34665335,4.00666001 C7.34665335,4.60828362 7.19347473,5.16882857 6.88711289,5.68831169 C6.5896311,6.1900347 6.1900347,6.5896311 5.68831169,6.88711289 C5.16882857,7.19347473 4.60828362,7.34665335 4.00666001,7.34665335 C3.4050364,7.34665335 2.84449144,7.19347473 2.32500833,6.88711289 C1.82328531,6.5896311 1.42368891,6.1900347 1.12620713,5.68831169 C0.819845288,5.16882857 0.666666667,4.60828362 0.666666667,4.00666001 C0.666666667,3.4050364 0.819845288,2.84449144 1.12620713,2.32500833 C1.42368891,1.82328531 1.82328531,1.42368891 2.32500833,1.12620713 C2.84353627,0.820408594 3.4040811,0.667230482 4.00665958,0.66666822 L4.00666043,0.66666822 Z M4.00666043,0.66666822 C4.00555043,0.666667185 4.00444029,0.666666667 4.00333,0.666666667 L4.00999001,0.666666667 C4.00887973,0.666666667 4.00776958,0.666667185 4.00665958,0.66666822 L4.00666043,0.66666822 Z M4.34299034,5.67499167 L4.34299034,5.00899101 L3.67032967,5.00899101 L3.67032967,5.67499167 L4.34299034,5.67499167 Z M4.34299034,4.34299034 L4.34299034,2.33832834 L3.67032967,2.33832834 L3.67032967,4.34299034 L4.34299034,4.34299034 Z" id="" fill="#F83200"></path>
        </g>
    </g>
</svg>