<?xml version="1.0" encoding="UTF-8"?>
<svg width="20px" height="20px" viewBox="0 0 20 20" version="1.1" xmlns="http://www.w3.org/2000/svg" xmlns:xlink="http://www.w3.org/1999/xlink">
    <!-- Generator: Sketch 51.3 (57544) - http://www.bohemiancoding.com/sketch -->
    <title>icons / classes/ BMC_LocalFileSystem_32_Error</title>
    <desc>Created with Sketch.</desc>
    <defs></defs>
    <g id="icons-/-classes/-BMC_LocalFileSystem_32" stroke="none" stroke-width="1" fill="none" fill-rule="evenodd">
        <g id="icons-/-classes/-Local-File-System">
            <g id="icons-/-20x20-icon-field" fill="#F5A623" fill-rule="nonzero" opacity="0">
                <rect x="0" y="0" width="20" height="20"></rect>
            </g>
            <path d="M13.5334665,17.3846154 C13.5454546,17.3966035 13.5634364,17.4205792 13.5874126,17.4565435 L13.7312687,17.6723277 L13.9290709,17.9060939 L14.1988012,18.2837163 L14.4685315,18.6253746 C14.396603,18.6613388 14.3246757,18.6853146 14.2527473,18.6973027 L14.000999,18.7152847 L2.52847153,18.7152847 C2.31268623,18.7152847 2.11188904,18.6763241 1.92607393,18.5984016 C1.74025881,18.5204791 1.58141924,18.4035972 1.44955045,18.2477522 C1.29370551,18.0799192 1.17982054,17.9090918 1.10789211,17.7352647 C1.03596368,17.5614377 1,17.3726284 1,17.1688312 L1,2.20779221 C1,1.99200691 1.03596368,1.79720367 1.10789211,1.62337662 C1.17982054,1.44954958 1.29070854,1.28471606 1.44055944,1.12887113 C1.59041034,0.973026194 1.75224688,0.859141219 1.92607393,0.787212787 C2.09990097,0.715284356 2.30069816,0.679320679 2.52847153,0.679320679 L10.5664336,0.679320679 C10.6863143,0.679320679 10.8001993,0.691308571 10.9080919,0.715284715 C11.0159846,0.739260859 11.1178816,0.766233616 11.2137862,0.796203796 C11.3096908,0.826173976 11.393606,0.871128571 11.4655345,0.931068931 L11.5374625,0.985014985 C11.621379,1.05694342 11.6873124,1.11088893 11.7352647,1.14685315 L15.0619381,4.47352647 C15.1338665,4.55744298 15.2027969,4.65034914 15.2687313,4.75224775 C15.3346657,4.85414636 15.3856142,4.95304647 15.4215784,5.04895105 C15.4695307,5.16883177 15.4995004,5.2767228 15.5114885,5.37262737 C15.5354647,5.50449616 15.5474525,5.6003993 15.5474525,5.66033966 L15.5474525,7.44055944 L15.3856144,7.44055944 C15.1698291,7.44055944 14.9840168,7.45254733 14.8281718,7.47652348 C14.6243746,7.50049962 14.4445562,7.53046935 14.2887113,7.56643357 L14.2887113,6.16383616 L10.7642358,6.16383616 C10.6563431,6.16383616 10.563437,6.14585433 10.4855145,6.10989011 C10.407592,6.07392589 10.3356647,6.01998038 10.2697303,5.94805195 C10.2037959,5.87612352 10.1528473,5.79820222 10.1168831,5.71428571 C10.0809189,5.63036921 10.0629371,5.54645397 10.0629371,5.46253746 L10.0629371,1.97402597 L2.52847153,1.97402597 C2.49250731,1.97402597 2.46253758,1.98001992 2.43856144,1.99200799 L2.36663337,2.02797203 C2.34265722,2.05194817 2.32467538,2.07592396 2.31268731,2.0999001 L2.31268731,17.1868132 L2.33066933,17.2587413 C2.33066933,17.2827174 2.34265722,17.3066932 2.36663337,17.3306693 L2.38461538,17.3486513 L2.45654346,17.3846154 C2.4805196,17.3966035 2.50449538,17.4025974 2.52847153,17.4025974 L13.5334665,17.4025974 L13.5334665,17.3846154 Z M11.1598402,9.22077922 C11.1478521,9.23276729 11.1418581,9.25074913 11.1418581,9.27472527 L11.1418581,9.45454545 L11.1598402,9.49050949 L11.3756244,9.97602398 C11.2677317,10.2037973 11.1838165,10.461537 11.1238761,10.7492507 C11.0639358,11.0129883 11.033966,11.2827159 11.033966,11.5584416 C11.033966,11.8941076 11.0549448,12.2567413 11.0969031,12.6463536 C11.1388613,13.035966 11.2017978,13.3386603 11.2857143,13.5544456 L11.3756244,13.7342657 L11.5014985,14.021978 L10.998002,14.5254745 C10.9860139,14.5374626 10.9680321,14.5434565 10.9440559,14.5434565 L10.9080919,14.5614386 L10.8541459,14.5794206 L10.7822178,14.5434565 L10.7282717,14.5254745 L10.6743257,14.4895105 L10.2067932,13.968032 L10.1528472,13.968032 L10.0989011,13.9320679 L10.0629371,13.9140859 C10.0389609,13.9020978 10.0149851,13.8961039 9.99100899,13.8961039 L9.81118881,13.9140859 L9.21778222,14.1838162 L9.12787213,14.2377622 C9.11588406,14.2377622 9.10389616,14.2437562 9.09190809,14.2557443 L9.01998002,14.3276723 C9.00799195,14.3396604 9.001998,14.3636362 9.001998,14.3996004 L8.98401598,14.4895105 L8.98401598,15.2987013 L8.94805195,15.3706294 L8.91208791,15.4065934 C8.90009984,15.4185815 8.882118,15.4245754 8.85814186,15.4245754 L8.76823177,15.4425574 L7.77922078,15.4425574 L7.67132867,15.4245754 L7.63536464,15.3886114 L7.54545455,15.2087912 L7.54545455,14.4355644 L7.52747253,14.3456543 L7.45554446,14.2557443 L7.41958042,14.2377622 L7.32967033,14.1658342 L6.73626374,13.9140859 L6.7002997,13.8961039 L6.57442557,13.8961039 C6.53846136,13.8961039 6.51448557,13.9020978 6.5024975,13.9140859 L6.46653347,13.9140859 L6.41258741,13.95005 C6.40059934,13.962038 6.38861145,13.968032 6.37662338,13.968032 L5.85514486,14.5074925 L5.81918082,14.5254745 C5.81918082,14.5374626 5.80719293,14.5434565 5.78321678,14.5434565 L5.74725275,14.5614386 L5.69330669,14.5794206 C5.66933055,14.5794206 5.65134871,14.5734266 5.63936064,14.5614386 L5.58541459,14.5434565 L5.56743257,14.5254745 L4.81218781,13.7882118 C4.80019974,13.7762237 4.79420579,13.7642358 4.79420579,13.7522478 L4.77622378,13.6083916 L4.77622378,13.5184815 C4.78821185,13.5184815 4.79420579,13.5064936 4.79420579,13.4825175 L4.81218781,13.4285714 L5.31568432,12.9430569 C5.33966046,12.9430569 5.3576423,12.94006 5.36963037,12.9340659 C5.38161844,12.9280719 5.38761239,12.9070931 5.38761239,12.8711289 L5.40559441,12.7632368 L5.40559441,12.6193806 L5.36963037,12.5834166 L5.11788212,11.972028 L5.11788212,11.9360639 L5.08191808,11.8821179 C5.08191808,11.8701298 5.07292716,11.8581419 5.05494505,11.8461538 C5.03696295,11.8341658 5.02197808,11.8281718 5.00999001,11.8281718 L4.95604396,11.7922078 C4.94405588,11.7802197 4.93206799,11.7742258 4.92007992,11.7742258 L4.86613387,11.7382617 L4.05694306,11.7382617 L3.96703297,11.6843157 C3.9550449,11.6843157 3.94605398,11.6753248 3.94005994,11.6573427 C3.9340659,11.6393605 3.92507499,11.6243757 3.91308691,11.6123876 C3.90109884,11.5884115 3.8951049,11.5704296 3.8951049,11.5584416 L3.8951049,10.4435564 L3.93106893,10.3896104 L3.96703297,10.3896104 L4.05694306,10.3176823 L4.86613387,10.2997003 L4.95604396,10.2997003 L5.0999001,10.1738262 L5.15384615,10.1198801 L5.15384615,10.047952 L5.40559441,9.49050949 L5.44155844,9.43656344 L5.44155844,9.29270729 L5.40559441,9.16683317 C5.40559441,9.15484509 5.39360651,9.13686326 5.36963037,9.11288711 L4.84815185,8.60939061 C4.83616378,8.59740254 4.83016983,8.58541465 4.83016983,8.57342657 L4.81218781,8.42957043 L4.81218781,8.33966034 C4.82417588,8.33966034 4.83016983,8.32767245 4.83016983,8.3036963 L4.84815185,8.24975025 L5.56743257,7.56643357 C5.56743257,7.57842164 5.57342651,7.57242769 5.58541459,7.54845155 C5.58541459,7.53646348 5.59140853,7.53046953 5.6033966,7.53046953 L5.74725275,7.53046953 L5.83716284,7.58441558 L5.89110889,7.6023976 L6.37662338,8.12387612 C6.38861145,8.1358642 6.40059934,8.14185814 6.41258741,8.14185814 L6.46653347,8.17782218 L6.71828172,8.17782218 L7.32967033,7.94405594 C7.3416584,7.9200798 7.35364629,7.90809191 7.36563437,7.90809191 L7.41958042,7.89010989 L7.50949051,7.81818182 L7.54545455,7.71028971 L7.54545455,6.91908092 C7.54545455,6.89510478 7.55144849,6.87712294 7.56343656,6.86513487 L7.58141858,6.81118881 C7.58141858,6.79920074 7.58741253,6.7812189 7.5994006,6.75724276 L7.61738262,6.72127872 L7.65334665,6.72127872 L7.68931069,6.68531469 L8.87612388,6.68531469 L8.91208791,6.72127872 L8.96603397,6.72127872 C8.96603397,6.74525487 8.97202791,6.76923065 8.98401598,6.79320679 L9.01998002,6.86513487 L9.03796204,6.91908092 L9.03796204,7.71028971 L9.09190809,7.81818182 L9.16383616,7.89010989 L9.21778222,7.90809191 L9.82917083,8.17782218 C9.8411589,8.18981025 9.85914074,8.1958042 9.88311688,8.1958042 L10.0629371,8.1958042 L10.0989011,8.17782218 L10.1708292,8.12387612 L10.7282717,7.54845155 C10.7402598,7.53646348 10.7582416,7.53046953 10.7822178,7.53046953 L10.9080919,7.53046953 L10.962038,7.56643357 L11.7352647,8.3036963 L11.7712288,8.33966034 L11.7712288,8.39360639 C11.7832168,8.40559447 11.7892108,8.41758236 11.7892108,8.42957043 L11.7892108,8.53746254 L11.7712288,8.60939061 L11.7352647,8.66333666 L11.1958042,9.2027972 L11.1598402,9.22077922 Z M10.0989011,11.5404595 C10.0989011,11.5044953 10.104895,11.4565438 10.1168831,11.3966034 L10.1348651,11.1808192 L10.1168831,10.983017 C10.104895,10.9110886 10.0989011,10.8511491 10.0989011,10.8031968 L10.044955,10.6053946 C10.032967,10.5694304 10.0029972,10.5154849 9.95504496,10.4435564 C9.94305688,10.4075922 9.9190811,10.3536467 9.88311688,10.2817183 C9.8351646,10.2097899 9.79920092,10.1618383 9.77522478,10.1378621 L9.5954046,9.86813187 L9.45154845,9.74225774 C9.39160809,9.68231738 9.34365652,9.64335673 9.30769231,9.62537463 C9.27172809,9.60739252 9.22377652,9.58041976 9.16383616,9.54445554 L9.05594406,9.49050949 L8.8041958,9.38261738 C8.75624352,9.35864124 8.70829195,9.34365637 8.66033966,9.33766234 C8.61238737,9.3316683 8.54046002,9.32867133 8.44455544,9.32867133 L8.08491508,9.32867133 C8.0369628,9.32867133 7.98002031,9.3316683 7.91408591,9.33766234 C7.84815152,9.34365637 7.78521508,9.35864124 7.72527473,9.38261738 L7.56343656,9.45454545 L7.4015984,9.54445554 C7.32966997,9.58041976 7.2817184,9.61038949 7.25774226,9.63436563 C7.18581383,9.67032985 7.12587437,9.7092905 7.07792208,9.75124875 C7.02996979,9.793207 6.99400611,9.83216765 6.97002997,9.86813187 L6.97002997,9.88611389 C6.91008961,9.93406617 6.86813199,9.97002985 6.84415584,9.99400599 L6.82617383,10.02997 L6.74525475,10.1378621 C6.72727264,10.1618383 6.70029988,10.2097899 6.66433566,10.2817183 L6.57442557,10.4615385 L6.52047952,10.6233766 L6.46653347,10.8031968 L6.43056943,11.1808192 C6.43056943,11.2407595 6.43656338,11.3066929 6.44855145,11.3786214 L6.46653347,11.5584416 C6.49050961,11.6063938 6.50849145,11.6573424 6.52047952,11.7112887 C6.53246759,11.765235 6.55044943,11.8221775 6.57442557,11.8821179 L6.68231768,12.0979021 C6.7182819,12.1458544 6.74225768,12.1818181 6.75424575,12.2057942 L6.97002997,12.4755245 L7.25774226,12.6913087 L7.4015984,12.7812188 L7.72527473,12.9250749 L8.04895105,12.997003 L8.44455544,12.997003 C8.52847195,12.9850149 8.59440535,12.973027 8.64235764,12.961039 L8.8041958,12.9250749 C8.87612424,12.9010988 8.9360637,12.877123 8.98401598,12.8531469 L9.14585415,12.7812188 C9.20579451,12.7572426 9.25974002,12.7272729 9.30769231,12.6913087 L9.5954046,12.4755245 L9.68531469,12.3316683 C9.73326697,12.271728 9.76923065,12.2297703 9.79320679,12.2057942 L9.95504496,11.8821179 C9.9790211,11.8461537 10.0029969,11.7982021 10.026973,11.7382617 L10.0989011,11.5404595 Z M11.3936064,4.83316683 L13.4615385,4.83316683 L11.3936064,2.69330669 L11.3936064,4.83316683 Z M18.7302697,10.4075924 C18.8261743,10.6353658 18.8921077,10.8571418 18.9280719,11.0729271 C18.9760242,11.3246766 19,11.5644344 19,11.7922078 C19,12.1038977 18.9730272,12.403595 18.9190809,12.6913087 C18.8651346,12.9790224 18.7752254,13.2757227 18.6493506,13.5814186 C18.5234759,13.8871144 18.3916091,14.1748238 18.2537463,14.4445554 C18.1158834,14.7142871 17.9510499,14.9989995 17.7592408,15.2987013 C17.5914078,15.5624389 17.3996015,15.8441543 17.1838162,16.1438561 L16.5724276,16.971029 C16.3926065,17.2227785 16.1888123,17.5104879 15.961039,17.8341658 C15.7572417,18.1218796 15.5654355,18.409589 15.3856144,18.6973027 L14.8101898,17.8341658 C14.7022972,17.6783209 14.5404606,17.4505509 14.3246753,17.1508492 L14.1808192,16.971029 C13.9650339,16.6833152 13.7612397,16.3956058 13.5694306,16.1078921 C13.4015976,15.8681307 13.2157852,15.5804213 13.011988,15.2447552 C12.8561431,14.9810177 12.6973035,14.6873143 12.5354645,14.3636364 C12.3736256,14.0399584 12.2387618,13.749252 12.1308691,13.4915085 C12.0229765,13.2337649 11.9360643,12.9580434 11.8701299,12.6643357 C11.8041955,12.3706279 11.7712288,12.0799215 11.7712288,11.7922078 C11.7712288,11.5404583 11.7952046,11.3036974 11.8431568,11.0819181 C11.8911091,10.8601388 11.9600395,10.6353658 12.04995,10.4075924 C12.1398606,10.179819 12.2567425,9.96703396 12.4005994,9.76923077 C12.5444563,9.57142758 12.6943049,9.3916092 12.8501499,9.22977023 C13.0059948,9.06793126 13.1798192,8.92707353 13.3716284,8.80719281 C13.5634375,8.68731209 13.7672317,8.57342711 13.983017,8.46553447 C14.2347665,8.36962989 14.4625364,8.29770254 14.6663337,8.24975025 C14.894107,8.21378603 15.1338649,8.1958042 15.3856144,8.1958042 C15.6373639,8.1958042 15.8741248,8.21678301 16.0959041,8.25874126 C16.3176834,8.30069951 16.5454534,8.36962989 16.7792208,8.46553447 C17.0129882,8.56143904 17.2257733,8.67832099 17.4175824,8.81618382 C17.6093916,8.95404664 17.7772221,9.09490438 17.9210789,9.23876124 C18.0529477,9.3826181 18.2027964,9.56843043 18.3706294,9.7962038 C18.5024982,9.97602488 18.6223771,10.179819 18.7302697,10.4075924 Z M16.6083916,12.3316683 C16.668332,12.1878115 16.6983017,12.022978 16.6983017,11.8371628 C16.6983017,11.6513477 16.665335,11.4775233 16.5994006,11.3156843 C16.5334662,11.1538453 16.44056,11.0129876 16.3206793,10.8931069 C16.1768225,10.7612381 16.0299708,10.665335 15.8801199,10.6053946 C15.730269,10.5454542 15.5624385,10.5154845 15.3766234,10.5154845 C15.1908083,10.5154845 15.0199808,10.5484512 14.8641359,10.6143856 C14.7082909,10.68032 14.5674332,10.7792201 14.4415584,10.9110889 C14.3156837,11.0429577 14.2197805,11.1838154 14.1538462,11.3336663 C14.0879118,11.4835172 14.0549451,11.6513477 14.0549451,11.8371628 C14.0549451,12.022978 14.0909087,12.1938054 14.1628372,12.3496503 C14.2347656,12.5054953 14.3306687,12.643356 14.4505495,12.7632368 C14.5944063,12.8951056 14.741258,12.9940057 14.8911089,13.0599401 C15.0409598,13.1258745 15.2087903,13.1588412 15.3946054,13.1588412 C15.5804205,13.1588412 15.751248,13.1228775 15.9070929,13.0509491 C16.0629378,12.9790206 16.2007986,12.8831175 16.3206793,12.7632368 C16.4525481,12.6193799 16.5484512,12.4755252 16.6083916,12.3316683 Z" id="" fill="#333333"></path>
        </g>
        <g id="icons-/-Error_Mark" transform="translate(0.000000, 12.000000)">
            <circle id="Oval" fill="#FFFFFF" fill-rule="nonzero" cx="4" cy="4" r="4"></circle>
            <path d="M4.00666043,0.66666822 C4.60923891,0.667230482 5.16978374,0.820408594 5.68831169,1.12620713 C6.1900347,1.42368891 6.5896311,1.82328531 6.88711289,2.32500833 C7.19347473,2.84449144 7.34665335,3.4050364 7.34665335,4.00666001 C7.34665335,4.60828362 7.19347473,5.16882857 6.88711289,5.68831169 C6.5896311,6.1900347 6.1900347,6.5896311 5.68831169,6.88711289 C5.16882857,7.19347473 4.60828362,7.34665335 4.00666001,7.34665335 C3.4050364,7.34665335 2.84449144,7.19347473 2.32500833,6.88711289 C1.82328531,6.5896311 1.42368891,6.1900347 1.12620713,5.68831169 C0.819845288,5.16882857 0.666666667,4.60828362 0.666666667,4.00666001 C0.666666667,3.4050364 0.819845288,2.84449144 1.12620713,2.32500833 C1.42368891,1.82328531 1.82328531,1.42368891 2.32500833,1.12620713 C2.84353627,0.820408594 3.4040811,0.667230482 4.00665958,0.66666822 L4.00666043,0.66666822 Z M4.00666043,0.66666822 C4.00555043,0.666667185 4.00444029,0.666666667 4.00333,0.666666667 L4.00999001,0.666666667 C4.00887973,0.666666667 4.00776958,0.666667185 4.00665958,0.66666822 L4.00666043,0.66666822 Z M4.34299034,5.67499167 L4.34299034,5.00899101 L3.67032967,5.00899101 L3.67032967,5.67499167 L4.34299034,5.67499167 Z M4.34299034,4.34299034 L4.34299034,2.33832834 L3.67032967,2.33832834 L3.67032967,4.34299034 L4.34299034,4.34299034 Z" id="" fill="#F83200"></path>
        </g>
    </g>
</svg>