<?xml version="1.0" encoding="UTF-8"?>
<svg width="20px" height="20px" viewBox="0 0 20 20" version="1.1" xmlns="http://www.w3.org/2000/svg" xmlns:xlink="http://www.w3.org/1999/xlink">
    <!-- Generator: Sketch 51.3 (57544) - http://www.bohemiancoding.com/sketch -->
    <title>icons / classes/ BMC_Cluster_32_Error</title>
    <desc>Created with Sketch.</desc>
    <defs></defs>
    <g id="icons-/-classes/-BMC_Cluster_32" stroke="none" stroke-width="1" fill="none" fill-rule="evenodd">
        <g id="icons-/-classes/-Cluster" fill="#F5A623" fill-rule="nonzero" opacity="0">
            <g id="icons-/-20x20-icon-field">
                <rect x="0" y="0" width="20" height="20"></rect>
            </g>
        </g>
        <path d="M10.8333333,17.5 L13.3333333,17.5 L13.3333333,15 L10.8333333,15 L10.8333333,17.5 Z M15.8333333,17.5 L18.3333333,17.5 L18.3333333,15 L15.8333333,15 L15.8333333,17.5 Z M10.8333333,5 L13.3333333,5 L13.3333333,2.5 L10.8333333,2.5 L10.8333333,5 Z M15.8333333,5 L18.3333333,5 L18.3333333,2.5 L15.8333333,2.5 L15.8333333,5 Z M18.3333333,7.5 C19.25,7.5 20,6.75 20,5.83333333 L20,1.66666667 C20,0.75 19.25,0 18.3333333,0 L1.66666667,0 C0.75,0 0,0.75 0,1.66666667 L0,5.83333333 C0,6.75 0.75,7.5 1.66666667,7.5 L9.16666667,7.5 L9.16666667,12.5 L1.66666667,12.5 C0.75,12.5 0,13.25 0,14.1666667 L0,18.3333333 C0,19.25 0.75,20 1.66666667,20 L18.3333333,20 C19.25,20 20,19.25 20,18.3333333 L20,14.1666667 C20,13.25 19.25,12.5 18.3333333,12.5 L10.8333333,12.5 L10.8333333,7.5 L18.3333333,7.5 Z" id="Fill-1" fill="#333333"></path>
        <g id="icons-/-Error_Mark" transform="translate(0.000000, 12.000000)">
            <circle id="Oval" fill="#FFFFFF" fill-rule="nonzero" cx="4" cy="4" r="4"></circle>
            <path d="M4.00666043,0.66666822 C4.60923891,0.667230482 5.16978374,0.820408594 5.68831169,1.12620713 C6.1900347,1.42368891 6.5896311,1.82328531 6.88711289,2.32500833 C7.19347473,2.84449144 7.34665335,3.4050364 7.34665335,4.00666001 C7.34665335,4.60828362 7.19347473,5.16882857 6.88711289,5.68831169 C6.5896311,6.1900347 6.1900347,6.5896311 5.68831169,6.88711289 C5.16882857,7.19347473 4.60828362,7.34665335 4.00666001,7.34665335 C3.4050364,7.34665335 2.84449144,7.19347473 2.32500833,6.88711289 C1.82328531,6.5896311 1.42368891,6.1900347 1.12620713,5.68831169 C0.819845288,5.16882857 0.666666667,4.60828362 0.666666667,4.00666001 C0.666666667,3.4050364 0.819845288,2.84449144 1.12620713,2.32500833 C1.42368891,1.82328531 1.82328531,1.42368891 2.32500833,1.12620713 C2.84353627,0.820408594 3.4040811,0.667230482 4.00665958,0.66666822 L4.00666043,0.66666822 Z M4.00666043,0.66666822 C4.00555043,0.666667185 4.00444029,0.666666667 4.00333,0.666666667 L4.00999001,0.666666667 C4.00887973,0.666666667 4.00776958,0.666667185 4.00665958,0.66666822 L4.00666043,0.66666822 Z M4.34299034,5.67499167 L4.34299034,5.00899101 L3.67032967,5.00899101 L3.67032967,5.67499167 L4.34299034,5.67499167 Z M4.34299034,4.34299034 L4.34299034,2.33832834 L3.67032967,2.33832834 L3.67032967,4.34299034 L4.34299034,4.34299034 Z" id="" fill="#F83200"></path>
        </g>
    </g>
</svg>