<?xml version="1.0" encoding="UTF-8"?>
<svg width="20px" height="20px" viewBox="0 0 20 20" version="1.1" xmlns="http://www.w3.org/2000/svg" xmlns:xlink="http://www.w3.org/1999/xlink">
    <!-- Generator: Sketch 51.3 (57544) - http://www.bohemiancoding.com/sketch -->
    <title>icons / classes/ BMC_LogicalEntity_32</title>
    <desc>Created with Sketch.</desc>
    <defs></defs>
    <g id="icons-/-classes/-BMC_LogicalEntity_32" stroke="none" stroke-width="1" fill="none" fill-rule="evenodd">
        <g id="icons-/-classes/-Logical-Entity">
            <g id="icons-/-20x20-icon-field" fill="#F5A623" fill-rule="nonzero" opacity="0">
                <rect x="0" y="0" width="20" height="20"></rect>
            </g>
            <path d="M6.98801199,15.2627373 L7.76123876,15.2627373 C7.68931033,15.7422601 7.6923073,16.2127849 7.77022977,16.6743257 C7.84815224,17.1358664 7.98301602,17.522476 8.17482517,17.8341658 L0.982017982,17.8341658 L0.982017982,2.40559441 C0.982017982,2.1538449 1.0239756,1.92607495 1.10789211,1.72227772 C1.19180861,1.5184805 1.31768148,1.33266817 1.48551449,1.16483516 C1.65334749,0.997002158 1.83915982,0.874126264 2.04295704,0.796203796 C2.24675427,0.718281329 2.46853027,0.679320679 2.70829171,0.679320679 L9.57742258,0.679320679 C9.81718402,0.679320679 10.035963,0.721278302 10.2337662,0.805194805 C10.4315694,0.889111309 10.6173817,1.01498418 10.7912088,1.18281718 C10.9650358,1.35065019 11.0909087,1.53346554 11.1688312,1.73126873 C11.2467536,1.92907192 11.2857143,2.1538449 11.2857143,2.40559441 L11.2857143,7.53046953 L14.9000999,7.53046953 C14.8041953,7.57842182 14.6843164,7.65034917 14.5404595,7.74625375 C14.4205788,7.84215832 14.3186817,7.93206751 14.2347652,8.01598402 L12.1488511,10.0839161 L11.2857143,10.0839161 L11.2857143,10.9470529 L8.71428571,13.5004995 L6.98801199,13.5004995 L6.98801199,15.2627373 Z M5.27972028,3.25074925 L3.55344655,3.25074925 L3.55344655,4.97702298 L5.27972028,4.97702298 L5.27972028,3.25074925 Z M5.27972028,6.66733267 L3.55344655,6.66733267 L3.55344655,8.39360639 L5.27972028,8.39360639 L5.27972028,6.66733267 Z M5.27972028,10.0839161 L3.55344655,10.0839161 L3.55344655,11.8281718 L5.27972028,11.8281718 L5.27972028,10.0839161 Z M5.27972028,13.5184815 L3.55344655,13.5184815 L3.55344655,15.2627373 L5.27972028,15.2627373 L5.27972028,13.5184815 Z M6.98801199,4.97702298 L8.71428571,4.97702298 L8.71428571,3.25074925 L6.98801199,3.25074925 L6.98801199,4.97702298 Z M6.98801199,8.39360639 L8.71428571,8.39360639 L8.71428571,6.66733267 L6.98801199,6.66733267 L6.98801199,8.39360639 Z M6.98801199,11.8281718 L8.71428571,11.8281718 L8.71428571,10.0839161 L6.98801199,10.0839161 L6.98801199,11.8281718 Z M17.6873127,15.9100899 C17.6393604,15.9700303 17.6033967,16.0059939 17.5794206,16.017982 L17.4715285,16.0539461 C17.0879102,16.1378626 16.8931069,16.0269746 16.8871129,15.7212787 C16.8811189,15.4155829 16.7642369,15.1128886 16.5364635,14.8131868 C16.4885112,14.7532465 16.3956051,14.6993009 16.2577423,14.6513487 C16.1198794,14.6033964 16.0209793,14.5854145 15.961039,14.5974026 C15.8171821,14.6093907 15.6883123,14.6453543 15.5744256,14.7052947 C15.4605389,14.7652351 15.3616388,14.8491503 15.2777223,14.957043 C15.1338654,15.1728283 15.0859138,15.3886103 15.1338661,15.6043956 C15.1818184,15.8201809 15.3196792,16.0089902 15.5474525,16.1708292 C15.7752259,16.3326681 15.9730261,16.4405592 16.1408591,16.4945055 C16.3086921,16.5484518 16.3926074,16.6593398 16.3926074,16.8271728 C16.3926074,17.1388627 16.212789,17.4715267 15.8531469,17.8251748 C15.4935047,18.1788229 15.2057953,18.4155838 14.99001,18.5354645 C14.9180816,18.5714288 14.867133,18.5864136 14.8371628,18.5804196 C14.8071927,18.5744255 14.768232,18.5414588 14.7202797,18.4815185 L14.000999,17.6003996 C13.7132853,17.2647336 13.5394608,17.0789213 13.4795205,17.042957 C13.3476517,16.9590405 13.1798212,16.9470526 12.976024,17.006993 C12.7722268,17.0669334 12.6163842,17.1868123 12.5084915,17.3666334 C12.424575,17.5104902 12.3676325,17.6933056 12.3376623,17.9150849 C12.3076922,18.1368642 12.2567436,18.3136857 12.1848152,18.4455544 C12.1368629,18.5054948 12.0829174,18.5564433 12.022977,18.5984016 C11.9630367,18.6403599 11.8971033,18.6673326 11.8251748,18.6793207 C11.6213776,18.7152849 11.4295713,18.6883121 11.2497502,18.5984016 C11.0699292,18.5084911 10.9200805,18.3676333 10.8001998,18.1758242 C10.6563429,17.972027 10.6353641,17.7322691 10.7372627,17.4565435 C10.8391613,17.1808178 11.0399585,17.0069934 11.3396603,16.9350649 C11.4115888,16.9230769 11.492507,16.9200799 11.5824176,16.9260739 C11.6723281,16.932068 11.7472524,16.923077 11.8071928,16.8991009 C11.9630377,16.8511486 12.0589409,16.7702303 12.0949051,16.6563437 C12.1308693,16.542457 12.1368633,16.4195811 12.1128871,16.2877123 C12.0529468,15.8801178 11.8431586,15.5084932 11.4835165,15.1728272 C11.0998982,14.8251731 10.7222796,14.5134879 10.3506494,14.2377622 C10.3026971,14.201798 10.2727273,14.1718283 10.2607393,14.1478521 C10.2487512,14.123876 10.2607391,14.0699305 10.2967033,13.986014 C10.416584,13.7822168 10.7132843,13.4615406 11.1868132,13.023976 C11.660342,12.5864114 11.9750242,12.3436566 12.1308691,12.2957043 C12.4185829,12.2117878 12.5804194,12.3526455 12.6163836,12.7182817 C12.6523478,13.0839179 12.7362631,13.3686303 12.8681319,13.5724276 C12.9040961,13.644356 12.9640355,13.7072924 13.047952,13.7612388 C13.1318686,13.8151851 13.2097899,13.8601397 13.2817183,13.8961039 C13.5814201,14.0039965 13.8601386,13.9680329 14.1178821,13.7882118 C14.3756257,13.6083907 14.4925076,13.356645 14.4685315,13.032967 C14.4565434,12.8291698 14.393607,12.6343666 14.2797203,12.4485514 C14.1658336,12.2627363 14.012988,12.1518483 13.8211788,12.1158841 C13.7492504,12.103896 13.6623382,12.106893 13.5604396,12.1248751 C13.4585409,12.1428572 13.3776227,12.1368633 13.3176823,12.1068931 C13.257742,12.0769229 13.2097904,12.0439562 13.1738262,12.007992 C13.137862,11.9720278 13.1078922,11.9300702 13.0839161,11.8821179 C13.0359638,11.8101895 12.9970031,11.7322682 12.967033,11.6483516 C12.9370628,11.5644351 12.9460537,11.4805199 12.994006,11.3966034 L14.4685315,9.88611389 C14.5284718,9.82617353 14.5704295,9.7962038 14.5944056,9.7962038 C14.6183817,9.7962038 14.6483515,9.82017958 14.6843157,9.86813187 L16.4105894,11.4685315 C16.4825178,11.5404599 16.5304694,11.5794205 16.5544456,11.5854146 C16.5784217,11.5914086 16.6023975,11.5944056 16.6263736,11.5944056 C16.9140874,11.6303698 17.06993,11.5224788 17.0939061,11.2707293 L17.1838162,10.6413586 C17.2317685,10.4735256 17.288711,10.3596407 17.3546454,10.2997003 C17.4205798,10.2397599 17.5194799,10.1798205 17.6513487,10.1198801 C17.8431578,10.0479517 18.0079913,10.011988 18.1458541,10.011988 C18.283717,10.011988 18.4545444,10.0959033 18.6583417,10.2637363 C18.8261747,10.3956051 18.9310687,10.5844144 18.973027,10.8301698 C19.0149852,11.0759253 18.9700306,11.2887104 18.8381618,11.4685315 C18.706293,11.6483525 18.5684323,11.7442557 18.4245754,11.7562438 C18.3406589,11.7682318 18.1608405,11.7742258 17.8851149,11.7742258 C17.741258,11.7982019 17.6243761,11.8281716 17.5344655,11.8641359 C17.444555,11.9001001 17.3816186,11.9600395 17.3456543,12.043956 C17.1658333,12.3916101 17.303694,12.7991985 17.7592408,13.2667333 C18.2027994,13.72228 18.586412,14.0459531 18.9100899,14.2377622 C18.9580422,14.2737265 18.9880119,14.3036962 19,14.3276723 C19.0119881,14.3516485 18.9940062,14.3936061 18.9460539,14.4535465 L17.6873127,15.9100899 Z" id="" fill="#333333"></path>
        </g>
        <g id="icons-/-Error_Mark" transform="translate(0.000000, 12.000000)" opacity="0">
            <circle id="Oval" fill="#FFFFFF" fill-rule="nonzero" cx="4" cy="4" r="4"></circle>
            <path d="M4.00666043,0.66666822 C4.60923891,0.667230482 5.16978374,0.820408594 5.68831169,1.12620713 C6.1900347,1.42368891 6.5896311,1.82328531 6.88711289,2.32500833 C7.19347473,2.84449144 7.34665335,3.4050364 7.34665335,4.00666001 C7.34665335,4.60828362 7.19347473,5.16882857 6.88711289,5.68831169 C6.5896311,6.1900347 6.1900347,6.5896311 5.68831169,6.88711289 C5.16882857,7.19347473 4.60828362,7.34665335 4.00666001,7.34665335 C3.4050364,7.34665335 2.84449144,7.19347473 2.32500833,6.88711289 C1.82328531,6.5896311 1.42368891,6.1900347 1.12620713,5.68831169 C0.819845288,5.16882857 0.666666667,4.60828362 0.666666667,4.00666001 C0.666666667,3.4050364 0.819845288,2.84449144 1.12620713,2.32500833 C1.42368891,1.82328531 1.82328531,1.42368891 2.32500833,1.12620713 C2.84353627,0.820408594 3.4040811,0.667230482 4.00665958,0.66666822 L4.00666043,0.66666822 Z M4.00666043,0.66666822 C4.00555043,0.666667185 4.00444029,0.666666667 4.00333,0.666666667 L4.00999001,0.666666667 C4.00887973,0.666666667 4.00776958,0.666667185 4.00665958,0.66666822 L4.00666043,0.66666822 Z M4.34299034,5.67499167 L4.34299034,5.00899101 L3.67032967,5.00899101 L3.67032967,5.67499167 L4.34299034,5.67499167 Z M4.34299034,4.34299034 L4.34299034,2.33832834 L3.67032967,2.33832834 L3.67032967,4.34299034 L4.34299034,4.34299034 Z" id="" fill="#F83200"></path>
        </g>
    </g>
</svg>