<?xml version="1.0" encoding="UTF-8"?>
<svg width="20px" height="20px" viewBox="0 0 20 20" version="1.1" xmlns="http://www.w3.org/2000/svg" xmlns:xlink="http://www.w3.org/1999/xlink">
    <!-- Generator: Sketch 51.3 (57544) - http://www.bohemiancoding.com/sketch -->
    <title>icons / classes/ BMC_OperatingSystem_32</title>
    <desc>Created with Sketch.</desc>
    <defs></defs>
    <g id="icons-/-classes/-BMC_OperatingSystem_32" stroke="none" stroke-width="1" fill="none" fill-rule="evenodd">
        <g id="icons-/-classes/-Operating-systems">
            <g id="icons-/-20x20-icon-field" fill="#F5A623" fill-rule="nonzero" opacity="0">
                <rect x="0" y="0" width="20" height="20"></rect>
            </g>
            <path d="M18.9100899,13.9320679 C18.8861138,14.0159844 18.8441561,14.0879118 18.7842158,14.1478521 C18.7242754,14.2077925 18.664336,14.258741 18.6043956,14.3006993 C18.5444552,14.3426576 18.4725279,14.3936061 18.3886114,14.4535465 C18.3046949,14.5134868 18.2297706,14.5614384 18.1638362,14.5974026 C18.0979018,14.6333668 18.0349653,14.6633365 17.975025,14.6873127 C17.8791204,14.6993008 17.7892112,14.7052947 17.7052947,14.7052947 L2.29470529,14.7052947 C2.21078879,14.7052947 2.10889171,14.6993008 1.98901099,14.6873127 C1.92907063,14.6873127 1.85114933,14.6693308 1.75524476,14.6333666 C1.6953044,14.6093905 1.63236796,14.5704298 1.56643357,14.5164835 C1.50049917,14.4625372 1.44355668,14.3936068 1.3956044,14.3096903 L1.23376623,14.0939061 C1.19780202,14.0459538 1.1558444,13.9830174 1.10789211,13.9050949 C1.05993982,13.8271724 1.02997009,13.7522481 1.01798202,13.6803197 C1.00599395,13.5844151 1,13.4945059 1,13.4105894 L1,2.999001 C1,2.89110835 1.00599395,2.79520521 1.01798202,2.71128871 L1.08991009,2.47752248 C1.12587431,2.39360597 1.1708289,2.31868165 1.22477522,2.25274725 C1.27872155,2.18681286 1.34165798,2.13286734 1.41358641,2.09090909 C1.48551485,2.04895084 1.54845128,2.00699322 1.6023976,1.96503497 C1.65634393,1.92307671 1.72527431,1.87812212 1.80919081,1.83016983 C1.88111924,1.78221754 1.95604357,1.74625387 2.03396603,1.72227772 C2.1118885,1.69830158 2.19880072,1.68631369 2.29470529,1.68631369 L17.7052947,1.68631369 C17.7772231,1.68631369 17.8671323,1.69230763 17.975025,1.7042957 C18.0349653,1.7042957 18.1188806,1.72227754 18.2267732,1.75824176 C18.2987017,1.80619405 18.367632,1.85414561 18.4335664,1.9020979 C18.4995008,1.95005019 18.5534463,2.01298662 18.5954046,2.09090909 C18.6373628,2.16883156 18.6823174,2.23776194 18.7302697,2.2977023 L18.8741259,2.4955045 C18.9100901,2.55544486 18.9430568,2.62737221 18.973027,2.71128871 C19.0029972,2.79520521 19.017982,2.88511441 19.017982,2.98101898 L19.017982,13.4105894 C19.017982,13.5304701 19.0059941,13.6263733 18.982018,13.6983017 L18.9100899,13.9320679 Z M17.003996,12.7092907 L17.003996,3.7002997 L2.996004,3.7002997 L2.996004,12.7092907 L17.003996,12.7092907 Z M7.90509491,7.08541459 L7.90509491,7.08091908 L7.88711289,7.00899101 C7.88711289,6.99700294 7.88111894,6.98501504 7.86913087,6.97302697 L7.86913087,6.93706294 L7.43756244,6.48751249 L7.41958042,6.46953047 L7.41958042,6.36163836 C7.41958042,6.33766222 7.42557437,6.31968038 7.43756244,6.30769231 L7.43756244,6.28971029 C7.44955051,6.27772222 7.45554446,6.25974038 7.45554446,6.23576424 L8.01298701,5.71428571 L8.03096903,5.67832168 L8.1028971,5.67832168 C8.11488517,5.67832168 8.13286701,5.68431562 8.15684316,5.6963037 L8.17482517,5.71428571 L8.22877123,5.73226773 L8.66033966,6.16383616 L8.82217782,6.16383616 L9.28971029,5.98401598 L9.32567433,5.98401598 L9.37962038,5.94805195 L9.41558442,5.94805195 L9.45154845,5.89410589 L9.46953047,5.78621379 L9.46953047,5.19280719 L9.50549451,5.1028971 L9.50549451,5.08491508 L9.55944056,5.03096903 L10.4585415,5.03096903 L10.4765235,5.06693307 L10.5124875,5.08491508 L10.5664336,5.15684316 L10.5844156,5.22877123 L10.5844156,5.8041958 L10.6023976,5.84015984 L10.5844156,5.85814186 L10.5844156,5.87612388 L10.6203796,5.91208791 C10.6203796,5.92407598 10.6263736,5.93006993 10.6383616,5.93006993 L10.6923077,5.94805195 L11.1598402,6.12787213 L11.1958042,6.16383616 L11.3576424,6.16383616 L11.3936064,6.14585415 L11.4295704,6.10989011 L11.7892108,5.66033966 L11.9330669,5.62437562 L11.969031,5.62437562 L12.022977,5.66033966 C12.0349651,5.67232773 12.040959,5.68431562 12.040959,5.6963037 L12.5984016,6.1998002 L12.6343656,6.30769231 L12.6343656,6.37962038 C12.6343656,6.39160845 12.6283717,6.40359634 12.6163836,6.41558442 L12.5984016,6.48751249 L12.2027972,6.86513487 L12.1668332,6.93706294 L12.1308691,6.95504496 L12.1308691,7.11688312 L12.1668332,7.13486513 L12.3466533,7.6023976 L12.3646354,7.67432567 L12.4365634,7.72827173 L12.5084915,7.74625375 C12.5084915,7.75824182 12.5144855,7.76423576 12.5264735,7.76423576 L13.1378621,7.76423576 C13.1498502,7.76423576 13.1558442,7.77022971 13.1558442,7.78221778 L13.1738262,7.78221778 L13.1918082,7.8001998 C13.2037963,7.8001998 13.2127872,7.80319677 13.2187812,7.80919081 C13.2247753,7.81518485 13.251748,7.81818182 13.2997003,7.81818182 L13.3536464,7.83616384 L13.4075924,7.87212787 L13.3896104,8.73526474 L13.3356643,8.78921079 L13.2277722,8.82517483 L12.6343656,8.82517483 L12.5984016,8.84315684 L12.5084915,8.91508492 L12.5084915,8.95104895 C12.4965034,8.95104895 12.4845155,8.9570429 12.4725275,8.96903097 L12.2927073,9.43656344 L12.2567433,9.47252747 L12.2567433,9.63436563 C12.2567433,9.64635371 12.2627372,9.6583416 12.2747253,9.67032967 L12.2747253,9.70629371 L12.3106893,9.74225774 L12.7062937,10.1018981 L12.7242757,10.1378621 L12.7242757,10.3356643 C12.7242757,10.3476524 12.7182818,10.3536464 12.7062937,10.3536464 L12.1488511,10.9110889 L12.1128871,10.9290709 L12.040959,10.9470529 C12.0169829,10.9470529 11.9990011,10.941059 11.987013,10.9290709 L11.9150849,10.8931069 L11.5374625,10.4975025 L11.4655345,10.4615385 L11.4475524,10.4435564 L11.3216783,10.4255744 L11.2497502,10.4615385 L10.8001998,10.6413586 L10.7642358,10.6773227 L10.7282717,10.6773227 C10.7282717,10.6893107 10.7222778,10.7012986 10.7102897,10.7132867 L10.6923077,10.7312687 L10.6383616,10.8211788 L10.6383616,11.4685315 L10.6203796,11.4865135 L10.6023976,11.5584416 L10.5664336,11.5764236 L10.4945055,11.5944056 L9.64935065,11.5944056 L9.61338661,11.5764236 L9.54145854,11.5044955 L9.54145854,11.4145854 L9.52347652,10.8211788 L9.48751249,10.7492507 L9.41558442,10.6773227 L9.37962038,10.6773227 C9.36763231,10.6773227 9.35564442,10.6713287 9.34365634,10.6593407 L8.89410589,10.4615385 L8.76823177,10.4435564 L8.67832168,10.4615385 L8.66033966,10.4975025 L8.62437562,10.4975025 L8.19280719,10.9110889 L8.15684316,10.9290709 C8.15684316,10.941059 8.15084921,10.9470529 8.13886114,10.9470529 L8.1028971,10.965035 C8.07892096,10.965035 8.06693307,10.959041 8.06693307,10.9470529 L7.995005,10.9110889 L7.45554446,10.3716284 C7.44355638,10.3716284 7.43756244,10.3626375 7.43756244,10.3446553 C7.43756244,10.3266732 7.43156849,10.3176823 7.41958042,10.3176823 L7.41958042,10.1558442 L7.43756244,10.1378621 C7.43756244,10.1258741 7.44355638,10.1138862 7.45554446,10.1018981 L7.83316683,9.72427572 C7.84515491,9.72427572 7.8571428,9.71828178 7.86913087,9.70629371 C7.88111894,9.69430563 7.89310683,9.68831169 7.90509491,9.68831169 L7.90509491,9.58041958 C7.91708298,9.56843151 7.91708298,9.55644362 7.90509491,9.54445554 L7.88711289,9.45454545 L7.68931069,9.004995 C7.68931069,8.98101886 7.68331674,8.96303702 7.67132867,8.95104895 L7.58141858,8.87912088 L7.54545455,8.86113886 L6.95204795,8.86113886 C6.92807181,8.86113886 6.91008997,8.85514492 6.8981019,8.84315684 L6.82617383,8.80719281 C6.81418575,8.80719281 6.80219786,8.80119886 6.79020979,8.78921079 L6.79020979,8.73526474 L6.75424575,8.71728272 L6.75424575,7.90809191 L6.77222777,7.85414585 L6.79020979,7.83616384 L6.79020979,7.81818182 L6.84415584,7.78221778 L6.86213786,7.76423576 L7.49150849,7.76423576 L7.54545455,7.74625375 C7.55744262,7.74625375 7.56943051,7.7402598 7.58141858,7.72827173 L7.63536464,7.67432567 C7.64735271,7.67432567 7.65334665,7.66833173 7.65334665,7.65634366 L7.67132867,7.63836164 L7.67132867,7.58441558 L7.90509491,7.08091908 L7.90509491,7.08541459 Z M12.6703297,17.6003996 L12.6073926,17.6003996 C12.5774224,17.6003996 12.5534466,17.6063935 12.5354645,17.6183816 C12.5174824,17.6303697 12.5084915,17.6423576 12.5084915,17.6543457 L12.4725275,17.6903097 C12.4605394,17.7022978 12.4425576,17.7082917 12.4185814,17.7082917 L7.58141858,17.7082917 L7.45554446,17.6903097 L7.4015984,17.6543457 L7.4015984,17.6003996 C7.4015984,17.5764235 7.39860143,17.5584416 7.39260739,17.5464535 C7.38661336,17.5344655 7.37162849,17.5254746 7.34765235,17.5194805 C7.3236762,17.5134865 7.31168831,17.4985016 7.31168831,17.4745255 L7.29370629,17.4205794 L7.995005,15.7122877 L12.004995,15.7122877 L12.7062937,17.4205794 L12.6883117,17.5284715 C12.6883117,17.5644357 12.6823177,17.5884115 12.6703297,17.6003996 Z M11.3756244,8.68131868 C11.3876124,8.65734254 11.3936064,8.61538492 11.3936064,8.55544456 L11.4115884,8.39360639 L11.3936064,8.12387612 L11.3036963,7.87212787 L11.1778222,7.62037962 L11.033966,7.42257742 L10.8181818,7.24275724 L10.6023976,7.11688312 L10.2967033,7.02697303 L9.9010989,7.02697303 C9.84115854,7.02697303 9.79620395,7.02697303 9.76623377,7.02697303 C9.73626359,7.02697303 9.69730294,7.03896092 9.64935065,7.06293706 L9.50549451,7.11688312 L9.27172827,7.24275724 L9.18181818,7.33266733 L9.07392607,7.42257742 L8.89410589,7.62037962 L8.78621379,7.85414585 L8.71428571,8.12387612 L8.67832168,8.26773227 L8.67832168,8.53746254 C8.69030975,8.5974029 8.69930067,8.64235749 8.70529471,8.67232767 C8.71128874,8.70229785 8.72027966,8.7412585 8.73226773,8.78921079 L8.78621379,8.93306693 C8.81018993,8.95704308 8.82817177,8.99300675 8.84015984,9.04095904 L8.91208791,9.18481518 L8.98401598,9.27472527 C9.0199802,9.31068949 9.04994993,9.34365619 9.07392607,9.37362637 C9.09790222,9.40359655 9.13086892,9.43056931 9.17282717,9.45454545 C9.21478542,9.4785216 9.2507491,9.50549436 9.28071928,9.53546454 C9.31068946,9.56543472 9.34965011,9.59240747 9.3976024,9.61638362 L9.50549451,9.65234765 C9.52947065,9.6763238 9.57142827,9.69430563 9.63136863,9.70629371 L9.75724276,9.74225774 C9.80519504,9.75424581 9.84715267,9.76023976 9.88311688,9.76023976 L10.1708292,9.76023976 C10.2427576,9.76023976 10.2907092,9.75424581 10.3146853,9.74225774 L10.4405594,9.70629371 C10.4885117,9.69430563 10.5364633,9.6763238 10.5844156,9.65234765 L10.8001998,9.54445554 C10.8481521,9.50849133 10.8841158,9.48151857 10.9080919,9.46353646 C10.9320681,9.44555436 10.9680317,9.41258765 11.015984,9.36463536 L11.1778222,9.16683317 L11.3216783,8.84315684 C11.3216783,8.8191807 11.3276723,8.80719281 11.3396603,8.80719281 L11.3756244,8.68131868 Z" id="" fill="#2B2826"></path>
        </g>
        <g id="icons-/-Error_Mark" transform="translate(0.000000, 12.000000)" opacity="0">
            <circle id="Oval" fill="#FFFFFF" fill-rule="nonzero" cx="4" cy="4" r="4"></circle>
            <path d="M4.00666043,0.66666822 C4.60923891,0.667230482 5.16978374,0.820408594 5.68831169,1.12620713 C6.1900347,1.42368891 6.5896311,1.82328531 6.88711289,2.32500833 C7.19347473,2.84449144 7.34665335,3.4050364 7.34665335,4.00666001 C7.34665335,4.60828362 7.19347473,5.16882857 6.88711289,5.68831169 C6.5896311,6.1900347 6.1900347,6.5896311 5.68831169,6.88711289 C5.16882857,7.19347473 4.60828362,7.34665335 4.00666001,7.34665335 C3.4050364,7.34665335 2.84449144,7.19347473 2.32500833,6.88711289 C1.82328531,6.5896311 1.42368891,6.1900347 1.12620713,5.68831169 C0.819845288,5.16882857 0.666666667,4.60828362 0.666666667,4.00666001 C0.666666667,3.4050364 0.819845288,2.84449144 1.12620713,2.32500833 C1.42368891,1.82328531 1.82328531,1.42368891 2.32500833,1.12620713 C2.84353627,0.820408594 3.4040811,0.667230482 4.00665958,0.66666822 L4.00666043,0.66666822 Z M4.00666043,0.66666822 C4.00555043,0.666667185 4.00444029,0.666666667 4.00333,0.666666667 L4.00999001,0.666666667 C4.00887973,0.666666667 4.00776958,0.666667185 4.00665958,0.66666822 L4.00666043,0.66666822 Z M4.34299034,5.67499167 L4.34299034,5.00899101 L3.67032967,5.00899101 L3.67032967,5.67499167 L4.34299034,5.67499167 Z M4.34299034,4.34299034 L4.34299034,2.33832834 L3.67032967,2.33832834 L3.67032967,4.34299034 L4.34299034,4.34299034 Z" id="" fill="#F83200"></path>
        </g>
    </g>
</svg>