<?xml version="1.0" encoding="UTF-8"?>
<svg width="20px" height="20px" viewBox="0 0 20 20" version="1.1" xmlns="http://www.w3.org/2000/svg" xmlns:xlink="http://www.w3.org/1999/xlink">
    <!-- Generator: Sketch 51.3 (57544) - http://www.bohemiancoding.com/sketch -->
    <title>icons / classes/ BMC_FileSystem_32</title>
    <desc>Created with Sketch.</desc>
    <defs>
        <polygon id="path-1" points="0 0.000333333333 16.6664167 0.000333333333 16.6664167 20 0 20"></polygon>
    </defs>
    <g id="icons-/-classes/-BMC_FileSystem_32" stroke="none" stroke-width="1" fill="none" fill-rule="evenodd">
        <g id="icons-/-classes/-File-System" fill="#F5A623" fill-rule="nonzero" opacity="0">
            <g id="icons-/-20x20-icon-field">
                <rect x="0" y="0" width="20" height="20"></rect>
            </g>
        </g>
        <g id="Group-3" transform="translate(2.000000, 0.000000)">
            <mask id="mask-2" fill="white">
                <use xlink:href="#path-1"></use>
            </mask>
            <g id="Clip-2"></g>
            <path d="M9.21058333,14.137 C9.47975,13.9795 9.69225,13.7661667 9.84725,13.497 C10.00225,13.2286667 10.07975,12.9353333 10.07975,12.6161667 C10.07975,12.2978333 10.00225,12.0045 9.84725,11.7353333 C9.69225,11.467 9.47975,11.2553333 9.21058333,11.1003333 C8.94141667,10.9453333 8.64808333,10.8678333 8.32891667,10.8678333 C8.01058333,10.8678333 7.71641667,10.9453333 7.44808333,11.1003333 C7.17808333,11.2553333 6.96641667,11.467 6.81141667,11.7353333 C6.65641667,12.0045 6.57891667,12.2978333 6.57891667,12.6161667 C6.57891667,12.9353333 6.65641667,13.2286667 6.81141667,13.497 C6.96641667,13.7661667 7.17808333,13.9795 7.44808333,14.137 C7.71641667,14.2945 8.01141667,14.3736667 8.33308333,14.3736667 C8.64891667,14.3736667 8.94141667,14.2945 9.21058333,14.137 Z M11.6014167,13.1936667 C11.5464167,13.1936667 11.48975,13.2145 11.4314167,13.2561667 C11.3730833,13.2978333 11.3355833,13.3461667 11.3189167,13.4011667 L11.0855833,13.9661667 C11.0580833,14.022 11.0505833,14.0845 11.0614167,14.1536667 C11.07225,14.2228333 11.09975,14.2761667 11.1439167,14.3153333 L11.6264167,14.797 C11.6655833,14.842 11.68475,14.8945 11.68475,14.9545 C11.68475,15.0161667 11.6655833,15.0686667 11.6264167,15.1128333 L10.9530833,15.777 C10.9089167,15.822 10.8555833,15.8445 10.7955833,15.8445 C10.7339167,15.8445 10.6814167,15.822 10.6364167,15.777 L10.15475,15.2961667 C10.1105833,15.257 10.05475,15.232 9.98891667,15.2211667 C9.92225,15.2103333 9.86058333,15.2186667 9.80558333,15.2461667 L9.23975,15.4786667 C9.18391667,15.4953333 9.13558333,15.5311667 9.09391667,15.5861667 C9.05308333,15.642 9.03225,15.6995 9.03225,15.7611667 L9.03225,16.4503333 C9.03225,16.5053333 9.01058333,16.5553333 8.96975,16.6003333 C8.92808333,16.6445 8.87725,16.667 8.81558333,16.667 L7.85891667,16.667 C7.79808333,16.667 7.74641667,16.6445 7.70558333,16.6003333 C7.66391667,16.5553333 7.64308333,16.5053333 7.64308333,16.4503333 L7.64308333,15.7611667 C7.64308333,15.7053333 7.62225,15.6486667 7.58058333,15.5911667 C7.53975,15.5328333 7.48808333,15.4953333 7.42641667,15.4786667 L6.86141667,15.2461667 C6.81141667,15.2186667 6.75141667,15.2103333 6.68225,15.2211667 C6.61308333,15.232 6.55641667,15.257 6.51225,15.2961667 L6.02975,15.777 C5.98475,15.822 5.93225,15.8445 5.87141667,15.8445 C5.81058333,15.8445 5.76058333,15.822 5.72141667,15.777 L5.04808333,15.1128333 C5.00975,15.0686667 4.98975,15.0161667 4.98975,14.9545 C4.98975,14.8945 5.00975,14.842 5.04808333,14.797 L5.53058333,14.3153333 C5.57475,14.2711667 5.60058333,14.2153333 5.60975,14.1495 C5.61808333,14.0828333 5.60808333,14.022 5.58058333,13.9661667 L5.34808333,13.4011667 C5.33058333,13.3403333 5.29475,13.2903333 5.23891667,13.252 C5.18391667,13.2136667 5.12558333,13.1936667 5.06475,13.1936667 L4.38308333,13.1936667 C4.32225,13.1936667 4.27058333,13.1728333 4.22891667,13.1311667 C4.18725,13.0903333 4.16641667,13.0361667 4.16641667,12.9695 L4.16641667,12.022 C4.16641667,11.9611667 4.18725,11.9103333 4.22891667,11.8686667 C4.27058333,11.827 4.32225,11.8061667 4.38308333,11.8061667 L5.06475,11.8061667 C5.12558333,11.8061667 5.18391667,11.7853333 5.23891667,11.7436667 C5.29475,11.7028333 5.33058333,11.6511667 5.34808333,11.5903333 L5.58058333,11.0336667 C5.60808333,10.9778333 5.61808333,10.9161667 5.60975,10.847 C5.60058333,10.7778333 5.57475,10.7236667 5.53058333,10.6845 L5.04808333,10.2028333 C5.00975,10.1586667 4.98975,10.1061667 4.98975,10.0453333 C4.98975,9.9845 5.00975,9.932 5.04808333,9.887 L5.72141667,9.21366667 C5.76641667,9.17533333 5.81891667,9.15616667 5.87975,9.15616667 C5.94141667,9.15616667 5.99058333,9.17533333 6.02975,9.21366667 L6.51225,9.69616667 C6.55641667,9.74033333 6.61308333,9.76783333 6.68225,9.7795 C6.75141667,9.79033333 6.81141667,9.782 6.86141667,9.7545 L7.42641667,9.52116667 C7.48808333,9.5045 7.53725,9.46866667 7.57641667,9.41366667 C7.61475,9.35866667 7.63475,9.30033333 7.63475,9.2395 L7.63475,8.5495 C7.63475,8.48866667 7.65641667,8.437 7.70141667,8.39533333 C7.74558333,8.3545 7.79808333,8.33366667 7.85891667,8.33366667 L8.80808333,8.33366667 C8.86891667,8.33366667 8.91891667,8.3545 8.96141667,8.39533333 C9.00225,8.437 9.02391667,8.48866667 9.02391667,8.5495 L9.02391667,9.23033333 C9.02391667,9.292 9.04391667,9.3495 9.08641667,9.40533333 C9.12725,9.46033333 9.17891667,9.497 9.23975,9.51366667 L9.79725,9.74533333 C9.85225,9.77366667 9.91475,9.78283333 9.98475,9.77533333 C10.0539167,9.76616667 10.1080833,9.74033333 10.1464167,9.69616667 L10.6289167,9.21366667 C10.67225,9.17033333 10.7255833,9.14783333 10.7864167,9.14783333 C10.84725,9.14783333 10.9005833,9.17033333 10.94475,9.21366667 L11.6189167,9.887 C11.65725,9.932 11.6764167,9.9845 11.6764167,10.0453333 C11.6764167,10.1061667 11.65725,10.1561667 11.6189167,10.1945 L11.1364167,10.6761667 C11.0914167,10.7203333 11.0639167,10.7778333 11.0530833,10.847 C11.04225,10.9161667 11.0505833,10.9753333 11.0780833,11.0253333 L11.3114167,11.5903333 C11.32725,11.6511667 11.3639167,11.7028333 11.4230833,11.7436667 C11.4814167,11.7853333 11.5380833,11.8061667 11.5930833,11.8061667 L12.2755833,11.8061667 C12.3364167,11.8061667 12.3889167,11.827 12.4339167,11.8686667 C12.47725,11.9103333 12.49975,11.9611667 12.49975,12.022 L12.49975,12.9695 C12.49975,13.0303333 12.47725,13.0828333 12.4339167,13.1278333 C12.3889167,13.172 12.3364167,13.1936667 12.2755833,13.1936667 L11.6014167,13.1936667 Z M11.6664167,5.00033333 L11.6664167,1.667 L14.99975,5.00033333 L11.6664167,5.00033333 Z M14.99975,18.3336667 L1.66641667,18.3336667 L1.66641667,1.667 L9.99975,1.667 L9.99975,5.00033333 C9.99975,5.917 10.74975,6.667 11.6664167,6.667 L14.99975,6.667 L14.99975,18.3336667 Z M16.4580833,4.10033333 L16.3830833,4.02533333 L12.6414167,0.282833333 L12.5664167,0.208666667 C12.4164167,0.0745 12.22475,0.000333333333 12.0164167,0.000333333333 L1.66641667,0.000333333333 C0.74975,0.000333333333 -0.00025,0.750333333 -0.00025,1.667 L-0.00025,18.3336667 C-0.00025,19.2503333 0.74975,20.0003333 1.66641667,20.0003333 L14.99975,20.0003333 C15.9164167,20.0003333 16.6664167,19.2503333 16.6664167,18.3336667 L16.6664167,4.65033333 C16.6664167,4.442 16.5914167,4.25033333 16.4580833,4.10033333 Z" id="Fill-1" fill="#333333" mask="url(#mask-2)"></path>
        </g>
        <g id="icons-/-Error_Mark" transform="translate(0.000000, 12.000000)" opacity="0">
            <circle id="Oval" fill="#FFFFFF" fill-rule="nonzero" cx="4" cy="4" r="4"></circle>
            <path d="M4.00666043,0.66666822 C4.60923891,0.667230482 5.16978374,0.820408594 5.68831169,1.12620713 C6.1900347,1.42368891 6.5896311,1.82328531 6.88711289,2.32500833 C7.19347473,2.84449144 7.34665335,3.4050364 7.34665335,4.00666001 C7.34665335,4.60828362 7.19347473,5.16882857 6.88711289,5.68831169 C6.5896311,6.1900347 6.1900347,6.5896311 5.68831169,6.88711289 C5.16882857,7.19347473 4.60828362,7.34665335 4.00666001,7.34665335 C3.4050364,7.34665335 2.84449144,7.19347473 2.32500833,6.88711289 C1.82328531,6.5896311 1.42368891,6.1900347 1.12620713,5.68831169 C0.819845288,5.16882857 0.666666667,4.60828362 0.666666667,4.00666001 C0.666666667,3.4050364 0.819845288,2.84449144 1.12620713,2.32500833 C1.42368891,1.82328531 1.82328531,1.42368891 2.32500833,1.12620713 C2.84353627,0.820408594 3.4040811,0.667230482 4.00665958,0.66666822 L4.00666043,0.66666822 Z M4.00666043,0.66666822 C4.00555043,0.666667185 4.00444029,0.666666667 4.00333,0.666666667 L4.00999001,0.666666667 C4.00887973,0.666666667 4.00776958,0.666667185 4.00665958,0.66666822 L4.00666043,0.66666822 Z M4.34299034,5.67499167 L4.34299034,5.00899101 L3.67032967,5.00899101 L3.67032967,5.67499167 L4.34299034,5.67499167 Z M4.34299034,4.34299034 L4.34299034,2.33832834 L3.67032967,2.33832834 L3.67032967,4.34299034 L4.34299034,4.34299034 Z" id="" fill="#F83200"></path>
        </g>
    </g>
</svg>