<?xml version="1.0" encoding="UTF-8"?>
<svg width="20px" height="20px" viewBox="0 0 20 20" version="1.1" xmlns="http://www.w3.org/2000/svg" xmlns:xlink="http://www.w3.org/1999/xlink">
    <!-- Generator: Sketch 51.3 (57544) - http://www.bohemiancoding.com/sketch -->
    <title>icons / classes/ BMC_TelnetServer_32_Error</title>
    <desc>Created with Sketch.</desc>
    <defs></defs>
    <g id="icons-/-classes/-BMC_TelnetServer_32" stroke="none" stroke-width="1" fill="none" fill-rule="evenodd">
        <g transform="translate(0.000000, -1.000000)">
            <g id="icons-/-20x20-icon-field" transform="translate(0.000000, 1.000000)" fill="#F5A623" fill-rule="nonzero" opacity="0">
                <rect x="0" y="0" width="20" height="20"></rect>
            </g>
            <path d="M10.8691309,8.48951049 C10.8025305,8.48951049 10.7226112,8.49617043 10.6293706,8.50949051 C10.5760903,8.52281059 10.5094909,8.54279041 10.4295704,8.56943057 L10.2497502,8.68931069 C10.1698298,8.74259101 10.1098903,8.78921059 10.0699301,8.82917083 L9.93006993,8.98901099 C9.87678961,9.04229131 9.83682997,9.10556074 9.81018981,9.17882118 C9.78354965,9.25208162 9.76356983,9.32201099 9.75024975,9.38861139 C9.72360959,9.48185195 9.71028971,9.55511129 9.71028971,9.60839161 L9.71028971,20.6973027 L9.75024975,21.016983 L0,21.016983 L0,0.997002997 L14.7452547,0.997002997 L14.7452547,8.48951049 L10.8691309,8.48951049 Z M10.5294705,5.19280719 L4.21578422,5.19280719 L4.21578422,8.36963037 L10.5294705,8.36963037 L10.5294705,5.19280719 Z M20,12.3456543 L20,19.998002 C20,20.0512823 19.99667,20.1112218 19.99001,20.1778222 C19.98335,20.2444226 19.9667001,20.307692 19.9400599,20.3676324 C19.9134198,20.4275727 19.8801201,20.4841822 19.8401598,20.5374625 L19.7202797,20.6973027 C19.6669994,20.7639031 19.6203798,20.8105227 19.5804196,20.8371628 L19.5604396,20.8371628 C19.4938392,20.8904432 19.4405596,20.9237429 19.4005994,20.9370629 C19.3606392,20.950383 19.3073596,20.9703628 19.2407592,20.997003 C19.1874789,21.0103231 19.1208795,21.016983 19.040959,21.016983 L11.5684316,21.016983 C11.5151512,21.016983 11.4552118,21.0103231 11.3886114,20.997003 C11.322011,20.9836829 11.2587416,20.9637031 11.1988012,20.9370629 C11.1388608,20.9104228 11.0822513,20.8771231 11.028971,20.8371628 L10.8691309,20.6973027 C10.8158505,20.6440224 10.769231,20.5907429 10.7292707,20.5374625 L10.7292707,20.5174825 C10.6893105,20.4508821 10.6626707,20.4009326 10.6493506,20.3676324 C10.6360306,20.3343322 10.6227107,20.2777227 10.6093906,20.1978022 C10.5960705,20.157842 10.5894106,20.0912426 10.5894106,19.998002 L10.5894106,10.2877123 C10.5894106,10.234432 10.5927406,10.1778225 10.5994006,10.1178821 C10.6060606,10.0579418 10.6227105,10.0013323 10.6493506,9.94805195 C10.6759908,9.89477163 10.7026306,9.83483217 10.7292707,9.76823177 C10.7425908,9.74159161 10.7692306,9.70829191 10.8091908,9.66833167 L10.8691309,9.60839161 C10.9224112,9.55511129 10.9756907,9.50849171 11.028971,9.46853147 L11.048951,9.46853147 C11.1155514,9.42857123 11.168831,9.40193147 11.2087912,9.38861139 C11.2487514,9.37529131 11.302031,9.36197143 11.3686314,9.34865135 C11.4219117,9.33533127 11.4885111,9.32867133 11.5684316,9.32867133 L16.7832168,9.32867133 L17.002997,9.34865135 C17.0296372,9.34865135 17.0695968,9.35531129 17.1228771,9.36863137 L17.2027972,9.40859141 C17.2427574,9.40859141 17.2760571,9.41192138 17.3026973,9.41858142 C17.3293375,9.42524146 17.3559772,9.44189131 17.3826174,9.46853147 L19.7002997,11.7662338 C19.7269399,11.806194 19.7502497,11.8361637 19.7702298,11.8561439 C19.7902099,11.876124 19.8135197,11.9060937 19.8401598,11.9460539 C19.8668,11.9860142 19.8867798,12.0193139 19.9000999,12.045954 L19.96004,12.1458541 L19.98002,12.2657343 L20,12.3456543 Z M19.1008991,19.998002 L19.1008991,12.8651349 L16.8031968,12.8651349 L16.7232767,12.8251748 L16.6633367,12.7852148 L16.5034965,12.6453546 L16.4635365,12.5854146 C16.4502164,12.5720945 16.4435564,12.5387948 16.4435564,12.4855145 L16.4435564,10.1478521 L11.5084915,10.1478521 C11.4951714,10.1611722 11.4851815,10.1678322 11.4785215,10.1678322 C11.4718614,10.1678322 11.4652015,10.1711621 11.4585415,10.1778222 C11.4518814,10.1844822 11.4418915,10.2011321 11.4285714,10.2277722 L11.4085914,10.2277722 L11.4085914,20.0779221 L11.4285714,20.0779221 L11.4485514,20.1178821 L11.5084915,20.1378621 L18.961039,20.1378621 L19.000999,20.0979021 C19.0143191,20.084582 19.020979,20.0712621 19.020979,20.0579421 C19.020979,20.044622 19.027639,20.037962 19.040959,20.037962 L19.040959,19.998002 L19.1008991,19.998002 Z M13.986014,18.0599401 L12.027972,16.4215784 L13.986014,14.7832168 L13.986014,15.4225774 L12.8271728,16.4215784 L13.986014,17.3806194 L13.986014,18.0599401 Z M16.5834166,13.5044955 L14.6453546,18.6993007 L13.986014,18.6993007 L15.9240759,13.5044955 L16.5834166,13.5044955 Z M16.5834166,14.7832168 L18.5214785,16.4415584 L16.5834166,18.0599401 L16.5834166,17.4005994 L17.7022977,16.4415584 L16.5834166,15.4425574 L16.5834166,14.7832168 Z M17.3226773,10.6273726 L17.3226773,12.005994 L18.6813187,12.005994 L17.3226773,10.6273726 Z" id="" fill="#2B2826"></path>
            <g id="icons-/-Error_Mark" transform="translate(0.000000, 13.000000)">
                <circle id="Oval" fill="#FFFFFF" fill-rule="nonzero" cx="4" cy="4" r="4"></circle>
                <path d="M4.00666043,0.66666822 C4.60923891,0.667230482 5.16978374,0.820408594 5.68831169,1.12620713 C6.1900347,1.42368891 6.5896311,1.82328531 6.88711289,2.32500833 C7.19347473,2.84449144 7.34665335,3.4050364 7.34665335,4.00666001 C7.34665335,4.60828362 7.19347473,5.16882857 6.88711289,5.68831169 C6.5896311,6.1900347 6.1900347,6.5896311 5.68831169,6.88711289 C5.16882857,7.19347473 4.60828362,7.34665335 4.00666001,7.34665335 C3.4050364,7.34665335 2.84449144,7.19347473 2.32500833,6.88711289 C1.82328531,6.5896311 1.42368891,6.1900347 1.12620713,5.68831169 C0.819845288,5.16882857 0.666666667,4.60828362 0.666666667,4.00666001 C0.666666667,3.4050364 0.819845288,2.84449144 1.12620713,2.32500833 C1.42368891,1.82328531 1.82328531,1.42368891 2.32500833,1.12620713 C2.84353627,0.820408594 3.4040811,0.667230482 4.00665958,0.66666822 L4.00666043,0.66666822 Z M4.00666043,0.66666822 C4.00555043,0.666667185 4.00444029,0.666666667 4.00333,0.666666667 L4.00999001,0.666666667 C4.00887973,0.666666667 4.00776958,0.666667185 4.00665958,0.66666822 L4.00666043,0.66666822 Z M4.34299034,5.67499167 L4.34299034,5.00899101 L3.67032967,5.00899101 L3.67032967,5.67499167 L4.34299034,5.67499167 Z M4.34299034,4.34299034 L4.34299034,2.33832834 L3.67032967,2.33832834 L3.67032967,4.34299034 L4.34299034,4.34299034 Z" id="" fill="#F83200"></path>
            </g>
        </g>
    </g>
</svg>