<?xml version="1.0" encoding="UTF-8"?>
<svg width="20px" height="20px" viewBox="0 0 20 20" version="1.1" xmlns="http://www.w3.org/2000/svg" xmlns:xlink="http://www.w3.org/1999/xlink">
    <!-- Generator: Sketch 51.3 (57544) - http://www.bohemiancoding.com/sketch -->
    <title>icons / classes/ BMC_BaseRelationship_32_Error</title>
    <desc>Created with Sketch.</desc>
    <defs>
        <polygon id="path-1" points="0 0 20 0 20 19.9998333 0 19.9998333"></polygon>
    </defs>
    <g id="icons-/-classes/-BMC_BaseRelationship_32" stroke="none" stroke-width="1" fill="none" fill-rule="evenodd">
        <g>
            <g id="icons-/-20x20-icon-field" fill="#F5A623" fill-rule="nonzero" opacity="0">
                <rect x="0" y="0" width="20" height="20"></rect>
            </g>
            <g id="Group-3">
                <mask id="mask-2" fill="white">
                    <use xlink:href="#path-1"></use>
                </mask>
                <g id="Clip-2"></g>
                <path d="M8.75,5.2665 C8.49166667,4.97483333 8.33333333,4.5915 8.33333333,4.1665 C8.33333333,3.24983333 9.08333333,2.49983333 10,2.49983333 C10.9166667,2.49983333 11.6666667,3.24983333 11.6666667,4.1665 C11.6666667,4.5915 11.5083333,4.97483333 11.25,5.2665 C10.9666667,5.58316667 10.575,5.7915 10.1333333,5.82483333 C10.0916667,5.83316667 10.05,5.83316667 10,5.83316667 C9.95,5.83316667 9.90833333,5.83316667 9.86666667,5.82483333 C9.425,5.7915 9.03333333,5.58316667 8.75,5.2665 Z M6.325,15.2081667 C6.15833333,14.8581667 5.925,14.5415 5.65,14.2665 L8.71666667,8.13316667 C9.125,8.2665 9.55,8.33316667 10,8.33316667 C10.45,8.33316667 10.875,8.2665 11.2833333,8.13316667 L14.35,14.2665 C14.075,14.5415 13.8416667,14.8581667 13.675,15.2081667 L6.325,15.2081667 Z M5.41666667,16.6665 C5.41666667,17.8165 4.48333333,18.7498333 3.33333333,18.7498333 C2.18333333,18.7498333 1.25,17.8165 1.25,16.6665 C1.25,15.5165 2.18333333,14.5831667 3.33333333,14.5831667 C3.575,14.5831667 3.81666667,14.6248333 4.03333333,14.7081667 C4.775,14.9665 5.325,15.6498333 5.40833333,16.4581667 C5.41666667,16.5331667 5.41666667,16.5998333 5.41666667,16.6665 Z M10,1.24983333 C11.6083333,1.24983333 12.9166667,2.55816667 12.9166667,4.1665 C12.9166667,5.07483333 12.5,5.8915 11.8333333,6.43316667 C11.5166667,6.6915 11.1333333,6.8915 10.7166667,6.9915 C10.4916667,7.04983333 10.25,7.08316667 10,7.08316667 C9.75,7.08316667 9.50833333,7.04983333 9.28333333,6.9915 C8.86666667,6.8915 8.48333333,6.6915 8.16666667,6.43316667 C7.5,5.8915 7.08333333,5.07483333 7.08333333,4.1665 C7.08333333,2.55816667 8.39166667,1.24983333 10,1.24983333 Z M16.6666667,18.7498333 C15.5166667,18.7498333 14.5833333,17.8165 14.5833333,16.6665 C14.5833333,16.5998333 14.5833333,16.5331667 14.5916667,16.4581667 C14.675,15.6498333 15.225,14.9665 15.9666667,14.7081667 C16.1833333,14.6248333 16.425,14.5831667 16.6666667,14.5831667 C17.8166667,14.5831667 18.75,15.5165 18.75,16.6665 C18.75,17.8165 17.8166667,18.7498333 16.6666667,18.7498333 Z M16.6666667,13.3331667 C16.225,13.3331667 15.7916667,13.4248333 15.4083333,13.5915 L12.4,7.57483333 C13.4666667,6.8165 14.1666667,5.57483333 14.1666667,4.1665 C14.1666667,1.8665 12.3,-0.000166666667 10,-0.000166666667 C7.7,-0.000166666667 5.83333333,1.8665 5.83333333,4.1665 C5.83333333,5.57483333 6.53333333,6.8165 7.6,7.57483333 L4.59166667,13.5915 C4.20833333,13.4248333 3.775,13.3331667 3.33333333,13.3331667 C1.49166667,13.3331667 0,14.8248333 0,16.6665 C0,18.5081667 1.49166667,19.9998333 3.33333333,19.9998333 C5.175,19.9998333 6.66666667,18.5081667 6.66666667,16.6665 C6.66666667,16.5998333 6.66666667,16.5248333 6.65833333,16.4581667 L13.3416667,16.4581667 C13.3333333,16.5248333 13.3333333,16.5998333 13.3333333,16.6665 C13.3333333,18.5081667 14.825,19.9998333 16.6666667,19.9998333 C18.5083333,19.9998333 20,18.5081667 20,16.6665 C20,14.8248333 18.5083333,13.3331667 16.6666667,13.3331667 Z" id="Fill-1" fill="#333333" mask="url(#mask-2)"></path>
            </g>
            <g id="icons-/-Error_Mark" transform="translate(0.000000, 12.000000)">
                <circle id="Oval" fill="#FFFFFF" fill-rule="nonzero" cx="4" cy="4" r="4"></circle>
                <path d="M4.00666043,0.66666822 C4.60923891,0.667230482 5.16978374,0.820408594 5.68831169,1.12620713 C6.1900347,1.42368891 6.5896311,1.82328531 6.88711289,2.32500833 C7.19347473,2.84449144 7.34665335,3.4050364 7.34665335,4.00666001 C7.34665335,4.60828362 7.19347473,5.16882857 6.88711289,5.68831169 C6.5896311,6.1900347 6.1900347,6.5896311 5.68831169,6.88711289 C5.16882857,7.19347473 4.60828362,7.34665335 4.00666001,7.34665335 C3.4050364,7.34665335 2.84449144,7.19347473 2.32500833,6.88711289 C1.82328531,6.5896311 1.42368891,6.1900347 1.12620713,5.68831169 C0.819845288,5.16882857 0.666666667,4.60828362 0.666666667,4.00666001 C0.666666667,3.4050364 0.819845288,2.84449144 1.12620713,2.32500833 C1.42368891,1.82328531 1.82328531,1.42368891 2.32500833,1.12620713 C2.84353627,0.820408594 3.4040811,0.667230482 4.00665958,0.66666822 L4.00666043,0.66666822 Z M4.00666043,0.66666822 C4.00555043,0.666667185 4.00444029,0.666666667 4.00333,0.666666667 L4.00999001,0.666666667 C4.00887973,0.666666667 4.00776958,0.666667185 4.00665958,0.66666822 L4.00666043,0.66666822 Z M4.34299034,5.67499167 L4.34299034,5.00899101 L3.67032967,5.00899101 L3.67032967,5.67499167 L4.34299034,5.67499167 Z M4.34299034,4.34299034 L4.34299034,2.33832834 L3.67032967,2.33832834 L3.67032967,4.34299034 L4.34299034,4.34299034 Z" id="" fill="#F83200"></path>
            </g>
        </g>
    </g>
</svg>