<?xml version="1.0" encoding="UTF-8"?>
<svg width="20px" height="20px" viewBox="0 0 20 20" version="1.1" xmlns="http://www.w3.org/2000/svg" xmlns:xlink="http://www.w3.org/1999/xlink">
    <!-- Generator: Sketch 51.3 (57544) - http://www.bohemiancoding.com/sketch -->
    <title>icons / classes/ BMC_SoftwareServer_32</title>
    <desc>Created with Sketch.</desc>
    <defs></defs>
    <g id="icons-/-classes/-BMC_SoftwareServer_32" stroke="none" stroke-width="1" fill="none" fill-rule="evenodd">
        <g id="icons-/-classes/-Software-Server">
            <g id="icons-/-20x20-icon-field" fill="#F5A623" fill-rule="nonzero" opacity="0">
                <rect x="0" y="0" width="20" height="20"></rect>
            </g>
            <path d="M14.1666667,13.3333333 C13.7083333,13.3333333 13.3333333,13.7083333 13.3333333,14.1666667 C13.3333333,14.625 13.7083333,15 14.1666667,15 C14.625,15 15,14.625 15,14.1666667 C15,13.7083333 14.625,13.3333333 14.1666667,13.3333333 Z M15.8333333,14.1666667 C15.8333333,13.55 15.5,13.0166667 15,12.725 C14.7583333,12.5833333 14.4666667,12.5 14.1666667,12.5 C13.25,12.5 12.5,13.25 12.5,14.1666667 C12.5,15.0833333 13.25,15.8333333 14.1666667,15.8333333 C14.4666667,15.8333333 14.7583333,15.75 15,15.6083333 C15.5,15.3166667 15.8333333,14.7833333 15.8333333,14.1666667 Z M16.6666667,14.1666667 C16.6666667,15.2583333 15.975,16.1833333 15,16.5166667 C14.7416667,16.6166667 14.4583333,16.6666667 14.1666667,16.6666667 C12.7833333,16.6666667 11.6666667,15.55 11.6666667,14.1666667 C11.6666667,12.7833333 12.7833333,11.6666667 14.1666667,11.6666667 C14.4583333,11.6666667 14.7416667,11.7166667 15,11.8166667 C15.975,12.15 16.6666667,13.075 16.6666667,14.1666667 Z M18.75,14.1666667 C18.75,11.925 17.125,10.05 15,9.65833333 C14.7333333,9.60833333 14.45,9.58333333 14.1666667,9.58333333 C11.6416667,9.58333333 9.58333333,11.6416667 9.58333333,14.1666667 C9.58333333,16.6916667 11.6416667,18.75 14.1666667,18.75 C14.4416667,18.75 14.7166667,18.725 14.975,18.675 C17.1166667,18.2916667 18.75,16.4166667 18.75,14.1666667 Z M20,14.1666667 C20,17.3916667 17.3916667,20 14.1666667,20 C14,20 13.8333333,19.9916667 13.6666667,19.975 C10.675,19.725 8.33333333,17.225 8.33333333,14.1666667 C8.33333333,10.9416667 10.9416667,8.33333333 14.1666667,8.33333333 C14.45,8.33333333 14.7333333,8.35 15,8.4 C17.8333333,8.8 20,11.225 20,14.1666667 Z M10.8333333,7.5 L10.8333333,7.45 C10.8083333,7.46666667 10.775,7.48333333 10.7416667,7.5 L10.8333333,7.5 Z M9.46666667,20 L1.60833333,20 C0.716666667,20 0,19.2916667 0,18.4166667 L0,1.58333333 C0,0.708333333 0.716666667,0 1.60833333,0 L13.3916667,0 C14.2833333,0 15,0.708333333 15,1.58333333 L15,6.71666667 C14.725,6.68333333 14.45,6.66666667 14.1666667,6.66666667 C12.975,6.66666667 11.8416667,6.95 10.8333333,7.45 L10.8333333,4.16666667 L4.16666667,4.16666667 L4.16666667,7.5 L10.7416667,7.5 C8.325,8.74166667 6.66666667,11.2666667 6.66666667,14.1666667 C6.66666667,16.525 7.75833333,18.625 9.46666667,20 Z" id="Fill-1" fill="#333333"></path>
        </g>
        <g id="icons-/-Error_Mark" transform="translate(0.000000, 12.000000)" opacity="0">
            <circle id="Oval" fill="#FFFFFF" fill-rule="nonzero" cx="4" cy="4" r="4"></circle>
            <path d="M4.00666043,0.66666822 C4.60923891,0.667230482 5.16978374,0.820408594 5.68831169,1.12620713 C6.1900347,1.42368891 6.5896311,1.82328531 6.88711289,2.32500833 C7.19347473,2.84449144 7.34665335,3.4050364 7.34665335,4.00666001 C7.34665335,4.60828362 7.19347473,5.16882857 6.88711289,5.68831169 C6.5896311,6.1900347 6.1900347,6.5896311 5.68831169,6.88711289 C5.16882857,7.19347473 4.60828362,7.34665335 4.00666001,7.34665335 C3.4050364,7.34665335 2.84449144,7.19347473 2.32500833,6.88711289 C1.82328531,6.5896311 1.42368891,6.1900347 1.12620713,5.68831169 C0.819845288,5.16882857 0.666666667,4.60828362 0.666666667,4.00666001 C0.666666667,3.4050364 0.819845288,2.84449144 1.12620713,2.32500833 C1.42368891,1.82328531 1.82328531,1.42368891 2.32500833,1.12620713 C2.84353627,0.820408594 3.4040811,0.667230482 4.00665958,0.66666822 L4.00666043,0.66666822 Z M4.00666043,0.66666822 C4.00555043,0.666667185 4.00444029,0.666666667 4.00333,0.666666667 L4.00999001,0.666666667 C4.00887973,0.666666667 4.00776958,0.666667185 4.00665958,0.66666822 L4.00666043,0.66666822 Z M4.34299034,5.67499167 L4.34299034,5.00899101 L3.67032967,5.00899101 L3.67032967,5.67499167 L4.34299034,5.67499167 Z M4.34299034,4.34299034 L4.34299034,2.33832834 L3.67032967,2.33832834 L3.67032967,4.34299034 L4.34299034,4.34299034 Z" id="" fill="#F83200"></path>
        </g>
    </g>
</svg>