<?xml version="1.0" encoding="UTF-8"?>
<svg width="20px" height="20px" viewBox="0 0 20 20" version="1.1" xmlns="http://www.w3.org/2000/svg" xmlns:xlink="http://www.w3.org/1999/xlink">
    <!-- Generator: Sketch 51.3 (57544) - http://www.bohemiancoding.com/sketch -->
    <title>icons / classes/ BMC_ApplicationInfrastructure_32</title>
    <desc>Created with Sketch.</desc>
    <defs></defs>
    <g id="icons-/-classes/-BMC_ApplicationInfrastructure_32" stroke="none" stroke-width="1" fill="none" fill-rule="evenodd">
        <g id="icons-/-classes/-application-Infrastructure">
            <g id="icons-/-20x20-icon-field" fill="#F5A623" fill-rule="nonzero" opacity="0">
                <rect x="0" y="0" width="20" height="20"></rect>
            </g>
            <path d="M18.8562874,2.11377246 C18.9041919,2.23353353 18.9401196,2.34730485 18.9640719,2.45508982 C18.9880241,2.56287479 19,2.67065814 19,2.77844311 L19,12.2994012 L18.8023952,12.2634731 C18.7425147,12.2514969 18.6706591,12.245509 18.5868263,12.245509 L17.2035928,12.245509 L17.2035928,5.31137725 L2.77844311,5.31137725 L2.77844311,13.5748503 L7.73652695,13.5748503 L7.73652695,15.3892216 L2.77844311,15.3892216 C2.68263425,15.3892216 2.56886293,15.3772456 2.43712575,15.3532934 C2.34131689,15.3293412 2.23353353,15.2934134 2.11377246,15.245509 C2.01796359,15.2095807 1.92215617,15.1616769 1.82634731,15.1017964 C1.73053844,15.0419159 1.63473102,14.9670663 1.53892216,14.8772455 C1.44311329,14.7874247 1.3592818,14.6946113 1.28742515,14.5988024 C1.2155685,14.5029935 1.15868284,14.3982042 1.11676647,14.2844311 C1.07485009,14.1706581 1.04491027,14.0598808 1.02694611,13.9520958 C1.00898195,13.8443108 1,13.7185636 1,13.5748503 L1,2.77844311 C1,2.68263425 1.01197593,2.57185692 1.03592814,2.44610778 C1.05988036,2.32035865 1.08982018,2.20658734 1.1257485,2.10479042 C1.16167683,2.0029935 1.22155647,1.89820413 1.30538922,1.79041916 C1.38922198,1.68263419 1.47005949,1.59281473 1.54790419,1.52095808 C1.62574889,1.44910144 1.71257437,1.37425189 1.80838323,1.29640719 C1.9041921,1.21856249 2.00898147,1.15568886 2.12275449,1.10778443 C2.23652751,1.05988 2.34131689,1.02994018 2.43712575,1.01796407 C2.58083904,1.00598796 2.69461036,1 2.77844311,1 L17.2035928,1 C17.33533,1 17.4580833,1.00898195 17.5718563,1.02694611 C17.6856293,1.04491027 17.7874247,1.07485009 17.8772455,1.11676647 C17.9670663,1.15868284 18.0658677,1.2155685 18.1736527,1.28742515 C18.2574854,1.34730569 18.3532929,1.43113719 18.4610778,1.53892216 C18.5449106,1.62275491 18.6227541,1.71856234 18.6946108,1.82634731 C18.7664674,1.93413228 18.8203591,2.0299397 18.8562874,2.11377246 Z M3.96407186,3.62275449 C4.00000018,3.55089784 4.01796407,3.45509042 4.01796407,3.33532934 L4,3.19161677 C4,3.14371234 3.98802407,3.10179659 3.96407186,3.06586826 L3.82035928,2.83233533 L3.71257485,2.76047904 C3.66467042,2.73652683 3.62574865,2.71856293 3.59580838,2.70658683 C3.56586811,2.69461072 3.52095838,2.68862275 3.46107784,2.68862275 L3.33532934,2.67065868 L3.19161677,2.68862275 C3.15568844,2.68862275 3.11377269,2.70059868 3.06586826,2.7245509 C3.01796383,2.74850311 2.97904207,2.76946099 2.9491018,2.78742515 C2.91916153,2.80538931 2.88023976,2.83832311 2.83233533,2.88622754 C2.80838311,2.89820365 2.77844329,2.92814347 2.74251497,2.9760479 C2.73053886,3.00000012 2.71856293,3.02993994 2.70658683,3.06586826 L2.65269461,3.19161677 C2.6407185,3.21556898 2.63473054,3.26347269 2.63473054,3.33532934 L2.65269461,3.46107784 L2.68862275,3.5508982 L2.74251497,3.71257485 C2.76646719,3.76047928 2.79640701,3.79940105 2.83233533,3.82934132 C2.86826365,3.85928159 2.90419144,3.88023946 2.94011976,3.89221557 L3.06586826,3.96407186 L3.19161677,4 C3.22754509,4.01197611 3.2754488,4.01796407 3.33532934,4.01796407 C3.44311431,4.01796407 3.54191572,4.00299416 3.63173653,3.97305389 C3.72155734,3.94311362 3.79041892,3.90119787 3.83832335,3.84730539 C3.88622778,3.7934129 3.92814353,3.71856335 3.96407186,3.62275449 Z M5.65269461,3.83832335 C5.70059904,3.77844281 5.73952081,3.70958123 5.76946108,3.63173653 C5.79940135,3.55389183 5.81437126,3.45509042 5.81437126,3.33532934 L5.79640719,3.19161677 C5.79640719,3.14371234 5.78742524,3.10479057 5.76946108,3.0748503 C5.75149692,3.04491003 5.73053904,3.00598826 5.70658683,2.95808383 L5.61676647,2.83233533 C5.59281425,2.80838311 5.55988045,2.78443126 5.51796407,2.76047904 C5.47604769,2.73652683 5.43712593,2.7245509 5.4011976,2.7245509 L5.29341317,2.68862275 L5.13173653,2.67065868 L4.98802395,2.68862275 C4.95209563,2.68862275 4.91616784,2.70059868 4.88023952,2.7245509 C4.82035898,2.74850311 4.77844323,2.77245497 4.75449102,2.79640719 L4.64670659,2.88622754 C4.61077826,2.91017976 4.58083844,2.94011958 4.55688623,2.9760479 L4.55688623,2.99401198 C4.53293401,3.0299403 4.51497012,3.05988012 4.50299401,3.08383234 C4.4790418,3.11976066 4.46706587,3.16167641 4.46706587,3.20958084 L4.4491018,3.35329341 L4.46706587,3.47904192 C4.46706587,3.52694635 4.4790418,3.56287413 4.50299401,3.58682635 L4.55688623,3.71257485 L4.65568862,3.81137725 C4.68562889,3.84131751 4.71856269,3.86826335 4.75449102,3.89221557 L4.88023952,3.96407186 L4.98802395,4 C5.01197617,4.01197611 5.05987988,4.01796407 5.13173653,4.01796407 C5.2514976,4.01796407 5.35329299,4.00299416 5.43712575,3.97305389 C5.5209585,3.94311362 5.59281407,3.89820389 5.65269461,3.83832335 Z M17.2035928,2.77844311 L6.38922156,2.77844311 L6.38922156,3.85628743 L17.2035928,3.85628743 L17.2035928,2.77844311 Z M17.994012,12.9820359 C18.1377253,12.9820359 18.2694605,13.0089818 18.3892216,13.0628743 C18.5089826,13.1167667 18.616766,13.1886223 18.7125749,13.2784431 C18.8083837,13.3682639 18.8802393,13.4760473 18.9281437,13.6017964 C18.9760481,13.7275455 19,13.8562868 19,13.988024 L19,19 L8.49101796,19 L8.49101796,10 C8.49101796,9.85628671 8.51496982,9.72754548 8.56287425,9.61377246 C8.61077868,9.49999943 8.68263425,9.38323413 8.77844311,9.26347305 C8.9101803,9.15568808 9.02395162,9.08383251 9.11976048,9.04790419 C9.23952156,9.01197587 9.3652688,8.99401198 9.49700599,8.99401198 L13.4850299,8.99401198 C13.6407193,8.99401198 13.7754485,9.01496985 13.8892216,9.05688623 C14.0029946,9.0988026 14.107784,9.16766419 14.2035928,9.26347305 C14.3113778,9.38323413 14.3862273,9.49999943 14.4281437,9.61377246 C14.4700601,9.72754548 14.491018,9.85029874 14.491018,9.98203593 L14.491018,12.9820359 L17.994012,12.9820359 Z M10.988024,11.491018 L10.988024,10.4850299 L10,10.4850299 L10,11.491018 L10.988024,11.491018 Z M10.988024,13.4850299 L10.988024,12.4790419 L10,12.4790419 L10,13.4850299 L10.988024,13.4850299 Z M10.988024,15.497006 L10.988024,14.491018 L10,14.491018 L10,15.497006 L10.988024,15.497006 Z M10.988024,17.4730539 L10.988024,16.4670659 L10,16.4670659 L10,17.4730539 L10.988024,17.4730539 Z M13,11.491018 L13,10.4850299 L11.9760479,10.4850299 L11.9760479,11.491018 L13,11.491018 Z M13,13.4850299 L13,12.4790419 L11.9760479,12.4790419 L11.9760479,13.4850299 L13,13.4850299 Z M13,15.497006 L13,14.491018 L11.9760479,14.491018 L11.9760479,15.497006 L13,15.497006 Z M13,17.4730539 L13,16.4670659 L11.9760479,16.4670659 L11.9760479,17.4730539 L13,17.4730539 Z M15.497006,15.497006 L15.497006,14.491018 L14.491018,14.491018 L14.491018,15.497006 L15.497006,15.497006 Z M15.497006,17.4730539 L15.497006,16.4670659 L14.491018,16.4670659 L14.491018,17.4730539 L15.497006,17.4730539 Z M17.491018,15.497006 L17.491018,14.491018 L16.4850299,14.491018 L16.4850299,15.497006 L17.491018,15.497006 Z M17.491018,17.4730539 L17.491018,16.4670659 L16.4850299,16.4670659 L16.4850299,17.4730539 L17.491018,17.4730539 Z" id="" fill="#333333"></path>
        </g>
        <g id="icons-/-Error_Mark" transform="translate(0.000000, 12.000000)" opacity="0">
            <circle id="Oval" fill="#FFFFFF" fill-rule="nonzero" cx="4" cy="4" r="4"></circle>
            <path d="M4.00666043,0.66666822 C4.60923891,0.667230482 5.16978374,0.820408594 5.68831169,1.12620713 C6.1900347,1.42368891 6.5896311,1.82328531 6.88711289,2.32500833 C7.19347473,2.84449144 7.34665335,3.4050364 7.34665335,4.00666001 C7.34665335,4.60828362 7.19347473,5.16882857 6.88711289,5.68831169 C6.5896311,6.1900347 6.1900347,6.5896311 5.68831169,6.88711289 C5.16882857,7.19347473 4.60828362,7.34665335 4.00666001,7.34665335 C3.4050364,7.34665335 2.84449144,7.19347473 2.32500833,6.88711289 C1.82328531,6.5896311 1.42368891,6.1900347 1.12620713,5.68831169 C0.819845288,5.16882857 0.666666667,4.60828362 0.666666667,4.00666001 C0.666666667,3.4050364 0.819845288,2.84449144 1.12620713,2.32500833 C1.42368891,1.82328531 1.82328531,1.42368891 2.32500833,1.12620713 C2.84353627,0.820408594 3.4040811,0.667230482 4.00665958,0.66666822 L4.00666043,0.66666822 Z M4.00666043,0.66666822 C4.00555043,0.666667185 4.00444029,0.666666667 4.00333,0.666666667 L4.00999001,0.666666667 C4.00887973,0.666666667 4.00776958,0.666667185 4.00665958,0.66666822 L4.00666043,0.66666822 Z M4.34299034,5.67499167 L4.34299034,5.00899101 L3.67032967,5.00899101 L3.67032967,5.67499167 L4.34299034,5.67499167 Z M4.34299034,4.34299034 L4.34299034,2.33832834 L3.67032967,2.33832834 L3.67032967,4.34299034 L4.34299034,4.34299034 Z" id="" fill="#F83200"></path>
        </g>
    </g>
</svg>