<?xml version="1.0" encoding="UTF-8"?>
<svg width="20px" height="20px" viewBox="0 0 20 20" version="1.1" xmlns="http://www.w3.org/2000/svg" xmlns:xlink="http://www.w3.org/1999/xlink">
    <!-- Generator: Sketch 51.3 (57544) - http://www.bohemiancoding.com/sketch -->
    <title>icons / classes/ BMC_UDDIServer_32</title>
    <desc>Created with Sketch.</desc>
    <defs></defs>
    <g id="icons-/-classes/-BMC_UDDIServer_32" stroke="none" stroke-width="1" fill="none" fill-rule="evenodd">
        <g>
            <g id="icons-/-20x20-icon-field" fill="#F5A623" fill-rule="nonzero" opacity="0">
                <rect x="0" y="0" width="20" height="20"></rect>
            </g>
            <path d="M17.125,17.4333333 L17.9166667,17.4333333 L17.9166667,12.5 L17.125,12.5 L17.125,17.4333333 Z M15.25,14.95 C15.25,15.4 15.1666667,15.7666667 15,16.05 C14.7333333,16.5166667 14.2333333,16.7583333 13.5,16.7583333 L12.9333333,16.7583333 L12.9333333,13.175 L13.625,13.175 C14.2833333,13.175 14.7408333,13.3916667 15,13.8333333 C15.1666667,14.1166667 15.25,14.4833333 15.25,14.95 Z M13.6416667,12.5 L12.1416667,12.5 L12.1416667,17.4333333 L13.5,17.4333333 C14.1,17.4333333 14.6,17.3166667 15,17.0916667 C15.1575,17.0083333 15.2916667,16.9 15.4166667,16.7833333 C15.8583333,16.3583333 16.0833333,15.7333333 16.0833333,14.9166667 C16.0833333,14.15 15.8666667,13.5583333 15.4416667,13.1333333 C15.3083333,13 15.1666667,12.8916667 15,12.8083333 C14.6341667,12.6 14.175,12.5 13.6416667,12.5 Z M8.51666667,16.7583333 L7.95833333,16.7583333 L7.95833333,13.175 L8.64166667,13.175 C9.725,13.175 10.2666667,13.7666667 10.2666667,14.95 C10.2666667,16.15 9.68333333,16.7583333 8.51666667,16.7583333 Z M8.65833333,12.5 L7.16666667,12.5 L7.16666667,17.4333333 L8.51666667,17.4333333 C9.35,17.4333333 9.99166667,17.2166667 10.4333333,16.7833333 C10.8841667,16.3583333 11.1,15.7333333 11.1,14.9166667 C11.1,14.15 10.8916667,13.5583333 10.4583333,13.1333333 C10.0333333,12.7083333 9.43333333,12.5 8.65833333,12.5 Z M5.13333333,12.5 L5.925,12.5 L5.925,15.6916667 C5.925,16.0583333 5.85,16.375 5.69166667,16.65 C5.54166667,16.925 5.31666667,17.1333333 5.025,17.275 C4.74083333,17.425 4.39166667,17.5 3.98333333,17.5 C3.38416667,17.5 2.91666667,17.3416667 2.58333333,17.0166667 C2.25,16.6916667 2.08333333,16.2416667 2.08333333,15.675 L2.08333333,12.5 L2.875,12.5 L2.875,15.6166667 C2.875,16.025 2.975,16.325 3.15833333,16.525 C3.34166667,16.7166667 3.625,16.8083333 4.00916667,16.8083333 C4.75833333,16.8083333 5.13333333,16.4166667 5.13333333,15.6166667 L5.13333333,12.5 Z M0.833333333,19.1666667 L19.1666667,19.1666667 L19.1666667,10.8333333 L0.833333333,10.8333333 L0.833333333,19.1666667 Z M4.16666667,7.5 L10.8333333,7.5 L10.8333333,4.16666667 L4.16666667,4.16666667 L4.16666667,7.5 Z M15,10 L15,1.58333333 C15,0.708333333 14.2833333,0 13.3916667,0 L1.60833333,0 C0.716666667,0 0,0.708333333 0,1.58333333 L0,10 L0,18.4166667 L0,20 L1.60833333,20 L13.3916667,20 L20,20 L20,10 L15,10 Z" id="Fill-1" fill="#333333"></path>
            <g id="icons-/-Error_Mark" transform="translate(0.000000, 12.000000)" opacity="0">
                <circle id="Oval" fill="#FFFFFF" fill-rule="nonzero" cx="4" cy="4" r="4"></circle>
                <path d="M4.00666043,0.66666822 C4.60923891,0.667230482 5.16978374,0.820408594 5.68831169,1.12620713 C6.1900347,1.42368891 6.5896311,1.82328531 6.88711289,2.32500833 C7.19347473,2.84449144 7.34665335,3.4050364 7.34665335,4.00666001 C7.34665335,4.60828362 7.19347473,5.16882857 6.88711289,5.68831169 C6.5896311,6.1900347 6.1900347,6.5896311 5.68831169,6.88711289 C5.16882857,7.19347473 4.60828362,7.34665335 4.00666001,7.34665335 C3.4050364,7.34665335 2.84449144,7.19347473 2.32500833,6.88711289 C1.82328531,6.5896311 1.42368891,6.1900347 1.12620713,5.68831169 C0.819845288,5.16882857 0.666666667,4.60828362 0.666666667,4.00666001 C0.666666667,3.4050364 0.819845288,2.84449144 1.12620713,2.32500833 C1.42368891,1.82328531 1.82328531,1.42368891 2.32500833,1.12620713 C2.84353627,0.820408594 3.4040811,0.667230482 4.00665958,0.66666822 L4.00666043,0.66666822 Z M4.00666043,0.66666822 C4.00555043,0.666667185 4.00444029,0.666666667 4.00333,0.666666667 L4.00999001,0.666666667 C4.00887973,0.666666667 4.00776958,0.666667185 4.00665958,0.66666822 L4.00666043,0.66666822 Z M4.34299034,5.67499167 L4.34299034,5.00899101 L3.67032967,5.00899101 L3.67032967,5.67499167 L4.34299034,5.67499167 Z M4.34299034,4.34299034 L4.34299034,2.33832834 L3.67032967,2.33832834 L3.67032967,4.34299034 L4.34299034,4.34299034 Z" id="" fill="#F83200"></path>
            </g>
        </g>
    </g>
</svg>