<?xml version="1.0" encoding="UTF-8"?>
<svg width="20px" height="20px" viewBox="0 0 20 20" version="1.1" xmlns="http://www.w3.org/2000/svg" xmlns:xlink="http://www.w3.org/1999/xlink">
    <!-- Generator: Sketch 51.3 (57544) - http://www.bohemiancoding.com/sketch -->
    <title>icons / classes/ BMC_LNsCollection_32_Error</title>
    <desc>Created with Sketch.</desc>
    <defs></defs>
    <g id="icons-/-classes/-BMC_LNsCollection_32" stroke="none" stroke-width="1" fill="none" fill-rule="evenodd">
        <g id="icons-/-classes/-LNs-Collection">
            <g id="icons-/-20x20-icon-field" fill="#F5A623" fill-rule="nonzero" opacity="0">
                <rect x="0" y="0" width="20" height="20"></rect>
            </g>
            <path d="M2.52847153,8.96903097 C2.31268623,8.96903097 2.11188904,8.93906124 1.92607393,8.87912088 C1.74025881,8.81918052 1.58141924,8.72927133 1.44955045,8.60939061 C1.29370551,8.46553375 1.17982054,8.30969115 1.10789211,8.14185814 C1.03596368,7.97402513 1,7.79420675 1,7.6023976 L1,2.18981019 C1,1.98601297 1.03596368,1.79720367 1.10789211,1.62337662 C1.17982054,1.44954958 1.29070854,1.28471606 1.44055944,1.12887113 C1.59041034,0.973026194 1.74924991,0.862138192 1.91708292,0.796203796 C2.08491592,0.730269401 2.28871009,0.697302697 2.52847153,0.697302697 L4.66833167,0.697302697 L7.43756244,3.44855145 L7.43756244,7.6023976 C7.43756244,7.79420675 7.40159876,7.97702211 7.32967033,8.15084915 C7.2577419,8.32467619 7.15284784,8.47752182 7.01498501,8.60939061 C6.87712219,8.7412594 6.72127959,8.83716254 6.54745255,8.8971029 C6.3736255,8.95704326 6.19081015,8.98701299 5.999001,8.98701299 L2.52847153,8.98701299 L2.52847153,8.96903097 Z M13.5874126,11.1988012 L19.017982,11.1988012 L19.017982,18.7152847 L2.52847153,18.7152847 C2.31268623,18.7152847 2.11188904,18.679321 1.92607393,18.6073926 C1.74025881,18.5354642 1.58141924,18.4335671 1.44955045,18.3016983 C1.29370551,18.1698295 1.17982054,18.0229778 1.10789211,17.8611389 C1.03596368,17.6992999 1,17.5164845 1,17.3126873 L1,11.9000999 C1,11.6963027 1.03596368,11.5044964 1.10789211,11.3246753 C1.17982054,11.1448542 1.29370551,10.9770238 1.44955045,10.8211788 C1.60539538,10.6653339 1.7702289,10.5514489 1.94405594,10.4795205 C2.11788299,10.407592 2.31268623,10.3716284 2.52847153,10.3716284 L4.66833167,10.3716284 L5.4955045,11.2167832 L5.4955045,11.1988012 L9.28971029,11.1988012 C9.33766258,11.1028966 9.37362625,11.0369632 9.3976024,11.000999 L9.41558442,10.983017 C9.4635367,10.9110886 9.50549433,10.863137 9.54145854,10.8391608 C9.69730348,10.6713278 9.86513397,10.5514489 10.044955,10.4795205 C10.2247761,10.407592 10.4165824,10.3716284 10.6203796,10.3716284 L12.7782218,10.3716284 L13.5874126,11.1988012 Z M2.38461538,2.06393606 L2.38461538,7.6023976 L6.05294705,7.6023976 L6.05294705,3.80819181 L4.30869131,3.80819181 L4.30869131,2.06393606 L2.38461538,2.06393606 Z M2.38461538,17.3126873 L5.4955045,17.3126873 L5.4955045,13.4825175 L4.30869131,13.4825175 L4.30869131,11.7742258 L2.38461538,11.7742258 L2.38461538,17.3126873 Z M18.2447552,17.9420579 L18.2447552,11.954046 L6.25074925,11.954046 L6.25074925,17.9420579 L18.2447552,17.9420579 Z M8.01298701,16.6833167 L10.1168831,16.6833167 L10.1168831,17.1868132 L7.45554446,17.1868132 L7.45554446,12.8891109 L8.01298701,12.8891109 L8.01298701,16.6833167 Z M10.6203796,8.96903097 C10.4045943,8.96903097 10.2067941,8.93906124 10.026973,8.87912088 C9.84715195,8.81918052 9.6853154,8.72627436 9.54145854,8.6003996 C9.39760168,8.47452485 9.28671368,8.32167922 9.20879121,8.14185814 C9.13086874,7.96203706 9.09190809,7.78221868 9.09190809,7.6023976 L9.09190809,2.18981019 C9.09190809,1.98601297 9.12787177,1.80020064 9.1998002,1.63236763 C9.27172863,1.46453463 9.38261663,1.29970111 9.53246753,1.13786214 C9.68231843,0.976023167 9.84715195,0.859141219 10.026973,0.787212787 C10.182818,0.727272428 10.3806182,0.697302697 10.6203796,0.697302697 L12.7782218,0.697302697 L15.5474525,3.44855145 L15.5474525,7.6023976 C15.5474525,7.79420675 15.5114889,7.97702211 15.4395604,8.15084915 C15.367632,8.32467619 15.262738,8.47752182 15.1248751,8.60939061 C14.9870123,8.7412594 14.8311697,8.83716254 14.6573427,8.8971029 C14.4835156,8.95704326 14.2947063,8.98701299 14.0909091,8.98701299 L10.6203796,8.98701299 L10.6203796,8.96903097 Z M10.4945055,2.06393606 L10.4945055,7.6023976 L14.1628372,7.6023976 L14.1628372,3.80819181 L12.4365634,3.80819181 L12.4365634,2.06393606 L10.4945055,2.06393606 Z M13.6413586,12.9070929 L14.1808192,12.9070929 L14.1808192,17.2047952 L13.5874126,17.2047952 L11.3396603,13.8241758 L11.3396603,17.2047952 L10.7822178,17.2047952 L10.7822178,12.9070929 L11.3936064,12.9070929 L13.6413586,16.2877123 L13.6413586,12.9070929 Z M16.1948052,16.8451548 C16.3026978,16.8451548 16.401598,16.833167 16.4915085,16.8091908 C16.581419,16.7852147 16.6533464,16.749251 16.7072927,16.7012987 C16.761239,16.6533464 16.8031967,16.5994009 16.8331668,16.5394605 C16.863137,16.4795202 16.8781219,16.4195807 16.8781219,16.3596404 C16.8781219,16.2997 16.866134,16.2457545 16.8421578,16.1978022 C16.8181817,16.1498499 16.779221,16.1078923 16.7252747,16.0719281 C16.6713284,16.0359639 16.608392,16.0059941 16.5364635,15.982018 L15.6913087,15.7482517 C15.5474518,15.7002995 15.4455547,15.6613388 15.3856144,15.6313686 C15.325674,15.6013985 15.2627376,15.5624378 15.1968032,15.5144855 C15.1308688,15.4665332 15.0799203,15.4095907 15.043956,15.3436563 C15.0079918,15.2777219 14.9780221,15.2057946 14.954046,15.1278721 C14.9300698,15.0499497 14.9180819,14.9780223 14.9180819,14.9120879 C14.9180819,14.8461535 14.9300698,14.7802201 14.954046,14.7142857 C14.9780221,14.6483513 15.0019979,14.5914088 15.025974,14.5434565 L15.1338661,14.3816184 C15.1698303,14.321678 15.2147849,14.2737265 15.2687313,14.2377622 C15.3226776,14.201798 15.3796201,14.1718283 15.4395604,14.1478521 L15.6373626,14.0759241 L15.8531469,14.03996 C15.9010991,14.027972 15.9790204,14.021978 16.0869131,14.021978 C16.23077,14.021978 16.3506489,14.0339659 16.4465534,14.0579421 C16.5664342,14.0819182 16.6623373,14.1118879 16.7342657,14.1478521 C16.8301703,14.1838164 16.9110886,14.222777 16.977023,14.2647353 C17.0429574,14.3066935 17.0969029,14.3576421 17.1388611,14.4175824 C17.1808194,14.4775228 17.2167831,14.5494501 17.2467532,14.6333666 C17.2767234,14.7172831 17.2977022,14.8011984 17.3096903,14.8851149 L16.8061938,14.957043 C16.7822177,14.8851145 16.7582419,14.8191811 16.7342657,14.7592408 C16.7102896,14.6993004 16.668332,14.6453549 16.6083916,14.5974026 C16.5484512,14.5494503 16.4735269,14.5134866 16.3836164,14.4895105 C16.2937058,14.4655343 16.2007997,14.4535465 16.1048951,14.4535465 C15.9850144,14.4535465 15.8801203,14.4625374 15.7902098,14.4805195 C15.7002993,14.4985016 15.6313689,14.5284713 15.5834166,14.5704296 C15.5354643,14.6123878 15.4995006,14.6603394 15.4755245,14.7142857 C15.4515483,14.768232 15.4395604,14.8191806 15.4395604,14.8671329 L15.4575425,14.975025 C15.4575425,14.9990011 15.4755243,15.0289708 15.5114885,15.0649351 L15.5834166,15.1188811 C15.6193808,15.1428573 15.6613384,15.166833 15.7092907,15.1908092 C15.7212788,15.2027973 15.7692303,15.2207791 15.8531469,15.2447552 L16.1768232,15.3346653 C16.3686323,15.3826176 16.5244749,15.4245752 16.6443556,15.4605395 L16.95005,15.5864136 C16.9860142,15.5984017 17.0399597,15.6223774 17.1118881,15.6583417 L17.1478521,15.6943057 C17.2077925,15.7302699 17.2557441,15.7782215 17.2917083,15.8381618 C17.3276725,15.8981022 17.3606392,15.9670326 17.3906094,16.044955 C17.4205796,16.1228775 17.4355644,16.2037958 17.4355644,16.2877123 C17.4355644,16.3716288 17.4205796,16.458541 17.3906094,16.5484515 C17.3606392,16.6383621 17.3216786,16.7222773 17.2737263,16.8001998 C17.225774,16.8781223 17.1568436,16.9500496 17.0669331,17.015984 C16.9770225,17.0819184 16.8961043,17.132867 16.8241758,17.1688312 C16.7282712,17.2047954 16.6233772,17.2347651 16.5094905,17.2587413 C16.3956038,17.2827174 16.2787219,17.2947053 16.1588412,17.2947053 C15.967032,17.2947053 15.7932076,17.2737265 15.6373626,17.2317682 C15.4815177,17.18981 15.3496509,17.1238766 15.2417582,17.033966 C15.1338656,16.9440555 15.0469534,16.8361645 14.981019,16.7102897 C14.9150846,16.584415 14.87013,16.4435572 14.8461538,16.2877123 L15.3496503,16.1978022 C15.3736265,16.3176829 15.4095902,16.41958 15.4575425,16.5034965 C15.5054947,16.587413 15.5594403,16.6533464 15.6193806,16.7012987 C15.679321,16.749251 15.7512483,16.7912086 15.8351648,16.8271728 C15.8831171,16.8391609 15.9790203,16.8451548 16.1228771,16.8451548 L16.1948052,16.8451548 Z" id="" fill="#333333"></path>
        </g>
        <g id="icons-/-Error_Mark" transform="translate(0.000000, 12.000000)">
            <circle id="Oval" fill="#FFFFFF" fill-rule="nonzero" cx="4" cy="4" r="4"></circle>
            <path d="M4.00666043,0.66666822 C4.60923891,0.667230482 5.16978374,0.820408594 5.68831169,1.12620713 C6.1900347,1.42368891 6.5896311,1.82328531 6.88711289,2.32500833 C7.19347473,2.84449144 7.34665335,3.4050364 7.34665335,4.00666001 C7.34665335,4.60828362 7.19347473,5.16882857 6.88711289,5.68831169 C6.5896311,6.1900347 6.1900347,6.5896311 5.68831169,6.88711289 C5.16882857,7.19347473 4.60828362,7.34665335 4.00666001,7.34665335 C3.4050364,7.34665335 2.84449144,7.19347473 2.32500833,6.88711289 C1.82328531,6.5896311 1.42368891,6.1900347 1.12620713,5.68831169 C0.819845288,5.16882857 0.666666667,4.60828362 0.666666667,4.00666001 C0.666666667,3.4050364 0.819845288,2.84449144 1.12620713,2.32500833 C1.42368891,1.82328531 1.82328531,1.42368891 2.32500833,1.12620713 C2.84353627,0.820408594 3.4040811,0.667230482 4.00665958,0.66666822 L4.00666043,0.66666822 Z M4.00666043,0.66666822 C4.00555043,0.666667185 4.00444029,0.666666667 4.00333,0.666666667 L4.00999001,0.666666667 C4.00887973,0.666666667 4.00776958,0.666667185 4.00665958,0.66666822 L4.00666043,0.66666822 Z M4.34299034,5.67499167 L4.34299034,5.00899101 L3.67032967,5.00899101 L3.67032967,5.67499167 L4.34299034,5.67499167 Z M4.34299034,4.34299034 L4.34299034,2.33832834 L3.67032967,2.33832834 L3.67032967,4.34299034 L4.34299034,4.34299034 Z" id="" fill="#F83200"></path>
        </g>
    </g>
</svg>