<?xml version="1.0" encoding="UTF-8"?>
<svg width="20px" height="20px" viewBox="0 0 20 20" version="1.1" xmlns="http://www.w3.org/2000/svg" xmlns:xlink="http://www.w3.org/1999/xlink">
    <!-- Generator: Sketch 51.3 (57544) - http://www.bohemiancoding.com/sketch -->
    <title>icons / classes/ BMC_Hub_32_Error</title>
    <desc>Created with Sketch.</desc>
    <defs></defs>
    <g id="icons-/-classes/-BMC_Hub_32" stroke="none" stroke-width="1" fill="none" fill-rule="evenodd">
        <g id="icons-/-classes/-Hub">
            <g id="icons-/-20x20-icon-field" fill="#F5A623" fill-rule="nonzero" opacity="0">
                <rect x="0" y="0" width="20" height="20"></rect>
            </g>
            <path d="M3.3016983,12.6553447 C3.3016983,12.9670345 3.18781333,13.2367621 2.96003996,13.4645355 C2.73226659,13.6923088 2.45954205,13.8061938 2.14185814,13.8061938 C1.82417424,13.8061938 1.55444666,13.6953058 1.33266733,13.4735265 C1.110888,13.2517471 1,12.9790226 1,12.6553447 C1,12.3316667 1.11388498,12.0559452 1.34165834,11.8281718 C1.56943171,11.6003985 1.84215625,11.4865135 2.15984016,11.4865135 C2.47752407,11.4865135 2.74725164,11.6033954 2.96903097,11.8371628 C3.1908103,12.0709302 3.3016983,12.3436548 3.3016983,12.6553447 Z M5.06393606,1.99200799 C5.06393606,2.30369786 4.95005109,2.57342543 4.72227772,2.8011988 C4.49450436,3.02897217 4.22477678,3.14285714 3.91308691,3.14285714 C3.60139704,3.14285714 3.33466644,3.02897217 3.11288711,2.8011988 C2.89110778,2.57342543 2.78021978,2.30070089 2.78021978,1.98301698 C2.78021978,1.66533308 2.89410476,1.3956055 3.12187812,1.17382617 C3.34965149,0.952046843 3.61937906,0.841158841 3.93106893,0.841158841 C4.2427588,0.841158841 4.5094894,0.952046843 4.73126873,1.17382617 C4.95304806,1.3956055 5.06393606,1.66833005 5.06393606,1.99200799 Z M3.98501499,11.2887113 L4.9020979,10.7852148 C4.99800248,10.7372625 5.09690259,10.7282716 5.1988012,10.7582418 C5.30069981,10.7882119 5.38161808,10.8511484 5.44155844,10.9470529 C5.5014988,11.0429575 5.51648367,11.1418576 5.48651349,11.2437562 C5.45654331,11.3456549 5.39360687,11.4205792 5.2977023,11.4685315 L4.34465534,11.99001 L4.27272727,12.007992 C4.23676306,12.0199801 4.20679333,12.025974 4.18281718,12.025974 C4.11088875,12.025974 4.04495534,12.0109892 3.98501499,11.981019 C3.92507463,11.9510488 3.87112911,11.9001003 3.82317682,11.8281718 C3.76323646,11.7202792 3.75124857,11.6153851 3.78721279,11.5134865 C3.823177,11.4115879 3.88911041,11.3366636 3.98501499,11.2887113 Z M5.17182817,3.5024975 L5.62137862,4.34765235 C5.68131898,4.44355692 5.69630385,4.54245703 5.66633367,4.64435564 C5.63636349,4.74625426 5.57342705,4.82117858 5.47752248,4.86913087 L5.36963037,4.92307692 L5.27972028,4.92307692 C5.20779185,4.92307692 5.14185844,4.90209811 5.08191808,4.86013986 C5.02197772,4.81818161 4.97402615,4.76723307 4.93806194,4.70729271 L4.48851149,3.86213786 C4.45254727,3.79020943 4.44355635,3.70329721 4.46153846,3.6013986 C4.47952057,3.49949999 4.542457,3.41858172 4.65034965,3.35864136 C4.7582423,3.298701 4.86013938,3.28371613 4.95604396,3.31368631 C5.05194853,3.34365649 5.12387588,3.40659293 5.17182817,3.5024975 Z M6.1968032,6.95504496 C6.12487477,6.91908074 6.0769232,6.86513522 6.05294705,6.79320679 L5.6033966,5.96603397 C5.54345624,5.87012939 5.53146835,5.77122928 5.56743257,5.66933067 C5.60339678,5.56743206 5.66933019,5.48951076 5.76523477,5.43556444 C5.86113934,5.38161811 5.96003945,5.37262719 6.06193806,5.40859141 C6.16383667,5.44455562 6.238761,5.51048903 6.28671329,5.60639361 L6.73626374,6.41558442 C6.7962041,6.52347706 6.80819199,6.62837112 6.77222777,6.73026973 C6.73626356,6.83216834 6.67033015,6.90709267 6.57442557,6.95504496 C6.5624375,6.9790211 6.53846172,6.99100899 6.5024975,6.99100899 L6.41258741,7.00899101 C6.32867091,7.00899101 6.25674356,6.99100917 6.1968032,6.95504496 Z M15.997003,1.2007992 C16.332669,1.53646521 16.5004995,1.94705052 16.5004995,2.43256743 C16.5004995,2.91808435 16.332669,3.3346636 15.997003,3.68231768 C15.661337,4.02997177 15.2477547,4.2037962 14.7562438,4.2037962 C14.6123869,4.2037962 14.4775231,4.18881134 14.3516484,4.15884116 C14.2257736,4.12887098 14.1028977,4.08391638 13.983017,4.02397602 L9.99100899,8.21378621 C10.1348659,8.41758344 10.2367629,8.62737155 10.2967033,8.84315684 C10.3686317,9.08291828 10.4045954,9.32267612 10.4045954,9.56243756 C10.4045954,10.0299724 10.2817195,10.4525456 10.035964,10.8301698 C9.79020856,11.2077941 9.46953245,11.4985005 9.07392607,11.7022977 L9.95504496,15.2087912 C10.4225798,15.2207793 10.8181802,15.4005977 11.1418581,15.7482517 C11.4655361,16.0959058 11.6273726,16.5064911 11.6273726,16.98002 C11.6273726,17.4535488 11.4535482,17.8611372 11.1058941,18.2027972 C10.75824,18.5444573 10.3446577,18.7152847 9.86513487,18.7152847 C9.38561199,18.7152847 8.97202971,18.5444573 8.62437562,18.2027972 C8.27672154,17.8611372 8.1028971,17.4505518 8.1028971,16.971029 C8.1028971,16.635363 8.18381537,16.3386626 8.34565435,16.0809191 C8.50749332,15.8231755 8.70229656,15.6223783 8.93006993,15.4785215 L8.04895105,11.954046 L7.95904096,11.954046 C7.31168507,11.954046 6.74825415,11.7202821 6.26873127,11.2527473 C5.78920839,10.7852124 5.54945055,10.2187845 5.54945055,9.55344655 C5.54945055,8.88810856 5.78621142,8.32168066 6.25974026,7.85414585 C6.7332691,7.38661105 7.299697,7.15284715 7.95904096,7.15284715 C8.1988024,7.15284715 8.42357537,7.18281688 8.63336663,7.24275724 C8.84315789,7.3026976 9.03196719,7.3806189 9.1998002,7.47652348 L13.2097902,3.28671329 C13.1258737,3.14285642 13.0719282,3.01098961 13.047952,2.89110889 C12.9999998,2.73526396 12.976024,2.57942136 12.976024,2.42357642 C12.976024,1.94405355 13.1498484,1.53346824 13.4975025,1.19180819 C13.8451566,0.850148142 14.2617358,0.679320679 14.7472527,0.679320679 C15.2327697,0.679320679 15.6493489,0.853145115 15.997003,1.2007992 Z M9.14585415,10.2277722 C9.21778258,10.1198796 9.26573415,10.0000007 9.28971029,9.86813187 L9.32567433,9.70629371 C9.3376624,9.65834142 9.34365634,9.61038985 9.34365634,9.56243756 C9.34365634,9.46653299 9.33166845,9.37062985 9.30769231,9.27472527 C9.28371616,9.1788207 9.25374643,9.08891151 9.21778222,9.004995 C9.14585379,8.84915007 9.04695368,8.70529536 8.92107892,8.57342657 C8.79520417,8.44155778 8.64235854,8.34565465 8.46253746,8.28571429 L8.22877123,8.21378621 C8.1568428,8.20179814 8.07292755,8.1958042 7.97702298,8.1958042 L7.83316683,8.1958042 L7.70729271,8.21378621 C7.56343584,8.24975043 7.43756298,8.297702 7.32967033,8.35764236 C7.22177768,8.41758272 7.1198806,8.48951007 7.02397602,8.57342657 C6.88011916,8.71728344 6.7752251,8.87012906 6.70929071,9.03196803 C6.64335631,9.193807 6.61038961,9.36463447 6.61038961,9.54445554 L6.62837163,9.83216783 C6.67632392,9.98801277 6.72427548,10.1138856 6.77222777,10.2097902 C6.85614428,10.3536471 6.93406557,10.4555442 7.00599401,10.5154845 C7.11388665,10.6233772 7.22777163,10.7072924 7.34765235,10.7672328 C7.46753307,10.8271731 7.61138777,10.8631368 7.77922078,10.8751249 C7.79120885,10.8871129 7.82117858,10.8991008 7.86913087,10.9110889 L7.95904096,10.9110889 C8.11488589,10.9110889 8.26473455,10.8841162 8.40859141,10.8301698 C8.55244827,10.7762235 8.67832114,10.7072931 8.78621379,10.6233766 L8.84015984,10.5874126 C8.86413598,10.5754245 8.88211782,10.5574427 8.89410589,10.5334665 L8.89410589,10.5154845 C9.00199854,10.4435561 9.08591379,10.3476529 9.14585415,10.2277722 Z M9.14585415,16.2877123 C9.06193764,16.3836169 8.99600424,16.4855139 8.94805195,16.5934066 C8.90009966,16.7012992 8.87612388,16.8211782 8.87612388,16.953047 C8.87612388,17.2167845 8.97202701,17.4445545 9.16383616,17.6363636 C9.35564531,17.8281728 9.58341526,17.9240759 9.84715285,17.9240759 C10.1108904,17.9240759 10.3416574,17.8251758 10.5394605,17.6273726 C10.7372637,17.4295694 10.8361638,17.2047965 10.8361638,16.953047 C10.8361638,16.7492497 10.7702304,16.5604404 10.6383616,16.3866134 C10.5064928,16.2127863 10.3446563,16.0959044 10.1528472,16.035964 C10.1168829,16.0119879 10.0689314,15.9940061 10.008991,15.982018 L9.84715285,15.982018 C9.72727213,15.982018 9.60439623,16.0089907 9.47852148,16.0629371 C9.35264672,16.1168834 9.24175872,16.1918077 9.14585415,16.2877123 Z M10.9260739,10.7672328 L11.8431568,11.3066933 C11.9390614,11.3546456 12.0019979,11.4295699 12.031968,11.5314685 C12.0619382,11.6333671 12.0469533,11.7322673 11.987013,11.8281718 C11.9510488,11.9001003 11.9030972,11.9510488 11.8431568,11.981019 C11.7832165,12.0109892 11.7172831,12.025974 11.6453546,12.025974 L11.5554446,12.025974 C11.5194803,12.013986 11.4895106,11.9960041 11.4655345,11.972028 L10.5484515,11.4685315 C10.452547,11.4085911 10.3896105,11.3246759 10.3596404,11.2167832 C10.3296702,11.1088906 10.3416581,11.0069935 10.3956044,10.9110889 C10.4495507,10.8151843 10.530469,10.7582418 10.6383616,10.7402597 C10.7462543,10.7222776 10.8421574,10.7312686 10.9260739,10.7672328 Z M13.1918082,12.0619381 L14.1088911,12.6013986 C14.1928076,12.6373628 14.2527471,12.7092902 14.2887113,12.8171828 C14.3246755,12.9250755 14.3066937,13.0269725 14.2347652,13.1228771 C14.198801,13.1828175 14.1538464,13.2307691 14.0999001,13.2667333 C14.0459538,13.3026975 13.9830173,13.3206793 13.9110889,13.3206793 L13.8031968,13.3026973 C13.7672326,13.3026973 13.7372629,13.2907094 13.7132867,13.2667333 L12.7962038,12.7452547 C12.7002992,12.6853144 12.6403598,12.6043961 12.6163836,12.5024975 C12.5924075,12.4005989 12.6103893,12.3016988 12.6703297,12.2057942 C12.73027,12.1098896 12.8081913,12.0529471 12.9040959,12.034965 C13.0000005,12.0169829 13.0959036,12.0259738 13.1918082,12.0619381 Z M14.7382617,3.39460539 C15.0019993,3.39460539 15.2297693,3.30169923 15.4215784,3.11588412 C15.6133876,2.930069 15.7092907,2.708293 15.7092907,2.45054945 C15.7092907,2.1928059 15.6163845,1.96803293 15.4305694,1.77622378 C15.2447543,1.58441463 15.0199813,1.48851149 14.7562438,1.48851149 C14.4925062,1.48851149 14.2617393,1.58141765 14.0639361,1.76723277 C13.8661329,1.95304788 13.7672328,2.18381481 13.7672328,2.45954046 L13.7852148,2.58541459 L13.8031968,2.67532468 C13.8511491,2.85514575 13.9410583,3.01098835 14.0729271,3.14285714 C14.2047959,3.27472593 14.3666324,3.35864118 14.5584416,3.39460539 L14.7382617,3.39460539 Z M17.0579421,13.968032 C17.0579421,14.2917099 16.9470541,14.5644345 16.7252747,14.7862138 C16.5034954,15.0079931 16.2337678,15.1188811 15.9160839,15.1188811 C15.5984,15.1188811 15.3286724,15.0079931 15.1068931,14.7862138 C14.8851138,14.5644345 14.7742258,14.2947069 14.7742258,13.977023 C14.7742258,13.6593391 14.8851138,13.3896115 15.1068931,13.1678322 C15.3286724,12.9460528 15.5984,12.8351648 15.9160839,12.8351648 C16.2337678,12.8351648 16.5034954,12.9460528 16.7252747,13.1678322 C16.9470541,13.3896115 17.0579421,13.6563421 17.0579421,13.968032 Z" id="" fill="#333333"></path>
        </g>
        <g id="icons-/-Error_Mark" transform="translate(0.000000, 12.000000)">
            <circle id="Oval" fill="#FFFFFF" fill-rule="nonzero" cx="4" cy="4" r="4"></circle>
            <path d="M4.00666043,0.66666822 C4.60923891,0.667230482 5.16978374,0.820408594 5.68831169,1.12620713 C6.1900347,1.42368891 6.5896311,1.82328531 6.88711289,2.32500833 C7.19347473,2.84449144 7.34665335,3.4050364 7.34665335,4.00666001 C7.34665335,4.60828362 7.19347473,5.16882857 6.88711289,5.68831169 C6.5896311,6.1900347 6.1900347,6.5896311 5.68831169,6.88711289 C5.16882857,7.19347473 4.60828362,7.34665335 4.00666001,7.34665335 C3.4050364,7.34665335 2.84449144,7.19347473 2.32500833,6.88711289 C1.82328531,6.5896311 1.42368891,6.1900347 1.12620713,5.68831169 C0.819845288,5.16882857 0.666666667,4.60828362 0.666666667,4.00666001 C0.666666667,3.4050364 0.819845288,2.84449144 1.12620713,2.32500833 C1.42368891,1.82328531 1.82328531,1.42368891 2.32500833,1.12620713 C2.84353627,0.820408594 3.4040811,0.667230482 4.00665958,0.66666822 L4.00666043,0.66666822 Z M4.00666043,0.66666822 C4.00555043,0.666667185 4.00444029,0.666666667 4.00333,0.666666667 L4.00999001,0.666666667 C4.00887973,0.666666667 4.00776958,0.666667185 4.00665958,0.66666822 L4.00666043,0.66666822 Z M4.34299034,5.67499167 L4.34299034,5.00899101 L3.67032967,5.00899101 L3.67032967,5.67499167 L4.34299034,5.67499167 Z M4.34299034,4.34299034 L4.34299034,2.33832834 L3.67032967,2.33832834 L3.67032967,4.34299034 L4.34299034,4.34299034 Z" id="" fill="#F83200"></path>
        </g>
    </g>
</svg>