<?xml version="1.0" encoding="UTF-8"?>
<svg width="20px" height="20px" viewBox="0 0 20 20" version="1.1" xmlns="http://www.w3.org/2000/svg" xmlns:xlink="http://www.w3.org/1999/xlink">
    <!-- Generator: Sketch 51.3 (57544) - http://www.bohemiancoding.com/sketch -->
    <title>icons / classes/ BMC_BusinessServiceBusiness_32_Error</title>
    <desc>Created with Sketch.</desc>
    <defs></defs>
    <g id="icons-/-classes/-BMC_BusinessServiceBusiness_32" stroke="none" stroke-width="1" fill="none" fill-rule="evenodd">
        <g>
            <g id="icons-/-20x20-icon-field" fill="#F5A623" fill-rule="nonzero" opacity="0">
                <rect x="0" y="0" width="20" height="20"></rect>
            </g>
            <path d="M10.8651349,16.8421578 C10.8651349,16.9260743 10.8831167,17.0459533 10.9190809,17.2017982 C10.6913076,17.3456551 10.4575437,17.4175824 10.2177822,17.4175824 C9.72627127,17.4175824 9.28271926,17.1538488 8.88711289,16.6263736 C8.52747073,16.1588388 8.22177948,15.4875169 7.97002997,14.6123876 L7.80819181,14.7022977 C6.89709834,15.1818206 6.13586719,15.4215784 5.52447552,15.4215784 C5.05694072,15.4215784 4.68531606,15.2837177 4.40959041,15.007992 C4.13386476,14.7322664 3.996004,14.3606417 3.996004,13.8931069 C3.996004,13.2697272 4.23576184,12.508496 4.71528472,11.6093906 L4.80519481,11.4295704 C3.93006555,11.1778209 3.2587436,10.8721297 2.79120879,10.5124875 C2.26373363,10.1168811 2,9.67932308 2,9.1998002 C2,8.72027732 2.26373363,8.28271926 2.79120879,7.88711289 C3.2587436,7.52747073 3.93006555,7.22777343 4.80519481,6.98801199 L4.71528472,6.79020979 C4.23576184,5.8911044 3.996004,5.12987325 3.996004,4.50649351 C3.996004,4.0389587 4.13386476,3.66733405 4.40959041,3.39160839 C4.74525642,3.05594238 5.23676,2.93006951 5.88411588,3.01398601 C6.48351948,3.09790252 7.18481117,3.36163614 7.98801199,3.80519481 C8.2397615,2.93006555 8.54545275,2.25274965 8.90509491,1.77322677 C9.30070128,1.25773968 9.73825934,1 10.2177822,1 C10.6973051,1 11.1348632,1.25773968 11.5304695,1.77322677 C11.9020998,2.25274965 12.213785,2.93006555 12.4655345,3.80519481 C13.2567472,3.36163614 13.952045,3.10389646 14.5514486,3.03196803 C15.1868164,2.93606346 15.6783199,3.06193632 16.025974,3.40959041 C16.2897116,3.68531606 16.4215784,4.05694072 16.4215784,4.52447552 C16.4335665,5.13586719 16.1998026,5.89709834 15.7202797,6.80819181 L15.6303696,6.98801199 C16.5054989,7.2397615 17.1768208,7.54545275 17.6443556,7.90509491 C18.1598427,8.28871321 18.4175824,8.72027732 18.4175824,9.1998002 C18.4175824,9.31968092 18.4055945,9.43356589 18.3816184,9.54145854 C18.321678,9.52947047 18.2557446,9.52347652 18.1838162,9.52347652 C17.8481502,9.52347652 17.5604408,9.64335544 17.3206793,9.88311688 L17.2487512,9.95504496 L17.2487512,9.86513487 C17.2487512,9.76923029 17.2367634,9.66733321 17.2127872,9.55944056 C17.344656,9.42757177 17.4105894,9.30769285 17.4105894,9.1998002 C17.4105894,9.00799105 17.2127892,8.79220899 16.8171828,8.55244755 C16.3976003,8.30069804 15.8221815,8.07292809 15.0909091,7.86913087 C14.8990999,8.1568446 14.6893118,8.4565419 14.4615385,8.76823177 C14.3416577,8.82817213 14.2337667,8.89410553 14.1378621,8.96603397 C13.8861126,9.2057954 13.7602398,9.50549271 13.7602398,9.86513487 L13.7602398,9.95504496 L13.6523477,9.84715285 C13.4245743,9.64335562 13.1488528,9.54145854 12.8251748,9.54145854 C12.5734253,9.54145854 12.3336675,9.61937984 12.1058941,9.77522478 L12.1238761,9.1998002 L12.1058941,8.42657343 C11.926073,8.23476428 11.7462546,8.04895195 11.5664336,7.86913087 C11.470529,7.77322629 11.3266743,7.63536553 11.1348651,7.45554446 L10.991009,7.32967033 L10.2177822,7.31168831 L9.46253746,7.32967033 L9.31868132,7.45554446 C9.12687217,7.63536553 8.98301746,7.77322629 8.88711289,7.86913087 C8.68331566,8.06094002 8.50349728,8.24675235 8.34765235,8.42657343 L8.32967033,9.1998002 L8.34765235,9.99100899 C8.52747343,10.1828181 8.71028878,10.3716274 8.8961039,10.5574426 C9.08191901,10.7432577 9.26473437,10.9200791 9.44455544,11.0879121 L10.2177822,11.1058941 L10.9370629,11.0879121 C10.8891106,11.2197809 10.8651349,11.3516477 10.8651349,11.4835165 C10.8651349,11.7832183 10.9670319,12.0529459 11.1708292,12.2927073 L11.026973,12.4365634 C10.7632354,12.4725277 10.5354655,12.5804187 10.3436563,12.7602398 C10.2117876,12.8801205 10.1098905,13.0359631 10.037962,13.2277722 C9.61837952,13.5514502 9.22877303,13.8331656 8.86913087,14.0729271 C9.07292809,14.7922114 9.30069804,15.3676302 9.55244755,15.7992008 C9.79220899,16.1828191 10.007991,16.3746254 10.1998002,16.3746254 C10.3916094,16.3746254 10.6013975,16.194807 10.8291708,15.8351648 C10.9490515,15.8711291 11.0689305,15.8891109 11.1888112,15.8891109 L11.2967033,15.8891109 L11.2247752,15.961039 C10.9850138,16.2008004 10.8651349,16.4945038 10.8651349,16.8421578 Z M13.4365634,8.39060939 C13.5684322,8.23476446 13.7422567,8.00100056 13.958042,7.68931069 L13.994006,7.63536464 C13.7182803,7.57542428 13.4065951,7.52747271 13.0589411,7.49150849 L13.0949051,8.01298701 L13.3286713,8.26473526 C13.3766236,8.32467562 13.4125873,8.36663325 13.4365634,8.39060939 Z M14.8931069,4.002997 C14.6653335,4.002997 14.3626393,4.07492436 13.985015,4.21878122 C13.6073907,4.36263808 13.1848175,4.56643225 12.7172827,4.83016983 C12.8251754,5.34565692 12.9150846,5.89709996 12.987013,6.48451548 C13.5864166,6.55644392 14.1198778,6.63436521 14.5874126,6.71828172 L14.8031968,6.32267732 C15.1268747,5.69929758 15.318681,5.17782428 15.3786214,4.75824176 C15.4265737,4.44655189 15.3966039,4.23676378 15.2887113,4.12887113 C15.2047948,4.04495463 15.072928,4.002997 14.8931069,4.002997 Z M11.9440559,6.39460539 C11.8841156,5.97502288 11.836164,5.64535584 11.8001998,5.40559441 C11.5844145,5.54945127 11.3266748,5.74125754 11.026973,5.98101898 C11.2187822,6.13686392 11.3626369,6.26273678 11.4585415,6.35864136 C11.6623387,6.37062943 11.8241752,6.38261732 11.9440559,6.39460539 Z M10.2177822,2.02497502 C10.013985,2.02497502 9.79220899,2.2167813 9.55244755,2.6003996 C9.30069804,3.01998212 9.07292809,3.59540094 8.86913087,4.32667333 C9.30070146,4.60239898 9.75024741,4.92607207 10.2177822,5.2977023 C10.685317,4.92607207 11.128869,4.60239898 11.5484515,4.32667333 C11.3566424,3.60738901 11.1288724,3.03197019 10.8651349,2.6003996 C10.6253734,2.2167813 10.4095914,2.02497502 10.2177822,2.02497502 Z M8.63536464,5.40559441 C8.58741235,5.68132006 8.53946078,6.01098709 8.49150849,6.39460539 L8.97702298,6.35864136 L9.40859141,5.98101898 L9.3006993,5.89110889 C9.0009975,5.66333552 8.7792215,5.50149898 8.63536464,5.40559441 Z M5.14685315,4.12887113 C5.02697243,4.2247757 4.99100875,4.43456382 5.03896104,4.75824176 C5.0989014,5.17782428 5.29070767,5.69929758 5.61438561,6.32267732 L5.84815185,6.71828172 C6.32767473,6.62237714 6.86113592,6.54445584 7.44855145,6.48451548 C7.52047988,5.87312382 7.61038907,5.32168078 7.71828172,4.83016983 C7.25074691,4.56643225 6.82817372,4.36263808 6.45054945,4.21878122 C6.07292518,4.07492436 5.76423696,4.002997 5.52447552,4.002997 C5.34465445,4.002997 5.21878158,4.04495463 5.14685315,4.12887113 Z M6.98101898,10.008991 C6.75324561,10.2967047 6.56743329,10.5544444 6.42357642,10.7822178 C6.69930208,10.8301701 7.01098727,10.8721277 7.35864136,10.9080919 L7.32267732,10.3866134 L7.08891109,10.1348651 C7.0409588,10.0749248 7.00499512,10.0329672 6.98101898,10.008991 Z M6.42357642,7.61738262 C6.6033975,7.89310827 6.78920983,8.15084795 6.98101898,8.39060939 L7.32267732,7.995005 L7.35864136,7.47352647 C7.02297534,7.52147876 6.71129015,7.56943033 6.42357642,7.61738262 Z M3.04295704,9.1998002 C3.04295704,9.39160935 3.23476332,9.60739141 3.61838162,9.84715285 C4.03796414,10.1108904 4.61338296,10.3386604 5.34465534,10.5304695 C5.58441678,10.1708274 5.90808987,9.72727536 6.31568432,9.1998002 C5.96803023,8.75624154 5.64435714,8.31268953 5.34465534,7.86913087 C4.61338296,8.06094002 4.03796414,8.28271602 3.61838162,8.53446553 C3.23476332,8.77422697 3.04295704,8.99600298 3.04295704,9.1998002 Z M7.7002997,13.5874126 C7.60439512,13.0839136 7.52047988,12.5384645 7.44855145,11.951049 C6.873124,11.8911086 6.33366885,11.8071933 5.83016983,11.6993007 L5.61438561,12.0769231 C5.29070767,12.7003028 5.0989014,13.2217761 5.03896104,13.6413586 C4.99100875,13.9530485 5.02097848,14.1628366 5.12887113,14.2707293 C5.23676378,14.3786219 5.45254583,14.4085916 5.77622378,14.3606394 C6.19580629,14.3126871 6.71128565,14.1208808 7.32267732,13.7852148 L7.7002997,13.5874126 Z M8.49150849,12.0589411 C8.53946078,12.4065951 8.58741235,12.7182803 8.63536464,12.994006 C8.91109029,12.8021968 9.16882997,12.6163845 9.40859141,12.4365634 L9.03096903,12.0769231 L8.77922078,12.0769231 C8.64735199,12.064935 8.55144885,12.0589411 8.49150849,12.0589411 Z" id="" fill="#333333"></path>
            <path d="M14.5104895,16.0569431 C14.6916426,16.2540802 14.9154166,16.3792871 15.1818182,16.4325674 L15.1818182,14.5864136 C15.1605061,14.5810856 15.1205464,14.5677657 15.0619381,14.5464535 C15.0246418,14.5357975 14.9713623,14.5224776 14.9020979,14.5064935 C14.6676645,14.4425571 14.4545464,14.3732937 14.2627373,14.2987013 C14.044288,14.2187808 13.8524817,14.1135538 13.6873127,13.983017 C13.5221437,13.8524802 13.3902769,13.6886457 13.2917083,13.4915085 C13.1931397,13.2943713 13.1438561,13.0479535 13.1438561,12.7522478 C13.1438561,12.456542 13.2011316,12.1941403 13.3156843,11.965035 C13.430237,11.7359296 13.5807516,11.5441233 13.7672328,11.3896104 C13.9537139,11.2350975 14.1721599,11.1152185 14.4225774,11.02997 C14.6729949,10.9447215 14.9260726,10.891442 15.1818182,10.8701299 L15.1818182,10.1988012 L15.7092907,10.1988012 L15.7092907,10.8701299 C15.9756923,10.9020981 16.2234421,10.9607055 16.4525475,11.045954 C16.6816528,11.1312026 16.885447,11.2497495 17.0639361,11.4015984 C17.2424251,11.5534473 17.3862798,11.7385936 17.4955045,11.957043 C17.6047292,12.1754923 17.6673326,12.4418899 17.6833167,12.7562438 L16.4365634,12.7562438 C16.4312354,12.5218103 16.3579761,12.3220121 16.2167832,12.1568432 C16.0755904,11.9916742 15.9037639,11.9090909 15.7012987,11.9090909 L15.7012987,13.4675325 L15.9170829,13.5154845 C16.0076595,13.5421247 16.0849148,13.5634365 16.1488511,13.5794206 C16.5857498,13.6966373 16.9214107,13.841824 17.1558442,14.014985 C17.3902776,14.1881461 17.563436,14.3692964 17.6753247,14.5584416 C17.7872133,14.7475867 17.8524808,14.935397 17.8711289,15.1218781 C17.889777,15.3083592 17.8991009,15.4761897 17.8991009,15.6253746 C17.8991009,15.7532474 17.8671332,15.9157499 17.8031968,16.1128871 C17.7392604,16.3100243 17.6247095,16.5018306 17.4595405,16.6883117 C17.2943715,16.8747928 17.0705975,17.0426233 16.7882118,17.1918082 C16.5058261,17.3409931 16.1435254,17.4315683 15.7012987,17.4635365 L15.7012987,18.2067932 L15.1898102,18.2067932 L15.1898102,17.4555445 C14.5291342,17.4075922 14.0136549,17.20513 13.6433566,16.8481518 C13.2730584,16.4911737 13.0586084,15.9663704 13,15.2737263 L14.2467532,15.2737263 C14.2414252,15.6040643 14.3293364,15.8677979 14.5104895,16.0649351 L14.5104895,16.0569431 Z M14.8941059,11.9490509 C14.8035294,11.9756911 14.7196141,12.0209787 14.6423576,12.0849151 C14.5651012,12.1488515 14.5038297,12.2261068 14.4585415,12.3166833 C14.4132532,12.4072599 14.3906094,12.5138189 14.3906094,12.6363636 C14.3906094,12.8281728 14.4532128,12.9773554 14.5784216,13.0839161 C14.7036303,13.1904767 14.9074245,13.275724 15.1898102,13.3396603 L15.1898102,11.9010989 C15.0885776,11.9010989 14.9900105,11.9170828 14.8941059,11.9490509 Z M16.036963,16.3526474 C16.1488517,16.3206792 16.2500828,16.2687316 16.3406593,16.1968032 C16.4312359,16.1248748 16.5058272,16.0369636 16.5644356,15.9330669 C16.6230439,15.8291703 16.6523477,15.7079594 16.6523477,15.5694306 C16.6523477,15.3403252 16.5817523,15.1684987 16.4405594,15.0539461 C16.2993666,14.9393934 16.0529488,14.8341663 15.7012987,14.7382617 L15.7012987,16.4325674 C15.8131874,16.4219114 15.9250744,16.3952716 16.036963,16.3526474 Z" id="" fill="#2B2826"></path>
            <g id="icons-/-Error_Mark" transform="translate(0.000000, 12.000000)">
                <circle id="Oval" fill="#FFFFFF" fill-rule="nonzero" cx="4" cy="4" r="4"></circle>
                <path d="M4.00666043,0.66666822 C4.60923891,0.667230482 5.16978374,0.820408594 5.68831169,1.12620713 C6.1900347,1.42368891 6.5896311,1.82328531 6.88711289,2.32500833 C7.19347473,2.84449144 7.34665335,3.4050364 7.34665335,4.00666001 C7.34665335,4.60828362 7.19347473,5.16882857 6.88711289,5.68831169 C6.5896311,6.1900347 6.1900347,6.5896311 5.68831169,6.88711289 C5.16882857,7.19347473 4.60828362,7.34665335 4.00666001,7.34665335 C3.4050364,7.34665335 2.84449144,7.19347473 2.32500833,6.88711289 C1.82328531,6.5896311 1.42368891,6.1900347 1.12620713,5.68831169 C0.819845288,5.16882857 0.666666667,4.60828362 0.666666667,4.00666001 C0.666666667,3.4050364 0.819845288,2.84449144 1.12620713,2.32500833 C1.42368891,1.82328531 1.82328531,1.42368891 2.32500833,1.12620713 C2.84353627,0.820408594 3.4040811,0.667230482 4.00665958,0.66666822 L4.00666043,0.66666822 Z M4.00666043,0.66666822 C4.00555043,0.666667185 4.00444029,0.666666667 4.00333,0.666666667 L4.00999001,0.666666667 C4.00887973,0.666666667 4.00776958,0.666667185 4.00665958,0.66666822 L4.00666043,0.66666822 Z M4.34299034,5.67499167 L4.34299034,5.00899101 L3.67032967,5.00899101 L3.67032967,5.67499167 L4.34299034,5.67499167 Z M4.34299034,4.34299034 L4.34299034,2.33832834 L3.67032967,2.33832834 L3.67032967,4.34299034 L4.34299034,4.34299034 Z" id="" fill="#F83200"></path>
            </g>
        </g>
    </g>
</svg>