<?xml version="1.0" encoding="UTF-8"?>
<svg width="20px" height="20px" viewBox="0 0 20 20" version="1.1" xmlns="http://www.w3.org/2000/svg" xmlns:xlink="http://www.w3.org/1999/xlink">
    <!-- Generator: Sketch 51.3 (57544) - http://www.bohemiancoding.com/sketch -->
    <title>icons / classes/ BMC_ActivityDecision_32</title>
    <desc>Created with Sketch.</desc>
    <defs></defs>
    <g id="icons-/-classes/-BMC_ActivityDecision_32" stroke="none" stroke-width="1" fill="none" fill-rule="evenodd">
        <g transform="translate(-1.000000, -1.000000)">
            <g id="icons-/-20x20-icon-field" transform="translate(1.000000, 1.000000)" fill="#F5A623" fill-rule="nonzero" opacity="0">
                <rect x="0" y="0" width="20" height="20"></rect>
            </g>
            <path d="M9.23176823,10.3076923 C9.20512807,10.7472549 9.08524915,11.1468513 8.87212787,11.5064935 C8.64568651,11.8927758 8.34598921,12.2324328 7.97302697,12.5254745 C7.57342458,12.8451564 7.13386853,13.0782543 6.65434565,13.2247752 C6.17482278,13.3712961 5.66200739,13.4445554 5.11588412,13.4445554 C4.56976084,13.4445554 4.06027542,13.3712961 3.58741259,13.2247752 C3.11454975,13.0782543 2.67832368,12.8484864 2.27872128,12.5354645 C1.87911888,12.2224427 1.56943167,11.8761258 1.34965035,11.4965035 C1.12986903,11.1168812 1.00666014,10.7206148 0.98001998,10.3076923 L1.37962038,10.3076923 L4.35664336,5.15284715 C4.31668312,5.15284715 4.29004336,5.13952727 4.27672328,5.11288711 L4.15684316,5.03296703 L4.07692308,4.89310689 C4.063603,4.85314665 4.05694306,4.80652707 4.05694306,4.75324675 L3.95704296,4.47352647 C3.9304028,4.36696583 3.92374286,4.27372667 3.93706294,4.19380619 C3.95038302,4.11388571 3.97702278,4.04395634 4.01698302,3.98401598 C4.05694326,3.92407562 4.11022278,3.86746613 4.17682318,3.81418581 C4.24342358,3.76090549 4.3300028,3.72094585 4.43656344,3.69430569 L17.2637363,0.997002997 C17.3702969,0.983682917 17.4635361,0.983682917 17.5434565,0.997002997 C17.623377,1.01032308 17.6933064,1.03363287 17.7532468,1.06693307 C17.8131871,1.10023327 17.8697966,1.15684276 17.9230769,1.23676324 C17.9763572,1.31668372 18.0163169,1.40992288 18.042957,1.51648352 L18.1428571,1.77622378 C18.1694973,1.88278442 18.1728273,1.97602358 18.1528472,2.05594406 C18.132867,2.13586454 18.1062273,2.21245385 18.0729271,2.28571429 C18.0396269,2.35897473 17.9963373,2.41558422 17.9430569,2.45554446 C17.8897766,2.4955047 17.8298372,2.5288044 17.7632368,2.55544456 L20.7202797,7.73026973 L20.7202797,7.63036963 L21,7.63036963 C20.9866799,8.06993227 20.8734609,8.46952867 20.6603397,8.82917083 C20.4472184,9.18881299 20.1408611,9.52846993 19.7412587,9.84815185 C19.7012985,9.88811209 19.6546789,9.92807173 19.6013986,9.96803197 L19.4815185,10.047952 C18.895435,9.56842917 18.2361009,9.19214256 17.5034965,8.91908092 C16.7708921,8.64601928 15.9916791,8.50949051 15.1658342,8.50949051 C14.8195121,8.50949051 14.4798551,8.5328003 14.1468531,8.57942058 C13.8138511,8.62604086 13.4675343,8.70263017 13.1078921,8.80919081 C13.0013315,8.60938961 12.9247422,8.41958132 12.8781219,8.23976024 C12.8315016,8.05993916 12.8015319,7.85681099 12.7882118,7.63036963 L13.0679321,7.63036963 L15.8451548,2.83516484 L11.9090909,3.69430569 L11.9090909,9.34865135 C11.5494488,9.54845255 11.2231117,9.76823057 10.9300699,10.007992 C10.5837479,10.3143538 10.2973704,10.5940713 10.0709291,10.8471528 L10.0709291,4.07392607 L5.87512488,4.93306693 L8.95204795,10.3076923 L9.23176823,10.3076923 Z M2.71828172,10.4075924 L7.51348651,10.4075924 L5.11588412,6.29170829 L2.71828172,10.4075924 Z M5.5296118,19.2987013 L8.87212787,17.3406593 C8.99200859,17.7136216 9.13852727,18.0599385 9.31168831,18.3796204 C9.51148951,18.7259425 9.71794765,19.0322997 9.93106893,19.2987013 L5.5296118,19.2987013 Z M5.5296118,19.2987013 L5.4955045,19.3186813 L5.4955045,19.2987013 L5.5296118,19.2987013 Z M19.3016983,11.026973 C19.5547798,11.2933746 19.7878777,11.579752 20.000999,11.8861139 C20.2008002,12.1791556 20.3872785,12.5121526 20.5604396,12.8851149 C20.6936404,13.2181169 20.8068593,13.5844136 20.9000999,13.984016 C20.9800204,14.3436581 21.01998,14.7365946 21.01998,15.1628372 C21.01998,15.5491195 20.9800204,15.9420559 20.9000999,16.3416583 C20.8334995,16.6879804 20.7202805,17.0476172 20.5604396,17.4205794 C20.4005986,17.7935417 20.2141203,18.1331986 20.000999,18.4395604 C19.7878777,18.7592424 19.5547798,19.0422898 19.3016983,19.2887113 C19.0486168,19.5351328 18.7622394,19.7715606 18.4425574,19.998002 C18.1495157,20.1978032 17.8231786,20.3776216 17.4635365,20.5374625 C17.1038943,20.6973035 16.7309377,20.8171824 16.3446553,20.8971029 C15.958373,20.9770234 15.5687665,21.016983 15.1758242,21.016983 C14.7828818,21.016983 14.3932753,20.9770234 14.006993,20.8971029 C13.6207107,20.8171824 13.251084,20.6973035 12.8981019,20.5374625 C12.5451198,20.3776216 12.2121228,20.1978032 11.8991009,19.998002 C11.586079,19.7982008 11.3030316,19.5684329 11.04995,19.3086913 C10.7968685,19.0489498 10.5571107,18.7592424 10.3306693,18.4395604 C10.1308681,18.1331986 9.95104975,17.8002016 9.79120879,17.4405594 C9.63136783,17.1208775 9.51148891,16.7545808 9.43156843,16.3416583 C9.36496803,15.9820162 9.33166833,15.5924097 9.33166833,15.1728272 C9.33166833,14.7532447 9.36496803,14.3569782 9.43156843,13.984016 C9.51148891,13.5844136 9.63136783,13.2181169 9.79120879,12.8851149 C9.95104975,12.5254727 10.1341981,12.1924757 10.3406593,11.8861139 C10.5471206,11.579752 10.7768885,11.3000346 11.02997,11.046953 C11.2830515,10.7938715 11.566099,10.5607736 11.8791209,10.3476523 C12.1921428,10.1345311 12.5251398,9.95138272 12.8781219,9.7982018 C13.231104,9.64502088 13.6007307,9.5318019 13.987013,9.45854146 C14.3732953,9.38528102 14.7629018,9.34865135 15.1558442,9.34865135 C15.5487865,9.34865135 15.941723,9.38528102 16.3346653,9.45854146 C16.7276077,9.5318019 17.1005643,9.64502088 17.4535465,9.7982018 C17.8065286,9.95138272 18.1295357,10.1278711 18.4225774,10.3276723 C18.7822196,10.5807538 19.0752569,10.8138517 19.3016983,11.026973 Z M18.5024975,15.6223776 L18.5024975,13.5044955 L16.3846154,13.5044955 L16.3846154,14.1238761 L17.4435564,14.1238761 L15.7452547,15.8221778 L14.046953,14.1638362 L11.8491508,16.3816184 L12.2687313,16.8411588 L14.046953,15.0629371 L15.7452547,16.7412587 L17.8431568,14.6233766 L17.8631369,15.6423576 L18.5024975,15.6223776 Z M16.8841159,3.59440559 L14.5064935,7.73026973 L19.2817183,7.73026973 L16.8841159,3.59440559 Z" id="" fill="#2B2826"></path>
            <g id="icons-/-Error_Mark" transform="translate(1.000000, 13.000000)" opacity="0">
                <circle id="Oval" fill="#FFFFFF" fill-rule="nonzero" cx="4" cy="4" r="4"></circle>
                <path d="M4.00666043,0.66666822 C4.60923891,0.667230482 5.16978374,0.820408594 5.68831169,1.12620713 C6.1900347,1.42368891 6.5896311,1.82328531 6.88711289,2.32500833 C7.19347473,2.84449144 7.34665335,3.4050364 7.34665335,4.00666001 C7.34665335,4.60828362 7.19347473,5.16882857 6.88711289,5.68831169 C6.5896311,6.1900347 6.1900347,6.5896311 5.68831169,6.88711289 C5.16882857,7.19347473 4.60828362,7.34665335 4.00666001,7.34665335 C3.4050364,7.34665335 2.84449144,7.19347473 2.32500833,6.88711289 C1.82328531,6.5896311 1.42368891,6.1900347 1.12620713,5.68831169 C0.819845288,5.16882857 0.666666667,4.60828362 0.666666667,4.00666001 C0.666666667,3.4050364 0.819845288,2.84449144 1.12620713,2.32500833 C1.42368891,1.82328531 1.82328531,1.42368891 2.32500833,1.12620713 C2.84353627,0.820408594 3.4040811,0.667230482 4.00665958,0.66666822 L4.00666043,0.66666822 Z M4.00666043,0.66666822 C4.00555043,0.666667185 4.00444029,0.666666667 4.00333,0.666666667 L4.00999001,0.666666667 C4.00887973,0.666666667 4.00776958,0.666667185 4.00665958,0.66666822 L4.00666043,0.66666822 Z M4.34299034,5.67499167 L4.34299034,5.00899101 L3.67032967,5.00899101 L3.67032967,5.67499167 L4.34299034,5.67499167 Z M4.34299034,4.34299034 L4.34299034,2.33832834 L3.67032967,2.33832834 L3.67032967,4.34299034 L4.34299034,4.34299034 Z" id="" fill="#F83200"></path>
            </g>
        </g>
    </g>
</svg>