<?xml version="1.0" encoding="UTF-8"?>
<svg width="20px" height="20px" viewBox="0 0 20 20" version="1.1" xmlns="http://www.w3.org/2000/svg" xmlns:xlink="http://www.w3.org/1999/xlink">
    <!-- Generator: Sketch 51.3 (57544) - http://www.bohemiancoding.com/sketch -->
    <title>icons / classes/ BMC_ServiceLevelTarget_32_Error</title>
    <desc>Created with Sketch.</desc>
    <defs></defs>
    <g id="icons-/-classes/-BMC_ServiceLevelTarget_32" stroke="none" stroke-width="1" fill="none" fill-rule="evenodd">
        <g id="icons-/-classes/-Service-Level-Target">
            <g id="icons-/-20x20-icon-field" fill="#F5A623" fill-rule="nonzero" opacity="0">
                <rect x="0" y="0" width="20" height="20"></rect>
            </g>
            <path d="M6.98801199,0.679320679 C7.81518895,0.679320679 8.59440194,0.835163277 9.32567433,1.14685315 C10.0569467,1.45854302 10.6982989,1.89310411 11.2497502,2.45054945 C11.8012016,3.0079948 12.2327657,3.64635005 12.5444555,4.36563437 C12.8561454,5.08491868 13.011988,5.85813772 13.011988,6.68531469 L12.994006,7.08091908 L12.958042,7.49450549 C12.2747219,7.578422 11.6393636,7.77022827 11.0519481,8.06993007 C10.4645325,8.36963187 9.94305922,8.7442535 9.48751249,9.19380619 C9.03196575,9.64335889 8.65734413,10.1618352 8.36363636,10.7492507 C8.0699286,11.3366663 7.8811193,11.9660306 7.7972028,12.6373626 C7.66533401,12.6613388 7.53346719,12.6733267 7.4015984,12.6733267 L6.98801199,12.6913087 C6.1728231,12.6913087 5.39660708,12.5354661 4.65934066,12.2237762 C3.92207424,11.9120864 3.28072201,11.4805222 2.73526474,10.9290709 C2.18980746,10.3776196 1.76423729,9.74226134 1.45854146,9.02297702 C1.15284562,8.30369271 1,7.52747669 1,6.69430569 C1,5.8611347 1.1558426,5.07892474 1.46753247,4.34765235 C1.77922234,3.61637996 2.20778948,2.97802471 2.75324675,2.43256743 C3.29870403,1.88711016 3.93705928,1.45854302 4.66833167,1.14685315 C5.39960406,0.835163277 6.1728231,0.679320679 6.98801199,0.679320679 Z M9.63136863,8.5014985 C9.67932092,8.45354621 9.71228762,8.40559465 9.73026973,8.35764236 C9.74825184,8.30969007 9.75724276,8.25874153 9.75724276,8.2047952 C9.75724276,8.15084888 9.74525487,8.09990034 9.72127872,8.05194805 C9.69730258,8.00399576 9.66733285,7.96803209 9.63136863,7.94405594 L8.48051948,6.79320679 C8.22876997,6.52946921 8.0369637,6.33766294 7.90509491,6.21778222 C7.78521419,6.14585379 7.68032013,6.10089919 7.59040959,6.08291708 C7.50049905,6.06493498 7.40159894,6.07392589 7.29370629,6.10989011 L7.0959041,6.18181818 L6.68231768,6.37962038 C6.61038925,6.4155846 6.55644374,6.44555433 6.52047952,6.46953047 L6.1968032,6.5954046 L6.05294705,6.63136863 L5.96303696,6.63136863 C5.85514432,6.63136863 5.74125934,6.60739285 5.62137862,6.55944056 C5.53746212,6.52347634 5.44155898,6.46353688 5.33366633,6.37962038 C5.24974983,6.2837158 5.1868134,6.18781267 5.14485514,6.09190809 C5.10289689,5.99600352 5.08191808,5.8761246 5.08191808,5.73226773 C5.08191808,5.64835123 5.09390597,5.57642388 5.11788212,5.51648352 L5.13586414,5.44455544 C5.15984028,5.37262701 5.17782212,5.32467544 5.18981019,5.3006993 C5.24975055,5.20479473 5.30069909,5.13586435 5.34265734,5.09390609 C5.38461559,5.05194784 5.43556414,5.01298719 5.4955045,4.97702298 C5.579421,4.90509455 5.72926965,4.81518535 5.94505495,4.70729271 L6.7002997,4.27572428 C6.56843091,4.1798197 6.4365641,4.1018984 6.3046953,4.04195804 C6.18481459,3.99400575 6.04695383,3.97002997 5.89110889,3.97002997 C5.81918046,3.97002997 5.74125916,3.98201786 5.65734266,4.00599401 L5.38761239,4.07792208 C5.31568396,4.10189822 5.21978082,4.14385584 5.0999001,4.2037962 C5.02797167,4.23976042 4.93806248,4.28771199 4.83016983,4.34765235 L4.52447552,4.50949051 L4.16483516,4.74325674 C4.03296637,4.77922096 3.89810259,4.7972028 3.76023976,4.7972028 C3.62237693,4.7972028 3.49950104,4.77922096 3.39160839,4.74325674 L2.49250749,4.43756244 L2.49250749,7.54845155 L2.97802198,7.72827173 L3.06793207,7.54845155 L3.15784216,7.4045954 C3.16983023,7.38061926 3.19979996,7.35664348 3.24775225,7.33266733 C3.34365682,7.23676276 3.44555391,7.1648354 3.55344655,7.11688312 C3.6613392,7.06893083 3.78121812,7.04495504 3.91308691,7.04495504 C4.0449557,7.04495504 4.17082857,7.06893083 4.29070929,7.11688312 C4.41059001,7.1648354 4.51248709,7.22477487 4.5964036,7.2967033 L4.66833167,7.4045954 C4.69230781,7.42857155 4.71028965,7.45554431 4.72227772,7.48551449 C4.73426579,7.51548467 4.75224763,7.54845137 4.77622378,7.58441558 L4.81218781,7.71028971 C4.84815203,7.71028971 4.8841157,7.7222776 4.92007992,7.74625375 L5.0999001,7.85414585 L5.24375624,7.998002 C5.26773239,8.02197814 5.28571423,8.05794182 5.2977023,8.10589411 L5.35164835,8.1958042 C5.3756245,8.23176841 5.38761239,8.26773209 5.38761239,8.3036963 L5.56743257,8.37562438 L5.76523477,8.51948052 L5.85514486,8.62737263 C5.86713293,8.65134877 5.88511477,8.6813185 5.90909091,8.71728272 C5.93306705,8.75324693 5.95104889,8.78921061 5.96303696,8.82517483 L6.01698302,8.93306693 L6.21478521,9.02297702 L6.39460539,9.16683317 L6.52047952,9.34665335 C6.55644374,9.38261756 6.58341649,9.43956005 6.6013986,9.51748252 C6.61938071,9.59540499 6.63436557,9.67032931 6.64635365,9.74225774 C6.65834172,9.79021003 6.65834172,9.86213738 6.64635365,9.95804196 C6.67032979,9.99400617 6.69430557,10.0239759 6.71828172,10.047952 L6.84415584,10.1738262 C6.88012006,10.2097904 6.91908071,10.2397601 6.96103896,10.2637363 C7.00299721,10.2877124 7.05394575,10.2997003 7.11388611,10.2997003 C7.17382647,10.2997003 7.22777199,10.2847154 7.27572428,10.2547453 C7.32367656,10.2247751 7.35964024,10.1978023 7.38361638,10.1738262 C7.43156867,10.137862 7.46453537,10.0899104 7.48251748,10.02997 C7.50049959,9.97002967 7.50949051,9.9220781 7.50949051,9.88611389 C7.50949051,9.82617353 7.49750262,9.77222801 7.47352647,9.72427572 C7.44955033,9.67632344 7.4195806,9.64035976 7.38361638,9.61638362 L6.91608392,9.09490509 C6.8801197,9.04695281 6.86513484,9.01098913 6.87112887,8.98701299 C6.87712291,8.96303684 6.91608356,8.98101868 6.98801199,9.04095904 L7.27572428,9.31068931 L7.63536464,9.70629371 C7.67132885,9.74225792 7.7102895,9.77222765 7.75224775,9.7962038 C7.794206,9.82017994 7.84515455,9.83216783 7.90509491,9.83216783 C7.96503526,9.83216783 8.01898078,9.82017994 8.06693307,9.7962038 C8.11488535,9.77222765 8.15684298,9.73926095 8.19280719,9.6973027 C8.22877141,9.65534445 8.25874114,9.61338682 8.28271728,9.57142857 C8.30669343,9.52947032 8.31868132,9.48151875 8.31868132,9.42757243 C8.31868132,9.3736261 8.30669343,9.32267756 8.28271728,9.27472527 L8.21078921,9.16683317 L8.15684316,9.09490509 L8.15684316,9.07692308 C7.94105786,8.897102 7.76723343,8.7412594 7.63536464,8.60939061 C7.53946006,8.50149796 7.49450546,8.43856153 7.5004995,8.42057942 C7.50649354,8.40259731 7.58741181,8.45354585 7.74325674,8.57342657 C7.87512553,8.68131922 8.09690154,8.87911944 8.40859141,9.16683317 C8.44455562,9.20279738 8.48351627,9.23276711 8.52547453,9.25674326 C8.56743278,9.2807194 8.61838132,9.29270729 8.67832168,9.29270729 C8.73826204,9.29270729 8.78621361,9.2807194 8.82217782,9.25674326 C8.85814204,9.23276711 8.90609361,9.20279738 8.96603397,9.16683317 C8.99001011,9.13086895 9.01398589,9.0919083 9.03796204,9.04995005 C9.06193818,9.0079918 9.07392607,8.9630372 9.07392607,8.91508492 C9.07392607,8.86713263 9.06793213,8.81318711 9.05594406,8.75324675 C9.05594406,8.74125868 9.04395616,8.71128895 9.01998002,8.66333666 L8.98401598,8.62737263 L8.42657343,7.998002 C8.36663307,7.93806164 8.34565426,7.90209796 8.36363636,7.89010989 C8.38161847,7.87812182 8.45054885,7.92607339 8.57042957,8.03396603 C8.66633415,8.10589447 8.83416464,8.26173706 9.07392607,8.5014985 C9.12187836,8.53746272 9.16383598,8.56743245 9.1998002,8.59140859 C9.23576442,8.61538474 9.28371598,8.62737263 9.34365634,8.62737263 C9.4035967,8.62737263 9.45754222,8.61538474 9.50549451,8.59140859 C9.52947065,8.57942052 9.56543433,8.55544474 9.61338661,8.51948052 L9.63136863,8.5014985 Z M6.01698302,10.2277722 C6.07692338,10.1678319 6.12187797,10.1108894 6.15184815,10.0569431 C6.18181833,10.0029967 6.1968032,9.93406635 6.1968032,9.85014985 C6.1968032,9.76623335 6.1848153,9.69130902 6.16083916,9.62537463 C6.13686302,9.55944023 6.10689329,9.50849169 6.07092907,9.47252747 C6.03496486,9.43656326 5.99600421,9.40659353 5.95404595,9.38261738 C5.9120877,9.35864124 5.87312705,9.34365637 5.83716284,9.33766234 C5.80119862,9.3316683 5.74725311,9.32867133 5.67532468,9.32867133 L5.53146853,9.34665335 C5.5434566,9.31068913 5.5554445,9.26873151 5.56743257,9.22077922 L5.58541459,9.07692308 L5.53146853,8.93306693 C5.51948046,8.89710272 5.49550468,8.86113904 5.45954046,8.82517483 C5.42357624,8.78921061 5.38761257,8.75924088 5.35164835,8.73526474 L5.22577423,8.6993007 C5.20179808,8.68731263 5.16583441,8.68131868 5.11788212,8.68131868 C5.06992983,8.68131868 5.02797221,8.68731263 4.99200799,8.6993007 C5.00399606,8.66333648 5.00999001,8.62137886 5.00999001,8.57342657 L4.99200799,8.42957043 C4.99200799,8.39360621 4.97702313,8.35164859 4.94705295,8.3036963 C4.91708277,8.25574402 4.89610396,8.22577429 4.88411588,8.21378621 L4.77622378,8.12387612 C4.74025956,8.09989998 4.70429588,8.08491511 4.66833167,8.07892108 C4.63236745,8.07292704 4.58741286,8.06993007 4.53346653,8.06993007 C4.47952021,8.06993007 4.42857167,8.07592402 4.38061938,8.08791209 L4.41658342,7.96203796 C4.41658342,7.93806182 4.41058947,7.8961042 4.3986014,7.83616384 L4.3986014,7.81818182 C4.3986014,7.79420567 4.39260745,7.77022989 4.38061938,7.74625375 L4.36263736,7.71028971 C4.35064929,7.68631357 4.32067956,7.65034989 4.27272727,7.6023976 C4.22477499,7.55444531 4.1678325,7.51848164 4.1018981,7.49450549 C4.03596371,7.47052935 3.9700303,7.45854146 3.9040959,7.45854146 C3.83816151,7.45854146 3.7722281,7.47352632 3.70629371,7.5034965 C3.64035931,7.53346668 3.58341682,7.57242733 3.53546454,7.62037962 C3.4635361,7.69230805 3.41558454,7.75224751 3.39160839,7.8001998 L3.35564436,7.85414585 L3.3016983,8.01598402 C3.26573409,8.09990052 3.25374619,8.17482485 3.26573427,8.24075924 C3.27772234,8.30669364 3.30769207,8.37262704 3.35564436,8.43856144 C3.40359664,8.50449583 3.45754216,8.54345648 3.51748252,8.55544456 C3.57742288,8.56743263 3.62537445,8.56743263 3.66133866,8.55544456 L3.96703297,8.48351648 L3.85914086,8.75324675 C3.84715279,8.80119904 3.84715279,8.85214758 3.85914086,8.90609391 C3.87112893,8.96004023 3.90409563,9.01398574 3.95804196,9.06793207 C4.01198828,9.12187839 4.06293682,9.15484509 4.11088911,9.16683317 C4.1588414,9.17882124 4.20679297,9.18481518 4.25474525,9.18481518 L4.54245754,9.07692308 L4.45254745,9.36463536 C4.42857131,9.41258765 4.42557434,9.46053922 4.44355644,9.50849151 C4.46153855,9.5564438 4.49150828,9.60739234 4.53346653,9.66133866 C4.57542479,9.71528499 4.62637333,9.75124866 4.68631369,9.76923077 C4.74625405,9.78721288 4.80019956,9.79020985 4.84815185,9.77822178 L5.17182817,9.68831169 C5.14785203,9.74825205 5.12987019,9.80219756 5.11788212,9.85014985 C5.10589405,9.89810214 5.08791221,9.94605371 5.06393606,9.99400599 C5.03995992,10.0419583 5.03396597,10.0929068 5.04595405,10.1468531 C5.05794212,10.2007995 5.08791185,10.257742 5.13586414,10.3176823 C5.18381642,10.3776227 5.24675286,10.4135864 5.32467532,10.4255744 C5.40259779,10.4375625 5.48651304,10.4345655 5.57642358,10.4165834 C5.66633412,10.3986013 5.75324633,10.3716286 5.83716284,10.3356643 C5.92107934,10.2997001 5.9810188,10.2637364 6.01698302,10.2277722 Z M11.5014985,7.45854146 L11.5014985,4.74325674 L10.6563437,4.92307692 C10.4285703,4.97102921 10.242758,5.00699289 10.0989011,5.03096903 C10.0269727,5.05494517 9.96703321,5.05494517 9.91908092,5.03096903 L9.72127872,4.95904096 C9.56543379,4.82717217 9.3976033,4.68931141 9.21778222,4.54545455 L8.8041958,4.2037962 C8.7202793,4.1198797 8.63636406,4.05394629 8.55244755,4.00599401 C8.48051912,3.97002979 8.40859177,3.94605401 8.33666334,3.93406593 C8.26473491,3.92207786 8.1988015,3.92807181 8.13886114,3.95204795 L7.92307692,4.02397602 C7.86313656,4.07192831 7.79720316,4.10789199 7.72527473,4.13186813 C7.67732244,4.1438562 7.60539508,4.17981988 7.50949051,4.23976024 L7.45554446,4.27572428 C7.35963988,4.33566464 7.26973069,4.38961015 7.18581419,4.43756244 L6.88011988,4.61738262 L5.999001,5.1028971 C5.9150845,5.15084939 5.84315714,5.19280701 5.78321678,5.22877123 C5.72327642,5.26473544 5.67532486,5.30069912 5.63936064,5.33666334 L5.62137862,5.37262737 C5.58541441,5.39660352 5.55544468,5.42357627 5.53146853,5.45354645 C5.50749239,5.48351663 5.4835166,5.52847123 5.45954046,5.58841159 C5.44755239,5.6243758 5.44155844,5.67232737 5.44155844,5.73226773 C5.44155844,5.79220809 5.45954028,5.85514453 5.4955045,5.92107892 C5.53146871,5.98701332 5.59440514,6.0559437 5.68431568,6.12787213 C5.77422622,6.19980056 5.86413541,6.23576424 5.95404595,6.23576424 C6.04395649,6.23576424 6.1428566,6.20579451 6.25074925,6.14585415 L6.79020979,5.87612388 L7.13186813,5.6963037 L7.45554446,5.53446553 C7.52747289,5.48651325 7.62337602,5.46253746 7.74325674,5.46253746 C7.86313746,5.46253746 7.98901033,5.49850114 8.12087912,5.57042957 L9.82917083,7.26073926 L10.026973,7.44055944 C10.0869134,7.51248787 10.1528468,7.56343641 10.2247752,7.59340659 C10.2967037,7.62337677 10.374625,7.63236769 10.4585415,7.62037962 L10.7822178,7.58441558 C10.8061939,7.57242751 10.8781213,7.56043962 10.998002,7.54845155 L11.5014985,7.45854146 Z M17.3636364,12.0619381 C17.9030996,12.2057949 18.3106879,12.3946042 18.5864136,12.6283716 C18.8621392,12.862139 19,13.1348636 19,13.4465534 C19,13.5904103 18.9640363,13.731268 18.8921079,13.8691309 C18.8201795,14.0069937 18.7062945,14.1358635 18.5504496,14.2557443 C18.3586404,14.387613 18.184816,14.4895101 18.028971,14.5614386 C17.8251738,14.6573431 17.6033978,14.7472523 17.3636364,14.8311688 C17.3396602,14.8431569 17.3156844,14.8491508 17.2917083,14.8491508 L17.2197802,14.8491508 L17.2557443,14.9210789 C17.2677323,14.933067 17.2737263,14.9450549 17.2737263,14.957043 C17.4535474,15.304697 17.5794202,15.5984004 17.6513487,15.8381618 C17.7232771,16.0779233 17.7532468,16.2757235 17.7412587,16.4315684 C17.7172826,16.6233776 17.6873129,16.7672323 17.6513487,16.8631369 C17.6033964,16.9830176 17.5494508,17.0789207 17.4895105,17.1508492 C17.4535463,17.1868134 17.4115887,17.2167831 17.3636364,17.2407592 L17.2017982,17.3306693 C17.1418578,17.3666335 17.0759244,17.3846154 17.003996,17.3846154 L16.7702298,17.4025974 C16.6623371,17.4025974 16.56044,17.3966035 16.4645355,17.3846154 C16.3326667,17.3486512 16.2247756,17.3186814 16.1408591,17.2947053 C15.9970023,17.246753 15.8651355,17.1988014 15.7452547,17.1508492 L15.2957043,16.9350649 C15.2837162,16.9230769 15.2687314,16.9140859 15.2507493,16.9080919 C15.2327671,16.9020979 15.2117883,16.893107 15.1878122,16.8811189 L15.1518482,17.024975 C15.0799197,17.2647365 14.9900105,17.4805185 14.8821179,17.6723277 C14.7982014,17.8521488 14.6903103,18.0289702 14.5584416,18.2027972 C14.4265728,18.3766242 14.3066938,18.4935062 14.1988012,18.5534466 C14.0189801,18.6613392 13.8691315,18.7152847 13.7492507,18.7152847 C13.5934058,18.7152847 13.4465541,18.6763241 13.3086913,18.5984016 C13.1708285,18.5204791 13.0479526,18.4035972 12.9400599,18.2477522 C12.8081911,18.0679312 12.7003001,17.8941067 12.6163836,17.7262737 C12.508491,17.5104884 12.4245757,17.2887124 12.3646354,17.0609391 L12.3106893,16.9170829 L12.2567433,16.9350649 L12.2027972,16.971029 C12.0829165,17.0429574 11.9330678,17.1148848 11.7532468,17.1868132 C11.633366,17.2347655 11.5074932,17.282717 11.3756244,17.3306693 C11.2917079,17.3546455 11.1838168,17.3786213 11.0519481,17.4025974 L11.015984,17.4025974 C10.9320675,17.4265735 10.8481523,17.4385614 10.7642358,17.4385614 C10.6803193,17.4385614 10.5904101,17.4325675 10.4945055,17.4205794 C10.4345651,17.4205794 10.3686317,17.3966036 10.2967033,17.3486513 C10.248751,17.3366633 10.1978025,17.3126875 10.1438561,17.2767233 C10.0899098,17.2407591 10.0509492,17.2047954 10.026973,17.1688312 C9.9550446,17.1088908 9.89510513,17.0189816 9.84715285,16.8991009 C9.79920056,16.7792202 9.76623386,16.6413594 9.74825175,16.4855145 C9.73026964,16.3296696 9.76323634,16.1198814 9.84715285,15.8561439 C9.91908128,15.6283705 10.0449541,15.3406611 10.2247752,14.993007 L10.2967033,14.8851149 C10.2847152,14.8731268 10.2547455,14.8671329 10.2067932,14.8671329 L10.1348651,14.8491508 C9.93106791,14.7892105 9.70929191,14.7052952 9.46953047,14.5974026 C9.28970939,14.5134861 9.10989101,14.4055951 8.93006993,14.2737263 C8.78621307,14.1658336 8.67832204,14.0459547 8.60639361,13.9140859 C8.53446517,13.7822171 8.4985015,13.6383624 8.4985015,13.4825175 C8.4985015,13.1708276 8.63336528,12.8981031 8.9030969,12.6643357 C9.17282852,12.4305683 9.58940777,12.235765 10.1528472,12.0799201 L10.2247752,12.0799201 L10.3146853,12.043956 L10.2427572,11.9360639 C10.0629362,11.6003979 9.93406632,11.3156855 9.85614386,11.0819181 C9.77822139,10.8481507 9.75124863,10.6413595 9.77522478,10.4615385 C9.79920092,10.2817174 9.82917065,10.1438566 9.86513487,10.047952 C9.91308715,9.92807133 9.97302661,9.83216819 10.044955,9.76023976 C10.1528477,9.65234711 10.2817175,9.58041976 10.4315684,9.54445554 C10.5814193,9.50849133 10.7522468,9.50249738 10.9440559,9.52647353 C11.1358651,9.55044967 11.3276714,9.59840124 11.5194805,9.67032967 C11.77123,9.75424617 11.999,9.84415536 12.2027972,9.94005994 L12.3106893,10.02997 L12.3466533,9.88611389 C12.4185818,9.68231666 12.508491,9.46054066 12.6163836,9.22077922 C12.688312,9.05294621 12.7902091,8.87912178 12.9220779,8.6993007 C13.0419586,8.54345576 13.1708285,8.42657382 13.3086913,8.34865135 C13.4465541,8.27072888 13.5904088,8.23176823 13.7402597,8.23176823 C13.8901106,8.23176823 14.0309684,8.26773191 14.1628372,8.33966034 C14.294706,8.41158877 14.4235758,8.52547375 14.5494505,8.68131868 C14.6753253,8.83716362 14.7862133,9.01098805 14.8821179,9.2027972 C14.9780225,9.39460635 15.0679316,9.61638236 15.1518482,9.86813187 C15.1518482,9.88011994 15.1578421,9.90409572 15.1698302,9.94005994 L15.1878122,10.02997 L15.3136863,9.95804196 C15.5414597,9.83816124 15.7632357,9.73926113 15.979021,9.66133866 C16.1948063,9.58341619 16.3956035,9.53246765 16.5814186,9.50849151 C16.7672337,9.48451536 16.9320672,9.49650326 17.0759241,9.54445554 C17.2197809,9.59240783 17.3516478,9.67032913 17.4715285,9.77822178 C17.5434569,9.85015021 17.6003994,9.94305637 17.6423576,10.0569431 C17.6843159,10.1708297 17.7142856,10.3146844 17.7322677,10.4885115 C17.7502498,10.6623385 17.7172831,10.8631357 17.6333666,11.0909091 C17.5374621,11.3666347 17.4115892,11.6543442 17.2557443,11.954046 L17.1838162,12.0799201 L17.3096903,12.0799201 C17.3336665,12.0559439 17.3576422,12.04995 17.3816184,12.0619381 L17.3636364,12.0619381 Z M9.43356643,13.8061938 C9.52947101,13.8781222 9.65534388,13.9500496 9.81118881,14.021978 C9.93106953,14.0699303 10.0989,14.1298698 10.3146853,14.2017982 L10.6383616,14.2737263 L10.8721279,13.9320679 C10.9080921,13.8721276 10.9680315,13.7882123 11.0519481,13.6803197 L11.1418581,13.5724276 L11.2497502,13.4285714 L11.1958042,13.3746254 L10.8721279,12.961039 L10.6383616,12.6013986 L10.4765235,12.6553447 L10.3146853,12.6913087 C10.0989,12.7512491 9.93106953,12.8171825 9.81118881,12.8891109 C9.65534388,12.9610393 9.53246798,13.0299697 9.44255744,13.0959041 C9.3526469,13.1618385 9.28071955,13.2247749 9.22677323,13.2847153 C9.1728269,13.3446556 9.14585415,13.4015981 9.14585415,13.4555445 C9.14585415,13.5094908 9.16383598,13.5634363 9.1998002,13.6173826 C9.23576442,13.6713289 9.31368571,13.7342654 9.43356643,13.8061938 Z M12.022977,16.3056943 L12.040959,16.3056943 L12.1488511,16.2517483 C12.1128869,16.1078914 12.0829172,15.9640367 12.0589411,15.8201798 L11.987013,15.3706294 L11.987013,15.1908092 L11.8971029,15.1908092 L10.962038,15.046953 L10.8721279,15.1548452 C10.8361637,15.2027974 10.8181818,15.2447551 10.8181818,15.2807193 C10.686313,15.5084926 10.5904099,15.7092898 10.5304695,15.8831169 C10.4705292,16.0569439 10.4405594,16.1918077 10.4405594,16.2877123 C10.4285714,16.407593 10.4315683,16.4975022 10.4495504,16.5574426 C10.4675326,16.6173829 10.4885114,16.6593405 10.5124875,16.6833167 C10.5364637,16.7072928 10.5754243,16.7252747 10.6293706,16.7372627 C10.683317,16.7492508 10.7762231,16.7492508 10.9080919,16.7372627 C11.0399607,16.7252747 11.1808184,16.692308 11.3306693,16.6383616 C11.4805202,16.5844153 11.6693295,16.4975031 11.8971029,16.3776224 L12.022977,16.3056943 Z M10.8181818,11.5944056 C10.8181818,11.6063937 10.8301697,11.6303695 10.8541459,11.6663337 L10.998002,11.8641359 C11.165835,11.8281716 11.3336655,11.7982019 11.5014985,11.7742258 L12.004995,11.7022977 L12.004995,11.6123876 C12.004995,11.5764234 12.010989,11.5464537 12.022977,11.5224775 L12.0769231,11.0729271 C12.1008992,10.9170821 12.130869,10.7732274 12.1668332,10.6413586 C11.9990002,10.5454541 11.8671333,10.4735267 11.7712288,10.4255744 L11.4115884,10.2637363 L11.0519481,10.1558442 C10.9440554,10.1198799 10.8541462,10.1018981 10.7822178,10.1018981 L10.6743257,10.1018981 C10.6503495,10.1138862 10.6293707,10.1228771 10.6113886,10.1288711 C10.5934065,10.1348652 10.5784216,10.1438561 10.5664336,10.1558442 L10.5124875,10.1918082 C10.4885114,10.2157843 10.4705295,10.2637359 10.4585415,10.3356643 L10.4585415,10.6053946 C10.4705295,10.7372634 10.5004993,10.8751242 10.5484515,11.018981 C10.6323681,11.2347663 10.7222772,11.4265726 10.8181818,11.5944056 Z M11.6813187,12.9250749 L11.7172827,12.8891109 L11.7532468,12.8351648 C11.7772229,12.8231768 11.8071926,12.799201 11.8431568,12.7632368 L11.9330669,12.6553447 L11.9330669,12.5114885 C11.9330669,12.4635362 11.9390609,12.4095907 11.951049,12.3496503 L11.7712288,12.3496503 L11.3396603,12.4395604 C11.3756246,12.4755247 11.4175822,12.5294702 11.4655345,12.6013986 L11.6813187,12.9250749 Z M11.6813187,13.95005 L11.6813187,13.968032 L11.3396603,14.4535465 L11.7712288,14.5434565 L11.8431568,14.5434565 L11.9330669,14.5614386 L11.9330669,14.3816184 C11.9330669,14.3336661 11.927073,14.2737266 11.9150849,14.2017982 C11.8911088,14.165834 11.867133,14.1358643 11.8431568,14.1118881 L11.7712288,14.0579421 L11.7352647,14.003996 L11.6813187,13.95005 Z M14.6123876,14.2917083 C14.672328,14.2317679 14.7262735,14.1718285 14.7742258,14.1118881 L14.954046,13.95005 L14.972028,13.4465534 L14.954046,12.961039 C14.8941056,12.9010986 14.8371631,12.8381622 14.7832168,12.7722278 C14.7292705,12.7062934 14.666334,12.6433569 14.5944056,12.5834166 L14.2527473,12.2597403 C14.204795,12.2477522 14.1208797,12.2417582 14.000999,12.2417582 L13.4975025,12.2417582 C13.4375621,12.2417582 13.3536469,12.2477522 13.2457542,12.2597403 C13.1858139,12.3076925 13.1318684,12.3616381 13.0839161,12.4215784 L12.9040959,12.5834166 L12.5624376,12.961039 L12.5624376,13.95005 L13.0839161,14.4715285 C13.1558445,14.5434569 13.2217779,14.5974024 13.2817183,14.6333666 L13.7492507,14.6513487 L14.2527473,14.6333666 L14.6123876,14.2917083 Z M12.6703297,11.4325674 L12.6703297,11.5404595 L12.6523477,11.6303696 L12.8141858,11.6303696 L12.958042,11.6123876 L13.2277722,11.3786214 L12.7422577,11.018981 L12.6703297,11.4325674 Z M12.6703297,15.4245754 C12.6823177,15.4485516 12.6883117,15.4845152 12.6883117,15.5324675 L12.7602398,15.8561439 C12.8201801,15.8201796 12.8981014,15.7662341 12.994006,15.6943057 L13.2637363,15.5144855 L13.1738262,15.4245754 C13.1258739,15.4125874 13.0959042,15.3946055 13.0839161,15.3706294 L13.011988,15.2987013 L12.6703297,15.2807193 L12.6703297,15.4245754 Z M12.994006,10.011988 C12.9820179,10.0359642 12.97003,10.0779218 12.958042,10.1378621 L12.9040959,10.3356643 L13.6413586,10.8391608 L13.6773227,10.8931069 L13.7312687,10.9470529 L13.8571429,10.8391608 L14.2347652,10.5694306 C14.3066937,10.5214783 14.4265726,10.443557 14.5944056,10.3356643 L14.5044955,10.011988 C14.4445551,9.844155 14.3786217,9.67632452 14.3066933,9.50849151 C14.2467529,9.37662272 14.1778226,9.2567438 14.0999001,9.14885115 C14.0219776,9.0409585 13.9560442,8.96603418 13.9020979,8.92407592 C13.8481516,8.88211767 13.7942061,8.86113886 13.7402597,8.86113886 C13.6863134,8.86113886 13.6293709,8.88511465 13.5694306,8.93306693 C13.5334664,8.95704308 13.4675329,9.01698254 13.3716284,9.11288711 L13.1738262,9.50849151 C13.1258739,9.58041994 13.0719284,9.7182807 13.011988,9.92207792 L12.994006,10.011988 Z M14.5224775,16.8631369 C14.5224775,16.8391607 14.5284715,16.809191 14.5404595,16.7732268 L14.5584416,16.7192807 C14.5704296,16.6473523 14.5884115,16.5934068 14.6123876,16.5574426 C14.4805188,16.4855141 14.354646,16.4075928 14.2347652,16.3236763 L13.8211788,15.982018 L13.7492507,15.9460539 L13.6413586,16.0539461 L13.2637363,16.3236763 C13.1438555,16.4075928 13.0239766,16.4855141 12.9040959,16.5574426 L12.994006,16.8631369 C13.0659344,17.0789222 13.1318678,17.2527466 13.1918082,17.3846154 C13.2637366,17.5404603 13.32967,17.6603392 13.3896104,17.7442557 C13.4735269,17.8521484 13.5454542,17.9270727 13.6053946,17.969031 C13.665335,18.0109892 13.7222775,18.031968 13.7762238,18.031968 C13.8301701,18.031968 13.8841156,18.0079922 13.9380619,17.96004 C13.9920083,17.9120877 14.0519477,17.8431573 14.1178821,17.7532468 C14.1838165,17.6633362 14.2527469,17.5404603 14.3246753,17.3846154 C14.3606395,17.312687 14.4085911,17.1868141 14.4685315,17.006993 L14.5224775,16.8631369 Z M14.8461538,15.4425574 L14.8461538,15.3526474 L14.8641359,15.2627373 C14.8161836,15.2747253 14.7562441,15.2807193 14.6843157,15.2807193 L14.5044955,15.2807193 L14.4145854,15.3706294 L14.3606394,15.4425574 L14.2707293,15.5324675 C14.3786219,15.616384 14.4565432,15.6763235 14.5044955,15.7122877 L14.7562438,15.8741259 L14.8461538,15.4425574 Z M14.8461538,11.4325674 C14.8341658,11.4085913 14.8281718,11.3726276 14.8281718,11.3246753 L14.7742258,11.018981 L14.2707293,11.3606394 L14.4505495,11.5224775 C14.4985017,11.5704298 14.5344654,11.6003995 14.5584416,11.6123876 L14.8641359,11.6303696 L14.8461538,11.4325674 Z M16.6263736,15.1548452 C16.6023975,15.1428571 16.5784217,15.1128874 16.5544456,15.0649351 L16.5364635,15.028971 C16.3926067,15.0649352 16.248752,15.094905 16.1048951,15.1188811 L15.6553447,15.1908092 L15.5834166,15.1908092 L15.4935065,15.2087912 L15.4935065,15.2627373 L15.4215784,15.8021978 C15.3976023,15.9580427 15.3676325,16.1018974 15.3316683,16.2337662 L15.5834166,16.3776224 C15.7872138,16.485515 15.9790201,16.5694303 16.1588412,16.6293706 C16.302698,16.689311 16.4405588,16.7252747 16.5724276,16.7372627 C16.6683321,16.7372627 16.7552444,16.7342658 16.8331668,16.7282717 C16.9110893,16.7222777 16.9590409,16.7072928 16.977023,16.6833167 C16.9950051,16.6593405 17.0129869,16.611389 17.030969,16.5394605 C17.0489511,16.4675321 17.0549451,16.3776229 17.048951,16.2697303 C17.042957,16.1618376 17.0099903,16.0269738 16.95005,15.8651349 C16.8901096,15.7032959 16.8002004,15.5084926 16.6803197,15.2807193 C16.6803197,15.2567431 16.6623378,15.2147855 16.6263736,15.1548452 Z M16.1048951,10.2637363 C16.0569428,10.2877124 15.9790215,10.3236761 15.8711289,10.3716284 L15.3676324,10.6233766 L15.4395604,11.0549451 C15.4755247,11.21079 15.4995004,11.3606386 15.5114885,11.5044955 L15.5114885,11.7022977 L15.5294705,11.7022977 C15.7572439,11.7262738 15.9250744,11.7442557 16.032967,11.7562438 L16.5364635,11.8461538 L16.6983017,11.6123876 C16.8301705,11.3726262 16.9260736,11.165835 16.986014,10.992008 C17.0459543,10.8181809 17.0759241,10.6833172 17.0759241,10.5874126 C17.0759241,10.491508 17.0699301,10.4105897 17.0579421,10.3446553 C17.045954,10.2787209 17.0339661,10.2277724 17.021978,10.1918082 L16.9140859,10.1198801 L16.7522478,10.1018981 C16.6683312,10.1018981 16.5724281,10.1198799 16.4645355,10.1558442 L16.1048951,10.2637363 Z M15.8171828,12.9250749 C15.9130874,12.8051942 15.9790208,12.721279 16.014985,12.6733267 C16.0749254,12.5774221 16.1288709,12.4995008 16.1768232,12.4395604 L15.7452547,12.3496503 L15.5834166,12.3496503 L15.6013986,12.6733267 C15.6133867,12.6973028 15.6373625,12.7272725 15.6733267,12.7632368 L15.8171828,12.9250749 Z M15.8171828,13.95005 L15.7272727,14.021978 C15.7152847,14.0699303 15.6973028,14.102897 15.6733267,14.1208791 C15.6493505,14.1388612 15.6253747,14.165834 15.6013986,14.2017982 L15.5834166,14.5434565 L15.6733267,14.5434565 L16.1948052,14.4535465 C16.1228768,14.36963 16.0599403,14.2857147 16.005994,14.2017982 C15.9520477,14.1178817 15.8951052,14.0339665 15.8351648,13.95005 L15.8171828,13.95005 Z M18.046953,13.8061938 C18.1548457,13.7462534 18.232767,13.683317 18.2807193,13.6173826 C18.3286716,13.5514482 18.3526474,13.4945057 18.3526474,13.4465534 C18.3526474,13.3986012 18.3256746,13.3386617 18.2717283,13.2667333 C18.2177819,13.1948048 18.1488516,13.1318684 18.0649351,13.0779221 C17.9810186,13.0239758 17.8551457,12.9550454 17.6873127,12.8711289 C17.567432,12.8111885 17.3996015,12.7452551 17.1838162,12.6733267 L16.8601399,12.6013986 C16.8121876,12.6853151 16.7342663,12.7992001 16.6263736,12.9430569 L16.2487512,13.4285714 L16.6263736,13.9320679 L16.8601399,14.2737263 L17.0579421,14.2377622 C17.1178824,14.2137861 17.15984,14.1958043 17.1838162,14.1838162 C17.3876134,14.1238758 17.5554439,14.0639364 17.6873127,14.003996 L17.7772228,13.968032 C17.9090916,13.9080916 17.9990008,13.8541461 18.046953,13.8061938 Z" id="" fill="#2B2826"></path>
        </g>
        <g id="icons-/-Error_Mark" transform="translate(0.000000, 12.000000)">
            <circle id="Oval" fill="#FFFFFF" fill-rule="nonzero" cx="4" cy="4" r="4"></circle>
            <path d="M4.00666043,0.66666822 C4.60923891,0.667230482 5.16978374,0.820408594 5.68831169,1.12620713 C6.1900347,1.42368891 6.5896311,1.82328531 6.88711289,2.32500833 C7.19347473,2.84449144 7.34665335,3.4050364 7.34665335,4.00666001 C7.34665335,4.60828362 7.19347473,5.16882857 6.88711289,5.68831169 C6.5896311,6.1900347 6.1900347,6.5896311 5.68831169,6.88711289 C5.16882857,7.19347473 4.60828362,7.34665335 4.00666001,7.34665335 C3.4050364,7.34665335 2.84449144,7.19347473 2.32500833,6.88711289 C1.82328531,6.5896311 1.42368891,6.1900347 1.12620713,5.68831169 C0.819845288,5.16882857 0.666666667,4.60828362 0.666666667,4.00666001 C0.666666667,3.4050364 0.819845288,2.84449144 1.12620713,2.32500833 C1.42368891,1.82328531 1.82328531,1.42368891 2.32500833,1.12620713 C2.84353627,0.820408594 3.4040811,0.667230482 4.00665958,0.66666822 L4.00666043,0.66666822 Z M4.00666043,0.66666822 C4.00555043,0.666667185 4.00444029,0.666666667 4.00333,0.666666667 L4.00999001,0.666666667 C4.00887973,0.666666667 4.00776958,0.666667185 4.00665958,0.66666822 L4.00666043,0.66666822 Z M4.34299034,5.67499167 L4.34299034,5.00899101 L3.67032967,5.00899101 L3.67032967,5.67499167 L4.34299034,5.67499167 Z M4.34299034,4.34299034 L4.34299034,2.33832834 L3.67032967,2.33832834 L3.67032967,4.34299034 L4.34299034,4.34299034 Z" id="" fill="#F83200"></path>
        </g>
    </g>
</svg>