<?xml version="1.0" encoding="UTF-8"?>
<svg width="20px" height="20px" viewBox="0 0 20 20" version="1.1" xmlns="http://www.w3.org/2000/svg" xmlns:xlink="http://www.w3.org/1999/xlink">
    <!-- Generator: Sketch 51.3 (57544) - http://www.bohemiancoding.com/sketch -->
    <title>icons / classes/ BMC_Transaction_32</title>
    <desc>Created with Sketch.</desc>
    <defs></defs>
    <g id="icons-/-classes/-BMC_Transaction_32" stroke="none" stroke-width="1" fill="none" fill-rule="evenodd">
        <g id="icons-/-classes/-transaction" fill="#F5A623" fill-rule="nonzero" opacity="0">
            <g id="icons-/-20x20-icon-field">
                <rect x="0" y="0" width="20" height="20"></rect>
            </g>
        </g>
        <path d="M17.0833333,6.875 L17.0833333,5 L13.75,7.5 L17.0833333,10 L17.0833333,8.125 L20,8.125 L20,6.875 L17.0833333,6.875 Z M0,10.625 L0,11.875 L2.91666667,11.875 L2.91666667,13.75 L6.25,11.25 L2.91666667,8.75 L2.91666667,10.625 L0,10.625 Z M13.6416667,13.365 C13.6416667,12.7916667 13.4508333,12.3275 13.0683333,11.9725 C12.6858333,11.6175 11.9333333,11.2658333 10.8333333,10.915 L10.8333333,15.565 C12.6983333,15.3258333 13.6416667,14.5925 13.6416667,13.365 Z M6.59,5.94166667 C6.59,6.54666667 6.78333333,7.0325 7.17,7.4 C7.55666667,7.76583333 8.2275,8.1125 9.18166667,8.44 L9.18166667,3.81333333 C8.33083333,3.94083333 7.68583333,4.19 7.2475,4.56083333 C6.80916667,4.93166667 6.59,5.39166667 6.59,5.94166667 Z M15.8333333,13.21 C15.8333333,14.2933333 15.395,15.1883333 14.5183333,15.8933333 C13.6416667,16.5991667 12.4058333,17.0433333 10.8333333,17.2266667 L10.8333333,20 L9.18166667,20 L9.18166667,17.3341667 C8.21916667,17.3341667 7.28666667,17.2641667 6.38416667,17.125 C5.48166667,16.9858333 4.7425,16.7916667 4.16666667,16.545 L4.16666667,14.68 C4.88,14.975 5.7025,15.2166667 6.635,15.4033333 C7.56833333,15.5908333 8.41666667,15.6841667 9.18166667,15.6841667 L9.18166667,10.4241667 C7.41916667,9.90666667 6.18416667,9.305 5.475,8.61916667 C4.76583333,7.93416667 4.41166667,7.04916667 4.41166667,5.965 C4.41166667,4.92083333 4.8475,4.065 5.72,3.395 C6.5925,2.72583333 7.74583333,2.31916667 9.18166667,2.17583333 L9.18166667,0 L10.8333333,0 L10.8333333,2.15166667 C12.4141667,2.19166667 13.9508333,2.48583333 15.4208333,3.03666667 L14.7508333,4.6025 C13.47,4.1325 12.1566667,3.85333333 10.8333333,3.76583333 L10.8333333,8.95416667 C12.1825,9.3525 13.2033333,9.74083333 13.8733333,10.12 C14.5441667,10.4983333 15.0383333,10.9325 15.3566667,11.4225 C15.6741667,11.9125 15.8333333,12.5083333 15.8333333,13.21 Z" id="Fill-1" fill="#333333"></path>
        <g id="icons-/-Error_Mark" transform="translate(0.000000, 12.000000)" opacity="0">
            <circle id="Oval" fill="#FFFFFF" fill-rule="nonzero" cx="4" cy="4" r="4"></circle>
            <path d="M4.00666043,0.66666822 C4.60923891,0.667230482 5.16978374,0.820408594 5.68831169,1.12620713 C6.1900347,1.42368891 6.5896311,1.82328531 6.88711289,2.32500833 C7.19347473,2.84449144 7.34665335,3.4050364 7.34665335,4.00666001 C7.34665335,4.60828362 7.19347473,5.16882857 6.88711289,5.68831169 C6.5896311,6.1900347 6.1900347,6.5896311 5.68831169,6.88711289 C5.16882857,7.19347473 4.60828362,7.34665335 4.00666001,7.34665335 C3.4050364,7.34665335 2.84449144,7.19347473 2.32500833,6.88711289 C1.82328531,6.5896311 1.42368891,6.1900347 1.12620713,5.68831169 C0.819845288,5.16882857 0.666666667,4.60828362 0.666666667,4.00666001 C0.666666667,3.4050364 0.819845288,2.84449144 1.12620713,2.32500833 C1.42368891,1.82328531 1.82328531,1.42368891 2.32500833,1.12620713 C2.84353627,0.820408594 3.4040811,0.667230482 4.00665958,0.66666822 L4.00666043,0.66666822 Z M4.00666043,0.66666822 C4.00555043,0.666667185 4.00444029,0.666666667 4.00333,0.666666667 L4.00999001,0.666666667 C4.00887973,0.666666667 4.00776958,0.666667185 4.00665958,0.66666822 L4.00666043,0.66666822 Z M4.34299034,5.67499167 L4.34299034,5.00899101 L3.67032967,5.00899101 L3.67032967,5.67499167 L4.34299034,5.67499167 Z M4.34299034,4.34299034 L4.34299034,2.33832834 L3.67032967,2.33832834 L3.67032967,4.34299034 L4.34299034,4.34299034 Z" id="" fill="#F83200"></path>
        </g>
    </g>
</svg>