<?xml version="1.0" encoding="UTF-8"?>
<svg width="20px" height="20px" viewBox="0 0 20 20" version="1.1" xmlns="http://www.w3.org/2000/svg" xmlns:xlink="http://www.w3.org/1999/xlink">
    <!-- Generator: Sketch 51.3 (57544) - http://www.bohemiancoding.com/sketch -->
    <title>icons / classes/ BMC_AccessServer_32_Error</title>
    <desc>Created with Sketch.</desc>
    <defs></defs>
    <g id="icons-/-classes/-BMC_AccessServer_32" stroke="none" stroke-width="1" fill="none" fill-rule="evenodd">
        <g>
            <g id="icons-/-20x20-icon-field" fill="#F5A623" fill-rule="nonzero" opacity="0">
                <rect x="0" y="0" width="20" height="20"></rect>
            </g>
            <path d="M13.1868132,17.6793207 C13.3732943,17.6793207 13.5797524,17.6660008 13.8061938,17.6393606 C13.9926749,17.6127205 14.1991331,17.5727608 14.4255744,17.5194805 L14.7452547,17.8791209 L14.7452547,20.016983 L-0.01998002,20.016983 L-0.01998002,-0.002997003 L14.7452547,-0.002997003 L14.7452547,8.52847153 C14.5188134,8.44855105 14.2657357,8.38195165 13.986014,8.32867133 C13.7595726,8.27539101 13.493175,8.24875125 13.1868132,8.24875125 C12.5341293,8.24875125 11.9280747,8.37529011 11.3686314,8.62837163 C10.7692278,8.89477323 10.2697323,9.23443017 9.87012987,9.64735265 C9.43056723,10.1002354 9.08758032,10.6030608 8.84115884,11.1558442 C8.59473736,11.7086275 8.47152847,12.311352 8.47152847,12.964036 C8.47152847,13.6167199 8.6013973,14.2327643 8.86113886,14.8121878 C9.12088042,15.3916113 9.45720739,15.8877768 9.87012987,16.3006993 C10.2963724,16.7402619 10.7958679,17.0799189 11.3686314,17.3196803 C11.9413948,17.5594418 12.5474494,17.6793207 13.1868132,17.6793207 Z M4.21578422,4.19280719 L4.21578422,7.36963037 L10.5294705,7.36963037 L10.5294705,4.19280719 L4.21578422,4.19280719 Z M16.023976,14.1228771 L20.01998,18.0789211 L20.01998,20.016983 L18.0819181,20.016983 L18.0819181,18.8581419 L16.9430569,18.8581419 L16.9430569,17.7392607 L15.7842158,17.7392607 L14.0859141,16.040959 C13.7795522,16.1475197 13.4831849,16.2174491 13.1968032,16.2507493 C12.9104215,16.2840495 12.6107242,16.2773895 12.2977023,16.2307692 C11.9846804,16.184149 11.7082929,16.0942398 11.4685315,15.961039 C11.1888098,15.8145181 10.9623718,15.6413596 10.7892108,15.4415584 C10.5228092,15.1485167 10.326341,14.8121897 10.1998002,14.4325674 C10.0732594,14.0529452 10.00999,13.6400289 10.00999,13.1938062 C10.00999,12.7475835 10.0832494,12.3346672 10.2297702,11.955045 C10.3762911,11.5754227 10.5960691,11.2457556 10.8891109,10.966034 C11.2087928,10.6596721 11.5584397,10.4265742 11.9380619,10.2667333 C12.3176842,10.1068923 12.7239406,10.0169831 13.1568432,9.997003 C13.5897458,9.97702288 13.9926721,10.0336324 14.3656344,10.1668332 C14.7385966,10.300034 15.0782535,10.5264719 15.3846154,10.8461538 C15.5977367,11.045955 15.7742251,11.2790529 15.9140859,11.5454545 C16.0539468,11.8118561 16.1471859,12.0949036 16.1938062,12.3946054 C16.2404265,12.6943072 16.2504164,12.9773546 16.2237762,13.2437562 C16.1971361,13.5101578 16.1305367,13.8031952 16.023976,14.1228771 Z M13.3866134,12.9240759 C13.4398937,12.8041952 13.4665335,12.6776563 13.4665335,12.5444555 C13.4665335,12.4112547 13.4432237,12.2880459 13.3966034,12.1748252 C13.3499831,12.0616045 13.2800537,11.9583754 13.1868132,11.8651349 C13.0935726,11.7718943 12.9970035,11.698635 12.8971029,11.6453546 C12.7972023,11.5920743 12.6806533,11.5654346 12.5474525,11.5654346 C12.4142517,11.5654346 12.2877129,11.5854144 12.1678322,11.6253746 C12.0479514,11.6653349 11.9413924,11.7352642 11.8481518,11.8351648 C11.7549113,11.9350654 11.6849819,12.0416245 11.6383616,12.1548452 C11.5917414,12.2680658 11.5684316,12.3946047 11.5684316,12.5344655 C11.5684316,12.6743264 11.5884114,12.7975353 11.6283716,12.9040959 C11.6683319,13.0106565 11.7349313,13.1105556 11.8281718,13.2037962 C11.9214124,13.2970368 12.0213115,13.3669661 12.1278721,13.4135864 C12.2344328,13.4602067 12.3676316,13.4835165 12.5274725,13.4835165 C12.6473532,13.4835165 12.7605722,13.4635367 12.8671329,13.4235764 C12.9736935,13.3836162 13.0769226,13.3136868 13.1768232,13.2137862 C13.2767238,13.1138856 13.3466531,13.0173165 13.3866134,12.9240759 Z" id="" fill="#2B2826"></path>
            <g id="icons-/-Error_Mark" transform="translate(0.000000, 12.000000)">
                <circle id="Oval" fill="#FFFFFF" fill-rule="nonzero" cx="4" cy="4" r="4"></circle>
                <path d="M4.00666043,0.66666822 C4.60923891,0.667230482 5.16978374,0.820408594 5.68831169,1.12620713 C6.1900347,1.42368891 6.5896311,1.82328531 6.88711289,2.32500833 C7.19347473,2.84449144 7.34665335,3.4050364 7.34665335,4.00666001 C7.34665335,4.60828362 7.19347473,5.16882857 6.88711289,5.68831169 C6.5896311,6.1900347 6.1900347,6.5896311 5.68831169,6.88711289 C5.16882857,7.19347473 4.60828362,7.34665335 4.00666001,7.34665335 C3.4050364,7.34665335 2.84449144,7.19347473 2.32500833,6.88711289 C1.82328531,6.5896311 1.42368891,6.1900347 1.12620713,5.68831169 C0.819845288,5.16882857 0.666666667,4.60828362 0.666666667,4.00666001 C0.666666667,3.4050364 0.819845288,2.84449144 1.12620713,2.32500833 C1.42368891,1.82328531 1.82328531,1.42368891 2.32500833,1.12620713 C2.84353627,0.820408594 3.4040811,0.667230482 4.00665958,0.66666822 L4.00666043,0.66666822 Z M4.00666043,0.66666822 C4.00555043,0.666667185 4.00444029,0.666666667 4.00333,0.666666667 L4.00999001,0.666666667 C4.00887973,0.666666667 4.00776958,0.666667185 4.00665958,0.66666822 L4.00666043,0.66666822 Z M4.34299034,5.67499167 L4.34299034,5.00899101 L3.67032967,5.00899101 L3.67032967,5.67499167 L4.34299034,5.67499167 Z M4.34299034,4.34299034 L4.34299034,2.33832834 L3.67032967,2.33832834 L3.67032967,4.34299034 L4.34299034,4.34299034 Z" id="" fill="#F83200"></path>
            </g>
        </g>
    </g>
</svg>