<?xml version="1.0" encoding="UTF-8"?>
<svg width="20px" height="20px" viewBox="0 0 20 20" version="1.1" xmlns="http://www.w3.org/2000/svg" xmlns:xlink="http://www.w3.org/1999/xlink">
    <!-- Generator: Sketch 51.3 (57544) - http://www.bohemiancoding.com/sketch -->
    <title>icons / classes/ BMC_Memory_32_Error</title>
    <desc>Created with Sketch.</desc>
    <defs></defs>
    <g id="icons-/-classes/-BMC_Memory_32" stroke="none" stroke-width="1" fill="none" fill-rule="evenodd">
        <g id="icons-/-classes/-Memory">
            <g id="icons-/-20x20-icon-field" fill="#F5A623" fill-rule="nonzero" opacity="0">
                <rect x="0" y="0" width="20" height="20"></rect>
            </g>
            <path d="M16.982018,7.71528472 L18.982018,7.71528472 L19,13.7152847 L0.985014985,13.7152847 L0.982017982,7.71528472 L2.98201798,7.71528472 L4.27272727,7.71528472 L4.27272727,6.35964036 C4.27272727,6.25174771 4.30869095,6.16483549 4.38061938,6.0989011 C4.45254781,6.0329667 4.53946003,6 4.64135864,6 C4.74325725,6 4.83016947,6.0329667 4.9020979,6.0989011 C4.97402633,6.16483549 5.00999001,6.25174771 5.00999001,6.35964036 L5.00999001,7.71528472 L6.93406593,7.71528472 L6.93406593,6.35964036 C6.93406593,6.25174771 6.97002961,6.16483549 7.04195804,6.0989011 C7.11388647,6.0329667 7.20379566,6 7.31168831,6 C7.41958096,6 7.50649318,6.0329667 7.57242757,6.0989011 C7.63836197,6.16483549 7.67132867,6.25174771 7.67132867,6.35964036 L7.67132867,7.71528472 L9.5954046,7.71528472 L9.5954046,6.35964036 C9.5954046,6.25174771 9.63136827,6.16483549 9.7032967,6.0989011 C9.77522513,6.0329667 9.86513433,6 9.97302697,6 C10.0809196,6 10.1708288,6.0329667 10.2427572,6.0989011 C10.3146857,6.16483549 10.3506494,6.25174771 10.3506494,6.35964036 L10.3506494,7.71528472 L12.2567433,7.71528472 L12.2567433,6.35964036 C12.2567433,6.25174771 12.2957039,6.16483549 12.3736264,6.0989011 C12.4515488,6.0329667 12.541458,6 12.6433566,6 C12.7452553,6 12.8321675,6.0329667 12.9040959,6.0989011 C12.9760243,6.16483549 13.011988,6.25174771 13.011988,6.35964036 L13.011988,7.71528472 L14.9360639,7.71528472 L14.9360639,6.35964036 C14.9360639,6.25174771 14.9720276,6.16483549 15.043956,6.0989011 C15.1158845,6.0329667 15.2027967,6 15.3046953,6 C15.4065939,6 15.4965031,6.0329667 15.5744256,6.0989011 C15.652348,6.16483549 15.6913087,6.25174771 15.6913087,6.35964036 L15.6913087,7.71528472 L16.982018,7.71528472 Z M2.98201798,9.71528472 L2.98201798,11.7152847 L4.98201798,11.7152847 L4.98201798,9.71528472 L2.98201798,9.71528472 Z M6.98201798,9.71528472 L6.98201798,11.7152847 L8.98201798,11.7152847 L8.98201798,9.71528472 L6.98201798,9.71528472 Z M10.982018,9.71528472 L10.982018,11.7152847 L12.982018,11.7152847 L12.982018,9.71528472 L10.982018,9.71528472 Z M14.982018,9.71528472 L14.982018,11.7152847 L16.982018,11.7152847 L16.982018,9.71528472 L14.982018,9.71528472 Z" id="" fill="#333333" transform="translate(9.991009, 9.857642) rotate(-180.000000) translate(-9.991009, -9.857642) "></path>
        </g>
        <g id="icons-/-Error_Mark" transform="translate(0.000000, 12.000000)">
            <circle id="Oval" fill="#FFFFFF" fill-rule="nonzero" cx="4" cy="4" r="4"></circle>
            <path d="M4.00666043,0.66666822 C4.60923891,0.667230482 5.16978374,0.820408594 5.68831169,1.12620713 C6.1900347,1.42368891 6.5896311,1.82328531 6.88711289,2.32500833 C7.19347473,2.84449144 7.34665335,3.4050364 7.34665335,4.00666001 C7.34665335,4.60828362 7.19347473,5.16882857 6.88711289,5.68831169 C6.5896311,6.1900347 6.1900347,6.5896311 5.68831169,6.88711289 C5.16882857,7.19347473 4.60828362,7.34665335 4.00666001,7.34665335 C3.4050364,7.34665335 2.84449144,7.19347473 2.32500833,6.88711289 C1.82328531,6.5896311 1.42368891,6.1900347 1.12620713,5.68831169 C0.819845288,5.16882857 0.666666667,4.60828362 0.666666667,4.00666001 C0.666666667,3.4050364 0.819845288,2.84449144 1.12620713,2.32500833 C1.42368891,1.82328531 1.82328531,1.42368891 2.32500833,1.12620713 C2.84353627,0.820408594 3.4040811,0.667230482 4.00665958,0.66666822 L4.00666043,0.66666822 Z M4.00666043,0.66666822 C4.00555043,0.666667185 4.00444029,0.666666667 4.00333,0.666666667 L4.00999001,0.666666667 C4.00887973,0.666666667 4.00776958,0.666667185 4.00665958,0.66666822 L4.00666043,0.66666822 Z M4.34299034,5.67499167 L4.34299034,5.00899101 L3.67032967,5.00899101 L3.67032967,5.67499167 L4.34299034,5.67499167 Z M4.34299034,4.34299034 L4.34299034,2.33832834 L3.67032967,2.33832834 L3.67032967,4.34299034 L4.34299034,4.34299034 Z" id="" fill="#F83200"></path>
        </g>
    </g>
</svg>