<?xml version="1.0" encoding="UTF-8"?>
<svg width="20px" height="20px" viewBox="0 0 20 20" version="1.1" xmlns="http://www.w3.org/2000/svg" xmlns:xlink="http://www.w3.org/1999/xlink">
    <!-- Generator: Sketch 51.3 (57544) - http://www.bohemiancoding.com/sketch -->
    <title>icons / classes/ BMC_SANBridge_32</title>
    <desc>Created with Sketch.</desc>
    <defs></defs>
    <g id="icons-/-classes/-BMC_SANBridge_32" stroke="none" stroke-width="1" fill="none" fill-rule="evenodd">
        <g transform="translate(0.000000, -1.000000)">
            <g id="icons-/-20x20-icon-field" transform="translate(0.000000, 1.000000)" fill="#F5A623" fill-rule="nonzero" opacity="0">
                <rect x="0" y="0" width="20" height="20"></rect>
            </g>
            <path d="M17.8265204,11.3962046 L17.8464606,12.6536896 L20,12.6536896 L20,20.997003 L3.34995015,20.997003 L3.34995015,18.7215539 L2.85144566,18.7215539 C2.66533639,18.7215539 2.50581655,18.6483677 2.37288136,18.501993 C2.23994616,18.3556184 2.17347956,18.189286 2.17347956,18.002991 L2.17347956,17.3243483 L0.438683948,17.3243483 C0.319042273,17.3243483 0.219342373,17.2811019 0.139581256,17.1946078 C0.0598201396,17.1081137 0.0199401795,17.0083143 0.0199401795,16.8952066 C0.0199401795,16.7820989 0.0598201396,16.6856262 0.139581256,16.6057854 C0.219342373,16.5259447 0.319042273,16.486025 0.438683948,16.486025 L2.17347956,16.486025 L2.17347956,14.3702565 L0.438683948,14.3702565 C0.319042273,14.3702565 0.216019043,14.3270101 0.129611167,14.240516 C0.0432032901,14.1540219 0,14.0542225 0,13.9411148 C0,13.8280071 0.0432032901,13.7315343 0.129611167,13.6516936 C0.216019043,13.5718529 0.319042273,13.5319331 0.438683948,13.5319331 L2.17347956,13.5319331 L2.17347956,11.3962046 L0.438683948,11.3962046 C0.332335793,11.3962046 0.232635892,11.3596115 0.139581256,11.2864242 C0.0465266201,11.2132368 0,11.1167641 0,10.997003 C0,10.9038555 0.0232633101,10.8306693 0.0697906281,10.7774421 C0.116317946,10.724215 0.166167896,10.6776419 0.219341974,10.6377216 L0.199401795,10.6377216 L0.199401795,10.6177615 L0.239282154,10.6177615 L0.338983051,10.5778413 C0.35227657,10.5645345 0.38550987,10.5578812 0.438683948,10.5578812 L2.17347956,10.5578812 L2.15353938,8.4221527 L0.438683948,8.4221527 C0.332335793,8.4221527 0.232635892,8.38223294 0.139581256,8.30239222 C0.0465266201,8.2225515 0,8.12607875 0,8.01297106 C0,7.89986338 0.0432032901,7.80339062 0.129611167,7.7235499 C0.216019043,7.64370918 0.319042273,7.60378942 0.438683948,7.60378942 L2.15353938,7.60378942 L2.15353938,5.48802096 L0.418743769,5.48802096 C0.312395613,5.48802096 0.216019043,5.44477455 0.129611167,5.35828044 C0.0432032901,5.27178633 0,5.17198693 0,5.05887924 C0,4.94577156 0.0432032901,4.84929881 0.129611167,4.76945809 C0.216019043,4.68961737 0.312395613,4.64969761 0.418743769,4.64969761 L2.15353938,4.64969761 L2.15353938,3.73153394 C2.15353938,3.54523893 2.22665264,3.38555988 2.37288136,3.25249202 C2.51911007,3.11942415 2.68527657,3.05289122 2.87138584,3.05289122 L3.66899302,3.05289122 L3.66899302,1.39620459 C3.66899302,1.27644352 3.70887298,1.17997076 3.7886341,1.10678344 C3.86839521,1.03359611 3.96477178,0.997002997 4.0777667,0.997002997 C4.19076162,0.997002997 4.28713819,1.03359611 4.3668993,1.10678344 C4.44666042,1.17997076 4.48654038,1.27644352 4.48654038,1.39620459 L4.48654038,3.03293114 L6.62013958,3.03293114 L6.62013958,1.39620459 C6.62013958,1.27644352 6.66001954,1.17997076 6.73978066,1.10678344 C6.81954177,1.03359611 6.91924167,0.997002997 7.03888335,0.997002997 C7.15852502,0.997002997 7.2549016,1.03359611 7.32801595,1.10678344 C7.40113031,1.17997076 7.43768694,1.27644352 7.43768694,1.39620459 L7.43768694,3.03293114 L9.57128614,3.03293114 L9.57128614,1.39620459 C9.57128614,1.27644352 9.6111661,1.17997076 9.69092722,1.10678344 C9.77068833,1.03359611 9.87038824,0.997002997 9.99002991,0.997002997 C10.1096716,0.997002997 10.2093715,1.03359611 10.2891326,1.10678344 C10.3688937,1.17997076 10.4087737,1.27644352 10.4087737,1.39620459 L10.4087737,3.03293114 L12.5224327,3.03293114 L12.5224327,1.39620459 C12.5224327,1.27644352 12.565636,1.17997076 12.6520439,1.10678344 C12.7384517,1.03359611 12.8381516,0.997002997 12.9511466,0.997002997 C13.0641415,0.997002997 13.160518,1.03359611 13.2402792,1.10678344 C13.3200403,1.17997076 13.3599202,1.27644352 13.3599202,1.39620459 L13.3599202,3.01297106 L15.4935194,3.01297106 L15.4935194,1.39620459 C15.4935194,1.27644352 15.5333994,1.17997076 15.6131605,1.10678344 C15.6929216,1.03359611 15.7892982,0.997002997 15.9022931,0.997002997 C16.015288,0.997002997 16.1149879,1.03359611 16.2013958,1.10678344 C16.2878037,1.17997076 16.331007,1.27644352 16.331007,1.39620459 L16.331007,3.01297106 L17.1286142,3.01297106 C17.3147234,3.01297106 17.4742433,3.08615729 17.6071785,3.23253194 C17.7401137,3.37890659 17.8065803,3.54523893 17.8065803,3.73153394 L17.8065803,4.62973753 L19.5613161,4.62973753 C19.6676642,4.62973753 19.7640408,4.67298394 19.8504487,4.75947805 C19.9368565,4.84597216 19.9800598,4.94577156 19.9800598,5.05887924 C19.9800598,5.17198693 19.9401799,5.27178633 19.8604187,5.35828044 C19.7806576,5.44477455 19.6809577,5.48802096 19.5613161,5.48802096 L17.8265204,5.48802096 L17.8265204,7.58382934 L19.5613161,7.58382934 C19.6809577,7.58382934 19.7806576,7.62707575 19.8604187,7.71356986 C19.9401799,7.80006398 19.9800598,7.90319002 19.9800598,8.0229511 C19.9800598,8.14271218 19.9401799,8.23918493 19.8604187,8.31237226 C19.7806576,8.38555958 19.6809577,8.4221527 19.5613161,8.4221527 L17.8265204,8.4221527 L17.8265204,10.5578812 L19.5613161,10.5578812 C19.6809577,10.5578812 19.7806576,10.597801 19.8604187,10.6776417 C19.9401799,10.7574824 19.9800598,10.8539552 19.9800598,10.9670629 C19.9800598,11.0801706 19.9401799,11.17997 19.8604187,11.2664641 C19.7806576,11.3529582 19.6809577,11.3962046 19.5613161,11.3962046 L17.8265204,11.3962046 Z M4.16749751,13.492013 L4.16749751,20.1387196 L19.1425723,20.1387196 L19.1425723,13.492013 L4.16749751,13.492013 Z M7.95613161,18.7215539 C8.06247976,18.6683267 8.14556301,18.6217537 8.20538385,18.5818333 C8.26520469,18.541913 8.3217013,18.4886866 8.37487537,18.4221527 C8.42804945,18.3556188 8.46128275,18.2890858 8.47457627,18.2225519 C8.48786979,18.156018 8.49451645,18.0828317 8.49451645,18.002991 C8.49451645,17.9231503 8.48454646,17.8566174 8.46460618,17.8033902 C8.4446659,17.7501631 8.4114326,17.6936101 8.36490528,17.6337295 C8.31837797,17.573849 8.26188136,17.517296 8.19541376,17.4640689 C8.12894616,17.4108417 8.04253958,17.370922 7.93619143,17.3443084 L7.63708873,17.244508 C7.55732762,17.2312012 7.40445444,17.1979347 7.17846461,17.1447076 L6.52043868,16.9451068 C6.34762293,16.8918796 6.22798305,16.8453066 6.16151545,16.8053862 C6.04187378,16.7521591 5.93552722,16.6856262 5.84247258,16.6057854 C5.74941795,16.5259447 5.67630469,16.4427785 5.62313061,16.3562844 C5.56995653,16.2697903 5.53007657,16.1799709 5.50348953,16.0868234 C5.47690249,15.9936759 5.46360917,15.8872232 5.46360917,15.7674621 C5.46360917,15.647701 5.48354915,15.5312684 5.52342971,15.4181607 C5.56331027,15.305053 5.61648355,15.2019269 5.68295115,15.1087794 C5.74941874,15.0156319 5.83250199,14.9258125 5.93220339,14.8393184 C6.03190479,14.7528243 6.15154467,14.679638 6.29112662,14.6197575 C6.43070857,14.5598769 6.56031844,14.5166305 6.67996012,14.490017 C6.83948235,14.4634034 6.99900219,14.4500968 7.15852443,14.4500968 C7.31804666,14.4500968 7.4775665,14.46673 7.63708873,14.499997 C7.79661097,14.533264 7.94616082,14.5765104 8.08574277,14.6297375 C8.22532473,14.6829647 8.35161127,14.7561509 8.46460618,14.8492984 C8.5776011,14.9424459 8.66400768,15.0389187 8.72382851,15.1387196 C8.78364935,15.2385205 8.8334993,15.3482998 8.87337986,15.4680609 C8.91326042,15.587822 8.9332004,15.7275411 8.9332004,15.8872226 L8.33499501,15.9271427 C8.30840798,15.7541545 8.27517468,15.6210886 8.23529412,15.5279411 C8.16882652,15.40818 8.0890666,15.3117073 7.99601196,15.23852 C7.90295733,15.1653326 7.78996411,15.1087796 7.65702891,15.0688593 C7.52409372,15.0289389 7.36457388,15.008979 7.17846461,15.008979 C6.99235533,15.008979 6.82951216,15.0222856 6.68993021,15.0488992 C6.55034826,15.0755128 6.4340317,15.1287391 6.34097707,15.2085798 C6.24792243,15.2884206 6.18145583,15.3715867 6.14157527,15.4580808 C6.10169472,15.544575 6.08175474,15.6310678 6.08175474,15.7175619 C6.08175474,15.804056 6.09504806,15.8805689 6.12163509,15.9471028 C6.14822213,16.0136367 6.19142542,16.076843 6.25124626,16.1367236 C6.3110671,16.1966041 6.42073699,16.2598104 6.58025922,16.3263443 C6.77966201,16.3928782 6.99235513,16.4461046 7.21834497,16.486025 L7.85643071,16.6656657 L8.27517448,16.8053862 C8.42140319,16.8719202 8.53439641,16.9384531 8.61415753,17.004987 C8.7337992,17.1114413 8.82020578,17.2045874 8.87337986,17.2844281 C8.95314098,17.3775757 9.00963759,17.4773751 9.04287139,17.5838293 C9.07610518,17.6902836 9.09272183,17.8100429 9.09272183,17.9431108 C9.09272183,18.0761786 9.07278185,18.1992646 9.0329013,18.3123723 C8.99302074,18.4254799 8.93652413,18.5385859 8.86340977,18.6516936 C8.79029541,18.7648013 8.70388883,18.8646007 8.60418744,18.9510948 C8.50448604,19.0375889 8.38816949,19.1174284 8.2552343,19.1906158 C8.1222991,19.2638031 7.97274925,19.3137028 7.80658026,19.3403164 C7.64041127,19.3669299 7.4775681,19.3802365 7.31804586,19.3802365 C7.10534955,19.3802365 6.90927308,19.3636033 6.72981057,19.3303363 C6.55034806,19.2970694 6.38418156,19.2471697 6.23130608,19.1806357 C6.07843061,19.1141018 5.94217408,19.0342623 5.8225324,18.9411148 C5.70289073,18.8479673 5.60651416,18.7381879 5.5333998,18.6117735 C5.46028544,18.485359 5.40378883,18.3489665 5.36390828,18.2025918 C5.32402772,18.0562172 5.30408774,17.9098447 5.30408774,17.7634701 L5.88235294,17.7235499 L5.96211366,18.0429112 C5.97540718,18.1227519 6.00864048,18.2092447 6.06181456,18.3023922 C6.15486919,18.4088465 6.22798245,18.4820327 6.28115653,18.5219531 C6.37421117,18.588487 6.46726441,18.6417134 6.56031904,18.6816337 C6.69325424,18.7348609 6.81621745,18.7747806 6.92921236,18.8013942 C7.04220728,18.8280078 7.16517049,18.8413144 7.29810568,18.8413144 C7.43104088,18.8413144 7.5440341,18.8346611 7.63708873,18.8213543 C7.78331745,18.7814339 7.88966401,18.7481675 7.95613161,18.7215539 Z M10.6281157,17.8632705 L10.109671,19.3003962 L9.43170489,19.3003962 L11.2662014,14.5299371 L11.9441675,14.5299371 L13.8983051,19.3003962 L13.1804586,19.3003962 L12.6021934,17.8632705 L10.6281157,17.8632705 Z M11.3459621,15.9471028 L10.8275174,17.3443084 L12.442672,17.3443084 L11.9242273,15.987023 C11.8311727,15.7608076 11.7713527,15.5944753 11.7447657,15.488021 L11.6051844,15.0488992 C11.5785974,15.2085806 11.5453641,15.3549531 11.5054835,15.488021 L11.3459621,15.9471028 Z M14.995015,19.3003962 L14.3968096,19.3003962 L14.3968096,14.5299371 L15.0548355,14.5299371 L17.5473579,18.2824321 L17.5473579,14.5299371 L18.1655035,14.5299371 L18.1655035,19.3003962 L17.5274177,19.3003962 L14.995015,15.5479012 L14.995015,19.3003962 Z" id="" fill="#2B2826"></path>
            <g id="icons-/-Error_Mark" transform="translate(0.000000, 13.000000)" opacity="0">
                <circle id="Oval" fill="#FFFFFF" fill-rule="nonzero" cx="4" cy="4" r="4"></circle>
                <path d="M4.00666043,0.66666822 C4.60923891,0.667230482 5.16978374,0.820408594 5.68831169,1.12620713 C6.1900347,1.42368891 6.5896311,1.82328531 6.88711289,2.32500833 C7.19347473,2.84449144 7.34665335,3.4050364 7.34665335,4.00666001 C7.34665335,4.60828362 7.19347473,5.16882857 6.88711289,5.68831169 C6.5896311,6.1900347 6.1900347,6.5896311 5.68831169,6.88711289 C5.16882857,7.19347473 4.60828362,7.34665335 4.00666001,7.34665335 C3.4050364,7.34665335 2.84449144,7.19347473 2.32500833,6.88711289 C1.82328531,6.5896311 1.42368891,6.1900347 1.12620713,5.68831169 C0.819845288,5.16882857 0.666666667,4.60828362 0.666666667,4.00666001 C0.666666667,3.4050364 0.819845288,2.84449144 1.12620713,2.32500833 C1.42368891,1.82328531 1.82328531,1.42368891 2.32500833,1.12620713 C2.84353627,0.820408594 3.4040811,0.667230482 4.00665958,0.66666822 L4.00666043,0.66666822 Z M4.00666043,0.66666822 C4.00555043,0.666667185 4.00444029,0.666666667 4.00333,0.666666667 L4.00999001,0.666666667 C4.00887973,0.666666667 4.00776958,0.666667185 4.00665958,0.66666822 L4.00666043,0.66666822 Z M4.34299034,5.67499167 L4.34299034,5.00899101 L3.67032967,5.00899101 L3.67032967,5.67499167 L4.34299034,5.67499167 Z M4.34299034,4.34299034 L4.34299034,2.33832834 L3.67032967,2.33832834 L3.67032967,4.34299034 L4.34299034,4.34299034 Z" id="" fill="#F83200"></path>
            </g>
        </g>
    </g>
</svg>