<?xml version="1.0" encoding="UTF-8"?>
<svg width="20px" height="20px" viewBox="0 0 20 20" version="1.1" xmlns="http://www.w3.org/2000/svg" xmlns:xlink="http://www.w3.org/1999/xlink">
    <!-- Generator: Sketch 51.3 (57544) - http://www.bohemiancoding.com/sketch -->
    <title>icons / classes/ BMC_AdministrationApplication_PS_32</title>
    <desc>Created with Sketch.</desc>
    <defs></defs>
    <g id="icons-/-classes/-BMC_AdministrationApplication_PS_32" stroke="none" stroke-width="1" fill="none" fill-rule="evenodd">
        <g transform="translate(-1.000000, 0.000000)">
            <g id="icons-/-20x20-icon-field" transform="translate(1.000000, 0.000000)" fill="#F5A623" fill-rule="nonzero" opacity="0">
                <rect x="0" y="0" width="20" height="20"></rect>
            </g>
            <path d="M20.8601399,3.25374625 C20.9134202,3.37362697 20.9533798,3.49683586 20.98002,3.62337662 C21.0066601,3.74991738 21.01998,3.87312627 21.01998,3.99300699 L21.01998,16.020979 C21.01998,16.1408597 21.0000002,16.2740585 20.96004,16.4205794 C20.9467199,16.5271401 20.9134202,16.647019 20.8601399,16.7802198 C20.8201796,16.8734603 20.7535802,16.9866793 20.6603397,17.1198801 C20.6070593,17.2264408 20.5171501,17.3329998 20.3906094,17.4395604 C20.2640686,17.5461211 20.1608396,17.6260404 20.0809191,17.6793207 C19.9343982,17.7592412 19.8145193,17.8191806 19.7212787,17.8591409 C19.6280382,17.8991011 19.5181492,17.9324008 19.3916084,17.959041 C19.2650676,17.9856811 19.1351988,17.999001 19.001998,17.999001 L2.97802198,17.999001 C2.87146134,17.999001 2.75158242,17.9856811 2.61838162,17.959041 C2.48518082,17.9324008 2.35864196,17.8991011 2.23876124,17.8591409 C2.15884076,17.8191806 2.05228172,17.7592412 1.91908092,17.6793207 L1.8991009,17.6793207 C1.8325005,17.6260404 1.7326014,17.5394611 1.5994006,17.4195804 C1.49283996,17.3396599 1.3996008,17.2397608 1.31968032,17.1198801 C1.25307992,17.0399596 1.19314046,16.9300706 1.13986014,16.7902098 C1.08657982,16.650349 1.04662018,16.5204801 1.01998002,16.4005994 C0.99333986,16.2807187 0.98001998,16.1541798 0.98001998,16.020979 L0.98001998,3.99300699 C0.98001998,3.87312627 0.99666983,3.74325744 1.02997003,3.6033966 C1.06327023,3.46353576 1.0998999,3.34032687 1.13986014,3.23376623 C1.17982038,3.12720559 1.24308981,3.01731658 1.32967033,2.9040959 C1.41625085,2.79087522 1.4995001,2.69430609 1.57942058,2.61438561 C1.65934106,2.53446513 1.7659001,2.44122597 1.8991009,2.33466533 C1.99234146,2.26806494 2.10556044,2.20812547 2.23876124,2.15484515 C2.37196204,2.10156484 2.4985009,2.06160519 2.61838162,2.03496503 C2.73826234,2.00832488 2.85814126,1.995005 2.97802198,1.995005 L19.021978,1.995005 C19.1418587,1.995005 19.2750575,2.00832488 19.4215784,2.03496503 C19.5281391,2.06160519 19.648018,2.10156484 19.7812188,2.15484515 C19.8478192,2.19480539 19.9543782,2.25474486 20.1008991,2.33466533 C20.1941397,2.38794565 20.3006987,2.48118482 20.4205794,2.61438561 C20.51382,2.70762617 20.5937393,2.80752527 20.6603397,2.91408591 L20.7002997,2.97402597 C20.7669001,3.09390669 20.8201796,3.18714585 20.8601399,3.25374625 Z M2.87812188,4.89210789 C2.90476204,4.95870829 2.9314018,5.00532787 2.95804196,5.03196803 L3.03796204,5.15184815 L3.2977023,5.29170829 C3.35098262,5.31834845 3.3976022,5.33832827 3.43756244,5.35164835 L3.5974026,5.35164835 C3.7306034,5.35164835 3.84049241,5.3349985 3.92707293,5.3016983 C4.01365345,5.2683981 4.09024276,5.22177852 4.15684316,5.16183816 C4.22344356,5.1018978 4.27339311,5.02530849 4.30669331,4.93206793 C4.33999351,4.83882737 4.35664336,4.72560839 4.35664336,4.59240759 L4.33666334,4.43256743 C4.33666334,4.41924735 4.3300034,4.39926753 4.31668332,4.37262737 L4.21678322,4.17282717 L4.10689311,4.06293706 C4.07359291,4.02963686 4.04362318,4.00632707 4.01698302,3.99300699 L3.87712288,3.93306693 C3.83716264,3.90642677 3.79054306,3.89310689 3.73726274,3.89310689 L3.5974026,3.87312687 L3.43756244,3.89310689 C3.38428212,3.89310689 3.33766254,3.90642677 3.2977023,3.93306693 L3.05794206,4.09290709 L2.93806194,4.21278721 C2.92474186,4.23942737 2.91142198,4.27272707 2.8981019,4.31268731 L2.87812188,4.33266733 C2.85148172,4.37262757 2.83816184,4.41924715 2.83816184,4.47252747 L2.81818182,4.59240759 L2.83816184,4.75224775 L2.87812188,4.89210789 Z M19.021978,6.81018981 L2.97802198,6.81018981 L2.97802198,16.020979 L19.021978,16.020979 L19.021978,6.81018981 Z M4.8961039,4.33266733 C4.86946374,4.37262757 4.85614386,4.41924715 4.85614386,4.47252747 L4.83616384,4.61238761 L4.85614386,4.77222777 C4.85614386,4.81218801 4.86613377,4.85214765 4.88611389,4.89210789 L4.95604396,5.03196803 C4.96936404,5.05860819 5.00266374,5.09856783 5.05594406,5.15184815 L5.31568432,5.29170829 C5.35564456,5.31834845 5.39227423,5.3349983 5.42557443,5.34165834 C5.45887463,5.34831838 5.51548412,5.35164835 5.5954046,5.35164835 C5.72860539,5.35164835 5.84182438,5.33832847 5.93506494,5.31168831 C6.02830549,5.28504815 6.10156484,5.24175854 6.15484515,5.18181818 C6.20812547,5.12187782 6.25474505,5.04528851 6.29470529,4.95204795 C6.33466553,4.85880739 6.35464535,4.73892847 6.35464535,4.59240759 L6.33466533,4.45254745 C6.33466533,4.41258721 6.32467542,4.3692976 6.3046953,4.32267732 C6.28471518,4.27605704 6.26140539,4.23276743 6.23476523,4.19280719 L6.21478521,4.17282717 C6.18814505,4.13286693 6.16150529,4.09956723 6.13486513,4.07292707 L6.01498501,3.99300699 L5.8951049,3.93306693 C5.84182458,3.90642677 5.795205,3.88644695 5.75524476,3.87312687 L5.43556444,3.87312687 C5.3956042,3.88644695 5.35231459,3.90642677 5.30569431,3.93306693 C5.25907403,3.95970709 5.21578442,3.98634685 5.17582418,4.01298701 L5.05594406,4.11288711 L4.95604396,4.21278721 C4.9294038,4.25274745 4.90942398,4.29270709 4.8961039,4.33266733 Z M19.021978,3.99300699 L19.021978,5.19180819 L6.99400599,5.19180819 L6.99400599,3.99300699 L19.021978,3.99300699 Z M11.9424468,8.13173653 C12.0143034,8.06786395 12.1021269,8.02395222 12.2059198,8 L13.4634049,8 C13.5592137,8 13.6450412,8.03991976 13.7208899,8.11976048 C13.7967386,8.1996012 13.8346623,8.29141665 13.8346623,8.39520958 L13.8346623,9.64071856 C13.8346623,9.73652743 13.7987346,9.82235491 13.7268779,9.89820359 C13.6550213,9.97405228 13.5671978,10.011976 13.4634049,10.011976 L12.2059198,10.011976 C12.1021269,10.011976 12.0123074,9.97405228 11.9364588,9.89820359 C11.8606101,9.82235491 11.8306702,9.73652743 11.8466384,9.64071856 L11.8466384,9.25748503 L11.0921474,9.25748503 L11.0921474,11.257485 L11.8466384,11.257485 L11.8466384,10.8982036 C11.8466384,10.7784425 11.8805702,10.6846311 11.9484348,10.6167665 C12.0162994,10.5489019 12.1021269,10.5109781 12.2059198,10.502994 L13.4634049,10.502994 C13.5671978,10.502994 13.6550213,10.5409178 13.7268779,10.6167665 C13.7987346,10.6926151 13.8346623,10.7824346 13.8346623,10.8862275 L13.8346623,12.1317365 C13.8346623,12.2355295 13.7967386,12.3233529 13.7208899,12.3952096 C13.6450412,12.4670662 13.5592137,12.502994 13.4634049,12.502994 L12.2059198,12.502994 C12.1021269,12.502994 12.0123074,12.4670662 11.9364588,12.3952096 C11.8606101,12.3233529 11.8306702,12.2355295 11.8466384,12.1317365 L11.8466384,11.760479 L11.0921474,11.760479 L11.0921474,13.760479 L11.8466384,13.760479 L11.8466384,13.3772455 C11.8466384,13.2814366 11.8805702,13.1956092 11.9484348,13.1197605 C12.0162994,13.0439118 12.1021269,13.005988 12.2059198,13.005988 L13.4634049,13.005988 C13.5592137,13.005988 13.6450412,13.0479038 13.7208899,13.1317365 C13.7967386,13.2155693 13.8346623,13.3013968 13.8346623,13.3892216 L13.8346623,14.6347305 C13.8346623,14.7385235 13.7947426,14.8263469 13.7149019,14.8982036 C13.6350611,14.9700602 13.5472377,15.005988 13.4514288,15.005988 L12.2059198,15.005988 C12.0941428,15.005988 12.0023274,14.9680643 11.9304707,14.8922156 C11.8586141,14.8163669 11.8306702,14.7305394 11.8466384,14.6347305 L11.8466384,14.2634731 L11.0921474,14.2634731 C10.94045,14.2634731 10.8147028,14.2115774 10.7149019,14.1077844 C10.615101,14.0039915 10.5691932,13.8842322 10.5771773,13.748503 L10.5771773,11.760479 L9.83466234,11.760479 L9.83466234,12.1317365 C9.83466234,12.2435135 9.79873456,12.333333 9.72687791,12.4011976 C9.65502127,12.4690622 9.56320582,12.502994 9.45142881,12.502994 L8.21789588,12.502994 C8.12208701,12.502994 8.03625953,12.4650702 7.96041085,12.3892216 C7.88456216,12.3133729 7.84264642,12.2275454 7.83466234,12.1317365 L7.83466234,10.8862275 C7.83466234,10.7744505 7.87258612,10.6846311 7.9484348,10.6167665 C8.02428348,10.5489019 8.11410294,10.5149701 8.21789588,10.5149701 L9.47538091,10.5149701 C9.57917384,10.5149701 9.6689933,10.5528938 9.74484198,10.6287425 C9.82069067,10.7045912 9.85063049,10.7944107 9.83466234,10.8982036 L9.83466234,11.2694611 L10.5891534,11.2694611 L10.5891534,9.26946108 C10.5891534,9.12574778 10.6370571,9.00399251 10.7328659,8.90419162 C10.8286748,8.80439072 10.9484341,8.75848299 11.0921474,8.76646707 L11.8466384,8.76646707 L11.8466384,8.39520958 C11.8466384,8.29141665 11.8785742,8.20359317 11.9424468,8.13173653 Z" id="" fill="#2B2826"></path>
            <g id="icons-/-Error_Mark" transform="translate(2.000000, 12.000000)" opacity="0">
                <circle id="Oval" fill="#FFFFFF" fill-rule="nonzero" cx="4" cy="4" r="4"></circle>
                <path d="M4.00666043,0.66666822 C4.60923891,0.667230482 5.16978374,0.820408594 5.68831169,1.12620713 C6.1900347,1.42368891 6.5896311,1.82328531 6.88711289,2.32500833 C7.19347473,2.84449144 7.34665335,3.4050364 7.34665335,4.00666001 C7.34665335,4.60828362 7.19347473,5.16882857 6.88711289,5.68831169 C6.5896311,6.1900347 6.1900347,6.5896311 5.68831169,6.88711289 C5.16882857,7.19347473 4.60828362,7.34665335 4.00666001,7.34665335 C3.4050364,7.34665335 2.84449144,7.19347473 2.32500833,6.88711289 C1.82328531,6.5896311 1.42368891,6.1900347 1.12620713,5.68831169 C0.819845288,5.16882857 0.666666667,4.60828362 0.666666667,4.00666001 C0.666666667,3.4050364 0.819845288,2.84449144 1.12620713,2.32500833 C1.42368891,1.82328531 1.82328531,1.42368891 2.32500833,1.12620713 C2.84353627,0.820408594 3.4040811,0.667230482 4.00665958,0.66666822 L4.00666043,0.66666822 Z M4.00666043,0.66666822 C4.00555043,0.666667185 4.00444029,0.666666667 4.00333,0.666666667 L4.00999001,0.666666667 C4.00887973,0.666666667 4.00776958,0.666667185 4.00665958,0.66666822 L4.00666043,0.66666822 Z M4.34299034,5.67499167 L4.34299034,5.00899101 L3.67032967,5.00899101 L3.67032967,5.67499167 L4.34299034,5.67499167 Z M4.34299034,4.34299034 L4.34299034,2.33832834 L3.67032967,2.33832834 L3.67032967,4.34299034 L4.34299034,4.34299034 Z" id="" fill="#F83200"></path>
            </g>
        </g>
    </g>
</svg>