<?xml version="1.0" encoding="UTF-8"?>
<svg width="20px" height="20px" viewBox="0 0 20 20" version="1.1" xmlns="http://www.w3.org/2000/svg" xmlns:xlink="http://www.w3.org/1999/xlink">
    <!-- Generator: Sketch 51.3 (57544) - http://www.bohemiancoding.com/sketch -->
    <title>icons / classes/ BMC_SystemComponent_32</title>
    <desc>Created with Sketch.</desc>
    <defs></defs>
    <g id="icons-/-classes/-BMC_SystemComponent_32" stroke="none" stroke-width="1" fill="none" fill-rule="evenodd">
        <g id="icons-/-classes/-System-Component">
            <g id="icons-/-20x20-icon-field" fill="#F5A623" fill-rule="nonzero" opacity="0">
                <rect x="0" y="0" width="20" height="20"></rect>
            </g>
            <path d="M18.8921079,1.48851149 C18.9280721,1.56043992 18.9550449,1.63236727 18.973027,1.7042957 C18.9910091,1.77622414 19,1.86613333 19,1.97402597 L19,9.23876124 L17.003996,7.22477522 L17.003996,2.69330669 L2.996004,2.69330669 L2.996004,11.6843157 L11.1058941,11.6843157 L9.09190809,13.6803197 L2.29470529,13.6803197 C2.21078879,13.6803197 2.11488565,13.6743257 2.00699301,13.6623377 C1.89910036,13.6503496 1.81518511,13.6293708 1.75524476,13.5994006 C1.6953044,13.5694304 1.63236796,13.5304698 1.56643357,13.4825175 C1.50049917,13.4345652 1.44355668,13.3626378 1.3956044,13.2667333 L1.23376623,13.0689311 C1.19780202,13.0089907 1.15284742,12.9430573 1.0989011,12.8711289 C1.04495478,12.7992004 1.01198807,12.7272731 1,12.6553447 L1,1.97402597 C1,1.86613333 1.00599395,1.77922111 1.01798202,1.71328671 C1.02997009,1.64735232 1.05394587,1.5604401 1.08991009,1.45254745 C1.12587431,1.39260709 1.16783193,1.32967066 1.21578422,1.26373626 C1.2637365,1.19780187 1.32367596,1.14085938 1.3956044,1.09290709 C1.43156861,1.05694288 1.48551413,1.01498525 1.55744256,0.967032967 L1.80919081,0.805194805 C1.86913117,0.757242517 1.94405549,0.724275814 2.03396603,0.706293706 C2.12387657,0.688311598 2.21078879,0.679320679 2.29470529,0.679320679 L17.7052947,0.679320679 C17.7772231,0.679320679 17.8731263,0.685314625 17.993007,0.697302697 C18.0529474,0.709290769 18.1308687,0.733266553 18.2267732,0.769230769 C18.2987017,0.793206913 18.367632,0.829170589 18.4335664,0.877122877 C18.4995008,0.925075165 18.5564433,0.991008571 18.6043956,1.07492507 L18.8921079,1.48851149 Z M9.50549451,10.4615385 C9.49350643,10.4495504 9.48751249,10.4375625 9.48751249,10.4255744 L9.48751249,9.86813187 L9.46953047,9.7962038 L9.46953047,9.74225774 L9.41558442,9.67032967 L9.37962038,9.67032967 L8.8041958,9.41858142 L8.64235764,9.43656344 L8.60639361,9.47252747 L8.19280719,9.86813187 L8.15684316,9.86813187 L8.12087912,9.9040959 C8.12087912,9.91608398 8.11488517,9.92207792 8.1028971,9.92207792 L8.03096903,9.92207792 L7.92307692,9.86813187 L7.4015984,9.34665335 L7.38361638,9.27472527 C7.37162831,9.2627372 7.36563437,9.25074931 7.36563437,9.23876124 L7.36563437,9.16683317 L7.4015984,9.05894106 L7.81518482,8.66333666 L7.83316683,8.64535465 C7.84515491,8.63336657 7.85114885,8.62137868 7.85114885,8.60939061 L7.85114885,8.55544456 L7.86913087,8.48351648 L7.83316683,8.44755245 L7.67132867,7.998002 L7.67132867,7.96203796 C7.67132867,7.95004989 7.6683317,7.938062 7.66233766,7.92607393 C7.65634363,7.91408585 7.65034968,7.90509494 7.64435564,7.8991009 C7.63836161,7.89310686 7.62337674,7.88411594 7.5994006,7.87212787 L7.56343656,7.87212787 L7.54545455,7.83616384 L7.49150849,7.83616384 L6.8981019,7.81818182 L6.86213786,7.81818182 L6.84415584,7.8001998 C6.84415584,7.78821173 6.82617401,7.78221778 6.79020979,7.78221778 L6.79020979,7.76423576 C6.77822172,7.76423576 6.77222777,7.75224787 6.77222777,7.72827173 L6.75424575,7.67432567 C6.74225768,7.67432567 6.73626374,7.66833173 6.73626374,7.65634366 L6.73626374,6.9010989 L6.75424575,6.86513487 L6.79020979,6.81118881 C6.82617401,6.78721267 6.84415584,6.76923083 6.84415584,6.75724276 L6.86213786,6.75724276 C6.87412593,6.74525469 6.88611383,6.73926074 6.8981019,6.73926074 L7.54545455,6.73926074 L7.58141858,6.72127872 L7.5994006,6.68531469 L7.63536464,6.66733267 C7.64735271,6.66733267 7.65634363,6.66133872 7.66233766,6.64935065 C7.6683317,6.63736258 7.67132867,6.62537469 7.67132867,6.61338661 L7.67132867,6.57742258 L7.86913087,6.16383616 L7.86913087,6.12787213 L7.90509491,6.07392607 L7.88711289,5.96603397 C7.88711289,5.95404589 7.88111894,5.942058 7.86913087,5.93006993 L7.83316683,5.85814186 L7.45554446,5.4985015 L7.43756244,5.46253746 L7.41958042,5.40859141 L7.41958042,5.31868132 L7.43756244,5.26473526 C7.44955051,5.26473526 7.45554446,5.25874132 7.45554446,5.24675325 L8.01298701,4.68931069 C8.01298701,4.67732262 8.01898096,4.67132867 8.03096903,4.67132867 L8.15684316,4.67132867 L8.60639361,5.1028971 C8.60639361,5.11488517 8.61238755,5.12387609 8.62437562,5.12987013 C8.6363637,5.13586417 8.64835159,5.13886114 8.66033966,5.13886114 L8.6963037,5.15684316 L8.82217782,5.17482517 L8.89410589,5.13886114 L9.32567433,4.97702298 L9.36163836,4.94105894 L9.41558442,4.94105894 L9.50549451,4.81518482 L9.52347652,4.74325674 L9.52347652,4.16783217 L9.54145854,4.0959041 L9.57742258,4.05994006 C9.57742258,4.04795199 9.58341652,4.04195804 9.5954046,4.04195804 L9.63136863,4.02397602 L10.4045954,4.02397602 L10.5304695,4.04195804 L10.5664336,4.05994006 C10.5784216,4.07192813 10.5844156,4.08391602 10.5844156,4.0959041 L10.6023976,4.13186813 L10.6023976,4.72527473 C10.6023976,4.74925087 10.6083915,4.76723271 10.6203796,4.77922078 L10.6383616,4.85114885 L10.6923077,4.94105894 L10.7462537,4.94105894 L11.2137862,5.12087912 L11.2497502,5.15684316 L11.3936064,5.15684316 L11.4295704,5.12087912 L11.4655345,5.12087912 L11.8971029,4.67132867 L12.0949051,4.67132867 L12.1038961,4.68931069 C12.1098901,4.70129876 12.1128871,4.71328665 12.1128871,4.72527473 L12.6703297,5.22877123 L12.6883117,5.31868132 L12.6883117,5.40859141 L12.6703297,5.51648352 L12.2747253,5.85814186 C12.2747253,5.882118 12.2627374,5.90609379 12.2387612,5.93006993 C12.190809,5.942058 12.1668332,5.95404589 12.1668332,5.96603397 L12.1668332,6.001998 C12.1548451,6.01398607 12.1488511,6.02597397 12.1488511,6.03796204 L12.1488511,6.12787213 L12.1848152,6.14585415 L12.3646354,6.61338661 L12.3646354,6.64935065 L12.4005994,6.68531469 C12.4245755,6.70929083 12.4425574,6.72127872 12.4545455,6.72127872 L12.4905095,6.75724276 L13.1558442,6.75724276 C13.1678322,6.76923083 13.1738262,6.78121872 13.1738262,6.79320679 L13.2097902,6.81118881 C13.2217783,6.81118881 13.2277722,6.81718276 13.2277722,6.82917083 L13.2637363,6.84715285 C13.2757243,6.84715285 13.2817183,6.85914074 13.2817183,6.88311688 L13.2817183,7.74625375 C13.2817183,7.75824182 13.2757243,7.76423576 13.2637363,7.76423576 L13.2277722,7.8001998 C13.2157842,7.81218787 13.2037963,7.82117879 13.1918082,7.82717283 C13.1798201,7.83316686 13.1678322,7.83616384 13.1558442,7.83616384 L12.5444555,7.83616384 L12.4905095,7.87212787 L12.4545455,7.89010989 L12.4185814,7.92607393 C12.4065933,7.938062 12.4005994,7.95004989 12.4005994,7.96203796 L12.3646354,7.98001998 L12.1848152,8.48351648 C12.1728271,8.48351648 12.1638362,8.48651346 12.1578422,8.49250749 C12.1518481,8.49850153 12.1488511,8.51348639 12.1488511,8.53746254 L12.1488511,8.59140859 L12.1668332,8.68131868 L12.2207792,8.75324675 L12.6163836,9.11288711 L12.6343656,9.25674326 L12.6163836,9.4005994 L12.0589411,9.92207792 C12.0349649,9.93406599 12.01998,9.94605389 12.013986,9.95804196 C12.007992,9.97003003 11.9990011,9.97602398 11.987013,9.97602398 L11.9150849,9.97602398 L11.8791209,9.95804196 L11.8431568,9.92207792 L11.8071928,9.92207792 L11.4475524,9.52647353 L11.4115884,9.52647353 L11.3756244,9.49050949 L11.2857143,9.47252747 L11.1778222,9.49050949 L10.6383616,9.72427572 C10.6263736,9.72427572 10.6173826,9.7272727 10.6113886,9.73326673 C10.6053946,9.73926077 10.5964037,9.74225774 10.5844156,9.74225774 L10.5124875,9.83216783 L10.5124875,10.5514486 L10.4585415,10.6053946 L10.4225774,10.6233766 L9.54145854,10.6413586 L9.50549451,10.6053946 L9.50549451,10.5694306 L9.46953047,10.5514486 C9.49350661,10.5154843 9.50549451,10.4915086 9.50549451,10.4795205 L9.50549451,10.4615385 Z M9.27172827,8.53746254 L9.28971029,8.55544456 L9.36163836,8.59140859 L9.61338661,8.6993007 C9.67332697,8.71128877 9.7152846,8.72027969 9.73926074,8.72627373 C9.76323688,8.73226776 9.80519451,8.74125868 9.86513487,8.75324675 L10.008991,8.77122877 L10.1528472,8.75324675 L10.2967033,8.71728272 C10.3446556,8.71728272 10.3926072,8.71128877 10.4405594,8.6993007 L10.6923077,8.59140859 C10.7282719,8.56743245 10.7642356,8.54945061 10.8001998,8.53746254 L11.015984,8.35764236 L11.1058941,8.26773227 L11.2857143,7.90809191 C11.3096904,7.87212769 11.3276723,7.83017007 11.3396603,7.78221778 L11.3756244,7.67432567 C11.3876124,7.63836146 11.3936064,7.59040989 11.3936064,7.53046953 L11.3936064,7.24275724 L11.3756244,7.11688312 L11.3396603,6.95504496 L11.2857143,6.84715285 L11.2317682,6.72127872 C11.2077921,6.67332643 11.1838163,6.63736276 11.1598402,6.61338661 L11.015984,6.3976024 L10.8001998,6.21778222 L10.6923077,6.16383616 L10.4405594,6.05594406 L10.2967033,6.01998002 L10.1528472,6.001998 L9.73926074,6.01998002 L9.61338661,6.07392607 C9.55344625,6.08591415 9.51148863,6.09790204 9.48751249,6.10989011 L9.48751249,6.12787213 C9.42757213,6.1398602 9.38561451,6.15184809 9.36163836,6.16383616 L9.14585415,6.32567433 C9.09790186,6.36163854 9.06793213,6.39160827 9.05594406,6.41558442 L8.94805195,6.52347652 L8.89410589,6.5954046 L8.82217782,6.72127872 C8.79820168,6.75724294 8.78021984,6.80519451 8.76823177,6.86513487 L8.71428571,6.97302697 L8.67832168,7.11688312 C8.66633361,7.14085926 8.65434571,7.18881083 8.64235764,7.26073926 L8.66033966,7.53046953 L8.67832168,7.67432567 L8.73226773,7.8001998 C8.7442558,7.86014016 8.7562437,7.89610384 8.76823177,7.90809191 L8.87612388,8.15984016 L9.05594406,8.37562438 L9.16383616,8.44755245 C9.18781231,8.48351666 9.22377598,8.51348639 9.27172827,8.53746254 Z M18.9100899,14.2377622 C18.9580422,14.2737265 18.9880119,14.3036962 19,14.3276723 C19.0119881,14.3516485 19.0000002,14.3936061 18.964036,14.4535465 L17.6873127,15.9100899 C17.6393604,15.9700303 17.6063937,16.0059939 17.5884116,16.017982 C17.5704295,16.0299701 17.5254749,16.0479519 17.4535465,16.0719281 C17.0819162,16.1558446 16.8931069,16.0449566 16.8871129,15.7392607 C16.8811189,15.4335649 16.7642369,15.1188827 16.5364635,14.7952048 C16.5124874,14.7592406 16.4285721,14.714286 16.2847153,14.6603397 C16.1408584,14.6063933 16.0389613,14.5854145 15.979021,14.5974026 C15.8471522,14.6213787 15.7212793,14.6603394 15.6013986,14.7142857 C15.4815179,14.768232 15.3796208,14.8491503 15.2957043,14.957043 C15.1278713,15.1728283 15.0709288,15.3916073 15.1248751,15.6133866 C15.1788214,15.8351659 15.3196792,16.0239752 15.5474525,16.1798202 C15.7752259,16.3356651 15.9760231,16.4405592 16.1498501,16.4945055 C16.3236772,16.5484518 16.4105894,16.6653338 16.4105894,16.8451548 C16.3866133,17.1448566 16.197804,17.4715267 15.8441558,17.8251748 C15.4905077,18.1788229 15.1998013,18.4155838 14.972028,18.5354645 C14.9120876,18.5834168 14.867133,18.6013987 14.8371628,18.5894106 C14.8071927,18.5774225 14.768232,18.5474528 14.7202797,18.4995005 L14.000999,17.6183816 C13.7372614,17.2827156 13.563437,17.0909093 13.4795205,17.042957 C13.3476517,16.9710286 13.1768242,16.9620377 12.967033,17.015984 C12.7572417,17.0699303 12.6073931,17.1808183 12.5174825,17.3486513 C12.427572,17.5164844 12.3706295,17.7112876 12.3466533,17.9330669 C12.3226772,18.1548463 12.2687317,18.3256737 12.1848152,18.4455544 C12.160839,18.4935067 12.1128875,18.5414583 12.040959,18.5894106 C11.9690306,18.6373629 11.8971033,18.6673326 11.8251748,18.6793207 C11.6093895,18.7032968 11.4145863,18.6733271 11.2407592,18.5894106 C11.0669322,18.5054941 10.9200805,18.3736273 10.8001998,18.1938062 C10.6563429,17.9780209 10.6323672,17.7322691 10.7282717,17.4565435 C10.8241763,17.1808178 11.0219765,17.0069934 11.3216783,16.9350649 C11.3936068,16.9230769 11.480519,16.9170829 11.5824176,16.9170829 C11.6843162,16.9170829 11.7592405,16.905095 11.8071928,16.8811189 C11.9510497,16.8451547 12.0409589,16.7732273 12.0769231,16.6653347 C12.1128873,16.557442 12.1188812,16.4255752 12.0949051,16.2697303 C12.0349647,15.8621358 11.8251766,15.4965051 11.4655345,15.1728272 C11.213785,14.9450538 10.8421603,14.6273747 10.3506494,14.2197802 C10.290709,14.183816 10.2577423,14.1508493 10.2517483,14.1208791 C10.2457542,14.0909089 10.2607391,14.0459543 10.2967033,13.986014 C10.416584,13.7822168 10.7102874,13.4615406 11.1778222,13.023976 C11.645357,12.5864114 11.9570422,12.3436566 12.1128871,12.2957043 C12.4125889,12.1997997 12.5804194,12.3346635 12.6163836,12.7002997 C12.6523478,13.0659359 12.7362631,13.3506483 12.8681319,13.5544456 C12.9040961,13.6383621 12.9610386,13.7072924 13.038961,13.7612388 C13.1168835,13.8151851 13.1978018,13.8541457 13.2817183,13.8781219 C13.569432,13.9860145 13.8451535,13.9500508 14.1088911,13.7702298 C14.3726287,13.5904087 14.4865137,13.3446569 14.4505495,13.032967 C14.4385614,12.8291698 14.3786219,12.6313696 14.2707293,12.4395604 C14.1628366,12.2477513 14.006994,12.1338663 13.8031968,12.0979021 C13.7312684,12.085914 13.6443562,12.088911 13.5424575,12.1068931 C13.4405589,12.1248752 13.3596407,12.1248752 13.2997003,12.1068931 C13.2397599,12.088911 13.1978023,12.0619382 13.1738262,12.025974 L13.1558442,11.99001 C13.1198799,11.9420577 13.0959042,11.9001001 13.0839161,11.8641359 C13.0239757,11.7922074 12.9820181,11.7172831 12.958042,11.6393606 C12.9340658,11.5614382 12.9400598,11.4805199 12.976024,11.3966034 L13.02997,11.3246753 C13.0539462,11.2887111 13.0839159,11.2587414 13.1198801,11.2347652 L14.4865135,9.86813187 L14.5764236,9.7962038 C14.6003997,9.7962038 14.6363634,9.82617353 14.6843157,9.88611389 L16.4105894,11.4865135 L16.5364635,11.5764236 L16.6263736,11.6123876 C16.9140874,11.6363638 17.06993,11.5224788 17.0939061,11.2707293 L17.1838162,10.6413586 C17.2077923,10.4735256 17.2557439,10.3596407 17.3276723,10.2997003 C17.3996008,10.2397599 17.5014978,10.1858144 17.6333666,10.1378621 C17.8371639,10.0659337 18.0079913,10.02997 18.1458541,10.02997 C18.283717,10.02997 18.4485505,10.1018974 18.6403596,10.2457542 C18.8081926,10.3896111 18.9160837,10.5844144 18.964036,10.8301698 C19.0119883,11.0759253 18.9670337,11.2857134 18.8291708,11.4595405 C18.691308,11.6333675 18.5564442,11.7322676 18.4245754,11.7562438 C18.2447543,11.7802199 18.064936,11.7922078 17.8851149,11.7922078 C17.7532461,11.7922078 17.6393611,11.8101896 17.5434565,11.8461538 C17.447552,11.8821181 17.3816186,11.9480515 17.3456543,12.043956 C17.1658333,12.4035982 17.303694,12.8111865 17.7592408,13.2667333 C18.2387636,13.7582442 18.6223762,14.0819173 18.9100899,14.2377622 Z" id="" fill="#2B2826"></path>
        </g>
        <g id="icons-/-Error_Mark" transform="translate(0.000000, 12.000000)" opacity="0">
            <circle id="Oval" fill="#FFFFFF" fill-rule="nonzero" cx="4" cy="4" r="4"></circle>
            <path d="M4.00666043,0.66666822 C4.60923891,0.667230482 5.16978374,0.820408594 5.68831169,1.12620713 C6.1900347,1.42368891 6.5896311,1.82328531 6.88711289,2.32500833 C7.19347473,2.84449144 7.34665335,3.4050364 7.34665335,4.00666001 C7.34665335,4.60828362 7.19347473,5.16882857 6.88711289,5.68831169 C6.5896311,6.1900347 6.1900347,6.5896311 5.68831169,6.88711289 C5.16882857,7.19347473 4.60828362,7.34665335 4.00666001,7.34665335 C3.4050364,7.34665335 2.84449144,7.19347473 2.32500833,6.88711289 C1.82328531,6.5896311 1.42368891,6.1900347 1.12620713,5.68831169 C0.819845288,5.16882857 0.666666667,4.60828362 0.666666667,4.00666001 C0.666666667,3.4050364 0.819845288,2.84449144 1.12620713,2.32500833 C1.42368891,1.82328531 1.82328531,1.42368891 2.32500833,1.12620713 C2.84353627,0.820408594 3.4040811,0.667230482 4.00665958,0.66666822 L4.00666043,0.66666822 Z M4.00666043,0.66666822 C4.00555043,0.666667185 4.00444029,0.666666667 4.00333,0.666666667 L4.00999001,0.666666667 C4.00887973,0.666666667 4.00776958,0.666667185 4.00665958,0.66666822 L4.00666043,0.66666822 Z M4.34299034,5.67499167 L4.34299034,5.00899101 L3.67032967,5.00899101 L3.67032967,5.67499167 L4.34299034,5.67499167 Z M4.34299034,4.34299034 L4.34299034,2.33832834 L3.67032967,2.33832834 L3.67032967,4.34299034 L4.34299034,4.34299034 Z" id="" fill="#F83200"></path>
        </g>
    </g>
</svg>