<?xml version="1.0" encoding="UTF-8"?>
<svg width="20px" height="20px" viewBox="0 0 20 20" version="1.1" xmlns="http://www.w3.org/2000/svg" xmlns:xlink="http://www.w3.org/1999/xlink">
    <!-- Generator: Sketch 51.3 (57544) - http://www.bohemiancoding.com/sketch -->
    <title>icons / classes/ BMC_Activity_32</title>
    <desc>Created with Sketch.</desc>
    <defs></defs>
    <g id="icons-/-classes/-BMC_Activity_32" stroke="none" stroke-width="1" fill="none" fill-rule="evenodd">
        <g id="icons-/-classes/-activity" fill="#F5A623" fill-rule="nonzero" opacity="0">
            <g id="icons-/-20x20-icon-field">
                <rect x="0" y="0" width="20" height="20"></rect>
            </g>
        </g>
        <path d="M6.375,10.8333333 L4.5,9.16666667 L5.125,8.61083333 L6.375,9.7225 L8.875,7.5 L9.5,8.05583333 L6.375,10.8333333 Z M6.375,15.8333333 L4.5,14.1666667 L5.125,13.6108333 L6.375,14.7225 L8.875,12.5 L9.5,13.0558333 L6.375,15.8333333 Z M10.3333333,15 L15.3333333,15 L15.3333333,13.3333333 L10.3333333,13.3333333 L10.3333333,15 Z M10.3333333,10 L15.3333333,10 L15.3333333,8.33333333 L10.3333333,8.33333333 L10.3333333,10 Z M13.6666667,5 L13.6666667,1.66666667 L17,5 L13.6666667,5 Z M17,18.3333333 L3.66666667,18.3333333 L3.66666667,1.66666667 L12,1.66666667 L12,5 C12,5.91666667 12.75,6.66666667 13.6666667,6.66666667 L17,6.66666667 L17,18.3333333 Z M18.4583333,4.1 L18.3833333,4.025 L14.6416667,0.283333333 L14.5666667,0.208333333 C14.4166667,0.075 14.225,0 14.0166667,0 L3.66666667,0 C2.75,0 2,0.75 2,1.66666667 L2,18.3333333 C2,19.25 2.75,20 3.66666667,20 L17,20 C17.9166667,20 18.6666667,19.25 18.6666667,18.3333333 L18.6666667,4.65 C18.6666667,4.44166667 18.5916667,4.25 18.4583333,4.1 Z" id="Fill-1" fill="#333333"></path>
        <g id="icons-/-Error_Mark" transform="translate(0.000000, 12.000000)" opacity="0">
            <circle id="Oval" fill="#FFFFFF" fill-rule="nonzero" cx="4" cy="4" r="4"></circle>
            <path d="M4.00666043,0.66666822 C4.60923891,0.667230482 5.16978374,0.820408594 5.68831169,1.12620713 C6.1900347,1.42368891 6.5896311,1.82328531 6.88711289,2.32500833 C7.19347473,2.84449144 7.34665335,3.4050364 7.34665335,4.00666001 C7.34665335,4.60828362 7.19347473,5.16882857 6.88711289,5.68831169 C6.5896311,6.1900347 6.1900347,6.5896311 5.68831169,6.88711289 C5.16882857,7.19347473 4.60828362,7.34665335 4.00666001,7.34665335 C3.4050364,7.34665335 2.84449144,7.19347473 2.32500833,6.88711289 C1.82328531,6.5896311 1.42368891,6.1900347 1.12620713,5.68831169 C0.819845288,5.16882857 0.666666667,4.60828362 0.666666667,4.00666001 C0.666666667,3.4050364 0.819845288,2.84449144 1.12620713,2.32500833 C1.42368891,1.82328531 1.82328531,1.42368891 2.32500833,1.12620713 C2.84353627,0.820408594 3.4040811,0.667230482 4.00665958,0.66666822 L4.00666043,0.66666822 Z M4.00666043,0.66666822 C4.00555043,0.666667185 4.00444029,0.666666667 4.00333,0.666666667 L4.00999001,0.666666667 C4.00887973,0.666666667 4.00776958,0.666667185 4.00665958,0.66666822 L4.00666043,0.66666822 Z M4.34299034,5.67499167 L4.34299034,5.00899101 L3.67032967,5.00899101 L3.67032967,5.67499167 L4.34299034,5.67499167 Z M4.34299034,4.34299034 L4.34299034,2.33832834 L3.67032967,2.33832834 L3.67032967,4.34299034 L4.34299034,4.34299034 Z" id="" fill="#F83200"></path>
        </g>
    </g>
</svg>