<?xml version="1.0" encoding="UTF-8"?>
<svg width="20px" height="20px" viewBox="0 0 20 20" version="1.1" xmlns="http://www.w3.org/2000/svg" xmlns:xlink="http://www.w3.org/1999/xlink">
    <!-- Generator: Sketch 51.3 (57544) - http://www.bohemiancoding.com/sketch -->
    <title>icons / classes/ BMC_Gateway_32_Error</title>
    <desc>Created with Sketch.</desc>
    <defs></defs>
    <g id="icons-/-classes/-BMC_Gateway_32" stroke="none" stroke-width="1" fill="none" fill-rule="evenodd">
        <g>
            <g id="icons-/-20x20-icon-field" fill="#F5A623" fill-rule="nonzero" opacity="0">
                <rect x="0" y="0" width="20" height="20"></rect>
            </g>
            <path d="M13.3333333,4.16666667 L16.6666667,4.16666667 L16.6666667,6.66666667 L20,3.33333333 L16.6666667,0 L16.6666667,2.5 L13.3333333,2.5 L13.3333333,4.16666667 Z M16.6666667,13.3333333 L16.6666667,15.8333333 L13.3333333,15.8333333 L13.3333333,17.5 L16.6666667,17.5 L16.6666667,20 L20,16.6666667 L16.6666667,13.3333333 Z M7.75916667,18.8416667 C7.625,18.7583333 7.48333333,18.675 7.35833333,18.575 C6.8,18.2 6.28333333,17.8 5.7825,17.3583333 C5.71666667,17.2833333 5.625,17.2166667 5.55833333,17.1416667 C5.31666667,16.9166667 5.075,16.6833333 4.85833333,16.425 C4.58333333,16.1583333 4.34166667,15.8583333 4.1,15.5583333 C3.575,14.9166667 3.1,14.2 2.675,13.4416667 C2.55833333,13.8833333 2.475,14.3583333 2.4,14.875 C2.325,15.375 2.3,15.8583333 2.3,16.375 L2.3,16.3833333 C2.51666667,16.6583333 2.75916667,16.9166667 3,17.1416667 L3.01666667,17.1416667 C3.2,17.3583333 3.41666667,17.5416667 3.64166667,17.7166667 C3.84166667,17.8833333 4.05833333,18.0583333 4.28333333,18.2 C4.35833333,18.275 4.42583333,18.3166667 4.51666667,18.3583333 C4.675,18.475 4.8425,18.575 5.01666667,18.675 C5.125,18.7416667 5.25916667,18.8 5.375,18.875 C5.9,19.1583333 6.44166667,19.3833333 7.025,19.5583333 C7.25833333,19.625 7.48333333,19.6833333 7.725,19.7416667 C7.825,19.775 7.925,19.7833333 8.025,19.8 C8.21666667,19.8416667 8.38416667,19.8833333 8.575,19.9 C8.80083333,19.9416667 9.025,19.9583333 9.275,19.975 C9.5,20 9.74083333,20 9.975,20 C9.48333333,19.8 9.01666667,19.575 8.575,19.3166667 C8.3,19.175 8.025,19.0166667 7.75916667,18.8416667 Z M11.6666667,17.5 L11.6666667,15.8333333 C11.6666667,15.7416667 11.675,15.65 11.6916667,15.5583333 L11.425,15.5583333 C10.7825,15.5583333 10.2,15.5166667 9.64166667,15.4416667 C9.51666667,15.425 9.4,15.4166667 9.275,15.3833333 C9.04166667,15.3583333 8.80083333,15.3166667 8.575,15.2583333 C8.34166667,15.2166667 8.1,15.175 7.875,15.1166667 C7.84166667,15.1166667 7.825,15.1 7.8,15.1 C7.18333333,14.9416667 6.58333333,14.7416667 5.975,14.5 C5.375,14.275 4.78333333,14 4.225,13.7 C4.75833333,14.475 5.31666667,15.175 5.91666667,15.8 C6.125,16.025 6.35833333,16.2416667 6.58333333,16.425 C6.85833333,16.6833333 7.14166667,16.925 7.44166667,17.1416667 C7.58333333,17.275 7.725,17.375 7.88333333,17.4833333 C8.11666667,17.6416667 8.34166667,17.7833333 8.575,17.925 C8.95833333,18.175 9.34166667,18.375 9.74083333,18.575 C9.85833333,18.6416667 9.975,18.7 10.1166667,18.7583333 C10.5416667,18.9416667 10.975,19.1166667 11.425,19.275 C11.8166667,19.4 12.225,19.525 12.6416667,19.6416667 C12.6575,19.6416667 12.675,19.625 12.6833333,19.625 C12.875,19.5833333 13.0583333,19.525 13.225,19.4583333 C13.3841667,19.4166667 13.5416667,19.3583333 13.6833333,19.3 C13.7916667,19.2583333 13.9,19.2083333 14.0091667,19.1666667 L13.3333333,19.1666667 C12.4166667,19.1666667 11.6666667,18.4166667 11.6666667,17.5 Z M19.9416667,8.98333333 C19.925,8.8 19.9,8.61666667 19.875,8.425 L19.8583333,8.41666667 C19.8583333,8.4 19.8583333,8.38333333 19.8425,8.375 C19.5,7.9 19.1083333,7.46666667 18.6583333,7.025 L17.8416667,7.84166667 C17.5333333,8.15833333 17.125,8.325 16.7,8.33333333 C16.7333333,8.40833333 16.7583333,8.49166667 16.775,8.575 C17.0166667,9.225 17.1833333,9.9 17.3166667,10.6 C17.375,10.875 17.4166667,11.1416667 17.4416667,11.4166667 C17.4666667,11.575 17.4833333,11.7333333 17.5,11.8916667 C17.625,11.9666667 17.7416667,12.05 17.8416667,12.1583333 L18.35,12.6666667 C18.4666667,12.6 18.5833333,12.5416667 18.6991667,12.475 C19.075,12.2583333 19.4258333,12.025 19.8,11.7833333 L19.8425,11.7416667 C19.9416667,11.175 20,10.6 20,10 C20,9.68333333 19.9833333,9.38333333 19.9583333,9.08333333 C19.9583333,9.05833333 19.9416667,9.01666667 19.9416667,8.98333333 Z M3.4,8.575 C3.525,8.325 3.675,8.1 3.825,7.875 C4.175,7.375 4.54166667,6.88333333 4.95833333,6.425 C5.1,6.225 5.275,6.05833333 5.44166667,5.875 C5.94166667,5.325 6.48333333,4.825 7.08333333,4.4 C7.125,4.35833333 7.175,4.31666667 7.225,4.275 C7.25833333,4.24166667 7.3,4.21666667 7.3425,4.18333333 C7.35833333,4.18333333 7.35833333,4.175 7.375,4.175 C8.04166667,3.68333333 8.75833333,3.24166667 9.51666667,2.85833333 C9.54166667,2.825 9.58333333,2.81666667 9.61666667,2.8 L9,2.775 L8.6,2.75833333 L8.45833333,2.75833333 C7.3,2.75833333 6.175,2.88333333 5.075,3.15833333 C4.025,3.4 3,3.775 2.025,4.28333333 C1.98333333,4.31666667 1.92583333,4.325 1.88333333,4.35833333 L1.84166667,5.01666667 C1.82416667,5.2 1.81666667,5.4 1.81666667,5.625 L1.81666667,5.71666667 C1.81666667,6.48333333 1.88333333,7.24166667 2,7.98333333 C2.025,8.18333333 2.075,8.38333333 2.11666667,8.575 C2.11666667,8.58333333 2.125,8.6 2.125,8.61666667 C2.225,9.15833333 2.375,9.68333333 2.54166667,10.2166667 C2.8,9.625 3.08333333,9.08333333 3.4,8.575 Z M9.01666667,4.5 C8.68333333,4.71666667 8.35833333,4.94166667 8.04166667,5.2 C7.525,5.575 7.04166667,6 6.575,6.45833333 C5.98333333,7.025 5.45833333,7.64166667 4.98333333,8.28333333 C4.925,8.375 4.85833333,8.475 4.78333333,8.575 C4.71666667,8.675 4.65833333,8.775 4.58333333,8.875 C4.075,9.68333333 3.64166667,10.525 3.2825,11.425 C3.25833333,11.4833333 3.225,11.5583333 3.2,11.625 C3.2,11.625 3.21666667,11.625 3.21666667,11.6416667 C3.81666667,12.0583333 4.44166667,12.4583333 5.1575,12.825 C5.175,12.8416667 5.2,12.8416667 5.21666667,12.8583333 C5.85833333,13.1833333 6.5,13.4583333 7.175,13.675 C7.24083333,13.7 7.31666667,13.725 7.4,13.7416667 C8,13.9416667 8.625,14.0833333 9.275,14.175 C9.28333333,14.1833333 9.3,14.1833333 9.31666667,14.1833333 C9.58333333,14.225 9.875,14.2583333 10.1416667,14.2833333 C10.5741667,14.325 11,14.3583333 11.425,14.3583333 C11.4833333,14.375 11.525,14.375 11.5833333,14.375 C11.9333333,14.375 12.275,14.3583333 12.6166667,14.3333333 C13.0666667,14.3 13.5166667,14.2416667 13.9583333,14.1666667 C13.975,14.1666667 14,14.1583333 14.0166667,14.1583333 C14.35,14.1 14.675,14.025 15,13.9416667 L15,13.3333333 C15,12.6583333 15.4083333,12.05 16.025,11.7916667 C16.1083333,11.7583333 16.1916667,11.7333333 16.275,11.7166667 C16.2666667,11.6166667 16.25,11.525 16.2416667,11.425 C16.1991667,11.1583333 16.1583333,10.8833333 16.1166667,10.6166667 C15.9833333,9.91666667 15.8,9.24166667 15.5583333,8.575 C15.4833333,8.35833333 15.4,8.125 15.3,7.91666667 C15,7.175 14.6416667,6.48333333 14.2083333,5.83333333 L13.3333333,5.83333333 C12.4166667,5.83333333 11.6666667,5.08333333 11.6666667,4.16666667 L11.6666667,3.20833333 C10.7333333,3.54166667 9.8425,3.98333333 9.01666667,4.5 Z M11.0416667,0.783333333 C11.075,0.816666667 11.1166667,0.841666667 11.1416667,0.858333333 C11.2416667,0.925 11.3416667,1 11.425,1.08333333 C11.6158333,1.225 11.8083333,1.375 11.9833333,1.525 C12.2833333,1.10833333 12.7833333,0.833333333 13.3333333,0.833333333 L14.0091667,0.833333333 C13.975,0.816666667 13.9333333,0.8 13.9,0.783333333 C13.6416667,0.675 13.375,0.575 13.1,0.483333333 C13,0.441666667 12.8833333,0.416666667 12.7833333,0.4 C12.525,0.316666667 12.275,0.258333333 12.0166667,0.2 C11.8241667,0.158333333 11.625,0.125 11.425,0.116666667 C11.2833333,0.0833333333 11.1416667,0.0583333333 11,0.0583333333 C10.6758333,0.0166666667 10.3416667,0 10.0166667,0 L9.98333333,0 L9.95833333,0 L9.8,0 C9.8,0 9.81666667,0 9.81666667,0.0166666667 C10.225,0.216666667 10.6166667,0.475 11.0416667,0.783333333 Z M7.58333333,1.55833333 C7.875,1.54166667 8.15833333,1.525 8.45833333,1.51666667 L8.575,1.51666667 C8.84166667,1.51666667 9.075,1.525 9.3,1.55833333 L10.125,1.64166667 C10.025,1.575 9.91666667,1.5 9.8,1.425 C9.525,1.25833333 9.24166667,1.08333333 8.94166667,0.9 C8.81666667,0.825 8.68333333,0.758333333 8.575,0.7 C8.31666667,0.575 8.07416667,0.458333333 7.85833333,0.375 C7.78333333,0.325 7.71666667,0.316666667 7.6575,0.283333333 C7.475,0.325 7.28333333,0.375 7.1,0.425 C6.95833333,0.475 6.8,0.525 6.65833333,0.583333333 C6.225,0.725 5.81666667,0.9 5.41666667,1.11666667 C5.3,1.175 5.175,1.225 5.05833333,1.3 C5.04166667,1.3 5.025,1.31666667 5.01666667,1.325 C4.8,1.44166667 4.6,1.575 4.41666667,1.7 C4.15833333,1.875 3.9,2.05833333 3.65833333,2.28333333 C4.38333333,2.05833333 5.175,1.88333333 5.975,1.74166667 C6.48333333,1.65833333 7.025,1.6 7.58333333,1.55833333 Z M1.05833333,11.425 C0.983333333,11.375 0.916666667,11.3 0.858333333,11.2416667 C0.625,11.0166667 0.358333333,10.725 0.0166666667,10.3833333 C0.0166666667,10.375 0.0166666667,10.375 0,10.3583333 C0.0166666667,10.725 0.0416666667,11.075 0.1,11.425 C0.125,11.625 0.1575,11.8166667 0.2,12.0166667 C0.259166667,12.3 0.325,12.5583333 0.4,12.825 C0.4,12.8416667 0.4,12.8416667 0.416666667,12.8583333 C0.574166667,13.375 0.758333333,13.875 1,14.3416667 C1.075,14.4833333 1.14166667,14.6166667 1.225,14.7583333 C1.24166667,14.625 1.25833333,14.5166667 1.28333333,14.3833333 C1.325,14.075 1.4,13.7416667 1.45833333,13.425 C1.5,13.2416667 1.54166667,13.0583333 1.6,12.8583333 C1.65833333,12.6166667 1.725,12.3583333 1.81666667,12.0833333 L1.81666667,12.075 L1.8,12.0583333 C1.5,11.825 1.25833333,11.625 1.05833333,11.425 Z M0.116666667,8.6 L0.1,8.58333333 L0.1,8.575 C0.116666667,8.38333333 0.141666667,8.21666667 0.183333333,8.04166667 C0.183333333,8.01666667 0.183333333,8 0.2,7.98333333 C0.275,7.675 0.341666667,7.35833333 0.441666667,7.05833333 C0.5,6.85833333 0.558333333,6.675 0.641666667,6.48333333 C0.675833333,7.01666667 0.725,7.58333333 0.825,8.18333333 C0.841666667,8.31666667 0.875,8.44166667 0.9,8.575 C0.975,9 1.08333333,9.425 1.19916667,9.85833333 C1.04166667,9.7 0.858333333,9.51666667 0.658333333,9.275 C0.5,9.1 0.316666667,8.88333333 0.116666667,8.6 Z" id="Fill-1" fill="#333333"></path>
            <g id="icons-/-Error_Mark" transform="translate(0.000000, 12.000000)">
                <circle id="Oval" fill="#FFFFFF" fill-rule="nonzero" cx="4" cy="4" r="4"></circle>
                <path d="M4.00666043,0.66666822 C4.60923891,0.667230482 5.16978374,0.820408594 5.68831169,1.12620713 C6.1900347,1.42368891 6.5896311,1.82328531 6.88711289,2.32500833 C7.19347473,2.84449144 7.34665335,3.4050364 7.34665335,4.00666001 C7.34665335,4.60828362 7.19347473,5.16882857 6.88711289,5.68831169 C6.5896311,6.1900347 6.1900347,6.5896311 5.68831169,6.88711289 C5.16882857,7.19347473 4.60828362,7.34665335 4.00666001,7.34665335 C3.4050364,7.34665335 2.84449144,7.19347473 2.32500833,6.88711289 C1.82328531,6.5896311 1.42368891,6.1900347 1.12620713,5.68831169 C0.819845288,5.16882857 0.666666667,4.60828362 0.666666667,4.00666001 C0.666666667,3.4050364 0.819845288,2.84449144 1.12620713,2.32500833 C1.42368891,1.82328531 1.82328531,1.42368891 2.32500833,1.12620713 C2.84353627,0.820408594 3.4040811,0.667230482 4.00665958,0.66666822 L4.00666043,0.66666822 Z M4.00666043,0.66666822 C4.00555043,0.666667185 4.00444029,0.666666667 4.00333,0.666666667 L4.00999001,0.666666667 C4.00887973,0.666666667 4.00776958,0.666667185 4.00665958,0.66666822 L4.00666043,0.66666822 Z M4.34299034,5.67499167 L4.34299034,5.00899101 L3.67032967,5.00899101 L3.67032967,5.67499167 L4.34299034,5.67499167 Z M4.34299034,4.34299034 L4.34299034,2.33832834 L3.67032967,2.33832834 L3.67032967,4.34299034 L4.34299034,4.34299034 Z" id="" fill="#F83200"></path>
            </g>
        </g>
    </g>
</svg>