<?xml version="1.0" encoding="UTF-8"?>
<svg width="20px" height="20px" viewBox="0 0 20 20" version="1.1" xmlns="http://www.w3.org/2000/svg" xmlns:xlink="http://www.w3.org/1999/xlink">
    <!-- Generator: Sketch 51.3 (57544) - http://www.bohemiancoding.com/sketch -->
    <title>icons / classes/ BMC_LPAR_32</title>
    <desc>Created with Sketch.</desc>
    <defs></defs>
    <g id="icons-/-classes/-BMC_LPAR_32" stroke="none" stroke-width="1" fill="none" fill-rule="evenodd">
        <g>
            <g id="icons-/-20x20-icon-field" fill="#F5A623" fill-rule="nonzero" opacity="0">
                <rect x="0" y="0" width="20" height="20"></rect>
            </g>
            <path d="M7.8269962,5.23593612 C8.06780856,5.23593612 8.28152632,5.27506754 8.46815589,5.35333155 C8.65478547,5.43159557 8.83238192,5.55501005 9.00095057,5.7235787 L12.3422053,9.08289429 C12.667302,9.40799097 12.8298479,9.8053254 12.8298479,10.2749095 L12.8298479,18.2939209 C12.8298479,18.7153425 12.6793424,19.0795658 12.378327,19.3866015 C12.0773115,19.6936373 11.7160984,19.8471528 11.2946768,19.8471528 L2.5351711,19.8471528 C2.11374948,19.8471528 1.75253636,19.6936373 1.45152091,19.3866015 C1.15050547,19.0795658 1,18.7153425 1,18.2939209 L1,6.77110722 C1,6.34968559 1.15050547,5.98847248 1.45152091,5.68745703 C1.75253636,5.38644158 2.11374948,5.23593612 2.5351711,5.23593612 L7.8269962,5.23593612 Z M8.65779468,7.25874981 L8.65779468,9.42605019 L10.7347909,9.42605019 L8.65779468,7.25874981 Z M11.5114068,18.2939209 L11.5836502,18.2939209 L11.5836502,10.7625521 L8.0256654,10.7625521 C7.8209749,10.7625521 7.65541888,10.6903095 7.5289924,10.545822 C7.40256591,10.4013346 7.33935361,10.2387887 7.33935361,10.0581795 L7.33935361,6.57243802 L2.5351711,6.57243802 C2.39068369,6.57243802 2.31844106,6.63866042 2.31844106,6.77110722 L2.31844106,18.2939209 C2.31844106,18.3661646 2.34252194,18.4203466 2.39068441,18.4564684 C2.43884688,18.4925903 2.48700863,18.5106509 2.5351711,18.5106509 L11.2946768,18.5106509 C11.3548799,18.5106509 11.4060518,18.4865701 11.4481939,18.4384076 C11.4903361,18.3902451 11.5114068,18.3420834 11.5114068,18.2939209 Z M15.3422053,6.53061292 C15.667302,6.85570961 15.8298479,7.25304404 15.8298479,7.72262813 L15.8298479,15.7597004 C15.8298479,16.181122 15.6793424,16.5423351 15.378327,16.8433506 C15.0773115,17.144366 14.7160984,17.2948715 14.2946768,17.2948715 L13.7347909,17.2948715 L13.7347909,15.9583696 L14.2946768,15.9583696 C14.3548799,15.9583696 14.4060518,15.9342887 14.4481939,15.8861262 C14.4903361,15.8379638 14.5114068,15.7958222 14.5114068,15.7597004 L14.5655894,15.7597004 L14.5655894,7.60475741 L10.9809886,4.02015665 L5.51711027,4.02015665 C5.38466347,4.02015665 5.31844106,4.09239927 5.31844106,4.23688669 L5.31844106,4.72452927 L4,4.72452927 L4,4.23688669 C4,3.81546506 4.15050547,3.45425194 4.45152091,3.1532365 C4.75253636,2.85222105 5.10772926,2.70171558 5.51711027,2.70171558 L10.8089354,2.70171558 C11.0617883,2.70171558 11.2785162,2.7378369 11.4591255,2.8100806 C11.6397347,2.88232431 11.8203413,3.00272868 12.0009506,3.17129733 L15.3422053,6.53061292 Z M18.3422053,3.82889734 C18.667302,4.15399402 18.8298479,4.55132845 18.8298479,5.02091255 L18.8298479,13.0579848 C18.8298479,13.4794064 18.6793424,13.8406195 18.378327,14.141635 C18.0773115,14.4426504 17.7160984,14.5931559 17.2946768,14.5931559 L16.7347909,14.5931559 L16.7347909,13.256654 L17.2946768,13.256654 C17.3548799,13.256654 17.4060518,13.2325731 17.4481939,13.1844106 C17.4903361,13.1362482 17.5114068,13.0941066 17.5114068,13.0579848 L17.5655894,13.0579848 L17.5655894,4.90304183 L13.9809886,1.31844106 L8.51711027,1.31844106 C8.38466347,1.31844106 8.31844106,1.39068369 8.31844106,1.5351711 L8.31844106,2.02281369 L7,2.02281369 L7,1.5351711 C7,1.11374948 7.15050547,0.752536359 7.45152091,0.451520913 C7.75253636,0.150505466 8.10772926,0 8.51711027,0 L13.8089354,0 C14.0617883,0 14.2785162,0.0361213118 14.4591255,0.108365019 C14.6397347,0.180608726 14.8203413,0.301013099 15.0009506,0.469581749 L18.3422053,3.82889734 Z" id="" fill="#2B2826"></path>
            <g id="icons-/-Error_Mark" transform="translate(0.000000, 12.000000)" opacity="0">
                <circle id="Oval" fill="#FFFFFF" fill-rule="nonzero" cx="4" cy="4" r="4"></circle>
                <path d="M4.00666043,0.66666822 C4.60923891,0.667230482 5.16978374,0.820408594 5.68831169,1.12620713 C6.1900347,1.42368891 6.5896311,1.82328531 6.88711289,2.32500833 C7.19347473,2.84449144 7.34665335,3.4050364 7.34665335,4.00666001 C7.34665335,4.60828362 7.19347473,5.16882857 6.88711289,5.68831169 C6.5896311,6.1900347 6.1900347,6.5896311 5.68831169,6.88711289 C5.16882857,7.19347473 4.60828362,7.34665335 4.00666001,7.34665335 C3.4050364,7.34665335 2.84449144,7.19347473 2.32500833,6.88711289 C1.82328531,6.5896311 1.42368891,6.1900347 1.12620713,5.68831169 C0.819845288,5.16882857 0.666666667,4.60828362 0.666666667,4.00666001 C0.666666667,3.4050364 0.819845288,2.84449144 1.12620713,2.32500833 C1.42368891,1.82328531 1.82328531,1.42368891 2.32500833,1.12620713 C2.84353627,0.820408594 3.4040811,0.667230482 4.00665958,0.66666822 L4.00666043,0.66666822 Z M4.00666043,0.66666822 C4.00555043,0.666667185 4.00444029,0.666666667 4.00333,0.666666667 L4.00999001,0.666666667 C4.00887973,0.666666667 4.00776958,0.666667185 4.00665958,0.66666822 L4.00666043,0.66666822 Z M4.34299034,5.67499167 L4.34299034,5.00899101 L3.67032967,5.00899101 L3.67032967,5.67499167 L4.34299034,5.67499167 Z M4.34299034,4.34299034 L4.34299034,2.33832834 L3.67032967,2.33832834 L3.67032967,4.34299034 L4.34299034,4.34299034 Z" id="" fill="#F83200"></path>
            </g>
        </g>
    </g>
</svg>