<?xml version="1.0" encoding="UTF-8"?>
<svg width="20px" height="20px" viewBox="0 0 20 20" version="1.1" xmlns="http://www.w3.org/2000/svg" xmlns:xlink="http://www.w3.org/1999/xlink">
    <!-- Generator: Sketch 51.3 (57544) - http://www.bohemiancoding.com/sketch -->
    <title>icons / classes/ BMC_Layer3Switch_32_Error</title>
    <desc>Created with Sketch.</desc>
    <defs></defs>
    <g id="icons-/-classes/-BMC_Layer3Switch_32" stroke="none" stroke-width="1" fill="none" fill-rule="evenodd">
        <g transform="translate(0.000000, -1.000000)">
            <g id="icons-/-20x20-icon-field" transform="translate(0.000000, 1.000000)" fill="#F5A623" fill-rule="nonzero" opacity="0">
                <rect x="0" y="0" width="20" height="20"></rect>
            </g>
            <path d="M19.1408591,0.977022977 C19.3806206,0.977022977 19.5837488,1.05694226 19.7502498,1.21678322 C19.9167507,1.37662418 20,1.58974226 20,1.85614386 L20,5.93206793 C20,6.17182937 19.9200807,6.37495754 19.7602398,6.54145854 C19.6003988,6.70795954 19.3939407,6.79120879 19.1408591,6.79120879 L0.859140859,6.79120879 C0.619379421,6.79120879 0.416251249,6.71461948 0.24975025,6.56143856 C0.0832492507,6.40825764 0,6.19846953 0,5.93206793 L0,1.85614386 C0,1.60306234 0.0799192807,1.39327423 0.23976024,1.22677323 C0.399601199,1.06027223 0.606059341,0.977022977 0.859140859,0.977022977 L19.1408591,0.977022977 Z M19.1408591,8.08991009 C19.3806206,8.08991009 19.5837488,8.1664994 19.7502498,8.31968032 C19.9167507,8.47286124 20,8.68264935 20,8.94905095 L20,13.044955 C20,13.2847165 19.9200807,13.4878447 19.7602398,13.6543457 C19.6003988,13.8208467 19.3939407,13.9040959 19.1408591,13.9040959 L0.859140859,13.9040959 C0.619379421,13.9040959 0.416251249,13.8241766 0.24975025,13.6643357 C0.0832492507,13.5044947 0,13.2980366 0,13.044955 L0,8.94905095 C0,8.69596943 0.0799192807,8.48951129 0.23976024,8.32967033 C0.399601199,8.16982937 0.606059341,8.08991009 0.859140859,8.08991009 L19.1408591,8.08991009 Z M19.1408591,15.1828172 C19.3806206,15.1828172 19.5837488,15.2627365 19.7502498,15.4225774 C19.9167507,15.5824184 20,15.7888765 20,16.041958 L20,20.1378621 C20,20.3776236 19.9200807,20.5807517 19.7602398,20.7472527 C19.6003988,20.9137537 19.3939407,20.997003 19.1408591,20.997003 L0.859140859,20.997003 C0.619379421,20.997003 0.416251249,20.9170837 0.24975025,20.7572428 C0.0832492507,20.5974018 0,20.3909437 0,20.1378621 L0,16.041958 C0,15.8021966 0.0799192807,15.5990684 0.23976024,15.4325674 C0.399601199,15.2660664 0.606059341,15.1828172 0.859140859,15.1828172 L19.1408591,15.1828172 Z M14.7052947,3.03496503 L12.2277722,3.03496503 L12.2277722,4.75324675 L14.7052947,4.75324675 L14.7052947,3.03496503 Z M14.7052947,10.1278721 L12.2277722,10.1278721 L12.2277722,11.8461538 L14.7052947,11.8461538 L14.7052947,10.1278721 Z M14.7052947,17.2407592 L12.2277722,17.2407592 L12.2277722,18.959041 L14.7052947,18.959041 L14.7052947,17.2407592 Z M18.2817183,3.03496503 L15.8041958,3.03496503 L15.8041958,4.75324675 L18.2817183,4.75324675 L18.2817183,3.03496503 Z M18.2817183,10.1278721 L15.8041958,10.1278721 L15.8041958,11.8461538 L18.2817183,11.8461538 L18.2817183,10.1278721 Z M18.2817183,17.2407592 L15.8041958,17.2407592 L15.8041958,18.959041 L18.2817183,18.959041 L18.2817183,17.2407592 Z" id="" fill="#2B2826"></path>
            <g id="icons-/-Error_Mark" transform="translate(0.000000, 13.000000)">
                <circle id="Oval" fill="#FFFFFF" fill-rule="nonzero" cx="4" cy="4" r="4"></circle>
                <path d="M4.00666043,0.66666822 C4.60923891,0.667230482 5.16978374,0.820408594 5.68831169,1.12620713 C6.1900347,1.42368891 6.5896311,1.82328531 6.88711289,2.32500833 C7.19347473,2.84449144 7.34665335,3.4050364 7.34665335,4.00666001 C7.34665335,4.60828362 7.19347473,5.16882857 6.88711289,5.68831169 C6.5896311,6.1900347 6.1900347,6.5896311 5.68831169,6.88711289 C5.16882857,7.19347473 4.60828362,7.34665335 4.00666001,7.34665335 C3.4050364,7.34665335 2.84449144,7.19347473 2.32500833,6.88711289 C1.82328531,6.5896311 1.42368891,6.1900347 1.12620713,5.68831169 C0.819845288,5.16882857 0.666666667,4.60828362 0.666666667,4.00666001 C0.666666667,3.4050364 0.819845288,2.84449144 1.12620713,2.32500833 C1.42368891,1.82328531 1.82328531,1.42368891 2.32500833,1.12620713 C2.84353627,0.820408594 3.4040811,0.667230482 4.00665958,0.66666822 L4.00666043,0.66666822 Z M4.00666043,0.66666822 C4.00555043,0.666667185 4.00444029,0.666666667 4.00333,0.666666667 L4.00999001,0.666666667 C4.00887973,0.666666667 4.00776958,0.666667185 4.00665958,0.66666822 L4.00666043,0.66666822 Z M4.34299034,5.67499167 L4.34299034,5.00899101 L3.67032967,5.00899101 L3.67032967,5.67499167 L4.34299034,5.67499167 Z M4.34299034,4.34299034 L4.34299034,2.33832834 L3.67032967,2.33832834 L3.67032967,4.34299034 L4.34299034,4.34299034 Z" id="" fill="#F83200"></path>
            </g>
        </g>
    </g>
</svg>