<?xml version="1.0" encoding="UTF-8"?>
<svg width="20px" height="20px" viewBox="0 0 20 20" version="1.1" xmlns="http://www.w3.org/2000/svg" xmlns:xlink="http://www.w3.org/1999/xlink">
    <!-- Generator: Sketch 51.3 (57544) - http://www.bohemiancoding.com/sketch -->
    <title>icons / classes/ BMC_Cost_32_Error</title>
    <desc>Created with Sketch.</desc>
    <defs></defs>
    <g id="icons-/-classes/-BMC_Cost_32" stroke="none" stroke-width="1" fill="none" fill-rule="evenodd">
        <g id="icons-/-classes/-Cost">
            <g id="icons-/-20x20-icon-field" fill="#F5A623" fill-rule="nonzero" opacity="0">
                <rect x="0" y="0" width="20" height="20"></rect>
            </g>
            <path d="M8.39060939,2.4955045 L2.7982018,2.4955045 L2.7982018,8.14185814 L11.3396603,16.1798202 L16.5004995,10.965035 L8.39060939,2.4955045 Z M9.14585415,0.679320679 L19,10.983017 L11.3936064,18.6973027 L0.982017982,8.91508492 L0.982017982,0.679320679 L9.14585415,0.679320679 Z M10.4765235,11.5764236 L10.4765235,11.5944056 C10.7522491,11.5944056 11.0039949,11.5164843 11.2317682,11.3606394 L9.9010989,10.02997 L9.63136863,10.1738262 C9.42757141,10.2937069 9.22078027,10.3986009 9.01098901,10.4885115 C8.80119775,10.578422 8.58841267,10.6383615 8.37262737,10.6683317 C8.15684208,10.6983018 7.94405699,10.6743261 7.73426573,10.5964036 C7.52447448,10.5184811 7.31168939,10.3746264 7.0959041,10.1648352 C6.8801188,9.95504391 6.73027015,9.72128001 6.64635365,9.46353646 C6.56243714,9.20579292 6.53246741,8.95105021 6.55644356,8.6993007 C6.5804197,8.44755119 6.65234705,8.20479637 6.77222777,7.97102897 C6.89210849,7.73726157 7.04195714,7.51848254 7.22177822,7.31468531 L6.71828172,6.84715285 L7.0959041,6.46953047 L7.58141858,6.95504496 C7.7852158,6.78721195 8.00399484,6.64935119 8.23776224,6.54145854 C8.47152964,6.43356589 8.70529354,6.37062946 8.93906094,6.35264735 C9.17282834,6.33466524 9.41258618,6.36463498 9.65834166,6.44255744 C9.90409713,6.52047991 10.1468519,6.66733159 10.3866134,6.88311688 L9.48751249,7.78221778 C9.30769141,7.61438478 9.10689422,7.52147861 8.88511489,7.5034965 C8.66333555,7.4855144 8.4805202,7.55444478 8.33666334,7.71028971 L9.46953047,8.84315684 L9.86513487,8.59140859 C10.2727293,8.36363522 10.6233752,8.22577447 10.9170829,8.17782218 C11.2107907,8.12986989 11.4655334,8.13286686 11.6813187,8.18681319 C11.897104,8.24075951 12.0799193,8.32767173 12.2297702,8.44755245 C12.3796211,8.56743317 12.5144849,8.68131814 12.6343656,8.78921079 C12.7182821,8.88511536 12.8111883,9.03196704 12.9130869,9.22977023 C13.0149855,9.42757342 13.071928,9.65534337 13.0839161,9.91308691 C13.0959042,10.1708305 13.0539465,10.4525459 12.958042,10.7582418 C12.8621374,11.0639376 12.6643372,11.3906077 12.3646354,11.7382617 L12.9040959,12.2777223 L12.5264735,12.6553447 L11.987013,12.1158841 C11.4715259,12.5594428 10.9500526,12.7842158 10.4225774,12.7902098 C9.89510226,12.7962038 9.35564711,12.5714308 8.8041958,12.1158841 L9.72127872,11.2167832 C9.94905209,11.4565447 10.2007978,11.5764236 10.4765235,11.5764236 Z M7.77922078,8.32167832 C7.73126849,8.40559483 7.70129876,8.49850099 7.68931069,8.6003996 C7.67732262,8.70229821 7.68631354,8.80419529 7.71628372,8.90609391 C7.7462539,9.00799252 7.80919033,9.10089868 7.90509491,9.18481518 C8.04895177,9.32867205 8.20179739,9.39460545 8.36363636,9.38261738 C8.52547533,9.37062931 8.73226647,9.28671407 8.98401598,9.13086913 L7.95904096,8.08791209 C7.88711253,8.14785245 7.82717307,8.22577375 7.77922078,8.32167832 Z M11.7892108,10.6953047 C11.8491511,10.5634359 11.8851148,10.443557 11.8971029,10.3356643 C11.909091,10.2277717 11.9001,10.1138867 11.8701299,9.99400599 C11.8401597,9.87412527 11.7772233,9.76623425 11.6813187,9.67032967 C11.5134857,9.50249666 11.3396612,9.42757234 11.1598402,9.44555445 C10.9800191,9.46353655 10.7222794,9.56843061 10.3866134,9.76023976 L11.6093906,10.983017 C11.681319,10.8871124 11.7412585,10.7912093 11.7892108,10.6953047 Z M5.15384615,5.91208791 C4.83016821,5.91208791 4.55444669,5.79520596 4.32667333,5.56143856 C4.09889996,5.32767116 3.98501499,5.04595569 3.98501499,4.71628372 C3.98501499,4.38661174 4.09889996,4.10789325 4.32667333,3.88011988 C4.55444669,3.65234651 4.83016821,3.53846154 5.15384615,3.53846154 C5.4775241,3.53846154 5.75324561,3.65234651 5.98101898,3.88011988 C6.20879235,4.10789325 6.32267732,4.38661174 6.32267732,4.71628372 C6.32267732,5.04595569 6.20879235,5.32767116 5.98101898,5.56143856 C5.75324561,5.79520596 5.4775241,5.91208791 5.15384615,5.91208791 Z" id="" fill="#333333"></path>
        </g>
        <g id="icons-/-Error_Mark" transform="translate(0.000000, 12.000000)">
            <circle id="Oval" fill="#FFFFFF" fill-rule="nonzero" cx="4" cy="4" r="4"></circle>
            <path d="M4.00666043,0.66666822 C4.60923891,0.667230482 5.16978374,0.820408594 5.68831169,1.12620713 C6.1900347,1.42368891 6.5896311,1.82328531 6.88711289,2.32500833 C7.19347473,2.84449144 7.34665335,3.4050364 7.34665335,4.00666001 C7.34665335,4.60828362 7.19347473,5.16882857 6.88711289,5.68831169 C6.5896311,6.1900347 6.1900347,6.5896311 5.68831169,6.88711289 C5.16882857,7.19347473 4.60828362,7.34665335 4.00666001,7.34665335 C3.4050364,7.34665335 2.84449144,7.19347473 2.32500833,6.88711289 C1.82328531,6.5896311 1.42368891,6.1900347 1.12620713,5.68831169 C0.819845288,5.16882857 0.666666667,4.60828362 0.666666667,4.00666001 C0.666666667,3.4050364 0.819845288,2.84449144 1.12620713,2.32500833 C1.42368891,1.82328531 1.82328531,1.42368891 2.32500833,1.12620713 C2.84353627,0.820408594 3.4040811,0.667230482 4.00665958,0.66666822 L4.00666043,0.66666822 Z M4.00666043,0.66666822 C4.00555043,0.666667185 4.00444029,0.666666667 4.00333,0.666666667 L4.00999001,0.666666667 C4.00887973,0.666666667 4.00776958,0.666667185 4.00665958,0.66666822 L4.00666043,0.66666822 Z M4.34299034,5.67499167 L4.34299034,5.00899101 L3.67032967,5.00899101 L3.67032967,5.67499167 L4.34299034,5.67499167 Z M4.34299034,4.34299034 L4.34299034,2.33832834 L3.67032967,2.33832834 L3.67032967,4.34299034 L4.34299034,4.34299034 Z" id="" fill="#F83200"></path>
        </g>
    </g>
</svg>