<?xml version="1.0" encoding="UTF-8"?>
<svg width="20px" height="20px" viewBox="0 0 20 20" version="1.1" xmlns="http://www.w3.org/2000/svg" xmlns:xlink="http://www.w3.org/1999/xlink">
    <!-- Generator: Sketch 51.3 (57544) - http://www.bohemiancoding.com/sketch -->
    <title>icons / classes/ BMC_ConnectivitySegment_32</title>
    <desc>Created with Sketch.</desc>
    <defs>
        <polygon id="path-1" points="0.000166666667 0 20 0 20 19.9999167 0.000166666667 19.9999167"></polygon>
    </defs>
    <g id="icons-/-classes/-BMC_ConnectivitySegment_32" stroke="none" stroke-width="1" fill="none" fill-rule="evenodd">
        <g id="icons-/-classes/-Connectivity-Segment-">
            <g id="icons-/-20x20-icon-field" fill="#F5A623" fill-rule="nonzero" opacity="0">
                <rect x="0" y="0" width="20" height="20"></rect>
            </g>
            <g id="Group-3">
                <mask id="mask-2" fill="white">
                    <use xlink:href="#path-1"></use>
                </mask>
                <g id="Clip-2"></g>
                <path d="M19.9251667,13.2499167 L19.9168333,13.2415833 C19.9168333,13.23325 19.9168333,13.2249167 19.9085,13.2165833 C19.8168333,13.0915833 19.7168333,12.9665833 19.6085,12.8499167 C19.4918333,12.70825 19.3585,12.5665833 19.2168333,12.4249167 C18.9918333,12.1915833 18.7335,11.95825 18.4668333,11.73325 C18.2001667,11.5249167 17.9251667,11.33325 17.6251667,11.1499167 C17.4251667,11.03325 17.2168333,10.9165833 17.0001667,10.8165833 C16.9085,10.7665833 16.8085,10.7165833 16.7085,10.6749167 C16.7418333,10.7249167 16.7751667,10.7665833 16.8085,10.8165833 C17.0668333,11.1665833 17.2918333,11.5165833 17.4918333,11.88325 C17.7251667,12.2999167 17.9168333,12.7249167 18.0668333,13.1665833 C18.2251667,13.5999167 18.3501667,14.0499167 18.4335,14.5165833 C18.4835,14.7499167 18.5168333,14.9915833 18.5418333,15.23325 C18.5668333,15.4665833 18.5835,15.70825 18.5835,15.9415833 C18.8001667,15.8415833 19.0168333,15.73325 19.2418333,15.60825 C19.4585,15.48325 19.6668333,15.3499167 19.8835,15.20825 L19.9085,15.18325 C19.9668333,14.8499167 20.0001667,14.5165833 20.0001667,14.1665833 C20.0001667,13.9665833 19.9918333,13.7665833 19.9668333,13.5749167 C19.9585,13.4665833 19.9418333,13.35825 19.9251667,13.2499167 M19.1168333,16.4665833 L18.5918333,16.7165833 C18.5668333,16.9999167 18.5418333,17.25825 18.5085,17.4749167 C18.4835,17.6999167 18.4335,17.93325 18.3835,18.1915833 C18.5585,18.00825 18.7251667,17.8165833 18.8751667,17.60825 C18.9418333,17.5165833 19.0085,17.4249167 19.0751667,17.3249167 C19.1001667,17.2749167 19.1335,17.2249167 19.1585,17.1749167 C19.2501667,17.03325 19.3335,16.88325 19.4001667,16.73325 C19.4835,16.5749167 19.5501667,16.4165833 19.6168333,16.2499167 C19.6251667,16.23325 19.6335,16.20825 19.6335,16.1915833 L19.6085,16.20825 C19.4668333,16.2999167 19.3001667,16.38325 19.1168333,16.4665833 M17.2585,12.9499167 C17.0501667,12.43325 16.7835,11.9499167 16.4668333,11.4999167 C16.3085,11.2665833 16.1335,11.0415833 15.9418333,10.8165833 C15.7668333,10.60825 15.5668333,10.3915833 15.3501667,10.18325 L15.3251667,10.1665833 C15.3418333,10.1749167 15.3501667,10.1915833 15.3501667,10.20825 C15.3251667,10.20825 15.3085,10.1999167 15.2918333,10.18325 L15.2335,10.1749167 L15.2168333,10.1749167 C14.6418333,10.3749167 14.1085,10.6415833 13.6001667,10.95825 C13.4085,11.08325 13.2168333,11.2165833 13.0335,11.3665833 C12.7335,11.58325 12.4501667,11.83325 12.1751667,12.0999167 C11.8335,12.43325 11.5251667,12.7915833 11.2501667,13.1665833 C11.1751667,13.2749167 11.0918333,13.3915833 11.0168333,13.50825 C10.7168333,13.9749167 10.4668333,14.4665833 10.2668333,14.98325 C10.2418333,15.0249167 10.2251667,15.0749167 10.2085,15.1165833 C10.2085,15.1165833 10.2168333,15.1165833 10.2168333,15.1249167 C10.5668333,15.3665833 10.9335,15.5999167 11.3501667,15.8165833 C11.7335,16.0165833 12.1251667,16.18325 12.5251667,16.30825 C12.9168333,16.4415833 13.3251667,16.5415833 13.7501667,16.5999167 C13.7585,16.60825 13.7668333,16.60825 13.7751667,16.60825 C14.1751667,16.6665833 14.5918333,16.70825 15.0001667,16.70825 C15.0335,16.7165833 15.0585,16.7165833 15.0918333,16.7165833 C15.5751667,16.7165833 16.0418333,16.6749167 16.5085,16.5915833 C16.9585,16.50825 17.4001667,16.3915833 17.8335,16.2415833 C17.8501667,16.23325 17.8668333,16.23325 17.8835,16.2249167 L17.8835,16.1749167 C17.8835,15.60825 17.8335,15.05825 17.7335,14.5249167 C17.6335,13.98325 17.4751667,13.45825 17.2585,12.9499167 M16.5001667,17.2999167 C16.0335,17.3749167 15.5751667,17.40825 15.1168333,17.40825 L15.0001667,17.40825 C14.6251667,17.40825 14.2835,17.38325 13.9668333,17.3415833 C13.8918333,17.33325 13.8251667,17.3249167 13.7501667,17.30825 C13.4668333,17.2665833 13.1751667,17.20825 12.8918333,17.1415833 C12.5335,17.0499167 12.1835,16.93325 11.8251667,16.7915833 C11.4751667,16.65825 11.1335,16.4999167 10.8085,16.3249167 C11.1168333,16.7749167 11.4418333,17.18325 11.7918333,17.5499167 C11.9168333,17.68325 12.0501667,17.80825 12.1835,17.9165833 C12.4251667,18.1415833 12.6751667,18.3415833 12.9418333,18.53325 C13.2835,18.7749167 13.6501667,18.98325 14.0251667,19.1665833 C14.0918333,19.20825 14.1585,19.2415833 14.2335,19.2749167 C14.6918333,19.4749167 15.1835,19.6499167 15.7085,19.7915833 C15.7168333,19.7915833 15.7251667,19.78325 15.7335,19.78325 C15.8418333,19.75825 15.9501667,19.7249167 16.0501667,19.68325 C16.1418333,19.65825 16.2335,19.6249167 16.3168333,19.5915833 C16.4585,19.53325 16.6001667,19.4749167 16.7335,19.3999167 C16.8335,19.35825 16.9335,19.30825 17.0251667,19.25825 C17.1668333,19.1749167 17.3001667,19.0915833 17.4335,18.9999167 C17.5418333,18.6915833 17.6335,18.3665833 17.7085,18.00825 C17.7835,17.6749167 17.8335,17.3249167 17.8585,16.9665833 C17.5501667,17.0665833 17.2501667,17.1499167 16.9418333,17.20825 C16.7918333,17.2499167 16.6501667,17.2749167 16.5001667,17.2999167 M12.8668333,19.3249167 C12.7918333,19.2749167 12.7085,19.2249167 12.6335,19.1665833 C12.3085,18.9499167 12.0085,18.7165833 11.7168333,18.45825 C11.5251667,18.28325 11.3418333,18.10825 11.1751667,17.9165833 C11.0168333,17.75825 10.8751667,17.58325 10.7335,17.40825 C10.4251667,17.03325 10.1501667,16.6165833 9.90016667,16.1749167 C9.8335,16.43325 9.7835,16.70825 9.74183333,17.00825 C9.70016667,17.2999167 9.6835,17.5915833 9.6835,17.8915833 C9.81683333,18.0499167 9.9585,18.20825 10.1085,18.3499167 C10.2501667,18.48325 10.3918333,18.6165833 10.5418333,18.7249167 C10.5835,18.7749167 10.6335,18.80825 10.6751667,18.83325 C10.8001667,18.93325 10.9251667,19.0165833 11.0501667,19.0915833 C11.0835,19.1249167 11.1251667,19.1415833 11.1585,19.15825 C11.2918333,19.2499167 11.4251667,19.3249167 11.5668333,19.38325 C11.6668333,19.4415833 11.7751667,19.4915833 11.8918333,19.5415833 C12.0501667,19.60825 12.2085,19.6665833 12.3751667,19.7249167 C12.4001667,19.73325 12.4251667,19.7415833 12.4585,19.7499167 C12.5835,19.78325 12.7168333,19.8249167 12.8501667,19.8499167 C12.9168333,19.8665833 12.9751667,19.88325 13.0418333,19.8915833 C13.4001667,19.9665833 13.7751667,19.9999167 14.1585,19.9999167 C13.8085,19.8499167 13.4751667,19.68325 13.1585,19.4915833 C13.0585,19.4415833 12.9585,19.38325 12.8668333,19.3249167 M8.7835,14.83325 C8.6585,14.70825 8.51683333,14.55825 8.34183333,14.3749167 C8.34183333,14.48325 8.35016667,14.5999167 8.3585,14.70825 L8.3585,14.7249167 C8.3585,14.73325 8.36683333,14.7499167 8.36683333,14.7665833 C8.3835,14.93325 8.40016667,15.0915833 8.4335,15.2499167 C8.46683333,15.40825 8.50016667,15.5665833 8.55016667,15.7249167 C8.6335,16.0499167 8.75016667,16.35825 8.90016667,16.65825 C8.95016667,16.7499167 9.00016667,16.8499167 9.0585,16.9415833 C9.06683333,16.8665833 9.07516667,16.7999167 9.09183333,16.7249167 C9.11683333,16.5415833 9.1585,16.3499167 9.19183333,16.1665833 C9.24183333,15.93325 9.3085,15.6749167 9.40016667,15.38325 L9.40016667,15.3749167 L9.39183333,15.3665833 C9.1585,15.1915833 8.9835,15.03325 8.84183333,14.8915833 C8.82516667,14.8749167 8.80016667,14.8499167 8.7835,14.83325 M18.3751667,10.8165833 C18.7335,11.05825 19.0835,11.3249167 19.4168333,11.63325 C19.3335,11.4499167 19.2335,11.2749167 19.1251667,11.0999167 C19.1251667,11.0915833 19.1168333,11.08325 19.1085,11.0749167 C19.0585,10.98325 19.0001667,10.8999167 18.9418333,10.8165833 L18.9335,10.8165833 C18.9168333,10.7749167 18.8918333,10.7415833 18.8585,10.70825 C18.8085,10.63325 18.7501667,10.55825 18.6835,10.48325 C18.4501667,10.1915833 18.1835,9.92491667 17.8918333,9.68325 C17.7418333,9.68325 17.5085,9.69991667 17.2001667,9.71658333 C16.9835,9.74158333 16.7585,9.78325 16.5001667,9.83325 C17.0418333,10.0415833 17.5501667,10.2915833 18.0335,10.5915833 C18.1501667,10.6665833 18.2585,10.73325 18.3751667,10.8165833 M15.9751667,8.61658333 C15.9168333,8.59158333 15.8501667,8.57491667 15.7918333,8.56658333 C15.6418333,8.51658333 15.4918333,8.48325 15.3418333,8.44991667 C15.2001667,8.42491667 15.0585,8.39991667 14.9085,8.38325 C14.8585,8.37491667 14.8085,8.36658333 14.7501667,8.36658333 C14.5585,8.34158333 14.3668333,8.33325 14.1668333,8.33325 L14.0585,8.33325 C14.0585,8.33325 14.0668333,8.33325 14.0668333,8.34158333 C14.3001667,8.45825 14.5251667,8.60825 14.7751667,8.79158333 C14.7918333,8.80825 14.8168333,8.82491667 14.8335,8.83325 C14.8501667,8.84991667 14.8751667,8.86658333 14.8918333,8.87491667 C15.0168333,8.96658333 15.1251667,9.05825 15.2335,9.14991667 C15.3168333,9.21658333 15.4001667,9.28325 15.4751667,9.34991667 C15.7085,9.26658333 15.9501667,9.20825 16.2001667,9.15825 C16.2168333,9.15825 16.2335,9.14991667 16.2501667,9.14991667 C16.5085,9.09991667 16.7501667,9.06658333 16.9501667,9.03325 C16.7835,8.94991667 16.6168333,8.86658333 16.4418333,8.79158333 C16.2918333,8.72491667 16.1335,8.66658333 15.9751667,8.61658333 M13.2751667,9.21658333 C13.4585,9.21658333 13.6168333,9.22491667 13.7668333,9.24158333 L14.2418333,9.29158333 C14.1835,9.24991667 14.1251667,9.20825 14.0585,9.16658333 C13.9001667,9.06658333 13.7335,8.96658333 13.5585,8.85825 C13.2751667,8.69991667 13.0251667,8.58325 12.8085,8.49991667 C12.7001667,8.52491667 12.5918333,8.54991667 12.4835,8.58325 C12.3751667,8.61658333 12.2751667,8.64991667 12.1668333,8.69158333 C11.9585,8.76658333 11.7585,8.84991667 11.5585,8.94991667 C11.4585,8.99991667 11.3668333,9.04991667 11.2668333,9.10825 C10.9835,9.26658333 10.7085,9.45825 10.4585,9.66658333 C10.8918333,9.53325 11.3501667,9.43325 11.8251667,9.34991667 C12.2751667,9.27491667 12.7585,9.23325 13.2751667,9.21658333 M10.5751667,12.9249167 C10.7751667,12.63325 10.9918333,12.3499167 11.2335,12.08325 C11.3168333,11.9665833 11.4168333,11.8665833 11.5168333,11.75825 C11.8085,11.4415833 12.1251667,11.1499167 12.4751667,10.8999167 C12.5251667,10.8499167 12.5835,10.80825 12.6418333,10.7665833 C13.0501667,10.4665833 13.4835,10.1999167 13.9501667,9.96658333 L13.5918333,9.94991667 L13.2751667,9.94158333 C12.6001667,9.94158333 11.9418333,10.0165833 11.3001667,10.1749167 C10.6918333,10.3165833 10.0918333,10.53325 9.52516667,10.83325 C9.50016667,10.8499167 9.46683333,10.85825 9.44183333,10.8749167 L9.41683333,11.25825 C9.4085,11.38325 9.40016667,11.5165833 9.40016667,11.6665833 C9.40016667,12.1165833 9.44183333,12.55825 9.5085,12.9915833 C9.52516667,13.1165833 9.55016667,13.2415833 9.5835,13.35825 C9.64183333,13.6749167 9.72516667,13.98325 9.82516667,14.2915833 C10.0501667,13.7915833 10.3001667,13.33325 10.5751667,12.9249167 M8.82516667,13.10825 C8.76683333,12.75825 8.7335,12.4165833 8.71683333,12.10825 C8.65016667,12.2749167 8.59183333,12.4415833 8.55016667,12.60825 C8.52516667,12.68325 8.50016667,12.75825 8.49183333,12.83325 C8.45016667,12.9999167 8.41683333,13.1665833 8.40016667,13.3415833 C8.52516667,13.50825 8.6335,13.6415833 8.72516667,13.7415833 C8.84183333,13.88325 8.95016667,13.9915833 9.04183333,14.08325 C8.95016667,13.75825 8.87516667,13.4415833 8.82516667,13.10825 M14.1668333,6.66658333 C16.3751667,6.66658333 18.3668333,7.62491667 19.7418333,9.14991667 L20.0001667,9.14991667 C19.6001667,4.28325 15.7168333,0.399916667 10.8501667,-8.33333333e-05 L10.8501667,5.04991667 C12.0085,5.24158333 13.0335,5.83325 13.7751667,6.67491667 C13.9001667,6.66658333 14.0335,6.66658333 14.1668333,6.66658333 M9.4335,19.98325 C4.17516667,19.68325 0.000166666667,15.3249167 0.000166666667,9.98325 C0.000166666667,4.73325 4.04183333,0.424916667 9.1835,-8.33333333e-05 L9.1835,5.04991667 C6.8085,5.44158333 5.0085,7.49991667 5.0085,9.98325 C5.0085,11.4665833 5.6585,12.80825 6.6835,13.70825 C6.67516667,13.85825 6.66683333,14.00825 6.66683333,14.1665833 C6.66683333,16.50825 7.75016667,18.5999167 9.4335,19.98325" id="Fill-1" fill="#333333" mask="url(#mask-2)"></path>
            </g>
        </g>
        <g id="icons-/-Error_Mark" transform="translate(0.000000, 12.000000)" opacity="0">
            <circle id="Oval" fill="#FFFFFF" fill-rule="nonzero" cx="4" cy="4" r="4"></circle>
            <path d="M4.00666043,0.66666822 C4.60923891,0.667230482 5.16978374,0.820408594 5.68831169,1.12620713 C6.1900347,1.42368891 6.5896311,1.82328531 6.88711289,2.32500833 C7.19347473,2.84449144 7.34665335,3.4050364 7.34665335,4.00666001 C7.34665335,4.60828362 7.19347473,5.16882857 6.88711289,5.68831169 C6.5896311,6.1900347 6.1900347,6.5896311 5.68831169,6.88711289 C5.16882857,7.19347473 4.60828362,7.34665335 4.00666001,7.34665335 C3.4050364,7.34665335 2.84449144,7.19347473 2.32500833,6.88711289 C1.82328531,6.5896311 1.42368891,6.1900347 1.12620713,5.68831169 C0.819845288,5.16882857 0.666666667,4.60828362 0.666666667,4.00666001 C0.666666667,3.4050364 0.819845288,2.84449144 1.12620713,2.32500833 C1.42368891,1.82328531 1.82328531,1.42368891 2.32500833,1.12620713 C2.84353627,0.820408594 3.4040811,0.667230482 4.00665958,0.66666822 L4.00666043,0.66666822 Z M4.00666043,0.66666822 C4.00555043,0.666667185 4.00444029,0.666666667 4.00333,0.666666667 L4.00999001,0.666666667 C4.00887973,0.666666667 4.00776958,0.666667185 4.00665958,0.66666822 L4.00666043,0.66666822 Z M4.34299034,5.67499167 L4.34299034,5.00899101 L3.67032967,5.00899101 L3.67032967,5.67499167 L4.34299034,5.67499167 Z M4.34299034,4.34299034 L4.34299034,2.33832834 L3.67032967,2.33832834 L3.67032967,4.34299034 L4.34299034,4.34299034 Z" id="" fill="#F83200"></path>
        </g>
    </g>
</svg>