<?xml version="1.0" encoding="UTF-8"?>
<svg width="20px" height="20px" viewBox="0 0 20 20" version="1.1" xmlns="http://www.w3.org/2000/svg" xmlns:xlink="http://www.w3.org/1999/xlink">
    <!-- Generator: Sketch 51.3 (57544) - http://www.bohemiancoding.com/sketch -->
    <title>icons / classes/ BMC_Dataset_32</title>
    <desc>Created with Sketch.</desc>
    <defs>
        <polygon id="path-1" points="0 0 16 0 16 17.9996 0 17.9996"></polygon>
    </defs>
    <g id="icons-/-classes/-BMC_Dataset_32" stroke="none" stroke-width="1" fill="none" fill-rule="evenodd">
        <g>
            <g id="icons-/-20x20-icon-field" fill="#F5A623" fill-rule="nonzero" opacity="0">
                <rect x="0" y="0" width="20" height="20"></rect>
            </g>
            <g id="Group-3" transform="translate(2.000000, 1.000000)">
                <mask id="mask-2" fill="white">
                    <use xlink:href="#path-1"></use>
                </mask>
                <g id="Clip-2"></g>
                <path d="M15.96,3.5996 C15.61,1.8496 13.01,0.4296 9.61,0.0796 C9.38,0.0596 9.13,0.0396 8.89,0.0306 C8.6,0.0096 8.3,-0.0004 8,-0.0004 C7.7,-0.0004 7.4,0.0096 7.11,0.0306 C6.87,0.0396 6.62,0.0596 6.39,0.0796 C2.99,0.4296 0.39,1.8496 0.04,3.5996 C0.01,3.7306 0,3.8706 0,3.9996 L0,5.9996 C0,6.8796 0.57,7.6906 1.54,8.3496 C1.61,8.4106 1.69,8.4596 1.77,8.4996 C2.02,8.6696 2.3,8.8206 2.6,8.9506 C3.06,9.1606 3.57,9.3496 4.12,9.4996 C5.27,9.8206 6.59,9.9996 8,9.9996 C9.41,9.9996 10.73,9.8206 11.88,9.4996 C12.43,9.3496 12.94,9.1606 13.4,8.9506 C13.7,8.8206 13.98,8.6696 14.23,8.4996 C14.31,8.4596 14.39,8.4106 14.46,8.3496 C15.43,7.6906 16,6.8796 16,5.9996 L16,3.9996 C16,3.8706 15.99,3.7306 15.96,3.5996 M15.7,9.9106 C15.61,9.9806 15.52,10.0396 15.42,10.0996 C15.12,10.2996 14.8,10.4906 14.46,10.6506 C14.21,10.7806 13.94,10.9006 13.67,10.9996 C12.08,11.6396 10.14,11.9996 8,11.9996 C5.86,11.9996 3.92,11.6396 2.33,10.9996 C2.06,10.9006 1.79,10.7806 1.54,10.6506 C1.2,10.4906 0.88,10.2996 0.58,10.0996 C0.48,10.0396 0.39,9.9806 0.3,9.9106 C0.18,10.1396 0.09,10.3706 0.04,10.5996 C0.01,10.7306 0,10.8706 0,10.9996 L0,13.9996 C0,14.8796 0.57,15.6906 1.54,16.3496 C1.61,16.4106 1.69,16.4596 1.77,16.4996 C2.02,16.6696 2.3,16.8206 2.6,16.9506 C3.06,17.1606 3.57,17.3496 4.12,17.4996 C5.27,17.8206 6.59,17.9996 8,17.9996 C9.41,17.9996 10.73,17.8206 11.88,17.4996 C12.43,17.3496 12.94,17.1606 13.4,16.9506 C13.7,16.8206 13.98,16.6696 14.23,16.4996 C14.31,16.4596 14.39,16.4106 14.46,16.3496 C15.43,15.6906 16,14.8796 16,13.9996 L16,10.9996 C16,10.8706 15.99,10.7306 15.96,10.5996 C15.91,10.3706 15.82,10.1396 15.7,9.9106" id="Fill-1" fill="#333333" mask="url(#mask-2)"></path>
            </g>
            <g id="icons-/-Error_Mark" transform="translate(0.000000, 12.000000)" opacity="0">
                <circle id="Oval" fill="#FFFFFF" fill-rule="nonzero" cx="4" cy="4" r="4"></circle>
                <path d="M4.00666043,0.66666822 C4.60923891,0.667230482 5.16978374,0.820408594 5.68831169,1.12620713 C6.1900347,1.42368891 6.5896311,1.82328531 6.88711289,2.32500833 C7.19347473,2.84449144 7.34665335,3.4050364 7.34665335,4.00666001 C7.34665335,4.60828362 7.19347473,5.16882857 6.88711289,5.68831169 C6.5896311,6.1900347 6.1900347,6.5896311 5.68831169,6.88711289 C5.16882857,7.19347473 4.60828362,7.34665335 4.00666001,7.34665335 C3.4050364,7.34665335 2.84449144,7.19347473 2.32500833,6.88711289 C1.82328531,6.5896311 1.42368891,6.1900347 1.12620713,5.68831169 C0.819845288,5.16882857 0.666666667,4.60828362 0.666666667,4.00666001 C0.666666667,3.4050364 0.819845288,2.84449144 1.12620713,2.32500833 C1.42368891,1.82328531 1.82328531,1.42368891 2.32500833,1.12620713 C2.84353627,0.820408594 3.4040811,0.667230482 4.00665958,0.66666822 L4.00666043,0.66666822 Z M4.00666043,0.66666822 C4.00555043,0.666667185 4.00444029,0.666666667 4.00333,0.666666667 L4.00999001,0.666666667 C4.00887973,0.666666667 4.00776958,0.666667185 4.00665958,0.66666822 L4.00666043,0.66666822 Z M4.34299034,5.67499167 L4.34299034,5.00899101 L3.67032967,5.00899101 L3.67032967,5.67499167 L4.34299034,5.67499167 Z M4.34299034,4.34299034 L4.34299034,2.33832834 L3.67032967,2.33832834 L3.67032967,4.34299034 L4.34299034,4.34299034 Z" id="" fill="#F83200"></path>
            </g>
        </g>
    </g>
</svg>