<?xml version="1.0" encoding="UTF-8"?>
<svg width="20px" height="20px" viewBox="0 0 20 20" version="1.1" xmlns="http://www.w3.org/2000/svg" xmlns:xlink="http://www.w3.org/1999/xlink">
    <!-- Generator: Sketch 51.3 (57544) - http://www.bohemiancoding.com/sketch -->
    <title>icons / classes/ BMC_Offering_32_Error</title>
    <desc>Created with Sketch.</desc>
    <defs></defs>
    <g id="icons-/-classes/-BMC_Offering_32" stroke="none" stroke-width="1" fill="none" fill-rule="evenodd">
        <g id="icons-/-classes/-Offering">
            <g id="icons-/-20x20-icon-field" fill="#F5A623" fill-rule="nonzero" opacity="0">
                <rect x="0" y="0" width="20" height="20"></rect>
            </g>
            <path d="M13.5154845,1.3986014 C14.6063991,1.85414813 15.5594365,2.49250339 16.3746254,3.31368631 C17.1898143,4.13486924 17.8311665,5.08790666 18.2987013,6.17282717 C18.7662361,7.25774768 19,8.42956414 19,9.68831169 C19,10.9470592 18.7632391,12.1218727 18.2897103,13.2127872 C17.8161814,14.3037018 17.1718322,15.2567392 16.3566434,16.0719281 C15.5414545,16.887117 14.5854201,17.5284692 13.4885115,17.996004 C12.3916029,18.4635388 11.2287774,18.6973027 10,18.6973027 C8.77122263,18.6973027 7.60540012,18.4635388 6.5024975,17.996004 C5.39959489,17.5284692 4.44056352,16.887117 3.62537463,16.0719281 C2.81018573,15.2567392 2.16283956,14.2977078 1.68331668,13.1948052 C1.21578188,12.1278668 0.982017982,10.9680382 0.982017982,9.71528472 C0.982017982,8.4625312 1.21877885,7.28771777 1.69230769,6.19080919 C2.16583653,5.09390061 2.80419179,4.13786621 3.60739261,3.32267732 C4.41059343,2.50748843 5.3696248,1.86014226 6.48451548,1.38061938 C7.56344196,0.925072647 8.72926447,0.697302697 9.98201798,0.697302697 C11.2347715,0.697302697 12.4125819,0.931066593 13.5154845,1.3986014 Z M13.965035,12.4035964 C14.0249753,12.343656 14.0699299,12.2777226 14.0999001,12.2057942 C14.1298703,12.1338658 14.1448551,12.0589414 14.1448551,11.981019 C14.1448551,11.9030965 14.1268733,11.8281722 14.0909091,11.7562438 C14.0549449,11.6843153 14.0129873,11.6303698 13.965035,11.5944056 L12.7422577,10.3716284 C12.4785202,10.0959027 12.3106897,9.92807223 12.2387612,9.86813187 C11.9630356,9.58041814 11.6693322,9.28671479 11.3576424,8.98701299 C11.1898094,8.86713227 11.0279728,8.79520492 10.8721279,8.77122877 C10.7162829,8.74725263 10.5784222,8.76523447 10.4585415,8.82517483 L9.84715285,9.09490509 L9.25374625,9.38261738 C9.16982975,9.43056967 9.08591451,9.46653335 9.001998,9.49050949 L8.96603397,9.50849151 C8.87012939,9.54445572 8.80419598,9.56243756 8.76823177,9.56243756 L8.60639361,9.61638362 C8.57042939,9.62837169 8.52247782,9.63436563 8.46253746,9.63436563 C8.28271638,9.62237756 8.11188892,9.58341691 7.95004995,9.51748252 C7.78821098,9.45154812 7.6413593,9.34965104 7.50949051,9.21178821 C7.37762172,9.07392538 7.28171858,8.93306765 7.22177822,8.78921079 C7.16183786,8.62137778 7.13186813,8.44755335 7.13186813,8.26773227 C7.13186813,8.13586348 7.146853,8.01898153 7.17682318,7.91708292 C7.20679336,7.81518431 7.25174795,7.71029025 7.31168831,7.6023976 C7.37162867,7.49450496 7.44055905,7.40159879 7.51848152,7.32367632 C7.59640399,7.24575386 7.67132831,7.18281742 7.74325674,7.13486513 L8.40859141,6.72127872 C8.72028128,6.52946957 9.09789988,6.31968146 9.54145854,6.09190809 C9.33766132,5.92407508 9.13686413,5.80419616 8.93906094,5.73226773 C8.74125775,5.6603393 8.54046056,5.62437562 8.33666334,5.62437562 C8.21678262,5.62437562 8.09090975,5.63936049 7.95904096,5.66933067 C7.82717217,5.69930085 7.7012993,5.7382615 7.58141858,5.78621379 C7.38960943,5.87013029 7.24575473,5.9360637 7.14985015,5.98401598 L6.73626374,6.18181818 L5.78321678,6.73926074 C5.55544342,6.82317724 5.3456553,6.86813184 5.15384615,6.87412587 C4.962037,6.88011991 4.77023073,6.84715321 4.57842158,6.77522478 L3.24775225,6.32567433 L3.24775225,10.983017 C3.42757333,11.0429573 3.56543409,11.0909089 3.66133866,11.1268731 L3.96703297,11.2527473 C3.97902104,11.204795 4.00299682,11.1448555 4.03896104,11.0729271 L4.23676324,10.7672328 L4.34465534,10.6233766 C4.48851221,10.5034959 4.64435481,10.4075928 4.81218781,10.3356643 C4.98002082,10.2637359 5.16883012,10.2277722 5.37862138,10.2277722 C5.58841264,10.2277722 5.78021891,10.2607389 5.95404595,10.3266733 C6.127873,10.3926077 6.27472468,10.4915078 6.39460539,10.6233766 C6.44255768,10.6713289 6.47852136,10.7132865 6.5024975,10.7492507 L6.59240759,10.8931069 C6.61638374,10.917083 6.64035952,10.9650346 6.66433566,11.036963 L6.71828172,11.1988012 L6.88011988,11.2527473 C6.9160841,11.2647353 6.97002961,11.2947051 7.04195804,11.3426573 C7.07792226,11.3546454 7.11987988,11.3816182 7.16783217,11.4235764 C7.21578446,11.4655347 7.25174813,11.5044953 7.27572428,11.5404595 L7.38361638,11.6663337 C7.4195806,11.7022979 7.44955033,11.7442555 7.47352647,11.7922078 L7.56343656,11.954046 C7.58741271,12.0019982 7.5994006,12.0559438 7.5994006,12.1158841 C7.67132903,12.1278722 7.72527455,12.1398601 7.76123876,12.1518482 L7.92307692,12.2417582 L8.06693307,12.3676324 C8.11488535,12.4035966 8.14485508,12.4275724 8.15684316,12.4395604 C8.21678352,12.4995008 8.25874114,12.5474524 8.28271728,12.5834166 L8.31868132,12.6373626 C8.34265746,12.6853149 8.36363627,12.7242756 8.38161838,12.7542458 C8.39960049,12.7842159 8.4205793,12.8351645 8.44455544,12.9070929 L8.51648352,13.0689311 L8.66033966,13.1228771 C8.72028002,13.1468533 8.77122856,13.173826 8.81318681,13.2037962 C8.85514506,13.2337664 8.90009966,13.2667331 8.94805195,13.3026973 L9.09190809,13.4285714 C9.16383652,13.5004999 9.22677296,13.5814181 9.28071928,13.6713287 C9.3346656,13.7612392 9.37662323,13.8571423 9.40659341,13.959041 C9.43656359,14.0609396 9.45154845,14.1718276 9.45154845,14.2917083 C9.46353652,14.3516487 9.46353652,14.4535457 9.45154845,14.5974026 L9.45154845,14.6153846 L9.66733267,14.8311688 C9.70329688,14.8791211 9.73326661,14.9150848 9.75724276,14.9390609 C9.81718312,14.9990013 9.88311652,15.0439559 9.95504496,15.0739261 C10.0269734,15.1038963 10.1018977,15.1188811 10.1798202,15.1188811 C10.2577426,15.1188811 10.332667,15.1038963 10.4045954,15.0739261 C10.4765238,15.0439559 10.5424572,14.9990013 10.6023976,14.9390609 C10.662338,14.8791206 10.7042956,14.8131872 10.7282717,14.7412587 C10.7522479,14.6693303 10.7642358,14.594406 10.7642358,14.5164835 C10.7642358,14.438561 10.7492509,14.3636367 10.7192807,14.2917083 C10.6893105,14.2197799 10.6443559,14.1538465 10.5844156,14.0939061 L10.1708292,13.6623377 C10.0389604,13.5064927 9.94305724,13.3866138 9.88311688,13.3026973 C9.82317652,13.2187808 9.80219771,13.1678323 9.82017982,13.1498501 C9.83816193,13.131868 9.90109836,13.1648347 10.008991,13.2487512 C10.1168837,13.3326678 10.2547444,13.4645346 10.4225774,13.6443556 C10.5304701,13.7642364 10.6983006,13.9380608 10.9260739,14.1658342 L10.962038,14.2017982 C11.0339664,14.2617386 11.1028968,14.3066932 11.1688312,14.3366633 C11.2347656,14.3666335 11.3096899,14.3816184 11.3936064,14.3816184 C11.4775229,14.3816184 11.5524472,14.3666335 11.6183816,14.3366633 C11.684316,14.3066932 11.7472524,14.2617386 11.8071928,14.2017982 C11.8671332,14.1418578 11.9120878,14.0759244 11.9420579,14.003996 C11.9720281,13.9320676 11.987013,13.8601402 11.987013,13.7882118 C11.987013,13.7162834 11.9750251,13.644356 11.951049,13.5724276 C11.9270728,13.5004991 11.8791212,13.4345657 11.8071928,13.3746254 C11.8071928,13.3626373 11.7952049,13.3506494 11.7712288,13.3386613 L11.7352647,13.3026973 L11.7352647,13.2667333 C11.3756226,12.9550434 11.1178829,12.7182825 10.962038,12.5564436 C10.806193,12.3946046 10.7372626,12.3016984 10.7552448,12.2777223 C10.7732269,12.2537461 10.8931058,12.3316674 11.1148851,12.5114885 C11.3366644,12.6913096 11.6753224,12.9850129 12.1308691,13.3926074 C12.2027976,13.4405597 12.2717279,13.4795203 12.3376623,13.5094905 C12.4035967,13.5394607 12.4755241,13.5544456 12.5534466,13.5544456 C12.631369,13.5544456 12.7032964,13.5364637 12.7692308,13.5004995 C12.8351652,13.4645353 12.8951046,13.4225777 12.9490509,13.3746254 C13.0029973,13.3266731 13.0419579,13.2757245 13.0659341,13.2217782 C13.0899102,13.1678319 13.107892,13.0869136 13.1198801,12.979021 C13.1198801,12.9070925 13.1078922,12.8381622 13.0839161,12.7722278 C13.0599399,12.7062934 13.0239763,12.6433569 12.976024,12.5834166 L12.4905095,12.0619381 C12.3706288,11.9300693 12.2567438,11.7922085 12.1488511,11.6483516 C12.0769227,11.5524471 12.04995,11.4925076 12.0679321,11.4685315 C12.0859142,11.4445553 12.1848143,11.5104887 12.3646354,11.6663337 C12.5564445,11.8461547 12.8081902,12.0859126 13.1198801,12.3856144 C13.1798205,12.4575428 13.2457539,12.5054944 13.3176823,12.5294705 C13.3896107,12.5534467 13.4645351,12.5654346 13.5424575,12.5654346 C13.62038,12.5654346 13.6953043,12.5534467 13.7672328,12.5294705 C13.8631373,12.4815182 13.9290707,12.4395606 13.965035,12.4035964 Z M7.81518482,13.6983017 C7.81549322,13.6976849 7.81580063,13.6970641 7.81610705,13.6964394 L7.81518482,13.6983017 Z M7.81610705,13.6964394 C7.83962256,13.6484951 7.857297,13.5771884 7.86913087,13.4825175 C7.88111894,13.4345652 7.88411591,13.3716288 7.87812188,13.2937063 C7.87212784,13.2157838 7.85114903,13.1408595 7.81518482,13.0689311 C7.7792206,12.9970026 7.73726298,12.9370632 7.68931069,12.8891109 C7.61738226,12.8411586 7.5574428,12.802198 7.50949051,12.7722278 C7.46153822,12.7422576 7.41058968,12.7212788 7.35664336,12.7092907 C7.30269703,12.6973026 7.2397606,12.6913087 7.16783217,12.6913087 C7.11987988,12.6913087 7.05994042,12.6973026 6.98801199,12.7092907 L6.97002997,12.7092907 C6.99400611,12.6493503 7.00599401,12.5894109 7.00599401,12.5294705 C7.00599401,12.4695302 7.00000006,12.4035968 6.98801199,12.3316683 L6.98801199,12.3136863 C6.97602392,12.2297698 6.95804208,12.1698303 6.93406593,12.1338661 L6.82617383,11.972028 C6.77822154,11.9240757 6.727273,11.885115 6.67332667,11.8551449 C6.61938035,11.8251747 6.55644392,11.8041959 6.48451548,11.7922078 C6.44855127,11.7802197 6.38861181,11.7742258 6.3046953,11.7742258 C6.25674302,11.7742258 6.18481566,11.7802197 6.08891109,11.7922078 C6.10089916,11.7562436 6.11288705,11.6963041 6.12487512,11.6123876 L6.12487512,11.3966034 C6.10089898,11.324675 6.0769232,11.2707295 6.05294705,11.2347652 C6.01698284,11.1628368 5.98101916,11.1088913 5.94505495,11.0729271 C5.87312651,10.9890106 5.78921127,10.9350651 5.69330669,10.9110889 L5.65734266,10.8931069 C5.53746194,10.8571427 5.44755275,10.8391608 5.38761239,10.8391608 C5.2557436,10.8511489 5.15384651,10.8811186 5.08191808,10.9290709 C4.97402543,10.9770232 4.8781223,11.0369627 4.79420579,11.1088911 C4.71028929,11.1808195 4.63836194,11.2707287 4.57842158,11.3786214 C4.53046929,11.4625379 4.48851167,11.5704289 4.45254745,11.7022977 C4.41658324,11.8341665 4.40459534,11.9540454 4.41658342,12.0619381 C4.42857149,12.1698307 4.47352608,12.2627369 4.55144855,12.3406593 C4.62937102,12.4185818 4.70729232,12.4725273 4.78521479,12.5024975 C4.86313725,12.5324677 4.94405552,12.5414586 5.02797203,12.5294705 L5.44155844,12.4215784 L5.38761239,12.6013986 C5.37562432,12.673327 5.35164853,12.7452544 5.31568432,12.8171828 C5.2797201,12.8891112 5.27372615,12.9640356 5.2977023,13.041958 C5.32167844,13.1198805 5.36363606,13.1948048 5.42357642,13.2667333 C5.48351678,13.3386617 5.55244716,13.3896102 5.63036963,13.4195804 C5.7082921,13.4495506 5.79520432,13.4645355 5.89110889,13.4645355 L6.32267732,13.3386613 L6.1968032,13.7522478 C6.17282705,13.8121881 6.17282705,13.8811185 6.1968032,13.959041 C6.22077934,14.0369634 6.26273696,14.1118878 6.32267732,14.1838162 C6.38261768,14.2557446 6.45154806,14.3066932 6.52947053,14.3366633 C6.607393,14.3666335 6.69430521,14.3696305 6.79020979,14.3456543 L6.80819181,14.3456543 C6.91608446,14.3216782 6.9999997,14.3036964 7.05994006,14.2917083 L7.27572428,14.2377622 L7.07792208,14.6693307 C7.05394593,14.729271 7.05394593,14.7982014 7.07792208,14.8761239 C7.10189822,14.9540463 7.14685282,15.0349646 7.21278721,15.1188811 C7.27872161,15.2027976 7.3686308,15.2597401 7.48251748,15.2897103 C7.59640417,15.3196805 7.72527401,15.3226774 7.86913087,15.2987013 C8.01298773,15.2747252 8.14185757,15.2387615 8.25574426,15.1908092 C8.36963094,15.1428569 8.4625371,15.0769235 8.53446553,14.993007 C8.61838204,14.9090905 8.68431544,14.8221783 8.73226773,14.7322677 C8.78022002,14.6423572 8.80719278,14.5404601 8.81318681,14.4265734 C8.81918085,14.3126867 8.80119901,14.2077927 8.75924076,14.1118881 C8.71728251,14.0159835 8.66633397,13.9260743 8.60639361,13.8421578 C8.55844132,13.7942056 8.49850186,13.7522479 8.42657343,13.7162837 C8.354645,13.6803195 8.28871159,13.6623377 8.22877123,13.6623377 C8.13286665,13.6503496 8.06693325,13.6503496 8.03096903,13.6623377 C7.94705594,13.6623377 7.87513102,13.6743246 7.81519212,13.6982988 L7.81610705,13.6964394 Z M15.6913087,11.0549451 C15.7512491,11.0549451 15.865134,11.0369632 16.032967,11.000999 L16.7522478,10.8391608 L16.7522478,6.75724276 C16.2727249,6.87712348 15.8471547,6.97902056 15.4755245,7.06293706 L15.4575425,7.06293706 C15.049948,7.14685357 14.7742265,7.20079908 14.6303696,7.22477522 C14.5464531,7.24875137 14.4625379,7.24875137 14.3786214,7.22477522 C14.2707287,7.20079908 14.1808195,7.1648354 14.1088911,7.11688312 L12.7242757,5.94805195 C12.5684308,5.82817123 12.436564,5.73826204 12.3286713,5.67832168 C12.1728264,5.60639325 12.0649354,5.57042957 12.004995,5.57042957 C11.8971024,5.5584415 11.8011992,5.56143847 11.7172827,5.57942058 C11.6333662,5.59740269 11.5254752,5.63636334 11.3936064,5.6963037 L9.82917083,6.55944056 C9.67332589,6.65534513 9.52347724,6.74525433 9.37962038,6.82917083 L8.93006993,7.0989011 L8.17482517,7.51248751 L7.97702298,7.65634366 C7.94105876,7.6803198 7.89310719,7.72827137 7.83316683,7.8001998 L7.81518482,7.81818182 C7.76723253,7.86613411 7.73126885,7.93206751 7.70729271,8.01598402 C7.68331656,8.09990052 7.67132867,8.17782182 7.67132867,8.24975025 C7.67132867,8.3576429 7.7012984,8.45953998 7.76123876,8.55544456 C7.82117912,8.65134913 7.91108831,8.75324621 8.03096903,8.86113886 C8.15084975,8.96903151 8.28271656,9.02297702 8.42657343,9.02297702 C8.57043029,9.02297702 8.72627289,8.9810194 8.89410589,8.8971029 L9.23576424,8.71728272 C9.39160917,8.64535429 9.54745177,8.56143904 9.7032967,8.46553447 L10.2067932,8.21378621 C10.338662,8.14185778 10.4855137,8.06393648 10.6473526,7.98001998 C10.8091916,7.89610348 10.9770221,7.8601398 11.1508492,7.87212787 C11.3246762,7.88411594 11.4955037,7.93806146 11.6633367,8.03396603 C11.8191816,8.18981097 12.0349637,8.39959908 12.3106893,8.66333666 L13.8211788,10.1558442 C13.9530476,10.3116891 14.0909084,10.4555438 14.2347652,10.5874126 L14.5404595,10.8751249 C14.6363641,10.9710295 14.7412582,11.0399598 14.8551449,11.0819181 C14.9690315,11.1238763 15.0799195,11.1328673 15.1878122,11.1088911 L15.5114885,11.0729271 C15.6073931,11.060939 15.6673325,11.0549451 15.6913087,11.0549451 Z" id="" fill="#2B2826"></path>
        </g>
        <g id="icons-/-Error_Mark" transform="translate(0.000000, 12.000000)">
            <circle id="Oval" fill="#FFFFFF" fill-rule="nonzero" cx="4" cy="4" r="4"></circle>
            <path d="M4.00666043,0.66666822 C4.60923891,0.667230482 5.16978374,0.820408594 5.68831169,1.12620713 C6.1900347,1.42368891 6.5896311,1.82328531 6.88711289,2.32500833 C7.19347473,2.84449144 7.34665335,3.4050364 7.34665335,4.00666001 C7.34665335,4.60828362 7.19347473,5.16882857 6.88711289,5.68831169 C6.5896311,6.1900347 6.1900347,6.5896311 5.68831169,6.88711289 C5.16882857,7.19347473 4.60828362,7.34665335 4.00666001,7.34665335 C3.4050364,7.34665335 2.84449144,7.19347473 2.32500833,6.88711289 C1.82328531,6.5896311 1.42368891,6.1900347 1.12620713,5.68831169 C0.819845288,5.16882857 0.666666667,4.60828362 0.666666667,4.00666001 C0.666666667,3.4050364 0.819845288,2.84449144 1.12620713,2.32500833 C1.42368891,1.82328531 1.82328531,1.42368891 2.32500833,1.12620713 C2.84353627,0.820408594 3.4040811,0.667230482 4.00665958,0.66666822 L4.00666043,0.66666822 Z M4.00666043,0.66666822 C4.00555043,0.666667185 4.00444029,0.666666667 4.00333,0.666666667 L4.00999001,0.666666667 C4.00887973,0.666666667 4.00776958,0.666667185 4.00665958,0.66666822 L4.00666043,0.66666822 Z M4.34299034,5.67499167 L4.34299034,5.00899101 L3.67032967,5.00899101 L3.67032967,5.67499167 L4.34299034,5.67499167 Z M4.34299034,4.34299034 L4.34299034,2.33832834 L3.67032967,2.33832834 L3.67032967,4.34299034 L4.34299034,4.34299034 Z" id="" fill="#F83200"></path>
        </g>
    </g>
</svg>