<?xml version="1.0" encoding="UTF-8"?>
<svg width="20px" height="20px" viewBox="0 0 20 20" version="1.1" xmlns="http://www.w3.org/2000/svg" xmlns:xlink="http://www.w3.org/1999/xlink">
    <!-- Generator: Sketch 51.3 (57544) - http://www.bohemiancoding.com/sketch -->
    <title>icons / classes/ BMC_BaseElement_32_Error</title>
    <desc>Created with Sketch.</desc>
    <defs>
        <polygon id="path-1" points="0.00025 0 20 0 20 19.99975 0.00025 19.99975"></polygon>
    </defs>
    <g id="icons-/-classes/-BMC_BaseElement_32" stroke="none" stroke-width="1" fill="none" fill-rule="evenodd">
        <g id="icons-/-20x20-icon-field" fill="#F5A623" fill-rule="nonzero" opacity="0">
            <rect x="0" y="0" width="20" height="20"></rect>
        </g>
        <g id="Group-3">
            <mask id="mask-2" fill="white">
                <use xlink:href="#path-1"></use>
            </mask>
            <g id="Clip-2"></g>
            <path d="M19.2794167,0.720583333 C20.24025,1.68141667 20.24025,3.23975 19.2794167,4.20058333 C18.52275,4.95641667 17.40025,5.10808333 16.4860833,4.67391667 L15.7994167,5.36058333 L19.2794167,8.83975 C19.91775,9.47808333 19.91775,10.52225 19.2794167,11.15975 L15.7994167,14.63975 L15.11525,13.9555833 C15.5619167,13.04475 15.3994167,11.91975 14.6394167,11.15975 C13.6769167,10.19725 12.12275,10.19725 11.16025,11.15975 C10.19775,12.12225 10.19775,13.6764167 11.16025,14.63975 C11.9194167,15.39975 13.04525,15.56225 13.95525,15.11475 L14.6394167,15.79975 L11.16025,19.27975 C10.5219167,19.91725 9.47775,19.91725 8.84025,19.27975 L5.36025,15.79975 L4.67441667,16.4855833 C5.10858333,17.39975 4.95691667,18.5230833 4.20025,19.27975 C3.23941667,20.23975 1.68191667,20.23975 0.72025,19.27975 C-0.23975,18.3180833 -0.23975,16.7605833 0.72025,15.79975 C1.47691667,15.0430833 2.60025,14.8914167 3.51441667,15.3255833 L4.20025,14.63975 L0.72025,11.15975 C0.08275,10.52225 0.08275,9.47808333 0.72025,8.83975 L4.20025,5.36058333 L4.88525,6.04475 C4.43775,6.95475 4.60025,8.08058333 5.36025,8.83975 C6.32358333,9.80225 7.87775,9.80225 8.84025,8.83975 C9.80275,7.87725 9.80275,6.32308333 8.84025,5.36058333 C8.08025,4.60058333 6.95525,4.43808333 6.04441667,4.88475 L5.36025,4.20058333 L8.84025,0.720583333 C9.47775,0.08225 10.5219167,0.08225 11.16025,0.720583333 L14.6394167,4.20058333 L15.3260833,3.51391667 C14.8919167,2.59975 15.0435833,1.47725 15.7994167,0.720583333 C16.76025,-0.24025 18.3185833,-0.24025 19.2794167,0.720583333" id="Fill-1" fill="#333333" mask="url(#mask-2)"></path>
        </g>
        <g id="icons-/-Error_Mark" transform="translate(0.000000, 12.000000)">
            <circle id="Oval" fill="#FFFFFF" fill-rule="nonzero" cx="4" cy="4" r="4"></circle>
            <path d="M4.00666043,0.66666822 C4.60923891,0.667230482 5.16978374,0.820408594 5.68831169,1.12620713 C6.1900347,1.42368891 6.5896311,1.82328531 6.88711289,2.32500833 C7.19347473,2.84449144 7.34665335,3.4050364 7.34665335,4.00666001 C7.34665335,4.60828362 7.19347473,5.16882857 6.88711289,5.68831169 C6.5896311,6.1900347 6.1900347,6.5896311 5.68831169,6.88711289 C5.16882857,7.19347473 4.60828362,7.34665335 4.00666001,7.34665335 C3.4050364,7.34665335 2.84449144,7.19347473 2.32500833,6.88711289 C1.82328531,6.5896311 1.42368891,6.1900347 1.12620713,5.68831169 C0.819845288,5.16882857 0.666666667,4.60828362 0.666666667,4.00666001 C0.666666667,3.4050364 0.819845288,2.84449144 1.12620713,2.32500833 C1.42368891,1.82328531 1.82328531,1.42368891 2.32500833,1.12620713 C2.84353627,0.820408594 3.4040811,0.667230482 4.00665958,0.66666822 L4.00666043,0.66666822 Z M4.00666043,0.66666822 C4.00555043,0.666667185 4.00444029,0.666666667 4.00333,0.666666667 L4.00999001,0.666666667 C4.00887973,0.666666667 4.00776958,0.666667185 4.00665958,0.66666822 L4.00666043,0.66666822 Z M4.34299034,5.67499167 L4.34299034,5.00899101 L3.67032967,5.00899101 L3.67032967,5.67499167 L4.34299034,5.67499167 Z M4.34299034,4.34299034 L4.34299034,2.33832834 L3.67032967,2.33832834 L3.67032967,4.34299034 L4.34299034,4.34299034 Z" id="" fill="#F83200"></path>
        </g>
    </g>
</svg>