<?xml version="1.0" encoding="UTF-8"?>
<svg width="20px" height="20px" viewBox="0 0 20 20" version="1.1" xmlns="http://www.w3.org/2000/svg" xmlns:xlink="http://www.w3.org/1999/xlink">
    <!-- Generator: Sketch 51.3 (57544) - http://www.bohemiancoding.com/sketch -->
    <title>icons / classes/ BMC_SecurityServer_32</title>
    <desc>Created with Sketch.</desc>
    <defs></defs>
    <g id="icons-/-classes/-BMC_SecurityServer_32" stroke="none" stroke-width="1" fill="none" fill-rule="evenodd">
        <g>
            <g id="icons-/-20x20-icon-field" fill="#F5A623" fill-rule="nonzero" opacity="0">
                <rect x="0" y="0" width="20" height="20"></rect>
            </g>
            <path d="M17,12.225 L12.9991667,12.225 L12.9991667,10.275 C12.9991667,9.7425 13.4491667,9.30833333 13.9991667,9.30833333 L16,9.30833333 C16.55,9.30833333 17,9.7425 17,10.275 L17,12.225 Z M14.1241667,17.6666667 L15.8741667,17.6666667 L15.8741667,14.75 L14.1241667,14.75 L14.1241667,17.6666667 Z M18.9991667,12.225 L17.9991667,12.225 L17.9991667,10.275 C17.9991667,9.2 17.1083333,8.33333333 16,8.33333333 L15,8.33333333 L13.9991667,8.33333333 C12.8908333,8.33333333 12,9.2 12,10.275 L12,12.225 L11,12.225 C10.45,12.225 10,12.6591667 10,13.1916667 L10,19.025 C10,19.5675 10.45,20 11,20 L18.9991667,20 C19.55,20 20,19.5675 20,19.025 L20,13.1916667 C20,12.6591667 19.55,12.225 18.9991667,12.225 Z M4.16666667,7.5 L10.8333333,7.5 L10.8333333,4.16666667 L4.16666667,4.16666667 L4.16666667,7.5 Z M10.3333333,10.275 C10.3333333,8.28416667 11.975,6.66666667 13.9991667,6.66666667 L15,6.66666667 L15,1.58333333 C15,0.708333333 14.2825,0 13.3916667,0 L1.6075,0 C0.716666667,0 0,0.708333333 0,1.58333333 L0,18.4166667 C0,19.2916667 0.716666667,20 1.6075,20 L8.525,20 C8.4,19.7 8.33333333,19.3666667 8.33333333,19.025 L8.33333333,13.1916667 C8.33333333,11.9666667 9.1825,10.9333333 10.3333333,10.6416667 L10.3333333,10.275 Z" id="Fill-1" fill="#333333"></path>
            <g id="icons-/-Error_Mark" transform="translate(0.000000, 12.000000)" opacity="0">
                <circle id="Oval" fill="#FFFFFF" fill-rule="nonzero" cx="4" cy="4" r="4"></circle>
                <path d="M4.00666043,0.66666822 C4.60923891,0.667230482 5.16978374,0.820408594 5.68831169,1.12620713 C6.1900347,1.42368891 6.5896311,1.82328531 6.88711289,2.32500833 C7.19347473,2.84449144 7.34665335,3.4050364 7.34665335,4.00666001 C7.34665335,4.60828362 7.19347473,5.16882857 6.88711289,5.68831169 C6.5896311,6.1900347 6.1900347,6.5896311 5.68831169,6.88711289 C5.16882857,7.19347473 4.60828362,7.34665335 4.00666001,7.34665335 C3.4050364,7.34665335 2.84449144,7.19347473 2.32500833,6.88711289 C1.82328531,6.5896311 1.42368891,6.1900347 1.12620713,5.68831169 C0.819845288,5.16882857 0.666666667,4.60828362 0.666666667,4.00666001 C0.666666667,3.4050364 0.819845288,2.84449144 1.12620713,2.32500833 C1.42368891,1.82328531 1.82328531,1.42368891 2.32500833,1.12620713 C2.84353627,0.820408594 3.4040811,0.667230482 4.00665958,0.66666822 L4.00666043,0.66666822 Z M4.00666043,0.66666822 C4.00555043,0.666667185 4.00444029,0.666666667 4.00333,0.666666667 L4.00999001,0.666666667 C4.00887973,0.666666667 4.00776958,0.666667185 4.00665958,0.66666822 L4.00666043,0.66666822 Z M4.34299034,5.67499167 L4.34299034,5.00899101 L3.67032967,5.00899101 L3.67032967,5.67499167 L4.34299034,5.67499167 Z M4.34299034,4.34299034 L4.34299034,2.33832834 L3.67032967,2.33832834 L3.67032967,4.34299034 L4.34299034,4.34299034 Z" id="" fill="#F83200"></path>
            </g>
        </g>
    </g>
</svg>