<?xml version="1.0" encoding="UTF-8"?>
<svg width="20px" height="20px" viewBox="0 0 20 20" version="1.1" xmlns="http://www.w3.org/2000/svg" xmlns:xlink="http://www.w3.org/1999/xlink">
    <!-- Generator: Sketch 51.3 (57544) - http://www.bohemiancoding.com/sketch -->
    <title>icons / classes/ BMC_AdminDomain_32</title>
    <desc>Created with Sketch.</desc>
    <defs>
        <polygon id="path-1" points="0 8.33333333e-05 19.9999167 8.33333333e-05 19.9999167 20 0 20"></polygon>
    </defs>
    <g id="icons-/-classes/-BMC_AdminDomain_32" stroke="none" stroke-width="1" fill="none" fill-rule="evenodd">
        <g id="icons-/-classes/-admin-domain" fill="#F5A623" fill-rule="nonzero" opacity="0">
            <g id="icons-/-20x20-icon-field">
                <rect x="0" y="0" width="20" height="20"></rect>
            </g>
        </g>
        <g id="Group-3">
            <mask id="mask-2" fill="white">
                <use xlink:href="#path-1"></use>
            </mask>
            <g id="Clip-2"></g>
            <path d="M13.2499167,14.2834167 C12.9665833,14.0084167 12.75825,13.6750833 12.63325,13.29175 C12.5415833,13.04175 12.4999167,12.7750833 12.4999167,12.5000833 C12.4999167,11.11675 13.6165833,10.0000833 14.9999167,10.0000833 C16.18325,10.0000833 17.1749167,10.81675 17.43325,11.9250833 C17.4749167,12.1084167 17.4999167,12.3000833 17.4999167,12.5000833 C17.4999167,13.2000833 17.2165833,13.8334167 16.7499167,14.2834167 C16.2999167,14.7250833 15.68325,15.0000833 14.9999167,15.0000833 C14.3165833,15.0000833 13.6999167,14.7250833 13.2499167,14.2834167 M19.9999167,17.91675 L19.9999167,20.0000833 L9.99991667,20.0000833 L9.99991667,17.91675 C9.99991667,17.09175 11.1499167,16.3834167 12.8165833,16.04175 C13.4749167,15.9084167 14.2165833,15.8334167 14.9999167,15.8334167 C15.78325,15.8334167 16.5249167,15.9084167 17.18325,16.04175 C18.8499167,16.3834167 19.9999167,17.09175 19.9999167,17.91675 M14.9999167,6.66675 C14.08325,6.66675 13.33325,5.91675 13.33325,5.00008333 C13.33325,4.08341667 14.08325,3.33341667 14.9999167,3.33341667 C15.9165833,3.33341667 16.6665833,4.08341667 16.6665833,5.00008333 C16.6665833,5.91675 15.9165833,6.66675 14.9999167,6.66675 M14.7749167,0.158416667 C14.6499167,0.125083333 14.5165833,0.100083333 14.38325,0.0834166667 C14.2749167,0.06675 14.1665833,0.0500833333 14.05825,0.04175 C13.9499167,0.0334166667 13.83325,0.0250833333 13.7165833,0.01675 C13.58325,0.00841666667 13.45825,8.33333333e-05 13.33325,8.33333333e-05 C13.2165833,8.33333333e-05 13.0999167,8.33333333e-05 12.9915833,0.00841666667 C12.7999167,0.00841666667 12.6165833,0.0250833333 12.4415833,0.04175 C12.18325,0.06675 11.9249167,0.11675 11.6665833,0.208416667 C11.6249167,0.21675 11.58325,0.233416667 11.5415833,0.24175 C8.72491667,1.02508333 6.66658333,3.60841667 6.66658333,6.66675 C6.66658333,7.51675 6.82491667,8.33341667 7.12491667,9.08341667 L-8.33333333e-05,16.1834167 L-8.33333333e-05,20.0000833 L3.33325,20.0000833 L3.33325,17.5000833 L5.83325,17.5000833 L5.83325,15.0000833 L8.33325,15.0000833 L10.85825,12.8834167 C10.8415833,12.7584167 10.83325,12.6334167 10.83325,12.5000833 C10.83325,10.2000833 12.6999167,8.33341667 14.9999167,8.33341667 C16.6165833,8.33341667 18.0165833,9.25008333 18.70825,10.6000833 C18.85825,10.39175 18.9999167,10.1750833 19.1249167,9.95008333 C19.3165833,9.63341667 19.4665833,9.30841667 19.5915833,8.95841667 C19.6665833,8.77508333 19.7249167,8.58341667 19.7749167,8.38341667 C19.9249167,7.83341667 19.9999167,7.25841667 19.9999167,6.66675 L19.9999167,6.50841667 C19.9249167,3.39175 17.7165833,0.808416667 14.7749167,0.158416667" id="Fill-1" fill="#333333" mask="url(#mask-2)"></path>
        </g>
        <g id="icons-/-Error_Mark" transform="translate(0.000000, 12.000000)" opacity="0">
            <circle id="Oval" fill="#FFFFFF" fill-rule="nonzero" cx="4" cy="4" r="4"></circle>
            <path d="M4.00666043,0.66666822 C4.60923891,0.667230482 5.16978374,0.820408594 5.68831169,1.12620713 C6.1900347,1.42368891 6.5896311,1.82328531 6.88711289,2.32500833 C7.19347473,2.84449144 7.34665335,3.4050364 7.34665335,4.00666001 C7.34665335,4.60828362 7.19347473,5.16882857 6.88711289,5.68831169 C6.5896311,6.1900347 6.1900347,6.5896311 5.68831169,6.88711289 C5.16882857,7.19347473 4.60828362,7.34665335 4.00666001,7.34665335 C3.4050364,7.34665335 2.84449144,7.19347473 2.32500833,6.88711289 C1.82328531,6.5896311 1.42368891,6.1900347 1.12620713,5.68831169 C0.819845288,5.16882857 0.666666667,4.60828362 0.666666667,4.00666001 C0.666666667,3.4050364 0.819845288,2.84449144 1.12620713,2.32500833 C1.42368891,1.82328531 1.82328531,1.42368891 2.32500833,1.12620713 C2.84353627,0.820408594 3.4040811,0.667230482 4.00665958,0.66666822 L4.00666043,0.66666822 Z M4.00666043,0.66666822 C4.00555043,0.666667185 4.00444029,0.666666667 4.00333,0.666666667 L4.00999001,0.666666667 C4.00887973,0.666666667 4.00776958,0.666667185 4.00665958,0.66666822 L4.00666043,0.66666822 Z M4.34299034,5.67499167 L4.34299034,5.00899101 L3.67032967,5.00899101 L3.67032967,5.67499167 L4.34299034,5.67499167 Z M4.34299034,4.34299034 L4.34299034,2.33832834 L3.67032967,2.33832834 L3.67032967,4.34299034 L4.34299034,4.34299034 Z" id="" fill="#F83200"></path>
        </g>
    </g>
</svg>