<?xml version="1.0" encoding="UTF-8"?>
<svg width="20px" height="20px" viewBox="0 0 20 20" version="1.1" xmlns="http://www.w3.org/2000/svg" xmlns:xlink="http://www.w3.org/1999/xlink">
    <!-- Generator: Sketch 51.3 (57544) - http://www.bohemiancoding.com/sketch -->
    <title>icons / classes/ BMC_LDAPServer_32_Error</title>
    <desc>Created with Sketch.</desc>
    <defs>
        <polygon id="path-1" points="0 0 19.9998333 0 19.9998333 19.9998333 0 19.9998333"></polygon>
    </defs>
    <g id="icons-/-classes/-BMC_LDAPServer_32" stroke="none" stroke-width="1" fill="none" fill-rule="evenodd">
        <g transform="translate(0.000000, -0.050000)">
            <g id="icons-/-20x20-icon-field" transform="translate(0.000000, 0.050000)" fill="#F5A623" fill-rule="nonzero" opacity="0">
                <rect x="0" y="0" width="20" height="20"></rect>
            </g>
            <g id="Group-3" transform="translate(0.000000, 0.050000)">
                <mask id="mask-2" fill="white">
                    <use xlink:href="#path-1"></use>
                </mask>
                <g id="Clip-2"></g>
                <path d="M15.8748333,13.1998333 L16.4331667,13.1998333 C16.7998333,13.1998333 17.0673333,13.2748333 17.2423333,13.4165 C17.4173333,13.5498333 17.4998333,13.7665 17.4998333,14.0506667 C17.4998333,14.359 17.4081667,14.5915 17.209,14.7331667 C17.0165,14.884 16.7165,14.9506667 16.2998333,14.9506667 L15.8748333,14.9506667 L15.8748333,13.1998333 Z M15.8748333,15.6331667 L16.3831667,15.6331667 C17.0081667,15.6331667 17.4915,15.4998333 17.8248333,15.2248333 C18.1665,14.9415 18.3331667,14.5498333 18.3331667,14.0248333 C18.3331667,13.5331667 18.184,13.1581667 17.8748333,12.9006667 C17.5665,12.6498333 17.0998333,12.5165 16.4831667,12.5165 L15.0665,12.5165 L15.0665,17.4998333 L15.8748333,17.4998333 L15.8748333,15.6331667 Z M11.409,15.4165 L11.859,14.1173333 C11.9748333,13.7831667 12.0581667,13.4831667 12.1248333,13.1998333 C12.1423333,13.2915 12.1831667,13.4331667 12.2498333,13.634 C12.3081667,13.8248333 12.3506667,13.9665 12.384,14.0581667 L12.8498333,15.4165 L11.409,15.4165 Z M11.6831667,12.4998333 L9.8415,17.4998333 L10.6915,17.4998333 L11.1748333,16.1165 L13.0581667,16.1165 L13.5581667,17.4998333 L14.4081667,17.4998333 L12.5665,12.4998333 L11.6831667,12.4998333 Z M6.79983333,16.8165 L6.22483333,16.8165 L6.22483333,13.1998333 L6.92483333,13.1998333 C8.02483333,13.1998333 8.58316667,13.7998333 8.58316667,14.9915 C8.58316667,16.2081667 7.98316667,16.8165 6.79983333,16.8165 Z M6.9415,12.5165 L5.4165,12.5165 L5.4165,17.4998333 L6.79983333,17.4998333 C7.64983333,17.4998333 8.29983333,17.2831667 8.74983333,16.8498333 C9.20816667,16.4165 9.434,15.784 9.434,14.9665 C9.434,14.1915 9.2165,13.5831667 8.77483333,13.1581667 C8.3415,12.7331667 7.72483333,12.5165 6.9415,12.5165 Z M2.47483333,16.7998333 L4.56733333,16.7998333 L4.56733333,17.4998333 L1.6665,17.4998333 L1.6665,12.5165 L2.47483333,12.5165 L2.47483333,16.7998333 Z M0.833166667,19.1665 L19.1665,19.1665 L19.1665,10.8331667 L0.833166667,10.8331667 L0.833166667,19.1665 Z M4.1665,7.49983333 L10.8331667,7.49983333 L10.8331667,4.1665 L4.1665,4.1665 L4.1665,7.49983333 Z M14.9998333,9.99983333 L14.9998333,1.584 C14.9998333,0.708166667 14.2831667,-0.000166666667 13.3923333,-0.000166666667 L1.60816667,-0.000166666667 C0.717333333,-0.000166666667 -0.000166666667,0.708166667 -0.000166666667,1.584 L-0.000166666667,9.99983333 L-0.000166666667,19.9998333 L19.9998333,19.9998333 L19.9998333,9.99983333 L14.9998333,9.99983333 Z" id="Fill-1" fill="#333333" mask="url(#mask-2)"></path>
            </g>
            <g id="icons-/-Error_Mark" transform="translate(0.000000, 11.650000)">
                <ellipse id="Oval" fill="#FFFFFF" fill-rule="nonzero" cx="4" cy="4.2" rx="4" ry="4.2"></ellipse>
                <path d="M4.00666043,0.700001631 C4.60923891,0.700592006 5.16978374,0.861429024 5.68831169,1.18251748 C6.1900347,1.49487336 6.5896311,1.91444958 6.88711289,2.44125874 C7.19347473,2.98671601 7.34665335,3.57528822 7.34665335,4.20699301 C7.34665335,4.8386978 7.19347473,5.42727 6.88711289,5.97272727 C6.5896311,6.49953643 6.1900347,6.91911266 5.68831169,7.23146853 C5.16882857,7.55314846 4.60828362,7.71398601 4.00666001,7.71398601 C3.4050364,7.71398601 2.84449144,7.55314846 2.32500833,7.23146853 C1.82328531,6.91911266 1.42368891,6.49953643 1.12620713,5.97272727 C0.819845288,5.42727 0.666666667,4.8386978 0.666666667,4.20699301 C0.666666667,3.57528822 0.819845288,2.98671601 1.12620713,2.44125874 C1.42368891,1.91444958 1.82328531,1.49487336 2.32500833,1.18251748 C2.84353627,0.861429024 3.4040811,0.700592006 4.00665958,0.700001631 L4.00666043,0.700001631 Z M4.00666043,0.700001631 C4.00555043,0.700000544 4.00444029,0.7 4.00333,0.7 L4.00999001,0.7 C4.00887973,0.7 4.00776958,0.700000544 4.00665958,0.700001631 L4.00666043,0.700001631 Z M4.34299034,5.95874126 L4.34299034,5.25944056 L3.67032967,5.25944056 L3.67032967,5.95874126 L4.34299034,5.95874126 Z M4.34299034,4.56013986 L4.34299034,2.45524476 L3.67032967,2.45524476 L3.67032967,4.56013986 L4.34299034,4.56013986 Z" id="" fill="#F83200"></path>
            </g>
        </g>
    </g>
</svg>