<?xml version="1.0" encoding="UTF-8"?>
<svg width="20px" height="20px" viewBox="0 0 20 20" version="1.1" xmlns="http://www.w3.org/2000/svg" xmlns:xlink="http://www.w3.org/1999/xlink">
    <!-- Generator: Sketch 51.3 (57544) - http://www.bohemiancoding.com/sketch -->
    <title>icons / classes/ BMC_MFMessageServer_32_Error</title>
    <desc>Created with Sketch.</desc>
    <defs></defs>
    <g id="icons-/-classes/-BMC_MFMessageServer_32" stroke="none" stroke-width="1" fill="none" fill-rule="evenodd">
        <g>
            <g id="icons-/-20x20-icon-field" fill="#F5A623" fill-rule="nonzero" opacity="0">
                <rect x="0" y="0" width="20" height="20"></rect>
            </g>
            <path d="M18.75,9.58333333 L9.58333333,9.58333333 L9.58333333,15.8333333 L13.9,15.8333333 L16.5666667,18.1 L16.5666667,15.8333333 L18.75,15.8333333 L18.75,9.58333333 Z M20,9.79166667 L20,15.625 C20,16.1666667 19.7083333,16.6333333 19.2666667,16.8833333 C19.0583333,17.0083333 18.8,17.0833333 18.5416667,17.0833333 L17.8166667,17.0833333 L17.8166667,19.0666667 C17.8166667,19.6166667 17.4666667,20 17.0833333,20 C16.9416667,20 16.8083333,19.95 16.6833333,19.8416667 L13.4333333,17.0833333 L9.79166667,17.0833333 C8.98916667,17.0833333 8.33333333,16.4275 8.33333333,15.625 L8.33333333,9.79166667 C8.33333333,8.98916667 8.98916667,8.33333333 9.79166667,8.33333333 L15,8.33333333 L18.5416667,8.33333333 C19.3441667,8.33333333 20,8.98916667 20,9.79166667 Z M12.825,18.75 L14.1,19.8333333 C13.8833333,19.9416667 13.6416667,20 13.3916667,20 L1.60833333,20 C0.716666667,20 0,19.2916667 0,18.4166667 L0,1.58333333 C0,0.708333333 0.716666667,0 1.60833333,0 L13.3916667,0 C14.2833333,0 15,0.708333333 15,1.58333333 L15,6.66666667 L10.8333333,6.66666667 L10.8333333,4.16666667 L4.16666667,4.16666667 L4.16666667,7.5 L7.675,7.5 C7.05,8.06666667 6.66666667,8.88333333 6.66666667,9.79166667 L6.66666667,15.625 C6.66666667,17.3508333 8.06583333,18.75 9.79166667,18.75 L12.825,18.75 Z" id="Fill-1" fill="#333333"></path>
            <g id="icons-/-Error_Mark" transform="translate(0.000000, 12.000000)">
                <circle id="Oval" fill="#FFFFFF" fill-rule="nonzero" cx="4" cy="4" r="4"></circle>
                <path d="M4.00666043,0.66666822 C4.60923891,0.667230482 5.16978374,0.820408594 5.68831169,1.12620713 C6.1900347,1.42368891 6.5896311,1.82328531 6.88711289,2.32500833 C7.19347473,2.84449144 7.34665335,3.4050364 7.34665335,4.00666001 C7.34665335,4.60828362 7.19347473,5.16882857 6.88711289,5.68831169 C6.5896311,6.1900347 6.1900347,6.5896311 5.68831169,6.88711289 C5.16882857,7.19347473 4.60828362,7.34665335 4.00666001,7.34665335 C3.4050364,7.34665335 2.84449144,7.19347473 2.32500833,6.88711289 C1.82328531,6.5896311 1.42368891,6.1900347 1.12620713,5.68831169 C0.819845288,5.16882857 0.666666667,4.60828362 0.666666667,4.00666001 C0.666666667,3.4050364 0.819845288,2.84449144 1.12620713,2.32500833 C1.42368891,1.82328531 1.82328531,1.42368891 2.32500833,1.12620713 C2.84353627,0.820408594 3.4040811,0.667230482 4.00665958,0.66666822 L4.00666043,0.66666822 Z M4.00666043,0.66666822 C4.00555043,0.666667185 4.00444029,0.666666667 4.00333,0.666666667 L4.00999001,0.666666667 C4.00887973,0.666666667 4.00776958,0.666667185 4.00665958,0.66666822 L4.00666043,0.66666822 Z M4.34299034,5.67499167 L4.34299034,5.00899101 L3.67032967,5.00899101 L3.67032967,5.67499167 L4.34299034,5.67499167 Z M4.34299034,4.34299034 L4.34299034,2.33832834 L3.67032967,2.33832834 L3.67032967,4.34299034 L4.34299034,4.34299034 Z" id="" fill="#F83200"></path>
            </g>
        </g>
    </g>
</svg>