<?xml version="1.0" encoding="UTF-8"?>
<svg width="20px" height="20px" viewBox="0 0 20 20" version="1.1" xmlns="http://www.w3.org/2000/svg" xmlns:xlink="http://www.w3.org/1999/xlink">
    <!-- Generator: Sketch 51.3 (57544) - http://www.bohemiancoding.com/sketch -->
    <title>icons / classes/ BMC_DiskPartition_32</title>
    <desc>Created with Sketch.</desc>
    <defs>
        <polygon id="path-1" points="0 0 19.99975 0 19.99975 19.9998333 0 19.9998333"></polygon>
    </defs>
    <g id="icons-/-classes/-BMC_DiskPartition_32" stroke="none" stroke-width="1" fill="none" fill-rule="evenodd">
        <g id="icons-/-classes/-Disk-Partition" fill="#F5A623" fill-rule="nonzero" opacity="0">
            <g id="icons-/-20x20-icon-field">
                <rect x="0" y="0" width="20" height="20"></rect>
            </g>
        </g>
        <g id="Group-3">
            <mask id="mask-2" fill="white">
                <use xlink:href="#path-1"></use>
            </mask>
            <g id="Clip-2"></g>
            <path d="M19.7330833,12.3331667 C19.4580833,11.4665 18.9739167,10.6831667 18.3489167,10.0498333 C17.4314167,9.1165 16.1964167,8.49983333 14.8205833,8.34983333 L14.8205833,8.37483333 L14.8205833,10.9081667 C16.1555833,11.1665 17.1980833,12.1998333 17.46475,13.5248333 L17.56475,13.5248333 L19.37475,13.5248333 L19.9755833,13.5248333 L19.99975,13.5248333 C19.9589167,13.1165 19.8664167,12.7248333 19.7414167,12.3498333 C19.7414167,12.3415 19.7414167,12.3415 19.7330833,12.3331667 Z M18.80725,14.7748333 L17.4730833,14.7748333 C17.3980833,15.2331667 17.21475,15.6665 16.97225,16.0331667 L17.5314167,16.5998333 L18.73225,17.7998333 L18.7405833,17.8081667 C18.78225,17.7581667 18.8239167,17.7081667 18.85725,17.6498333 C18.9405833,17.5581667 19.00725,17.4498333 19.0655833,17.3498333 C19.1489167,17.2248333 19.22475,17.0998333 19.2989167,16.9748333 C19.34975,16.8831667 19.39975,16.7998333 19.4414167,16.7081667 C19.4830833,16.6248333 19.52475,16.5331667 19.5580833,16.4415 C19.6330833,16.2665 19.69975,16.0831667 19.7580833,15.8998333 C19.8080833,15.7165 19.8580833,15.5331667 19.89975,15.3415 C19.9164167,15.2498333 19.9330833,15.1581667 19.94975,15.0581667 C19.9664167,14.9665 19.9830833,14.8665 19.9914167,14.7748333 L19.9830833,14.7748333 L18.80725,14.7748333 Z M16.0880833,16.9248333 C15.5464167,17.2998333 14.8955833,17.5165 14.19475,17.5165 C14.0205833,17.5165 13.8530833,17.4998333 13.6864167,17.4748333 C12.08475,17.2331667 10.8589167,15.8498333 10.8589167,14.1831667 C10.8589167,14.1498333 10.8589167,14.1165 10.86725,14.0831667 C10.8755833,13.5581667 11.0089167,13.0748333 11.23475,12.6415 L11.2430833,12.6415 C11.5514167,12.0415 12.0514167,11.5415 12.65225,11.2248333 C12.9355833,11.0748333 13.2439167,10.9665 13.56975,10.9081667 L13.56975,8.3665 L13.56975,8.34983333 C13.2105833,8.38316667 12.8689167,8.45816667 12.5355833,8.54983333 C12.42725,8.58316667 12.3189167,8.62483333 12.2180833,8.6665 C12.1605833,8.67483333 12.1105833,8.69983333 12.05975,8.72483333 C12.00975,8.74983333 11.95975,8.7665 11.9014167,8.7915 C11.7264167,8.8665 11.55975,8.94983333 11.3930833,9.03316667 C11.38475,9.03316667 11.3764167,9.03316667 11.3764167,9.0415 C10.9839167,9.25816667 10.61725,9.5165 10.2914167,9.8165 C10.2414167,9.85816667 10.1914167,9.90816667 10.1414167,9.94983333 C9.97558333,10.1165 9.81641667,10.2831667 9.67475,10.4665 C9.59975,10.5498333 9.53308333,10.6331667 9.46641667,10.7248333 C9.45808333,10.7415 9.44141667,10.7581667 9.43308333,10.7748333 C9.38308333,10.8415 9.33308333,10.9165 9.29141667,10.9831667 C9.25808333,11.0331667 9.22475,11.0831667 9.19891667,11.1248333 C9.14891667,11.2081667 9.09891667,11.2831667 9.04891667,11.3665 C9.02391667,11.4165 8.99891667,11.4748333 8.97391667,11.5248333 C8.89891667,11.6831667 8.82391667,11.8498333 8.75725,12.0165 C8.69058333,12.1748333 8.63225,12.3498333 8.58225,12.5165 C8.58225,12.5248333 8.57391667,12.5331667 8.57391667,12.5331667 L8.57391667,12.5415 C8.44891667,12.9581667 8.37391667,13.3831667 8.35725,13.8331667 C8.34058333,13.9415 8.34058333,14.0581667 8.34058333,14.1665 C8.34058333,15.7998333 9.00725,17.2748333 10.0914167,18.3331667 C10.7255833,18.9581667 11.5014167,19.4331667 12.37725,19.7165 C12.94475,19.8998333 13.54475,19.9998333 14.1780833,19.9998333 C14.7039167,19.9998333 15.2205833,19.9331667 15.70475,19.7915 C15.8630833,19.7415 16.0214167,19.6998333 16.17225,19.6415 C16.3305833,19.5831667 16.4805833,19.5248333 16.62225,19.4581667 C16.77225,19.3915 16.9139167,19.3165 17.0564167,19.2331667 C17.3389167,19.0748333 17.6064167,18.8915 17.8564167,18.6915 L16.64725,17.4831667 L16.0880833,16.9248333 Z M7.74808333,18.0165 C4.24558333,17.0331667 1.66808333,13.8081667 1.66808333,9.99983333 C1.66808333,5.40816667 5.41308333,1.6665 10.0089167,1.6665 C13.81975,1.6665 17.04725,4.2415 18.0314167,7.7415 C18.78225,8.18316667 19.44975,8.7665 19.99975,9.4415 C19.7164167,4.17483333 15.35475,-0.000166666667 10.0089167,-0.000166666667 C4.47891667,-0.000166666667 -0.00025,4.47483333 -0.00025,9.99983333 C-0.00025,15.3415 4.17808333,19.6998333 9.44975,19.9831667 C8.77391667,19.4331667 8.18975,18.7665 7.74808333,18.0165 Z M7.08975,9.99983333 C7.08975,10.3998333 7.17225,10.7748333 7.32308333,11.1248333 L7.32308333,11.1331667 C7.09725,11.6248333 6.93058333,12.1415 6.81391667,12.6831667 C6.20558333,11.9581667 5.83808333,11.0248333 5.83808333,9.99983333 C5.83808333,7.69983333 7.70641667,5.83316667 10.0089167,5.83316667 C11.03475,5.83316667 11.9680833,6.19983333 12.6939167,6.80816667 C12.1514167,6.92483333 11.63475,7.0915 11.14225,7.3165 L11.13475,7.3165 C10.7839167,7.1665 10.4089167,7.08316667 10.0089167,7.08316667 C8.39891667,7.08316667 7.08975,8.3915 7.08975,9.99983333 Z" id="Fill-1" fill="#333333" mask="url(#mask-2)"></path>
        </g>
        <g id="icons-/-Error_Mark" transform="translate(0.000000, 12.000000)" opacity="0">
            <circle id="Oval" fill="#FFFFFF" fill-rule="nonzero" cx="4" cy="4" r="4"></circle>
            <path d="M4.00666043,0.66666822 C4.60923891,0.667230482 5.16978374,0.820408594 5.68831169,1.12620713 C6.1900347,1.42368891 6.5896311,1.82328531 6.88711289,2.32500833 C7.19347473,2.84449144 7.34665335,3.4050364 7.34665335,4.00666001 C7.34665335,4.60828362 7.19347473,5.16882857 6.88711289,5.68831169 C6.5896311,6.1900347 6.1900347,6.5896311 5.68831169,6.88711289 C5.16882857,7.19347473 4.60828362,7.34665335 4.00666001,7.34665335 C3.4050364,7.34665335 2.84449144,7.19347473 2.32500833,6.88711289 C1.82328531,6.5896311 1.42368891,6.1900347 1.12620713,5.68831169 C0.819845288,5.16882857 0.666666667,4.60828362 0.666666667,4.00666001 C0.666666667,3.4050364 0.819845288,2.84449144 1.12620713,2.32500833 C1.42368891,1.82328531 1.82328531,1.42368891 2.32500833,1.12620713 C2.84353627,0.820408594 3.4040811,0.667230482 4.00665958,0.66666822 L4.00666043,0.66666822 Z M4.00666043,0.66666822 C4.00555043,0.666667185 4.00444029,0.666666667 4.00333,0.666666667 L4.00999001,0.666666667 C4.00887973,0.666666667 4.00776958,0.666667185 4.00665958,0.66666822 L4.00666043,0.66666822 Z M4.34299034,5.67499167 L4.34299034,5.00899101 L3.67032967,5.00899101 L3.67032967,5.67499167 L4.34299034,5.67499167 Z M4.34299034,4.34299034 L4.34299034,2.33832834 L3.67032967,2.33832834 L3.67032967,4.34299034 L4.34299034,4.34299034 Z" id="" fill="#F83200"></path>
        </g>
    </g>
</svg>