<?xml version="1.0" encoding="UTF-8"?>
<svg width="20px" height="20px" viewBox="0 0 20 20" version="1.1" xmlns="http://www.w3.org/2000/svg" xmlns:xlink="http://www.w3.org/1999/xlink">
    <!-- Generator: Sketch 51.3 (57544) - http://www.bohemiancoding.com/sketch -->
    <title>icons / classes/ BMC_UPS_32_Error</title>
    <desc>Created with Sketch.</desc>
    <defs></defs>
    <g id="icons-/-classes/-BMC_UPS_32" stroke="none" stroke-width="1" fill="none" fill-rule="evenodd">
        <g id="icons-/-classes/-UPS">
            <g id="icons-/-20x20-icon-field" fill="#F5A623" fill-rule="nonzero" opacity="0">
                <rect x="0" y="0" width="20" height="20"></rect>
            </g>
            <path d="M18.2267732,2.18981019 C18.4425585,2.18981019 18.6253739,2.26173754 18.7752248,2.40559441 C18.9250757,2.54945127 19,2.7352636 19,2.96303696 L19,6.66733267 C19,6.87112989 18.9280726,7.05094827 18.7842158,7.20679321 C18.6403589,7.36263814 18.4545466,7.44055944 18.2267732,7.44055944 L5.90909091,7.44055944 L5.90909091,7.51248751 L5.94505495,7.62037962 L6.01698302,7.76423576 L6.23276723,7.998002 C6.25674338,8.02197814 6.28671311,8.04595393 6.32267732,8.06993007 L6.46653347,8.14185814 L6.62837163,8.21378621 C6.66433584,8.22577429 6.70029952,8.23176823 6.73626374,8.23176823 L13.2457542,8.3036963 L13.4975025,8.32167832 L13.7312687,8.39360639 C13.8031972,8.41758254 13.8811185,8.44755227 13.965035,8.48351648 L14.1808192,8.60939061 C14.2647357,8.6573429 14.336663,8.69930052 14.3966034,8.73526474 L14.7742258,9.05894106 L15.0799201,9.43656344 C15.1398604,9.50849187 15.1818181,9.57742225 15.2057942,9.64335664 C15.2297703,9.70929104 15.2627371,9.77822142 15.3046953,9.85014985 C15.3466536,9.92207828 15.3796203,9.99999958 15.4035964,10.0839161 C15.4155845,10.1318684 15.4335663,10.2097897 15.4575425,10.3176823 C15.4575425,10.3656346 15.4635364,10.4435559 15.4755245,10.5514486 L15.4935065,10.8211788 C15.4935065,10.8811192 15.4875125,10.9650344 15.4755245,11.0729271 L15.4395604,11.3246753 L15.3856144,11.5584416 C15.3616382,11.63037 15.3316685,11.7022973 15.2957043,11.7742258 L15.1878122,11.99001 C15.1398599,12.0739265 15.0919083,12.1458538 15.043956,12.2057942 L14.9000999,12.4035964 C14.8401595,12.4755248 14.7802201,12.5414582 14.7202797,12.6013986 L14.3246753,12.9250749 C14.2407588,12.9730272 14.1688315,13.0149848 14.1088911,13.0509491 L13.9110889,13.1408591 C13.8511486,13.1648353 13.7732273,13.194805 13.6773227,13.2307692 L13.4975025,13.2667333 L13.1918082,13.3206793 C13.1318678,13.3326674 13.0479526,13.3386613 12.9400599,13.3386613 L4.92007992,13.3386613 C4.87212763,13.3506494 4.8421579,13.3626373 4.83016983,13.3746254 L4.56043956,13.5184815 L4.3986014,13.6623377 C4.38661333,13.6743257 4.37462543,13.7042955 4.36263736,13.7522478 L4.29070929,13.8241758 L4.25474525,13.9140859 L4.18281718,14.1118881 L4.18281718,14.4895105 L4.25474525,14.6693307 L4.34465534,14.8491508 C4.36863149,14.8851151 4.3896103,14.9150848 4.40759241,14.9390609 C4.42557452,14.9630371 4.44655333,14.9930068 4.47052947,15.028971 L4.54245754,15.1008991 C4.55444561,15.1248752 4.58441534,15.1428571 4.63236763,15.1548452 L4.7042957,15.2087912 L4.75824176,15.2447552 L5.06393606,15.3526474 L5.15384615,15.3526474 L7.97702298,15.3706294 C8.02497526,15.310689 8.10289656,15.2327677 8.21078921,15.1368631 C8.27072957,15.0649347 8.37262665,14.9930074 8.51648352,14.9210789 C8.74425688,14.7892101 8.99000867,14.693307 9.25374625,14.6333666 C9.51748384,14.5734263 9.80519325,14.5434565 10.1168831,14.5434565 L12.4005994,14.5794206 L12.3826174,14.9390609 L13.5334665,14.957043 L13.5154845,15.4965035 L15.1698302,15.5144855 C15.2057944,15.5144855 15.2357641,15.5264734 15.2597403,15.5504496 L15.3316683,15.6043956 L15.4035964,15.6763237 C15.4155845,15.7122879 15.4215784,15.7362637 15.4215784,15.7482517 L15.4215784,16.0719281 C15.4215784,16.0959042 15.4095905,16.11988 15.3856144,16.1438561 L15.3316683,16.2337662 L15.2597403,16.2697303 C15.2357641,16.2937064 15.2057944,16.3056943 15.1698302,16.3056943 L13.5154845,16.2877123 L13.4975025,16.8631369 L12.3646354,16.8451548 L12.3646354,17.2047952 L10.1168831,17.1868132 C9.80519325,17.1868132 9.51448686,17.1538465 9.24475524,17.0879121 C8.97502363,17.0219777 8.72627487,16.9230776 8.4985015,16.7912088 C8.36663271,16.7072923 8.25274773,16.6203801 8.15684316,16.5304695 C8.06093858,16.440559 7.98901123,16.3356649 7.94105894,16.2157842 L5.15384615,16.1978022 C5.10589387,16.1978022 5.04595441,16.1948052 4.97402597,16.1888112 C4.90209754,16.1828172 4.83616414,16.1798202 4.77622378,16.1798202 C4.69230727,16.155844 4.63836176,16.1378622 4.61438561,16.1258741 L4.29070929,15.982018 C4.26673315,15.9700299 4.22477552,15.9460541 4.16483516,15.9100899 L3.98501499,15.7662338 C3.9370627,15.7302696 3.90109902,15.6883119 3.87712288,15.6403596 C3.82917059,15.6043954 3.77522507,15.5564439 3.71528472,15.4965035 L3.71528472,15.4785215 C3.6793205,15.4425573 3.64335682,15.3946057 3.60739261,15.3346653 L3.44555445,15.010989 C3.4215783,14.9870129 3.40359646,14.9390613 3.39160839,14.8671329 L3.33766234,14.6693307 C3.32567427,14.6213784 3.31968032,14.555445 3.31968032,14.4715285 L3.31968032,14.1118881 C3.31968032,14.0639358 3.32567427,14.0039964 3.33766234,13.9320679 L3.37362637,13.7342657 C3.39760252,13.6863134 3.42757225,13.6323679 3.46353646,13.5724276 L3.46353646,13.5544456 C3.48751261,13.4945052 3.50549445,13.4525476 3.51748252,13.4285714 L3.53546454,13.4105894 C3.57142875,13.338661 3.60139848,13.2907094 3.62537463,13.2667333 L3.73326673,13.1228771 L3.99400599,12.8621379 C4.03596425,12.8201796 4.08691279,12.781219 4.14685315,12.7452547 C4.18281736,12.7212786 4.23676288,12.6913089 4.30869131,12.6553447 L4.47052947,12.5654346 C4.50649369,12.5534465 4.55444525,12.5354647 4.61438561,12.5114885 L4.83016983,12.4575425 C4.87812212,12.4575425 4.94405552,12.4515485 5.02797203,12.4395604 L5.22577423,12.4215784 L5.22577423,12.4395604 L12.9400599,12.4935065 L13.1198801,12.4935065 C13.1918086,12.4815184 13.2397601,12.4695305 13.2637363,12.4575425 L13.5874126,12.3676324 L13.8751249,12.2417582 L14.000999,12.1338661 C14.0489513,12.10989 14.084915,12.0739263 14.1088911,12.025974 L14.2347652,11.9180819 C14.2827175,11.8701296 14.3186812,11.8221781 14.3426573,11.7742258 L14.4145854,11.6303696 L14.4685315,11.4865135 C14.5044957,11.4505493 14.5344654,11.4025977 14.5584416,11.3426573 L14.5944056,11.1808192 C14.6063937,11.156843 14.6183816,11.1088915 14.6303696,11.036963 L14.6303696,10.6953047 L14.5224775,10.2097902 L14.4505495,10.0839161 L14.2707293,9.81418581 C14.2347651,9.75424545 14.1988014,9.71228783 14.1628372,9.68831169 C14.1028968,9.62837133 14.0609392,9.59240765 14.036963,9.58041958 L13.8931069,9.47252747 L13.6413586,9.31068931 L13.3356643,9.22077922 C13.2997001,9.20879115 13.2457546,9.19680326 13.1738262,9.18481518 L13.011988,9.18481518 L6.84415584,9.13086913 C6.80819163,9.11888106 6.74825217,9.10689317 6.66433566,9.09490509 C6.58041916,9.08291702 6.51448575,9.07092913 6.46653347,9.05894106 L6.3046953,9.02297702 C6.23276687,8.99900088 6.17282741,8.98101904 6.12487512,8.96903097 L5.96303696,8.87912088 C5.9030966,8.83116859 5.85514503,8.79520492 5.81918082,8.77122877 L5.69330669,8.66333666 C5.65734248,8.65134859 5.6213788,8.62137886 5.58541459,8.57342657 L5.40559441,8.37562438 C5.36963019,8.33966016 5.33366651,8.29170859 5.2977023,8.23176823 L5.18981019,8.08791209 L5.0999001,7.90809191 L5.04595405,7.71028971 C5.03396597,7.63836128 5.02197808,7.58441576 5.00999001,7.54845155 C4.99800194,7.54845155 4.99500497,7.53646366 5.000999,7.51248751 C5.00699304,7.48851137 5.00999001,7.46453558 5.00999001,7.44055944 L1.75524476,7.44055944 C1.55144753,7.44055944 1.37162915,7.36563511 1.21578422,7.21578422 C1.05993928,7.06593332 0.982017982,6.88311796 0.982017982,6.66733267 L0.982017982,2.96303696 C0.982017982,2.75923974 1.05694231,2.57942136 1.20679321,2.42357642 C1.35664411,2.26773149 1.53945946,2.18981019 1.75524476,2.18981019 L18.2267732,2.18981019 Z M14.2347652,4.04195804 L12.004995,4.04195804 L12.004995,5.60639361 L14.2347652,5.60639361 L14.2347652,4.04195804 Z M17.4715285,4.04195804 L15.2237762,4.04195804 L15.2237762,5.60639361 L17.4715285,5.60639361 L17.4715285,4.04195804 Z" id="" fill="#2B2826"></path>
        </g>
        <g id="icons-/-Error_Mark" transform="translate(0.000000, 12.000000)">
            <circle id="Oval" fill="#FFFFFF" fill-rule="nonzero" cx="4" cy="4" r="4"></circle>
            <path d="M4.00666043,0.66666822 C4.60923891,0.667230482 5.16978374,0.820408594 5.68831169,1.12620713 C6.1900347,1.42368891 6.5896311,1.82328531 6.88711289,2.32500833 C7.19347473,2.84449144 7.34665335,3.4050364 7.34665335,4.00666001 C7.34665335,4.60828362 7.19347473,5.16882857 6.88711289,5.68831169 C6.5896311,6.1900347 6.1900347,6.5896311 5.68831169,6.88711289 C5.16882857,7.19347473 4.60828362,7.34665335 4.00666001,7.34665335 C3.4050364,7.34665335 2.84449144,7.19347473 2.32500833,6.88711289 C1.82328531,6.5896311 1.42368891,6.1900347 1.12620713,5.68831169 C0.819845288,5.16882857 0.666666667,4.60828362 0.666666667,4.00666001 C0.666666667,3.4050364 0.819845288,2.84449144 1.12620713,2.32500833 C1.42368891,1.82328531 1.82328531,1.42368891 2.32500833,1.12620713 C2.84353627,0.820408594 3.4040811,0.667230482 4.00665958,0.66666822 L4.00666043,0.66666822 Z M4.00666043,0.66666822 C4.00555043,0.666667185 4.00444029,0.666666667 4.00333,0.666666667 L4.00999001,0.666666667 C4.00887973,0.666666667 4.00776958,0.666667185 4.00665958,0.66666822 L4.00666043,0.66666822 Z M4.34299034,5.67499167 L4.34299034,5.00899101 L3.67032967,5.00899101 L3.67032967,5.67499167 L4.34299034,5.67499167 Z M4.34299034,4.34299034 L4.34299034,2.33832834 L3.67032967,2.33832834 L3.67032967,4.34299034 L4.34299034,4.34299034 Z" id="" fill="#F83200"></path>
        </g>
    </g>
</svg>