<?xml version="1.0" encoding="UTF-8"?>
<svg width="20px" height="20px" viewBox="0 0 20 20" version="1.1" xmlns="http://www.w3.org/2000/svg" xmlns:xlink="http://www.w3.org/1999/xlink">
    <!-- Generator: Sketch 51.3 (57544) - http://www.bohemiancoding.com/sketch -->
    <title>icons / classes/ BMC_AdministrationApplication_BPM_32_Error</title>
    <desc>Created with Sketch.</desc>
    <defs></defs>
    <g id="icons-/-classes/-BMC_AdministrationApplication_BPM_32" stroke="none" stroke-width="1" fill="none" fill-rule="evenodd">
        <g>
            <g id="icons-/-20x20-icon-field" fill="#F5A623" fill-rule="nonzero" opacity="0">
                <rect x="0" y="0" width="20" height="20"></rect>
            </g>
            <path d="M19.4610778,11.665005 L17.8443114,11.665005 C17.7112435,11.665005 17.574851,11.7148549 17.4351297,11.8145563 C17.2954085,11.9142577 17.205589,12.0305743 17.1656687,12.1635095 L16.6067864,13.5194417 C16.5402525,13.6523769 16.5202926,13.8019267 16.5469062,13.9680957 C16.5735198,14.1342647 16.6400527,14.2638746 16.746507,14.3569292 L17.9041916,15.5134596 C17.9973391,15.6198078 18.0439122,15.7460943 18.0439122,15.892323 C18.0439122,16.0385517 17.9973391,16.1648383 17.9041916,16.2711864 L16.2874251,17.8664008 C16.1809709,17.972749 16.0545583,18.0259222 15.9081836,18.0259222 C15.761809,18.0259222 15.6353964,17.972749 15.5289421,17.8664008 L14.3712575,16.7098704 C14.2648032,16.6168158 14.1317373,16.5569958 13.9720559,16.5304088 C13.8123745,16.5038217 13.666002,16.5237617 13.5329341,16.5902293 L12.1756487,17.1485543 C12.0425808,17.1884349 11.9261482,17.2748415 11.8263473,17.4077767 C11.7265464,17.5407119 11.6766467,17.6802917 11.6766467,17.8265204 L11.6766467,19.4815553 C11.6766467,19.6144905 11.626747,19.7341304 11.5269461,19.8404786 C11.4271452,19.9468267 11.3040593,20 11.1576846,20 L8.86227545,20 C8.7159008,20 8.59281487,19.9468267 8.49301397,19.8404786 C8.39321307,19.7341304 8.34331337,19.6144905 8.34331337,19.4815553 L8.34331337,17.8265204 C8.34331337,17.6935852 8.29341367,17.5573287 8.19361277,17.4177468 C8.09381188,17.2781648 7.97072595,17.1884349 7.8243513,17.1485543 L6.46706587,16.5902293 C6.34730479,16.5237617 6.20425898,16.5038217 6.03792415,16.5304088 C5.87158932,16.5569958 5.73519681,16.6168158 5.62874251,16.7098704 L4.47105788,17.8664008 C4.36460359,17.972749 4.23819102,18.0259222 4.09181637,18.0259222 C3.94544172,18.0259222 3.82568244,17.972749 3.73253493,17.8664008 L2.11576846,16.2711864 C2.02262096,16.1648383 1.9760479,16.0385517 1.9760479,15.892323 C1.9760479,15.7460943 2.02262096,15.6198078 2.11576846,15.5134596 L3.27345309,14.3569292 C3.37990739,14.2505811 3.44311367,14.1176479 3.46307385,13.9581256 C3.48303403,13.7986034 3.4597475,13.6523769 3.39321357,13.5194417 L2.83433134,12.1635095 C2.79441098,12.0172808 2.70791816,11.8976409 2.5748503,11.8045862 C2.44178244,11.7115316 2.30206327,11.665005 2.15568862,11.665005 L0.518962076,11.665005 C0.372587425,11.665005 0.249501497,11.615155 0.149700599,11.5154536 C0.0498997006,11.4157522 0,11.2861424 0,11.1266201 L0,8.85343968 C0,8.70721097 0.0498997006,8.58424776 0.149700599,8.48454636 C0.249501497,8.38484497 0.372587425,8.33499501 0.518962076,8.33499501 L2.15568862,8.33499501 C2.30206327,8.33499501 2.44178244,8.28514506 2.5748503,8.18544367 C2.70791816,8.08574227 2.79441098,7.96277906 2.83433134,7.81655035 L3.39321357,6.48055833 C3.4597475,6.34762313 3.48303403,6.19807328 3.46307385,6.03190429 C3.44311367,5.86573529 3.37990739,5.73612542 3.27345309,5.64307079 L2.11576846,4.48654038 C2.02262096,4.38019222 1.9760479,4.25390568 1.9760479,4.10767697 C1.9760479,3.96144826 2.02262096,3.83516171 2.11576846,3.72881356 L3.73253493,2.11365902 C3.83898922,2.02060439 3.9654018,1.97407777 4.11177645,1.97407777 C4.2581511,1.97407777 4.37791038,2.02060439 4.47105788,2.11365902 L5.62874251,3.27018943 C5.73519681,3.37653759 5.87158932,3.44300419 6.03792415,3.46959123 C6.20425898,3.49617827 6.34730479,3.47623829 6.46706587,3.40977069 L7.8243513,2.85144566 C7.97072595,2.8115651 8.09048523,2.72515852 8.18363273,2.59222333 C8.27678024,2.45928814 8.32335329,2.31970828 8.32335329,2.17347956 L8.32335329,0.518444666 C8.32335329,0.372215952 8.37657964,0.249252742 8.48303393,0.149551346 C8.58948822,0.0498499501 8.7159008,0 8.86227545,0 L11.1377246,0 C11.2840992,0 11.4071851,0.0498499501 11.506986,0.149551346 C11.6067869,0.249252742 11.6566866,0.372215952 11.6566866,0.518444666 L11.6566866,2.15353938 C11.6566866,2.2997681 11.7065863,2.43934796 11.8063872,2.57228315 C11.9061881,2.70521834 12.0292741,2.79162493 12.1756487,2.83150548 L13.5129741,3.38983051 C13.6460419,3.45629811 13.795741,3.47956142 13.9620758,3.45962114 C14.1284107,3.43968086 14.2581499,3.37653759 14.3512974,3.27018943 L15.508982,2.11365902 C15.6154363,2.00731087 15.7418489,1.95413759 15.8882236,1.95413759 C16.0345982,1.95413759 16.1610108,2.00731087 16.2674651,2.11365902 L17.8842315,3.72881356 C17.977379,3.83516171 18.0239521,3.96144826 18.0239521,4.10767697 C18.0239521,4.25390568 17.977379,4.37354556 17.8842315,4.4666002 L16.7265469,5.62313061 C16.6200926,5.72947876 16.5535597,5.86573529 16.5269461,6.03190429 C16.5003325,6.19807328 16.5202924,6.34097647 16.5868263,6.46061815 L17.1457086,7.81655035 C17.1856289,7.96277906 17.2754484,8.08574227 17.4151697,8.18544367 C17.5548909,8.28514506 17.6912834,8.33499501 17.8243513,8.33499501 L19.4610778,8.33499501 C19.6074525,8.33499501 19.7338651,8.38484497 19.8403194,8.48454636 C19.9467737,8.58424776 20,8.70721097 20,8.85343968 L20,11.1266201 C20,11.2728489 19.9467737,11.3991354 19.8403194,11.5054835 C19.7338651,11.6118317 19.6074525,11.665005 19.4610778,11.665005 Z M9.78443114,16.0618146 C10.8639268,16.0618146 11.8629188,15.7922137 12.7814371,15.253004 C13.6999554,14.7137943 14.424343,13.9853991 14.9546216,13.0677966 C15.4849002,12.1501941 15.7500355,11.1474683 15.7500355,10.059589 C15.7500355,8.97170975 15.4849002,7.96898391 14.9546216,7.0513814 C14.424343,6.1337789 13.6999554,5.41011355 12.7814371,4.88036365 C11.8629188,4.35061375 10.8591923,4.08574277 9.77022732,4.08574277 C8.68126235,4.08574277 7.67753579,4.35061375 6.75901751,4.88036365 C5.84049923,5.41011355 5.11611167,6.1337789 4.58583307,7.0513814 C4.05555448,7.96898391 3.79041916,8.97170975 3.79041916,10.059589 C3.79041916,11.1474683 4.05555448,12.1501941 4.58583307,13.0677966 C5.11611167,13.9853991 5.84049923,14.7137943 6.75901751,15.253004 C7.67753579,15.7922137 8.68599691,16.0618146 9.78443114,16.0618146 Z" id="" fill="#2B2826"></path>
            <path d="M4.47252747,10.8351648 C4.60439626,10.9670336 4.78021868,11.1172153 5,11.2857143 C4.91208747,11.564104 4.84615407,11.8131857 4.8021978,12.032967 C4.75091549,12.2820525 4.70695989,12.5311343 4.67032967,12.7802198 C4.4578744,12.4065915 4.29487236,12.0146541 4.18131868,11.6043956 C4.067765,11.1941371 4.00366308,10.769233 3.98901099,10.3296703 C4.17948813,10.5347996 4.34065868,10.703296 4.47252747,10.8351648 Z M4.35164835,8.20879121 C4.36630044,8.50183297 4.39926714,8.81684813 4.45054945,9.15384615 C4.50183176,9.46154 4.57142813,9.76556626 4.65934066,10.0659341 C4.57142813,9.98534758 4.47252802,9.87912154 4.36263736,9.74725275 C4.27472484,9.65201418 4.17216176,9.5274733 4.05494505,9.37362637 C4.08424923,9.17582319 4.12271038,8.97802297 4.17032967,8.78021978 C4.21794896,8.58241659 4.27838791,8.39194231 4.35164835,8.20879121 Z M4.91590851,7.1044776 L5.04395604,6.92307692 L5.04395604,6.98901099 C5.02930396,7.01098912 5.02197802,7.02564099 5.02197802,7.03296703 C5.00732593,7.05494516 4.9890111,7.06776555 4.96703297,7.07142857 C4.94692534,7.07477984 4.92988399,7.08579609 4.91590851,7.1044776 Z M4.91590851,7.1044776 L4.91208791,7.10989011 C4.91333491,7.10801961 4.91460845,7.10621544 4.91590851,7.1044776 Z M4.91794881,7.10158718 L4.91208791,7.10989011 C4.91404155,7.10695966 4.91599518,7.10419201 4.91794881,7.10158718 Z M4.91794881,7.10158718 C4.93064722,7.08465597 4.9433455,7.07460318 4.95604396,7.07142857 C4.97069604,7.06776555 4.98901088,7.05860813 5.01098901,7.04395604 L5.02197802,7.03296703 L5.03296703,7 C5.04029308,6.98534791 5.04395604,6.95970714 5.04395604,6.92307692 L4.91794881,7.10158718 Z M4.91794881,7.10158718 L4.91208791,7.10989011 C4.91404155,7.10695966 4.91599518,7.10419201 4.91794881,7.10158718 Z M4.91794881,7.10158718 C4.93064722,7.08465597 4.9433455,7.07460318 4.95604396,7.07142857 C4.97069604,7.06776555 4.98901088,7.05860813 5.01098901,7.04395604 L5.02197802,7.03296703 L5.03296703,7 C5.04029308,6.98534791 5.04395604,6.95970714 5.04395604,6.92307692 L4.91794881,7.10158718 Z M5.12941553,11.3981924 L5.14285714,11.4065934 L5.13186813,11.4065934 C5.13106169,11.4037709 5.13024416,11.4009705 5.12941553,11.3981924 Z M5.12941553,11.3981924 L5.14285714,11.4065934 L5.13186813,11.4065934 C5.13106169,11.4037709 5.13024416,11.4009705 5.12941553,11.3981924 Z M6.79120879,6.38461538 C7.39927044,6.23809451 8.02197484,6.16483516 8.65934066,6.16483516 L8.95604396,6.17582418 L9.2967033,6.18681319 C8.85714066,6.40659451 8.44505687,6.65750775 8.06043956,6.93956044 C7.67582225,7.22161313 7.32051445,7.53479681 6.99450549,7.87912088 C6.66849654,8.22344495 6.37362769,8.58974165 6.10989011,8.97802198 C5.84615253,9.36630231 5.60805967,9.79486945 5.3956044,10.2637363 C5.2637356,9.86080385 5.16483549,9.45421451 5.0989011,9.04395604 C5.0329667,8.63369758 5,8.21611934 5,7.79120879 C5,7.65201396 5.00366297,7.52381011 5.01098901,7.40659341 L5.03296703,7.04395604 C5.59707242,6.74358824 6.18314714,6.52381022 6.79120879,6.38461538 Z M5,11.2857143 L5,11.2637363 L5.02197802,11.2307692 L5.02197802,11.1868132 C5.02930407,11.1721611 5.03663,11.1648352 5.04395604,11.1648352 C5.05128209,11.2014654 5.06227099,11.2380951 5.07692308,11.2747253 L5.14285714,11.4065934 C5.11355297,11.3919413 5.0879122,11.3736265 5.06593407,11.3516484 L5,11.2857143 Z M5.47252747,12.043956 C5.70696088,12.4615405 5.96703154,12.8479836 6.25274725,13.2032967 C6.53846297,13.5586098 6.84981516,13.8882769 7.18681319,14.1923077 C7.52381121,14.4963385 7.88461346,14.7692296 8.26923077,15.010989 C8.65384808,15.2527485 9.0622689,15.4652005 9.49450549,15.6483516 C9.07692099,15.6483516 8.66850016,15.604396 8.26923077,15.5164835 C7.86996137,15.428571 7.48351835,15.2967042 7.10989011,15.1208791 C6.75091396,14.9450541 6.41758396,14.7362649 6.10989011,14.4945055 C5.80219626,14.252746 5.5201478,13.9780235 5.26373626,13.6703297 C5.26373626,13.384614 5.2820511,13.1025655 5.31868132,12.8241758 C5.35531154,12.5457862 5.40659308,12.2857155 5.47252747,12.043956 Z M5.76923077,11.043956 L5.72527473,11.1318681 L5.67032967,10.989011 L5.76923077,11.043956 Z M5.76923077,11.043956 L5.72527473,11.1318681 L5.67032967,10.989011 L5.76923077,11.043956 Z M5.67032967,10.989011 L5.76923077,11.043956 L5.72527473,11.1318681 L5.67032967,10.989011 Z M11.6703297,7.63736264 C11.9706975,8.06227319 12.2216107,8.5164811 12.4230769,9 C12.6245431,9.4835189 12.7728933,9.97801945 12.8681319,10.4835165 C12.9633704,11.0036656 13.010989,11.5384588 13.010989,12.0879121 C12.5860785,12.241759 12.1538484,12.3571425 11.7142857,12.4340659 C11.2747231,12.5109894 10.8278411,12.5494505 10.3736264,12.5494505 C9.95604187,12.5494505 9.54212659,12.5164838 9.13186813,12.4505495 C8.72160967,12.3846151 8.32784071,12.2912094 7.95054945,12.1703297 C7.57325819,12.0494499 7.20146703,11.8937738 6.83516484,11.7032967 C6.44688451,11.4981675 6.08791374,11.2783895 5.75824176,11.043956 C5.96337099,10.5091548 6.21977868,10.0036654 6.52747253,9.52747253 C6.83516637,9.05127967 7.19780011,8.60806066 7.61538462,8.1978022 C8.03296912,7.78754374 8.48168258,7.43040445 8.96153846,7.12637363 C9.44139434,6.8223428 9.95237824,6.57509253 10.4945055,6.38461538 C10.5091576,6.37728934 10.5201465,6.37362637 10.5274725,6.37362637 L10.5494505,6.35164835 L10.5714286,6.35164835 L10.6153846,6.3956044 C11.0329691,6.79853681 11.384614,7.21245209 11.6703297,7.63736264 Z M7.02197802,5.23076923 C7.39560626,5.03296604 7.79486967,4.89011033 8.21978022,4.8021978 C8.42490945,4.88278429 8.65933934,4.99633626 8.92307692,5.14285714 C9.15751033,5.28205198 9.37362538,5.41758176 9.57142857,5.54945055 L9.12087912,5.50549451 C8.98168429,5.49084242 8.82783967,5.48351648 8.65934066,5.48351648 C8.16849571,5.49816857 7.71062484,5.53846121 7.28571429,5.6043956 C6.82417352,5.68498209 6.38095451,5.79120813 5.95604396,5.92307692 C6.28571593,5.6520133 6.64102374,5.42124637 7.02197802,5.23076923 Z M11.7032967,13.0989011 C12.1355333,13.0329667 12.5641004,12.9304036 12.989011,12.7912088 C12.9670329,13.1282068 12.9194143,13.4542109 12.8461538,13.7692308 C12.7728934,14.1062288 12.6849822,14.421244 12.5824176,14.7142857 C12.31868,14.8827847 12.0531149,15.0293034 11.7857143,15.1538462 C11.5183137,15.2783889 11.2417597,15.377289 10.956044,15.4505495 C10.457873,15.3186807 9.99450764,15.1556786 9.56593407,14.9615385 C9.13736049,14.7673983 8.72893967,14.5347999 8.34065934,14.2637363 C7.95237901,13.9926726 7.59157676,13.6849834 7.25824176,13.3406593 C6.92490676,12.9963353 6.61538604,12.6117237 6.32967033,12.1868132 C6.63736418,12.3479862 6.95787379,12.4945048 7.29120879,12.6263736 C7.62454379,12.7582424 7.95970527,12.8662999 8.2967033,12.9505495 C8.63370132,13.034799 8.97069429,13.0989009 9.30769231,13.1428571 C9.64469033,13.1868134 10.0073241,13.2087912 10.3956044,13.2087912 C10.827841,13.2087912 11.2637341,13.1721615 11.7032967,13.0989011 Z M10.8571429,4.81318681 C11.2893795,4.91575143 11.7179466,5.08058495 12.1428571,5.30769231 C11.9304019,5.33699648 11.688646,5.37728912 11.4175824,5.42857143 C11.183149,5.47252769 10.9560451,5.53113516 10.7362637,5.6043956 C10.5311345,5.42857055 10.3113565,5.25457962 10.0769231,5.08241758 C9.84248967,4.91025555 9.61538571,4.76556835 9.3956044,4.64835165 L9.50549451,4.64835165 C9.96703527,4.64835165 10.4175802,4.70329615 10.8571429,4.81318681 Z M10.5934066,6.37362637 C10.6080587,6.38827846 10.6153846,6.40293033 10.6153846,6.41758242 C10.5934065,6.41758242 10.5750916,6.41025648 10.5604396,6.3956044 L10.4945055,6.37362637 C10.5091576,6.37362637 10.5201465,6.36996341 10.5274725,6.36263736 L10.5494505,6.36263736 L10.5714286,6.35164835 L10.5824176,6.37362637 L10.5934066,6.37362637 Z M13.021978,5.92307692 C13.3150198,6.16483637 13.5842479,6.44139038 13.8296703,6.75274725 C14.0750928,7.06410412 14.2857134,7.3992656 14.4615385,7.75824176 C14.043954,7.38461352 13.6080609,7.05677797 13.1538462,6.77472527 C12.6996314,6.49267258 12.2161198,6.25641121 11.7032967,6.06593407 C11.9450562,6.01465176 12.1648342,5.97802209 12.3626374,5.95604396 L12.3736264,5.95604396 C12.6593421,5.93406582 12.8754571,5.92307692 13.021978,5.92307692 Z M14.978022,9.7032967 C15.0000001,9.87179571 15.010989,10.0256403 15.010989,10.1648352 C15.010989,10.30403 15.0000001,10.4652005 14.978022,10.6483516 C14.9706959,10.7948725 14.9487181,10.9523801 14.9120879,11.1208791 C14.7069587,11.260074 14.500001,11.3882778 14.2912088,11.5054945 C14.0824165,11.6227112 13.8754589,11.7289373 13.6703297,11.8241758 C13.6630036,11.3626351 13.6172165,10.9139216 13.532967,10.478022 C13.4487175,10.0421224 13.3333341,9.61721819 13.1868132,9.2032967 C13.0402923,8.78937522 12.8589754,8.38644885 12.6428571,7.99450549 C12.4267388,7.60256214 12.1794886,7.22344505 11.9010989,6.85714286 C12.2014667,6.98901165 12.4908411,7.1391933 12.7692308,7.30769231 C13.0476204,7.47619132 13.3113541,7.65933967 13.5604396,7.85714286 C13.8168511,8.06959813 14.054944,8.28571319 14.2747253,8.50549451 C14.5164847,8.74725396 14.7325998,8.99633571 14.9230769,9.25274725 C14.937729,9.34798582 14.9560438,9.49084154 14.978022,9.68131868 L14.978022,9.7032967 Z M14.1758242,12.3186813 C14.3589753,12.2380948 14.5201458,12.1538466 14.6593407,12.0659341 C14.5274719,12.4249102 14.3644698,12.7600717 14.1703297,13.0714286 C13.9761895,13.3827854 13.7472541,13.6739913 13.4835165,13.9450549 C13.5347988,13.7032955 13.5750914,13.478023 13.6043956,13.2692308 C13.6336998,13.0604385 13.6593405,12.8205142 13.6813187,12.5494505 L14.1758242,12.3186813 Z" id="" fill="#2B2826"></path>
            <g id="icons-/-Error_Mark" transform="translate(0.000000, 12.000000)">
                <circle id="Oval" fill="#FFFFFF" fill-rule="nonzero" cx="4" cy="4" r="4"></circle>
                <path d="M4.00666043,0.66666822 C4.60923891,0.667230482 5.16978374,0.820408594 5.68831169,1.12620713 C6.1900347,1.42368891 6.5896311,1.82328531 6.88711289,2.32500833 C7.19347473,2.84449144 7.34665335,3.4050364 7.34665335,4.00666001 C7.34665335,4.60828362 7.19347473,5.16882857 6.88711289,5.68831169 C6.5896311,6.1900347 6.1900347,6.5896311 5.68831169,6.88711289 C5.16882857,7.19347473 4.60828362,7.34665335 4.00666001,7.34665335 C3.4050364,7.34665335 2.84449144,7.19347473 2.32500833,6.88711289 C1.82328531,6.5896311 1.42368891,6.1900347 1.12620713,5.68831169 C0.819845288,5.16882857 0.666666667,4.60828362 0.666666667,4.00666001 C0.666666667,3.4050364 0.819845288,2.84449144 1.12620713,2.32500833 C1.42368891,1.82328531 1.82328531,1.42368891 2.32500833,1.12620713 C2.84353627,0.820408594 3.4040811,0.667230482 4.00665958,0.66666822 L4.00666043,0.66666822 Z M4.00666043,0.66666822 C4.00555043,0.666667185 4.00444029,0.666666667 4.00333,0.666666667 L4.00999001,0.666666667 C4.00887973,0.666666667 4.00776958,0.666667185 4.00665958,0.66666822 L4.00666043,0.66666822 Z M4.34299034,5.67499167 L4.34299034,5.00899101 L3.67032967,5.00899101 L3.67032967,5.67499167 L4.34299034,5.67499167 Z M4.34299034,4.34299034 L4.34299034,2.33832834 L3.67032967,2.33832834 L3.67032967,4.34299034 L4.34299034,4.34299034 Z" id="" fill="#F83200"></path>
            </g>
        </g>
    </g>
</svg>