<?xml version="1.0" encoding="UTF-8"?>
<svg width="20px" height="20px" viewBox="0 0 20 20" version="1.1" xmlns="http://www.w3.org/2000/svg" xmlns:xlink="http://www.w3.org/1999/xlink">
    <!-- Generator: Sketch 51.3 (57544) - http://www.bohemiancoding.com/sketch -->
    <title>icons / classes/ BMC_Settings_32_Error</title>
    <desc>Created with Sketch.</desc>
    <defs>
        <polygon id="path-1" points="0.00025 0 20 0 20 19.9999167 0.00025 19.9999167"></polygon>
    </defs>
    <g id="icons-/-classes/-BMC_Settings_32" stroke="none" stroke-width="1" fill="none" fill-rule="evenodd">
        <g>
            <g id="icons-/-20x20-icon-field" fill="#F5A623" fill-rule="nonzero" opacity="0">
                <rect x="0" y="0" width="20" height="20"></rect>
            </g>
            <g id="Group-3">
                <mask id="mask-2" fill="white">
                    <use xlink:href="#path-1"></use>
                </mask>
                <g id="Clip-2"></g>
                <path d="M12.1060833,13.92825 C12.7510833,13.5490833 13.26025,13.03825 13.63275,12.3924167 C14.0044167,11.74825 14.1919167,11.0440833 14.1919167,10.2790833 C14.1919167,9.51491667 14.0044167,8.80991667 13.63275,8.16575 C13.26025,7.52158333 12.7510833,7.01241667 12.1060833,6.64075 C11.46025,6.26825 10.7544167,6.08158333 9.99025,6.08158333 C9.22441667,6.08158333 8.51858333,6.26825 7.87525,6.64075 C7.22775,7.01241667 6.71858333,7.52158333 6.34691667,8.16575 C5.97441667,8.80991667 5.78858333,9.51491667 5.78858333,10.2790833 C5.78858333,11.0440833 5.97441667,11.74825 6.34691667,12.3924167 C6.71858333,13.03825 7.22775,13.5490833 7.87525,13.92825 C8.51858333,14.3074167 9.22775,14.4965833 10.00025,14.4965833 C10.75775,14.4965833 11.46025,14.3074167 12.1060833,13.92825 Z M17.8444167,11.6649167 C17.7110833,11.6649167 17.57525,11.7149167 17.4360833,11.8149167 C17.2960833,11.9140833 17.2044167,12.03075 17.16525,12.16325 L16.6060833,13.5199167 C16.5394167,13.6524167 16.52025,13.8024167 16.5460833,13.96825 C16.5735833,14.1349167 16.6385833,14.2640833 16.7460833,14.3565833 L17.9044167,15.51325 C17.9960833,15.6199167 18.0435833,15.7465833 18.0435833,15.8915833 C18.0435833,16.03825 17.9960833,16.1649167 17.9044167,16.2715833 L16.2885833,17.86575 C16.1810833,17.97325 16.0535833,18.0265833 15.9085833,18.0265833 C15.7610833,18.0265833 15.63525,17.97325 15.52775,17.86575 L14.3710833,16.7099167 C14.26525,16.6174167 14.1319167,16.5574167 13.9719167,16.53075 C13.8135833,16.5040833 13.66525,16.5240833 13.5335833,16.5899167 L12.1760833,17.14825 C12.04275,17.18825 11.92525,17.2749167 11.8260833,17.4074167 C11.7269167,17.54075 11.6760833,17.6799167 11.6760833,17.8265833 L11.6760833,19.4815833 C11.6760833,19.61325 11.6260833,19.7340833 11.5269167,19.84075 C11.4285833,19.9465833 11.3044167,19.9999167 11.15775,19.9999167 L8.86191667,19.9999167 C8.71608333,19.9999167 8.59191667,19.9465833 8.49275,19.84075 C8.39358333,19.7340833 8.34275,19.61325 8.34275,19.4815833 L8.34275,17.8265833 C8.34275,17.6940833 8.29275,17.5565833 8.19358333,17.4174167 C8.09525,17.27825 7.97108333,17.18825 7.82441667,17.14825 L6.46691667,16.5899167 C6.34691667,16.5240833 6.20358333,16.5040833 6.03775,16.53075 C5.87191667,16.5574167 5.73441667,16.6174167 5.63025,16.7099167 L4.47191667,17.86575 C4.36441667,17.97325 4.23775,18.0265833 4.09108333,18.0265833 C3.94525,18.0265833 3.82441667,17.97325 3.73191667,17.86575 L2.11608333,16.2715833 C2.02275,16.1649167 1.97608333,16.03825 1.97608333,15.8915833 C1.97608333,15.7465833 2.02275,15.6199167 2.11608333,15.51325 L3.27275,14.3565833 C3.37858333,14.25075 3.44275,14.11825 3.46358333,13.9574167 C3.48275,13.7990833 3.45858333,13.6524167 3.39358333,13.5199167 L2.83441667,12.16325 C2.79358333,12.0174167 2.70775,11.8974167 2.57441667,11.8040833 C2.44108333,11.7124167 2.30108333,11.6649167 2.15691667,11.6649167 L0.519416667,11.6649167 C0.37275,11.6649167 0.249416667,11.61575 0.149416667,11.5149167 C0.0494166667,11.41575 0.00025,11.2865833 0.00025,11.1265833 L0.00025,8.85325 C0.00025,8.70658333 0.0494166667,8.58408333 0.149416667,8.48491667 C0.249416667,8.38491667 0.37275,8.33491667 0.519416667,8.33491667 L2.15691667,8.33491667 C2.30108333,8.33491667 2.44108333,8.28575 2.57441667,8.18491667 C2.70775,8.08575 2.79358333,7.96325 2.83441667,7.81658333 L3.39358333,6.47991667 C3.45858333,6.34741667 3.48275,6.19908333 3.46358333,6.03158333 C3.44275,5.86575 3.37858333,5.73658333 3.27275,5.64325 L2.11608333,4.48658333 C2.02275,4.38075 1.97608333,4.25408333 1.97608333,4.10825 C1.97608333,3.96158333 2.02275,3.83575 2.11608333,3.72908333 L3.73191667,2.11325 C3.83941667,2.02075 3.96441667,1.97408333 4.11191667,1.97408333 C4.25858333,1.97408333 4.37775,2.02075 4.47191667,2.11325 L5.63025,3.26991667 C5.73441667,3.37741667 5.87191667,3.44325 6.03775,3.46908333 C6.20358333,3.49575 6.34691667,3.47658333 6.46691667,3.40991667 L7.82441667,2.85158333 C7.97108333,2.81158333 8.09025,2.72575 8.18358333,2.59241667 C8.27608333,2.45908333 8.32358333,2.31991667 8.32358333,2.17408333 L8.32358333,0.51825 C8.32358333,0.372416667 8.37525,0.249083333 8.48275,0.149916667 C8.58858333,0.0499166667 8.71608333,-8.33333333e-05 8.86191667,-8.33333333e-05 L11.1385833,-8.33333333e-05 C11.28525,-8.33333333e-05 11.4069167,0.0499166667 11.5069167,0.149916667 C11.6060833,0.249083333 11.6569167,0.372416667 11.6569167,0.51825 L11.6569167,2.15325 C11.6569167,2.29991667 11.7060833,2.43991667 11.8069167,2.57241667 C11.9060833,2.70491667 12.0294167,2.79241667 12.1760833,2.83158333 L13.5119167,3.38991667 C13.6460833,3.45658333 13.79525,3.47991667 13.96275,3.45908333 C14.1285833,3.43991667 14.2585833,3.37741667 14.3510833,3.26991667 L15.5094167,2.11325 C15.6144167,2.00741667 15.7410833,1.95408333 15.88775,1.95408333 C16.0344167,1.95408333 16.1610833,2.00741667 16.2669167,2.11325 L17.88525,3.72908333 C17.9769167,3.83575 18.0244167,3.96158333 18.0244167,4.10825 C18.0244167,4.25408333 17.9769167,4.37408333 17.88525,4.46658333 L16.7269167,5.62325 C16.6194167,5.72991667 16.55275,5.86575 16.5269167,6.03158333 C16.50025,6.19908333 16.52025,6.34158333 16.5869167,6.46075 L17.1460833,7.81658333 C17.18525,7.96325 17.2744167,8.08575 17.4144167,8.18491667 C17.5544167,8.28575 17.6910833,8.33491667 17.8244167,8.33491667 L19.4619167,8.33491667 C19.60775,8.33491667 19.73275,8.38491667 19.84025,8.48491667 C19.9460833,8.58408333 20.00025,8.70658333 20.00025,8.85325 L20.00025,11.1265833 C20.00025,11.2724167 19.9460833,11.3990833 19.84025,11.50575 C19.73275,11.6124167 19.60775,11.6649167 19.4619167,11.6649167 L17.8444167,11.6649167 Z" id="Fill-1" fill="#333333" mask="url(#mask-2)"></path>
            </g>
            <g id="icons-/-Error_Mark" transform="translate(0.000000, 12.000000)">
                <circle id="Oval" fill="#FFFFFF" fill-rule="nonzero" cx="4" cy="4" r="4"></circle>
                <path d="M4.00666043,0.66666822 C4.60923891,0.667230482 5.16978374,0.820408594 5.68831169,1.12620713 C6.1900347,1.42368891 6.5896311,1.82328531 6.88711289,2.32500833 C7.19347473,2.84449144 7.34665335,3.4050364 7.34665335,4.00666001 C7.34665335,4.60828362 7.19347473,5.16882857 6.88711289,5.68831169 C6.5896311,6.1900347 6.1900347,6.5896311 5.68831169,6.88711289 C5.16882857,7.19347473 4.60828362,7.34665335 4.00666001,7.34665335 C3.4050364,7.34665335 2.84449144,7.19347473 2.32500833,6.88711289 C1.82328531,6.5896311 1.42368891,6.1900347 1.12620713,5.68831169 C0.819845288,5.16882857 0.666666667,4.60828362 0.666666667,4.00666001 C0.666666667,3.4050364 0.819845288,2.84449144 1.12620713,2.32500833 C1.42368891,1.82328531 1.82328531,1.42368891 2.32500833,1.12620713 C2.84353627,0.820408594 3.4040811,0.667230482 4.00665958,0.66666822 L4.00666043,0.66666822 Z M4.00666043,0.66666822 C4.00555043,0.666667185 4.00444029,0.666666667 4.00333,0.666666667 L4.00999001,0.666666667 C4.00887973,0.666666667 4.00776958,0.666667185 4.00665958,0.66666822 L4.00666043,0.66666822 Z M4.34299034,5.67499167 L4.34299034,5.00899101 L3.67032967,5.00899101 L3.67032967,5.67499167 L4.34299034,5.67499167 Z M4.34299034,4.34299034 L4.34299034,2.33832834 L3.67032967,2.33832834 L3.67032967,4.34299034 L4.34299034,4.34299034 Z" id="" fill="#F83200"></path>
            </g>
        </g>
    </g>
</svg>