<?xml version="1.0" encoding="UTF-8"?>
<svg width="20px" height="20px" viewBox="0 0 20 20" version="1.1" xmlns="http://www.w3.org/2000/svg" xmlns:xlink="http://www.w3.org/1999/xlink">
    <!-- Generator: Sketch 51.3 (57544) - http://www.bohemiancoding.com/sketch -->
    <title>icons / classes/ BMC_DefaultAccountPermissions_32_Error</title>
    <desc>Created with Sketch.</desc>
    <defs></defs>
    <g id="icons-/-classes/-BMC_DefaultAccountPermissions_32" stroke="none" stroke-width="1" fill="none" fill-rule="evenodd">
        <g>
            <g id="icons-/-20x20-icon-field" fill="#F5A623" fill-rule="nonzero" opacity="0">
                <rect x="0" y="0" width="20" height="20"></rect>
            </g>
            <path d="M16.25,11.25 C16.25,11.7083333 16.625,12.0833333 17.0833333,12.0833333 C17.5416667,12.0833333 17.9166667,11.7083333 17.9166667,11.25 C17.9166667,10.7916667 17.5416667,10.4166667 17.0833333,10.4166667 C16.625,10.4166667 16.25,10.7916667 16.25,11.25 M20,12.5 C20,13.25 19.8,13.95 19.4583333,14.5583333 C18.7333333,15.8166667 17.3833333,16.6666667 15.8333333,16.6666667 C15.55,16.6666667 15.2666667,16.6416667 15,16.5833333 C14.7083333,16.525 14.4333333,16.4416667 14.1666667,16.325 L12.9166667,17.5 L11.6666667,17.5 L11.6666667,18.75 L10.4166667,18.75 L10.4166667,20 L8.33333333,20 L8.33333333,17.775 L11.9916667,14.1333333 L11.9916667,14.125 C11.8833333,13.875 11.8083333,13.6083333 11.75,13.3333333 C11.6916667,13.0666667 11.6666667,12.7833333 11.6666667,12.5 C11.6666667,12.2166667 11.6916667,11.9333333 11.75,11.6666667 C11.9666667,10.5916667 12.6,9.66666667 13.4666667,9.075 C13.925,8.75833333 14.4416667,8.53333333 15,8.41666667 C15.2666667,8.35833333 15.55,8.33333333 15.8333333,8.33333333 C16.775,8.33333333 17.6416667,8.64166667 18.3333333,9.16666667 C19.3416667,9.925 20,11.1416667 20,12.5 M12.0833333,5.41666667 C12.0833333,4.26666667 11.15,3.33333333 10,3.33333333 C8.85,3.33333333 7.91666667,4.26666667 7.91666667,5.41666667 C7.91666667,6.56666667 8.85,7.5 10,7.5 C11.15,7.5 12.0833333,6.56666667 12.0833333,5.41666667 M18.3333333,0 L1.66666667,0 C0.75,0 0,0.75 0,1.66666667 L0,13.3333333 C0,14.25 0.75,15 1.66666667,15 L8.75833333,15 L10.1166667,13.65 C10.0916667,13.5416667 10.075,13.4416667 10.0666667,13.3333333 L1.66666667,13.3333333 L1.66666667,1.66666667 L18.3333333,1.66666667 L18.3333333,7.23333333 C18.9583333,7.525 19.525,7.93333333 20,8.425 L20,1.66666667 C20,0.75 19.25,0 18.3333333,0 M10,8.33333333 C10.575,8.33333333 11.1166667,8.375 11.6166667,8.46666667 C10.8,9.33333333 10.2333333,10.4416667 10.0666667,11.6666667 L5.83333333,11.6666667 L5.83333333,10 C5.83333333,9.08333333 7.7,8.33333333 10,8.33333333" id="Fill-1" fill="#333333"></path>
            <g id="icons-/-Error_Mark" transform="translate(0.000000, 12.000000)">
                <circle id="Oval" fill="#FFFFFF" fill-rule="nonzero" cx="4" cy="4" r="4"></circle>
                <path d="M4.00666043,0.66666822 C4.60923891,0.667230482 5.16978374,0.820408594 5.68831169,1.12620713 C6.1900347,1.42368891 6.5896311,1.82328531 6.88711289,2.32500833 C7.19347473,2.84449144 7.34665335,3.4050364 7.34665335,4.00666001 C7.34665335,4.60828362 7.19347473,5.16882857 6.88711289,5.68831169 C6.5896311,6.1900347 6.1900347,6.5896311 5.68831169,6.88711289 C5.16882857,7.19347473 4.60828362,7.34665335 4.00666001,7.34665335 C3.4050364,7.34665335 2.84449144,7.19347473 2.32500833,6.88711289 C1.82328531,6.5896311 1.42368891,6.1900347 1.12620713,5.68831169 C0.819845288,5.16882857 0.666666667,4.60828362 0.666666667,4.00666001 C0.666666667,3.4050364 0.819845288,2.84449144 1.12620713,2.32500833 C1.42368891,1.82328531 1.82328531,1.42368891 2.32500833,1.12620713 C2.84353627,0.820408594 3.4040811,0.667230482 4.00665958,0.66666822 L4.00666043,0.66666822 Z M4.00666043,0.66666822 C4.00555043,0.666667185 4.00444029,0.666666667 4.00333,0.666666667 L4.00999001,0.666666667 C4.00887973,0.666666667 4.00776958,0.666667185 4.00665958,0.66666822 L4.00666043,0.66666822 Z M4.34299034,5.67499167 L4.34299034,5.00899101 L3.67032967,5.00899101 L3.67032967,5.67499167 L4.34299034,5.67499167 Z M4.34299034,4.34299034 L4.34299034,2.33832834 L3.67032967,2.33832834 L3.67032967,4.34299034 L4.34299034,4.34299034 Z" id="" fill="#F83200"></path>
            </g>
        </g>
    </g>
</svg>