<?xml version="1.0" encoding="UTF-8"?>
<svg width="20px" height="20px" viewBox="0 0 20 20" version="1.1" xmlns="http://www.w3.org/2000/svg" xmlns:xlink="http://www.w3.org/1999/xlink">
    <!-- Generator: Sketch 51.3 (57544) - http://www.bohemiancoding.com/sketch -->
    <title>icons / classes/ BMC_InventoryStorage_32</title>
    <desc>Created with Sketch.</desc>
    <defs>
        <polygon id="path-1" points="0 0 19.9999167 0 19.9999167 19.9999167 0 19.9999167"></polygon>
    </defs>
    <g id="icons-/-classes/-BMC_InventoryStorage_32" stroke="none" stroke-width="1" fill="none" fill-rule="evenodd">
        <g>
            <g id="icons-/-20x20-icon-field" fill="#F5A623" fill-rule="nonzero" opacity="0">
                <rect x="0" y="0" width="20" height="20"></rect>
            </g>
            <g id="Group-3">
                <mask id="mask-2" fill="white">
                    <use xlink:href="#path-1"></use>
                </mask>
                <g id="Clip-2"></g>
                <path d="M19.8999167,10.5249167 L19.0840833,11.3415833 C18.87575,11.5499167 18.60825,11.6749167 18.33325,11.70825 C18.25825,11.7249167 18.18325,11.73325 18.1090833,11.73325 C17.73325,11.73325 17.3415833,11.58325 17.0415833,11.2915833 C16.4665833,10.70825 16.4424167,9.79991667 16.9915833,9.24991667 L17.80825,8.43325 C17.55825,8.36658333 17.2999167,8.33325 17.0415833,8.33325 C16.28325,8.33325 15.5249167,8.62491667 14.95075,9.19991667 C14.18325,9.96658333 13.9424167,11.05825 14.1999167,12.0415833 L11.1499167,15.0915833 L8.66741667,17.5749167 C8.45908333,17.78325 8.34991667,18.0499167 8.34158333,18.33325 C8.30825,18.73325 8.47491667,19.1749167 8.81658333,19.5165833 C8.91658333,19.6165833 9.02491667,19.6999167 9.13325,19.75825 C9.38325,19.9165833 9.65825,19.9999167 9.92491667,19.9999167 C10.23325,19.9999167 10.53325,19.8915833 10.75825,19.6665833 L11.4165833,19.00825 L13.25825,17.1749167 L13.25825,17.1665833 L16.2915833,14.13325 C16.5415833,14.1999167 16.7999167,14.23325 17.05825,14.23325 C17.8165833,14.23325 18.5665833,13.9499167 19.13325,13.3749167 C19.7090833,12.7999167 19.9999167,12.0499167 19.9999167,11.2915833 C19.9999167,11.03325 19.9665833,10.7749167 19.8999167,10.5249167 M1.94158333,14.9999167 C1.71658333,14.9165833 1.49158333,14.8165833 1.28325,14.70825 C0.999916667,14.5749167 0.73325,14.4165833 0.48325,14.2499167 C0.40075,14.1999167 0.324916667,14.1499167 0.249916667,14.0915833 C0.149916667,14.28325 0.0749166667,14.4749167 0.03325,14.6665833 C0.00825,14.7749167 -8.33333333e-05,14.8915833 -8.33333333e-05,14.9999167 L-8.33333333e-05,16.6665833 C-8.33333333e-05,18.50825 2.98325,19.9999167 6.66658333,19.9999167 C6.81658333,19.9999167 6.95825,19.9999167 7.09991667,19.9915833 C6.78325,19.45825 6.63325,18.8499167 6.67491667,18.2415833 C6.70825,17.5415833 7.00075,16.8915833 7.49158333,16.3999167 L8.13325,15.75825 C7.65908333,15.80825 7.16658333,15.83325 6.66658333,15.83325 C4.88325,15.83325 3.26658333,15.53325 1.94158333,14.9999167 M1.28325,6.95825 C1.34158333,7.00825 1.40908333,7.04991667 1.47491667,7.08325 C1.68325,7.22491667 1.91658333,7.34991667 2.16658333,7.45825 C2.54991667,7.63325 2.97491667,7.79158333 3.43325,7.91658333 C4.39158333,8.18325 5.49158333,8.33325 6.66658333,8.33325 C7.84158333,8.33325 8.94241667,8.18325 9.89991667,7.91658333 C10.35825,7.79158333 10.7840833,7.63325 11.1674167,7.45825 C11.4165833,7.34991667 11.65075,7.22491667 11.8590833,7.08325 C11.9249167,7.04991667 11.9915833,7.00825 12.0499167,6.95825 C12.85825,6.40825 13.33325,5.73325 13.33325,4.99991667 L13.33325,3.33325 C13.33325,3.22491667 13.3249167,3.10825 13.2999167,2.99991667 C13.00825,1.54158333 10.8415833,0.35825 8.00825,0.0665833333 C7.81658333,0.0499166667 7.60825,0.03325 7.40825,0.0249166667 C7.16658333,0.00825 6.91658333,-8.33333333e-05 6.66658333,-8.33333333e-05 C6.41658333,-8.33333333e-05 6.16741667,0.00825 5.92491667,0.0249166667 C5.72491667,0.03325 5.51658333,0.0499166667 5.32491667,0.0665833333 C2.49158333,0.35825 0.324916667,1.54158333 0.03325,2.99991667 C0.00825,3.10825 -8.33333333e-05,3.22491667 -8.33333333e-05,3.33325 L-8.33333333e-05,4.99991667 C-8.33333333e-05,5.73325 0.474916667,6.40825 1.28325,6.95825 M-8.33333333e-05,10.83325 L-8.33333333e-05,9.16658333 C-8.33333333e-05,9.05825 0.00825,8.94158333 0.03325,8.83325 C0.0749166667,8.64158333 0.149916667,8.44991667 0.249916667,8.25825 C0.324916667,8.31658333 0.40075,8.36658333 0.48325,8.41658333 C0.73325,8.58325 0.999916667,8.74158333 1.28325,8.87491667 C1.49158333,8.98325 1.71658333,9.08325 1.94158333,9.16658333 C3.26658333,9.69991667 4.88325,9.99991667 6.66658333,9.99991667 C8.44991667,9.99991667 10.0665833,9.69991667 11.3915833,9.16658333 C11.6174167,9.08325 11.8415833,8.98325 12.0499167,8.87491667 C12.33325,8.74158333 12.5999167,8.58325 12.8499167,8.41658333 C12.93325,8.36658333 13.00825,8.31658333 13.08325,8.25825 C13.1499167,8.39158333 13.20825,8.52491667 13.25075,8.65825 C12.68325,9.46658333 12.3999167,10.4499167 12.4415833,11.4499167 L10.2499167,13.6415833 C10.13325,13.68325 10.0165833,13.7165833 9.89991667,13.7499167 C8.94241667,14.0165833 7.84158333,14.1665833 6.66658333,14.1665833 C5.49158333,14.1665833 4.39158333,14.0165833 3.43325,13.7499167 C2.97491667,13.6249167 2.54991667,13.4665833 2.16658333,13.2915833 C1.91658333,13.18325 1.68325,13.05825 1.47491667,12.9165833 C1.40908333,12.88325 1.34158333,12.8415833 1.28325,12.7915833 C0.474916667,12.2415833 -8.33333333e-05,11.5665833 -8.33333333e-05,10.83325" id="Fill-1" fill="#333333" mask="url(#mask-2)"></path>
            </g>
            <g id="icons-/-Error_Mark" transform="translate(0.000000, 12.000000)" opacity="0">
                <circle id="Oval" fill="#FFFFFF" fill-rule="nonzero" cx="4" cy="4" r="4"></circle>
                <path d="M4.00666043,0.66666822 C4.60923891,0.667230482 5.16978374,0.820408594 5.68831169,1.12620713 C6.1900347,1.42368891 6.5896311,1.82328531 6.88711289,2.32500833 C7.19347473,2.84449144 7.34665335,3.4050364 7.34665335,4.00666001 C7.34665335,4.60828362 7.19347473,5.16882857 6.88711289,5.68831169 C6.5896311,6.1900347 6.1900347,6.5896311 5.68831169,6.88711289 C5.16882857,7.19347473 4.60828362,7.34665335 4.00666001,7.34665335 C3.4050364,7.34665335 2.84449144,7.19347473 2.32500833,6.88711289 C1.82328531,6.5896311 1.42368891,6.1900347 1.12620713,5.68831169 C0.819845288,5.16882857 0.666666667,4.60828362 0.666666667,4.00666001 C0.666666667,3.4050364 0.819845288,2.84449144 1.12620713,2.32500833 C1.42368891,1.82328531 1.82328531,1.42368891 2.32500833,1.12620713 C2.84353627,0.820408594 3.4040811,0.667230482 4.00665958,0.66666822 L4.00666043,0.66666822 Z M4.00666043,0.66666822 C4.00555043,0.666667185 4.00444029,0.666666667 4.00333,0.666666667 L4.00999001,0.666666667 C4.00887973,0.666666667 4.00776958,0.666667185 4.00665958,0.66666822 L4.00666043,0.66666822 Z M4.34299034,5.67499167 L4.34299034,5.00899101 L3.67032967,5.00899101 L3.67032967,5.67499167 L4.34299034,5.67499167 Z M4.34299034,4.34299034 L4.34299034,2.33832834 L3.67032967,2.33832834 L3.67032967,4.34299034 L4.34299034,4.34299034 Z" id="" fill="#F83200"></path>
            </g>
        </g>
    </g>
</svg>