<?xml version="1.0" encoding="UTF-8"?>
<svg width="20px" height="20px" viewBox="0 0 20 20" version="1.1" xmlns="http://www.w3.org/2000/svg" xmlns:xlink="http://www.w3.org/1999/xlink">
    <!-- Generator: Sketch 51.3 (57544) - http://www.bohemiancoding.com/sketch -->
    <title>icons / classes/ BMC_Account_32</title>
    <desc>Created with Sketch.</desc>
    <defs></defs>
    <g id="icons-/-classes/-BMC_Account_32" stroke="none" stroke-width="1" fill="none" fill-rule="evenodd">
        <g id="icons-/-classes/-account-configuration-item" fill="#F5A623" fill-rule="nonzero" opacity="0">
            <g id="icons-/-20x20-icon-field">
                <rect x="0" y="0" width="20" height="20"></rect>
            </g>
        </g>
        <path d="M12.0833333,12.5 L16.25,12.5 L16.25,11.25 L12.0833333,11.25 L12.0833333,12.5 Z M20,13.3333333 L20,19.1666667 C20,19.625 19.625,20 19.1666667,20 L9.16666667,20 C8.70833333,20 8.33333333,19.625 8.33333333,19.1666667 L8.33333333,13.3333333 C8.33333333,12.875 8.70833333,12.5 9.16666667,12.5 L10.8333333,12.5 L10.8333333,10.8333333 C10.8333333,10.375 11.2083333,10 11.6666667,10 L16.6666667,10 C17.125,10 17.5,10.375 17.5,10.8333333 L17.5,12.5 L19.1666667,12.5 C19.625,12.5 20,12.875 20,13.3333333 Z M9.16666667,10.8333333 C7.79166667,10.8333333 6.66666667,11.9583333 6.66666667,13.3333333 L6.66666667,15 L0,15 L0,11.875 C0,10.5083333 2.09166667,9.35833333 5,8.925 C5.20833333,8.9 5.41666667,8.875 5.625,8.85 L5.625,8.14166667 C5.4,7.99166667 5.19166667,7.80833333 5,7.60833333 C4.23333333,6.81666667 3.75,5.66666667 3.75,4.375 C3.75,1.95833333 5.425,0 7.5,0 C7.96666667,0 8.41666667,0.1 8.83333333,0.291666667 C10.25,0.916666667 11.25,2.50833333 11.25,4.375 C11.25,5.99166667 10.4916667,7.38333333 9.375,8.14166667 L9.375,8.85 C9.6,8.875 9.825,8.90833333 10.05,8.93333333 C9.50833333,9.39166667 9.16666667,10.075 9.16666667,10.8333333 Z" id="Fill-1" fill="#333333"></path>
        <g id="icons-/-Error_Mark" transform="translate(0.000000, 12.000000)" opacity="0">
            <circle id="Oval" fill="#FFFFFF" fill-rule="nonzero" cx="4" cy="4" r="4"></circle>
            <path d="M4.00666043,0.66666822 C4.60923891,0.667230482 5.16978374,0.820408594 5.68831169,1.12620713 C6.1900347,1.42368891 6.5896311,1.82328531 6.88711289,2.32500833 C7.19347473,2.84449144 7.34665335,3.4050364 7.34665335,4.00666001 C7.34665335,4.60828362 7.19347473,5.16882857 6.88711289,5.68831169 C6.5896311,6.1900347 6.1900347,6.5896311 5.68831169,6.88711289 C5.16882857,7.19347473 4.60828362,7.34665335 4.00666001,7.34665335 C3.4050364,7.34665335 2.84449144,7.19347473 2.32500833,6.88711289 C1.82328531,6.5896311 1.42368891,6.1900347 1.12620713,5.68831169 C0.819845288,5.16882857 0.666666667,4.60828362 0.666666667,4.00666001 C0.666666667,3.4050364 0.819845288,2.84449144 1.12620713,2.32500833 C1.42368891,1.82328531 1.82328531,1.42368891 2.32500833,1.12620713 C2.84353627,0.820408594 3.4040811,0.667230482 4.00665958,0.66666822 L4.00666043,0.66666822 Z M4.00666043,0.66666822 C4.00555043,0.666667185 4.00444029,0.666666667 4.00333,0.666666667 L4.00999001,0.666666667 C4.00887973,0.666666667 4.00776958,0.666667185 4.00665958,0.66666822 L4.00666043,0.66666822 Z M4.34299034,5.67499167 L4.34299034,5.00899101 L3.67032967,5.00899101 L3.67032967,5.67499167 L4.34299034,5.67499167 Z M4.34299034,4.34299034 L4.34299034,2.33832834 L3.67032967,2.33832834 L3.67032967,4.34299034 L4.34299034,4.34299034 Z" id="" fill="#F83200"></path>
        </g>
    </g>
</svg>