<?xml version="1.0" encoding="UTF-8"?>
<svg width="20px" height="20px" viewBox="0 0 20 20" version="1.1" xmlns="http://www.w3.org/2000/svg" xmlns:xlink="http://www.w3.org/1999/xlink">
    <!-- Generator: Sketch 51.3 (57544) - http://www.bohemiancoding.com/sketch -->
    <title>icons / classes/ BMC_AdministrationApplication_SIM_SERVER_STANDBY_32</title>
    <desc>Created with Sketch.</desc>
    <defs></defs>
    <g id="icons-/-classes/-BMC_AdministrationApplication_SIM_SERVER_STANDBY_32" stroke="none" stroke-width="1" fill="none" fill-rule="evenodd">
        <g transform="translate(-1.000000, -1.000000)">
            <g id="icons-/-20x20-icon-field" transform="translate(1.000000, 1.000000)" fill="#F5A623" fill-rule="nonzero" opacity="0">
                <rect x="0" y="0" width="20" height="20"></rect>
            </g>
            <path d="M5.995005,17.2607393 L5.995005,17.6003996 C6.00832507,17.7069602 6.0283049,17.8201792 6.05494505,17.9400599 L6.11488511,18.2597403 L6.19480519,18.5794206 L2.31868132,18.5794206 C2.25208092,18.5794206 2.1655017,18.5727606 2.05894106,18.5594406 C2.00566074,18.5461205 1.9324014,18.5261407 1.83916084,18.4995005 C1.77256044,18.4728603 1.6993011,18.4362307 1.61938062,18.3896104 C1.53946014,18.3429901 1.45954086,18.2797207 1.37962038,18.1998002 C1.2996999,18.1198797 1.24642038,18.0532803 1.21978022,18 L1.07992008,17.7602398 C1.05327992,17.6803193 1.0333001,17.6004 1.01998002,17.5204795 C0.99333986,17.4139189 0.98001998,17.3273397 0.98001998,17.2607393 L0.98001998,9.24875125 C0.98001998,9.15551069 0.99333986,9.07559141 1.01998002,9.00899101 L1.07992008,8.76923077 L1.21978022,8.52947053 C1.25974046,8.46287013 1.31301998,8.39294076 1.37962038,8.31968032 C1.44622078,8.24641988 1.51948012,8.18648042 1.5994006,8.13986014 C1.67932108,8.09323986 1.75924036,8.05661019 1.83916084,8.02997003 C1.91908132,8.00332987 1.99234066,7.98335005 2.05894106,7.97002997 C2.1655017,7.94338981 2.25208092,7.93006993 2.31868132,7.93006993 L12.968032,7.93006993 C13.0612725,7.93006993 13.1478517,7.94338981 13.2277722,7.97002997 L13.4875125,8.02997003 L13.7072927,8.14985015 C13.7738931,8.18981039 13.8471524,8.24308991 13.9270729,8.30969031 C13.9670332,8.36297063 14.0169827,8.4329 14.0769231,8.51948052 C14.1368634,8.60606104 14.180153,8.68931029 14.2067932,8.76923077 C14.2334334,8.84915125 14.2600731,8.92241059 14.2867133,8.98901099 C14.3000334,9.09557163 14.3066933,9.18881079 14.3066933,9.26873127 L14.3066933,14.5834166 C14.1868126,14.4235756 14.0935734,14.3103566 14.026973,14.2437562 L13.7272727,13.9240759 L13.3676324,13.6443556 C13.2477516,13.537795 13.1278727,13.4445558 13.007992,13.3646354 L13.007992,11.1068931 L2.31868132,11.1068931 L2.31868132,17.2607393 L5.995005,17.2607393 Z M2.25874126,9.86813187 L2.27872128,9.90809191 L2.35864136,10.007992 C2.37196144,10.0346322 2.40526114,10.054612 2.45854146,10.0679321 L2.63836164,10.1478521 L2.73826174,10.1478521 C2.8315023,10.1478521 2.90809161,10.1378622 2.96803197,10.1178821 C3.02797233,10.097902 3.07792188,10.0679323 3.11788212,10.027972 C3.15784236,9.98801179 3.19114206,9.93473227 3.21778222,9.86813187 C3.24442238,9.80153147 3.25774226,9.72161219 3.25774226,9.62837163 L3.25774226,9.52847153 L3.21778222,9.42857143 L3.07792208,9.28871129 C3.064602,9.28871129 3.04462218,9.27872138 3.01798202,9.25874126 C2.99134186,9.23876114 2.96137213,9.22544126 2.92807193,9.21878122 C2.89477173,9.21212118 2.85814206,9.20213127 2.81818182,9.18881119 L2.71828172,9.16883117 L2.61838162,9.18881119 C2.57842138,9.18881119 2.54845165,9.19547113 2.52847153,9.20879121 C2.50849141,9.22211129 2.48185165,9.23876114 2.44855145,9.25874126 C2.41525125,9.27872138 2.38528152,9.29537123 2.35864136,9.30869131 L2.2987013,9.38861139 L2.25874126,9.46853147 C2.24542118,9.48185155 2.2321013,9.50849131 2.21878122,9.54845155 L2.21878122,9.74825175 L2.25874126,9.86813187 Z M3.5974026,9.48851149 C3.58408252,9.51515165 3.57076264,9.54845135 3.55744256,9.58841159 L3.55744256,9.76823177 L3.5974026,9.88811189 L3.6973027,10.027972 C3.71062278,10.0412921 3.73726254,10.0612719 3.77722278,10.0879121 L3.97702298,10.1678322 L4.07692308,10.1678322 C4.15684356,10.1678322 4.2301029,10.1578423 4.2967033,10.1378621 C4.3633037,10.117882 4.40992328,10.0879123 4.43656344,10.047952 C4.48984376,9.99467173 4.52314346,9.94139221 4.53646354,9.88811189 C4.5631037,9.79487133 4.57642358,9.72161199 4.57642358,9.66833167 L4.53646354,9.46853147 L4.47652348,9.36863137 L4.41658342,9.30869131 C4.38994326,9.28205115 4.3633035,9.26207133 4.33666334,9.24875125 L4.15684316,9.18881119 L3.95704296,9.18881119 L3.83716284,9.22877123 C3.81052268,9.22877123 3.78721289,9.23876114 3.76723277,9.25874126 C3.74725265,9.27872138 3.71728292,9.29537123 3.67732268,9.30869131 L3.63736264,9.40859141 C3.61072248,9.43523157 3.5974026,9.46187133 3.5974026,9.48851149 Z M4.996004,10.027972 L13.007992,10.027972 L13.007992,9.24875125 L4.996004,9.24875125 L4.996004,10.027972 Z M10.8501499,0.977022977 L21,0.977022977 L21,14.7432567 L15.1458541,14.7432567 L15.1458541,8.58941059 C15.1458541,8.48284995 15.1325343,8.38961079 15.1058941,8.30969031 C15.0792539,8.17648951 15.0526142,8.08325035 15.025974,8.02997003 C14.9993339,7.93672947 14.9527143,7.85015025 14.8861139,7.77022977 C14.8195135,7.67698921 14.7529141,7.60372987 14.6863137,7.55044955 C14.6197133,7.47052907 14.5464539,7.40392967 14.4665335,7.35064935 C14.3599728,7.28404895 14.2767236,7.23742937 14.2167832,7.21078921 C14.1568429,7.18414905 14.0602737,7.15750929 13.9270729,7.13086913 C13.8471524,7.10422897 13.7405934,7.09090909 13.6073926,7.09090909 L10.8501499,7.09090909 L10.8501499,0.977022977 Z M18.1228771,3.87412587 L13.7472527,3.87412587 L13.7472527,6.05194805 L18.1228771,6.05194805 L18.1228771,3.87412587 Z M11.951049,14.041958 L14,16.0979021 L14,19 L11.951049,21.048951 L9.04895105,21.048951 L6.99300699,19 L6.99300699,16.0979021 L9.04895105,14.041958 L11.951049,14.041958 Z M10.8531469,19.3006993 L10.8531469,18.6013986 L10.1468531,18.6013986 L10.1468531,19.3006993 L10.8531469,19.3006993 Z M10.8531469,17.9020979 L10.8531469,15.7972028 L10.1468531,15.7972028 L10.1468531,17.9020979 L10.8531469,17.9020979 Z" id="" fill="#2B2826"></path>
            <g id="icons-/-Error_Mark" transform="translate(1.000000, 13.000000)" opacity="0">
                <circle id="Oval" fill="#FFFFFF" fill-rule="nonzero" cx="4" cy="4" r="4"></circle>
                <path d="M4.00666043,0.66666822 C4.60923891,0.667230482 5.16978374,0.820408594 5.68831169,1.12620713 C6.1900347,1.42368891 6.5896311,1.82328531 6.88711289,2.32500833 C7.19347473,2.84449144 7.34665335,3.4050364 7.34665335,4.00666001 C7.34665335,4.60828362 7.19347473,5.16882857 6.88711289,5.68831169 C6.5896311,6.1900347 6.1900347,6.5896311 5.68831169,6.88711289 C5.16882857,7.19347473 4.60828362,7.34665335 4.00666001,7.34665335 C3.4050364,7.34665335 2.84449144,7.19347473 2.32500833,6.88711289 C1.82328531,6.5896311 1.42368891,6.1900347 1.12620713,5.68831169 C0.819845288,5.16882857 0.666666667,4.60828362 0.666666667,4.00666001 C0.666666667,3.4050364 0.819845288,2.84449144 1.12620713,2.32500833 C1.42368891,1.82328531 1.82328531,1.42368891 2.32500833,1.12620713 C2.84353627,0.820408594 3.4040811,0.667230482 4.00665958,0.66666822 L4.00666043,0.66666822 Z M4.00666043,0.66666822 C4.00555043,0.666667185 4.00444029,0.666666667 4.00333,0.666666667 L4.00999001,0.666666667 C4.00887973,0.666666667 4.00776958,0.666667185 4.00665958,0.66666822 L4.00666043,0.66666822 Z M4.34299034,5.67499167 L4.34299034,5.00899101 L3.67032967,5.00899101 L3.67032967,5.67499167 L4.34299034,5.67499167 Z M4.34299034,4.34299034 L4.34299034,2.33832834 L3.67032967,2.33832834 L3.67032967,4.34299034 L4.34299034,4.34299034 Z" id="" fill="#F83200"></path>
            </g>
        </g>
    </g>
</svg>