<?xml version="1.0" encoding="UTF-8"?>
<svg width="20px" height="20px" viewBox="0 0 20 20" version="1.1" xmlns="http://www.w3.org/2000/svg" xmlns:xlink="http://www.w3.org/1999/xlink">
    <!-- Generator: Sketch 51.3 (57544) - http://www.bohemiancoding.com/sketch -->
    <title>icons / classes/ BMC_LogicalSystemComponent_32</title>
    <desc>Created with Sketch.</desc>
    <defs>
        <polygon id="path-1" points="8.33333333e-05 0 20 0 20 19.1666667 8.33333333e-05 19.1666667"></polygon>
    </defs>
    <g id="icons-/-classes/-BMC_LogicalSystemComponent_32" stroke="none" stroke-width="1" fill="none" fill-rule="evenodd">
        <g id="icons-/-classes/-Logical-System-Compon">
            <g id="icons-/-20x20-icon-field" fill="#F5A623" fill-rule="nonzero" opacity="0">
                <rect x="0" y="0" width="20" height="20"></rect>
            </g>
            <g id="Group-3">
                <mask id="mask-2" fill="white">
                    <use xlink:href="#path-1"></use>
                </mask>
                <g id="Clip-2"></g>
                <path d="M17.5500833,10.625 L17.9500833,10.225 C18.1500833,10.3166667 18.3584167,10.3666667 18.5750833,10.3666667 C18.91675,10.3666667 19.2584167,10.2416667 19.5334167,9.99166667 C19.5500833,9.98333333 19.56675,9.96666667 19.5834167,9.95 C19.86675,9.66666667 20.0000833,9.3 20.0000833,8.93333333 C20.0000833,8.56666667 19.86675,8.2 19.5834167,7.91666667 C19.3584167,7.7 19.0834167,7.56666667 18.8000833,7.525 C18.7250833,7.50833333 18.64175,7.5 18.56675,7.5 C18.2000833,7.5 17.8334167,7.64166667 17.5500833,7.91666667 C17.1084167,8.35833333 17.01675,9.01666667 17.2750833,9.55 L16.8750833,9.95 L16.6584167,9.73333333 L14.86675,7.94166667 L14.84175,7.91666667 C14.6584167,7.73333333 14.4084167,7.64166667 14.16675,7.64166667 C13.9250833,7.64166667 13.6750833,7.73333333 13.49175,7.91666667 L11.4584167,9.95 L11.8584167,10.35 C11.9334167,10.3166667 12.0084167,10.2833333 12.0834167,10.2666667 C12.21675,10.225 12.3500833,10.2083333 12.4834167,10.2083333 C12.7750833,10.2083333 13.0834167,10.3083333 13.3334167,10.5 C13.39175,10.5333333 13.44175,10.575 13.49175,10.625 C13.5584167,10.6916667 13.6084167,10.7583333 13.6584167,10.8333333 C14.04175,11.3916667 13.9834167,12.1583333 13.49175,12.6583333 C13.44175,12.7083333 13.39175,12.75 13.3334167,12.7833333 C13.0834167,12.9833333 12.7750833,13.075 12.4750833,13.075 C12.34175,13.075 12.2084167,13.0583333 12.0834167,13.0166667 C11.8584167,12.9583333 11.64175,12.8416667 11.4584167,12.6583333 C11.01675,12.2166667 10.9250833,11.5583333 11.1834167,11.025 L10.7834167,10.625 L8.75008333,12.6583333 C8.38341667,13.025 8.38341667,13.6416667 8.75008333,14.0083333 L10.7834167,16.0416667 L10.3834167,16.4416667 C10.1834167,16.35 9.97508333,16.3 9.75841667,16.3 C9.62508333,16.3 9.48341667,16.3166667 9.35008333,16.3666667 C9.15841667,16.425 8.96675,16.525 8.80841667,16.6666667 C8.78341667,16.6833333 8.76675,16.7 8.75008333,16.7166667 C8.70008333,16.7666667 8.65841667,16.8166667 8.61675,16.875 C8.47508333,17.0666667 8.38341667,17.275 8.35841667,17.5 C8.34175,17.5666667 8.33341667,17.625 8.33341667,17.6916667 C8.33341667,17.7833333 8.33341667,17.875 8.35008333,17.9583333 C8.36675,18.0833333 8.40841667,18.2083333 8.46675,18.3333333 C8.52508333,18.4833333 8.62508333,18.625 8.75008333,18.75 C8.85008333,18.85 8.95841667,18.925 9.07508333,18.9833333 C9.29175,19.1083333 9.52508333,19.1666667 9.76675,19.1666667 C9.87508333,19.1666667 9.97508333,19.1583333 10.0834167,19.1333333 C10.34175,19.075 10.5834167,18.9416667 10.7834167,18.75 C10.79175,18.7416667 10.8000833,18.7333333 10.8084167,18.725 C10.81675,18.7166667 10.8250833,18.7 10.8334167,18.6916667 C10.9334167,18.5833333 11.01675,18.4583333 11.06675,18.3333333 C11.1500833,18.1666667 11.19175,17.9916667 11.19175,17.825 L11.2000833,17.825 C11.2000833,17.7166667 11.19175,17.6083333 11.1750833,17.5 C11.1584167,17.3666667 11.11675,17.2416667 11.0584167,17.1166667 L11.4584167,16.7166667 L13.49175,18.75 C13.6750833,18.9333333 13.9250833,19.025 14.16675,19.025 C14.4084167,19.025 14.6584167,18.9333333 14.84175,18.75 L16.8750833,16.7166667 L16.4750833,16.3166667 C16.2750833,16.4166667 16.06675,16.4583333 15.8500833,16.4583333 C15.5500833,16.4583333 15.24175,16.3583333 14.9834167,16.1583333 C14.9334167,16.125 14.8834167,16.0833333 14.84175,16.0416667 C14.7000833,15.9 14.6000833,15.7333333 14.5334167,15.5583333 C14.4834167,15.4333333 14.4500833,15.3 14.44175,15.1666667 C14.41675,15.0333333 14.4250833,14.9083333 14.4500833,14.775 C14.5000833,14.5 14.6334167,14.225 14.84175,14.0083333 C14.89175,13.9583333 14.94175,13.9166667 15.0000833,13.8833333 C15.1834167,13.7416667 15.39175,13.65 15.6084167,13.6166667 C15.69175,13.6 15.76675,13.5916667 15.8500833,13.5916667 L15.8584167,13.5916667 C15.9084167,13.5916667 15.9500833,13.5916667 16.0000833,13.6083333 C16.31675,13.6333333 16.6250833,13.7666667 16.8750833,14.0083333 C17.31675,14.45 17.4084167,15.1083333 17.1500833,15.6416667 L17.5500833,16.0416667 L19.5834167,14.0083333 C19.9500833,13.6416667 19.9500833,13.025 19.5834167,12.6583333 L17.5500833,10.625 Z M6.80841667,13.3333333 C6.80841667,12.6333333 7.08341667,11.975 7.57508333,11.475 L8.06675,10.2666667 L9.16675,7.05 L10.86675,2.05833333 C10.06675,1.80833333 9.21675,1.66666667 8.33341667,1.66666667 C3.73341667,1.66666667 8.33333333e-05,5.4 8.33333333e-05,10 C8.33333333e-05,14.0416667 2.88341667,17.4083333 6.70008333,18.175 C6.66675,17.975 6.66675,17.8083333 6.66675,17.6916667 C6.66675,17.525 6.68341667,17.3666667 6.71675,17.2083333 C6.78341667,16.7333333 6.97508333,16.2916667 7.25841667,15.9 C7.35841667,15.7666667 7.45841667,15.65 7.57508333,15.5333333 C7.60008333,15.5083333 7.66675,15.4416667 7.75841667,15.375 L7.57508333,15.1833333 C7.08341667,14.6916667 6.80841667,14.0333333 6.80841667,13.3333333 Z M10.74175,7.59166667 L13.34175,0 C14.5250833,0.383333333 15.5584167,1.03333333 16.4334167,1.94166667 C17.3000833,2.8 17.9334167,3.825 18.3334167,4.99166667 L10.74175,7.59166667 Z" id="Fill-1" fill="#333333" mask="url(#mask-2)"></path>
            </g>
        </g>
        <g id="icons-/-Error_Mark" transform="translate(0.000000, 12.000000)" opacity="0">
            <circle id="Oval" fill="#FFFFFF" fill-rule="nonzero" cx="4" cy="4" r="4"></circle>
            <path d="M4.00666043,0.66666822 C4.60923891,0.667230482 5.16978374,0.820408594 5.68831169,1.12620713 C6.1900347,1.42368891 6.5896311,1.82328531 6.88711289,2.32500833 C7.19347473,2.84449144 7.34665335,3.4050364 7.34665335,4.00666001 C7.34665335,4.60828362 7.19347473,5.16882857 6.88711289,5.68831169 C6.5896311,6.1900347 6.1900347,6.5896311 5.68831169,6.88711289 C5.16882857,7.19347473 4.60828362,7.34665335 4.00666001,7.34665335 C3.4050364,7.34665335 2.84449144,7.19347473 2.32500833,6.88711289 C1.82328531,6.5896311 1.42368891,6.1900347 1.12620713,5.68831169 C0.819845288,5.16882857 0.666666667,4.60828362 0.666666667,4.00666001 C0.666666667,3.4050364 0.819845288,2.84449144 1.12620713,2.32500833 C1.42368891,1.82328531 1.82328531,1.42368891 2.32500833,1.12620713 C2.84353627,0.820408594 3.4040811,0.667230482 4.00665958,0.66666822 L4.00666043,0.66666822 Z M4.00666043,0.66666822 C4.00555043,0.666667185 4.00444029,0.666666667 4.00333,0.666666667 L4.00999001,0.666666667 C4.00887973,0.666666667 4.00776958,0.666667185 4.00665958,0.66666822 L4.00666043,0.66666822 Z M4.34299034,5.67499167 L4.34299034,5.00899101 L3.67032967,5.00899101 L3.67032967,5.67499167 L4.34299034,5.67499167 Z M4.34299034,4.34299034 L4.34299034,2.33832834 L3.67032967,2.33832834 L3.67032967,4.34299034 L4.34299034,4.34299034 Z" id="" fill="#F83200"></path>
        </g>
    </g>
</svg>