<?xml version="1.0" encoding="UTF-8"?>
<svg width="21px" height="20px" viewBox="0 0 21 20" version="1.1" xmlns="http://www.w3.org/2000/svg" xmlns:xlink="http://www.w3.org/1999/xlink">
    <!-- Generator: Sketch 51.3 (57544) - http://www.bohemiancoding.com/sketch -->
    <title>icons / classes/ BMC_MFDatabaseServer_32</title>
    <desc>Created with Sketch.</desc>
    <defs>
        <polygon id="path-1" points="0 0.000166666667 20 0.000166666667 20 20 0 20"></polygon>
    </defs>
    <g id="icons-/-classes/-BMC_MFDatabaseServer_32" stroke="none" stroke-width="1" fill="none" fill-rule="evenodd">
        <g>
            <g id="icons-/-20x20-icon-field" transform="translate(1.000000, 0.000000)" fill="#F5A623" fill-rule="nonzero" opacity="0">
                <rect x="0" y="0" width="20" height="20"></rect>
            </g>
            <g id="Group-3">
                <mask id="mask-2" fill="white">
                    <use xlink:href="#path-1"></use>
                </mask>
                <g id="Clip-2"></g>
                <path d="M19.825,12.2168333 C19.8833333,12.1751667 19.95,12.1251667 20,12.0751667 L20,13.1168333 L20,17.9168333 C20,18.0585 19.9666667,18.2001667 19.9166667,18.3335 C19.525,19.2826667 17.85,20.0001667 15.8333333,20.0001667 C15.225,20.0001667 14.65,19.9335 14.1333333,19.8168333 C12.925,19.5501667 12.025,19.0001667 11.75,18.3335 C11.7,18.2001667 11.6666667,18.0585 11.6666667,17.9168333 L11.6666667,13.1168333 L11.6666667,12.0751667 C11.7166667,12.1251667 11.7833333,12.1751667 11.8416667,12.2168333 C11.85,12.2251667 11.8583333,12.2335 11.8666667,12.2335 C11.9083333,12.2668333 11.9583333,12.3001667 12.0083333,12.3335 C12.1583333,12.4418333 12.325,12.5418333 12.5083333,12.6251667 C12.6,12.6751667 12.6916667,12.7168333 12.7916667,12.7576667 C12.8666667,12.8001667 12.95,12.8335 13.0333333,12.8585 C13.1083333,12.8918333 13.1916667,12.9168333 13.275,12.9418333 C13.3166667,12.9585 13.3583333,12.9751667 13.4,12.9835 C13.45,12.9993333 13.5,13.0168333 13.55,13.0251667 C13.6333333,13.0585 13.725,13.0835 13.8166667,13.1001667 C13.8833333,13.1168333 13.95,13.1335 14.0166667,13.141 C14.1416667,13.1668333 14.2666667,13.2001667 14.4,13.2168333 C14.5916667,13.2501667 14.7916667,13.2751667 15,13.2918333 C15.2666667,13.3168333 15.55,13.3335 15.8333333,13.3335 C16.3333333,13.3335 16.8166667,13.2918333 17.2666667,13.2168333 C17.4,13.2001667 17.525,13.1668333 17.65,13.141 C17.7166667,13.1335 17.7833333,13.1168333 17.85,13.1001667 C17.9416667,13.0835 18.0333333,13.0585 18.1166667,13.0251667 C18.1666667,13.0168333 18.2166667,12.9993333 18.2666667,12.9835 C18.3083333,12.9751667 18.35,12.9585 18.3916667,12.9418333 C18.475,12.9168333 18.5583333,12.8918333 18.6333333,12.8585 C18.7166667,12.8335 18.8,12.8001667 18.875,12.7576667 C18.975,12.7168333 19.0666667,12.6751667 19.1583333,12.6251667 C19.3416667,12.5418333 19.5083333,12.4418333 19.6583333,12.3335 C19.7083333,12.3001667 19.7583333,12.2668333 19.8,12.2335 C19.8083333,12.2335 19.8166667,12.2251667 19.825,12.2168333 Z M15,8.37516667 C15.2666667,8.34933333 15.55,8.3335 15.8333333,8.3335 C17.8166667,8.3335 19.475,9.02516667 19.8916667,9.9585 C19.9083333,9.97516667 19.9083333,9.9835 19.9166667,10.0001667 C19.9666667,10.1335 20,10.2751667 20,10.4168333 C20,10.7668333 19.825,11.1001667 19.5166667,11.3918333 C19.4916667,11.4085 19.475,11.4335 19.45,11.4501667 C19.375,11.5251667 19.2916667,11.5835 19.1916667,11.6501667 C19.1833333,11.6501667 19.1666667,11.6585 19.1583333,11.6668333 C19.0583333,11.7335 18.95,11.8001667 18.8333333,11.8585 C18.725,11.9168333 18.6083333,11.9751667 18.4833333,12.0251667 C18.3833333,12.0668333 18.275,12.1085 18.1666667,12.1418333 C18.1083333,12.166 18.05,12.1835 17.9916667,12.1993333 C17.9333333,12.2251667 17.875,12.2418333 17.8166667,12.2501667 C17.7333333,12.2751667 17.6333333,12.3001667 17.5416667,12.3168333 C17.4666667,12.3335 17.3916667,12.3501667 17.3166667,12.3668333 C17.3,12.3668333 17.275,12.3743333 17.2583333,12.3743333 C17.15,12.3918333 17.0416667,12.4076667 16.9333333,12.4251667 C16.7833333,12.4501667 16.6333333,12.4668333 16.475,12.4751667 C16.4333333,12.4751667 16.3833333,12.4835 16.3416667,12.4835 C16.175,12.4918333 16.0083333,12.5001667 15.8333333,12.5001667 C15.6583333,12.5001667 15.4916667,12.4918333 15.325,12.4835 C15.2833333,12.4835 15.2333333,12.4751667 15.1916667,12.4751667 C15.125,12.4751667 15.0583333,12.4668333 15,12.4501667 C14.9083333,12.4501667 14.8166667,12.4418333 14.7333333,12.4251667 C14.625,12.4076667 14.5166667,12.3918333 14.4083333,12.3743333 C14.3916667,12.3743333 14.3833333,12.3668333 14.3666667,12.3668333 C14.1916667,12.3335 14.0166667,12.3001667 13.85,12.2501667 C13.7833333,12.2335 13.7333333,12.2168333 13.675,12.1993333 C13.6166667,12.1835 13.5583333,12.166 13.5,12.1418333 C13.3916667,12.1085 13.2833333,12.0668333 13.1833333,12.0251667 C13.0583333,11.9751667 12.9416667,11.9168333 12.8333333,11.8585 C12.7166667,11.8001667 12.6083333,11.7335 12.5083333,11.6668333 C12.5,11.6585 12.4833333,11.6501667 12.475,11.6501667 C12.375,11.5835 12.2916667,11.5251667 12.2166667,11.4501667 C12.1916667,11.4335 12.175,11.4085 12.15,11.3918333 C11.8416667,11.1001667 11.6666667,10.7668333 11.6666667,10.4168333 C11.6666667,10.2751667 11.7,10.1335 11.75,10.0001667 C11.7583333,9.9835 11.7583333,9.97516667 11.775,9.9585 C12.1333333,9.1585 13.4,8.54183333 15,8.37516667 Z M4.16666667,7.50016667 L10.8333333,7.50016667 L10.8333333,4.16683333 L4.16666667,4.16683333 L4.16666667,7.50016667 Z M10.2,18.9418333 L10.1916667,18.9168333 C10.0666667,18.5835 10,18.2501667 10,17.9168333 L10,10.4168333 C10,10.0826667 10.0666667,9.75016667 10.1916667,9.41683333 L10.2,9.391 L10.2083333,9.36683333 C10.2833333,9.18266667 10.3833333,9.00016667 10.5,8.83266667 C11.2916667,7.6585 12.95,6.86683333 15,6.70016667 L15,1.5835 C15,0.707666667 14.2833333,0.000166666667 13.3916667,0.000166666667 L1.60833333,0.000166666667 C0.716666667,0.000166666667 0,0.707666667 0,1.5835 L0,18.416 C0,19.2918333 0.716666667,20.0001667 1.60833333,20.0001667 L10.9083333,20.0001667 C10.6,19.6918333 10.3666667,19.3418333 10.2083333,18.9668333 L10.2,18.9418333 Z" id="Fill-1" fill="#333333" mask="url(#mask-2)"></path>
            </g>
            <g id="icons-/-Error_Mark" transform="translate(1.000000, 12.000000)" opacity="0">
                <circle id="Oval" fill="#FFFFFF" fill-rule="nonzero" cx="4" cy="4" r="4"></circle>
                <path d="M4.00666043,0.66666822 C4.60923891,0.667230482 5.16978374,0.820408594 5.68831169,1.12620713 C6.1900347,1.42368891 6.5896311,1.82328531 6.88711289,2.32500833 C7.19347473,2.84449144 7.34665335,3.4050364 7.34665335,4.00666001 C7.34665335,4.60828362 7.19347473,5.16882857 6.88711289,5.68831169 C6.5896311,6.1900347 6.1900347,6.5896311 5.68831169,6.88711289 C5.16882857,7.19347473 4.60828362,7.34665335 4.00666001,7.34665335 C3.4050364,7.34665335 2.84449144,7.19347473 2.32500833,6.88711289 C1.82328531,6.5896311 1.42368891,6.1900347 1.12620713,5.68831169 C0.819845288,5.16882857 0.666666667,4.60828362 0.666666667,4.00666001 C0.666666667,3.4050364 0.819845288,2.84449144 1.12620713,2.32500833 C1.42368891,1.82328531 1.82328531,1.42368891 2.32500833,1.12620713 C2.84353627,0.820408594 3.4040811,0.667230482 4.00665958,0.66666822 L4.00666043,0.66666822 Z M4.00666043,0.66666822 C4.00555043,0.666667185 4.00444029,0.666666667 4.00333,0.666666667 L4.00999001,0.666666667 C4.00887973,0.666666667 4.00776958,0.666667185 4.00665958,0.66666822 L4.00666043,0.66666822 Z M4.34299034,5.67499167 L4.34299034,5.00899101 L3.67032967,5.00899101 L3.67032967,5.67499167 L4.34299034,5.67499167 Z M4.34299034,4.34299034 L4.34299034,2.33832834 L3.67032967,2.33832834 L3.67032967,4.34299034 L4.34299034,4.34299034 Z" id="" fill="#F83200"></path>
            </g>
        </g>
    </g>
</svg>