<?xml version="1.0" encoding="UTF-8"?>
<svg width="20px" height="20px" viewBox="0 0 20 20" version="1.1" xmlns="http://www.w3.org/2000/svg" xmlns:xlink="http://www.w3.org/1999/xlink">
    <!-- Generator: Sketch 51.3 (57544) - http://www.bohemiancoding.com/sketch -->
    <title>icons / classes/ BMC_Storage_32_Error</title>
    <desc>Created with Sketch.</desc>
    <defs>
        <polygon id="path-1" points="0 0 13.3333333 0 13.3333333 19.9996667 0 19.9996667"></polygon>
    </defs>
    <g id="icons-/-classes/-BMC_Storage_32" stroke="none" stroke-width="1" fill="none" fill-rule="evenodd">
        <g>
            <g id="icons-/-20x20-icon-field" fill="#F5A623" fill-rule="nonzero" opacity="0">
                <rect x="0" y="0" width="20" height="20"></rect>
            </g>
            <g id="Group-3" transform="translate(3.000000, 0.000000)">
                <mask id="mask-2" fill="white">
                    <use xlink:href="#path-1"></use>
                </mask>
                <g id="Clip-2"></g>
                <path d="M13.3,2.99966667 C13.0083333,1.54133333 10.8416667,0.358 8.00833333,0.0663333333 C7.81666667,0.0496666667 7.60833333,0.033 7.40833333,0.0255 C7.16666667,0.008 6.91666667,-0.000333333333 6.66666667,-0.000333333333 C6.41666667,-0.000333333333 6.16666667,0.008 5.925,0.0255 C5.725,0.033 5.51666667,0.0496666667 5.325,0.0663333333 C2.49166667,0.358 0.325,1.54133333 0.0333333333,2.99966667 C0.00833333333,3.10883333 0,3.2255 0,3.333 L0,4.99966667 C0,5.733 0.475,6.40883333 1.28333333,6.958 C1.34166667,7.00883333 1.40833333,7.04966667 1.475,7.083 C1.68333333,7.22466667 1.91666667,7.3505 2.16666667,7.45883333 C2.55,7.63383333 2.975,7.79133333 3.43333333,7.91633333 C4.39166667,8.18383333 5.49166667,8.333 6.66666667,8.333 C7.84166667,8.333 8.9425,8.18383333 9.9,7.91633333 C10.3583333,7.79133333 10.7833333,7.63383333 11.1666667,7.45883333 C11.4166667,7.3505 11.6508333,7.22466667 11.8591667,7.083 C11.925,7.04966667 11.9916667,7.00883333 12.05,6.958 C12.8583333,6.40883333 13.3333333,5.733 13.3333333,4.99966667 L13.3333333,3.333 C13.3333333,3.2255 13.325,3.10883333 13.3,2.99966667 M13.0833333,8.25883333 C13.0083333,8.31716667 12.9333333,8.36633333 12.85,8.41633333 C12.6,8.583 12.3333333,8.74216667 12.05,8.8755 C11.8416667,8.98383333 11.6166667,9.08383333 11.3916667,9.16633333 C10.0666667,9.69966667 8.45,9.99966667 6.66666667,9.99966667 C4.88333333,9.99966667 3.26666667,9.69966667 1.94166667,9.16633333 C1.71666667,9.08383333 1.49166667,8.98383333 1.28333333,8.8755 C1,8.74216667 0.733333333,8.583 0.483333333,8.41633333 C0.400833333,8.36633333 0.325,8.31716667 0.25,8.25883333 C0.15,8.44966667 0.075,8.64216667 0.0333333333,8.833 C0.00833333333,8.94216667 0,9.05883333 0,9.16633333 L0,10.833 C0,11.5663333 0.475,12.2421667 1.28333333,12.7913333 C1.34166667,12.8421667 1.40833333,12.883 1.475,12.9163333 C1.68333333,13.058 1.91666667,13.1838333 2.16666667,13.2921667 C2.55,13.4671667 2.975,13.6246667 3.43333333,13.7496667 C4.39166667,14.0171667 5.49166667,14.1663333 6.66666667,14.1663333 C7.84166667,14.1663333 8.9425,14.0171667 9.9,13.7496667 C10.3583333,13.6246667 10.7833333,13.4671667 11.1666667,13.2921667 C11.4166667,13.1838333 11.6508333,13.058 11.8591667,12.9163333 C11.925,12.883 11.9916667,12.8421667 12.05,12.7913333 C12.8583333,12.2421667 13.3333333,11.5663333 13.3333333,10.833 L13.3333333,9.16633333 C13.3333333,9.05883333 13.325,8.94216667 13.3,8.833 C13.2583333,8.64216667 13.1833333,8.44966667 13.0833333,8.25883333 M13.3,14.6663333 C13.325,14.7755 13.3333333,14.8921667 13.3333333,14.9996667 L13.3333333,16.6663333 C13.3333333,18.508 10.35,19.9996667 6.66666667,19.9996667 C2.98333333,19.9996667 0,18.508 0,16.6663333 L0,14.9996667 C0,14.8921667 0.00833333333,14.7755 0.0333333333,14.6663333 C0.075,14.4755 0.15,14.283 0.25,14.0921667 C0.325,14.1505 0.400833333,14.1996667 0.483333333,14.2496667 C0.733333333,14.4163333 1,14.5755 1.28333333,14.7088333 C1.49166667,14.8171667 1.71666667,14.9171667 1.94166667,14.9996667 C3.26666667,15.533 4.88333333,15.833 6.66666667,15.833 C8.45,15.833 10.0666667,15.533 11.3916667,14.9996667 C11.6166667,14.9171667 11.8416667,14.8171667 12.05,14.7088333 C12.3333333,14.5755 12.6,14.4163333 12.85,14.2496667 C12.9333333,14.1996667 13.0083333,14.1505 13.0833333,14.0921667 C13.1833333,14.283 13.2583333,14.4755 13.3,14.6663333" id="Fill-1" fill="#333333" mask="url(#mask-2)"></path>
            </g>
            <g id="icons-/-Error_Mark" transform="translate(0.000000, 12.000000)">
                <circle id="Oval" fill="#FFFFFF" fill-rule="nonzero" cx="4" cy="4" r="4"></circle>
                <path d="M4.00666043,0.66666822 C4.60923891,0.667230482 5.16978374,0.820408594 5.68831169,1.12620713 C6.1900347,1.42368891 6.5896311,1.82328531 6.88711289,2.32500833 C7.19347473,2.84449144 7.34665335,3.4050364 7.34665335,4.00666001 C7.34665335,4.60828362 7.19347473,5.16882857 6.88711289,5.68831169 C6.5896311,6.1900347 6.1900347,6.5896311 5.68831169,6.88711289 C5.16882857,7.19347473 4.60828362,7.34665335 4.00666001,7.34665335 C3.4050364,7.34665335 2.84449144,7.19347473 2.32500833,6.88711289 C1.82328531,6.5896311 1.42368891,6.1900347 1.12620713,5.68831169 C0.819845288,5.16882857 0.666666667,4.60828362 0.666666667,4.00666001 C0.666666667,3.4050364 0.819845288,2.84449144 1.12620713,2.32500833 C1.42368891,1.82328531 1.82328531,1.42368891 2.32500833,1.12620713 C2.84353627,0.820408594 3.4040811,0.667230482 4.00665958,0.66666822 L4.00666043,0.66666822 Z M4.00666043,0.66666822 C4.00555043,0.666667185 4.00444029,0.666666667 4.00333,0.666666667 L4.00999001,0.666666667 C4.00887973,0.666666667 4.00776958,0.666667185 4.00665958,0.66666822 L4.00666043,0.66666822 Z M4.34299034,5.67499167 L4.34299034,5.00899101 L3.67032967,5.00899101 L3.67032967,5.67499167 L4.34299034,5.67499167 Z M4.34299034,4.34299034 L4.34299034,2.33832834 L3.67032967,2.33832834 L3.67032967,4.34299034 L4.34299034,4.34299034 Z" id="" fill="#F83200"></path>
            </g>
        </g>
    </g>
</svg>