<?xml version="1.0" encoding="UTF-8"?>
<svg width="20px" height="20px" viewBox="0 0 20 20" version="1.1" xmlns="http://www.w3.org/2000/svg" xmlns:xlink="http://www.w3.org/1999/xlink">
    <!-- Generator: Sketch 51.3 (57544) - http://www.bohemiancoding.com/sketch -->
    <title>icons / classes/ BMC_Rack_32_Error</title>
    <desc>Created with Sketch.</desc>
    <defs></defs>
    <g id="icons-/-classes/-BMC_Rack_32" stroke="none" stroke-width="1" fill="none" fill-rule="evenodd">
        <g id="icons-/-classes/-Rack">
            <g id="icons-/-20x20-icon-field" fill="#F5A623" fill-rule="nonzero" opacity="0">
                <rect x="0" y="0" width="20" height="20"></rect>
            </g>
            <path d="M18.5504496,0.751248751 C18.6343661,0.787212967 18.7152843,0.844155455 18.7932068,0.922077922 C18.8711293,1.00000039 18.9280717,1.08091866 18.964036,1.16483516 C19.0000002,1.24875167 19.017982,1.33866086 19.017982,1.43456543 L19.017982,3.55644356 C19.017982,3.6643362 19.0029972,3.76023934 18.973027,3.84415584 C18.9430568,3.92807235 18.8861143,4.01198759 18.8021978,4.0959041 C18.7302694,4.16783253 18.6493511,4.22477501 18.5594406,4.26673327 C18.46953,4.30869152 18.3766239,4.32967033 18.2807193,4.32967033 L1.73726274,4.32967033 C1.64135816,4.32967033 1.54545502,4.30569455 1.44955045,4.25774226 C1.35364587,4.20978997 1.2727276,4.15284748 1.20679321,4.08691309 C1.14085881,4.02097869 1.08991027,3.94305739 1.05394605,3.85314685 C1.01798184,3.76323631 1,3.67033015 1,3.57442557 L1,1.43456543 C1,1.33866086 1.01798184,1.24875167 1.05394605,1.16483516 C1.08991027,1.08091866 1.14385578,1.00000039 1.21578422,0.922077922 C1.28771265,0.844155455 1.36563395,0.784215994 1.44955045,0.742257742 C1.53346695,0.700299491 1.62937009,0.679320679 1.73726274,0.679320679 L18.2807193,0.679320679 C18.3646358,0.679320679 18.454545,0.703296464 18.5504496,0.751248751 Z M18.2627373,5.4985015 C18.3706299,5.4985015 18.466533,5.51348636 18.5504496,5.54345654 C18.6343661,5.57342672 18.7152843,5.62737224 18.7932068,5.70529471 C18.8711293,5.78321717 18.9250748,5.86713242 18.955045,5.95704296 C18.9850151,6.0469535 19,6.13985966 19,6.23576424 L19,8.35764236 C19,8.465535 18.9880121,8.55844117 18.964036,8.63636364 C18.9400598,8.7142861 18.8891113,8.79520438 18.8111888,8.87912088 C18.7332663,8.96303738 18.6493511,9.01997987 18.5594406,9.04995005 C18.46953,9.07992023 18.3766239,9.09490509 18.2807193,9.09490509 L1.73726274,9.09490509 C1.64135816,9.09490509 1.55144897,9.0829172 1.46753247,9.05894106 C1.38361596,9.03496492 1.30269769,8.9810194 1.22477522,8.8971029 C1.14685276,8.81318639 1.0869133,8.72927115 1.04495504,8.64535465 C1.00299679,8.56143814 0.982017982,8.465535 0.982017982,8.35764236 L0.982017982,6.23576424 C0.982017982,6.13985966 1.00299679,6.0469535 1.04495504,5.95704296 C1.0869133,5.86713242 1.14385578,5.78321717 1.21578422,5.70529471 C1.28771265,5.62737224 1.36563395,5.57342672 1.44955045,5.54345654 C1.53346695,5.51348636 1.62937009,5.4985015 1.73726274,5.4985015 L18.2627373,5.4985015 Z M18.2627373,10.2817183 C18.3586418,10.2817183 18.454545,10.3026971 18.5504496,10.3446553 C18.6463541,10.3866136 18.7302694,10.4435561 18.8021978,10.5154845 C18.8741262,10.5874129 18.9250748,10.6683312 18.955045,10.7582418 C18.9850151,10.8481523 19,10.9410585 19,11.036963 L19,13.1768232 C19,13.2727278 18.9880121,13.3626369 18.964036,13.4465534 C18.9400598,13.53047 18.8891113,13.6113882 18.8111888,13.6893107 C18.7332663,13.7672332 18.6493511,13.8241756 18.5594406,13.8601399 C18.46953,13.8961041 18.3766239,13.9140859 18.2807193,13.9140859 L1.73726274,13.9140859 C1.64135816,13.9140859 1.55144897,13.8961041 1.46753247,13.8601399 C1.38361596,13.8241756 1.30269769,13.7672332 1.22477522,13.6893107 C1.14685276,13.6113882 1.0869133,13.53047 1.04495504,13.4465534 C1.00299679,13.3626369 0.982017982,13.2727278 0.982017982,13.1768232 L0.982017982,11.036963 C0.982017982,10.9410585 1.00299679,10.8481523 1.04495504,10.7582418 C1.0869133,10.6683312 1.14385578,10.5874129 1.21578422,10.5154845 C1.28771265,10.4435561 1.36563395,10.3866136 1.44955045,10.3446553 C1.53346695,10.3026971 1.62937009,10.2817183 1.73726274,10.2817183 L18.2627373,10.2817183 Z M18.2627373,15.0829171 C18.3586418,15.0829171 18.454545,15.1008989 18.5504496,15.1368631 C18.6463541,15.1728274 18.7302694,15.2297698 18.8021978,15.3076923 C18.8741262,15.3856148 18.9250748,15.466533 18.955045,15.5504496 C18.9850151,15.6343661 19,15.7242752 19,15.8201798 L19,17.9420579 C19,18.0499506 18.9880121,18.1458537 18.964036,18.2297702 C18.9400598,18.3136867 18.8891113,18.394605 18.8111888,18.4725275 C18.7332663,18.5504499 18.6463541,18.6073924 18.5504496,18.6433566 C18.454545,18.6793209 18.3586418,18.6973027 18.2627373,18.6973027 L1.73726274,18.6973027 C1.64135816,18.6973027 1.548452,18.6793209 1.45854146,18.6433566 C1.36863092,18.6073924 1.28771265,18.5534469 1.21578422,18.4815185 C1.14385578,18.40959 1.0869133,18.3256748 1.04495504,18.2297702 C1.00299679,18.1338657 0.982017982,18.0379625 0.982017982,17.9420579 L0.982017982,15.8201798 C0.982017982,15.7242752 1.00299679,15.6313691 1.04495504,15.5414585 C1.0869133,15.451548 1.14385578,15.3706297 1.21578422,15.2987013 C1.28771265,15.2267729 1.36563395,15.1728274 1.44955045,15.1368631 C1.53346695,15.1008989 1.62937009,15.0829171 1.73726274,15.0829171 L18.2627373,15.0829171 Z M17.5974026,1.83016983 L16.2307692,1.83016983 L16.2307692,3.21478521 L17.5974026,3.21478521 L17.5974026,1.83016983 Z M16.2307692,6.64935065 L16.2307692,8.01598402 L17.5974026,8.01598402 L17.5974026,6.64935065 L16.2307692,6.64935065 Z M17.5974026,11.4325674 L16.2307692,11.4325674 L16.2307692,12.7992008 L17.5974026,12.7992008 L17.5974026,11.4325674 Z M17.5974026,16.2337662 L16.2307692,16.2337662 L16.2307692,17.6003996 L17.5974026,17.6003996 L17.5974026,16.2337662 Z" id="" fill="#2B2826"></path>
        </g>
        <g id="icons-/-Error_Mark" transform="translate(0.000000, 12.000000)">
            <circle id="Oval" fill="#FFFFFF" fill-rule="nonzero" cx="4" cy="4" r="4"></circle>
            <path d="M4.00666043,0.66666822 C4.60923891,0.667230482 5.16978374,0.820408594 5.68831169,1.12620713 C6.1900347,1.42368891 6.5896311,1.82328531 6.88711289,2.32500833 C7.19347473,2.84449144 7.34665335,3.4050364 7.34665335,4.00666001 C7.34665335,4.60828362 7.19347473,5.16882857 6.88711289,5.68831169 C6.5896311,6.1900347 6.1900347,6.5896311 5.68831169,6.88711289 C5.16882857,7.19347473 4.60828362,7.34665335 4.00666001,7.34665335 C3.4050364,7.34665335 2.84449144,7.19347473 2.32500833,6.88711289 C1.82328531,6.5896311 1.42368891,6.1900347 1.12620713,5.68831169 C0.819845288,5.16882857 0.666666667,4.60828362 0.666666667,4.00666001 C0.666666667,3.4050364 0.819845288,2.84449144 1.12620713,2.32500833 C1.42368891,1.82328531 1.82328531,1.42368891 2.32500833,1.12620713 C2.84353627,0.820408594 3.4040811,0.667230482 4.00665958,0.66666822 L4.00666043,0.66666822 Z M4.00666043,0.66666822 C4.00555043,0.666667185 4.00444029,0.666666667 4.00333,0.666666667 L4.00999001,0.666666667 C4.00887973,0.666666667 4.00776958,0.666667185 4.00665958,0.66666822 L4.00666043,0.66666822 Z M4.34299034,5.67499167 L4.34299034,5.00899101 L3.67032967,5.00899101 L3.67032967,5.67499167 L4.34299034,5.67499167 Z M4.34299034,4.34299034 L4.34299034,2.33832834 L3.67032967,2.33832834 L3.67032967,4.34299034 L4.34299034,4.34299034 Z" id="" fill="#F83200"></path>
        </g>
    </g>
</svg>