<?xml version="1.0" encoding="UTF-8"?>
<svg width="20px" height="20px" viewBox="0 0 20 20" version="1.1" xmlns="http://www.w3.org/2000/svg" xmlns:xlink="http://www.w3.org/1999/xlink">
    <!-- Generator: Sketch 51.3 (57544) - http://www.bohemiancoding.com/sketch -->
    <title>icons / classes/ BMC_TokenRing_32</title>
    <desc>Created with Sketch.</desc>
    <defs></defs>
    <g id="icons-/-classes/-BMC_TokenRing_32" stroke="none" stroke-width="1" fill="none" fill-rule="evenodd">
        <g transform="translate(0.000000, -0.100000)">
            <g id="icons-/-20x20-icon-field" transform="translate(0.000000, 0.100000)" fill="#F5A623" fill-rule="nonzero" opacity="0">
                <rect x="0" y="0" width="20" height="20"></rect>
            </g>
            <path d="M11.0794584,9.57444596 L10.0002256,10.6536787 L8.92099289,9.57444596 L9.55949185,8.935947 L8.90404159,8.28049674 L9.54819098,7.63634734 L8.89274072,6.98089708 L8.89839116,5.0654002 C8.80044982,5.02019651 8.69309266,4.9655762 8.57631646,4.90153764 C8.47837512,4.8488 8.38137699,4.7819372 8.28531914,4.70094726 C8.1892613,4.61995731 8.09885527,4.53708511 8.01409835,4.45232819 C7.92934142,4.36757127 7.85117788,4.27434005 7.77960537,4.17263174 C7.70426588,4.08222436 7.63834482,3.98240104 7.5818402,3.87315878 C7.52533559,3.76391652 7.48013257,3.65844282 7.4462298,3.55673452 C7.41609401,3.42112344 7.3934925,3.30623245 7.3784246,3.21205809 C7.36335671,3.11788373 7.36147325,3.00110927 7.37277417,2.86173122 C7.3690072,2.70728528 7.38972524,2.55849202 7.43492894,2.41534699 C7.48013263,2.25713407 7.53098602,2.11210773 7.58749063,1.98026363 C7.64399525,1.84841953 7.7287509,1.70716011 7.84176013,1.55648114 C7.93970147,1.42087006 8.05365073,1.28808621 8.18361135,1.15812559 C8.31357196,1.02816498 8.44823927,0.916099169 8.58761732,0.82192481 C8.71192748,0.7352844 8.85695382,0.654295667 9.02270069,0.57895618 C9.16584571,0.511150641 9.31652243,0.464064168 9.47473535,0.437695348 C9.63294827,0.411326527 9.78927536,0.396258856 9.94372131,0.392491881 C10.1170021,0.392491881 10.2865134,0.411326471 10.4522603,0.448996214 C10.6180072,0.486665958 10.7705674,0.533752431 10.9099454,0.590257046 C11.0681583,0.650528636 11.2178933,0.724925263 11.3591548,0.813449161 C11.5004164,0.901973058 11.6388506,1.00650503 11.7744617,1.12704821 C11.9100728,1.24759139 12.027789,1.37095795 12.1276138,1.49715159 C12.2274386,1.62334523 12.3093691,1.76366292 12.3734076,1.91810887 C12.4374462,2.05748692 12.4882996,2.20628017 12.5259693,2.3644931 C12.5598721,2.5114051 12.5730563,2.67526602 12.5655224,2.85608079 C12.5730563,2.97662397 12.5692894,3.09716534 12.5542215,3.21770852 C12.5391536,3.3382517 12.5109017,3.45314269 12.469465,3.56238495 C12.4317952,3.68292813 12.3865922,3.79405221 12.3338546,3.89576051 C12.2811169,3.99746882 12.2170793,4.09352523 12.1417399,4.18393261 C12.0626334,4.29317487 11.9891785,4.38923127 11.921373,4.47210471 C11.8460335,4.55497814 11.764103,4.63502515 11.6755791,4.71224812 C11.5870552,4.7894711 11.4919405,4.85633389 11.3902322,4.9128385 C11.2847569,4.97311009 11.1792832,5.02584694 11.073808,5.07105064 L11.0794584,9.57444596 Z M10.3901055,2.83912949 C10.4315423,2.81276067 10.4692114,2.78262533 10.5031142,2.74872256 C10.537017,2.71481979 10.5709192,2.67338369 10.604822,2.62441303 L10.6895785,2.49445306 L10.7404324,2.35319223 C10.7517333,2.29668761 10.7555002,2.24395076 10.7517333,2.1949801 C10.7592672,2.14224246 10.7583255,2.09421425 10.7489081,2.05089405 C10.7394906,2.00757384 10.7234812,1.95954564 10.7008794,1.906808 C10.6895784,1.86537128 10.6669769,1.82393519 10.6330742,1.78249847 L10.5257159,1.66383937 C10.4993471,1.63747055 10.4635614,1.60921866 10.4183577,1.57908287 L10.2827473,1.48867594 C10.2375436,1.46607409 10.1885737,1.44912296 10.135836,1.43782204 C10.0830984,1.42652111 10.0341285,1.42463766 9.98892478,1.4321716 C9.92865319,1.42463766 9.87685807,1.42557939 9.83353786,1.43499682 C9.79021766,1.44441426 9.74124773,1.46136539 9.6866266,1.48585072 C9.63200547,1.51033605 9.58586073,1.53764621 9.54819098,1.567782 C9.51805519,1.59038385 9.47850255,1.62616957 9.42953188,1.67514024 C9.39562911,1.709043 9.36549377,1.74671218 9.33912495,1.7881489 L9.26566932,1.906808 C9.24306747,1.95954564 9.22894153,2.0094573 9.22329107,2.05654448 C9.21764061,2.10363166 9.21481542,2.15354332 9.21481542,2.20628096 C9.21481542,2.2590186 9.21669888,2.30610508 9.22046585,2.3475418 C9.23176677,2.41158036 9.24683445,2.46055029 9.26566932,2.49445306 C9.28450419,2.52835583 9.31181434,2.57073366 9.3476006,2.62158781 C9.38338686,2.67244196 9.41728912,2.71387806 9.4493084,2.74589734 C9.48132768,2.77791662 9.51993859,2.8089937 9.56514228,2.83912949 L9.67815095,2.91823556 C9.72712161,2.93707043 9.77609155,2.94837118 9.82506221,2.95213816 L9.97762391,2.96908946 C10.0077597,2.96155551 10.0548462,2.95590513 10.1188847,2.95213816 L10.1245352,2.94648772 C10.1735058,2.94272075 10.2224758,2.93142 10.2714464,2.91258512 L10.3901055,2.83912949 Z" id="" fill="#2B2826"></path>
            <path d="M8.15396787,17.371111 C8.50906266,17.1437518 8.82586111,16.8618242 9.09253336,16.5371581 C9.38908134,16.5785833 9.6920396,16.6 10,16.6 C10.3079604,16.6 10.6109187,16.5785833 10.9074666,16.5371581 C11.1741389,16.8618242 11.4909373,17.1437518 11.8460321,17.371111 C11.2554773,17.5205834 10.637013,17.6 10,17.6 C9.36298696,17.6 8.74452266,17.5205834 8.15396787,17.371111 Z M2.68464014,11.7613389 C2.5637931,11.2269517 2.5,10.6709257 2.5,10.1 C2.5,7.42517981 3.90024395,5.07740413 6.00770396,3.74970084 C6.0025932,3.8324778 6,3.91593606 6,4 C6,4.30894282 6.03502451,4.60970523 6.10131943,4.89853315 C4.52178829,6.08434038 3.5,7.97284447 3.5,10.1 C3.5,10.3515988 3.51429485,10.5998588 3.54211667,10.8440123 C3.21052967,11.1026212 2.92075683,11.4123441 2.68464014,11.7613389 Z M17.3153599,11.7613389 C17.0792432,11.4123441 16.7894703,11.1026212 16.4578833,10.8440123 C16.4857052,10.5998588 16.5,10.3515988 16.5,10.1 C16.5,7.97284447 15.4782117,6.08434038 13.8986806,4.89853315 C13.9649755,4.60970523 14,4.30894282 14,4 C14,3.91593606 13.9974068,3.8324778 13.992296,3.74970084 C16.099756,5.07740413 17.5,7.42517981 17.5,10.1 C17.5,10.6709257 17.4362069,11.2269517 17.3153599,11.7613389 Z" id="Combined-Shape" fill="#2B2826" fill-rule="nonzero"></path>
            <path d="M18.9101989,17.6085384 L18.856933,19.1338743 L17.3315972,19.0806084 L17.3631105,18.1781846 L16.4367285,18.1458346 L16.4685207,17.2354247 L15.5421387,17.2030747 L14.2399055,15.7983154 C14.1374469,15.8320514 14.0216799,15.865322 13.892601,15.8981283 C13.7850042,15.9263543 13.668464,15.9436065 13.5429767,15.9498855 C13.4174894,15.9561645 13.2948519,15.9572124 13.1750606,15.9530292 C13.0552692,15.948846 12.9345204,15.9339684 12.8128107,15.908396 C12.6960532,15.8936576 12.5797623,15.8656095 12.4639344,15.8242508 C12.3481065,15.7828922 12.2431142,15.736582 12.1489544,15.6853188 C12.0344279,15.6066917 11.9395428,15.53808 11.864296,15.4794815 C11.7890493,15.420883 11.7080318,15.3367641 11.6212412,15.2271222 C11.5131543,15.1167367 11.4268298,14.9937865 11.362265,14.858268 C11.287424,14.7117296 11.2257081,14.5709821 11.1771154,14.4360214 C11.1285228,14.3010606 11.0941705,14.1399468 11.0740574,13.9526751 C11.0532006,13.7866996 11.0459795,13.6118744 11.0523937,13.4281943 C11.058808,13.2445142 11.0808687,13.0707116 11.1185766,12.9067812 C11.1504027,12.7586371 11.2012341,12.600498 11.2710722,12.4323591 C11.3295186,12.2851446 11.4076037,12.1479464 11.5053298,12.0207605 C11.6030559,11.8935747 11.7071102,11.77594 11.8174957,11.6678532 C11.9442253,11.5496759 12.0810432,11.4478442 12.2279535,11.3623551 C12.3748638,11.2768659 12.5185521,11.2072569 12.6590228,11.1535262 C12.8158376,11.0897051 12.9760852,11.0419963 13.1397705,11.0103985 C13.3034558,10.9788006 13.4759908,10.9608385 13.6573807,10.9565117 C13.8387706,10.9521849 14.0089986,10.9621272 14.1680697,10.9863391 C14.3271408,11.0105509 14.4827574,11.0572963 14.6349241,11.1265767 C14.7768145,11.1848372 14.9154831,11.2589757 15.050934,11.3489946 C15.1759226,11.4333176 15.2973178,11.5441663 15.4151232,11.681544 C15.5028435,11.7645656 15.5822975,11.855293 15.6534878,11.953729 C15.7246781,12.052165 15.7823715,12.1554586 15.8265696,12.2636131 C15.88123,12.3774636 15.923957,12.4895629 15.954752,12.5999147 C15.9855471,12.7102664 16.0042232,12.8241912 16.0107811,12.9416923 C16.0274293,13.0755375 16.0392181,13.1958849 16.0461479,13.3027379 C16.0475676,13.4147291 16.0422394,13.5291482 16.030163,13.6459987 C16.0180867,13.7628492 15.9941245,13.8766176 15.9582758,13.9873073 C15.9222412,14.1033211 15.8810691,14.2138233 15.8347582,14.3188172 L18.9101989,17.6085384 Z M13.8125633,13.1527773 C13.8248847,13.1052326 13.831882,13.0575027 13.8335553,13.0095862 C13.8352286,12.9616696 13.8317637,12.9082439 13.8231607,12.8493074 L13.7965152,12.6964569 L13.7373678,12.558463 C13.7070967,12.5094309 13.6738852,12.4682926 13.6377323,12.4350468 C13.6072753,12.3913388 13.5738314,12.3568554 13.5373996,12.3315957 C13.5009678,12.306336 13.4565041,12.2821288 13.4040072,12.2589733 C13.3674825,12.2363756 13.3226934,12.2214854 13.2696387,12.2143021 L13.1101966,12.2007385 C13.0729281,12.199437 13.0274884,12.2031807 12.9738759,12.2119696 L12.8130394,12.2383363 C12.7645651,12.2526352 12.7171901,12.2736353 12.670913,12.3013373 C12.6246359,12.3290393 12.5875371,12.3610593 12.5596153,12.3973981 C12.5103973,12.4329932 12.473159,12.4690062 12.4478993,12.5054379 C12.4226396,12.5418697 12.3983859,12.5876644 12.3751375,12.6428234 C12.3518891,12.6979823 12.3367665,12.7494264 12.3297691,12.797157 C12.3231436,12.8342395 12.3186224,12.8873863 12.3162055,12.9565991 C12.3145322,13.0045157 12.3181829,13.0526174 12.3271578,13.1009058 L12.354361,13.2377842 C12.3737981,13.2917685 12.3975067,13.3379054 12.4254876,13.3761964 C12.4534685,13.4144874 12.4854419,13.4529173 12.5214089,13.4914871 C12.5573759,13.530057 12.5908663,13.5632094 12.621881,13.5909452 C12.6738202,13.6300728 12.7182374,13.655611 12.755134,13.6675606 C12.7920306,13.6795102 12.8409056,13.6918779 12.9017604,13.7046641 C12.9626153,13.7174503 13.0156692,13.7246334 13.0609237,13.7262138 C13.1061782,13.7277941 13.155611,13.7241898 13.2092234,13.7154009 L13.3458229,13.6961837 C13.3944832,13.6765607 13.4380046,13.6514282 13.4763885,13.6207853 L13.5995259,13.5291358 C13.6164276,13.5030733 13.647011,13.466828 13.6912767,13.4203988 L13.6915556,13.4124127 C13.7248014,13.3762598 13.7529087,13.3345976 13.7758782,13.2874247 L13.8125633,13.1527773 Z" id="-copy" fill="#2B2826"></path>
            <path d="M1.0887114,17.6085384 L4.16415209,14.3188172 C4.1178412,14.2138233 4.07666906,14.1033211 4.04063445,13.9873073 C4.00478576,13.8766176 3.9808236,13.7628492 3.96874726,13.6459987 C3.95667093,13.5291482 3.9513427,13.4147291 3.95276244,13.3027379 C3.95969215,13.1958849 3.97148095,13.0755375 3.98812919,12.9416923 C3.99468707,12.8241912 4.01336324,12.7102664 4.04415827,12.5999147 C4.0749533,12.4895629 4.11768034,12.3774636 4.17234069,12.2636131 C4.21653883,12.1554586 4.27423218,12.052165 4.34542247,11.953729 C4.41661276,11.855293 4.49606682,11.7645656 4.58378706,11.681544 C4.70159245,11.5441663 4.82298766,11.4333176 4.94797632,11.3489946 C5.08342718,11.2589757 5.22209575,11.1848372 5.36398619,11.1265767 C5.51615292,11.0572963 5.6717695,11.0105509 5.83084061,10.9863391 C5.98991171,10.9621272 6.16013967,10.9521849 6.34152958,10.9565117 C6.5229195,10.9608385 6.69545452,10.9788006 6.85913982,11.0103985 C7.02282512,11.0419963 7.18307273,11.0897051 7.33988747,11.1535262 C7.48035817,11.2072569 7.62404652,11.2768659 7.77095681,11.3623551 C7.9178671,11.4478442 8.05468498,11.5496759 8.18141455,11.6678532 C8.29180009,11.77594 8.39585436,11.8935747 8.49358048,12.0207605 C8.59130659,12.1479464 8.66939167,12.2851446 8.72783805,12.4323591 C8.79767623,12.600498 8.84850759,12.7586371 8.88033367,12.9067812 C8.91804156,13.0707116 8.9401023,13.2445142 8.94651655,13.4281943 C8.9529308,13.6118744 8.94570965,13.7866996 8.92485287,13.9526751 C8.90473978,14.1399468 8.87038745,14.3010606 8.82179485,14.4360214 C8.77320224,14.5709821 8.71148634,14.7117296 8.63664527,14.858268 C8.57208048,14.9937865 8.48575595,15.1167367 8.37766908,15.2271222 C8.29087845,15.3367641 8.20986098,15.420883 8.13461426,15.4794815 C8.05936754,15.53808 7.96448238,15.6066917 7.84995592,15.6853188 C7.75579611,15.736582 7.65080382,15.7828922 7.53497592,15.8242508 C7.41914803,15.8656095 7.30285707,15.8936576 7.18609957,15.908396 C7.06438985,15.9339684 6.94364111,15.948846 6.82384974,15.9530292 C6.70405837,15.9572124 6.58142089,15.9561645 6.45593361,15.9498855 C6.33044634,15.9436065 6.21390608,15.9263543 6.10630934,15.8981283 C5.97723043,15.865322 5.86146342,15.8320514 5.75900482,15.7983154 L4.45677155,17.2030747 L3.53038957,17.2354247 L3.56218179,18.1458346 L2.63579981,18.1781846 L2.66731314,19.0806084 L1.1419773,19.1338743 L1.0887114,17.6085384 Z M6.18634695,13.1527773 L6.2230321,13.2874247 C6.24600163,13.3345976 6.27410888,13.3762598 6.30735468,13.4124127 L6.30763356,13.4203988 C6.35189933,13.466828 6.38248265,13.5030733 6.39938444,13.5291358 L6.52252176,13.6207853 C6.56090571,13.6514282 6.60442714,13.6765607 6.65308737,13.6961837 L6.78968689,13.7154009 C6.84329934,13.7241898 6.89273208,13.7277941 6.9379866,13.7262138 C6.98324112,13.7246334 7.03629501,13.7174503 7.09714987,13.7046641 C7.15800473,13.6918779 7.20687972,13.6795102 7.24377631,13.6675606 C7.28067289,13.655611 7.3250901,13.6300728 7.37702927,13.5909452 C7.40804404,13.5632094 7.44153441,13.530057 7.47750139,13.4914871 C7.51346838,13.4529173 7.54544184,13.4144874 7.57342273,13.3761964 C7.60140362,13.3379054 7.62511223,13.2917685 7.64454927,13.2377842 L7.67175254,13.1009058 C7.68072738,13.0526174 7.6843781,13.0045157 7.68270482,12.9565991 C7.68028785,12.8873863 7.67576669,12.8342395 7.66914118,12.797157 C7.66214384,12.7494264 7.64702119,12.6979823 7.62377278,12.6428234 C7.60052438,12.5876644 7.57627068,12.5418697 7.55101096,12.5054379 C7.52575125,12.4690062 7.48851295,12.4329932 7.43929496,12.3973981 C7.41137321,12.3610593 7.37427436,12.3290393 7.32799728,12.3013373 C7.2817202,12.2736353 7.23434521,12.2526352 7.1858709,12.2383363 L7.02503436,12.2119696 C6.97142191,12.2031807 6.92598215,12.199437 6.88871372,12.2007385 L6.72927157,12.2143021 C6.67621688,12.2214854 6.63142784,12.2363756 6.59490309,12.2589733 C6.54240616,12.2821288 6.49794247,12.306336 6.46151069,12.3315957 C6.4250789,12.3568554 6.39163501,12.3913388 6.361178,12.4350468 C6.3250251,12.4682926 6.2918136,12.5094309 6.26154252,12.558463 L6.20239505,12.6964569 L6.17574955,12.8493074 C6.16714655,12.9082439 6.16368174,12.9616696 6.16535503,13.0095862 C6.16702831,13.0575027 6.17402555,13.1052326 6.18634695,13.1527773 Z" id="-copy-2" fill="#2B2826"></path>
            <g id="icons-/-Error_Mark" transform="translate(0.000000, 12.100000)" opacity="0">
                <circle id="Oval" fill="#FFFFFF" fill-rule="nonzero" cx="4" cy="4" r="4"></circle>
                <path d="M4.00666043,0.66666822 C4.60923891,0.667230482 5.16978374,0.820408594 5.68831169,1.12620713 C6.1900347,1.42368891 6.5896311,1.82328531 6.88711289,2.32500833 C7.19347473,2.84449144 7.34665335,3.4050364 7.34665335,4.00666001 C7.34665335,4.60828362 7.19347473,5.16882857 6.88711289,5.68831169 C6.5896311,6.1900347 6.1900347,6.5896311 5.68831169,6.88711289 C5.16882857,7.19347473 4.60828362,7.34665335 4.00666001,7.34665335 C3.4050364,7.34665335 2.84449144,7.19347473 2.32500833,6.88711289 C1.82328531,6.5896311 1.42368891,6.1900347 1.12620713,5.68831169 C0.819845288,5.16882857 0.666666667,4.60828362 0.666666667,4.00666001 C0.666666667,3.4050364 0.819845288,2.84449144 1.12620713,2.32500833 C1.42368891,1.82328531 1.82328531,1.42368891 2.32500833,1.12620713 C2.84353627,0.820408594 3.4040811,0.667230482 4.00665958,0.66666822 L4.00666043,0.66666822 Z M4.00666043,0.66666822 C4.00555043,0.666667185 4.00444029,0.666666667 4.00333,0.666666667 L4.00999001,0.666666667 C4.00887973,0.666666667 4.00776958,0.666667185 4.00665958,0.66666822 L4.00666043,0.66666822 Z M4.34299034,5.67499167 L4.34299034,5.00899101 L3.67032967,5.00899101 L3.67032967,5.67499167 L4.34299034,5.67499167 Z M4.34299034,4.34299034 L4.34299034,2.33832834 L3.67032967,2.33832834 L3.67032967,4.34299034 L4.34299034,4.34299034 Z" id="" fill="#F83200"></path>
            </g>
        </g>
    </g>
</svg>