<?xml version="1.0" encoding="UTF-8"?>
<svg width="20px" height="20px" viewBox="0 0 20 20" version="1.1" xmlns="http://www.w3.org/2000/svg" xmlns:xlink="http://www.w3.org/1999/xlink">
    <!-- Generator: Sketch 51.3 (57544) - http://www.bohemiancoding.com/sketch -->
    <title>icons / classes/ BMC_SANHub_32</title>
    <desc>Created with Sketch.</desc>
    <defs></defs>
    <g id="icons-/-classes/-BMC_SANHub_32" stroke="none" stroke-width="1" fill="none" fill-rule="evenodd">
        <g transform="translate(0.000000, -1.000000)">
            <g id="icons-/-20x20-icon-field" transform="translate(0.000000, 1.000000)" fill="#F5A623" fill-rule="nonzero" opacity="0">
                <rect x="0" y="0" width="20" height="20"></rect>
            </g>
            <path d="M2.55744256,14.2704561 C2.55744256,14.6164325 2.42757373,14.9158307 2.16783217,15.1686597 C1.90809061,15.4214886 1.60506334,15.5479012 1.25874126,15.5479012 C0.912419181,15.5479012 0.616051848,15.4248153 0.36963037,15.1786397 C0.123208891,14.9324642 0,14.6297393 0,14.2704561 C0,13.9111729 0.126538861,13.6051214 0.37962038,13.3522924 C0.632701898,13.0994635 0.932399201,12.9730509 1.27872128,12.9730509 C1.62504336,12.9730509 1.92474066,13.1027901 2.17782218,13.3622725 C2.4309037,13.6217548 2.55744256,13.9244796 2.55744256,14.2704561 Z M4.4955045,2.43412875 C4.4955045,2.78010519 4.3722956,3.0795034 4.12587413,3.33233234 C3.87945265,3.58516128 3.58308531,3.71157386 3.23676324,3.71157386 C2.89044116,3.71157386 2.59074386,3.58516128 2.33766234,3.33233234 C2.08458082,3.0795034 1.95804196,2.77677855 1.95804196,2.42414871 C1.95804196,2.07151887 2.08458082,1.77212066 2.33766234,1.52594511 C2.59074386,1.27976956 2.89377113,1.15668364 3.24675325,1.15668364 C3.59973536,1.15668364 3.8961027,1.27976956 4.13586414,1.52594511 C4.37562557,1.77212066 4.4955045,2.07484551 4.4955045,2.43412875 Z M11.008991,12.1746477 L11.8081918,12.6536896 L20,12.6536896 L20,20.997003 L3.33666334,20.997003 L3.33666334,13.5319331 C3.31002318,13.5186264 3.27672348,13.4920132 3.23676324,13.4520928 L3.13686314,13.3522924 C3.07026274,13.2458381 3.05694286,13.1360588 3.0969031,13.0229511 C3.13686334,12.9098434 3.21012268,12.8266772 3.31668332,12.7734501 L3.33666334,12.75349 L3.33666334,12.6536896 L3.53646354,12.6536896 L4.33566434,12.2145679 C4.4289049,12.1480339 4.53546394,12.1314007 4.65534466,12.1646677 C4.77522537,12.1979346 4.8618046,12.2677942 4.91508492,12.3742485 C4.94172507,12.4141689 4.95837493,12.4607419 4.96503497,12.5139691 C4.971695,12.5671962 4.96836503,12.6137693 4.95504496,12.6536896 L5.79420579,12.6536896 C5.54112428,12.3875539 5.36130589,12.1081156 5.25474525,11.8153663 C5.12154446,11.4826966 5.05494505,11.1500319 5.05494505,10.8173623 C5.05494505,10.0721822 5.31801269,9.44344601 5.84415584,8.93113473 C6.370299,8.41882346 6.99966334,8.16267166 7.73226773,8.16267166 C7.98534925,8.16267166 8.22510709,8.19261148 8.45154845,8.25249202 C8.67798981,8.31237256 8.89776783,8.40219202 9.11088911,8.5219531 L13.5464535,3.87125449 C13.4798531,3.73818663 13.4265736,3.59514082 13.3866134,3.44211278 C13.3466531,3.28908473 13.3266733,3.11277246 13.3266733,2.91317066 C13.3266733,2.3808992 13.5131516,1.92847525 13.8861139,1.55588523 C14.2590761,1.18329521 14.718612,0.997002997 15.2647353,0.997002997 C15.8108585,0.997002997 16.2703944,1.18329521 16.6433566,1.55588523 C17.0163189,1.92847525 17.2027972,2.3808992 17.2027972,2.91317066 C17.2027972,3.44544212 17.0163189,3.90451936 16.6433566,4.29041617 C16.2703944,4.67631298 15.8108585,4.86925849 15.2647353,4.86925849 C15.1182144,4.86925849 14.9650358,4.84929861 14.8051948,4.80937825 C14.7119542,4.78276467 14.5787554,4.73619162 14.4055944,4.66965769 L9.95004995,9.32035629 C10.1098909,9.54657166 10.2231099,9.77943693 10.2897103,10.0189591 C10.3696308,10.2850948 10.4095904,10.5445733 10.4095904,10.7974022 C10.4095904,11.1699922 10.342991,11.5126368 10.2097902,11.8253463 C10.0765894,12.1380558 9.89677103,12.4141675 9.67032967,12.6536896 L10.3896104,12.6536896 L10.3896104,12.6337295 C10.3762903,12.5671956 10.3729603,12.5139693 10.3796204,12.4740489 C10.3862804,12.4341285 10.4029303,12.3942088 10.4295704,12.3542884 C10.4828507,12.2345273 10.56943,12.1646678 10.6893107,12.1447076 C10.8091914,12.1247474 10.9157504,12.1347273 11.008991,12.1746477 Z M4.03596404,3.93113473 C4.15584476,3.87790759 4.27239371,3.86792765 4.38561439,3.90119461 C4.49883506,3.93446158 4.57542438,4.00432116 4.61538462,4.11077545 L5.13486513,5.0488992 C5.18814545,5.1553535 5.19813536,5.26513284 5.16483516,5.37824052 C5.13153497,5.49134821 5.06160559,5.57451437 4.95504496,5.62774152 L4.85514486,5.68762176 L4.73526474,5.68762176 C4.66866434,5.68762176 4.60206494,5.66433523 4.53546454,5.61776148 C4.46886414,5.57118773 4.41558462,5.51463473 4.37562438,5.4481008 L3.85614386,4.52993713 C3.81618362,4.43678962 3.80952368,4.33366358 3.83616384,4.22055589 C3.862804,4.10744821 3.9294034,4.01097545 4.03596404,3.93113473 Z M4.15584416,20.1387196 L19.1608392,20.1387196 L19.1608392,13.492013 L4.15584416,13.492013 L4.15584416,20.1387196 Z M5.59440559,7.76347006 L5.11488511,6.84530639 C5.04828472,6.7388521 5.03496484,6.62907276 5.07492507,6.51596507 C5.11488531,6.40285739 5.18814466,6.31636457 5.29470529,6.25648403 C5.40126593,6.1966035 5.51115495,6.18662356 5.62437562,6.22654392 C5.7375963,6.26646427 5.82084555,6.3396505 5.87412587,6.44610479 L6.35364635,7.34430839 C6.43356683,7.46406946 6.45021668,7.5805021 6.4035964,7.69360978 C6.35697612,7.80671747 6.28704675,7.89653693 6.19380619,7.96307086 L5.99400599,8.00299102 C5.91408551,8.00299102 5.84082617,7.98303114 5.77422577,7.94311078 C5.70762537,7.90319042 5.64768591,7.84331078 5.59440559,7.76347006 Z M7.87212787,16.6457056 C8.07192907,16.7122395 8.20512787,16.7654659 8.27172827,16.8053862 C8.41824915,16.8719202 8.54145804,16.9451064 8.64135864,17.0249471 C8.74125924,17.1047878 8.82450849,17.1946073 8.89110889,17.2944082 C8.95770929,17.3942091 9.00765884,17.4973351 9.04095904,17.6037894 C9.07425924,17.7102437 9.09090909,17.8266764 9.09090909,17.9530908 C9.09090909,18.0795053 9.07425924,18.2025912 9.04095904,18.3223523 C9.00765884,18.4421134 8.95437932,18.558546 8.88111888,18.6716537 C8.80785844,18.7847614 8.71794925,18.8812341 8.61138861,18.9610749 C8.50482797,19.0409156 8.38494905,19.1141018 8.25174825,19.1806357 C8.11854745,19.2471697 7.97535874,19.2970694 7.82217782,19.3303363 C7.6689969,19.3636033 7.49583846,19.3802365 7.3026973,19.3802365 C7.10955614,19.3802365 6.91974785,19.3636033 6.73326673,19.3303363 C6.54678561,19.2970694 6.37695714,19.2471697 6.22377622,19.1806357 C6.0705953,19.1141018 5.94738641,19.0342623 5.85414585,18.9411148 C5.73426513,18.8346605 5.63436603,18.7215545 5.55444555,18.6017934 C5.47452507,18.4820323 5.41458561,18.3489665 5.37462537,18.2025918 C5.33466513,18.0562172 5.31468531,17.9098447 5.31468531,17.7634701 L5.89410589,17.7035898 C5.90742597,17.8233509 5.93073576,17.9397835 5.96403596,18.0528912 C5.99733616,18.1659989 6.04062577,18.259145 6.09390609,18.3323323 C6.14718641,18.4055197 6.21711578,18.468726 6.3036963,18.5219531 C6.39027682,18.5751802 6.48351598,18.6250799 6.58341658,18.6716537 C6.68331718,18.7182274 6.79986613,18.7548206 6.93306693,18.7814341 C7.06626773,18.8080477 7.19280659,18.8213543 7.31268731,18.8213543 C7.40592787,18.8213543 7.51914685,18.814701 7.65234765,18.8013942 C7.73226813,18.7880874 7.82883726,18.7648009 7.94205794,18.7315339 C8.05527862,18.698267 8.14185784,18.6516939 8.2017982,18.5918134 C8.26173856,18.5319328 8.31501808,18.4753798 8.36163836,18.4221527 C8.40825864,18.3689256 8.44155834,18.3057193 8.46153846,18.2325319 C8.48151858,18.1593446 8.49150849,18.0928117 8.49150849,18.0329311 C8.49150849,17.9730506 8.48484855,17.9065177 8.47152847,17.8333303 C8.45820839,17.760143 8.42490869,17.6902834 8.37162837,17.6237495 C8.31834805,17.5572156 8.25840859,17.5039892 8.19180819,17.4640689 C8.12520779,17.4241485 8.04195854,17.3842287 7.94205794,17.3443084 C7.84215734,17.304388 7.73892827,17.2711216 7.63236763,17.244508 L7.09290709,17.1047874 C6.83982557,17.0382535 6.64668731,16.9850271 6.51348651,16.9451068 C6.34032547,16.8918796 6.22044655,16.8453066 6.15384615,16.8053862 L5.85414585,16.6057854 C5.76090529,16.5392515 5.68764595,16.459412 5.63436563,16.3662645 C5.58108531,16.273117 5.54112567,16.1799709 5.51448551,16.0868234 C5.48784535,15.9670623 5.47452547,15.8539563 5.47452547,15.747502 C5.47452547,15.6410477 5.49117532,15.5279417 5.52447552,15.4081806 C5.55777572,15.2884196 5.60772527,15.1819669 5.67432567,15.0888194 C5.76756623,14.9690583 5.86080539,14.8725855 5.95404595,14.7993982 C6.04728651,14.7262109 6.16050549,14.6663312 6.29370629,14.6197575 C6.42690709,14.5731837 6.56676583,14.5365906 6.71328671,14.509977 C6.85980759,14.4833635 7.00632627,14.4700569 7.15284715,14.4700569 C7.29936803,14.4700569 7.46586653,14.4833635 7.65234765,14.509977 C7.78554845,14.5232838 7.93206713,14.5632036 8.09190809,14.6297375 C8.22510889,14.6829647 8.34165784,14.7528243 8.44155844,14.8393184 C8.54145904,14.9258125 8.63136823,15.0256119 8.71128871,15.1387196 C8.79120919,15.2518272 8.84781868,15.3715865 8.88111888,15.498001 C8.91441908,15.6244155 8.93772887,15.7475014 8.95104895,15.8672625 L8.35164835,15.9271427 C8.32500819,15.7807681 8.28504855,15.6510288 8.23176823,15.5379212 C8.17848791,15.4248135 8.1018986,15.3283407 8.001998,15.2485 C7.9020974,15.1686593 7.78887842,15.1087796 7.66233766,15.0688593 C7.5357969,15.0289389 7.37262837,15.008979 7.17282717,15.008979 C6.97302597,15.008979 6.80652747,15.0256123 6.67332667,15.0588792 C6.54012587,15.0921462 6.43023686,15.1453726 6.34365634,15.2185599 C6.25707582,15.2917472 6.19380639,15.3715867 6.15384615,15.4580808 C6.11388591,15.544575 6.09390609,15.6310678 6.09390609,15.7175619 C6.09390609,15.804056 6.10722597,15.8872222 6.13386613,15.9670629 C6.16050629,16.0469036 6.20712587,16.1101099 6.27372627,16.1566836 C6.34032667,16.2032574 6.44355574,16.2531571 6.58341658,16.3063842 C6.72327742,16.3596114 6.93972547,16.419491 7.23276723,16.486025 C7.52580899,16.5525589 7.73892707,16.6057852 7.87212787,16.6457056 Z M7.01298701,9.48003693 C6.90642637,9.53326407 6.79320739,9.61975689 6.67332667,9.73951797 C6.52680579,9.8991994 6.41691678,10.0688584 6.34365634,10.2485 C6.2703959,10.4281416 6.23376623,10.6177605 6.23376623,10.8173623 L6.23376623,10.997003 C6.24708631,11.0502301 6.25374625,11.1034565 6.25374625,11.1566836 C6.29370649,11.3296719 6.34698601,11.4627377 6.41358641,11.5558852 C6.49350689,11.7022599 6.58008611,11.8220192 6.67332667,11.9151667 C6.79320739,12.021621 6.92307622,12.1081138 7.06293706,12.1746477 C7.2027979,12.2411816 7.35264655,12.2877547 7.51248751,12.3143683 L7.63236763,12.3343283 L7.73226773,12.3542884 C7.89210869,12.3542884 8.05194725,12.3243486 8.21178821,12.2644681 C8.37162917,12.2045875 8.51814785,12.1280747 8.65134865,12.0349271 L8.77122877,11.9151667 C8.87778941,11.835326 8.97102857,11.7288733 9.05094905,11.5958054 C9.13086953,11.4627375 9.18414905,11.3230184 9.21078921,11.1766437 L9.25074925,10.997003 C9.26406933,10.9304691 9.27072927,10.8705894 9.27072927,10.8173623 C9.27072927,10.7242148 9.25740939,10.6210887 9.23076923,10.507981 C9.20412907,10.3948734 9.17082937,10.2984006 9.13086913,10.2185599 C9.03762857,10.0322649 8.92440959,9.86925918 8.79120879,9.72953793 C8.65800799,9.58981667 8.49150949,9.48669062 8.29170829,9.42015669 L8.01198801,9.34031637 C7.94538761,9.32700958 7.85214845,9.32035629 7.73226773,9.32035629 L7.57242757,9.32035629 C7.53246733,9.32035629 7.48584775,9.33366288 7.43256743,9.36027645 C7.27272647,9.38689002 7.13286773,9.42680978 7.01298701,9.48003693 Z M9.43056943,19.3003962 L11.2687313,14.5299371 L11.968032,14.5299371 L13.9060939,19.3003962 L13.1868132,19.3003962 L12.6273726,17.8632705 L10.6293706,17.8632705 L10.1098901,19.3003962 L9.43056943,19.3003962 Z M11.3486513,15.9471028 L10.8091908,17.3443084 L12.4475524,17.3443084 L11.9280719,16.0469032 C11.8348314,15.7807675 11.7748919,15.5944753 11.7482517,15.488021 L11.6083916,15.0488992 C11.5817514,15.2085806 11.5451218,15.3616064 11.4985015,15.507981 C11.4518812,15.6543557 11.4019317,15.8007281 11.3486513,15.9471028 Z M16.023976,2.15468763 C15.8108547,1.94177904 15.561107,1.838653 15.2747253,1.84530639 C14.9883436,1.85195978 14.7352658,1.95841248 14.5154845,2.16466767 C14.2957032,2.37092286 14.1858142,2.62707465 14.1858142,2.93313074 L14.1858142,3.05289122 L14.2257742,3.1726517 C14.2790545,3.38556028 14.3822836,3.56187256 14.5354645,3.70159382 C14.6886455,3.84131507 14.8651339,3.93113453 15.0649351,3.97105489 L15.1648352,3.99101497 L15.2647353,3.99101497 C15.5444569,3.99101497 15.7942047,3.88788893 16.013986,3.68163374 C16.2337673,3.47537855 16.3436563,3.2225534 16.3436563,2.9231507 C16.3436563,2.62374801 16.2370973,2.36759621 16.023976,2.15468763 Z M15.004995,15.5479012 L15.004995,19.3003962 L14.3856144,19.3003962 L14.3856144,14.5299371 L15.0649351,14.5299371 L17.5624376,18.2824321 L17.5624376,14.5299371 L18.1618382,14.5299371 L18.1618382,19.3003962 L17.5224775,19.3003962 L15.004995,15.5479012 Z" id="" fill="#2B2826"></path>
            <g id="icons-/-Error_Mark" transform="translate(0.000000, 13.000000)" opacity="0">
                <circle id="Oval" fill="#FFFFFF" fill-rule="nonzero" cx="4" cy="4" r="4"></circle>
                <path d="M4.00666043,0.66666822 C4.60923891,0.667230482 5.16978374,0.820408594 5.68831169,1.12620713 C6.1900347,1.42368891 6.5896311,1.82328531 6.88711289,2.32500833 C7.19347473,2.84449144 7.34665335,3.4050364 7.34665335,4.00666001 C7.34665335,4.60828362 7.19347473,5.16882857 6.88711289,5.68831169 C6.5896311,6.1900347 6.1900347,6.5896311 5.68831169,6.88711289 C5.16882857,7.19347473 4.60828362,7.34665335 4.00666001,7.34665335 C3.4050364,7.34665335 2.84449144,7.19347473 2.32500833,6.88711289 C1.82328531,6.5896311 1.42368891,6.1900347 1.12620713,5.68831169 C0.819845288,5.16882857 0.666666667,4.60828362 0.666666667,4.00666001 C0.666666667,3.4050364 0.819845288,2.84449144 1.12620713,2.32500833 C1.42368891,1.82328531 1.82328531,1.42368891 2.32500833,1.12620713 C2.84353627,0.820408594 3.4040811,0.667230482 4.00665958,0.66666822 L4.00666043,0.66666822 Z M4.00666043,0.66666822 C4.00555043,0.666667185 4.00444029,0.666666667 4.00333,0.666666667 L4.00999001,0.666666667 C4.00887973,0.666666667 4.00776958,0.666667185 4.00665958,0.66666822 L4.00666043,0.66666822 Z M4.34299034,5.67499167 L4.34299034,5.00899101 L3.67032967,5.00899101 L3.67032967,5.67499167 L4.34299034,5.67499167 Z M4.34299034,4.34299034 L4.34299034,2.33832834 L3.67032967,2.33832834 L3.67032967,4.34299034 L4.34299034,4.34299034 Z" id="" fill="#F83200"></path>
            </g>
        </g>
    </g>
</svg>