<?xml version="1.0" encoding="UTF-8"?>
<svg width="20px" height="20px" viewBox="0 0 20 20" version="1.1" xmlns="http://www.w3.org/2000/svg" xmlns:xlink="http://www.w3.org/1999/xlink">
    <!-- Generator: Sketch 51.3 (57544) - http://www.bohemiancoding.com/sketch -->
    <title>icons / classes/ BMC_IO_32</title>
    <desc>Created with Sketch.</desc>
    <defs></defs>
    <g id="icons-/-classes/-BMC_IO_32" stroke="none" stroke-width="1" fill="none" fill-rule="evenodd">
        <g>
            <g id="icons-/-20x20-icon-field" fill="#F5A623" fill-rule="nonzero" opacity="0">
                <rect x="0" y="0" width="20" height="20"></rect>
            </g>
            <path d="M0,0 L0,1.81818182 L0,3.63636364 L1.81818182,3.63636364 L1.81818182,1.81818182 L18.1818182,1.81818182 L18.1818182,3.63636364 L20.0009091,3.63636364 L20.0009091,0 L0,0 Z M14.2136364,6.75545455 L16.5190909,9.09090909 L10.91,9.09090909 L10.91,10.9081818 L16.5163636,10.9081818 L14.2109091,13.2418182 L15.4972727,14.5445455 L18.7154545,11.2972727 L20.0009091,9.99909091 L19.0918182,9.08 L19.0909091,9.08090909 L15.5,5.45363636 L14.2136364,6.75545455 Z M3.30454545,6.75545455 L5.61,9.09090909 L0,9.09090909 L0,10.9081818 L5.60818182,10.9081818 L3.30181818,13.2418182 L4.58818182,14.5445455 L7.80545455,11.2972727 L9.09090909,9.99909091 L8.18181818,9.08 L8.18090909,9.08090909 L4.59090909,5.45363636 L3.30454545,6.75545455 Z M18.1818182,16.3636364 L18.1818182,18.1818182 L1.81818182,18.1818182 L1.81818182,16.3636364 L0,16.3636364 L0,18.1818182 L0,20 L1.81818182,20 L18.1818182,20 L20.0009091,20 L20.0009091,16.3636364 L18.1818182,16.3636364 Z" id="Fill-1" fill="#333333"></path>
            <g id="icons-/-Error_Mark" transform="translate(0.000000, 12.000000)" opacity="0">
                <circle id="Oval" fill="#FFFFFF" fill-rule="nonzero" cx="4" cy="4" r="4"></circle>
                <path d="M4.00666043,0.66666822 C4.60923891,0.667230482 5.16978374,0.820408594 5.68831169,1.12620713 C6.1900347,1.42368891 6.5896311,1.82328531 6.88711289,2.32500833 C7.19347473,2.84449144 7.34665335,3.4050364 7.34665335,4.00666001 C7.34665335,4.60828362 7.19347473,5.16882857 6.88711289,5.68831169 C6.5896311,6.1900347 6.1900347,6.5896311 5.68831169,6.88711289 C5.16882857,7.19347473 4.60828362,7.34665335 4.00666001,7.34665335 C3.4050364,7.34665335 2.84449144,7.19347473 2.32500833,6.88711289 C1.82328531,6.5896311 1.42368891,6.1900347 1.12620713,5.68831169 C0.819845288,5.16882857 0.666666667,4.60828362 0.666666667,4.00666001 C0.666666667,3.4050364 0.819845288,2.84449144 1.12620713,2.32500833 C1.42368891,1.82328531 1.82328531,1.42368891 2.32500833,1.12620713 C2.84353627,0.820408594 3.4040811,0.667230482 4.00665958,0.66666822 L4.00666043,0.66666822 Z M4.00666043,0.66666822 C4.00555043,0.666667185 4.00444029,0.666666667 4.00333,0.666666667 L4.00999001,0.666666667 C4.00887973,0.666666667 4.00776958,0.666667185 4.00665958,0.66666822 L4.00666043,0.66666822 Z M4.34299034,5.67499167 L4.34299034,5.00899101 L3.67032967,5.00899101 L3.67032967,5.67499167 L4.34299034,5.67499167 Z M4.34299034,4.34299034 L4.34299034,2.33832834 L3.67032967,2.33832834 L3.67032967,4.34299034 L4.34299034,4.34299034 Z" id="" fill="#F83200"></path>
            </g>
        </g>
    </g>
</svg>