<?xml version="1.0" encoding="UTF-8"?>
<svg width="20px" height="20px" viewBox="0 0 20 20" version="1.1" xmlns="http://www.w3.org/2000/svg" xmlns:xlink="http://www.w3.org/1999/xlink">
    <!-- Generator: Sketch 51.3 (57544) - http://www.bohemiancoding.com/sketch -->
    <title>icons / classes/ BMC_BusinessService_32</title>
    <desc>Created with Sketch.</desc>
    <defs></defs>
    <g id="icons-/-classes/-BMC_BusinessService_32" stroke="none" stroke-width="1" fill="none" fill-rule="evenodd">
        <g id="icons-/-classes/-Business-Service">
            <g id="icons-/-20x20-icon-field" fill="#F5A623" fill-rule="nonzero" opacity="0">
                <rect x="0" y="0" width="20" height="20"></rect>
            </g>
            <path d="M18.7662338,14.7412587 L18.046953,14.7412587 C17.9870127,14.7412587 17.9240763,14.7652345 17.8581419,14.8131868 C17.7922075,14.8611391 17.7472529,14.9150846 17.7232767,14.975025 L17.4715285,15.6043956 C17.4355643,15.676324 17.4235764,15.7452544 17.4355644,15.8111888 C17.4475525,15.8771232 17.4775222,15.9340657 17.5254745,15.982018 L18.046953,16.5034965 C18.0949053,16.5514488 18.1188811,16.6083913 18.1188811,16.6743257 C18.1188811,16.7402601 18.0949053,16.7972026 18.046953,16.8451548 L17.3276723,17.5824176 C17.267732,17.6303699 17.2077925,17.6543457 17.1478521,17.6543457 C17.0879118,17.6543457 17.0339663,17.6303699 16.986014,17.5824176 L16.4645355,17.0609391 C16.4165832,17.0129868 16.3566437,16.983017 16.2847153,16.971029 C16.2127869,16.9590409 16.1468534,16.9650348 16.0869131,16.989011 L15.4575425,17.2587413 C15.3976021,17.2827174 15.3436566,17.3216781 15.2957043,17.3756244 C15.247752,17.4295707 15.2237762,17.4925071 15.2237762,17.5644356 L15.2237762,18.3196803 C15.2237762,18.3796207 15.2027974,18.4335662 15.1608392,18.4815185 C15.1188809,18.5294708 15.0619384,18.5534466 14.99001,18.5534466 L13.965035,18.5534466 C13.8931065,18.5534466 13.8331671,18.5294708 13.7852148,18.4815185 C13.7372625,18.4335662 13.7132867,18.3796207 13.7132867,18.3196803 L13.7132867,17.5644356 C13.7132867,17.5044952 13.6923079,17.4415588 13.6503497,17.3756244 C13.6083914,17.30969 13.5514489,17.2707293 13.4795205,17.2587413 L12.8681319,16.989011 C12.7962034,16.9650348 12.7242761,16.9590409 12.6523477,16.971029 C12.5804192,16.983017 12.5264737,17.0069928 12.4905095,17.042957 L11.969031,17.5644356 C11.9090906,17.6243759 11.8491511,17.6543457 11.7892108,17.6543457 C11.7292704,17.6543457 11.6753249,17.6243759 11.6273726,17.5644356 L10.8901099,16.8451548 C10.8421576,16.7852145 10.8181818,16.725275 10.8181818,16.6653347 C10.8181818,16.6053943 10.8421576,16.5514488 10.8901099,16.5034965 L11.4115884,15.982018 C11.4595407,15.9340657 11.4865135,15.8711293 11.4925075,15.7932068 C11.4985015,15.7152843 11.4895106,15.6523479 11.4655345,15.6043956 L11.2137862,14.975025 C11.1898101,14.9150846 11.1478524,14.8611391 11.0879121,14.8131868 C11.0279717,14.7652345 10.9620383,14.7412587 10.8901099,14.7412587 L10.1528472,14.7412587 C10.0809187,14.7412587 10.0239762,14.7202799 9.98201798,14.6783217 C9.94005973,14.6363634 9.91908092,14.5794209 9.91908092,14.5074925 L9.91908092,13.4825175 C9.91908092,13.4105891 9.94005973,13.3536466 9.98201798,13.3116883 C10.0239762,13.2697301 10.0809187,13.2487512 10.1528472,13.2487512 L10.8901099,13.2487512 C10.9500502,13.2487512 11.0129867,13.2247755 11.0789211,13.1768232 C11.1448555,13.1288709 11.1898101,13.0689314 11.2137862,12.997003 L11.4655345,12.3856144 C11.5014987,12.325674 11.5134866,12.2597406 11.5014985,12.1878122 C11.4895104,12.1158838 11.4595407,12.0559443 11.4115884,12.007992 L10.8901099,11.4685315 C10.8421576,11.4205792 10.8181818,11.3666337 10.8181818,11.3066933 C10.8181818,11.2467529 10.8421576,11.1928074 10.8901099,11.1448551 L11.6273726,10.4075924 C11.6753249,10.3596401 11.7322674,10.3356643 11.7982018,10.3356643 C11.8641362,10.3356643 11.9210787,10.3596401 11.969031,10.4075924 L12.4905095,10.9290709 C12.5384618,10.9770232 12.5954043,11.0069929 12.6613387,11.018981 C12.7272731,11.0309691 12.7962034,11.0189812 12.8681319,10.983017 L13.4795205,10.7492507 C13.5514489,10.7252746 13.6083914,10.683317 13.6503497,10.6233766 C13.6923079,10.5634363 13.7132867,10.4975029 13.7132867,10.4255744 L13.7132867,9.68831169 C13.7132867,9.61638326 13.7372625,9.5564438 13.7852148,9.50849151 C13.8331671,9.46053922 13.8871126,9.43656344 13.9470529,9.43656344 L14.99001,9.43656344 C15.0619384,9.43656344 15.1188809,9.46053922 15.1608392,9.50849151 C15.2027974,9.5564438 15.2237762,9.61638326 15.2237762,9.68831169 L15.2237762,10.4255744 C15.2237762,10.4855148 15.247752,10.5454542 15.2957043,10.6053946 C15.3436566,10.665335 15.3976021,10.7072926 15.4575425,10.7312687 L16.0869131,10.983017 C16.1468534,11.0189812 16.2127869,11.0309691 16.2847153,11.018981 C16.3566437,11.0069929 16.4165832,10.9770232 16.4645355,10.9290709 L16.986014,10.4075924 C17.0339663,10.3596401 17.0879118,10.3356643 17.1478521,10.3356643 C17.2077925,10.3356643 17.267732,10.3596401 17.3276723,10.4075924 L18.046953,11.1448551 C18.0949053,11.1928074 18.1188811,11.2497499 18.1188811,11.3156843 C18.1188811,11.3816187 18.0949053,11.4385612 18.046953,11.4865135 L17.5254745,12.007992 C17.4775222,12.0559443 17.4475525,12.1128868 17.4355644,12.1788212 C17.4235764,12.2447556 17.4355643,12.313686 17.4715285,12.3856144 L17.7232767,12.997003 C17.7472529,13.0689314 17.7892105,13.1258739 17.8491508,13.1678322 C17.9090912,13.2097904 17.9750246,13.2307692 18.046953,13.2307692 L18.7662338,13.2307692 C18.8381622,13.2307692 18.8951047,13.257742 18.9370629,13.3116883 C18.9790212,13.3656346 19,13.4165832 19,13.4645355 L19,14.5074925 C19,14.5794209 18.9790212,14.6363634 18.9370629,14.6783217 C18.8951047,14.7202799 18.8381622,14.7412587 18.7662338,14.7412587 Z M14.4685315,16.035964 C14.7322691,16.035964 14.9810178,15.9850155 15.2147852,15.8831169 C15.4485526,15.7812183 15.6523468,15.6433575 15.8261738,15.4695305 C16.0000009,15.2957034 16.1378616,15.0919093 16.2397602,14.8581419 C16.3416589,14.6243745 16.3926074,14.3786227 16.3926074,14.1208791 C16.3926074,13.8631356 16.3416589,13.6173838 16.2397602,13.3836164 C16.1378616,13.149849 16.0000009,12.9460548 15.8261738,12.7722278 C15.6523468,12.5984007 15.4485526,12.46054 15.2147852,12.3586414 C14.9810178,12.2567427 14.735266,12.2057942 14.4775225,12.2057942 C14.2197789,12.2057942 13.9710302,12.2567427 13.7312687,12.3586414 C13.4915073,12.46054 13.2847162,12.5984007 13.1108891,12.7722278 C12.9370621,12.9460548 12.7992013,13.149849 12.6973027,13.3836164 C12.5954041,13.6173838 12.5444555,13.8631356 12.5444555,14.1208791 C12.5444555,14.3786227 12.5954041,14.6243745 12.6973027,14.8581419 C12.7992013,15.0919093 12.9370621,15.2957034 13.1108891,15.4695305 C13.2847162,15.6433575 13.4915073,15.7812183 13.7312687,15.8831169 C13.9710302,15.9850155 14.216782,16.035964 14.4685315,16.035964 Z M9.84715285,16.6833167 C9.84715285,16.7672332 9.86513469,16.8871121 9.9010989,17.042957 C9.67332553,17.1868139 9.43956164,17.2587413 9.1998002,17.2587413 C8.70828925,17.2587413 8.26473724,16.9950076 7.86913087,16.4675325 C7.50948871,15.9999977 7.20379746,15.3286757 6.95204795,14.4535465 L6.79020979,14.5434565 C5.87911632,15.0229794 5.11788517,15.2627373 4.50649351,15.2627373 C4.0389587,15.2627373 3.66733405,15.1248765 3.39160839,14.8491508 C3.11588274,14.5734252 2.97802198,14.2018005 2.97802198,13.7342657 C2.97802198,13.110886 3.21777982,12.3496548 3.6973027,11.4505495 L3.78721279,11.2707293 C2.91208354,11.0189798 2.24076158,10.7132885 1.77322677,10.3536464 C1.24575161,9.95803998 0.982017982,9.52048192 0.982017982,9.04095904 C0.982017982,8.56143616 1.24575161,8.1238781 1.77322677,7.72827173 C2.24076158,7.36862957 2.91208354,7.06893227 3.78721279,6.82917083 L3.6973027,6.63136863 C3.21777982,5.73226324 2.97802198,4.97103209 2.97802198,4.34765235 C2.97802198,3.88011754 3.11588274,3.50849289 3.39160839,3.23276723 C3.72727441,2.89710122 4.21877798,2.77122835 4.86613387,2.85514486 C5.46553746,2.93906136 6.16682915,3.20279499 6.97002997,3.64635365 C7.22177948,2.7712244 7.52747073,2.09390849 7.88711289,1.61438561 C8.28271926,1.09889852 8.72027732,0.841158841 9.1998002,0.841158841 C9.67932308,0.841158841 10.1168811,1.09889852 10.5124875,1.61438561 C10.8841177,2.09390849 11.1958029,2.7712244 11.4475524,3.64635365 C12.2387652,3.20279499 12.9340629,2.9450553 13.5334665,2.87312687 C14.1688343,2.7772223 14.6603379,2.90309516 15.007992,3.25074925 C15.2717296,3.52647491 15.4035964,3.89809956 15.4035964,4.36563437 C15.4155845,4.97702603 15.1818206,5.73825718 14.7022977,6.64935065 L14.6123876,6.82917083 C15.4875169,7.08092034 16.1588388,7.38661159 16.6263736,7.74625375 C17.1418607,8.12987205 17.3996004,8.56143616 17.3996004,9.04095904 C17.3996004,9.16083976 17.3876125,9.27472474 17.3636364,9.38261738 C17.303696,9.37062931 17.2377626,9.36463536 17.1658342,9.36463536 C16.8301682,9.36463536 16.5424587,9.48451429 16.3026973,9.72427572 L16.2307692,9.7962038 L16.2307692,9.70629371 C16.2307692,9.61038913 16.2187813,9.50849205 16.1948052,9.4005994 C16.326674,9.26873061 16.3926074,9.14885169 16.3926074,9.04095904 C16.3926074,8.84914989 16.1948072,8.63336783 15.7992008,8.39360639 C15.3796183,8.14185688 14.8041995,7.91408693 14.0729271,7.71028971 C13.8811179,7.99800344 13.6713298,8.29770074 13.4435564,8.60939061 C13.3236757,8.66933097 13.2157847,8.73526438 13.1198801,8.80719281 C12.8681306,9.04695425 12.7422577,9.34665155 12.7422577,9.70629371 L12.7422577,9.7962038 L12.6343656,9.68831169 C12.4065923,9.48451447 12.1308707,9.38261738 11.8071928,9.38261738 C11.5554433,9.38261738 11.3156855,9.46053868 11.0879121,9.61638362 L11.1058941,9.04095904 L11.0879121,8.26773227 C10.908091,8.07592312 10.7282726,7.89011079 10.5484515,7.71028971 C10.452547,7.61438513 10.3086923,7.47652438 10.1168831,7.2967033 L9.97302697,7.17082917 L9.1998002,7.15284715 L8.44455544,7.17082917 L8.3006993,7.2967033 C8.10889015,7.47652438 7.96503544,7.61438513 7.86913087,7.71028971 C7.66533365,7.90209886 7.48551526,8.08791119 7.32967033,8.26773227 L7.31168831,9.04095904 L7.32967033,9.83216783 C7.50949141,10.023977 7.69230676,10.2127863 7.87812188,10.3986014 C8.06393699,10.5844165 8.24675235,10.7612379 8.42657343,10.9290709 L9.1998002,10.9470529 L9.91908092,10.9290709 C9.87112863,11.0609397 9.84715285,11.1928065 9.84715285,11.3246753 C9.84715285,11.6243771 9.94904993,11.8941047 10.1528472,12.1338661 L10.008991,12.2777223 C9.74525343,12.3136865 9.51748348,12.4215775 9.32567433,12.6013986 C9.19380553,12.7212793 9.09190845,12.8771219 9.01998002,13.0689311 C8.6003975,13.392609 8.21079101,13.6743245 7.85114885,13.9140859 C8.05494607,14.6333702 8.28271602,15.2087891 8.53446553,15.6403596 C8.77422697,16.0239779 8.99000903,16.2157842 9.18181818,16.2157842 C9.37362733,16.2157842 9.58341544,16.0359658 9.81118881,15.6763237 C9.93106953,15.7122879 10.0509485,15.7302697 10.1708292,15.7302697 L10.2787213,15.7302697 L10.2067932,15.8021978 C9.96703177,16.0419592 9.84715285,16.3356626 9.84715285,16.6833167 Z M12.4185814,8.23176823 C12.5504502,8.0759233 12.7242746,7.8421594 12.9400599,7.53046953 L12.976024,7.47652348 C12.7002983,7.41658312 12.3886131,7.36863155 12.040959,7.33266733 L12.0769231,7.85414585 L12.3106893,8.10589411 C12.3586416,8.16583447 12.3946053,8.20779209 12.4185814,8.23176823 Z M13.8751249,3.84415584 C13.6473515,3.84415584 13.3446572,3.9160832 12.967033,4.05994006 C12.5894087,4.20379692 12.1668355,4.40759109 11.6993007,4.67132867 C11.8071933,5.18681576 11.8971025,5.7382588 11.969031,6.32567433 C12.5684346,6.39760276 13.1018958,6.47552406 13.5694306,6.55944056 L13.7852148,6.16383616 C14.1088927,5.54045642 14.300699,5.01898312 14.3606394,4.5994006 C14.4085916,4.28771073 14.3786219,4.07792262 14.2707293,3.97002997 C14.1868128,3.88611347 14.054946,3.84415584 13.8751249,3.84415584 Z M10.9260739,6.23576424 C10.8661336,5.81618172 10.818182,5.48651469 10.7822178,5.24675325 C10.5664325,5.39061011 10.3086928,5.58241638 10.008991,5.82217782 C10.2008002,5.97802276 10.3446549,6.10389562 10.4405594,6.1998002 C10.6443567,6.21178827 10.8061932,6.22377616 10.9260739,6.23576424 Z M9.1998002,1.86613387 C8.99600298,1.86613387 8.77422697,2.05794014 8.53446553,2.44155844 C8.28271602,2.86114096 8.05494607,3.43655978 7.85114885,4.16783217 C8.28271944,4.44355782 8.73226539,4.76723091 9.1998002,5.13886114 C9.667335,4.76723091 10.110887,4.44355782 10.5304695,4.16783217 C10.3386604,3.44854785 10.1108904,2.87312903 9.84715285,2.44155844 C9.60739141,2.05794014 9.39160935,1.86613387 9.1998002,1.86613387 Z M7.61738262,5.24675325 C7.56943033,5.5224789 7.52147876,5.85214593 7.47352647,6.23576424 L7.95904096,6.1998002 L8.39060939,5.82217782 L8.28271728,5.73226773 C7.98301548,5.50449437 7.76123948,5.34265782 7.61738262,5.24675325 Z M4.12887113,3.97002997 C4.00899041,4.06593455 3.97302673,4.27572266 4.02097902,4.5994006 C4.08091938,5.01898312 4.27272565,5.54045642 4.5964036,6.16383616 L4.83016983,6.55944056 C5.30969271,6.46353598 5.84315391,6.38561469 6.43056943,6.32567433 C6.50249786,5.71428266 6.59240705,5.16283962 6.7002997,4.67132867 C6.2327649,4.40759109 5.8101917,4.20379692 5.43256743,4.05994006 C5.05494317,3.9160832 4.74625495,3.84415584 4.50649351,3.84415584 C4.32667243,3.84415584 4.20079956,3.88611347 4.12887113,3.97002997 Z M5.96303696,9.85014985 C5.7352636,10.1378636 5.54945127,10.3956033 5.40559441,10.6233766 C5.68132006,10.6713289 5.99300525,10.7132865 6.34065934,10.7492507 L6.3046953,10.2277722 L6.07092907,9.97602398 C6.02297678,9.91608362 5.98701311,9.87412599 5.96303696,9.85014985 Z M5.40559441,7.45854146 C5.58541548,7.73426711 5.77122781,7.99200679 5.96303696,8.23176823 L6.3046953,7.83616384 L6.34065934,7.31468531 C6.00499333,7.3626376 5.69330813,7.41058917 5.40559441,7.45854146 Z M2.02497502,9.04095904 C2.02497502,9.23276819 2.2167813,9.44855025 2.6003996,9.68831169 C3.01998212,9.95204927 3.59540094,10.1798192 4.32667333,10.3716284 C4.56643477,10.0119862 4.89010785,9.56843421 5.2977023,9.04095904 C4.95004821,8.59740038 4.62637512,8.15384837 4.32667333,7.71028971 C3.59540094,7.90209886 3.01998212,8.12387487 2.6003996,8.37562438 C2.2167813,8.61538581 2.02497502,8.83716182 2.02497502,9.04095904 Z M6.68231768,13.4285714 C6.58641311,12.9250724 6.50249786,12.3796233 6.43056943,11.7922078 C5.85514198,11.7322674 5.31568683,11.6483522 4.81218781,11.5404595 L4.5964036,11.9180819 C4.27272565,12.5414617 4.08091938,13.062935 4.02097902,13.4825175 C3.97302673,13.7942074 4.00299646,14.0039955 4.11088911,14.1118881 C4.21878176,14.2197808 4.43456382,14.2497505 4.75824176,14.2017982 C5.17782428,14.1538459 5.69330364,13.9620396 6.3046953,13.6263736 L6.68231768,13.4285714 Z M7.47352647,11.9000999 C7.52147876,12.247754 7.56943033,12.5594392 7.61738262,12.8351648 C7.89310827,12.6433557 8.15084795,12.4575434 8.39060939,12.2777223 L8.01298701,11.9180819 L7.76123876,11.9180819 C7.62936997,11.9060938 7.53346683,11.9000999 7.47352647,11.9000999 Z" id="" fill="#333333"></path>
        </g>
        <g id="icons-/-Error_Mark" transform="translate(0.000000, 12.000000)" opacity="0">
            <circle id="Oval" fill="#FFFFFF" fill-rule="nonzero" cx="4" cy="4" r="4"></circle>
            <path d="M4.00666043,0.66666822 C4.60923891,0.667230482 5.16978374,0.820408594 5.68831169,1.12620713 C6.1900347,1.42368891 6.5896311,1.82328531 6.88711289,2.32500833 C7.19347473,2.84449144 7.34665335,3.4050364 7.34665335,4.00666001 C7.34665335,4.60828362 7.19347473,5.16882857 6.88711289,5.68831169 C6.5896311,6.1900347 6.1900347,6.5896311 5.68831169,6.88711289 C5.16882857,7.19347473 4.60828362,7.34665335 4.00666001,7.34665335 C3.4050364,7.34665335 2.84449144,7.19347473 2.32500833,6.88711289 C1.82328531,6.5896311 1.42368891,6.1900347 1.12620713,5.68831169 C0.819845288,5.16882857 0.666666667,4.60828362 0.666666667,4.00666001 C0.666666667,3.4050364 0.819845288,2.84449144 1.12620713,2.32500833 C1.42368891,1.82328531 1.82328531,1.42368891 2.32500833,1.12620713 C2.84353627,0.820408594 3.4040811,0.667230482 4.00665958,0.66666822 L4.00666043,0.66666822 Z M4.00666043,0.66666822 C4.00555043,0.666667185 4.00444029,0.666666667 4.00333,0.666666667 L4.00999001,0.666666667 C4.00887973,0.666666667 4.00776958,0.666667185 4.00665958,0.66666822 L4.00666043,0.66666822 Z M4.34299034,5.67499167 L4.34299034,5.00899101 L3.67032967,5.00899101 L3.67032967,5.67499167 L4.34299034,5.67499167 Z M4.34299034,4.34299034 L4.34299034,2.33832834 L3.67032967,2.33832834 L3.67032967,4.34299034 L4.34299034,4.34299034 Z" id="" fill="#F83200"></path>
        </g>
    </g>
</svg>