<?xml version="1.0" encoding="UTF-8"?>
<svg width="20px" height="20px" viewBox="0 0 20 20" version="1.1" xmlns="http://www.w3.org/2000/svg" xmlns:xlink="http://www.w3.org/1999/xlink">
    <!-- Generator: Sketch 51.3 (57544) - http://www.bohemiancoding.com/sketch -->
    <title>icons / classes/ BMC_BusinessProcess_32</title>
    <desc>Created with Sketch.</desc>
    <defs></defs>
    <g id="icons-/-classes/-BMC_BusinessProcess_32" stroke="none" stroke-width="1" fill="none" fill-rule="evenodd">
        <g id="icons-/-classes/-Business-Proces">
            <g id="icons-/-20x20-icon-field" fill="#F5A623" fill-rule="nonzero" opacity="0">
                <rect x="0" y="0" width="20" height="20"></rect>
            </g>
            <path d="M15.2777223,8.71728272 C15.3496507,8.78921115 15.4065932,8.87312639 15.4485514,8.96903097 C15.4905097,9.06493554 15.5114885,9.16383565 15.5114885,9.26573427 C15.5114885,9.36763288 15.4935067,9.46053904 15.4575425,9.54445554 C15.4215782,9.62837205 15.3586418,9.71528427 15.2687313,9.80519481 C15.1788207,9.89510534 15.0889115,9.95804178 14.999001,9.99400599 C14.9090905,10.0299702 14.8101903,10.047952 14.7022977,10.047952 C14.5944051,10.047952 14.4955049,10.0299702 14.4055944,9.99400599 C14.3156839,9.95804178 14.2287716,9.90409626 14.1448551,9.83216783 C13.7492488,9.42457339 13.4135878,9.1009003 13.1378621,8.86113886 C12.8981007,8.65734164 12.7662339,8.56743245 12.7422577,8.59140859 C12.7182816,8.61538474 12.7482513,8.69330603 12.8321678,8.82517483 C12.9160843,8.95704362 13.0779209,9.136862 13.3176823,9.36463536 C13.4135869,9.46053994 13.5274719,9.58641281 13.6593407,9.74225774 L13.7852148,9.88611389 C13.8931074,10.0059946 13.9470529,10.071928 13.9470529,10.0839161 C13.9950052,10.1318684 14.0429568,10.2097897 14.0909091,10.3176823 C14.1268733,10.3896107 14.1448551,10.473526 14.1448551,10.5694306 C13.8691295,10.641359 13.6353656,10.7252742 13.4435564,10.8211788 C13.203795,10.9410595 12.9940069,11.0549445 12.8141858,11.1628372 C12.3226749,10.7192785 11.8791229,10.329672 11.4835165,9.99400599 C11.1838147,9.74225648 11.0189812,9.63136848 10.989011,9.66133866 C10.9590408,9.69130884 11.051947,9.81418474 11.2677323,10.02997 C11.6393625,10.4016003 11.9750235,10.7252733 12.2747253,11.000999 L12.4905095,11.2347652 C12.5264737,11.2707295 12.5444555,11.3066931 12.5444555,11.3426573 C12.4005987,11.4625381 12.2207803,11.6303686 12.004995,11.8461538 C11.837162,12.0139869 11.6813194,12.2057931 11.5374625,12.4215784 L11.3936064,12.3316683 L11.3036963,12.2597403 L11.0699301,12.007992 L10.5124875,11.4865135 C10.2847141,11.234764 10.1048958,11.0579426 9.97302697,10.956044 C9.84115818,10.8541453 9.76323688,10.8151847 9.73926074,10.8391608 C9.7152846,10.863137 9.74525433,10.9290704 9.82917083,11.036963 C9.94905155,11.204796 10.0749244,11.3606386 10.2067932,11.5044955 L10.7642358,12.0799201 C10.8361642,12.1638366 10.8931067,12.2537458 10.9350649,12.3496503 C10.9770232,12.4455549 10.998002,12.544455 10.998002,12.6463536 C10.998002,12.7482523 10.9740262,12.8471524 10.9260739,12.9430569 C10.9020978,13.0269734 10.8511492,13.1108887 10.7732268,13.1948052 C10.6953043,13.2787217 10.6083921,13.3386612 10.5124875,13.3746254 C10.4165829,13.4105896 10.3116889,13.4285714 10.1978022,13.4285714 C10.0839155,13.4285714 9.9850154,13.4105896 9.9010989,13.3746254 C9.8171824,13.3386612 9.72727321,13.2847156 9.63136863,13.2127872 L9.52347652,13.0689311 L9.37962038,12.9250749 C9.31968002,12.8411584 9.27172845,12.781219 9.23576424,12.7452547 C9.25974038,12.6013979 9.26573433,12.4635371 9.25374625,12.3316683 C9.22977011,12.1638353 9.19680341,12.0169836 9.15484515,11.8911089 C9.1128869,11.7652341 9.05894139,11.6423582 8.99300699,11.5224775 C8.9270726,11.4025968 8.84016038,11.2947058 8.73226773,11.1988012 C8.69630352,11.1388608 8.642358,11.0819184 8.57042957,11.027972 C8.49850114,10.9740257 8.43856168,10.9350651 8.39060939,10.9110889 C8.31868096,10.8631366 8.24675361,10.824176 8.17482517,10.7942058 C8.10289674,10.7642356 8.03696334,10.7432568 7.97702298,10.7312687 L7.90509491,10.4975025 C7.89310683,10.4255741 7.8631371,10.3536467 7.81518482,10.2817183 L7.65334665,10.047952 C7.60539437,9.97602362 7.56343674,9.91908113 7.52747253,9.87712288 C7.49150831,9.83516463 7.4375628,9.79021003 7.36563437,9.74225774 L7.16783217,9.5984016 C7.13186795,9.56243738 7.07792244,9.52647371 7.00599401,9.49050949 L6.79020979,9.41858142 L6.79020979,9.38261738 C6.76623365,9.29870088 6.74825181,9.23876142 6.73626374,9.2027972 C6.70029952,9.13086877 6.66433584,9.06493536 6.62837163,9.004995 L6.5024975,8.82517483 C6.46653329,8.76523447 6.41858172,8.71128895 6.35864136,8.66333666 C6.33466521,8.62737245 6.28671365,8.57942088 6.21478521,8.51948052 L6.21478521,8.5014985 C6.16683293,8.47752236 6.10089952,8.43556474 6.01698302,8.37562438 L5.81918082,8.28571429 C5.74725239,8.24975007 5.68131898,8.23176823 5.62137862,8.23176823 C5.59740248,8.12387558 5.57342669,8.04595429 5.54945055,7.998002 L5.53146853,7.96203796 C5.50749239,7.87812146 5.4835166,7.81518502 5.45954046,7.77322677 C5.43556432,7.73126852 5.39360669,7.68031998 5.33366633,7.62037962 L5.18981019,7.44055944 C5.00998911,7.26073836 4.80319797,7.12887155 4.56943057,7.04495504 C4.33566317,6.96103854 4.0989023,6.91908092 3.85914086,6.91908092 C3.5834152,6.91908092 3.32567552,6.97002946 3.08591409,7.07192807 C2.84615265,7.17382668 2.64235848,7.30869047 2.47452547,7.47652348 C2.41458511,7.51248769 2.3606396,7.56643321 2.31268731,7.63836164 L2.16883117,7.83616384 C2.13286695,7.8961042 2.09690328,7.97102852 2.06093906,8.06093906 C2.02497485,8.1508496 1.98901117,8.21977998 1.95304695,8.26773227 L1.53946054,8.10589411 L1,7.92607393 L1,1.68631369 L2.78021978,2.31568432 C3.01998122,2.39960082 3.27172695,2.44155844 3.53546454,2.44155844 C3.77522597,2.44155844 4.05094749,2.38761293 4.36263736,2.27972028 C4.61438687,2.11188727 4.84815077,1.96803257 5.06393606,1.84815185 L5.65734266,1.50649351 L6.21478521,1.23676324 L6.77222777,1.002997 C6.96403692,0.931068571 7.14984925,0.871129111 7.32967033,0.823176823 C7.46153912,0.787212607 7.61138777,0.769230769 7.77922078,0.769230769 C8.05494643,0.769230769 8.32767098,0.820179311 8.5974026,0.922077922 C8.86713422,1.02397653 9.12787087,1.1828161 9.37962038,1.3986014 C8.69630028,1.77023163 8.19880276,2.05194709 7.88711289,2.24375624 C7.52747073,2.44755347 7.23376737,2.62737185 7.00599401,2.78321678 C6.87412521,2.86713329 6.76623419,2.95704248 6.68231768,3.05294705 C6.56243696,3.1608397 6.46653383,3.28071862 6.39460539,3.41258741 C6.32267696,3.5444562 6.26573448,3.68831091 6.22377622,3.84415584 C6.18181797,4.00000078 6.16083916,4.14984943 6.16083916,4.29370629 C6.16083916,4.5454558 6.20579376,4.7792197 6.2957043,4.995005 C6.38561484,5.21079029 6.51748165,5.40259656 6.69130869,5.57042957 C6.86513573,5.73826258 7.05394503,5.86713242 7.25774226,5.95704296 C7.46153948,6.0469535 7.69530338,6.09790204 7.95904096,6.10989011 L8.12087912,6.09190809 C8.18081948,6.09190809 8.25874078,6.07392625 8.35464535,6.03796204 C8.41458571,6.01398589 8.51048885,5.97802222 8.64235764,5.93006993 C8.75025029,5.88211764 8.87012921,5.82817213 9.001998,5.76823177 L9.36163836,5.58841159 C9.46953101,5.52847123 9.60739177,5.46253782 9.77522478,5.39060939 L10.2067932,5.21078921 L10.5844156,5.04895105 C10.7522486,4.96503455 10.9350639,4.94405573 11.1328671,4.98601399 C11.3306703,5.02797224 11.5494494,5.11488446 11.7892108,5.24675325 L13.6413586,7.08091908 C13.9530485,7.39260895 14.4865097,7.9320641 15.2417582,8.6993007 L15.2777223,8.71728272 Z M8.15684316,11.7562438 C8.24075966,11.8641364 8.30369609,11.9780214 8.34565435,12.0979021 C8.3876126,12.2177828 8.40559444,12.3586405 8.3996004,12.5204795 C8.39360636,12.6823185 8.36063966,12.8201793 8.3006993,12.9340659 C8.24075894,13.0479526 8.15084975,13.1618376 8.03096903,13.2757243 C7.91108831,13.389611 7.7792215,13.4795201 7.63536464,13.5454545 C7.49150777,13.6113889 7.32967123,13.6623375 7.14985015,13.6983017 C6.97002907,13.7342659 6.80219858,13.7342659 6.64635365,13.6983017 C6.51448486,13.6623375 6.39460593,13.5814192 6.28671329,13.4555445 C6.17882064,13.3296697 6.10989026,13.2127878 6.07992008,13.1048951 C6.0499499,12.9970025 6.05894082,12.9010993 6.10689311,12.8171828 L6.25074925,12.5114885 C6.29870154,12.4035959 6.33466521,12.3076927 6.35864136,12.2237762 L5.71128871,12.3856144 C5.57941992,12.4095905 5.45654403,12.3976026 5.34265734,12.3496503 C5.22877066,12.3016981 5.1358645,12.2357647 5.06393606,12.1518482 C4.96803149,12.0439555 4.911089,11.9450554 4.89310689,11.8551449 C4.87512479,11.7652343 4.87812176,11.6663342 4.9020979,11.5584416 C4.93806212,11.4985012 4.97402579,11.408592 5.00999001,11.2887113 L5.08191808,11.036963 L4.81218781,11.1088911 C4.75224745,11.1208792 4.65035037,11.1508489 4.50649351,11.1988012 C4.38661279,11.2227773 4.27272781,11.2137864 4.16483516,11.1718282 C4.05694252,11.1298699 3.96703333,11.0549456 3.8951049,10.9470529 C3.79920032,10.8271722 3.73926086,10.7192812 3.71528472,10.6233766 C3.69130857,10.527472 3.70329646,10.4375629 3.75124875,10.3536464 L3.93106893,9.83216783 L3.64335664,9.9040959 C3.55944014,9.92807205 3.46054003,9.95204783 3.34665335,9.97602398 C3.23276666,10.0000001 3.12487563,9.98801223 3.02297702,9.94005994 C2.92107841,9.89210765 2.8221783,9.82617425 2.72627373,9.74225774 C2.61838108,9.61038895 2.55544465,9.47252819 2.53746254,9.32867133 C2.51948043,9.18481447 2.53446529,9.03496581 2.58241758,8.87912088 C2.64235794,8.71128787 2.71428529,8.55844225 2.7982018,8.42057942 C2.8821183,8.28271659 2.97202749,8.16583465 3.06793207,8.06993007 C3.18781279,7.96203742 3.31068868,7.88111915 3.43656344,7.82717283 C3.56243819,7.7732265 3.70329592,7.74325677 3.85914086,7.73726274 C4.01498579,7.7312687 4.14984958,7.75524449 4.26373626,7.80919081 C4.37762295,7.86313713 4.482517,7.9440554 4.57842158,8.05194805 C4.62637387,8.09990034 4.67432543,8.16583375 4.72227772,8.24975025 C4.77023001,8.30969061 4.80319671,8.38461494 4.82117882,8.47452547 C4.83916093,8.56443601 4.84515488,8.6543452 4.83916084,8.74425574 C4.8331668,8.83416628 4.81818194,8.92707245 4.79420579,9.02297702 C4.89011037,8.98701281 4.97102864,8.96903097 5.03696304,8.96903097 C5.10289743,8.96903097 5.18681268,8.97802189 5.28871129,8.996004 C5.3906099,9.0139861 5.48051909,9.04695281 5.55844156,9.09490509 C5.63636403,9.14285738 5.69930046,9.19080895 5.74725275,9.23876124 C5.79520503,9.28671353 5.84915055,9.35864088 5.90909091,9.45454545 C5.94505512,9.51448581 5.97502486,9.59840106 5.999001,9.70629371 L5.999001,9.94005994 C5.999001,10.0479526 5.98701311,10.1438557 5.96303696,10.2277722 C6.04695347,10.2037961 6.12487477,10.1918082 6.1968032,10.1918082 C6.26873163,10.1918082 6.35864082,10.2007991 6.46653347,10.2187812 C6.57442611,10.2367633 6.65834136,10.2637361 6.71828172,10.2997003 C6.81418629,10.3476526 6.8801197,10.3956042 6.91608392,10.4435564 C7.00000042,10.5274729 7.05993988,10.6143852 7.0959041,10.7042957 C7.13186831,10.7942062 7.15884107,10.8871124 7.17682318,10.983017 C7.19480528,11.0789216 7.19480528,11.1718277 7.17682318,11.2617383 C7.15884107,11.3516488 7.13186831,11.438561 7.0959041,11.5224775 C7.1798206,11.4865133 7.27572374,11.4655345 7.38361638,11.4595405 C7.49150903,11.4535464 7.59340611,11.4625373 7.68931069,11.4865135 C7.78521526,11.5104896 7.87212748,11.5464533 7.95004995,11.5944056 C8.02797242,11.6423579 8.0969028,11.6963034 8.15684316,11.7562438 Z M16.1768232,2.90909091 C16.2247755,2.89710284 16.3026968,2.879121 16.4105894,2.85514486 L19.017982,2.2977023 L19.017982,7.74625375 L17.5974026,8.01598402 C17.5254742,8.01598402 17.4415589,8.02797191 17.3456543,8.05194805 C17.2977021,8.06393612 17.2017989,8.07592402 17.0579421,8.08791209 L16.95005,8.08791209 C16.794205,8.11188823 16.6413594,8.09690337 16.4915085,8.04295704 C16.3416576,7.98901072 16.2007999,7.9020985 16.0689311,7.78221778 L15.1158841,6.82917083 C14.8881107,6.61338553 14.6663347,6.40359742 14.4505495,6.1998002 L13.8211788,5.57042957 C13.677322,5.43856078 13.4435581,5.21079083 13.1198801,4.88711289 L12.2207792,3.98801199 C11.9930059,3.84415512 11.759242,3.7692308 11.5194805,3.76323676 C11.2797191,3.75724273 11.063937,3.80819127 10.8721279,3.91608392 L10.2967033,4.2037962 L9.5954046,4.5994006 L8.85814186,4.95904096 C8.69030885,5.04295746 8.57642388,5.10289692 8.51648352,5.13886114 C8.30069822,5.25874186 8.09690406,5.31268737 7.90509491,5.3006993 C7.71328575,5.28871123 7.53946132,5.21678388 7.38361638,5.08491508 C7.22777145,4.95304629 7.1108895,4.82417645 7.03296703,4.6983017 C6.95504457,4.57242694 6.91608392,4.43156921 6.91608392,4.27572428 C6.91608392,4.15584356 6.92807181,4.0509495 6.95204795,3.96103896 C6.9760241,3.87112842 7.01498475,3.79320712 7.06893107,3.72727273 C7.12287739,3.66133833 7.20379566,3.58042006 7.31168831,3.48451548 C7.39560482,3.42457512 7.48551401,3.37062961 7.58141858,3.32267732 L8.57042957,2.71128871 C8.78621487,2.59140799 8.97802114,2.48351696 9.14585415,2.38761239 L9.52347652,2.15384615 L10.9260739,1.38061938 C11.0339666,1.32067902 11.1778213,1.24275772 11.3576424,1.14685315 L11.8431568,0.877122877 C11.9870137,0.805194446 12.1248745,0.754245904 12.2567433,0.724275724 C12.388612,0.694305544 12.5204789,0.682317652 12.6523477,0.688311688 C12.7842164,0.694305724 12.9280711,0.742257293 13.0839161,0.832167832 C13.239761,0.922078372 13.4195794,1.05094821 13.6233766,1.21878122 L14.4505495,1.9020979 L15.4575425,2.76523477 C15.5894112,2.8371632 15.7092902,2.88511477 15.8171828,2.90909091 C15.9610397,2.93306705 16.0809186,2.93306705 16.1768232,2.90909091 Z M18.1998002,15.5684316 L18.2087912,15.5684316 L18.1368631,15.6043956 L18.046953,15.6403596 L17.975025,15.7122877 C17.9630369,15.7242758 17.957043,15.7482516 17.957043,15.7842158 L17.7412587,16.2877123 C17.7052945,16.3356646 17.6933066,16.3896101 17.7052947,16.4495504 C17.7172828,16.5094908 17.7412586,16.5634363 17.7772228,16.6113886 L18.2087912,17.024975 C18.2327674,17.0489512 18.2477522,17.06993 18.2537463,17.0879121 C18.2597403,17.1058942 18.2627373,17.1388609 18.2627373,17.1868132 L18.2627373,17.2407592 C18.2507492,17.2647354 18.2327674,17.2827172 18.2087912,17.2947053 L17.6153846,17.9060939 C17.5794204,17.93007 17.5554446,17.9480519 17.5434565,17.96004 L17.3816184,17.96004 L16.8961039,17.4745255 C16.8481516,17.4265732 16.7972031,17.4025974 16.7432567,17.4025974 C16.6893104,17.4025974 16.6383619,17.4085913 16.5904096,17.4205794 L16.0689311,17.6363636 C16.0089907,17.6603398 15.9640361,17.6933065 15.9340659,17.7352647 C15.9040958,17.777223 15.8891109,17.8341655 15.8891109,17.9060939 L15.8891109,18.5174825 L15.8711289,18.5894106 C15.8711289,18.6133867 15.859141,18.6313686 15.8351648,18.6433566 L15.7632368,18.6973027 L14.8281718,18.6973027 C14.7922076,18.7092908 14.7652349,18.7092908 14.7472527,18.6973027 C14.7292706,18.6853146 14.7112888,18.6703298 14.6933067,18.6523477 C14.6753246,18.6343655 14.6633367,18.6163837 14.6573427,18.5984016 C14.6513486,18.5804195 14.6483516,18.5474528 14.6483516,18.4995005 L14.6483516,17.8881119 C14.6483516,17.8521477 14.6393607,17.819181 14.6213786,17.7892108 C14.6033965,17.7592406 14.5884116,17.7382618 14.5764236,17.7262737 L14.5224775,17.6543457 C14.4985014,17.6423576 14.4745256,17.6363636 14.4505495,17.6363636 L13.9470529,17.4205794 C13.8751245,17.3846152 13.8121881,17.3696303 13.7582418,17.3756244 C13.7042954,17.3816184 13.6593408,17.4085912 13.6233766,17.4565435 L13.1738262,17.9060939 C13.14985,17.93007 13.1258742,17.9420579 13.1018981,17.9420579 L13.047952,17.96004 L12.958042,17.9240759 C12.9340658,17.9240759 12.916084,17.912088 12.9040959,17.8881119 L12.2927073,17.2947053 L12.2387612,17.2227772 L12.2387612,17.0609391 L12.2927073,17.006993 L12.7242757,16.5574426 C12.772228,16.5214783 12.7992008,16.4765237 12.8051948,16.4225774 C12.8111888,16.3686311 12.796204,16.3116886 12.7602398,16.2517483 L12.5624376,15.7482517 C12.5384614,15.6763233 12.5084917,15.6253748 12.4725275,15.5954046 C12.4365633,15.5654344 12.3826177,15.5504496 12.3106893,15.5504496 L11.6993007,15.5504496 L11.6093906,15.5324675 C11.5854145,15.5324675 11.5644357,15.5204796 11.5464535,15.4965035 C11.5284714,15.4725274 11.5194805,15.4545455 11.5194805,15.4425574 L11.5014985,15.3706294 L11.5014985,14.5074925 C11.5014985,14.4715283 11.5074924,14.4415586 11.5194805,14.4175824 C11.5314686,14.3936063 11.5464535,14.3726275 11.5644356,14.3546454 C11.5824177,14.3366632 11.6003995,14.3246754 11.6183816,14.3186813 C11.6363637,14.3126873 11.6633365,14.3096903 11.6993007,14.3096903 L12.3286713,14.3096903 C12.3526475,14.3096903 12.3796202,14.3036964 12.4095904,14.2917083 C12.4395606,14.2797202 12.4665333,14.2617384 12.4905095,14.2377622 L12.5444555,14.2017982 C12.5684317,14.1778221 12.5804196,14.1538463 12.5804196,14.1298701 L12.7782218,13.6083916 C12.8261741,13.5484512 12.8441559,13.4945057 12.8321678,13.4465534 C12.8201798,13.3986012 12.79021,13.3506496 12.7422577,13.3026973 L12.3106893,12.8711289 C12.2867132,12.8591408 12.2717283,12.841159 12.2657343,12.8171828 C12.2597402,12.7932067 12.2567433,12.7632369 12.2567433,12.7272727 L12.2567433,12.6553447 C12.2687313,12.6313685 12.2867132,12.6133867 12.3106893,12.6013986 L12.9220779,12.007992 C12.9460541,11.9720278 12.9670329,11.951049 12.985015,11.9450549 C13.0029971,11.9390609 13.0269729,11.9360639 13.0569431,11.9360639 C13.0869132,11.9360639 13.113886,11.9420579 13.1378621,11.954046 L13.1918082,12.007992 L13.6413586,12.4215784 C13.6893109,12.4815188 13.7402595,12.5114885 13.7942058,12.5114885 C13.8481521,12.5114885 13.8991007,12.4995006 13.9470529,12.4755245 L14.4505495,12.2597403 C14.4985017,12.2477522 14.5434563,12.2207794 14.5854146,12.1788212 C14.6273728,12.1368629 14.6483516,12.0799204 14.6483516,12.007992 L14.6483516,11.3246753 C14.6603397,11.3006992 14.6753246,11.2767234 14.6933067,11.2527473 C14.7112888,11.2287711 14.7322676,11.2167832 14.7562438,11.2167832 L14.8281718,11.1988012 L15.6913087,11.1988012 C15.7032968,11.1988012 15.7212786,11.2047951 15.7452547,11.2167832 L15.8171828,11.2527473 C15.853147,11.2887115 15.8711289,11.3126873 15.8711289,11.3246753 L15.8891109,11.3966034 L15.8891109,12.0979021 C15.901099,12.1218782 15.9190808,12.145854 15.9430569,12.1698302 L15.997003,12.2417582 L16.0869131,12.2777223 L16.5724276,12.4755245 C16.6323679,12.5114887 16.6893104,12.5264736 16.7432567,12.5204795 C16.7972031,12.5144855 16.8481516,12.4875127 16.8961039,12.4395604 L17.3276723,11.99001 C17.3396604,11.9780219 17.3636362,11.966034 17.3996004,11.954046 L17.4715285,11.9360639 C17.5074927,11.9360639 17.5314685,11.9420579 17.5434565,11.954046 L17.6153846,11.99001 L18.2087912,12.6013986 C18.2447554,12.6253747 18.2627373,12.6433566 18.2627373,12.6553447 L18.2807193,12.7272727 C18.2807193,12.775225 18.2747253,12.8051947 18.2627373,12.8171828 L18.2087912,12.8891109 L17.7772228,13.3026973 C17.7292705,13.3626377 17.7022977,13.4165832 17.6963037,13.4645355 C17.6903097,13.5124878 17.7052945,13.5664333 17.7412587,13.6263736 L17.957043,14.1298701 C17.969031,14.2017986 17.9960038,14.2527471 18.037962,14.2827173 C18.0799203,14.3126875 18.1308688,14.3276723 18.1908092,14.3276723 L18.8201798,14.3276723 C18.856144,14.3276723 18.8861138,14.3336663 18.9100899,14.3456543 L18.964036,14.3816184 L19,14.4535465 L19.017982,14.5254745 L19.017982,15.3886114 C19.017982,15.4125875 19.0119881,15.4365633 19,15.4605395 L18.964036,15.5144855 L18.8921079,15.5684316 L18.1998002,15.5684316 Z M14.6483516,16.5214785 C14.8401608,16.593407 15.043955,16.6293706 15.2597403,16.6293706 C15.4755256,16.6293706 15.6763227,16.593407 15.8621379,16.5214785 C16.047953,16.4495501 16.2187804,16.3356651 16.3746254,16.1798202 C16.5304703,16.0239752 16.6473523,15.8531478 16.7252747,15.6673327 C16.8031972,15.4815176 16.8421578,15.2777234 16.8421578,15.0559441 C16.8421578,14.8341647 16.8031972,14.6333675 16.7252747,14.4535465 C16.6473523,14.2737254 16.5334673,14.1058949 16.3836164,13.95005 C16.2337655,13.794205 16.062938,13.6773231 15.8711289,13.5994006 C15.6793197,13.5214781 15.4755256,13.4825175 15.2597403,13.4825175 C15.043955,13.4825175 14.8461547,13.5184812 14.6663337,13.5904096 C14.4865126,13.662338 14.3156851,13.773226 14.1538462,13.9230769 C13.9920072,14.0729278 13.8721283,14.2437553 13.7942058,14.4355644 C13.7162833,14.6273736 13.6773227,14.8341647 13.6773227,15.0559441 C13.6773227,15.2777234 13.7132864,15.4785206 13.7852148,15.6583417 C13.8571432,15.8381627 13.9710282,16.0089902 14.1268731,16.1708292 C14.2827181,16.3326681 14.4565425,16.4495501 14.6483516,16.5214785 Z" id="" fill="#333333"></path>
        </g>
        <g id="icons-/-Error_Mark" transform="translate(0.000000, 12.000000)" opacity="0">
            <circle id="Oval" fill="#FFFFFF" fill-rule="nonzero" cx="4" cy="4" r="4"></circle>
            <path d="M4.00666043,0.66666822 C4.60923891,0.667230482 5.16978374,0.820408594 5.68831169,1.12620713 C6.1900347,1.42368891 6.5896311,1.82328531 6.88711289,2.32500833 C7.19347473,2.84449144 7.34665335,3.4050364 7.34665335,4.00666001 C7.34665335,4.60828362 7.19347473,5.16882857 6.88711289,5.68831169 C6.5896311,6.1900347 6.1900347,6.5896311 5.68831169,6.88711289 C5.16882857,7.19347473 4.60828362,7.34665335 4.00666001,7.34665335 C3.4050364,7.34665335 2.84449144,7.19347473 2.32500833,6.88711289 C1.82328531,6.5896311 1.42368891,6.1900347 1.12620713,5.68831169 C0.819845288,5.16882857 0.666666667,4.60828362 0.666666667,4.00666001 C0.666666667,3.4050364 0.819845288,2.84449144 1.12620713,2.32500833 C1.42368891,1.82328531 1.82328531,1.42368891 2.32500833,1.12620713 C2.84353627,0.820408594 3.4040811,0.667230482 4.00665958,0.66666822 L4.00666043,0.66666822 Z M4.00666043,0.66666822 C4.00555043,0.666667185 4.00444029,0.666666667 4.00333,0.666666667 L4.00999001,0.666666667 C4.00887973,0.666666667 4.00776958,0.666667185 4.00665958,0.66666822 L4.00666043,0.66666822 Z M4.34299034,5.67499167 L4.34299034,5.00899101 L3.67032967,5.00899101 L3.67032967,5.67499167 L4.34299034,5.67499167 Z M4.34299034,4.34299034 L4.34299034,2.33832834 L3.67032967,2.33832834 L3.67032967,4.34299034 L4.34299034,4.34299034 Z" id="" fill="#F83200"></path>
        </g>
    </g>
</svg>