<?xml version="1.0" encoding="UTF-8"?>
<svg width="20px" height="20px" viewBox="0 0 20 20" version="1.1" xmlns="http://www.w3.org/2000/svg" xmlns:xlink="http://www.w3.org/1999/xlink">
    <!-- Generator: Sketch 51.3 (57544) - http://www.bohemiancoding.com/sketch -->
    <title>icons / classes/ BMC_DNSServer_32_Error</title>
    <desc>Created with Sketch.</desc>
    <defs></defs>
    <g id="icons-/-classes/-BMC_DNSServer_32" stroke="none" stroke-width="1" fill="none" fill-rule="evenodd">
        <g>
            <g id="icons-/-20x20-icon-field" fill="#F5A623" fill-rule="nonzero" opacity="0">
                <rect x="0" y="0" width="20" height="20"></rect>
            </g>
            <path d="M15,12.7083333 C15.2583333,12.5666667 15.5666667,12.5 15.9416667,12.5 C16.4083333,12.5 16.8666667,12.6 17.3333333,12.8083333 L17.075,13.4583333 C16.6416667,13.275 16.2583333,13.1833333 15.9166667,13.1833333 C15.6583333,13.1833333 15.4666667,13.2416667 15.3333333,13.35 C15.2,13.4583333 15.1333333,13.6083333 15.1333333,13.7916667 C15.1333333,13.9166667 15.1583333,14.025 15.2166667,14.1166667 C15.2666667,14.2083333 15.3583333,14.2916667 15.475,14.375 C15.6,14.45 15.8166667,14.5583333 16.1333333,14.6916667 C16.4916667,14.8416667 16.7583333,14.975 16.925,15.1083333 C17.0833333,15.2333333 17.2083333,15.375 17.2833333,15.5416667 C17.3666667,15.7 17.4,15.8916667 17.4,16.1166667 C17.4,16.5416667 17.25,16.8833333 16.9333333,17.1333333 C16.625,17.375 16.1916667,17.5 15.6416667,17.5 C15.4083333,17.5 15.2,17.4833333 15,17.45 C14.7333333,17.4166667 14.4916667,17.3416667 14.2916667,17.2416667 L14.2916667,16.4916667 C14.5083333,16.6 14.75,16.675 15,16.7416667 C15.25,16.8 15.475,16.825 15.6916667,16.825 C16.0083333,16.825 16.2416667,16.7666667 16.3916667,16.65 C16.5416667,16.525 16.6166667,16.3666667 16.6166667,16.1666667 C16.6166667,15.9833333 16.55,15.8333333 16.4083333,15.7 C16.275,15.575 15.9916667,15.425 15.5583333,15.2583333 C15.3416667,15.1666667 15.15,15.075 15,14.975 C14.8333333,14.8666667 14.7083333,14.7583333 14.6166667,14.6416667 C14.4333333,14.4083333 14.35,14.1333333 14.35,13.8083333 C14.35,13.4 14.4916667,13.0833333 14.775,12.85 C14.8416667,12.7916667 14.925,12.7416667 15,12.7083333 Z M12.5833333,12.5666667 L13.3166667,12.5666667 L13.3166667,17.4333333 L12.3416667,17.4333333 L9.95,13.5583333 L9.925,13.5583333 L9.94166667,13.775 C9.96666667,14.1833333 9.98333333,14.5666667 9.98333333,14.9083333 L9.98333333,17.4333333 L9.26666667,17.4333333 L9.26666667,12.5666667 L10.225,12.5666667 L12.6166667,16.425 L12.6333333,16.425 C12.625,16.375 12.6166667,16.1916667 12.6083333,15.8666667 C12.5916667,15.55 12.5833333,15.3 12.5833333,15.1166667 L12.5833333,12.5666667 Z M5.625,16.7666667 L5.05833333,16.7666667 L5.05833333,13.2333333 L5.75,13.2333333 C6.83333333,13.2333333 7.38333333,13.8166667 7.38333333,14.9833333 C7.38333333,16.1666667 6.79166667,16.7666667 5.625,16.7666667 Z M5.76666667,12.5666667 L4.26666667,12.5666667 L4.26666667,17.4333333 L5.625,17.4333333 C6.45833333,17.4333333 7.1,17.225 7.55,16.8 C7.99166667,16.375 8.21666667,15.7583333 8.21666667,14.9583333 C8.21666667,14.2 8,13.6083333 7.575,13.1916667 C7.14166667,12.775 6.54166667,12.5666667 5.76666667,12.5666667 Z M4.16666667,7.5 L10.8333333,7.5 L10.8333333,4.16666667 L4.16666667,4.16666667 L4.16666667,7.5 Z M2.5,19.1666667 L19.1666667,19.1666667 L19.1666667,10.8333333 L2.5,10.8333333 L2.5,19.1666667 Z M15,10 L15,1.58333333 C15,0.708333333 14.2833333,0 13.3916667,0 L1.60833333,0 C0.716666667,0 0,0.708333333 0,1.58333333 L0,18.4166667 C0,19.2916667 0.716666667,20 1.60833333,20 L1.66666667,20 L13.3916667,20 L20,20 L20,10 L15,10 Z" id="Fill-1" fill="#333333"></path>
            <g id="icons-/-Error_Mark" transform="translate(0.000000, 12.000000)">
                <circle id="Oval" fill="#FFFFFF" fill-rule="nonzero" cx="4" cy="4" r="4"></circle>
                <path d="M4.00666043,0.66666822 C4.60923891,0.667230482 5.16978374,0.820408594 5.68831169,1.12620713 C6.1900347,1.42368891 6.5896311,1.82328531 6.88711289,2.32500833 C7.19347473,2.84449144 7.34665335,3.4050364 7.34665335,4.00666001 C7.34665335,4.60828362 7.19347473,5.16882857 6.88711289,5.68831169 C6.5896311,6.1900347 6.1900347,6.5896311 5.68831169,6.88711289 C5.16882857,7.19347473 4.60828362,7.34665335 4.00666001,7.34665335 C3.4050364,7.34665335 2.84449144,7.19347473 2.32500833,6.88711289 C1.82328531,6.5896311 1.42368891,6.1900347 1.12620713,5.68831169 C0.819845288,5.16882857 0.666666667,4.60828362 0.666666667,4.00666001 C0.666666667,3.4050364 0.819845288,2.84449144 1.12620713,2.32500833 C1.42368891,1.82328531 1.82328531,1.42368891 2.32500833,1.12620713 C2.84353627,0.820408594 3.4040811,0.667230482 4.00665958,0.66666822 L4.00666043,0.66666822 Z M4.00666043,0.66666822 C4.00555043,0.666667185 4.00444029,0.666666667 4.00333,0.666666667 L4.00999001,0.666666667 C4.00887973,0.666666667 4.00776958,0.666667185 4.00665958,0.66666822 L4.00666043,0.66666822 Z M4.34299034,5.67499167 L4.34299034,5.00899101 L3.67032967,5.00899101 L3.67032967,5.67499167 L4.34299034,5.67499167 Z M4.34299034,4.34299034 L4.34299034,2.33832834 L3.67032967,2.33832834 L3.67032967,4.34299034 L4.34299034,4.34299034 Z" id="" fill="#F83200"></path>
            </g>
        </g>
    </g>
</svg>