<?xml version="1.0" encoding="UTF-8"?>
<svg width="20px" height="20px" viewBox="0 0 20 20" version="1.1" xmlns="http://www.w3.org/2000/svg" xmlns:xlink="http://www.w3.org/1999/xlink">
    <!-- Generator: Sketch 51.3 (57544) - http://www.bohemiancoding.com/sketch -->
    <title>icons / classes/ BMC_Printer_32_Error</title>
    <desc>Created with Sketch.</desc>
    <defs></defs>
    <g id="icons-/-classes/-BMC_Printer_32" stroke="none" stroke-width="1" fill="none" fill-rule="evenodd">
        <g id="icons-/-classes/-Printer">
            <g id="icons-/-20x20-icon-field" fill="#F5A623" fill-rule="nonzero" opacity="0">
                <rect x="0" y="0" width="20" height="20"></rect>
            </g>
            <path d="M17.6153846,6.66733267 C18.010991,6.66733267 18.343655,6.80219645 18.6133866,7.07192807 C18.8831182,7.34165969 19.0119881,7.68031764 19,8.08791209 L19,14.3096903 C19,14.7052967 18.8651362,15.0379607 18.5954046,15.3076923 C18.325673,15.5774239 17.993009,15.7122877 17.5974026,15.7122877 L15.997003,15.7122877 L15.997003,17.1148851 C15.997003,17.5584438 15.8441574,17.9360624 15.5384615,18.2477522 C15.2327657,18.5594421 14.8521501,18.7152847 14.3966034,18.7152847 L5.58541459,18.7152847 C5.11787978,18.7152847 4.73426723,18.5564451 4.43456543,18.2387612 C4.13486364,17.9210773 3.98501499,17.5404618 3.98501499,17.0969031 L3.98501499,15.6943057 L2.38461538,15.6943057 C1.97702094,15.6943057 1.64135996,15.5564449 1.37762238,15.2807193 C1.1138848,15.0049936 0.982017982,14.6393629 0.982017982,14.1838162 L0.982017982,8.08791209 C0.982017982,7.68031764 1.11688177,7.34165969 1.38661339,7.07192807 C1.656345,6.80219645 1.99500296,6.66733267 2.4025974,6.66733267 L4.002997,6.68531469 L4.002997,0.697302697 L12.004995,0.697302697 L16.014985,4.65334665 L16.014985,6.68531469 L17.6153846,6.68531469 L17.6153846,6.66733267 Z M4.97402597,1.66833167 L4.97402597,6.68531469 L14.99001,6.68531469 L14.99001,5.04895105 L14.5944056,4.67132867 L12.004995,4.67132867 L12.004995,2.08191808 L11.6093906,1.66833167 L4.97402597,1.66833167 Z M15.007992,17.0969031 L15.007992,12.2957043 C15.007992,12.1398594 14.9450556,11.9990016 14.8191808,11.8731269 C14.6933061,11.7472521 14.5524483,11.6843157 14.3966034,11.6843157 L5.58541459,11.6843157 C5.41758158,11.6843157 5.2707299,11.7472521 5.14485514,11.8731269 C5.01898039,11.9990016 4.95604396,12.1398594 4.95604396,12.2957043 L4.95604396,17.0969031 C4.95604396,17.24076 5.02197736,17.3786207 5.15384615,17.5104895 C5.28571495,17.6423583 5.42956965,17.7082917 5.58541459,17.7082917 L14.3966034,17.7082917 C14.5524483,17.7082917 14.6933061,17.6423583 14.8191808,17.5104895 C14.9450556,17.3786207 15.007992,17.24076 15.007992,17.0969031 Z M6.98801199,14.7052947 L6.98801199,13.6983017 L12.994006,13.6983017 L12.994006,14.7052947 L6.98801199,14.7052947 Z M6.98801199,16.6833167 L6.98801199,15.6943057 L12.994006,15.6943057 L12.994006,16.6833167 L6.98801199,16.6833167 Z M12.994006,3.05294705 L12.994006,3.66433566 L13.5874126,3.66433566 L12.994006,3.05294705 Z" id="" fill="#2B2826"></path>
        </g>
        <g id="icons-/-Error_Mark" transform="translate(0.000000, 12.000000)">
            <circle id="Oval" fill="#FFFFFF" fill-rule="nonzero" cx="4" cy="4" r="4"></circle>
            <path d="M4.00666043,0.66666822 C4.60923891,0.667230482 5.16978374,0.820408594 5.68831169,1.12620713 C6.1900347,1.42368891 6.5896311,1.82328531 6.88711289,2.32500833 C7.19347473,2.84449144 7.34665335,3.4050364 7.34665335,4.00666001 C7.34665335,4.60828362 7.19347473,5.16882857 6.88711289,5.68831169 C6.5896311,6.1900347 6.1900347,6.5896311 5.68831169,6.88711289 C5.16882857,7.19347473 4.60828362,7.34665335 4.00666001,7.34665335 C3.4050364,7.34665335 2.84449144,7.19347473 2.32500833,6.88711289 C1.82328531,6.5896311 1.42368891,6.1900347 1.12620713,5.68831169 C0.819845288,5.16882857 0.666666667,4.60828362 0.666666667,4.00666001 C0.666666667,3.4050364 0.819845288,2.84449144 1.12620713,2.32500833 C1.42368891,1.82328531 1.82328531,1.42368891 2.32500833,1.12620713 C2.84353627,0.820408594 3.4040811,0.667230482 4.00665958,0.66666822 L4.00666043,0.66666822 Z M4.00666043,0.66666822 C4.00555043,0.666667185 4.00444029,0.666666667 4.00333,0.666666667 L4.00999001,0.666666667 C4.00887973,0.666666667 4.00776958,0.666667185 4.00665958,0.66666822 L4.00666043,0.66666822 Z M4.34299034,5.67499167 L4.34299034,5.00899101 L3.67032967,5.00899101 L3.67032967,5.67499167 L4.34299034,5.67499167 Z M4.34299034,4.34299034 L4.34299034,2.33832834 L3.67032967,2.33832834 L3.67032967,4.34299034 L4.34299034,4.34299034 Z" id="" fill="#F83200"></path>
        </g>
    </g>
</svg>