<?xml version="1.0" encoding="UTF-8"?>
<svg width="20px" height="20px" viewBox="0 0 20 20" version="1.1" xmlns="http://www.w3.org/2000/svg" xmlns:xlink="http://www.w3.org/1999/xlink">
    <!-- Generator: Sketch 51.3 (57544) - http://www.bohemiancoding.com/sketch -->
    <title>icons / classes/ BMC_ActivityStart_32_Error</title>
    <desc>Created with Sketch.</desc>
    <defs></defs>
    <g id="icons-/-classes/-BMC_ActivityStart_32" stroke="none" stroke-width="1" fill="none" fill-rule="evenodd">
        <g>
            <g id="icons-/-20x20-icon-field" fill="#F5A623" fill-rule="nonzero" opacity="0">
                <rect x="0" y="0" width="20" height="20"></rect>
            </g>
            <path d="M13.6463536,0.036963037 L20.01998,-0.002997003 L20.01998,6.37062937 L18.0819181,6.41058941 L18.021978,3.35364635 L13.8661339,7.48951049 C13.2667303,7.51615065 12.6839855,7.62270969 12.1178821,7.80919081 C11.5517787,7.99567193 11.0356334,8.24208971 10.5694306,8.54845155 L6.61338661,4.65234765 L1.2987013,10.006993 L0,8.60839161 L6.61338661,1.97502498 L11.6883117,6.99000999 L16.7632368,1.91508492 L13.6463536,1.91508492 L13.6463536,0.036963037 Z M19.5604396,11.8651349 C19.6936404,12.224777 19.8068593,12.5977337 19.9000999,12.984016 C19.9800204,13.3436581 20.01998,13.7365946 20.01998,14.1628372 C20.01998,14.5491195 19.9800204,14.935396 19.9000999,15.3216783 C19.8201794,15.7079606 19.7003005,16.0775873 19.5404595,16.4305694 C19.3806186,16.7835515 19.1974702,17.1165486 18.991009,17.4295704 C18.7845478,17.7425923 18.5514499,18.0289697 18.2917083,18.2887113 C18.0319667,18.5484528 17.7455893,18.7815507 17.4325674,18.988012 C17.1195456,19.1944732 16.7865486,19.3776216 16.4335664,19.5374625 C16.0805843,19.6973035 15.7142876,19.8138524 15.3346653,19.8871129 C14.9550431,19.9603733 14.5687665,19.997003 14.1758242,19.997003 C13.7828818,19.997003 13.3932753,19.9603733 13.006993,19.8871129 C12.6207107,19.8138524 12.251084,19.6973035 11.8981019,19.5374625 C11.5451198,19.3776216 11.2121228,19.1944732 10.8991009,18.988012 C10.586079,18.7815507 10.3030316,18.5517828 10.04995,18.2987013 C9.79686853,18.0456198 9.56377063,17.7592424 9.35064935,17.4395604 C9.13752807,17.1198785 8.95104975,16.7868815 8.79120879,16.4405594 C8.63136783,16.0942374 8.51481888,15.7312706 8.44155844,15.3516484 C8.368298,14.9720261 8.33166833,14.5757596 8.33166833,14.1628372 C8.33166833,13.7499147 8.368298,13.3536483 8.44155844,12.974026 C8.51481888,12.5944037 8.62803786,12.231437 8.78121878,11.8851149 C8.9343997,11.5387928 9.11421808,11.2091258 9.32067932,10.8961039 C9.52714056,10.583082 9.76356843,10.2900447 10.02997,10.016983 C10.2963716,9.74392138 10.586079,9.50416354 10.8991009,9.2977023 C11.2121228,9.09124106 11.5417898,8.91475265 11.8881119,8.76823177 C12.234434,8.62171089 12.6007307,8.50849191 12.987013,8.42857143 C13.3732953,8.34865095 13.7595718,8.30869131 14.1458541,8.30869131 C14.5321365,8.30869131 14.9250729,8.34865095 15.3246753,8.42857143 C15.6709974,8.49517183 16.0306342,8.60506084 16.4035964,8.75824176 C16.7765586,8.91142268 17.1195456,9.09457103 17.4325674,9.30769231 C17.7455893,9.52081359 18.0319667,9.75724146 18.2917083,10.016983 C18.5514499,10.2767246 18.7878777,10.566432 19.000999,10.8861139 C19.2008002,11.1525155 19.3872785,11.4788525 19.5604396,11.8651349 Z M12.0879121,16.8601399 L17.1028971,14.1628372 L12.0879121,11.4655345 L12.0879121,16.8601399 Z" id="" fill="#2B2826"></path>
            <g id="icons-/-Error_Mark" transform="translate(0.000000, 12.000000)">
                <circle id="Oval" fill="#FFFFFF" fill-rule="nonzero" cx="4" cy="4" r="4"></circle>
                <path d="M4.00666043,0.66666822 C4.60923891,0.667230482 5.16978374,0.820408594 5.68831169,1.12620713 C6.1900347,1.42368891 6.5896311,1.82328531 6.88711289,2.32500833 C7.19347473,2.84449144 7.34665335,3.4050364 7.34665335,4.00666001 C7.34665335,4.60828362 7.19347473,5.16882857 6.88711289,5.68831169 C6.5896311,6.1900347 6.1900347,6.5896311 5.68831169,6.88711289 C5.16882857,7.19347473 4.60828362,7.34665335 4.00666001,7.34665335 C3.4050364,7.34665335 2.84449144,7.19347473 2.32500833,6.88711289 C1.82328531,6.5896311 1.42368891,6.1900347 1.12620713,5.68831169 C0.819845288,5.16882857 0.666666667,4.60828362 0.666666667,4.00666001 C0.666666667,3.4050364 0.819845288,2.84449144 1.12620713,2.32500833 C1.42368891,1.82328531 1.82328531,1.42368891 2.32500833,1.12620713 C2.84353627,0.820408594 3.4040811,0.667230482 4.00665958,0.66666822 L4.00666043,0.66666822 Z M4.00666043,0.66666822 C4.00555043,0.666667185 4.00444029,0.666666667 4.00333,0.666666667 L4.00999001,0.666666667 C4.00887973,0.666666667 4.00776958,0.666667185 4.00665958,0.66666822 L4.00666043,0.66666822 Z M4.34299034,5.67499167 L4.34299034,5.00899101 L3.67032967,5.00899101 L3.67032967,5.67499167 L4.34299034,5.67499167 Z M4.34299034,4.34299034 L4.34299034,2.33832834 L3.67032967,2.33832834 L3.67032967,4.34299034 L4.34299034,4.34299034 Z" id="" fill="#F83200"></path>
            </g>
        </g>
    </g>
</svg>