<?xml version="1.0" encoding="UTF-8"?>
<svg width="20px" height="20px" viewBox="0 0 20 20" version="1.1" xmlns="http://www.w3.org/2000/svg" xmlns:xlink="http://www.w3.org/1999/xlink">
    <!-- Generator: Sketch 51.3 (57544) - http://www.bohemiancoding.com/sketch -->
    <title>icons / classes/ BMC_Role_32_Error</title>
    <desc>Created with Sketch.</desc>
    <defs></defs>
    <g id="icons-/-classes/-BMC_Role_32" stroke="none" stroke-width="1" fill="none" fill-rule="evenodd">
        <g id="icons-/-classes/-Role">
            <g id="icons-/-20x20-icon-field" fill="#F5A623" fill-rule="nonzero" opacity="0">
                <rect x="0" y="0" width="20" height="20"></rect>
            </g>
            <path d="M10.7642358,14.9390609 C10.7642358,15.7182856 10.9500481,16.4375591 11.3216783,17.0969031 C11.6933086,17.7562471 12.1728242,18.2897083 12.7602398,18.6973027 L1,18.6973027 L1,15.8201798 C1,15.7962037 1.00599395,15.7662339 1.01798202,15.7302697 L1.05394605,15.5684316 L1.14385614,15.3706294 L1.21578422,15.1728272 L1.3956044,14.7952048 L1.52147852,14.6153846 C1.53346659,14.5794204 1.55144843,14.5494507 1.57542458,14.5254745 L1.64735265,14.4175824 C1.65934072,14.3936063 1.6833165,14.3636365 1.71928072,14.3276723 L1.8991009,14.1298701 L1.97102897,14.0579421 C2.01898126,14.0099898 2.05494494,13.98002 2.07892108,13.968032 L2.2047952,13.8781219 L2.42057942,13.7342657 L2.69030969,13.6083916 L2.74425574,13.6083916 L2.85214785,13.5724276 C2.86413592,13.5604395 2.88211776,13.5514486 2.90609391,13.5454545 C2.93007005,13.5394605 2.95404583,13.5364635 2.97802198,13.5364635 L3.1038961,13.4645355 C3.11588418,13.4525474 3.14585391,13.4465534 3.19380619,13.4465534 L3.46353646,13.3206793 C3.49950068,13.3086912 3.52347646,13.3026973 3.53546454,13.3026973 L4.41658342,12.9070929 L6.73626374,11.954046 L6.73626374,11.4685315 L6.71828172,11.3426573 L6.71828172,11.3066933 L6.7002997,11.1448551 C6.7002997,11.1328671 6.69430575,11.1268731 6.68231768,11.1268731 L6.68231768,11.0549451 C6.67032961,11.042957 6.66433566,11.0249751 6.66433566,11.000999 L6.66433566,10.965035 C6.65234759,10.9530469 6.64635365,10.941059 6.64635365,10.9290709 L6.57442557,10.7132867 L6.57442557,10.6593407 L6.55644356,10.6053946 C6.55644356,10.5934065 6.54445566,10.5754247 6.52047952,10.5514486 L6.37662338,10.2637363 L6.21478521,9.7962038 C6.19080907,9.74825151 6.17282723,9.6823181 6.16083916,9.5984016 L5.98101898,8.91508492 L5.96303696,8.73526474 L5.92707293,8.51948052 C5.91508486,8.47152823 5.90909091,8.40559483 5.90909091,8.32167832 C5.90909091,8.27372603 5.90309696,8.20779263 5.89110889,8.12387612 L5.90909091,7.47652348 C5.90909091,7.45254733 5.90309696,7.41658366 5.89110889,7.36863137 L5.87312687,7.27872128 L5.90909091,7.04495504 L5.92707293,6.81118881 L5.96303696,6.5954046 L6.01698302,6.37962038 C6.01698302,6.2837158 6.02897091,6.21178845 6.05294705,6.16383616 L6.08891109,5.96603397 C6.10089916,5.93006975 6.118881,5.88211818 6.14285714,5.82217782 L6.21478521,5.58841159 C6.23876136,5.55244737 6.26873109,5.5044958 6.3046953,5.44455544 L6.39460539,5.24675325 L6.48451548,5.08491508 C6.5204797,5.02497473 6.54745246,4.97702316 6.56543457,4.94105894 C6.58341667,4.90509473 6.6133864,4.85714316 6.65534466,4.7972028 C6.69730291,4.73726244 6.73026961,4.69530482 6.75424575,4.67132867 L6.86213786,4.54545455 C6.91009015,4.49750226 6.95204777,4.46153858 6.98801199,4.43756244 L7.0959041,4.34765235 L7.36563437,4.13186813 C7.40159858,4.11988006 7.44955015,4.09590428 7.50949051,4.05994006 L7.52747253,4.05994006 C7.57542482,4.02397584 7.62337638,3.99400611 7.67132867,3.97002997 L7.7972028,3.8981019 L8.1028971,3.80819181 C8.21078975,3.77222759 8.31268683,3.75424575 8.40859141,3.75424575 C8.48051984,3.73026961 8.58241692,3.71228777 8.71428571,3.7002997 L9.03796204,3.66433566 L9.12787213,3.66433566 L9.21778222,3.7002997 C9.26573451,3.7002997 9.29870121,3.70329667 9.31668332,3.70929071 C9.33466542,3.71528475 9.36163818,3.71828172 9.3976024,3.71828172 C9.45754276,3.58641293 9.52947011,3.43956125 9.61338661,3.27772228 C9.69730312,3.11588331 9.78721231,2.97502557 9.88311688,2.85514486 L9.95504496,2.76523477 C10.0509495,2.63336597 10.1228769,2.54345678 10.1708292,2.4955045 L10.2427572,2.38761239 C10.3506499,2.27971974 10.4285712,2.1958045 10.4765235,2.13586414 C10.5844161,2.02797149 10.6983011,1.92008046 10.8181818,1.81218781 C10.9860148,1.69230709 11.1178816,1.59640396 11.2137862,1.52447552 C11.3696311,1.41658288 11.5074919,1.33266763 11.6273726,1.27272727 C11.7832176,1.18881077 11.9330662,1.12287736 12.0769231,1.07492507 C12.232768,1.00299664 12.3826167,0.943057183 12.5264735,0.895104895 C12.7302707,0.835164535 12.8921073,0.793206913 13.011988,0.769230769 C13.1678329,0.733266553 13.3296695,0.715284715 13.4975025,0.715284715 L14.000999,0.679320679 C14.1328678,0.679320679 14.3066922,0.685314625 14.5224775,0.697302697 C14.6303702,0.709290769 14.7922067,0.733266553 15.007992,0.769230769 L15.4755245,0.895104895 C15.6313694,0.931069111 15.787212,0.982017652 15.9430569,1.04795205 C16.0989019,1.11388644 16.2487505,1.18881077 16.3926074,1.27272727 C16.488512,1.30869149 16.6143848,1.38661279 16.7702298,1.50649351 L16.8061938,1.52447552 C16.9260745,1.59640396 17.0579413,1.69230709 17.2017982,1.81218781 C17.3216789,1.92008046 17.4355639,2.02797149 17.5434565,2.13586414 L17.8671329,2.4955045 C17.9750255,2.62737329 18.0739256,2.7592401 18.1638362,2.89110889 C18.2537467,3.02297768 18.334665,3.1548445 18.4065934,3.28671329 C18.4905099,3.45454629 18.5624373,3.60439495 18.6223776,3.73626374 C18.6943061,3.89210867 18.7542455,4.04195732 18.8021978,4.18581419 C18.8501501,4.36563526 18.8801198,4.52747181 18.8921079,4.67132867 C18.9280721,4.77922132 18.9580418,4.94705181 18.982018,5.17482517 C18.9940061,5.28271782 19,5.45054831 19,5.67832168 C19,5.87013083 18.9940061,6.03796132 18.982018,6.18181818 C18.9460538,6.40959155 18.916084,6.57742204 18.8921079,6.68531469 C18.8681317,6.85314769 18.8291711,7.01798121 18.7752248,7.17982018 C18.7212785,7.34165915 18.658342,7.48251688 18.5864136,7.6023976 C18.5384613,7.75824254 18.4725279,7.91408513 18.3886114,8.06993007 C18.3046949,8.225775 18.2207796,8.35764182 18.1368631,8.46553447 C18.0529466,8.60939133 17.9570435,8.74425511 17.8491508,8.87012987 C17.7412582,8.99600463 17.6273732,9.11288657 17.5074925,9.22077922 L17.1658342,9.54445554 L16.7702298,9.83216783 C16.5904087,9.95204855 16.4585419,10.0359638 16.3746254,10.0839161 C16.2307685,10.1678326 16.0809199,10.2397599 15.9250749,10.2997003 L15.4755245,10.4615385 L14.99001,10.5874126 C14.8341651,10.6233768 14.6723285,10.6473526 14.5044955,10.6593407 L13.8211788,10.6773227 C13.7132862,10.6773227 13.5694315,10.6713287 13.3896104,10.6593407 C13.2817177,10.6473526 13.143857,10.6233768 12.976024,10.5874126 C12.7722268,10.5394603 12.6103902,10.4975027 12.4905095,10.4615385 C12.3346646,10.4255742 12.1848159,10.3596408 12.040959,10.2637363 L11.7532468,10.1018981 L11.7172827,10.2277722 L11.5914086,10.4795205 L11.3576424,11.2167832 L11.3576424,11.2887113 L11.3396603,11.2887113 L11.3396603,12.007992 L11.6993007,12.1698302 C11.3995989,12.5294723 11.165835,12.9550425 10.998002,13.4465534 C10.8421571,13.866136 10.7642358,14.3636335 10.7642358,14.9390609 Z M10.3866134,3.97002997 L10.4945055,4.02397602 C10.5424578,4.0359641 10.5844154,4.05394593 10.6203796,4.07792208 L10.8361638,4.2037962 L11.3396603,4.61738262 L11.4475524,4.77922078 C11.4835167,4.82717307 11.5134864,4.87512464 11.5374625,4.92307692 L11.6273726,5.06693307 C11.6753249,5.12687343 11.7112886,5.18681289 11.7352647,5.24675325 L11.8971029,5.57042957 C11.909091,5.65434607 11.9240758,5.71428553 11.9420579,5.75024975 C11.96004,5.78621397 11.9810189,5.84615343 12.004995,5.93006993 C12.0289711,5.99001029 12.046953,6.0559437 12.0589411,6.12787213 L12.0949051,6.34365634 C12.1188812,6.39160863 12.1368631,6.45754204 12.1488511,6.54145854 L12.2207792,7.00899101 L12.2207792,7.24275724 C12.2327673,7.3026976 12.2387612,7.38661285 12.2387612,7.49450549 L12.2387612,7.96203796 C12.2387612,8.00999025 12.2327673,8.07592366 12.2207792,8.15984016 L12.2207792,8.51948052 L12.1848152,8.6993007 C12.1728271,8.77122913 12.1608392,8.8191807 12.1488511,8.84315684 L12.0769231,9.16683317 L12.2567433,9.27472527 L12.4545455,9.34665335 C12.5264739,9.38261756 12.6343649,9.42457518 12.7782218,9.47252747 L12.8321678,9.49050949 C12.9280724,9.53846178 13.0539453,9.57442545 13.2097902,9.5984016 C13.2937067,9.62237774 13.4255735,9.64635353 13.6053946,9.67032967 C13.6893111,9.69430581 13.8211779,9.70629371 14.000999,9.70629371 C14.1568439,9.70629371 14.2947047,9.69430581 14.4145854,9.67032967 L14.8101898,9.61638362 C14.9420586,9.59240747 15.0679315,9.5564438 15.1878122,9.50849151 L15.2597403,9.49050949 C15.4035971,9.4425572 15.5054942,9.40659353 15.5654346,9.38261738 L16.2487512,8.98701299 C16.3086916,8.95104877 16.3926069,8.89110931 16.5004995,8.80719281 L16.8601399,8.51948052 L17.0939061,8.23176823 C17.1898107,8.12387558 17.2707289,8.0219785 17.3366633,7.92607393 C17.4025977,7.83016935 17.4685311,7.71628438 17.5344655,7.58441558 C17.6003999,7.45254679 17.6513485,7.33866182 17.6873127,7.24275724 L17.8311688,6.86513487 C17.8791211,6.74525415 17.9150848,6.61338733 17.9390609,6.46953047 C17.9630371,6.36163782 17.9810189,6.23576496 17.993007,6.09190809 C18.0049951,5.99600352 18.010989,5.85814276 18.010989,5.67832168 C18.010989,5.57042903 18.0049951,5.43256827 17.993007,5.26473526 C17.993007,5.16883069 17.9750252,5.03696388 17.9390609,4.86913087 L17.8311688,4.49150849 C17.7832165,4.3596397 17.7382619,4.23676381 17.6963037,4.12287712 C17.6543454,4.00899044 17.6033969,3.89210849 17.5434565,3.77222777 C17.4835162,3.65234705 17.4115888,3.54445602 17.3276723,3.44855145 C17.2917081,3.38861109 17.2257747,3.2987019 17.1298701,3.17882118 L17.0939061,3.14285714 C17.0459538,3.07092871 16.9680325,2.98101952 16.8601399,2.87312687 C16.7522472,2.76523423 16.6503501,2.67532503 16.5544456,2.6033966 C16.4345648,2.50749203 16.3326678,2.43556468 16.2487512,2.38761239 C16.1408586,2.31568396 16.0299706,2.24675358 15.9160839,2.18081918 C15.8021972,2.11488479 15.6913092,2.0579423 15.5834166,2.00999001 C15.4755239,1.96203772 15.3436571,1.91408615 15.1878122,1.86613387 C15.0799195,1.81818158 14.9540467,1.7822179 14.8101898,1.75824176 C14.7262733,1.73426561 14.5944065,1.71028983 14.4145854,1.68631369 C14.2947047,1.66233754 14.1568439,1.65034965 14.000999,1.65034965 C13.8451541,1.65034965 13.7072933,1.66233754 13.5874126,1.68631369 L13.1918082,1.74025974 C13.0479513,1.76423588 12.9280724,1.80019956 12.8321678,1.84815185 L12.4545455,1.97402597 L12.0949051,2.17182817 L11.7532468,2.36963037 C11.6933064,2.40559459 11.6153851,2.46553405 11.5194805,2.54945055 L11.4475524,2.58541459 C11.3876121,2.63336687 11.2977029,2.71728212 11.1778222,2.83716284 L11.015984,3.03496503 L10.7462537,3.37662338 C10.6623372,3.48451602 10.5964038,3.58041916 10.5484515,3.66433566 L10.3866134,3.97002997 Z M18.8201798,14.3276723 C18.844156,14.3276723 18.8651348,14.3306693 18.8831169,14.3366633 C18.901099,14.3426574 18.9220778,14.3576422 18.9460539,14.3816184 L18.982018,14.4355644 C19.0059941,14.4595406 19.017982,14.4835164 19.017982,14.5074925 L19.017982,15.3886114 L19,15.4425574 C18.9880119,15.4665336 18.9730271,15.4875124 18.955045,15.5054945 C18.9370628,15.5234766 18.919081,15.5354645 18.9010989,15.5414585 C18.8831168,15.5474526 18.856144,15.5504496 18.8201798,15.5504496 L18.2087912,15.5504496 L18.1368631,15.5684316 C18.112887,15.5684316 18.0889112,15.5804195 18.0649351,15.6043956 L17.9390609,15.7302697 L17.7232767,16.2517483 C17.7112887,16.2997005 17.7052947,16.3536461 17.7052947,16.4135864 C17.7052947,16.4735268 17.7292705,16.5214783 17.7772228,16.5574426 L18.2267732,17.006993 L18.2627373,17.0789211 C18.2747253,17.0909092 18.2807193,17.1148849 18.2807193,17.1508492 L18.2627373,17.2047952 L18.2267732,17.2767233 L17.6153846,17.8701299 C17.5914085,17.894106 17.5674327,17.9120879 17.5434565,17.9240759 L17.4715285,17.9240759 C17.4355643,17.9240759 17.4085915,17.921079 17.3906094,17.9150849 C17.3726273,17.9090909 17.3516485,17.894106 17.3276723,17.8701299 L16.8961039,17.4385614 C16.8481516,17.3906092 16.7972031,17.3636364 16.7432567,17.3576424 C16.6893104,17.3516483 16.6323679,17.3666332 16.5724276,17.4025974 L16.0689311,17.6003996 C15.9970026,17.6243757 15.9490511,17.6573424 15.9250749,17.6993007 C15.9010988,17.741259 15.8891109,17.7922075 15.8891109,17.8521479 L15.8891109,18.4635365 C15.8891109,18.4995007 15.8861139,18.5294704 15.8801199,18.5534466 C15.8741258,18.5774227 15.859141,18.5954045 15.8351648,18.6073926 L15.7452547,18.6793207 C15.7212786,18.6913088 15.7032968,18.6973027 15.6913087,18.6973027 L14.8461538,18.6973027 C14.8101896,18.6973027 14.7802199,18.6943057 14.7562438,18.6883117 C14.7322676,18.6823177 14.7142858,18.6703298 14.7022977,18.6523477 C14.6903096,18.6343655 14.6783217,18.6133867 14.6663337,18.5894106 L14.6663337,17.9060939 C14.6663337,17.8701297 14.6603397,17.84016 14.6483516,17.8161838 C14.6363636,17.7922077 14.6213787,17.7652349 14.6033966,17.7352647 C14.5854145,17.7052946 14.5644357,17.6843157 14.5404595,17.6723277 L13.9470529,17.4205794 C13.8871126,17.4085913 13.8301701,17.4025974 13.7762238,17.4025974 C13.7222775,17.4025974 13.6773229,17.4265732 13.6413586,17.4745255 L13.1918082,17.9060939 L13.1378621,17.96004 L13.0569431,17.96004 C13.0269729,17.96004 13.0029971,17.957043 12.985015,17.951049 C12.9670329,17.9450549 12.9460541,17.93007 12.9220779,17.9060939 L12.2567433,17.2407592 L12.2567433,17.0969031 C12.2687313,17.072927 12.2867132,17.0489512 12.3106893,17.024975 L12.7422577,16.5754246 C12.79021,16.5274723 12.8201798,16.4795207 12.8321678,16.4315684 C12.8441559,16.3836161 12.8261741,16.3296706 12.7782218,16.2697303 L12.5804196,15.7482517 C12.5564434,15.6883114 12.5234767,15.6433568 12.4815185,15.6133866 C12.4395602,15.5834164 12.3886117,15.5684316 12.3286713,15.5684316 L11.7172827,15.5684316 C11.6813185,15.5684316 11.6513488,15.5654346 11.6273726,15.5594406 C11.6033965,15.5534465 11.5854146,15.5384617 11.5734266,15.5144855 L11.5194805,15.4605395 C11.5074924,15.4365633 11.5014985,15.4125875 11.5014985,15.3886114 L11.5014985,14.5254745 C11.5014985,14.4895103 11.5044955,14.4625376 11.5104895,14.4445554 C11.5164835,14.4265733 11.5314684,14.4055945 11.5554446,14.3816184 C11.5794207,14.3576422 11.6033965,14.3396604 11.6273726,14.3276723 L12.3106893,14.3276723 L12.3826174,14.3096903 C12.4065935,14.3096903 12.4305693,14.2977024 12.4545455,14.2737263 L12.4725275,14.2557443 C12.4965036,14.2437562 12.5174824,14.2257743 12.5354645,14.2017982 C12.5534466,14.1778221 12.5624376,14.1598402 12.5624376,14.1478521 L12.7782218,13.6263736 C12.814186,13.5664333 12.8261739,13.5094908 12.8141858,13.4555445 C12.8021977,13.4015981 12.778222,13.3566435 12.7422577,13.3206793 L12.2927073,12.8891109 L12.2567433,12.8351648 C12.2447552,12.8111887 12.2387612,12.781219 12.2387612,12.7452547 L12.2567433,12.6733267 C12.2567433,12.6493505 12.2687311,12.6313687 12.2927073,12.6193806 L12.9040959,12.007992 L12.976024,11.972028 C12.988012,11.9600399 13.0119878,11.954046 13.047952,11.954046 L13.1018981,11.972028 C13.1258742,11.972028 13.14985,11.9840159 13.1738262,12.007992 L13.6233766,12.4395604 C13.6713289,12.4875127 13.7222775,12.5144855 13.7762238,12.5204795 C13.8301701,12.5264736 13.8811186,12.5174826 13.9290709,12.4935065 L14.4325674,12.2777223 C14.5044959,12.2537461 14.5554444,12.2207794 14.5854146,12.1788212 C14.6153848,12.1368629 14.6303696,12.0799204 14.6303696,12.007992 L14.6303696,11.3966034 L14.6483516,11.3246753 L14.6843157,11.2707293 L14.7382617,11.2347652 C14.7622379,11.2227772 14.7862137,11.2167832 14.8101898,11.2167832 L15.6733267,11.2167832 L15.7452547,11.2347652 L15.8171828,11.2707293 L15.8531469,11.3246753 C15.8651349,11.3486515 15.8711289,11.3726273 15.8711289,11.3966034 L15.8711289,12.0979021 L15.9250749,12.1878122 L15.979021,12.2417582 L16.0509491,12.2777223 L16.5544456,12.4755245 C16.6143859,12.5114887 16.6743254,12.5264736 16.7342657,12.5204795 C16.7942061,12.5144855 16.8421577,12.4875127 16.8781219,12.4395604 L17.2917083,12.007992 L17.3636364,11.972028 C17.3756244,11.9600399 17.4055942,11.954046 17.4535465,11.954046 L17.5254745,11.972028 L17.5974026,12.007992 L18.1908092,12.6013986 L18.2267732,12.6733267 C18.2387613,12.6853147 18.2447552,12.7062936 18.2447552,12.7362637 C18.2447552,12.7662339 18.2387613,12.7992006 18.2267732,12.8351648 L18.1908092,12.8891109 L17.7412587,13.3206793 C17.7052945,13.3686316 17.6813187,13.4195801 17.6693307,13.4735265 C17.6573426,13.5274728 17.6693305,13.5784213 17.7052947,13.6263736 L17.9030969,14.1478521 C17.927073,14.2197806 17.9600398,14.2677321 18.001998,14.2917083 C18.0439563,14.3156844 18.1008987,14.3276723 18.1728272,14.3276723 L18.8201798,14.3276723 Z M15.997003,6.68531469 L13.011988,6.68531469 L13.011988,2.67532468 L14.018981,2.67532468 L14.018981,5.6963037 L15.997003,5.6963037 L15.997003,6.68531469 Z M16.7162837,15.6583417 C16.7882121,15.4785206 16.8271728,15.2777234 16.8331668,15.0559441 C16.8391609,14.8341647 16.8031972,14.6303706 16.7252747,14.4445554 C16.6473523,14.2587403 16.5304703,14.0879129 16.3746254,13.9320679 C16.2187804,13.776223 16.047953,13.662338 15.8621379,13.5904096 C15.6763227,13.5184812 15.4755256,13.4825175 15.2597403,13.4825175 C15.043955,13.4825175 14.8401608,13.5214781 14.6483516,13.5994006 C14.4565425,13.6773231 14.2827181,13.797202 14.1268731,13.959041 C13.9710282,14.1208799 13.8571432,14.2887104 13.7852148,14.4625375 C13.7132864,14.6363645 13.6773227,14.8341647 13.6773227,15.0559441 C13.6773227,15.2777234 13.7162833,15.4845145 13.7942058,15.6763237 C13.8721283,15.8681328 13.9920072,16.0389603 14.1538462,16.1888112 C14.3156851,16.3386621 14.4865126,16.4495501 14.6663337,16.5214785 C14.8461547,16.593407 15.043955,16.6293706 15.2597403,16.6293706 C15.4755256,16.6293706 15.6793197,16.593407 15.8711289,16.5214785 C16.062938,16.4495501 16.2337655,16.3326681 16.3836164,16.1708292 C16.5334673,16.0089902 16.6443553,15.8381627 16.7162837,15.6583417 Z" id="" fill="#2B2826"></path>
        </g>
        <g id="icons-/-Error_Mark" transform="translate(0.000000, 12.000000)">
            <circle id="Oval" fill="#FFFFFF" fill-rule="nonzero" cx="4" cy="4" r="4"></circle>
            <path d="M4.00666043,0.66666822 C4.60923891,0.667230482 5.16978374,0.820408594 5.68831169,1.12620713 C6.1900347,1.42368891 6.5896311,1.82328531 6.88711289,2.32500833 C7.19347473,2.84449144 7.34665335,3.4050364 7.34665335,4.00666001 C7.34665335,4.60828362 7.19347473,5.16882857 6.88711289,5.68831169 C6.5896311,6.1900347 6.1900347,6.5896311 5.68831169,6.88711289 C5.16882857,7.19347473 4.60828362,7.34665335 4.00666001,7.34665335 C3.4050364,7.34665335 2.84449144,7.19347473 2.32500833,6.88711289 C1.82328531,6.5896311 1.42368891,6.1900347 1.12620713,5.68831169 C0.819845288,5.16882857 0.666666667,4.60828362 0.666666667,4.00666001 C0.666666667,3.4050364 0.819845288,2.84449144 1.12620713,2.32500833 C1.42368891,1.82328531 1.82328531,1.42368891 2.32500833,1.12620713 C2.84353627,0.820408594 3.4040811,0.667230482 4.00665958,0.66666822 L4.00666043,0.66666822 Z M4.00666043,0.66666822 C4.00555043,0.666667185 4.00444029,0.666666667 4.00333,0.666666667 L4.00999001,0.666666667 C4.00887973,0.666666667 4.00776958,0.666667185 4.00665958,0.66666822 L4.00666043,0.66666822 Z M4.34299034,5.67499167 L4.34299034,5.00899101 L3.67032967,5.00899101 L3.67032967,5.67499167 L4.34299034,5.67499167 Z M4.34299034,4.34299034 L4.34299034,2.33832834 L3.67032967,2.33832834 L3.67032967,4.34299034 L4.34299034,4.34299034 Z" id="" fill="#F83200"></path>
        </g>
    </g>
</svg>