<?xml version="1.0" encoding="UTF-8"?>
<svg width="20px" height="20px" viewBox="0 0 20 20" version="1.1" xmlns="http://www.w3.org/2000/svg" xmlns:xlink="http://www.w3.org/1999/xlink">
    <!-- Generator: Sketch 51.3 (57544) - http://www.bohemiancoding.com/sketch -->
    <title>icons / classes/ BMC_RAIDStorageDevice_32</title>
    <desc>Created with Sketch.</desc>
    <defs>
        <polygon id="path-1" points="0 0 19.99975 0 19.99975 19.99975 0 19.99975"></polygon>
    </defs>
    <g id="icons-/-classes/-BMC_RAIDStorageDevice_32" stroke="none" stroke-width="1" fill="none" fill-rule="evenodd">
        <g>
            <g id="icons-/-20x20-icon-field" fill="#F5A623" fill-rule="nonzero" opacity="0">
                <rect x="0" y="0" width="20" height="20"></rect>
            </g>
            <g id="Group-3">
                <mask id="mask-2" fill="white">
                    <use xlink:href="#path-1"></use>
                </mask>
                <g id="Clip-2"></g>
                <path d="M14.3164167,16.8164167 L14.8839167,16.8164167 C16.06725,16.8164167 16.6589167,16.2089167 16.6589167,14.99225 C16.6589167,13.79975 16.1080833,13.19975 15.0080833,13.19975 L14.3164167,13.19975 L14.3164167,16.8164167 Z M14.8839167,17.49975 L13.5164167,17.49975 L13.5164167,12.5164167 L15.0330833,12.5164167 C15.8080833,12.5164167 16.41725,12.7339167 16.84975,13.1580833 C17.2839167,13.5830833 17.49975,14.19225 17.49975,14.9664167 C17.49975,15.7839167 17.2755833,16.41725 16.8255833,16.84975 C16.3755833,17.2839167 15.7330833,17.49975 14.8839167,17.49975 Z M11.42475,17.49975 L12.22475,17.49975 L12.22475,12.5164167 L11.42475,12.5164167 L11.42475,17.49975 Z M7.80058333,15.4164167 L9.22558333,15.4164167 C9.22558333,15.4164167 8.52558333,13.29225 8.50058333,13.19975 C8.44141667,13.4664167 7.80058333,15.4164167 7.80058333,15.4164167 Z M10.77475,17.49975 L9.92475,17.49975 L9.43391667,16.1164167 L7.56641667,16.1164167 L7.08308333,17.49975 L6.24225,17.49975 L8.07558333,12.49975 L8.94225,12.49975 L10.77475,17.49975 Z M4.66641667,14.62475 C4.82475,14.4914167 4.90808333,14.29975 4.90808333,14.0505833 C4.91725,14.0330833 4.91725,14.01725 4.91725,13.99975 C4.91725,13.7164167 4.82475,13.5164167 4.64975,13.39225 C4.46725,13.2664167 4.19225,13.2080833 3.83308333,13.2080833 L3.29975,13.2080833 L3.29975,14.8330833 L3.85808333,14.8330833 C4.23308333,14.8330833 4.50058333,14.7664167 4.66641667,14.62475 Z M6.17475,17.49975 L5.26725,17.49975 L4.09141667,15.5089167 L3.29975,15.5089167 L3.29975,17.49975 L2.49975,17.49975 L2.49975,12.5164167 L3.88308333,12.5164167 C4.51641667,12.5164167 4.98391667,12.6414167 5.29141667,12.8830833 C5.59141667,13.12475 5.74141667,13.4830833 5.74141667,13.97475 C5.74141667,14.0330833 5.74141667,14.0839167 5.73308333,14.1330833 C5.68391667,14.6664167 5.36725,15.0589167 4.79141667,15.3005833 L6.17475,17.49975 Z M0.833083333,19.1664167 L19.1664167,19.1664167 L19.1664167,10.8330833 L0.833083333,10.8330833 L0.833083333,19.1664167 Z M19.99975,9.99975 L19.99975,19.99975 L-0.00025,19.99975 L-0.00025,16.6664167 L-0.00025,14.99975 L-0.00025,10.8330833 L-0.00025,9.99975 L-0.00025,9.16641667 C-0.00025,9.05808333 0.00808333333,8.94225 0.0330833333,8.83308333 C0.07475,8.64141667 0.14975,8.44975 0.24975,8.25808333 C0.32475,8.31725 0.400583333,8.36641667 0.483083333,8.41641667 C0.733083333,8.58308333 1.00058333,8.74225 1.28308333,8.87558333 C1.49141667,8.98391667 1.71641667,9.08391667 1.94141667,9.16641667 C3.26641667,9.69975 4.88391667,9.99975 6.66641667,9.99975 C8.44975,9.99975 10.0664167,9.69975 11.3914167,9.16641667 C11.61725,9.08391667 11.8414167,8.98391667 12.04975,8.87558333 C12.3330833,8.74225 12.59975,8.58308333 12.84975,8.41641667 C12.9330833,8.36641667 13.0089167,8.31725 13.0839167,8.25808333 C13.1839167,8.44975 13.2580833,8.64141667 13.29975,8.83308333 C13.3255833,8.94225 13.3330833,9.05808333 13.3330833,9.16641667 L13.3330833,9.99975 L19.99975,9.99975 Z M-0.00025,4.99975 L-0.00025,3.33308333 C-0.00025,3.22475 0.00808333333,3.10891667 0.0330833333,2.99975 C0.32475,1.54141667 2.49225,0.358083333 5.32475,0.0664166667 C5.51641667,0.04975 5.72475,0.0330833333 5.92558333,0.0255833333 C6.16725,0.00808333333 6.41725,-0.00025 6.66641667,-0.00025 C6.91641667,-0.00025 7.16641667,0.00808333333 7.40808333,0.0255833333 C7.60808333,0.0330833333 7.81641667,0.04975 8.00891667,0.0664166667 C10.8414167,0.358083333 13.0089167,1.54141667 13.29975,2.99975 C13.3255833,3.10891667 13.3330833,3.22475 13.3330833,3.33308333 L13.3330833,4.99975 C13.3330833,5.73308333 12.8580833,6.40891667 12.04975,6.95808333 C11.9914167,7.00808333 11.92475,7.04975 11.8589167,7.08308333 C11.6505833,7.22475 11.41725,7.35058333 11.16725,7.45891667 C10.7839167,7.63308333 10.3580833,7.79141667 9.89975,7.91641667 C8.94225,8.18391667 7.84141667,8.33308333 6.66641667,8.33308333 C5.49141667,8.33308333 4.39141667,8.18391667 3.43308333,7.91641667 C2.97558333,7.79141667 2.54975,7.63308333 2.16641667,7.45891667 C1.91641667,7.35058333 1.68308333,7.22475 1.47475,7.08308333 C1.40891667,7.04975 1.34225,7.00808333 1.28308333,6.95808333 C0.475583333,6.40891667 -0.00025,5.73308333 -0.00025,4.99975 Z" id="Fill-1" fill="#333333" mask="url(#mask-2)"></path>
            </g>
            <g id="icons-/-Error_Mark" transform="translate(0.000000, 11.200000)" opacity="0">
                <circle id="Oval" fill="#FFFFFF" fill-rule="nonzero" cx="4.4" cy="4.4" r="4.4"></circle>
                <path d="M4.40732647,0.733335042 C5.0701628,0.73395353 5.68676212,0.902449454 6.25714286,1.23882784 C6.80903817,1.5660578 7.24859421,2.00561385 7.57582418,2.55750916 C7.9128222,3.12894059 8.08131868,3.74554004 8.08131868,4.40732601 C8.08131868,5.06911198 7.9128222,5.68571143 7.57582418,6.25714286 C7.24859421,6.80903817 6.80903817,7.24859421 6.25714286,7.57582418 C5.68571143,7.9128222 5.06911198,8.08131868 4.40732601,8.08131868 C3.74554004,8.08131868 3.12894059,7.9128222 2.55750916,7.57582418 C2.00561385,7.24859421 1.5660578,6.80903817 1.23882784,6.25714286 C0.901829817,5.68571143 0.733333333,5.06911198 0.733333333,4.40732601 C0.733333333,3.74554004 0.901829817,3.12894059 1.23882784,2.55750916 C1.5660578,2.00561385 2.00561385,1.5660578 2.55750916,1.23882784 C3.1278899,0.902449454 3.74448922,0.73395353 4.40732554,0.733335042 L4.40732647,0.733335042 Z M4.40732647,0.733335042 C4.40610547,0.733333903 4.40488432,0.733333333 4.403663,0.733333333 L4.41098901,0.733333333 C4.4097677,0.733333333 4.40854654,0.733333903 4.40732554,0.733335042 L4.40732647,0.733335042 Z M4.77728938,6.24249084 L4.77728938,5.50989011 L4.03736264,5.50989011 L4.03736264,6.24249084 L4.77728938,6.24249084 Z M4.77728938,4.77728938 L4.77728938,2.57216117 L4.03736264,2.57216117 L4.03736264,4.77728938 L4.77728938,4.77728938 Z" id="" fill="#F83200"></path>
            </g>
        </g>
    </g>
</svg>