<?xml version="1.0" encoding="UTF-8"?>
<svg width="20px" height="20px" viewBox="0 0 20 20" version="1.1" xmlns="http://www.w3.org/2000/svg" xmlns:xlink="http://www.w3.org/1999/xlink">
    <!-- Generator: Sketch 51.3 (57544) - http://www.bohemiancoding.com/sketch -->
    <title>icons / classes/ BMC_VirtualSystemEnabler_32</title>
    <desc>Created with Sketch.</desc>
    <defs></defs>
    <g id="icons-/-classes/-BMC_VirtualSystemEnabler_32" stroke="none" stroke-width="1" fill="none" fill-rule="evenodd">
        <g id="icons-/-classes/-Virtual-System-Enabler">
            <g id="icons-/-20x20-icon-field" fill="#F5A623" fill-rule="nonzero" opacity="0">
                <rect x="0" y="0" width="20" height="20"></rect>
            </g>
            <path d="M18.8921079,1.50649351 C18.9280721,1.56643387 18.9550449,1.63236727 18.973027,1.7042957 C18.9910091,1.77622414 19,1.86613333 19,1.97402597 L19,10.5334665 C18.7842147,10.113884 18.5024992,9.71828358 18.1548452,9.34665335 C17.8071911,8.97502312 17.4235785,8.65734398 17.003996,8.39360639 L17.003996,2.69330669 L2.996004,2.69330669 L2.996004,11.7022977 L8.01298701,11.7022977 C7.91708244,11.9900114 7.84815206,12.2747239 7.80619381,12.5564436 C7.76423555,12.8381632 7.74325674,13.1348636 7.74325674,13.4465534 L7.74325674,13.6803197 L2.29470529,13.6803197 C2.21078879,13.6803197 2.10889171,13.6743257 1.98901099,13.6623377 C1.92907063,13.6623377 1.85114933,13.6443558 1.75524476,13.6083916 C1.68331632,13.5724274 1.61738292,13.5304698 1.55744256,13.4825175 C1.4975022,13.4345652 1.44355668,13.3686318 1.3956044,13.2847153 L1.23376623,13.0689311 C1.19780202,13.0209788 1.15284742,12.9580423 1.0989011,12.8801199 C1.04495478,12.8021974 1.01198807,12.733267 1,12.6733267 C0.988011928,12.6133863 0.982017982,12.5234771 0.982017982,12.4035964 L0.982017982,1.97402597 C0.982017982,1.86613333 0.994005874,1.77622414 1.01798202,1.7042957 L1.08991009,1.47052947 C1.12587431,1.39860104 1.16783193,1.32967066 1.21578422,1.26373626 C1.2637365,1.19780187 1.32367596,1.14085938 1.3956044,1.09290709 C1.43156861,1.05694288 1.48551413,1.01498525 1.55744256,0.967032967 L1.80919081,0.805194805 C1.86913117,0.769230589 1.94405549,0.742257832 2.03396603,0.724275724 C2.12387657,0.706293616 2.21078879,0.697302697 2.29470529,0.697302697 L17.993007,0.697302697 C18.0529474,0.709290769 18.1308687,0.733266553 18.2267732,0.769230769 C18.2987017,0.793206913 18.367632,0.832167562 18.4335664,0.886113886 C18.4995008,0.94006021 18.5564433,1.00899059 18.6043956,1.09290709 L18.8921079,1.50649351 Z M7.86913087,8.68131868 C7.88111894,8.66933061 7.88711289,8.65734272 7.88711289,8.64535465 L7.88711289,8.59140859 L7.90509491,8.51948052 L7.86913087,8.48351648 L7.67132867,8.01598402 L7.67132867,7.96203796 C7.67132867,7.95004989 7.6683317,7.94105897 7.66233766,7.93506494 L7.63536464,7.90809191 L7.56343656,7.87212787 L7.54545455,7.85414585 L7.45554446,7.83616384 L6.8981019,7.83616384 C6.88611383,7.83616384 6.87412593,7.83016989 6.86213786,7.81818182 L6.84415584,7.8001998 L6.79020979,7.8001998 L6.79020979,7.76423576 L6.77222777,7.74625375 L6.75424575,7.69230769 L6.73626374,7.65634366 L6.73626374,6.91908092 L6.77222777,6.84715285 L6.84415584,6.77522478 C6.84415584,6.7632367 6.85014979,6.75724276 6.86213786,6.75724276 L7.54545455,6.75724276 L7.58141858,6.73926074 C7.59340665,6.72727267 7.5994006,6.71528478 7.5994006,6.7032967 L7.5994006,6.68531469 L7.63536464,6.66733267 C7.64735271,6.66733267 7.65634363,6.66133872 7.66233766,6.64935065 C7.6683317,6.63736258 7.67132867,6.62537469 7.67132867,6.61338661 L7.67132867,6.57742258 L7.86913087,6.16383616 L7.86913087,6.12787213 L7.90509491,6.07392607 L7.88711289,5.96603397 C7.88711289,5.95404589 7.88111894,5.942058 7.86913087,5.93006993 L7.83316683,5.85814186 L7.45554446,5.4985015 L7.43756244,5.46253746 L7.41958042,5.40859141 L7.41958042,5.31868132 L7.45554446,5.24675325 L7.97702298,4.74325674 L8.01298701,4.70729271 C8.01298701,4.69530464 8.01898096,4.68931069 8.03096903,4.68931069 L8.15684316,4.68931069 L8.62437562,5.1028971 C8.62437562,5.11488517 8.6273726,5.12387609 8.63336663,5.12987013 C8.63936067,5.13586417 8.65434553,5.13886114 8.67832168,5.13886114 L8.71428571,5.17482517 L8.84015984,5.19280719 L8.87612388,5.17482517 L8.91208791,5.13886114 L9.34365634,4.995005 L9.37962038,4.95904096 L9.41558442,4.95904096 L9.52347652,4.83316683 L9.54145854,4.74325674 L9.54145854,4.16783217 L9.55944056,4.11388611 L9.5954046,4.07792208 C9.5954046,4.06593401 9.59840157,4.05694309 9.6043956,4.05094905 C9.61038964,4.04495501 9.62537451,4.04195804 9.64935065,4.04195804 L10.5484515,4.04195804 L10.5844156,4.07792208 C10.5964037,4.08991015 10.6023976,4.10189804 10.6023976,4.11388611 L10.6023976,4.14985015 C10.6143857,4.14985015 10.6203796,4.1558441 10.6203796,4.16783217 L10.6203796,4.74325674 C10.6203796,4.75524482 10.6263736,4.77322665 10.6383616,4.7972028 L10.6563437,4.86913087 L10.7102897,4.94105894 C10.7342659,4.94105894 10.7522477,4.94705289 10.7642358,4.95904096 L11.2317682,5.13886114 L11.2677323,5.15684316 L11.2857143,5.17482517 L11.4115884,5.15684316 L11.4835165,5.12087912 L11.9150849,4.68931069 C11.927073,4.67732262 11.9390609,4.67132867 11.951049,4.67132867 L12.0949051,4.67132867 C12.0949051,4.68331674 12.100899,4.69530464 12.1128871,4.70729271 C12.1248752,4.71928078 12.1308691,4.73126867 12.1308691,4.74325674 L12.6883117,5.24675325 L12.6883117,5.31868132 C12.7002998,5.33066939 12.7062937,5.34865123 12.7062937,5.37262737 L12.7062937,5.42657343 L12.6883117,5.51648352 L12.2927073,5.87612388 C12.2927073,5.90010002 12.2807194,5.9240758 12.2567433,5.94805195 C12.1968029,5.94805195 12.1668332,5.95404589 12.1668332,5.96603397 L12.1668332,6.001998 C12.1548451,6.01398607 12.1488511,6.02597397 12.1488511,6.03796204 L12.1488511,6.12787213 L12.1848152,6.14585415 L12.3646354,6.61338661 L12.3646354,6.64935065 L12.4005994,6.68531469 C12.4245755,6.70929083 12.4425574,6.72127872 12.4545455,6.72127872 L12.4905095,6.75724276 L13.1198801,6.75724276 L13.1558442,6.77522478 C13.1678322,6.77522478 13.1738262,6.78121872 13.1738262,6.79320679 L13.2097902,6.81118881 C13.2217783,6.81118881 13.2277722,6.81718276 13.2277722,6.82917083 L13.2637363,6.84715285 C13.2757243,6.85914092 13.2817183,6.87112881 13.2817183,6.88311688 L13.2817183,7.49450549 C12.9580403,7.50649357 12.6103915,7.56043908 12.2387612,7.65634366 C11.9270714,7.72827209 11.6093922,7.84215706 11.2857143,7.998002 C11.2857143,7.98601393 11.2917082,7.96503511 11.3036963,7.93506494 C11.3156844,7.90509476 11.3276723,7.87212805 11.3396603,7.83616384 L11.3756244,7.71028971 C11.3876124,7.67432549 11.3936064,7.62637393 11.3936064,7.56643357 L11.3936064,7.15284715 L11.3396603,7.00899101 C11.3276723,6.94905065 11.3096904,6.90709303 11.2857143,6.88311688 L11.2317682,6.75724276 C11.2197802,6.72127854 11.2017983,6.68531487 11.1778222,6.64935065 L11.015984,6.45154845 L10.9080919,6.34365634 L10.7282717,6.21778222 L10.4405594,6.09190809 L10.3146853,6.05594406 L10.1708292,6.05594406 L10.008991,6.01998002 L9.72127872,6.03796204 L9.61338661,6.07392607 C9.55344625,6.09790222 9.51148863,6.11588406 9.48751249,6.12787213 C9.42757213,6.1398602 9.38561451,6.15784204 9.36163836,6.18181818 L9.14585415,6.32567433 C9.09790186,6.36163854 9.06793213,6.39160827 9.05594406,6.41558442 L8.94805195,6.52347652 L8.89410589,6.61338661 L8.82217782,6.73926074 C8.79820168,6.76323688 8.78021984,6.80519451 8.76823177,6.86513487 L8.71428571,6.97302697 L8.64235764,7.26073926 L8.66033966,7.54845155 L8.67832168,7.67432567 L8.73226773,7.8001998 C8.7442558,7.86014016 8.7562437,7.90209778 8.76823177,7.92607393 L8.87612388,8.15984016 L9.05594406,8.37562438 L9.27172827,8.53746254 C9.29570442,8.56143868 9.33166809,8.58541447 9.37962038,8.60939061 L9.61338661,8.6993007 C9.67332697,8.72327684 9.7152846,8.73526474 9.73926074,8.73526474 L9.86513487,8.77122877 L10.008991,8.77122877 C9.82916993,8.90309756 9.67932128,9.02897043 9.55944056,9.14885115 C9.40359562,9.30469608 9.27172881,9.44855079 9.16383616,9.58041958 L8.82217782,9.43656344 L8.64235764,9.45454545 L8.21078921,9.88611389 L8.17482517,9.88611389 L8.13886114,9.92207792 C8.13886114,9.93406599 8.13286719,9.94005994 8.12087912,9.94005994 L8.04895105,9.94005994 L7.94105894,9.88611389 L7.41958042,9.36463536 L7.4015984,9.29270729 C7.38961033,9.29270729 7.38361638,9.2807194 7.38361638,9.25674326 L7.38361638,9.18481518 L7.4015984,9.11288711 L7.43756244,9.09490509 C7.44955051,9.09490509 7.45554446,9.08891115 7.45554446,9.07692308 L7.86913087,8.6993007 L7.86913087,8.68131868 Z M7.29370629,16.3956044 L7.92307692,14.8851149 C8.00699343,15.2207809 8.11188748,15.5354631 8.23776224,15.8291708 C8.36363699,16.1228786 8.52247656,16.4195789 8.71428571,16.7192807 L7.58141858,16.7192807 L7.45554446,16.7012987 L7.4015984,16.6653347 L7.4015984,16.6113886 C7.4015984,16.5874125 7.39860143,16.5664337 7.39260739,16.5484515 C7.38661336,16.5304694 7.37162849,16.5154846 7.34765235,16.5034965 L7.29370629,16.4675325 L7.29370629,16.3956044 Z M17.4355644,9.68831169 C17.6633378,9.92807313 17.8731259,10.1918068 18.0649351,10.4795205 C18.2447561,10.7432581 18.4125866,11.0429554 18.5684316,11.3786214 C18.7122884,11.7022993 18.8171825,12.0409573 18.8831169,12.3946054 C18.9490513,12.7482535 18.985015,13.0988994 18.991009,13.4465534 C18.997003,13.7942075 18.9670333,14.1448534 18.9010989,14.4985015 C18.8351645,14.8521496 18.7272735,15.1908076 18.5774226,15.5144855 C18.4275717,15.8381635 18.2597412,16.1348638 18.0739261,16.4045954 C17.888111,16.674327 17.6783228,16.9290697 17.4445554,17.1688312 C17.210788,17.4085926 16.9560453,17.6183807 16.6803197,17.7982018 C16.3806179,17.9900109 16.0779236,18.1518475 15.7722278,18.2837163 C15.4665319,18.4155851 15.1398619,18.5174822 14.7922078,18.5894106 C14.3966014,18.6733271 14.0489525,18.7152847 13.7492507,18.7152847 C13.4015967,18.7152847 13.0509508,18.679321 12.6973027,18.6073926 C12.3436546,18.5354642 12.0079936,18.4275731 11.6903097,18.2837163 C11.3726258,18.1398594 11.0729285,17.9750259 10.7912088,17.7892108 C10.5094891,17.6033957 10.2547464,17.3936076 10.026973,17.1598402 C9.79919966,16.9260728 9.58941155,16.67133 9.3976024,16.3956044 C9.20579325,16.1198787 9.0439567,15.8231784 8.91208791,15.5054945 C8.78021912,15.1878106 8.67832204,14.8551466 8.60639361,14.5074925 C8.53446517,14.1838146 8.4985015,13.8331687 8.4985015,13.4555445 C8.4985015,13.0779202 8.53446517,12.7212804 8.60639361,12.3856144 C8.67832204,12.0259722 8.78021912,11.6873143 8.91208791,11.3696304 C9.0439567,11.0519465 9.20579325,10.7552461 9.3976024,10.4795205 C9.58941155,10.2037948 9.79919966,9.94905212 10.026973,9.71528472 C10.2547464,9.48151731 10.5124861,9.2717292 10.8001998,9.08591409 C11.0879135,8.90009897 11.3846139,8.74425637 11.6903097,8.61838162 C11.9960055,8.49250686 12.3286695,8.38761281 12.6883117,8.3036963 C13.0000016,8.23176787 13.3536444,8.1958042 13.7492507,8.1958042 C14.0969048,8.1958042 14.4505477,8.23176787 14.8101898,8.3036963 C15.1218797,8.36363666 15.4485497,8.46853072 15.7902098,8.61838162 C16.1318698,8.76823252 16.4285702,8.92707209 16.6803197,9.09490509 C16.9920096,9.29870232 17.2437553,9.49650254 17.4355644,9.68831169 Z M12.976024,15.8021978 L16.8061938,12.1158841 L16.1228771,11.3426573 L12.9220779,14.3816184 L11.2857143,12.7452547 L10.6203796,13.4645355 L12.976024,15.8021978 Z" id="" fill="#2B2826"></path>
        </g>
        <g id="icons-/-Error_Mark" transform="translate(0.000000, 12.000000)" opacity="0">
            <circle id="Oval" fill="#FFFFFF" fill-rule="nonzero" cx="4" cy="4" r="4"></circle>
            <path d="M4.00666043,0.66666822 C4.60923891,0.667230482 5.16978374,0.820408594 5.68831169,1.12620713 C6.1900347,1.42368891 6.5896311,1.82328531 6.88711289,2.32500833 C7.19347473,2.84449144 7.34665335,3.4050364 7.34665335,4.00666001 C7.34665335,4.60828362 7.19347473,5.16882857 6.88711289,5.68831169 C6.5896311,6.1900347 6.1900347,6.5896311 5.68831169,6.88711289 C5.16882857,7.19347473 4.60828362,7.34665335 4.00666001,7.34665335 C3.4050364,7.34665335 2.84449144,7.19347473 2.32500833,6.88711289 C1.82328531,6.5896311 1.42368891,6.1900347 1.12620713,5.68831169 C0.819845288,5.16882857 0.666666667,4.60828362 0.666666667,4.00666001 C0.666666667,3.4050364 0.819845288,2.84449144 1.12620713,2.32500833 C1.42368891,1.82328531 1.82328531,1.42368891 2.32500833,1.12620713 C2.84353627,0.820408594 3.4040811,0.667230482 4.00665958,0.66666822 L4.00666043,0.66666822 Z M4.00666043,0.66666822 C4.00555043,0.666667185 4.00444029,0.666666667 4.00333,0.666666667 L4.00999001,0.666666667 C4.00887973,0.666666667 4.00776958,0.666667185 4.00665958,0.66666822 L4.00666043,0.66666822 Z M4.34299034,5.67499167 L4.34299034,5.00899101 L3.67032967,5.00899101 L3.67032967,5.67499167 L4.34299034,5.67499167 Z M4.34299034,4.34299034 L4.34299034,2.33832834 L3.67032967,2.33832834 L3.67032967,4.34299034 L4.34299034,4.34299034 Z" id="" fill="#F83200"></path>
        </g>
    </g>
</svg>