<?xml version="1.0" encoding="UTF-8"?>
<svg width="20px" height="20px" viewBox="0 0 20 20" version="1.1" xmlns="http://www.w3.org/2000/svg" xmlns:xlink="http://www.w3.org/1999/xlink">
    <!-- Generator: Sketch 51.3 (57544) - http://www.bohemiancoding.com/sketch -->
    <title>icons / classes/ BMC_Equipment_32</title>
    <desc>Created with Sketch.</desc>
    <defs></defs>
    <g id="icons-/-classes/-BMC_Equipment_32" stroke="none" stroke-width="1" fill="none" fill-rule="evenodd">
        <g id="icons-/-classes/-Equipment">
            <g id="icons-/-20x20-icon-field" fill="#F5A623" fill-rule="nonzero" opacity="0">
                <rect x="0" y="0" width="20" height="20"></rect>
            </g>
            <path d="M17.5074925,5.19280719 C17.915087,5.19280719 18.2657328,5.33965887 18.5594406,5.63336663 C18.8531483,5.9270744 19,6.28371419 19,6.7032967 L19,15.6943057 C19,16.1138882 18.8531483,16.470528 18.5594406,16.7642358 C18.2657328,17.0579435 17.915087,17.2047952 17.5074925,17.2047952 L2.49250749,17.2047952 C2.08491305,17.2047952 1.7342672,17.0579435 1.44055944,16.7642358 C1.14685168,16.470528 1,16.1138882 1,15.6943057 L1,6.7032967 C1,6.28371419 1.14685168,5.9270744 1.44055944,5.63336663 C1.7342672,5.33965887 2.08491305,5.19280719 2.49250749,5.19280719 L5.4955045,5.19280719 L5.4955045,3.7002997 C5.4955045,3.28071718 5.64235617,2.92407739 5.93606394,2.63036963 C6.2297717,2.33666187 6.58641149,2.18981019 7.00599401,2.18981019 L12.994006,2.18981019 C13.4135885,2.18981019 13.7702283,2.33666187 14.0639361,2.63036963 C14.3576438,2.92407739 14.5044955,3.28071718 14.5044955,3.7002997 L14.5044955,5.19280719 L17.5074925,5.19280719 Z M7.00599401,3.7002997 L7.00599401,5.19280719 L12.994006,5.19280719 L12.994006,3.7002997 L7.00599401,3.7002997 Z M13.1918082,10.6953047 C13.4435577,10.4555433 13.6113882,10.1708308 13.6953047,9.84115884 C13.7792212,9.51148686 13.7732273,9.1848168 13.6773227,8.86113886 L13.1738262,9.38261738 C12.982017,9.56243846 12.760241,9.64935068 12.5084915,9.64335664 C12.256742,9.63736261 12.037963,9.54145947 11.8521479,9.35564436 C11.6663327,9.16982924 11.5704296,8.94805324 11.5644356,8.69030969 C11.5584415,8.43256614 11.6393598,8.21378711 11.8071928,8.03396603 L12.3466533,7.51248751 C12.0229754,7.42857101 11.6963053,7.42857101 11.3666334,7.51248751 C11.0369614,7.59640402 10.749252,7.76123753 10.5034965,8.00699301 C10.257741,8.25274848 10.0929075,8.53746092 10.008991,8.86113886 C9.92507451,9.1848168 9.93106845,9.50848989 10.026973,9.83216783 L6.46653347,13.3926074 C6.31068853,13.5484523 6.24175815,13.7492495 6.25974026,13.995005 C6.27772237,14.2407605 6.37961945,14.4565425 6.56543457,14.6423576 C6.75124968,14.8281728 6.96403477,14.9300698 7.2037962,14.9480519 C7.44355764,14.9660341 7.64735181,14.8971037 7.81518482,14.7412587 L11.3576424,11.1808192 C11.6813203,11.2647357 12.0079904,11.2647357 12.3376623,11.1808192 C12.6673343,11.0969027 12.9520468,10.9350661 13.1918082,10.6953047 Z" id="" fill="#333333"></path>
        </g>
        <g id="icons-/-Error_Mark" transform="translate(0.000000, 12.000000)" opacity="0">
            <circle id="Oval" fill="#FFFFFF" fill-rule="nonzero" cx="4" cy="4" r="4"></circle>
            <path d="M4.00666043,0.66666822 C4.60923891,0.667230482 5.16978374,0.820408594 5.68831169,1.12620713 C6.1900347,1.42368891 6.5896311,1.82328531 6.88711289,2.32500833 C7.19347473,2.84449144 7.34665335,3.4050364 7.34665335,4.00666001 C7.34665335,4.60828362 7.19347473,5.16882857 6.88711289,5.68831169 C6.5896311,6.1900347 6.1900347,6.5896311 5.68831169,6.88711289 C5.16882857,7.19347473 4.60828362,7.34665335 4.00666001,7.34665335 C3.4050364,7.34665335 2.84449144,7.19347473 2.32500833,6.88711289 C1.82328531,6.5896311 1.42368891,6.1900347 1.12620713,5.68831169 C0.819845288,5.16882857 0.666666667,4.60828362 0.666666667,4.00666001 C0.666666667,3.4050364 0.819845288,2.84449144 1.12620713,2.32500833 C1.42368891,1.82328531 1.82328531,1.42368891 2.32500833,1.12620713 C2.84353627,0.820408594 3.4040811,0.667230482 4.00665958,0.66666822 L4.00666043,0.66666822 Z M4.00666043,0.66666822 C4.00555043,0.666667185 4.00444029,0.666666667 4.00333,0.666666667 L4.00999001,0.666666667 C4.00887973,0.666666667 4.00776958,0.666667185 4.00665958,0.66666822 L4.00666043,0.66666822 Z M4.34299034,5.67499167 L4.34299034,5.00899101 L3.67032967,5.00899101 L3.67032967,5.67499167 L4.34299034,5.67499167 Z M4.34299034,4.34299034 L4.34299034,2.33832834 L3.67032967,2.33832834 L3.67032967,4.34299034 L4.34299034,4.34299034 Z" id="" fill="#F83200"></path>
        </g>
    </g>
</svg>