<?xml version="1.0" encoding="UTF-8"?>
<svg width="20px" height="20px" viewBox="0 0 20 20" version="1.1" xmlns="http://www.w3.org/2000/svg" xmlns:xlink="http://www.w3.org/1999/xlink">
    <!-- Generator: Sketch 51.3 (57544) - http://www.bohemiancoding.com/sketch -->
    <title>icons / classes/ BMC_MFVirtualSystem_32_Error</title>
    <desc>Created with Sketch.</desc>
    <defs></defs>
    <g id="icons-/-classes/-BMC_MFVirtualSystem_32" stroke="none" stroke-width="1" fill="none" fill-rule="evenodd">
        <g transform="translate(-1.000000, -1.000000)">
            <g id="icons-/-20x20-icon-field" transform="translate(1.000000, 1.000000)" fill="#F5A623" fill-rule="nonzero" opacity="0">
                <rect x="0" y="0" width="20" height="20"></rect>
            </g>
            <path d="M20.8801199,1.87612388 C20.9200801,1.95604436 20.9500499,2.03596364 20.97003,2.11588412 C20.9900101,2.1958046 21,2.2957037 21,2.41558442 L21,11.9260739 C20.7602386,11.4598711 20.4472214,11.0203151 20.0609391,10.6073926 C19.6746567,10.1944701 19.2484206,9.84149331 18.7822178,9.54845155 L18.7822178,3.21478521 L3.21778222,3.21478521 L3.21778222,13.2247752 L8.79220779,13.2247752 C8.68564715,13.5444571 8.60905784,13.8608043 8.56243756,14.1738262 C8.51581728,14.4868481 8.49250749,14.8165151 8.49250749,15.1628372 L8.49250749,15.4225774 L2.43856144,15.4225774 C2.34532088,15.4225774 2.2321019,15.4159175 2.0989011,15.4025974 C2.0323007,15.4025974 1.94572148,15.3826176 1.83916084,15.3426573 C1.75924036,15.3026971 1.68598102,15.2560775 1.61938062,15.2027972 C1.55278022,15.1495169 1.49284076,15.0762575 1.43956044,14.983017 L1.25974026,14.7432567 C1.21978002,14.6766563 1.16983047,14.603397 1.10989011,14.5234765 C1.04994975,14.443556 1.01332008,14.3669667 1,14.2937063 C0.98667992,14.2204459 0.98001998,14.1238767 0.98001998,14.003996 L0.98001998,2.41558442 C0.98001998,2.2957037 0.99333986,2.1958046 1.01998002,2.11588412 L1.0999001,1.83616384 C1.13986034,1.76956344 1.18647992,1.69963407 1.23976024,1.62637363 C1.29304056,1.55311319 1.35963996,1.48984376 1.43956044,1.43656344 C1.47952068,1.3966032 1.53946014,1.34998362 1.61938062,1.2967033 L1.8991009,1.11688312 C1.9657013,1.0636028 2.04895055,1.02697313 2.14885115,1.00699301 C2.24875175,0.987012887 2.34532088,0.977022977 2.43856144,0.977022977 L19.5614386,0.977022977 C19.641359,0.977022977 19.7479181,0.983682917 19.8811189,0.997002997 C19.9477193,1.01032308 20.0342985,1.03696284 20.1408591,1.07692308 C20.2207796,1.10356324 20.2973689,1.14352288 20.3706294,1.1968032 C20.4438898,1.25008352 20.5071592,1.3300028 20.5604396,1.43656344 L20.8801199,1.87612388 Z M8.63236763,9.86813187 C8.64568771,9.85481179 8.65234765,9.83483197 8.65234765,9.80819181 L8.65234765,9.76823177 L8.67232767,9.66833167 L8.63236763,9.62837163 L8.41258741,9.10889111 L8.41258741,9.06893107 C8.41258741,9.05561099 8.40925744,9.04562108 8.4025974,9.03896104 L8.37262737,9.00899101 L8.29270729,8.96903097 L8.27272727,8.94905095 L8.17282717,8.92907093 L7.55344655,8.92907093 C7.54012647,8.92907093 7.52680659,8.92241099 7.51348651,8.90909091 L7.49350649,8.88911089 L7.43356643,8.88911089 L7.43356643,8.84915085 L7.41358641,8.82917083 L7.39360639,8.76923077 L7.37362637,8.72927073 L7.37362637,7.91008991 L7.41358641,7.83016983 L7.49350649,7.75024975 C7.49350649,7.73692967 7.50016643,7.72693976 7.51348651,7.72027972 C7.52680659,7.71361968 7.54012647,7.71028971 7.55344655,7.71028971 L8.27272727,7.71028971 L8.31268731,7.69030969 C8.32600739,7.69030969 8.33266733,7.68364975 8.33266733,7.67032967 L8.33266733,7.65034965 L8.37262737,7.63036963 C8.38594745,7.63036963 8.39593736,7.62370969 8.4025974,7.61038961 C8.40925744,7.59706953 8.41258741,7.58374965 8.41258741,7.57042957 L8.41258741,7.53046953 L8.63236763,7.07092907 L8.63236763,7.03096903 L8.67232767,6.97102897 L8.65234765,6.85114885 C8.65234765,6.83782877 8.64568771,6.82450889 8.63236763,6.81118881 L8.59240759,6.73126873 L8.17282717,6.33166833 L8.15284715,6.29170829 L8.13286713,6.23176823 L8.13286713,6.13186813 L8.17282717,6.05194805 L8.79220779,5.43256743 C8.79220779,5.41924735 8.79886773,5.41258741 8.81218781,5.41258741 L8.95204795,5.41258741 L9.47152847,5.89210789 C9.47152847,5.90542797 9.47485844,5.91541788 9.48151848,5.92207792 C9.48817852,5.92873796 9.50482837,5.93206793 9.53146853,5.93206793 L9.57142857,5.97202797 L9.75124875,5.97202797 L9.79120879,5.93206793 L10.2707293,5.77222777 L10.3106893,5.73226773 L10.3506494,5.71228771 L10.4705295,5.57242757 L10.4905095,5.49250749 L10.4905095,4.85314685 L10.5104895,4.77322677 L10.5504496,4.75324675 C10.5504496,4.73992667 10.5537795,4.72993676 10.5604396,4.72327672 C10.5670996,4.71661668 10.5837495,4.71328671 10.6103896,4.71328671 L11.6093906,4.71328671 L11.6493506,4.75324675 C11.6626707,4.75324675 11.6693307,4.76656663 11.6693307,4.79320679 L11.6693307,4.83316683 C11.6826507,4.83316683 11.6893107,4.83982677 11.6893107,4.85314685 L11.6893107,5.49250749 C11.6893107,5.50582757 11.6959706,5.52580739 11.7092907,5.55244755 L11.7292707,5.63236763 L11.7892108,5.71228771 L11.8491508,5.71228771 L12.3686314,5.91208791 L12.4285714,5.97202797 L12.5684316,5.95204795 L12.6483516,5.91208791 L13.1278721,5.43256743 C13.1411922,5.41924735 13.1545121,5.41258741 13.1678322,5.41258741 L13.3276723,5.41258741 C13.3276723,5.42590749 13.3343323,5.4358974 13.3476523,5.44255744 C13.3609724,5.44921748 13.3676324,5.45920739 13.3676324,5.47252747 L13.987013,6.05194805 L13.987013,6.13186813 C14.0003331,6.14518821 14.006993,6.16516803 14.006993,6.19180819 L14.006993,6.23176823 L13.987013,6.35164835 L13.5474525,6.75124875 C13.5474525,6.76456883 13.5341327,6.79120859 13.5074925,6.83116883 C13.4408921,6.83116883 13.4075924,6.83782877 13.4075924,6.85114885 L13.4075924,6.89110889 C13.3942723,6.90442897 13.3876124,6.91774885 13.3876124,6.93106893 L13.3876124,7.03096903 L13.4275724,7.05094905 L13.6273726,7.57042957 L13.6273726,7.61038961 L13.6673327,7.65034965 C13.6939728,7.67698981 13.7139526,7.69030969 13.7272727,7.69030969 L13.7672328,7.73026973 L14.5064935,7.73026973 C14.5198136,7.74358981 14.5264735,7.75690969 14.5264735,7.77022977 L14.5664336,7.79020979 C14.5797536,7.79020979 14.5864136,7.79686973 14.5864136,7.81018981 L14.6263736,7.83016983 C14.6396937,7.83016983 14.6463536,7.84348971 14.6463536,7.87012987 L14.6463536,8.54945055 C14.2867115,8.56277063 13.900435,8.62271009 13.4875125,8.72927073 C13.1411904,8.80919121 12.7882136,8.93573007 12.4285714,9.10889111 C12.4285714,9.09557103 12.4352314,9.07226124 12.4485514,9.03896104 C12.4618715,9.00566084 12.4751914,8.96237123 12.4885115,8.90909091 L12.5284715,8.78921079 C12.5417916,8.74925055 12.5484515,8.69597103 12.5484515,8.62937063 L12.5484515,8.16983017 L12.4885115,7.99000999 C12.4751914,7.93672967 12.4552116,7.89677003 12.4285714,7.87012987 L12.3686314,7.73026973 C12.3553113,7.69030949 12.3353315,7.65034985 12.3086913,7.61038961 L12.1288711,7.37062937 L12.008991,7.27072927 L11.8091908,7.13086913 L11.4895105,6.99100899 L11.3496503,6.95104895 L11.1898102,6.93106893 L11.00999,6.91108891 L10.6903097,6.93106893 L10.5704296,6.97102897 C10.5038292,6.98434905 10.4572096,7.00432887 10.4305694,7.03096903 C10.363969,7.04428911 10.3173495,7.05760899 10.2907093,7.07092907 L10.0509491,7.25074925 C9.99766873,7.29070949 9.96436903,7.32400919 9.95104895,7.35064935 L9.83116883,7.47052947 L9.77122877,7.55044955 L9.69130869,7.69030969 C9.66466853,7.73026993 9.64468871,7.78354945 9.63136863,7.85014985 L9.57142857,7.97002997 L9.49150849,8.28971029 L9.51148851,8.58941059 L9.53146853,8.74925075 L9.59140859,8.88911089 C9.60472867,8.95571129 9.61804855,8.99567093 9.63136863,9.00899101 L9.75124875,9.28871129 L9.95104895,9.52847153 L10.1908092,9.70829171 C10.2174494,9.73493187 10.257409,9.75491169 10.3106893,9.76823177 L10.5704296,9.88811189 C10.63703,9.91475205 10.6836496,9.92807193 10.7102897,9.92807193 L10.8501499,9.96803197 L11.00999,9.96803197 C10.8101888,10.1145528 10.6436903,10.2544116 10.5104895,10.3876124 C10.3373285,10.5474533 10.1908098,10.7072919 10.0709291,10.8671329 L9.69130869,10.7072927 L9.49150849,10.7272727 L9.45154845,10.7472527 L9.01198801,11.2067932 L8.97202797,11.2067932 L8.93206793,11.2467532 C8.93206793,11.2600733 8.92540799,11.2667333 8.91208791,11.2667333 L8.83216783,11.2667333 L8.71228771,11.2067932 L8.13286713,10.6073926 L8.11288711,10.5474525 C8.09956703,10.5341325 8.09290709,10.5208126 8.09290709,10.5074925 L8.09290709,10.4275724 L8.11288711,10.3476523 L8.15284715,10.3276723 L8.17282717,10.3076923 L8.63236763,9.88811189 L8.63236763,9.86813187 Z M7.99300699,18.4395604 L8.69230769,16.7612388 C8.78554825,17.134201 8.9020972,17.4838479 9.04195804,17.8101898 C9.18181888,18.1365318 9.35830729,18.4661988 9.57142857,18.7992008 L8.31268731,18.7992008 L8.17282717,18.7792208 L8.11288711,18.7192807 L8.11288711,18.6693307 C8.11288711,18.6360305 8.10955714,18.6127207 8.1028971,18.5994006 C8.09623706,18.5860805 8.07958721,18.5727606 8.05294705,18.5594406 L7.99300699,18.5194805 L7.99300699,18.4395604 Z M9.33166833,15.3626374 C9.49150929,15.5357984 9.65467782,15.7022969 9.82117882,15.8621379 C9.98767982,16.0219788 10.1708282,16.1818174 10.3706294,16.3416583 L10.3506494,16.4615385 C10.2574088,16.7679003 10.1974693,16.9943383 10.1708292,17.1408591 C10.1042288,17.4072607 10.0576092,17.6736583 10.030969,17.9400599 C9.81784775,17.5537776 9.65134925,17.1375314 9.53146853,16.6913087 C9.41158781,16.245086 9.34498841,15.8022 9.33166833,15.3626374 Z M9.39160839,14.3436563 C9.41824855,14.1438551 9.45820819,13.934067 9.51148851,13.7142857 C9.56476883,13.4945044 9.62470829,13.2913762 9.69130869,13.1048951 C9.71794885,13.3979369 9.75790849,13.7309339 9.81118881,14.1038961 C9.85114905,14.4102579 9.92440839,14.736595 10.030969,15.0829171 L9.71128871,14.7232767 C9.65800839,14.6833165 9.59140899,14.6033972 9.51148851,14.4835165 L9.39160839,14.3436563 Z M10.4305694,11.7262737 L10.4305694,11.8461538 L10.2907093,11.9260739 L10.4305694,11.7262737 Z M10.8301698,15.2627373 C10.696969,14.8631349 10.58375,14.4302388 10.4905095,13.964036 C10.410589,13.5644336 10.3706294,13.1248775 10.3706294,12.6453546 L10.4105894,11.8461538 C10.9966729,11.539792 11.6160474,11.3100241 12.2687313,11.1568432 C12.9214152,11.0036622 13.5874092,10.9270729 14.2667333,10.9270729 L14.6063936,10.9270729 C14.6863141,10.9270729 14.7995331,10.9337329 14.9460539,10.9470529 C14.0136484,11.4398959 13.1978057,12.0459504 12.4985015,12.7652348 C11.7991973,13.4845191 11.2430923,14.3170116 10.8301698,15.2627373 Z M10.4105894,16.2817183 L10.4105894,16.2417582 C10.4105894,16.2284382 10.4172494,16.2217782 10.4305694,16.2217782 L10.5504496,16.4815185 L10.4705295,16.4415584 L10.3706294,16.3616384 C10.3839495,16.3483183 10.3906094,16.3349984 10.3906094,16.3216783 L10.4105894,16.2817183 Z M10.8901099,17.1808192 C11.3962729,18.0466244 12.0023275,18.7958676 12.7082917,19.4285714 C13.4142559,20.0612752 14.2334286,20.5907405 15.1658342,21.016983 C14.7262715,21.016983 14.2933754,20.9670335 13.8671329,20.8671329 C13.4408903,20.7672323 13.031304,20.6240436 12.6383616,20.4375624 C12.2454193,20.2510813 11.8891125,20.0313033 11.5694306,19.7782218 C11.2231085,19.4985001 10.9234112,19.2054627 10.6703297,18.8991009 C10.6836498,18.4994985 10.7036296,18.1998012 10.7302697,18 C10.77023,17.7069582 10.8235095,17.4339007 10.8901099,17.1808192 Z M11.1098901,16.041958 L11.2097902,16.1218781 L11.1698302,16.1818182 L11.1098901,16.041958 Z M16.2447552,11.1468531 C16.2580753,11.1601732 16.2780551,11.1734931 16.3046953,11.1868132 L16.3446553,11.1868132 C16.7575778,11.5864156 17.1371944,12.0259716 17.4835165,12.5054945 C17.7898783,12.9317371 18.052946,13.4012628 18.2727273,13.9140859 C18.4925086,14.426909 18.6556771,14.9630342 18.7622378,15.5224775 C18.8687984,16.095241 18.9220779,16.6613359 18.9220779,17.2207792 C18.4958354,17.3673001 18.0429594,17.4838491 17.5634366,17.5704296 C17.0839137,17.6570101 16.604398,17.7002997 16.1248751,17.7002997 C15.2057896,17.7002997 14.3399974,17.5671009 13.5274725,17.3006993 C12.7149477,17.0342977 11.9423946,16.6413612 11.2097902,16.1218781 C11.4229115,15.5357946 11.6926391,14.9930095 12.018981,14.4935065 C12.345323,13.9940035 12.7249396,13.5278077 13.1578422,13.0949051 C13.5907448,12.6620025 14.0669305,12.2790559 14.5864136,11.9460539 C15.0659365,11.6396921 15.6187115,11.3732945 16.2447552,11.1468531 Z M12.5484515,9.92807193 C12.961374,9.71495065 13.3809502,9.56843197 13.8071928,9.48851149 C14.0336342,9.56843197 14.2867119,9.68831089 14.5664336,9.84815185 C14.806195,9.98135265 15.032633,10.1212114 15.2457542,10.2677323 L14.7462537,10.2077922 L14.2867133,10.2077922 C13.8071904,10.2077922 13.3210148,10.2444219 12.8281718,10.3176823 C12.3353289,10.3909428 11.8624731,10.5074917 11.4095904,10.6673327 C11.7958727,10.3609708 12.1754893,10.114553 12.5484515,9.92807193 Z M11.8091908,17.3206793 C12.4885149,17.6803215 13.1878086,17.9467191 13.9070929,18.1198801 C14.6263772,18.2930412 15.3656306,18.3796204 16.1248751,18.3796204 C16.5910779,18.3796204 17.0639337,18.3463207 17.5434565,18.2797203 C18.0229794,18.2131199 18.4691954,18.1065608 18.8821179,17.96004 C18.8554777,18.293042 18.8055282,18.6326989 18.7322677,18.979021 C18.6590073,19.3253431 18.5624382,19.6583401 18.4425574,19.978022 C18.1628358,20.1778232 17.8764583,20.3443217 17.5834166,20.4775225 C17.2903748,20.6107233 16.9973375,20.7106224 16.7042957,20.7772228 C15.6919696,20.5241413 14.766238,20.104565 13.9270729,19.5184815 C13.1145481,18.9590382 12.4085944,18.2264448 11.8091908,17.3206793 Z M15.045954,9.30869131 L15.1658342,9.30869131 C15.6586771,9.30869131 16.1415228,9.36863077 16.6143856,9.48851149 C17.0872485,9.60839221 17.5434543,9.78821059 17.983017,10.027972 C17.7299355,10.0546122 17.4768577,10.0945718 17.2237762,10.1478521 C16.9973349,10.1878124 16.7442571,10.2544118 16.4645355,10.3476523 C16.1714937,10.0945708 15.9417258,9.90476254 15.7752248,9.77822178 C15.6087238,9.65168102 15.365636,9.49517243 15.045954,9.30869131 Z M18.9020979,10.6673327 C19.2350999,10.9470543 19.5248073,11.2500816 19.7712288,11.5764236 C20.0176502,11.9027655 20.2407582,12.2524124 20.4405594,12.6253746 C19.9876767,12.2257722 19.5214809,11.8794553 19.041958,11.5864136 C18.5224749,11.2667317 18.0029996,11.0136539 17.4835165,10.8271728 C17.7499181,10.7738925 17.983016,10.7339329 18.1828172,10.7072927 C18.5024991,10.6806525 18.7422569,10.6673327 18.9020979,10.6673327 Z M17.7232767,11.6863137 C18.3493205,11.9527153 18.9287353,12.2923722 19.4615385,12.7052947 C19.9943417,13.1182172 20.4805173,13.6177127 20.9200799,14.2037962 C20.9467201,14.3103568 20.9666999,14.4635355 20.98002,14.6633367 C20.9933401,14.8364977 21,14.9963363 21,15.1428571 L21,15.6823177 C20.9866799,15.8021984 20.9600402,15.9686969 20.9200799,16.1818182 C20.7335988,16.315019 20.5238107,16.4482178 20.2907093,16.5814186 C20.0576079,16.7146194 19.82784,16.8344983 19.6013986,16.9410589 C19.5747584,15.9420529 19.40493,15.0063314 19.0919081,14.1338661 C18.7788862,13.2614009 18.3226803,12.4455582 17.7232767,11.6863137 Z M19.5214785,18.4595405 C19.5614388,18.2064589 19.5880785,17.9533812 19.6013986,17.7002997 C19.7878797,17.6336993 19.9676981,17.55378 20.1408591,17.4605395 L20.6603397,17.1808192 C20.5138188,17.5671015 20.3373304,17.9234083 20.1308691,18.2497502 C19.9244079,18.5760922 19.6746601,18.8857794 19.3816184,19.1788212 C19.4215786,19.0189802 19.4681982,18.7792224 19.5214785,18.4595405 Z" id="" fill="#2B2826"></path>
            <g id="icons-/-Error_Mark" transform="translate(1.000000, 13.000000)">
                <circle id="Oval" fill="#FFFFFF" fill-rule="nonzero" cx="4" cy="4" r="4"></circle>
                <path d="M4.00666043,0.66666822 C4.60923891,0.667230482 5.16978374,0.820408594 5.68831169,1.12620713 C6.1900347,1.42368891 6.5896311,1.82328531 6.88711289,2.32500833 C7.19347473,2.84449144 7.34665335,3.4050364 7.34665335,4.00666001 C7.34665335,4.60828362 7.19347473,5.16882857 6.88711289,5.68831169 C6.5896311,6.1900347 6.1900347,6.5896311 5.68831169,6.88711289 C5.16882857,7.19347473 4.60828362,7.34665335 4.00666001,7.34665335 C3.4050364,7.34665335 2.84449144,7.19347473 2.32500833,6.88711289 C1.82328531,6.5896311 1.42368891,6.1900347 1.12620713,5.68831169 C0.819845288,5.16882857 0.666666667,4.60828362 0.666666667,4.00666001 C0.666666667,3.4050364 0.819845288,2.84449144 1.12620713,2.32500833 C1.42368891,1.82328531 1.82328531,1.42368891 2.32500833,1.12620713 C2.84353627,0.820408594 3.4040811,0.667230482 4.00665958,0.66666822 L4.00666043,0.66666822 Z M4.00666043,0.66666822 C4.00555043,0.666667185 4.00444029,0.666666667 4.00333,0.666666667 L4.00999001,0.666666667 C4.00887973,0.666666667 4.00776958,0.666667185 4.00665958,0.66666822 L4.00666043,0.66666822 Z M4.34299034,5.67499167 L4.34299034,5.00899101 L3.67032967,5.00899101 L3.67032967,5.67499167 L4.34299034,5.67499167 Z M4.34299034,4.34299034 L4.34299034,2.33832834 L3.67032967,2.33832834 L3.67032967,4.34299034 L4.34299034,4.34299034 Z" id="" fill="#F83200"></path>
            </g>
        </g>
    </g>
</svg>