<?xml version="1.0" encoding="UTF-8"?>
<svg width="20px" height="20px" viewBox="0 0 20 20" version="1.1" xmlns="http://www.w3.org/2000/svg" xmlns:xlink="http://www.w3.org/1999/xlink">
    <!-- Generator: Sketch 51.3 (57544) - http://www.bohemiancoding.com/sketch -->
    <title>icons / classes/ BMC_StorageVolume_32_Error</title>
    <desc>Created with Sketch.</desc>
    <defs>
        <polygon id="path-1" points="0 0 19.99975 0 19.99975 19.99975 0 19.99975"></polygon>
    </defs>
    <g id="icons-/-classes/-BMC_StorageVolume_32" stroke="none" stroke-width="1" fill="none" fill-rule="evenodd">
        <g id="icons-/-classes/-Storage-Value">
            <g id="icons-/-20x20-icon-field" fill="#F5A623" fill-rule="nonzero" opacity="0">
                <rect x="0" y="0" width="20" height="20"></rect>
            </g>
            <g id="Group-3">
                <mask id="mask-2" fill="white">
                    <use xlink:href="#path-1"></use>
                </mask>
                <g id="Clip-2"></g>
                <path d="M17.47475,14.7664167 C17.39975,15.22475 17.2164167,15.6580833 16.9664167,16.02475 L17.5330833,16.5914167 L18.72475,17.7914167 L18.74225,17.8080833 C18.7830833,17.7580833 18.82475,17.7080833 18.8580833,17.64975 C18.9414167,17.5580833 19.0080833,17.44975 19.0664167,17.34975 C19.14975,17.22475 19.22475,17.0914167 19.29975,16.9664167 C19.34975,16.87475 19.4005833,16.7914167 19.4414167,16.69975 C19.4830833,16.6164167 19.52475,16.52475 19.5580833,16.4330833 C19.6330833,16.2580833 19.69975,16.07475 19.7580833,15.8914167 C19.8080833,15.7080833 19.8580833,15.52475 19.89975,15.3330833 C19.9164167,15.2414167 19.9330833,15.14975 19.94975,15.04975 C19.9664167,14.9580833 19.9830833,14.8580833 19.99225,14.7664167 L19.9664167,14.7664167 L17.47475,14.7664167 Z M17.4664167,13.5164167 L19.9580833,13.5164167 L19.99975,13.5164167 C19.9580833,13.1080833 19.8664167,12.7164167 19.7414167,12.3414167 C19.7414167,12.3330833 19.7414167,12.3330833 19.7330833,12.32475 C19.4580833,11.4580833 18.97475,10.6664167 18.34975,10.0330833 C17.4330833,9.09975 16.1914167,8.48308333 14.81725,8.33308333 L14.81725,8.37475 L14.81725,10.8914167 C16.14975,11.14975 17.19975,12.1914167 17.4664167,13.5164167 Z M16.6414167,17.4830833 L16.0830833,16.9164167 C15.5414167,17.29975 14.8914167,17.5164167 14.19225,17.5164167 C14.0164167,17.5164167 13.84975,17.49975 13.6830833,17.47475 C13.5164167,17.44975 13.34975,17.4080833 13.1914167,17.3580833 C12.14975,17.0330833 11.3164167,16.19975 10.99975,15.14975 C10.89975,14.8414167 10.84975,14.5164167 10.84975,14.17475 C10.84975,14.1414167 10.84975,14.1080833 10.8589167,14.07475 C10.8589167,13.8330833 10.8914167,13.6080833 10.9414167,13.3830833 C11.0080833,13.11725 11.09975,12.8664167 11.22475,12.6330833 L11.2330833,12.6330833 C11.54975,12.0330833 12.04975,11.5330833 12.64975,11.2080833 C12.8664167,11.09975 13.0914167,11.0080833 13.3255833,10.9414167 C13.4080833,10.92475 13.4830833,10.9080833 13.56725,10.8914167 L13.56725,8.36641667 L13.56725,8.33308333 C13.42475,8.34975 13.2830833,8.36641667 13.1414167,8.39141667 C13.0080833,8.41641667 12.87475,8.44141667 12.74975,8.48308333 C12.67475,8.49141667 12.6080833,8.51641667 12.5330833,8.53391667 C12.42475,8.56641667 12.31725,8.60808333 12.2164167,8.64975 C12.1580833,8.65808333 12.1089167,8.68308333 12.0580833,8.70808333 C12.0080833,8.73308333 11.9580833,8.74975 11.9005833,8.77475 C11.72475,8.84975 11.5580833,8.93308333 11.3914167,9.01641667 C11.3830833,9.01641667 11.37475,9.01641667 11.37475,9.02475 C11.17475,9.13308333 10.9830833,9.24975 10.79975,9.38308333 C10.61725,9.50808333 10.44975,9.64975 10.2830833,9.79975 C10.2580833,9.81641667 10.2414167,9.84141667 10.2164167,9.86641667 C10.1914167,9.88308333 10.1580833,9.90808333 10.1330833,9.93308333 C9.96641667,10.09975 9.80808333,10.2664167 9.66641667,10.44975 L9.66641667,10.4580833 C9.59141667,10.5330833 9.54141667,10.59975 9.49141667,10.67475 C9.47475,10.6830833 9.46641667,10.69975 9.45808333,10.7080833 C9.44975,10.72475 9.43308333,10.7414167 9.42475,10.7580833 C9.40808333,10.7830833 9.39141667,10.8080833 9.37475,10.8330833 C9.34975,10.8580833 9.33308333,10.8830833 9.32475,10.9080833 C9.30808333,10.92475 9.29141667,10.94975 9.28308333,10.9664167 C9.24975,11.0164167 9.21641667,11.0664167 9.19225,11.1080833 C9.14141667,11.1914167 9.09141667,11.27475 9.04141667,11.3580833 C9.04141667,11.3664167 9.03308333,11.37475 9.03308333,11.3830833 C9.00808333,11.42475 8.99141667,11.47475 8.96641667,11.5164167 C8.95058333,11.54975 8.94141667,11.57475 8.92475,11.6080833 C8.86641667,11.7330833 8.80808333,11.87475 8.74975,12.0080833 C8.71641667,12.0830833 8.68308333,12.1664167 8.65808333,12.2580833 C8.62475,12.3414167 8.59975,12.42475 8.57475,12.5080833 C8.57475,12.5164167 8.56725,12.52475 8.56725,12.52475 L8.56725,12.5330833 C8.51641667,12.7005833 8.47475,12.8664167 8.44141667,13.0414167 C8.40808333,13.1914167 8.39141667,13.3414167 8.37475,13.4914167 C8.35891667,13.59975 8.34975,13.7164167 8.34975,13.82475 C8.34141667,13.89975 8.33308333,13.9830833 8.34141667,14.0580833 C8.33308333,14.0914167 8.33308333,14.12475 8.33308333,14.1589167 C8.33308333,14.36725 8.34141667,14.5664167 8.36641667,14.7664167 C8.38308333,14.9330833 8.40808333,15.0914167 8.43308333,15.24975 C8.45808333,15.3580833 8.47475,15.4580833 8.50808333,15.5580833 C8.51641667,15.61725 8.52475,15.6664167 8.54141667,15.7164167 L8.54975,15.7164167 C8.81641667,16.72475 9.35808333,17.62475 10.0830833,18.3330833 C10.2005833,18.44975 10.32475,18.5580833 10.4580833,18.6664167 C10.5830833,18.77475 10.7164167,18.87475 10.8589167,18.97475 C10.9414167,19.0330833 11.0339167,19.0914167 11.12475,19.1414167 C11.12475,19.14975 11.1330833,19.14975 11.1414167,19.14975 C11.32475,19.2664167 11.52475,19.37475 11.72475,19.4580833 C11.7330833,19.4664167 11.7414167,19.4664167 11.7414167,19.4664167 C11.8414167,19.5164167 11.94975,19.5580833 12.04975,19.59975 C12.1580833,19.6414167 12.2664167,19.6830833 12.37475,19.7164167 C12.4664167,19.74975 12.5664167,19.77475 12.6664167,19.79975 C12.7339167,19.82475 12.8080833,19.8414167 12.8830833,19.8580833 C12.9664167,19.87475 13.0580833,19.8914167 13.1505833,19.9080833 C13.2914167,19.9330833 13.4330833,19.9580833 13.5830833,19.9664167 C13.7664167,19.99225 13.9580833,19.99975 14.14975,19.99975 L14.17475,19.99975 C14.36725,19.99975 14.5580833,19.99225 14.7414167,19.9664167 C14.7580833,19.97475 14.77475,19.9664167 14.7839167,19.9664167 C14.9580833,19.94975 15.12475,19.92475 15.2914167,19.8914167 C15.4330833,19.8664167 15.5664167,19.8330833 15.69975,19.7914167 C15.8589167,19.7414167 16.0164167,19.69975 16.1664167,19.6414167 C16.32475,19.5830833 16.47475,19.52475 16.6164167,19.4580833 C16.7664167,19.3914167 16.9080833,19.3164167 17.04975,19.2330833 C17.19975,19.14975 17.3330833,19.0664167 17.4664167,18.97475 C17.4830833,18.9664167 17.49975,18.9580833 17.5164167,18.9414167 C17.57475,18.9080833 17.6330833,18.8664167 17.6830833,18.8164167 C17.7414167,18.7830833 17.79975,18.74225 17.8580833,18.6914167 L17.84975,18.6830833 L16.6414167,17.4830833 Z M1.28308333,12.7914167 C1.34141667,12.8414167 1.40808333,12.8830833 1.47475,12.9164167 C1.68308333,13.0580833 1.91641667,13.1830833 2.16641667,13.2914167 C2.54975,13.4664167 2.97475,13.62475 3.43308333,13.74975 C4.39141667,14.0164167 5.49141667,14.1664167 6.66641667,14.1664167 C6.66641667,12.59975 7.14975,11.14975 7.97475,9.94141667 C7.54975,9.98308333 7.11641667,9.99975 6.66641667,9.99975 C4.88308333,9.99975 3.26641667,9.69975 1.94141667,9.16641667 C1.71641667,9.08308333 1.49141667,8.98308333 1.28308333,8.87475 C0.99975,8.74225 0.733083333,8.58308333 0.483083333,8.41641667 C0.39975,8.36641667 0.32475,8.31641667 0.24975,8.25808333 C0.14975,8.44975 0.07475,8.64141667 0.0330833333,8.83308333 C0.00808333333,8.94141667 -0.00025,9.05808333 -0.00025,9.16641667 L-0.00025,10.8330833 C-0.00025,11.5664167 0.47475,12.2414167 1.28308333,12.7914167 Z M1.28308333,6.95808333 C1.34141667,7.00808333 1.40808333,7.04975 1.47475,7.08308333 C1.68308333,7.22475 1.91641667,7.34975 2.16641667,7.45808333 C2.54975,7.63308333 2.97475,7.79141667 3.43308333,7.91641667 C4.39141667,8.18308333 5.49141667,8.33308333 6.66641667,8.33308333 C7.84141667,8.33308333 8.94141667,8.18308333 9.89975,7.91641667 C9.98308333,7.89141667 10.07475,7.86641667 10.1580833,7.83308333 C10.5164167,7.73308333 10.8589167,7.59975 11.1664167,7.45808333 C11.4164167,7.34975 11.64975,7.22475 11.8580833,7.08308333 C11.9080833,7.05808333 11.9580833,7.03308333 11.99975,6.99141667 C12.0164167,6.98308333 12.0330833,6.97475 12.04975,6.95808333 C12.8580833,6.40808333 13.3330833,5.73308333 13.3330833,4.99975 L13.3330833,3.33308333 C13.3330833,3.22475 13.3255833,3.10808333 13.29975,2.99975 C13.0080833,1.54141667 10.8414167,0.358083333 8.00808333,0.0664166667 C7.81641667,0.04975 7.60808333,0.0330833333 7.40808333,0.02475 C7.16641667,0.00808333333 6.91641667,-0.00025 6.66641667,-0.00025 C6.41641667,-0.00025 6.16641667,0.00808333333 5.92475,0.02475 C5.72475,0.0330833333 5.51641667,0.04975 5.32475,0.0664166667 C2.49225,0.358083333 0.32475,1.54141667 0.0330833333,2.99975 C0.00808333333,3.10808333 -0.00025,3.22475 -0.00025,3.33308333 L-0.00025,4.99975 C-0.00025,5.73308333 0.47475,6.40808333 1.28308333,6.95808333 Z M6.84975,15.8255833 C7.19975,17.3664167 8.02475,18.7330833 9.16641667,19.74975 C8.39141667,19.9164167 7.54975,19.99975 6.66641667,19.99975 C2.98308333,19.99975 -0.00025,18.5080833 -0.00025,16.6664167 L-0.00025,14.99975 C-0.00025,14.8914167 0.00808333333,14.77475 0.0330833333,14.6664167 C0.07475,14.47475 0.14975,14.2830833 0.24975,14.0914167 C0.32475,14.14975 0.39975,14.19975 0.483083333,14.24975 C0.733083333,14.4164167 0.99975,14.5755833 1.28308333,14.7080833 C1.49141667,14.8164167 1.71641667,14.9164167 1.94141667,14.99975 C3.26641667,15.5330833 4.88308333,15.8330833 6.66641667,15.8330833 C6.72475,15.8330833 6.79141667,15.8330833 6.84975,15.8255833 Z" id="Fill-1" fill="#333333" mask="url(#mask-2)"></path>
            </g>
        </g>
        <g id="icons-/-Error_Mark" transform="translate(0.000000, 12.000000)">
            <circle id="Oval" fill="#FFFFFF" fill-rule="nonzero" cx="4" cy="4" r="4"></circle>
            <path d="M4.00666043,0.66666822 C4.60923891,0.667230482 5.16978374,0.820408594 5.68831169,1.12620713 C6.1900347,1.42368891 6.5896311,1.82328531 6.88711289,2.32500833 C7.19347473,2.84449144 7.34665335,3.4050364 7.34665335,4.00666001 C7.34665335,4.60828362 7.19347473,5.16882857 6.88711289,5.68831169 C6.5896311,6.1900347 6.1900347,6.5896311 5.68831169,6.88711289 C5.16882857,7.19347473 4.60828362,7.34665335 4.00666001,7.34665335 C3.4050364,7.34665335 2.84449144,7.19347473 2.32500833,6.88711289 C1.82328531,6.5896311 1.42368891,6.1900347 1.12620713,5.68831169 C0.819845288,5.16882857 0.666666667,4.60828362 0.666666667,4.00666001 C0.666666667,3.4050364 0.819845288,2.84449144 1.12620713,2.32500833 C1.42368891,1.82328531 1.82328531,1.42368891 2.32500833,1.12620713 C2.84353627,0.820408594 3.4040811,0.667230482 4.00665958,0.66666822 L4.00666043,0.66666822 Z M4.00666043,0.66666822 C4.00555043,0.666667185 4.00444029,0.666666667 4.00333,0.666666667 L4.00999001,0.666666667 C4.00887973,0.666666667 4.00776958,0.666667185 4.00665958,0.66666822 L4.00666043,0.66666822 Z M4.34299034,5.67499167 L4.34299034,5.00899101 L3.67032967,5.00899101 L3.67032967,5.67499167 L4.34299034,5.67499167 Z M4.34299034,4.34299034 L4.34299034,2.33832834 L3.67032967,2.33832834 L3.67032967,4.34299034 L4.34299034,4.34299034 Z" id="" fill="#F83200"></path>
        </g>
    </g>
</svg>