<?xml version="1.0" encoding="UTF-8"?>
<svg width="20px" height="20px" viewBox="0 0 20 20" version="1.1" xmlns="http://www.w3.org/2000/svg" xmlns:xlink="http://www.w3.org/1999/xlink">
    <!-- Generator: Sketch 51.3 (57544) - http://www.bohemiancoding.com/sketch -->
    <title>icons / classes/ BMC_ComputerSystem_32</title>
    <desc>Created with Sketch.</desc>
    <defs></defs>
    <g id="icons-/-classes/-BMC_ComputerSystem_32" stroke="none" stroke-width="1" fill="none" fill-rule="evenodd">
        <g id="icons-/-classes/-Computer-System">
            <g id="icons-/-20x20-icon-field" fill="#F5A623" fill-rule="nonzero" opacity="0">
                <rect x="0" y="0" width="20" height="20"></rect>
            </g>
            <path d="M1,16.989011 L18.1908092,16.989011 L18.1908092,17.8521479 C18.1908092,18.0919093 18.0529484,18.2927065 17.7772228,18.4545455 C17.5014971,18.6163844 17.1658361,18.6973027 16.7702298,18.6973027 L2.42057942,18.6973027 C2.04894919,18.6973027 1.71628518,18.6133875 1.42257742,18.4455544 C1.12886966,18.2777214 0.988011928,18.0799212 1,17.8521479 L1,16.989011 Z M4.72227772,16.4135864 C4.32667135,16.4135864 3.9880134,16.2757257 3.70629371,16 C3.42457402,15.7242743 3.28371628,15.3886134 3.28371628,14.993007 L3.28371628,8.68131868 C3.28371628,8.28571231 3.42457402,7.95005133 3.70629371,7.67432567 C3.9880134,7.39860002 4.32667135,7.26073926 4.72227772,7.26073926 L14.4505495,7.26073926 C14.8461558,7.26073926 15.1848138,7.39860002 15.4665335,7.67432567 C15.7482532,7.95005133 15.8891109,8.28571231 15.8891109,8.68131868 L15.8891109,14.993007 C15.8891109,15.3886134 15.7452562,15.7242743 15.4575425,16 C15.1698287,16.2757257 14.8341678,16.4135864 14.4505495,16.4135864 L4.72227772,16.4135864 Z M4.43456543,8.68131868 L4.43456543,14.975025 C4.43456543,15.0469534 4.46753214,15.1158838 4.53346653,15.1818182 C4.59940093,15.2477526 4.66233736,15.2807193 4.72227772,15.2807193 L14.4685315,15.2807193 C14.552448,15.2807193 14.6213784,15.2507496 14.6753247,15.1908092 C14.729271,15.1308688 14.7562438,15.0589415 14.7562438,14.975025 L14.7562438,8.68131868 C14.7562438,8.60939025 14.729271,8.54645382 14.6753247,8.49250749 C14.6213784,8.43856117 14.552448,8.40559447 14.4685315,8.39360639 L4.72227772,8.39360639 C4.65034929,8.39360639 4.58741286,8.4265731 4.53346653,8.49250749 C4.47952021,8.55844189 4.44655351,8.62137832 4.43456543,8.68131868 Z M10.3146853,17.8521479 C10.3986018,17.8521479 10.4405594,17.8041963 10.4405594,17.7082917 C10.4405594,17.6123871 10.3986018,17.5644356 10.3146853,17.5644356 L8.87612388,17.5644356 C8.7802193,17.5644356 8.73226773,17.6123871 8.73226773,17.7082917 C8.73226773,17.8041963 8.7802193,17.8521479 8.87612388,17.8521479 L10.3146853,17.8521479 Z M19.017982,0.679320679 L19.017982,12.5294705 L17.003996,12.5294705 L17.003996,7.58441558 C16.9920079,7.18880921 16.8451563,6.85015126 16.5634366,6.56843157 C16.2817169,6.28671188 15.9430589,6.14585415 15.5474525,6.14585415 L10.2787213,6.14585415 L10.2787213,0.679320679 L19.017982,0.679320679 Z M16.5184815,3.17882118 L12.7782218,3.17882118 L12.7782218,5.04895105 L16.5184815,5.04895105 L16.5184815,3.17882118 Z" id="" fill="#333333"></path>
        </g>
        <g id="icons-/-Error_Mark" transform="translate(0.000000, 12.000000)" opacity="0">
            <circle id="Oval" fill="#FFFFFF" fill-rule="nonzero" cx="4" cy="4" r="4"></circle>
            <path d="M4.00666043,0.66666822 C4.60923891,0.667230482 5.16978374,0.820408594 5.68831169,1.12620713 C6.1900347,1.42368891 6.5896311,1.82328531 6.88711289,2.32500833 C7.19347473,2.84449144 7.34665335,3.4050364 7.34665335,4.00666001 C7.34665335,4.60828362 7.19347473,5.16882857 6.88711289,5.68831169 C6.5896311,6.1900347 6.1900347,6.5896311 5.68831169,6.88711289 C5.16882857,7.19347473 4.60828362,7.34665335 4.00666001,7.34665335 C3.4050364,7.34665335 2.84449144,7.19347473 2.32500833,6.88711289 C1.82328531,6.5896311 1.42368891,6.1900347 1.12620713,5.68831169 C0.819845288,5.16882857 0.666666667,4.60828362 0.666666667,4.00666001 C0.666666667,3.4050364 0.819845288,2.84449144 1.12620713,2.32500833 C1.42368891,1.82328531 1.82328531,1.42368891 2.32500833,1.12620713 C2.84353627,0.820408594 3.4040811,0.667230482 4.00665958,0.66666822 L4.00666043,0.66666822 Z M4.00666043,0.66666822 C4.00555043,0.666667185 4.00444029,0.666666667 4.00333,0.666666667 L4.00999001,0.666666667 C4.00887973,0.666666667 4.00776958,0.666667185 4.00665958,0.66666822 L4.00666043,0.66666822 Z M4.34299034,5.67499167 L4.34299034,5.00899101 L3.67032967,5.00899101 L3.67032967,5.67499167 L4.34299034,5.67499167 Z M4.34299034,4.34299034 L4.34299034,2.33832834 L3.67032967,2.33832834 L3.67032967,4.34299034 L4.34299034,4.34299034 Z" id="" fill="#F83200"></path>
        </g>
    </g>
</svg>