<?xml version="1.0" encoding="UTF-8"?>
<svg width="20px" height="20px" viewBox="0 0 20 20" version="1.1" xmlns="http://www.w3.org/2000/svg" xmlns:xlink="http://www.w3.org/1999/xlink">
    <!-- Generator: Sketch 51.3 (57544) - http://www.bohemiancoding.com/sketch -->
    <title>icons / classes/ BMC_SystemService_32_Error</title>
    <desc>Created with Sketch.</desc>
    <defs></defs>
    <g id="icons-/-classes/-BMC_SystemService_32" stroke="none" stroke-width="1" fill="none" fill-rule="evenodd">
        <g id="icons-/-classes/-System-Service">
            <g id="icons-/-20x20-icon-field" fill="#F5A623" fill-rule="nonzero" opacity="0">
                <rect x="0" y="0" width="20" height="20"></rect>
            </g>
            <path d="M18.8921079,1.50649351 C18.9280721,1.56643387 18.9550449,1.63236727 18.973027,1.7042957 C18.9910091,1.77622414 19,1.86613333 19,1.97402597 L19,10.5334665 C18.7842147,10.113884 18.5024992,9.71828358 18.1548452,9.34665335 C17.8071911,8.97502312 17.4235785,8.65734398 17.003996,8.39360639 L17.003996,2.69330669 L2.996004,2.69330669 L2.996004,11.7022977 L8.01298701,11.7022977 C7.91708244,11.9900114 7.84815206,12.2747239 7.80619381,12.5564436 C7.76423555,12.8381632 7.74325674,13.1348636 7.74325674,13.4465534 L7.74325674,13.6803197 L2.29470529,13.6803197 C2.21078879,13.6803197 2.10889171,13.6743257 1.98901099,13.6623377 C1.92907063,13.6623377 1.85114933,13.6443558 1.75524476,13.6083916 C1.68331632,13.5724274 1.61738292,13.5304698 1.55744256,13.4825175 C1.4975022,13.4345652 1.44355668,13.3686318 1.3956044,13.2847153 L1.23376623,13.0689311 C1.19780202,13.0209788 1.15284742,12.9580423 1.0989011,12.8801199 C1.04495478,12.8021974 1.01198807,12.733267 1,12.6733267 C0.988011928,12.6133863 0.982017982,12.5234771 0.982017982,12.4035964 L0.982017982,1.97402597 C0.982017982,1.86613333 0.994005874,1.77622414 1.01798202,1.7042957 L1.08991009,1.47052947 C1.12587431,1.39860104 1.16783193,1.32967066 1.21578422,1.26373626 C1.2637365,1.19780187 1.32367596,1.14085938 1.3956044,1.09290709 C1.43156861,1.05694288 1.48551413,1.01498525 1.55744256,0.967032967 L1.80919081,0.805194805 C1.86913117,0.769230589 1.94405549,0.742257832 2.03396603,0.724275724 C2.12387657,0.706293616 2.21078879,0.697302697 2.29470529,0.697302697 L17.993007,0.697302697 C18.0529474,0.709290769 18.1308687,0.733266553 18.2267732,0.769230769 C18.2987017,0.793206913 18.367632,0.832167562 18.4335664,0.886113886 C18.4995008,0.94006021 18.5564433,1.00899059 18.6043956,1.09290709 L18.8921079,1.50649351 Z M13.2817183,6.86513487 L13.2817183,7.45854146 C12.9460523,7.4825176 12.5984034,7.54245706 12.2387612,7.63836164 C11.9150833,7.71029007 11.5914102,7.82417504 11.2677323,7.98001998 C11.2797203,7.96803191 11.2917082,7.9470531 11.3036963,7.91708292 C11.3156844,7.88711274 11.3276723,7.84815209 11.3396603,7.8001998 L11.3756244,7.69230769 C11.3876124,7.65634348 11.3936064,7.60839191 11.3936064,7.54845155 L11.3936064,7.26073926 L11.3756244,7.13486513 L11.3396603,6.97302697 L11.2857143,6.86513487 L11.2317682,6.73926074 C11.2077921,6.69130845 11.1838163,6.65534478 11.1598402,6.63136863 L10.998002,6.41558442 L10.9080919,6.32567433 L10.7282717,6.1998002 L10.4405594,6.07392607 L10.2967033,6.03796204 L10.008991,6.01998002 L9.72127872,6.03796204 L9.61338661,6.07392607 C9.55344625,6.08591415 9.51148863,6.10389598 9.48751249,6.12787213 C9.42757213,6.1398602 9.38561451,6.15784204 9.36163836,6.18181818 L9.14585415,6.32567433 C9.09790186,6.36163854 9.06793213,6.39160827 9.05594406,6.41558442 L8.94805195,6.52347652 L8.89410589,6.61338661 L8.82217782,6.73926074 C8.79820168,6.76323688 8.78021984,6.80519451 8.76823177,6.86513487 L8.71428571,6.97302697 L8.64235764,7.26073926 L8.66033966,7.54845155 L8.67832168,7.67432567 L8.71428571,7.8001998 C8.73826186,7.86014016 8.7562437,7.90209778 8.76823177,7.92607393 L8.87612388,8.15984016 L9.05594406,8.37562438 L9.27172827,8.53746254 C9.29570442,8.56143868 9.33166809,8.58541447 9.37962038,8.60939061 L9.61338661,8.6993007 C9.67332697,8.72327684 9.7152846,8.73526474 9.73926074,8.73526474 L9.86513487,8.77122877 L10.008991,8.77122877 C9.81718186,8.90309756 9.66733321,9.02897043 9.55944056,9.14885115 C9.40359562,9.29270801 9.27172881,9.43656272 9.16383616,9.58041958 L8.8041958,9.43656344 L8.64235764,9.45454545 L8.21078921,9.88611389 L8.17482517,9.88611389 L8.12087912,9.92207792 L8.12087912,9.94005994 L8.03096903,9.94005994 L8.01298701,9.92207792 L7.94105894,9.88611389 L7.41958042,9.36463536 L7.4015984,9.29270729 C7.38961033,9.29270729 7.38361638,9.2807194 7.38361638,9.25674326 L7.38361638,9.18481518 L7.4015984,9.11288711 L7.43756244,9.09490509 C7.44955051,9.09490509 7.45554446,9.08891115 7.45554446,9.07692308 L7.86913087,8.6993007 L7.86913087,8.66333666 C7.88111894,8.65134859 7.88711289,8.6393607 7.88711289,8.62737263 L7.88711289,8.57342657 L7.90509491,8.5014985 L7.86913087,8.46553447 L7.67132867,7.998002 L7.67132867,7.96203796 C7.67132867,7.95004989 7.6683317,7.94105897 7.66233766,7.93506494 L7.63536464,7.90809191 L7.52747253,7.85414585 L7.45554446,7.83616384 L6.8981019,7.83616384 C6.88611383,7.83616384 6.87412593,7.83016989 6.86213786,7.81818182 L6.84415584,7.8001998 L6.79020979,7.8001998 L6.79020979,7.76423576 L6.75424575,7.74625375 L6.75424575,7.69230769 L6.73626374,7.65634366 L6.73626374,6.91908092 L6.75424575,6.84715285 L6.84415584,6.77522478 C6.84415584,6.7632367 6.85014979,6.75724276 6.86213786,6.75724276 L7.54545455,6.75724276 L7.58141858,6.73926074 C7.59340665,6.72727267 7.5994006,6.71528478 7.5994006,6.7032967 L7.5994006,6.68531469 L7.63536464,6.66733267 C7.64735271,6.66733267 7.65634363,6.66133872 7.66233766,6.64935065 C7.6683317,6.63736258 7.67132867,6.62537469 7.67132867,6.61338661 L7.67132867,6.57742258 L7.86913087,6.16383616 L7.86913087,6.12787213 L7.90509491,6.07392607 L7.88711289,5.96603397 C7.88711289,5.95404589 7.88111894,5.942058 7.86913087,5.93006993 L7.83316683,5.85814186 L7.45554446,5.4985015 L7.43756244,5.46253746 L7.4015984,5.40859141 L7.4015984,5.33666334 C7.4015984,5.32467526 7.40759235,5.31868132 7.41958042,5.31868132 L7.45554446,5.24675325 L7.97702298,4.74325674 L7.995005,4.70729271 C8.00699307,4.69530464 8.01898096,4.68931069 8.03096903,4.68931069 L8.15684316,4.68931069 L8.62437562,5.1028971 C8.62437562,5.11488517 8.6273726,5.12387609 8.63336663,5.12987013 C8.63936067,5.13586417 8.65434553,5.13886114 8.67832168,5.13886114 L8.71428571,5.17482517 L8.84015984,5.19280719 L8.87612388,5.17482517 L8.91208791,5.13886114 L9.34365634,4.995005 L9.37962038,4.95904096 L9.41558442,4.95904096 L9.52347652,4.83316683 L9.54145854,4.74325674 L9.54145854,4.16783217 L9.55944056,4.11388611 L9.57742258,4.07792208 C9.57742258,4.06593401 9.58341652,4.05694309 9.5954046,4.05094905 C9.60739267,4.04495501 9.61938056,4.04195804 9.63136863,4.04195804 L10.5484515,4.04195804 L10.5844156,4.07792208 L10.5844156,4.11388611 L10.6023976,4.14985015 C10.6143857,4.14985015 10.6203796,4.1558441 10.6203796,4.16783217 L10.6203796,4.74325674 C10.6203796,4.75524482 10.6263736,4.77322665 10.6383616,4.7972028 L10.6563437,4.86913087 L10.7102897,4.94105894 C10.7342659,4.94105894 10.7522477,4.94705289 10.7642358,4.95904096 L11.2317682,5.13886114 L11.2677323,5.15684316 L11.2857143,5.17482517 L11.4115884,5.15684316 L11.4835165,5.12087912 L11.9150849,4.68931069 C11.927073,4.67732262 11.9390609,4.67132867 11.951049,4.67132867 L12.0949051,4.67132867 C12.0949051,4.68331674 12.100899,4.69530464 12.1128871,4.70729271 C12.1248752,4.71928078 12.1308691,4.73126867 12.1308691,4.74325674 L12.6703297,5.24675325 L12.6883117,5.31868132 C12.7002998,5.33066939 12.7062937,5.34865123 12.7062937,5.37262737 L12.7062937,5.42657343 L12.6883117,5.51648352 L12.2927073,5.87612388 C12.2927073,5.90010002 12.2807194,5.9240758 12.2567433,5.94805195 C12.1968029,5.94805195 12.1668332,5.95404589 12.1668332,5.96603397 L12.1668332,6.001998 C12.1548451,6.01398607 12.1488511,6.02597397 12.1488511,6.03796204 L12.1488511,6.12787213 L12.1848152,6.14585415 L12.3646354,6.61338661 L12.3646354,6.64935065 L12.4005994,6.68531469 C12.4245755,6.70929083 12.4425574,6.72127872 12.4545455,6.72127872 L12.4905095,6.75724276 L13.1198801,6.75724276 L13.1558442,6.77522478 C13.1678322,6.77522478 13.1738262,6.78121872 13.1738262,6.79320679 L13.2097902,6.81118881 C13.2217783,6.81118881 13.2277722,6.81718276 13.2277722,6.82917083 L13.2637363,6.86513487 L13.2817183,6.86513487 Z M7.92307692,14.8851149 C8.00699343,15.2207809 8.11188748,15.5354631 8.23776224,15.8291708 C8.36363699,16.1228786 8.52247656,16.4195789 8.71428571,16.7192807 L7.58141858,16.7192807 L7.45554446,16.7012987 L7.4015984,16.6653347 L7.4015984,16.6113886 C7.4015984,16.5874125 7.39860143,16.5664337 7.39260739,16.5484515 C7.38661336,16.5304694 7.37162849,16.5154846 7.34765235,16.5034965 L7.29370629,16.4675325 L7.29370629,16.3956044 L7.92307692,14.8851149 Z M17.3636364,12.0619381 C17.9030996,12.2057949 18.3106879,12.3946042 18.5864136,12.6283716 C18.8621392,12.862139 19,13.1348636 19,13.4465534 C19,13.5904103 18.9640363,13.731268 18.8921079,13.8691309 C18.8201795,14.0069937 18.7062945,14.1358635 18.5504496,14.2557443 C18.3586404,14.387613 18.184816,14.4895101 18.028971,14.5614386 C17.8251738,14.6573431 17.6033978,14.7472523 17.3636364,14.8311688 C17.3396602,14.8431569 17.3156844,14.8491508 17.2917083,14.8491508 L17.2197802,14.8491508 L17.2557443,14.9210789 C17.2677323,14.933067 17.2737263,14.9450549 17.2737263,14.957043 C17.4535474,15.304697 17.5794202,15.5984004 17.6513487,15.8381618 C17.7232771,16.0779233 17.7532468,16.2757235 17.7412587,16.4315684 C17.7172826,16.6233776 17.6873129,16.7672323 17.6513487,16.8631369 C17.6033964,16.9830176 17.5494508,17.0789207 17.4895105,17.1508492 C17.4535463,17.1868134 17.4115887,17.2167831 17.3636364,17.2407592 L17.2017982,17.3306693 C17.1418578,17.3666335 17.0759244,17.3846154 17.003996,17.3846154 L16.7702298,17.4025974 C16.6623371,17.4025974 16.56044,17.3966035 16.4645355,17.3846154 C16.3326667,17.3486512 16.2247756,17.3186814 16.1408591,17.2947053 C15.9970023,17.246753 15.8651355,17.1988014 15.7452547,17.1508492 L15.2957043,16.9350649 C15.2837162,16.9230769 15.2687314,16.9140859 15.2507493,16.9080919 C15.2327671,16.9020979 15.2117883,16.893107 15.1878122,16.8811189 L15.1518482,17.024975 C15.0799197,17.2647365 14.9900105,17.4805185 14.8821179,17.6723277 C14.7982014,17.8521488 14.6903103,18.0289702 14.5584416,18.2027972 C14.4265728,18.3766242 14.3066938,18.4935062 14.1988012,18.5534466 C14.0189801,18.6613392 13.8691315,18.7152847 13.7492507,18.7152847 C13.5934058,18.7152847 13.4465541,18.6763241 13.3086913,18.5984016 C13.1708285,18.5204791 13.0479526,18.4035972 12.9400599,18.2477522 C12.8081911,18.0679312 12.7003001,17.8941067 12.6163836,17.7262737 C12.508491,17.5104884 12.4245757,17.2887124 12.3646354,17.0609391 L12.3106893,16.9170829 L12.2567433,16.9350649 L12.2027972,16.971029 C12.0829165,17.0429574 11.9330678,17.1148848 11.7532468,17.1868132 C11.633366,17.2347655 11.5074932,17.282717 11.3756244,17.3306693 C11.2917079,17.3546455 11.1838168,17.3786213 11.0519481,17.4025974 L11.015984,17.4025974 C10.9320675,17.4265735 10.8481523,17.4385614 10.7642358,17.4385614 C10.6803193,17.4385614 10.5904101,17.4325675 10.4945055,17.4205794 C10.4345651,17.4205794 10.3686317,17.3966036 10.2967033,17.3486513 C10.248751,17.3366633 10.1978025,17.3126875 10.1438561,17.2767233 C10.0899098,17.2407591 10.0509492,17.2047954 10.026973,17.1688312 C9.9550446,17.1088908 9.89510513,17.0189816 9.84715285,16.8991009 C9.79920056,16.7792202 9.76623386,16.6413594 9.74825175,16.4855145 C9.73026964,16.3296696 9.76323634,16.1198814 9.84715285,15.8561439 C9.91908128,15.6283705 10.0449541,15.3406611 10.2247752,14.993007 L10.2967033,14.8851149 C10.2847152,14.8731268 10.2547455,14.8671329 10.2067932,14.8671329 L10.1348651,14.8491508 C9.93106791,14.7892105 9.70929191,14.7052952 9.46953047,14.5974026 C9.28970939,14.5134861 9.10989101,14.4055951 8.93006993,14.2737263 C8.78621307,14.1658336 8.67832204,14.0459547 8.60639361,13.9140859 C8.53446517,13.7822171 8.4985015,13.6383624 8.4985015,13.4825175 C8.4985015,13.1708276 8.63336528,12.8981031 8.9030969,12.6643357 C9.17282852,12.4305683 9.58940777,12.235765 10.1528472,12.0799201 L10.2247752,12.0799201 L10.3146853,12.043956 L10.2427572,11.9360639 C10.0629362,11.6003979 9.93406632,11.3156855 9.85614386,11.0819181 C9.77822139,10.8481507 9.75124863,10.6413595 9.77522478,10.4615385 C9.79920092,10.2817174 9.82917065,10.1438566 9.86513487,10.047952 C9.91308715,9.92807133 9.97302661,9.83216819 10.044955,9.76023976 C10.1528477,9.65234711 10.2817175,9.58041976 10.4315684,9.54445554 C10.5814193,9.50849133 10.7522468,9.50249738 10.9440559,9.52647353 C11.1358651,9.55044967 11.3276714,9.59840124 11.5194805,9.67032967 C11.77123,9.75424617 11.999,9.84415536 12.2027972,9.94005994 L12.3106893,10.02997 L12.3466533,9.88611389 C12.4185818,9.68231666 12.508491,9.46054066 12.6163836,9.22077922 C12.688312,9.05294621 12.7902091,8.87912178 12.9220779,8.6993007 C13.0419586,8.54345576 13.1708285,8.42657382 13.3086913,8.34865135 C13.4465541,8.27072888 13.5904088,8.23176823 13.7402597,8.23176823 C13.8901106,8.23176823 14.0309684,8.26773191 14.1628372,8.33966034 C14.294706,8.41158877 14.4235758,8.52547375 14.5494505,8.68131868 C14.6753253,8.83716362 14.7862133,9.01098805 14.8821179,9.2027972 C14.9780225,9.39460635 15.0679316,9.61638236 15.1518482,9.86813187 C15.1518482,9.88011994 15.1578421,9.90409572 15.1698302,9.94005994 L15.1878122,10.02997 L15.3136863,9.95804196 C15.5414597,9.83816124 15.7632357,9.73926113 15.979021,9.66133866 C16.1948063,9.58341619 16.3956035,9.53246765 16.5814186,9.50849151 C16.7672337,9.48451536 16.9320672,9.49650326 17.0759241,9.54445554 C17.2197809,9.59240783 17.3516478,9.67032913 17.4715285,9.77822178 C17.5434569,9.85015021 17.6003994,9.94305637 17.6423576,10.0569431 C17.6843159,10.1708297 17.7142856,10.3146844 17.7322677,10.4885115 C17.7502498,10.6623385 17.7172831,10.8631357 17.6333666,11.0909091 C17.5374621,11.3666347 17.4115892,11.6543442 17.2557443,11.954046 L17.1838162,12.0799201 L17.3096903,12.0799201 C17.3336665,12.0559439 17.3576422,12.04995 17.3816184,12.0619381 L17.3636364,12.0619381 Z M9.43356643,13.8061938 C9.52947101,13.8781222 9.65534388,13.9500496 9.81118881,14.021978 C9.93106953,14.0699303 10.0989,14.1298698 10.3146853,14.2017982 L10.6383616,14.2737263 L10.8721279,13.9320679 C10.9080921,13.8721276 10.9680315,13.7882123 11.0519481,13.6803197 L11.1418581,13.5724276 L11.2497502,13.4285714 L11.1958042,13.3746254 L10.8721279,12.961039 L10.6383616,12.6013986 L10.4765235,12.6553447 L10.3146853,12.6913087 C10.0989,12.7512491 9.93106953,12.8171825 9.81118881,12.8891109 C9.65534388,12.9610393 9.53246798,13.0299697 9.44255744,13.0959041 C9.3526469,13.1618385 9.28071955,13.2247749 9.22677323,13.2847153 C9.1728269,13.3446556 9.14585415,13.4015981 9.14585415,13.4555445 C9.14585415,13.5094908 9.16383598,13.5634363 9.1998002,13.6173826 C9.23576442,13.6713289 9.31368571,13.7342654 9.43356643,13.8061938 Z M12.022977,16.3056943 L12.040959,16.3056943 L12.1488511,16.2517483 C12.1128869,16.1078914 12.0829172,15.9640367 12.0589411,15.8201798 L11.987013,15.3706294 L11.987013,15.1908092 L11.8971029,15.1908092 L10.962038,15.046953 L10.8721279,15.1548452 C10.8361637,15.2027974 10.8181818,15.2447551 10.8181818,15.2807193 C10.686313,15.5084926 10.5904099,15.7092898 10.5304695,15.8831169 C10.4705292,16.0569439 10.4405594,16.1918077 10.4405594,16.2877123 C10.4285714,16.407593 10.4315683,16.4975022 10.4495504,16.5574426 C10.4675326,16.6173829 10.4885114,16.6593405 10.5124875,16.6833167 C10.5364637,16.7072928 10.5754243,16.7252747 10.6293706,16.7372627 C10.683317,16.7492508 10.7762231,16.7492508 10.9080919,16.7372627 C11.0399607,16.7252747 11.1808184,16.692308 11.3306693,16.6383616 C11.4805202,16.5844153 11.6693295,16.4975031 11.8971029,16.3776224 L12.022977,16.3056943 Z M10.8181818,11.5944056 C10.8181818,11.6063937 10.8301697,11.6303695 10.8541459,11.6663337 L10.998002,11.8641359 C11.165835,11.8281716 11.3336655,11.7982019 11.5014985,11.7742258 L12.004995,11.7022977 L12.004995,11.6123876 C12.004995,11.5764234 12.010989,11.5464537 12.022977,11.5224775 L12.0769231,11.0729271 C12.1008992,10.9170821 12.130869,10.7732274 12.1668332,10.6413586 C11.9990002,10.5454541 11.8671333,10.4735267 11.7712288,10.4255744 L11.4115884,10.2637363 L11.0519481,10.1558442 C10.9440554,10.1198799 10.8541462,10.1018981 10.7822178,10.1018981 L10.6743257,10.1018981 C10.6503495,10.1138862 10.6293707,10.1228771 10.6113886,10.1288711 C10.5934065,10.1348652 10.5784216,10.1438561 10.5664336,10.1558442 L10.5124875,10.1918082 C10.4885114,10.2157843 10.4705295,10.2637359 10.4585415,10.3356643 L10.4585415,10.6053946 C10.4705295,10.7372634 10.5004993,10.8751242 10.5484515,11.018981 C10.6323681,11.2347663 10.7222772,11.4265726 10.8181818,11.5944056 Z M11.6813187,12.9250749 L11.7172827,12.8891109 L11.7532468,12.8351648 C11.7772229,12.8231768 11.8071926,12.799201 11.8431568,12.7632368 L11.9330669,12.6553447 L11.9330669,12.5114885 C11.9330669,12.4635362 11.9390609,12.4095907 11.951049,12.3496503 L11.7712288,12.3496503 L11.3396603,12.4395604 C11.3756246,12.4755247 11.4175822,12.5294702 11.4655345,12.6013986 L11.6813187,12.9250749 Z M11.6813187,13.95005 L11.6813187,13.968032 L11.3396603,14.4535465 L11.7712288,14.5434565 L11.8431568,14.5434565 L11.9330669,14.5614386 L11.9330669,14.3816184 C11.9330669,14.3336661 11.927073,14.2737266 11.9150849,14.2017982 C11.8911088,14.165834 11.867133,14.1358643 11.8431568,14.1118881 L11.7712288,14.0579421 L11.7352647,14.003996 L11.6813187,13.95005 Z M14.6123876,14.2917083 C14.672328,14.2317679 14.7262735,14.1718285 14.7742258,14.1118881 L14.954046,13.95005 L14.972028,13.4465534 L14.954046,12.961039 C14.8941056,12.9010986 14.8371631,12.8381622 14.7832168,12.7722278 C14.7292705,12.7062934 14.666334,12.6433569 14.5944056,12.5834166 L14.2527473,12.2597403 C14.204795,12.2477522 14.1208797,12.2417582 14.000999,12.2417582 L13.4975025,12.2417582 C13.4375621,12.2417582 13.3536469,12.2477522 13.2457542,12.2597403 C13.1858139,12.3076925 13.1318684,12.3616381 13.0839161,12.4215784 L12.9040959,12.5834166 L12.5624376,12.961039 L12.5624376,13.95005 L13.0839161,14.4715285 C13.1558445,14.5434569 13.2217779,14.5974024 13.2817183,14.6333666 L13.7492507,14.6513487 L14.2527473,14.6333666 L14.6123876,14.2917083 Z M12.6703297,11.4325674 L12.6703297,11.5404595 L12.6523477,11.6303696 L12.8141858,11.6303696 L12.958042,11.6123876 L13.2277722,11.3786214 L12.7422577,11.018981 L12.6703297,11.4325674 Z M12.6703297,15.4245754 C12.6823177,15.4485516 12.6883117,15.4845152 12.6883117,15.5324675 L12.7602398,15.8561439 C12.8201801,15.8201796 12.8981014,15.7662341 12.994006,15.6943057 L13.2637363,15.5144855 L13.1738262,15.4245754 C13.1258739,15.4125874 13.0959042,15.3946055 13.0839161,15.3706294 L13.011988,15.2987013 L12.6703297,15.2807193 L12.6703297,15.4245754 Z M12.994006,10.011988 C12.9820179,10.0359642 12.97003,10.0779218 12.958042,10.1378621 L12.9040959,10.3356643 L13.6413586,10.8391608 L13.6773227,10.8931069 L13.7312687,10.9470529 L13.8571429,10.8391608 L14.2347652,10.5694306 C14.3066937,10.5214783 14.4265726,10.443557 14.5944056,10.3356643 L14.5044955,10.011988 C14.4445551,9.844155 14.3786217,9.67632452 14.3066933,9.50849151 C14.2467529,9.37662272 14.1778226,9.2567438 14.0999001,9.14885115 C14.0219776,9.0409585 13.9560442,8.96603418 13.9020979,8.92407592 C13.8481516,8.88211767 13.7942061,8.86113886 13.7402597,8.86113886 C13.6863134,8.86113886 13.6293709,8.88511465 13.5694306,8.93306693 C13.5334664,8.95704308 13.4675329,9.01698254 13.3716284,9.11288711 L13.1738262,9.50849151 C13.1258739,9.58041994 13.0719284,9.7182807 13.011988,9.92207792 L12.994006,10.011988 Z M14.5224775,16.8631369 C14.5224775,16.8391607 14.5284715,16.809191 14.5404595,16.7732268 L14.5584416,16.7192807 C14.5704296,16.6473523 14.5884115,16.5934068 14.6123876,16.5574426 C14.4805188,16.4855141 14.354646,16.4075928 14.2347652,16.3236763 L13.8211788,15.982018 L13.7492507,15.9460539 L13.6413586,16.0539461 L13.2637363,16.3236763 C13.1438555,16.4075928 13.0239766,16.4855141 12.9040959,16.5574426 L12.994006,16.8631369 C13.0659344,17.0789222 13.1318678,17.2527466 13.1918082,17.3846154 C13.2637366,17.5404603 13.32967,17.6603392 13.3896104,17.7442557 C13.4735269,17.8521484 13.5454542,17.9270727 13.6053946,17.969031 C13.665335,18.0109892 13.7222775,18.031968 13.7762238,18.031968 C13.8301701,18.031968 13.8841156,18.0079922 13.9380619,17.96004 C13.9920083,17.9120877 14.0519477,17.8431573 14.1178821,17.7532468 C14.1838165,17.6633362 14.2527469,17.5404603 14.3246753,17.3846154 C14.3606395,17.312687 14.4085911,17.1868141 14.4685315,17.006993 L14.5224775,16.8631369 Z M14.8461538,15.4425574 L14.8461538,15.3526474 L14.8641359,15.2627373 C14.8161836,15.2747253 14.7562441,15.2807193 14.6843157,15.2807193 L14.5044955,15.2807193 L14.4145854,15.3706294 L14.3606394,15.4425574 L14.2707293,15.5324675 C14.3786219,15.616384 14.4565432,15.6763235 14.5044955,15.7122877 L14.7562438,15.8741259 L14.8461538,15.4425574 Z M14.8461538,11.4325674 C14.8341658,11.4085913 14.8281718,11.3726276 14.8281718,11.3246753 L14.7742258,11.018981 L14.2707293,11.3606394 L14.4505495,11.5224775 C14.4985017,11.5704298 14.5344654,11.6003995 14.5584416,11.6123876 L14.8641359,11.6303696 L14.8461538,11.4325674 Z M16.6263736,15.1548452 C16.6023975,15.1428571 16.5784217,15.1128874 16.5544456,15.0649351 L16.5364635,15.028971 C16.3926067,15.0649352 16.248752,15.094905 16.1048951,15.1188811 L15.6553447,15.1908092 L15.5834166,15.1908092 L15.4935065,15.2087912 L15.4935065,15.2627373 L15.4215784,15.8021978 C15.3976023,15.9580427 15.3676325,16.1018974 15.3316683,16.2337662 L15.5834166,16.3776224 C15.7872138,16.485515 15.9790201,16.5694303 16.1588412,16.6293706 C16.302698,16.689311 16.4405588,16.7252747 16.5724276,16.7372627 C16.6683321,16.7372627 16.7552444,16.7342658 16.8331668,16.7282717 C16.9110893,16.7222777 16.9590409,16.7072928 16.977023,16.6833167 C16.9950051,16.6593405 17.0129869,16.611389 17.030969,16.5394605 C17.0489511,16.4675321 17.0549451,16.3776229 17.048951,16.2697303 C17.042957,16.1618376 17.0099903,16.0269738 16.95005,15.8651349 C16.8901096,15.7032959 16.8002004,15.5084926 16.6803197,15.2807193 C16.6803197,15.2567431 16.6623378,15.2147855 16.6263736,15.1548452 Z M16.1048951,10.2637363 C16.0569428,10.2877124 15.9790215,10.3236761 15.8711289,10.3716284 L15.3676324,10.6233766 L15.4395604,11.0549451 C15.4755247,11.21079 15.4995004,11.3606386 15.5114885,11.5044955 L15.5114885,11.7022977 L15.5294705,11.7022977 C15.7572439,11.7262738 15.9250744,11.7442557 16.032967,11.7562438 L16.5364635,11.8461538 L16.6983017,11.6123876 C16.8301705,11.3726262 16.9260736,11.165835 16.986014,10.992008 C17.0459543,10.8181809 17.0759241,10.6833172 17.0759241,10.5874126 C17.0759241,10.491508 17.0699301,10.4105897 17.0579421,10.3446553 C17.045954,10.2787209 17.0339661,10.2277724 17.021978,10.1918082 L16.9140859,10.1198801 L16.7522478,10.1018981 C16.6683312,10.1018981 16.5724281,10.1198799 16.4645355,10.1558442 L16.1048951,10.2637363 Z M15.8171828,12.9250749 C15.9130874,12.8051942 15.9790208,12.721279 16.014985,12.6733267 C16.0749254,12.5774221 16.1288709,12.4995008 16.1768232,12.4395604 L15.7452547,12.3496503 L15.5834166,12.3496503 L15.6013986,12.6733267 C15.6133867,12.6973028 15.6373625,12.7272725 15.6733267,12.7632368 L15.8171828,12.9250749 Z M15.8171828,13.95005 L15.7272727,14.021978 C15.7152847,14.0699303 15.6973028,14.102897 15.6733267,14.1208791 C15.6493505,14.1388612 15.6253747,14.165834 15.6013986,14.2017982 L15.5834166,14.5434565 L15.6733267,14.5434565 L16.1948052,14.4535465 C16.1228768,14.36963 16.0599403,14.2857147 16.005994,14.2017982 C15.9520477,14.1178817 15.8951052,14.0339665 15.8351648,13.95005 L15.8171828,13.95005 Z M18.046953,13.8061938 C18.1548457,13.7462534 18.232767,13.683317 18.2807193,13.6173826 C18.3286716,13.5514482 18.3526474,13.4945057 18.3526474,13.4465534 C18.3526474,13.3986012 18.3256746,13.3386617 18.2717283,13.2667333 C18.2177819,13.1948048 18.1488516,13.1318684 18.0649351,13.0779221 C17.9810186,13.0239758 17.8551457,12.9550454 17.6873127,12.8711289 C17.567432,12.8111885 17.3996015,12.7452551 17.1838162,12.6733267 L16.8601399,12.6013986 C16.8121876,12.6853151 16.7342663,12.7992001 16.6263736,12.9430569 L16.2487512,13.4285714 L16.6263736,13.9320679 L16.8601399,14.2737263 L17.0579421,14.2377622 C17.1178824,14.2137861 17.15984,14.1958043 17.1838162,14.1838162 C17.3876134,14.1238758 17.5554439,14.0639364 17.6873127,14.003996 L17.7772228,13.968032 C17.9090916,13.9080916 17.9990008,13.8541461 18.046953,13.8061938 Z" id="" fill="#2B2826"></path>
        </g>
        <g id="icons-/-Error_Mark" transform="translate(0.000000, 12.000000)">
            <circle id="Oval" fill="#FFFFFF" fill-rule="nonzero" cx="4" cy="4" r="4"></circle>
            <path d="M4.00666043,0.66666822 C4.60923891,0.667230482 5.16978374,0.820408594 5.68831169,1.12620713 C6.1900347,1.42368891 6.5896311,1.82328531 6.88711289,2.32500833 C7.19347473,2.84449144 7.34665335,3.4050364 7.34665335,4.00666001 C7.34665335,4.60828362 7.19347473,5.16882857 6.88711289,5.68831169 C6.5896311,6.1900347 6.1900347,6.5896311 5.68831169,6.88711289 C5.16882857,7.19347473 4.60828362,7.34665335 4.00666001,7.34665335 C3.4050364,7.34665335 2.84449144,7.19347473 2.32500833,6.88711289 C1.82328531,6.5896311 1.42368891,6.1900347 1.12620713,5.68831169 C0.819845288,5.16882857 0.666666667,4.60828362 0.666666667,4.00666001 C0.666666667,3.4050364 0.819845288,2.84449144 1.12620713,2.32500833 C1.42368891,1.82328531 1.82328531,1.42368891 2.32500833,1.12620713 C2.84353627,0.820408594 3.4040811,0.667230482 4.00665958,0.66666822 L4.00666043,0.66666822 Z M4.00666043,0.66666822 C4.00555043,0.666667185 4.00444029,0.666666667 4.00333,0.666666667 L4.00999001,0.666666667 C4.00887973,0.666666667 4.00776958,0.666667185 4.00665958,0.66666822 L4.00666043,0.66666822 Z M4.34299034,5.67499167 L4.34299034,5.00899101 L3.67032967,5.00899101 L3.67032967,5.67499167 L4.34299034,5.67499167 Z M4.34299034,4.34299034 L4.34299034,2.33832834 L3.67032967,2.33832834 L3.67032967,4.34299034 L4.34299034,4.34299034 Z" id="" fill="#F83200"></path>
        </g>
    </g>
</svg>