<?xml version="1.0" encoding="UTF-8"?>
<svg width="20px" height="20px" viewBox="0 0 20 20" version="1.1" xmlns="http://www.w3.org/2000/svg" xmlns:xlink="http://www.w3.org/1999/xlink">
    <!-- Generator: Sketch 51.3 (57544) - http://www.bohemiancoding.com/sketch -->
    <title>icons / classes/ BMC_Mobile_32</title>
    <desc>Created with Sketch.</desc>
    <defs></defs>
    <g id="icons-/-classes/-BMC_Mobile_32" stroke="none" stroke-width="1" fill="none" fill-rule="evenodd">
        <g id="icons-/-classes/-Mobile">
            <g id="icons-/-20x20-icon-field" fill="#F5A623" fill-rule="nonzero" opacity="0">
                <rect x="0" y="0" width="20" height="20"></rect>
            </g>
            <path d="M13.6803197,0.828171828 C14.1611746,0.828171828 14.5755893,1.00216276 14.9235764,1.35014985 C15.2715635,1.69813694 15.4455544,2.11255171 15.4455544,2.59340659 L15.4455544,18.1008991 C15.4455544,18.581754 15.274727,18.9930053 14.9330669,19.3346653 C14.5914069,19.6763254 14.1738286,19.8471528 13.6803197,19.8471528 L5.76523477,19.8471528 C5.2717258,19.8471528 4.85414756,19.6763254 4.51248751,19.3346653 C4.17082746,18.9930053 4,18.581754 4,18.1008991 L4,2.59340659 C4,2.11255171 4.17082746,1.69813694 4.51248751,1.35014985 C4.85414756,1.00216276 5.2717258,0.828171828 5.76523477,0.828171828 L13.6803197,0.828171828 Z M8.57442557,2.25174825 C8.47319297,2.25174825 8.38777924,2.28338297 8.31818182,2.34665335 C8.2485844,2.40992373 8.21378621,2.49217399 8.21378621,2.59340659 C8.21378621,2.6946392 8.2485844,2.78005293 8.31818182,2.84965035 C8.38777924,2.91924777 8.47319297,2.95404595 8.57442557,2.95404595 L10.6813187,2.95404595 C10.7825513,2.95404595 10.8648015,2.91924777 10.9280719,2.84965035 C10.9913423,2.78005293 11.022977,2.6946392 11.022977,2.59340659 C11.022977,2.49217399 10.9913423,2.40992373 10.9280719,2.34665335 C10.8648015,2.28338297 10.7825513,2.25174825 10.6813187,2.25174825 L8.57442557,2.25174825 Z M9.61838162,19.1638362 C9.90942536,19.1638362 10.1593396,19.0594416 10.3681319,18.8506494 C10.5769241,18.6418571 10.6813187,18.3919428 10.6813187,18.1008991 C10.6813187,17.8098554 10.5769241,17.5631046 10.3681319,17.3606394 C10.1593396,17.1581741 9.90942536,17.0569431 9.61838162,17.0569431 C9.32733787,17.0569431 9.08058709,17.1581741 8.87812188,17.3606394 C8.67565666,17.5631046 8.57442557,17.8098554 8.57442557,18.1008991 C8.57442557,18.3919428 8.67565666,18.6418571 8.87812188,18.8506494 C9.08058709,19.0594416 9.32733787,19.1638362 9.61838162,19.1638362 Z M13.9080919,16.0699301 L13.9080919,4.64335664 L5.51848152,4.64335664 L5.53746254,16.0699301 L13.9080919,16.0699301 Z" id="" fill="#333333"></path>
        </g>
        <g id="icons-/-Error_Mark" transform="translate(0.000000, 12.000000)" opacity="0">
            <circle id="Oval" fill="#FFFFFF" fill-rule="nonzero" cx="4" cy="4" r="4"></circle>
            <path d="M4.00666043,0.66666822 C4.60923891,0.667230482 5.16978374,0.820408594 5.68831169,1.12620713 C6.1900347,1.42368891 6.5896311,1.82328531 6.88711289,2.32500833 C7.19347473,2.84449144 7.34665335,3.4050364 7.34665335,4.00666001 C7.34665335,4.60828362 7.19347473,5.16882857 6.88711289,5.68831169 C6.5896311,6.1900347 6.1900347,6.5896311 5.68831169,6.88711289 C5.16882857,7.19347473 4.60828362,7.34665335 4.00666001,7.34665335 C3.4050364,7.34665335 2.84449144,7.19347473 2.32500833,6.88711289 C1.82328531,6.5896311 1.42368891,6.1900347 1.12620713,5.68831169 C0.819845288,5.16882857 0.666666667,4.60828362 0.666666667,4.00666001 C0.666666667,3.4050364 0.819845288,2.84449144 1.12620713,2.32500833 C1.42368891,1.82328531 1.82328531,1.42368891 2.32500833,1.12620713 C2.84353627,0.820408594 3.4040811,0.667230482 4.00665958,0.66666822 L4.00666043,0.66666822 Z M4.00666043,0.66666822 C4.00555043,0.666667185 4.00444029,0.666666667 4.00333,0.666666667 L4.00999001,0.666666667 C4.00887973,0.666666667 4.00776958,0.666667185 4.00665958,0.66666822 L4.00666043,0.66666822 Z M4.34299034,5.67499167 L4.34299034,5.00899101 L3.67032967,5.00899101 L3.67032967,5.67499167 L4.34299034,5.67499167 Z M4.34299034,4.34299034 L4.34299034,2.33832834 L3.67032967,2.33832834 L3.67032967,4.34299034 L4.34299034,4.34299034 Z" id="" fill="#F83200"></path>
        </g>
    </g>
</svg>