<?xml version="1.0" encoding="UTF-8"?>
<svg width="20px" height="20px" viewBox="0 0 20 20" version="1.1" xmlns="http://www.w3.org/2000/svg" xmlns:xlink="http://www.w3.org/1999/xlink">
    <!-- Generator: Sketch 51.3 (57544) - http://www.bohemiancoding.com/sketch -->
    <title>icons / classes/ BMC_ActivityDecision_32_Error</title>
    <desc>Created with Sketch.</desc>
    <defs></defs>
    <g id="icons-/-classes/-BMC_ActivityDecision_32" stroke="none" stroke-width="1" fill="none" fill-rule="evenodd">
        <g>
            <g id="icons-/-20x20-icon-field" fill="#F5A623" fill-rule="nonzero" opacity="0">
                <rect x="0" y="0" width="20" height="20"></rect>
            </g>
            <path d="M8.23176823,9.30769231 C8.20512807,9.74725495 8.08524915,10.1468513 7.87212787,10.5064935 C7.64568651,10.8927758 7.34598921,11.2324328 6.97302697,11.5254745 C6.57342458,11.8451564 6.13386853,12.0782543 5.65434565,12.2247752 C5.17482278,12.3712961 4.66200739,12.4445554 4.11588412,12.4445554 C3.56976084,12.4445554 3.06027542,12.3712961 2.58741259,12.2247752 C2.11454975,12.0782543 1.67832368,11.8484864 1.27872128,11.5354645 C0.879118881,11.2224427 0.569431668,10.8761258 0.34965035,10.4965035 C0.129869031,10.1168812 0.00666013986,9.72061479 -0.01998002,9.30769231 L0.37962038,9.30769231 L3.35664336,4.15284715 C3.31668312,4.15284715 3.29004336,4.13952727 3.27672328,4.11288711 L3.15684316,4.03296703 L3.07692308,3.89310689 C3.063603,3.85314665 3.05694306,3.80652707 3.05694306,3.75324675 L2.95704296,3.47352647 C2.9304028,3.36696583 2.92374286,3.27372667 2.93706294,3.19380619 C2.95038302,3.11388571 2.97702278,3.04395634 3.01698302,2.98401598 C3.05694326,2.92407562 3.11022278,2.86746613 3.17682318,2.81418581 C3.24342358,2.76090549 3.3300028,2.72094585 3.43656344,2.69430569 L16.2637363,-0.002997003 C16.3702969,-0.0163170829 16.4635361,-0.0163170829 16.5434565,-0.002997003 C16.623377,0.0103230769 16.6933064,0.0336328671 16.7532468,0.0669330669 C16.8131871,0.100233267 16.8697966,0.156842757 16.9230769,0.236763237 C16.9763572,0.316683716 17.0163169,0.409922877 17.042957,0.516483516 L17.1428571,0.776223776 C17.1694973,0.882784416 17.1728273,0.976023576 17.1528472,1.05594406 C17.132867,1.13586454 17.1062273,1.21245385 17.0729271,1.28571429 C17.0396269,1.35897473 16.9963373,1.41558422 16.9430569,1.45554446 C16.8897766,1.4955047 16.8298372,1.5288044 16.7632368,1.55544456 L19.7202797,6.73026973 L19.7202797,6.63036963 L20,6.63036963 C19.9866799,7.06993227 19.8734609,7.46952867 19.6603397,7.82917083 C19.4472184,8.18881299 19.1408611,8.52846993 18.7412587,8.84815185 C18.7012985,8.88811209 18.6546789,8.92807173 18.6013986,8.96803197 L18.4815185,9.04795205 C17.895435,8.56842917 17.2361009,8.19214256 16.5034965,7.91908092 C15.7708921,7.64601928 14.9916791,7.50949051 14.1658342,7.50949051 C13.8195121,7.50949051 13.4798551,7.5328003 13.1468531,7.57942058 C12.8138511,7.62604086 12.4675343,7.70263017 12.1078921,7.80919081 C12.0013315,7.60938961 11.9247422,7.41958132 11.8781219,7.23976024 C11.8315016,7.05993916 11.8015319,6.85681099 11.7882118,6.63036963 L12.0679321,6.63036963 L14.8451548,1.83516484 L10.9090909,2.69430569 L10.9090909,8.34865135 C10.5494488,8.54845255 10.2231117,8.76823057 9.93006993,9.00799201 C9.58374785,9.31435385 9.29737043,9.59407133 9.07092907,9.84715285 L9.07092907,3.07392607 L4.87512488,3.93306693 L7.95204795,9.30769231 L8.23176823,9.30769231 Z M1.71828172,9.40759241 L6.51348651,9.40759241 L4.11588412,5.29170829 L1.71828172,9.40759241 Z M4.5296118,18.2987013 L7.87212787,16.3406593 C7.99200859,16.7136216 8.13852727,17.0599385 8.31168831,17.3796204 C8.51148951,17.7259425 8.71794765,18.0322997 8.93106893,18.2987013 L4.5296118,18.2987013 Z M4.5296118,18.2987013 L4.4955045,18.3186813 L4.4955045,18.2987013 L4.5296118,18.2987013 Z M18.3016983,10.026973 C18.5547798,10.2933746 18.7878777,10.579752 19.000999,10.8861139 C19.2008002,11.1791556 19.3872785,11.5121526 19.5604396,11.8851149 C19.6936404,12.2181169 19.8068593,12.5844136 19.9000999,12.984016 C19.9800204,13.3436581 20.01998,13.7365946 20.01998,14.1628372 C20.01998,14.5491195 19.9800204,14.9420559 19.9000999,15.3416583 C19.8334995,15.6879804 19.7202805,16.0476172 19.5604396,16.4205794 C19.4005986,16.7935417 19.2141203,17.1331986 19.000999,17.4395604 C18.7878777,17.7592424 18.5547798,18.0422898 18.3016983,18.2887113 C18.0486168,18.5351328 17.7622394,18.7715606 17.4425574,18.998002 C17.1495157,19.1978032 16.8231786,19.3776216 16.4635365,19.5374625 C16.1038943,19.6973035 15.7309377,19.8171824 15.3446553,19.8971029 C14.958373,19.9770234 14.5687665,20.016983 14.1758242,20.016983 C13.7828818,20.016983 13.3932753,19.9770234 13.006993,19.8971029 C12.6207107,19.8171824 12.251084,19.6973035 11.8981019,19.5374625 C11.5451198,19.3776216 11.2121228,19.1978032 10.8991009,18.998002 C10.586079,18.7982008 10.3030316,18.5684329 10.04995,18.3086913 C9.79686853,18.0489498 9.55711069,17.7592424 9.33066933,17.4395604 C9.13086813,17.1331986 8.95104975,16.8002016 8.79120879,16.4405594 C8.63136783,16.1208775 8.51148891,15.7545808 8.43156843,15.3416583 C8.36496803,14.9820162 8.33166833,14.5924097 8.33166833,14.1728272 C8.33166833,13.7532447 8.36496803,13.3569782 8.43156843,12.984016 C8.51148891,12.5844136 8.63136783,12.2181169 8.79120879,11.8851149 C8.95104975,11.5254727 9.1341981,11.1924757 9.34065934,10.8861139 C9.54712058,10.579752 9.77688851,10.3000346 10.02997,10.046953 C10.2830515,9.79387153 10.566099,9.56077363 10.8791209,9.34765235 C11.1921428,9.13453107 11.5251398,8.95138272 11.8781219,8.7982018 C12.231104,8.64502088 12.6007307,8.5318019 12.987013,8.45854146 C13.3732953,8.38528102 13.7629018,8.34865135 14.1558442,8.34865135 C14.5487865,8.34865135 14.941723,8.38528102 15.3346653,8.45854146 C15.7276077,8.5318019 16.1005643,8.64502088 16.4535465,8.7982018 C16.8065286,8.95138272 17.1295357,9.12787113 17.4225774,9.32767233 C17.7822196,9.58075385 18.0752569,9.81385175 18.3016983,10.026973 Z M17.5024975,14.6223776 L17.5024975,12.5044955 L15.3846154,12.5044955 L15.3846154,13.1238761 L16.4435564,13.1238761 L14.7452547,14.8221778 L13.046953,13.1638362 L10.8491508,15.3816184 L11.2687313,15.8411588 L13.046953,14.0629371 L14.7452547,15.7412587 L16.8431568,13.6233766 L16.8631369,14.6423576 L17.5024975,14.6223776 Z M15.8841159,2.59440559 L13.5064935,6.73026973 L18.2817183,6.73026973 L15.8841159,2.59440559 Z" id="" fill="#2B2826"></path>
            <g id="icons-/-Error_Mark" transform="translate(0.000000, 12.000000)">
                <circle id="Oval" fill="#FFFFFF" fill-rule="nonzero" cx="4" cy="4" r="4"></circle>
                <path d="M4.00666043,0.66666822 C4.60923891,0.667230482 5.16978374,0.820408594 5.68831169,1.12620713 C6.1900347,1.42368891 6.5896311,1.82328531 6.88711289,2.32500833 C7.19347473,2.84449144 7.34665335,3.4050364 7.34665335,4.00666001 C7.34665335,4.60828362 7.19347473,5.16882857 6.88711289,5.68831169 C6.5896311,6.1900347 6.1900347,6.5896311 5.68831169,6.88711289 C5.16882857,7.19347473 4.60828362,7.34665335 4.00666001,7.34665335 C3.4050364,7.34665335 2.84449144,7.19347473 2.32500833,6.88711289 C1.82328531,6.5896311 1.42368891,6.1900347 1.12620713,5.68831169 C0.819845288,5.16882857 0.666666667,4.60828362 0.666666667,4.00666001 C0.666666667,3.4050364 0.819845288,2.84449144 1.12620713,2.32500833 C1.42368891,1.82328531 1.82328531,1.42368891 2.32500833,1.12620713 C2.84353627,0.820408594 3.4040811,0.667230482 4.00665958,0.66666822 L4.00666043,0.66666822 Z M4.00666043,0.66666822 C4.00555043,0.666667185 4.00444029,0.666666667 4.00333,0.666666667 L4.00999001,0.666666667 C4.00887973,0.666666667 4.00776958,0.666667185 4.00665958,0.66666822 L4.00666043,0.66666822 Z M4.34299034,5.67499167 L4.34299034,5.00899101 L3.67032967,5.00899101 L3.67032967,5.67499167 L4.34299034,5.67499167 Z M4.34299034,4.34299034 L4.34299034,2.33832834 L3.67032967,2.33832834 L3.67032967,4.34299034 L4.34299034,4.34299034 Z" id="" fill="#F83200"></path>
            </g>
        </g>
    </g>
</svg>