<?xml version="1.0" encoding="UTF-8"?>
<svg width="20px" height="20px" viewBox="0 0 20 20" version="1.1" xmlns="http://www.w3.org/2000/svg" xmlns:xlink="http://www.w3.org/1999/xlink">
    <!-- Generator: Sketch 51.3 (57544) - http://www.bohemiancoding.com/sketch -->
    <title>icons / classes/ BMC_StorageSubsystem_32</title>
    <desc>Created with Sketch.</desc>
    <defs>
        <polygon id="path-1" points="0 8.33333333e-05 19.9998333 8.33333333e-05 19.9998333 20 0 20"></polygon>
    </defs>
    <g id="icons-/-classes/-BMC_StorageSubsystem_32" stroke="none" stroke-width="1" fill="none" fill-rule="evenodd">
        <g id="icons-/-classes/-StorageSubsystem" fill="#F5A623" fill-rule="nonzero" opacity="0">
            <g id="icons-/-20x20-icon-field">
                <rect x="0" y="0" width="20" height="20"></rect>
            </g>
        </g>
        <g id="Group-3">
            <mask id="mask-2" fill="white">
                <use xlink:href="#path-1"></use>
            </mask>
            <g id="Clip-2"></g>
            <path d="M13.1831667,11.5250833 C13.0498333,11.5500833 12.9248333,11.59175 12.7998333,11.6584167 C12.6415,11.7500833 12.5165,11.8834167 12.4165,12.04175 C12.3248333,12.2000833 12.2831667,12.3750833 12.2831667,12.56675 L12.2831667,12.61675 C12.2915,12.79175 12.3331667,12.9500833 12.4165,13.1000833 C12.5165,13.2584167 12.6415,13.3834167 12.7998333,13.4834167 C12.9665,13.5750833 13.1415,13.6250833 13.3331667,13.6250833 C13.5248333,13.6250833 13.6998333,13.5750833 13.8581667,13.4834167 C14.0248333,13.3834167 14.1498333,13.2584167 14.2415,13.1000833 C14.3331667,12.9334167 14.3831667,12.7584167 14.3831667,12.56675 C14.3831667,12.3750833 14.3331667,12.2000833 14.2415,12.04175 C14.1498333,11.8834167 14.0248333,11.7500833 13.8581667,11.6584167 C13.6998333,11.56675 13.5248333,11.51675 13.3331667,11.51675 C13.2831667,11.51675 13.2415,11.51675 13.1915,11.5250833 L13.1831667,11.5250833 Z M13.0498333,10.0000833 L13.3331667,10.0000833 L13.6165,10.0000833 C13.6581667,10.0000833 13.6831667,10.0084167 13.7081667,10.0334167 C13.7331667,10.0584167 13.7498333,10.09175 13.7498333,10.1334167 L13.7498333,10.54175 C13.7498333,10.5750833 13.7581667,10.6084167 13.7831667,10.64175 C13.8081667,10.6750833 13.8415,10.7000833 13.8748333,10.7084167 L14.2081667,10.8500833 C14.2415,10.86675 14.2831667,10.86675 14.3248333,10.86675 C14.3665,10.8584167 14.3998333,10.84175 14.4248333,10.81675 L14.7081667,10.5250833 C14.7331667,10.5000833 14.7665,10.49175 14.8081667,10.49175 C14.8415,10.49175 14.8748333,10.5000833 14.8998333,10.5250833 L15.3081667,10.9334167 C15.3248333,10.9584167 15.3415,10.99175 15.3415,11.0250833 C15.3415,11.06675 15.3248333,11.09175 15.3081667,11.11675 L15.0165,11.4084167 C14.9915,11.4334167 14.9748333,11.46675 14.9665,11.5084167 C14.9581667,11.5500833 14.9665,11.5834167 14.9831667,11.61675 L15.1165,11.9584167 C15.1331667,11.99175 15.1498333,12.0250833 15.1831667,12.0500833 C15.2248333,12.0750833 15.2581667,12.0834167 15.2915,12.0834167 L15.6998333,12.0834167 C15.7331667,12.0834167 15.7665,12.1000833 15.7915,12.1250833 C15.8165,12.1500833 15.8331667,12.1750833 15.8331667,12.21675 L15.8331667,12.7834167 C15.8331667,12.81675 15.8165,12.8500833 15.7915,12.8750833 C15.7665,12.9000833 15.7331667,12.91675 15.6998333,12.91675 L15.2915,12.91675 C15.2581667,12.91675 15.2248333,12.9250833 15.1915,12.9500833 C15.1581667,12.9750833 15.1331667,13.0084167 15.1248333,13.04175 L14.9831667,13.3834167 C14.9665,13.41675 14.9665,13.4500833 14.9665,13.49175 C14.9748333,13.5334167 14.9915,13.56675 15.0165,13.59175 L15.3081667,13.8750833 C15.3331667,13.9084167 15.3415,13.9334167 15.3415,13.9750833 C15.3415,14.0084167 15.3331667,14.04175 15.3081667,14.06675 L14.9081667,14.46675 C14.8748333,14.49175 14.8498333,14.5084167 14.8081667,14.5084167 C14.7748333,14.5084167 14.7415,14.49175 14.7165,14.46675 L14.4248333,14.1750833 C14.3998333,14.1584167 14.3665,14.14175 14.3248333,14.1334167 C14.2831667,14.1250833 14.2498333,14.1334167 14.2165,14.1500833 L13.8748333,14.2834167 C13.8415,14.3000833 13.8165,14.31675 13.7915,14.3500833 C13.7665,14.3834167 13.7498333,14.41675 13.7498333,14.4584167 L13.7498333,14.86675 C13.7498333,14.9000833 13.7415,14.9334167 13.7165,14.9584167 C13.6915,14.9834167 13.6581667,15.0000833 13.6248333,15.0000833 L13.3331667,15.0000833 L13.0498333,15.0000833 C13.0081667,15.0000833 12.9831667,14.9834167 12.9581667,14.9584167 C12.9331667,14.9334167 12.9165,14.9000833 12.9165,14.86675 L12.9165,14.4584167 C12.9165,14.4250833 12.9081667,14.39175 12.8831667,14.3584167 C12.8581667,14.31675 12.8248333,14.3000833 12.7915,14.2834167 L12.4498333,14.1500833 C12.4165,14.1334167 12.3831667,14.1250833 12.3415,14.1334167 C12.2998333,14.14175 12.2665,14.1584167 12.2415,14.1750833 L11.9498333,14.46675 C11.9248333,14.49175 11.8915,14.5084167 11.8581667,14.5084167 C11.8165,14.5084167 11.7915,14.49175 11.7665,14.46675 L11.3581667,14.06675 C11.3415,14.04175 11.3248333,14.0084167 11.3248333,13.9750833 C11.3248333,13.9334167 11.3415,13.9084167 11.3581667,13.8750833 L11.6498333,13.59175 C11.6748333,13.56675 11.6915,13.5334167 11.6998333,13.49175 C11.6998333,13.4500833 11.6998333,13.41675 11.6831667,13.3834167 L11.5665,13.09175 L11.5415,13.04175 C11.5331667,13.0084167 11.5081667,12.9750833 11.4748333,12.9500833 C11.4415,12.9250833 11.4081667,12.91675 11.3748333,12.91675 L10.9665,12.91675 C10.9248333,12.91675 10.8915,12.9000833 10.8665,12.8750833 C10.8415,12.8500833 10.8331667,12.8250833 10.8331667,12.7834167 L10.8331667,12.21675 C10.8331667,12.1750833 10.8415,12.1500833 10.8665,12.1250833 C10.8915,12.1000833 10.9248333,12.0834167 10.9665,12.0834167 L11.3748333,12.0834167 C11.4081667,12.0834167 11.4415,12.0750833 11.4748333,12.0500833 C11.5081667,12.0250833 11.5331667,11.99175 11.5415,11.9584167 L11.6831667,11.61675 C11.6998333,11.5834167 11.6998333,11.5500833 11.6998333,11.5084167 C11.6915,11.46675 11.6748333,11.4334167 11.6498333,11.4084167 L11.3581667,11.1250833 C11.3415,11.09175 11.3248333,11.06675 11.3248333,11.0250833 C11.3248333,10.99175 11.3415,10.9584167 11.3581667,10.9334167 L11.7665,10.5250833 C11.7915,10.5084167 11.8248333,10.49175 11.8581667,10.49175 C11.8998333,10.49175 11.9248333,10.5084167 11.9498333,10.5250833 L12.2415,10.81675 C12.2665,10.84175 12.2998333,10.8584167 12.3415,10.86675 C12.3831667,10.8750833 12.4165,10.86675 12.4498333,10.8500833 L12.7915,10.71675 C12.8248333,10.7000833 12.8581667,10.6834167 12.8831667,10.6500833 C12.8998333,10.61675 12.9165,10.5834167 12.9165,10.54175 L12.9165,10.1334167 C12.9165,10.09175 12.9248333,10.0584167 12.9498333,10.0334167 C12.9831667,10.0084167 13.0081667,10.0000833 13.0498333,10.0000833 Z M7.9165,16.2500833 L18.7498333,16.2500833 L18.7498333,8.75008333 L7.9165,8.75008333 L7.9165,16.2500833 Z M19.9998333,8.28341667 L19.9998333,16.71675 C19.9998333,17.1500833 19.6498333,17.5000833 19.2165,17.5000833 L7.44983333,17.5000833 C7.0165,17.5000833 6.6665,17.1500833 6.6665,16.71675 L6.6665,8.28341667 C6.6665,7.85008333 7.0165,7.50008333 7.44983333,7.50008333 L19.2165,7.50008333 C19.6498333,7.50008333 19.9998333,7.85008333 19.9998333,8.28341667 Z M15.2331667,18.79175 C15.0915,18.5084167 14.7998333,18.3334167 14.4831667,18.3334167 L12.4331667,18.3334167 L12.1831667,18.3334167 C11.8665,18.3334167 11.5748333,18.5084167 11.4331667,18.79175 L10.8331667,20.0000833 L15.8331667,20.0000833 L15.2331667,18.79175 Z M1.28316667,6.95841667 C1.3415,7.00841667 1.40816667,7.05008333 1.47483333,7.08341667 C1.68316667,7.22508333 1.9165,7.35008333 2.1665,7.45841667 C2.54983333,7.63341667 2.97483333,7.79175 3.43316667,7.91675 C3.92483333,8.05008333 4.44983333,8.15841667 4.99983333,8.22508333 C5.03316667,6.90008333 6.1165,5.83341667 7.44983333,5.83341667 L13.1248333,5.83341667 C13.2581667,5.56675 13.3331667,5.28341667 13.3331667,5.00008333 L13.3331667,3.33341667 C13.3331667,3.22508333 13.3248333,3.10841667 13.2998333,3.00008333 C13.0081667,1.54175 10.8415,0.358416667 8.00816667,0.06675 C7.8165,0.0500833333 7.60816667,0.0334166667 7.40816667,0.0250833333 C7.1665,0.00841666667 6.9165,8.33333333e-05 6.6665,8.33333333e-05 C6.4165,8.33333333e-05 6.1665,0.00841666667 5.92483333,0.0250833333 C5.72483333,0.0334166667 5.5165,0.0500833333 5.32483333,0.06675 C2.4915,0.358416667 0.324833333,1.54175 0.0331666667,3.00008333 C0.00816666667,3.10841667 -0.000166666667,3.22508333 -0.000166666667,3.33341667 L-0.000166666667,5.00008333 C-0.000166666667,5.73341667 0.474833333,6.40841667 1.28316667,6.95841667 Z M4.99983333,16.71675 L4.99983333,15.7334167 C3.87483333,15.61675 2.8415,15.3584167 1.9415,15.0000833 C1.7165,14.91675 1.4915,14.81675 1.28316667,14.7084167 C0.999833333,14.5750833 0.733166667,14.41675 0.483166667,14.2500833 C0.399833333,14.2000833 0.324833333,14.1500833 0.249833333,14.09175 C0.149833333,14.2834167 0.0748333333,14.4750833 0.0331666667,14.66675 C0.00816666667,14.7750833 -0.000166666667,14.89175 -0.000166666667,15.0000833 L-0.000166666667,16.66675 C-0.000166666667,18.5084167 2.98316667,20.0000833 6.6665,20.0000833 C7.5165,20.0000833 8.33316667,19.91675 9.08316667,19.76675 L9.3415,19.2584167 L9.38316667,19.16675 L7.44983333,19.16675 C6.09983333,19.16675 4.99983333,18.06675 4.99983333,16.71675 Z M-0.000166666667,10.8334167 L-0.000166666667,9.16675 C-0.000166666667,9.05841667 0.00816666667,8.94175 0.0331666667,8.83341667 C0.0748333333,8.64175 0.149833333,8.45008333 0.249833333,8.25841667 C0.324833333,8.31675 0.399833333,8.36675 0.483166667,8.41675 C0.733166667,8.58341667 0.999833333,8.74175 1.28316667,8.87508333 C1.4915,8.98341667 1.7165,9.08341667 1.9415,9.16675 C2.8415,9.52508333 3.87483333,9.78341667 4.99983333,9.90008333 L4.99983333,14.0584167 C4.44983333,13.99175 3.92483333,13.8834167 3.43316667,13.7500833 C2.97483333,13.6250833 2.54983333,13.46675 2.1665,13.29175 C1.9165,13.1834167 1.68316667,13.0584167 1.47483333,12.91675 C1.40816667,12.8834167 1.3415,12.84175 1.28316667,12.79175 C0.474833333,12.24175 -0.000166666667,11.56675 -0.000166666667,10.8334167 Z" id="Fill-1" fill="#333333" mask="url(#mask-2)"></path>
        </g>
        <g id="icons-/-Error_Mark" transform="translate(0.000000, 12.000000)" opacity="0">
            <circle id="Oval" fill="#FFFFFF" fill-rule="nonzero" cx="4" cy="4" r="4"></circle>
            <path d="M4.00666043,0.66666822 C4.60923891,0.667230482 5.16978374,0.820408594 5.68831169,1.12620713 C6.1900347,1.42368891 6.5896311,1.82328531 6.88711289,2.32500833 C7.19347473,2.84449144 7.34665335,3.4050364 7.34665335,4.00666001 C7.34665335,4.60828362 7.19347473,5.16882857 6.88711289,5.68831169 C6.5896311,6.1900347 6.1900347,6.5896311 5.68831169,6.88711289 C5.16882857,7.19347473 4.60828362,7.34665335 4.00666001,7.34665335 C3.4050364,7.34665335 2.84449144,7.19347473 2.32500833,6.88711289 C1.82328531,6.5896311 1.42368891,6.1900347 1.12620713,5.68831169 C0.819845288,5.16882857 0.666666667,4.60828362 0.666666667,4.00666001 C0.666666667,3.4050364 0.819845288,2.84449144 1.12620713,2.32500833 C1.42368891,1.82328531 1.82328531,1.42368891 2.32500833,1.12620713 C2.84353627,0.820408594 3.4040811,0.667230482 4.00665958,0.66666822 L4.00666043,0.66666822 Z M4.00666043,0.66666822 C4.00555043,0.666667185 4.00444029,0.666666667 4.00333,0.666666667 L4.00999001,0.666666667 C4.00887973,0.666666667 4.00776958,0.666667185 4.00665958,0.66666822 L4.00666043,0.66666822 Z M4.34299034,5.67499167 L4.34299034,5.00899101 L3.67032967,5.00899101 L3.67032967,5.67499167 L4.34299034,5.67499167 Z M4.34299034,4.34299034 L4.34299034,2.33832834 L3.67032967,2.33832834 L3.67032967,4.34299034 L4.34299034,4.34299034 Z" id="" fill="#F83200"></path>
        </g>
    </g>
</svg>