<?xml version="1.0" encoding="UTF-8"?>
<svg width="20px" height="20px" viewBox="0 0 20 20" version="1.1" xmlns="http://www.w3.org/2000/svg" xmlns:xlink="http://www.w3.org/1999/xlink">
    <!-- Generator: Sketch 51.3 (57544) - http://www.bohemiancoding.com/sketch -->
    <title>icons / classes/ BMC_IPEndpoint_32_Error</title>
    <desc>Created with Sketch.</desc>
    <defs></defs>
    <g id="icons-/-classes/-BMC_IPEndpoint_32" stroke="none" stroke-width="1" fill="none" fill-rule="evenodd">
        <g id="icons-/-classes/-IP-Endpoint">
            <g id="icons-/-20x20-icon-field" fill="#F5A623" fill-rule="nonzero" opacity="0">
                <rect x="0" y="0" width="20" height="20"></rect>
            </g>
            <g id="ethernet" transform="translate(1.000000, 1.000000)" fill="#333333" fill-rule="nonzero">
                <path d="M0,0 L0,18 L18,18 L18,0 L0,0 Z M15.7995918,12.2289796 L12.5853061,12.2289796 L12.5853061,14.0987755 L11.3693878,14.0987755 L11.3693878,15.9685714 L6.62693878,15.9685714 L6.62693878,14.1097959 L5.41102041,14.1097959 L5.41102041,12.2253061 L2.20040816,12.2253061 L2.20040816,2.01306122 L3.91591837,2.01306122 L3.91591837,4.45591837 L5.33020408,4.45591837 L5.33020408,2.01306122 L6.82897959,2.01306122 L6.82897959,4.45591837 L8.24326531,4.45591837 L8.24326531,2.01306122 L9.74204082,2.01306122 L9.74204082,4.45591837 L11.1563265,4.45591837 L11.1563265,2.01306122 L12.655102,2.01306122 L12.655102,4.45591837 L14.0693878,4.45591837 L14.0693878,2.01306122 L15.784898,2.01306122 L15.784898,12.2289796 L15.7995918,12.2289796 Z" id="Shape"></path>
            </g>
            <path d="M6.71875,12 L6.71875,6.2890625 L7.9296875,6.2890625 L7.9296875,12 L6.71875,12 Z M10.578125,8.9765625 L10.9765625,8.9765625 C11.3489602,8.9765625 11.6276032,8.90299553 11.8125,8.75585938 C11.9973968,8.60872322 12.0898438,8.39453266 12.0898438,8.11328125 C12.0898438,7.82942566 12.0123706,7.61979234 11.8574219,7.484375 C11.7024732,7.34895766 11.4596371,7.28125 11.1289062,7.28125 L10.578125,7.28125 L10.578125,8.9765625 Z M13.3125,8.0703125 C13.3125,8.68489891 13.1204446,9.15494629 12.7363281,9.48046875 C12.3522116,9.80599121 11.8059931,9.96875 11.0976562,9.96875 L10.578125,9.96875 L10.578125,12 L9.3671875,12 L9.3671875,6.2890625 L11.1914062,6.2890625 C11.884118,6.2890625 12.4108055,6.43814955 12.7714844,6.73632812 C13.1321633,7.0345067 13.3125,7.47916371 13.3125,8.0703125 Z" id="IP" fill="#2B2826"></path>
        </g>
        <g id="icons-/-Error_Mark" transform="translate(0.000000, 12.000000)">
            <circle id="Oval" fill="#FFFFFF" fill-rule="nonzero" cx="4" cy="4" r="4"></circle>
            <path d="M4.00666043,0.66666822 C4.60923891,0.667230482 5.16978374,0.820408594 5.68831169,1.12620713 C6.1900347,1.42368891 6.5896311,1.82328531 6.88711289,2.32500833 C7.19347473,2.84449144 7.34665335,3.4050364 7.34665335,4.00666001 C7.34665335,4.60828362 7.19347473,5.16882857 6.88711289,5.68831169 C6.5896311,6.1900347 6.1900347,6.5896311 5.68831169,6.88711289 C5.16882857,7.19347473 4.60828362,7.34665335 4.00666001,7.34665335 C3.4050364,7.34665335 2.84449144,7.19347473 2.32500833,6.88711289 C1.82328531,6.5896311 1.42368891,6.1900347 1.12620713,5.68831169 C0.819845288,5.16882857 0.666666667,4.60828362 0.666666667,4.00666001 C0.666666667,3.4050364 0.819845288,2.84449144 1.12620713,2.32500833 C1.42368891,1.82328531 1.82328531,1.42368891 2.32500833,1.12620713 C2.84353627,0.820408594 3.4040811,0.667230482 4.00665958,0.66666822 L4.00666043,0.66666822 Z M4.00666043,0.66666822 C4.00555043,0.666667185 4.00444029,0.666666667 4.00333,0.666666667 L4.00999001,0.666666667 C4.00887973,0.666666667 4.00776958,0.666667185 4.00665958,0.66666822 L4.00666043,0.66666822 Z M4.34299034,5.67499167 L4.34299034,5.00899101 L3.67032967,5.00899101 L3.67032967,5.67499167 L4.34299034,5.67499167 Z M4.34299034,4.34299034 L4.34299034,2.33832834 L3.67032967,2.33832834 L3.67032967,4.34299034 L4.34299034,4.34299034 Z" id="" fill="#F83200"></path>
        </g>
    </g>
</svg>