<?xml version="1.0" encoding="UTF-8"?>
<svg width="20px" height="20px" viewBox="0 0 20 20" version="1.1" xmlns="http://www.w3.org/2000/svg" xmlns:xlink="http://www.w3.org/1999/xlink">
    <!-- Generator: Sketch 51.3 (57544) - http://www.bohemiancoding.com/sketch -->
    <title>icons / classes/ BMC_LANEndpoint_32_Error</title>
    <desc>Created with Sketch.</desc>
    <defs></defs>
    <g id="icons-/-classes/-BMC_LANEndpoint_32" stroke="none" stroke-width="1" fill="none" fill-rule="evenodd">
        <g id="icons-/-classes/-LAN-Endpoint" fill-rule="nonzero">
            <g id="icons-/-20x20-icon-field" fill="#F5A623" opacity="0">
                <rect x="0" y="0" width="20" height="20"></rect>
            </g>
            <g id="ethernet" transform="translate(1.000000, 1.000000)" fill="#333333">
                <path d="M4.25774226,10.6833167 L6.36163836,10.6833167 L6.36163836,11.1868132 L3.68231768,11.1868132 L3.68231768,6.88911089 L4.25774226,6.88911089 L4.25774226,10.6833167 Z M8.23176823,6.90709291 L8.84315684,6.90709291 L10.5874126,11.2047952 L9.95804196,11.2047952 L9.45454545,9.89210789 L7.65634366,9.89210789 L7.17082917,11.2047952 L6.57742258,11.2047952 L8.23176823,6.90709291 Z M7.82476678,9.42457542 L9.29270729,9.42457542 L8.64535465,7.75224775 C8.58541429,7.59640282 8.54945061,7.464536 8.53746254,7.35664336 L8.42957043,7.75224775 C8.38161814,7.90809269 8.33366657,8.04595345 8.28571429,8.16583417 L7.82476678,9.42457542 Z M11.0549451,6.90709291 L11.6303696,6.90709291 L13.8961039,10.2877123 L13.8961039,6.90709291 L14.4355644,6.90709291 L14.4355644,11.2047952 L13.8601399,11.2047952 L11.5944056,7.82417582 L11.5944056,11.2047952 L11.0549451,11.2047952 L11.0549451,6.90709291 Z M0,0 L0,18 L18,18 L18,0 L0,0 Z M15.7995918,12.2289796 L12.5853061,12.2289796 L12.5853061,14.0987755 L11.3693878,14.0987755 L11.3693878,15.9685714 L6.62693878,15.9685714 L6.62693878,14.1097959 L5.41102041,14.1097959 L5.41102041,12.2253061 L2.20040816,12.2253061 L2.20040816,2.01306122 L3.91591837,2.01306122 L3.91591837,4.45591837 L5.33020408,4.45591837 L5.33020408,2.01306122 L6.82897959,2.01306122 L6.82897959,4.45591837 L8.24326531,4.45591837 L8.24326531,2.01306122 L9.74204082,2.01306122 L9.74204082,4.45591837 L11.1563265,4.45591837 L11.1563265,2.01306122 L12.655102,2.01306122 L12.655102,4.45591837 L14.0693878,4.45591837 L14.0693878,2.01306122 L15.784898,2.01306122 L15.784898,12.2289796 L15.7995918,12.2289796 Z" id="Shape"></path>
            </g>
        </g>
        <g id="icons-/-Error_Mark" transform="translate(0.000000, 12.000000)">
            <circle id="Oval" fill="#FFFFFF" fill-rule="nonzero" cx="4" cy="4" r="4"></circle>
            <path d="M4.00666043,0.66666822 C4.60923891,0.667230482 5.16978374,0.820408594 5.68831169,1.12620713 C6.1900347,1.42368891 6.5896311,1.82328531 6.88711289,2.32500833 C7.19347473,2.84449144 7.34665335,3.4050364 7.34665335,4.00666001 C7.34665335,4.60828362 7.19347473,5.16882857 6.88711289,5.68831169 C6.5896311,6.1900347 6.1900347,6.5896311 5.68831169,6.88711289 C5.16882857,7.19347473 4.60828362,7.34665335 4.00666001,7.34665335 C3.4050364,7.34665335 2.84449144,7.19347473 2.32500833,6.88711289 C1.82328531,6.5896311 1.42368891,6.1900347 1.12620713,5.68831169 C0.819845288,5.16882857 0.666666667,4.60828362 0.666666667,4.00666001 C0.666666667,3.4050364 0.819845288,2.84449144 1.12620713,2.32500833 C1.42368891,1.82328531 1.82328531,1.42368891 2.32500833,1.12620713 C2.84353627,0.820408594 3.4040811,0.667230482 4.00665958,0.66666822 L4.00666043,0.66666822 Z M4.00666043,0.66666822 C4.00555043,0.666667185 4.00444029,0.666666667 4.00333,0.666666667 L4.00999001,0.666666667 C4.00887973,0.666666667 4.00776958,0.666667185 4.00665958,0.66666822 L4.00666043,0.66666822 Z M4.34299034,5.67499167 L4.34299034,5.00899101 L3.67032967,5.00899101 L3.67032967,5.67499167 L4.34299034,5.67499167 Z M4.34299034,4.34299034 L4.34299034,2.33832834 L3.67032967,2.33832834 L3.67032967,4.34299034 L4.34299034,4.34299034 Z" id="" fill="#F83200"></path>
        </g>
    </g>
</svg>