<?xml version="1.0" encoding="UTF-8"?>
<svg width="20px" height="20px" viewBox="0 0 20 20" version="1.1" xmlns="http://www.w3.org/2000/svg" xmlns:xlink="http://www.w3.org/1999/xlink">
    <!-- Generator: Sketch 51.3 (57544) - http://www.bohemiancoding.com/sketch -->
    <title>icons / classes/ BMC_Organization_32_Error</title>
    <desc>Created with Sketch.</desc>
    <defs>
        <polygon id="path-1" points="0 0 8.33333333 0 8.33333333 8.33291667 0 8.33291667"></polygon>
        <polygon id="path-3" points="0 0.17375 5.83308333 0.17375 5.83308333 6.49291667 0 6.49291667"></polygon>
    </defs>
    <g id="icons-/-classes/-BMC_Organization_32" stroke="none" stroke-width="1" fill="none" fill-rule="evenodd">
        <g id="icons-/-classes/-Organization">
            <g id="icons-/-20x20-icon-field" fill="#F5A623" fill-rule="nonzero" opacity="0">
                <rect x="0" y="0" width="20" height="20"></rect>
            </g>
            <g id="Group-13">
                <g id="Group-3" transform="translate(5.833333, 0.000000)">
                    <mask id="mask-2" fill="white">
                        <use xlink:href="#path-1"></use>
                    </mask>
                    <g id="Clip-2"></g>
                    <path d="M8.33333333,6.59708333 L8.33333333,8.33291667 L0,8.33291667 L0,6.59708333 C0,5.78875 1.32916667,5.11125 3.125,4.91791667 L3.125,4.53291667 C2.5025,4.11291667 2.08333333,3.32958333 2.08333333,2.43041667 C2.08333333,1.08791667 3.01583333,-0.000416666667 4.16666667,-0.000416666667 C5.3175,-0.000416666667 6.25,1.08791667 6.25,2.43041667 C6.25,3.32958333 5.83083333,4.11291667 5.20833333,4.53291667 L5.20833333,4.91791667 C7.00416667,5.11125 8.33333333,5.78875 8.33333333,6.59708333" id="Fill-1" fill="#333333" mask="url(#mask-2)"></path>
                </g>
                <path d="M20,18.26375 L20,19.9995833 L11.6666667,19.9995833 L11.6666667,18.26375 C11.6666667,17.4554167 12.9958333,16.7779167 14.7916667,16.5845833 L14.7916667,16.1995833 C14.1691667,15.7795833 13.75,14.99625 13.75,14.0970833 C13.75,12.7545833 14.6825,11.66625 15.8333333,11.66625 C16.9841667,11.66625 17.9166667,12.7545833 17.9166667,14.0970833 C17.9166667,14.99625 17.4975,15.7795833 16.875,16.1995833 L16.875,16.5845833 C18.6708333,16.7779167 20,17.4554167 20,18.26375" id="Fill-4" fill="#333333"></path>
                <path d="M8.33333333,18.26375 L8.33333333,19.9995833 L0,19.9995833 L0,18.26375 C0,17.4554167 1.32916667,16.7779167 3.125,16.5845833 L3.125,16.1995833 C2.5025,15.7795833 2.08333333,14.99625 2.08333333,14.0970833 C2.08333333,12.7545833 3.01583333,11.66625 4.16666667,11.66625 C5.3175,11.66625 6.25,12.7545833 6.25,14.0970833 C6.25,14.99625 5.83083333,15.7795833 5.20833333,16.1995833 L5.20833333,16.5845833 C7.00416667,16.7779167 8.33333333,17.4554167 8.33333333,18.26375" id="Fill-6" fill="#333333"></path>
                <g id="Group-10" transform="translate(0.000000, 3.333333)">
                    <mask id="mask-4" fill="white">
                        <use xlink:href="#path-3"></use>
                    </mask>
                    <g id="Clip-9"></g>
                    <path d="M2.96058333,3.57625 L4.86141667,3.57625 L2.43058333,6.49291667 L-0.00025,3.57625 L1.97808333,3.57625 C2.21725,1.65875 3.85058333,0.17375 5.83308333,0.17375 L5.83308333,1.14541667 C4.39058333,1.14541667 3.19308333,2.19958333 2.96058333,3.57625" id="Fill-8" fill="#333333" mask="url(#mask-4)"></path>
                </g>
                <path d="M14.1666667,4.47916667 L14.1666667,3.50666667 C16.1491667,3.50666667 17.7825,4.99166667 18.0216667,6.91 L20,6.91 L17.5691667,9.82666667 L15.1391667,6.91 L17.0391667,6.91 C16.8066667,5.5325 15.6091667,4.47916667 14.1666667,4.47916667" id="Fill-11" fill="#333333"></path>
            </g>
        </g>
        <g id="icons-/-Error_Mark" transform="translate(0.000000, 12.000000)">
            <circle id="Oval" fill="#FFFFFF" fill-rule="nonzero" cx="4" cy="4" r="4"></circle>
            <path d="M4.00666043,0.66666822 C4.60923891,0.667230482 5.16978374,0.820408594 5.68831169,1.12620713 C6.1900347,1.42368891 6.5896311,1.82328531 6.88711289,2.32500833 C7.19347473,2.84449144 7.34665335,3.4050364 7.34665335,4.00666001 C7.34665335,4.60828362 7.19347473,5.16882857 6.88711289,5.68831169 C6.5896311,6.1900347 6.1900347,6.5896311 5.68831169,6.88711289 C5.16882857,7.19347473 4.60828362,7.34665335 4.00666001,7.34665335 C3.4050364,7.34665335 2.84449144,7.19347473 2.32500833,6.88711289 C1.82328531,6.5896311 1.42368891,6.1900347 1.12620713,5.68831169 C0.819845288,5.16882857 0.666666667,4.60828362 0.666666667,4.00666001 C0.666666667,3.4050364 0.819845288,2.84449144 1.12620713,2.32500833 C1.42368891,1.82328531 1.82328531,1.42368891 2.32500833,1.12620713 C2.84353627,0.820408594 3.4040811,0.667230482 4.00665958,0.66666822 L4.00666043,0.66666822 Z M4.00666043,0.66666822 C4.00555043,0.666667185 4.00444029,0.666666667 4.00333,0.666666667 L4.00999001,0.666666667 C4.00887973,0.666666667 4.00776958,0.666667185 4.00665958,0.66666822 L4.00666043,0.66666822 Z M4.34299034,5.67499167 L4.34299034,5.00899101 L3.67032967,5.00899101 L3.67032967,5.67499167 L4.34299034,5.67499167 Z M4.34299034,4.34299034 L4.34299034,2.33832834 L3.67032967,2.33832834 L3.67032967,4.34299034 L4.34299034,4.34299034 Z" id="" fill="#F83200"></path>
        </g>
    </g>
</svg>