<?xml version="1.0" encoding="UTF-8"?>
<svg width="20px" height="20px" viewBox="0 0 20 20" version="1.1" xmlns="http://www.w3.org/2000/svg" xmlns:xlink="http://www.w3.org/1999/xlink">
    <!-- Generator: Sketch 51.3 (57544) - http://www.bohemiancoding.com/sketch -->
    <title>icons / classes/ BMC_AdministrationApplication_SIM_SERVER_1_32</title>
    <desc>Created with Sketch.</desc>
    <defs></defs>
    <g id="icons-/-classes/-BMC_AdministrationApplication_SIM_SERVER_1_32" stroke="none" stroke-width="1" fill="none" fill-rule="evenodd">
        <g>
            <g id="icons-/-20x20-icon-field" transform="translate(0.019980, 0.002997)" fill="#F5A623" fill-rule="nonzero" opacity="0">
                <rect x="0" y="0" width="20" height="20"></rect>
            </g>
            <path d="M15.01998,20.002997 C12.2585563,20.002997 10.01998,17.7644208 10.01998,15.002997 C10.01998,12.2415733 12.2585563,10.002997 15.01998,10.002997 C17.7814038,10.002997 20.01998,12.2415733 20.01998,15.002997 C20.01998,17.7644208 17.7814038,20.002997 15.01998,20.002997 Z M15.8520113,18.002997 L15.8520113,12.2920595 L14.8598238,12.2920595 L13.01998,13.7569033 L13.6020113,14.4834658 L14.2582613,13.956122 C14.3363867,13.8936217 14.4757082,13.7621126 14.67623,13.5615908 L14.6566988,14.1553408 L14.64498,14.6983095 L14.64498,18.002997 L15.8520113,18.002997 Z" id="Combined-Shape" fill="#2B2826"></path>
            <path d="M19.8601399,1.23876124 C19.9134202,1.37196204 19.9533798,1.4985009 19.98002,1.61838162 C20.0066601,1.73826234 20.01998,1.85814126 20.01998,1.97802198 L20.01998,11.1888112 C19.7802186,10.7758887 19.4938412,10.3829522 19.1608392,10.00999 C18.8278372,9.63702777 18.4548805,9.31069071 18.041958,9.03096903 L18.041958,4.7952048 L1.998002,4.7952048 L1.998002,13.986014 L7.93206793,13.986014 L7.93206793,14.3856144 C7.93206793,14.6786561 7.94538781,14.9517137 7.97202797,15.2047952 C8.02530829,15.511157 8.07858781,15.7775546 8.13186813,16.003996 L1.998002,16.003996 C1.87812128,16.003996 1.75158242,15.9906761 1.61838162,15.964036 C1.51182098,15.9373958 1.39194206,15.8974362 1.25874126,15.8441558 C1.15218062,15.7908755 1.04562158,15.7309361 0.939060939,15.6643357 C0.8325003,15.5977353 0.725941259,15.517816 0.619380619,15.4245754 C0.51281998,15.3313349 0.419580819,15.2281058 0.33966034,15.1148851 C0.25973986,15.0016644 0.19647043,14.8817855 0.14985015,14.7552448 C0.10322987,14.628704 0.0666001998,14.5054951 0.03996004,14.3856144 C0.0133198801,14.2657337 0,14.1325349 0,13.986014 L0,1.97802198 C0,1.87146134 0.0166498501,1.74825245 0.04995005,1.60839161 C0.0832502498,1.46853077 0.11987992,1.34199191 0.15984016,1.22877123 C0.1998004,1.11555055 0.26306983,0.999001598 0.34965035,0.879120879 C0.436230869,0.75924016 0.52281009,0.659341059 0.609390609,0.579420579 C0.695971129,0.4995001 0.79587023,0.416250849 0.909090909,0.32967033 C1.02231159,0.24308981 1.14219051,0.17316044 1.26873127,0.11988012 C1.39527203,0.0665998002 1.51182098,0.0333000999 1.61838162,0.01998002 C1.77822258,0.00665994006 1.90476144,0 1.998002,0 L18.041958,0 C18.1884789,0 18.3250077,0.00998991009 18.4515485,0.02997003 C18.5780892,0.0499501499 18.6913082,0.0832498501 18.7912088,0.12987013 C18.8911094,0.17649041 19.0009984,0.23975984 19.1208791,0.31968032 C19.2141197,0.386280719 19.3206787,0.47951988 19.4405594,0.599400599 C19.5338,0.692641159 19.6203792,0.7992002 19.7002997,0.919080919 C19.7802202,1.03896164 19.8334997,1.14552068 19.8601399,1.23876124 Z M3.31668332,2.91708292 C3.35664356,2.83716244 3.37662338,2.7306034 3.37662338,2.5974026 L3.35664336,2.43756244 C3.35664336,2.38428212 3.34332348,2.33766254 3.31668332,2.2977023 L3.15684316,2.03796204 L3.03696304,1.95804196 C2.98368272,1.9314018 2.94039311,1.91142198 2.90709291,1.8981019 C2.87379271,1.88478182 2.82384316,1.87812188 2.75724276,1.87812188 L2.61738262,1.85814186 L2.45754246,1.87812188 C2.41758222,1.87812188 2.37096264,1.89144176 2.31768232,1.91808192 C2.264402,1.94472208 2.22111239,1.96803187 2.18781219,1.98801199 C2.15451199,2.00799211 2.11122238,2.04462178 2.05794206,2.0979021 C2.0313019,2.11122218 1.9980022,2.14452188 1.95804196,2.1978022 C1.94472188,2.22444236 1.92474206,2.25774206 1.8981019,2.2977023 L1.85814186,2.43756244 C1.84482178,2.4642026 1.83816184,2.51748212 1.83816184,2.5974026 L1.85814186,2.73726274 L1.87812188,2.83716284 L1.95804196,3.01698302 C1.98468212,3.07026334 2.01798182,3.11355295 2.05794206,3.14685315 C2.0979023,3.18015335 2.13786194,3.20346314 2.17782218,3.21678322 L2.31768232,3.2967033 L2.45754246,3.33666334 C2.4975027,3.34998342 2.55078222,3.35664336 2.61738262,3.35664336 C2.73726334,3.35664336 2.84715235,3.33999351 2.94705295,3.30669331 C3.04695355,3.27339311 3.12354286,3.22677353 3.17682318,3.16683317 C3.2301035,3.10689281 3.27672308,3.02364356 3.31668332,2.91708292 Z M5.19480519,3.15684316 C5.24808551,3.09024276 5.28804515,3.01365345 5.31468531,2.92707293 C5.34132547,2.84049241 5.35464535,2.7306034 5.35464535,2.5974026 L5.35464535,2.43756244 C5.34132527,2.38428212 5.32800539,2.34099251 5.31468531,2.30769231 C5.30136523,2.27439211 5.28138541,2.2311025 5.25474525,2.17782218 L5.15484515,2.03796204 C5.128205,2.01132188 5.09157532,1.98468212 5.04495504,1.95804196 C4.99833477,1.9314018 4.95504515,1.91808192 4.91508492,1.91808192 L4.7952048,1.87812188 L4.61538462,1.85814186 L4.45554446,1.87812188 C4.41558422,1.87812188 4.37562458,1.89144176 4.33566434,1.91808192 L4.31568432,1.91808192 C4.262404,1.94472208 4.22244436,1.97136184 4.1958042,1.998002 L4.07592408,2.0979021 C4.03596384,2.12454226 4.00266414,2.15784196 3.97602398,2.1978022 L3.95604396,2.21778222 C3.9294038,2.25774246 3.91608392,2.29104216 3.91608392,2.31768232 C3.88944376,2.35764256 3.87612388,2.40426214 3.87612388,2.45754246 L3.85614386,2.61738262 L3.87612388,2.75724276 C3.87612388,2.81052308 3.88944376,2.85048272 3.91608392,2.87712288 L3.97602398,3.01698302 C4.00266414,3.05694326 4.03263387,3.09357293 4.06593407,3.12687313 C4.09923427,3.16017333 4.14252388,3.19014306 4.1958042,3.21678322 L4.33566434,3.2967033 L4.45554446,3.33666334 C4.48218462,3.34998342 4.53546414,3.35664336 4.61538462,3.35664336 C4.74858541,3.35664336 4.8618044,3.33999351 4.95504496,3.30669331 C5.04828551,3.27339311 5.1282048,3.22344356 5.19480519,3.15684316 Z M18.021978,1.97802198 L6.01398601,1.97802198 L6.01398601,3.17682318 L18.021978,3.17682318 L18.021978,1.97802198 Z M13.7082917,7.63936064 C13.921413,8.13486761 14.027972,8.65700691 14.027972,9.20579421 C14.027972,9.7545815 13.921413,10.2713928 13.7082917,10.7562438 C13.4951704,11.2410947 13.207461,11.6646669 12.8451548,12.026973 C12.4828487,12.3892792 12.0592765,12.6756566 11.5744256,12.8861139 C11.0895747,13.0965711 10.5714313,13.2017982 10.01998,13.2017982 C9.46852871,13.2017982 8.95038537,13.0965711 8.46553447,12.8861139 C7.98068356,12.6756566 7.55711137,12.3892792 7.19480519,12.026973 C6.83249902,11.6646669 6.5461216,11.2410947 6.33566434,10.7562438 C6.12520707,10.2713928 6.01998002,9.7545815 6.01998002,9.20579421 C6.01998002,8.65700691 6.12387508,8.13753159 6.33166833,7.64735265 C6.53946158,7.15717371 6.825839,6.72960555 7.19080919,6.36463536 C7.55577938,5.99966517 7.97935157,5.71328775 8.46153846,5.50549451 C8.94372535,5.29770126 9.46320068,5.19380619 10.01998,5.19380619 C10.5767594,5.19380619 11.0962347,5.29770126 11.5784216,5.50549451 C12.0606085,5.71328775 12.4841807,5.99966517 12.8491508,6.36463536 C13.214121,6.72960555 13.5004985,7.15450973 13.7082917,7.63936064 Z M11.3586414,11.5394605 L12.6853147,9.1978022 L11.3506494,6.86413586 L8.68931069,6.87212787 L7.35464535,9.1978022 L8.68131868,11.5394605 L11.3586414,11.5394605 Z M9.36063936,8.00699301 L10.6873127,8.00699301 L11.3586414,9.18181818 L10.6873127,10.3486513 L9.36063936,10.3486513 L8.68931069,9.18181818 L9.36063936,8.00699301 Z" id="" fill="#2B2826"></path>
            <g id="icons-/-Error_Mark" transform="translate(0.019980, 12.002997)" opacity="0">
                <circle id="Oval" fill="#FFFFFF" fill-rule="nonzero" cx="4" cy="4" r="4"></circle>
                <path d="M4.00666043,0.66666822 C4.60923891,0.667230482 5.16978374,0.820408594 5.68831169,1.12620713 C6.1900347,1.42368891 6.5896311,1.82328531 6.88711289,2.32500833 C7.19347473,2.84449144 7.34665335,3.4050364 7.34665335,4.00666001 C7.34665335,4.60828362 7.19347473,5.16882857 6.88711289,5.68831169 C6.5896311,6.1900347 6.1900347,6.5896311 5.68831169,6.88711289 C5.16882857,7.19347473 4.60828362,7.34665335 4.00666001,7.34665335 C3.4050364,7.34665335 2.84449144,7.19347473 2.32500833,6.88711289 C1.82328531,6.5896311 1.42368891,6.1900347 1.12620713,5.68831169 C0.819845288,5.16882857 0.666666667,4.60828362 0.666666667,4.00666001 C0.666666667,3.4050364 0.819845288,2.84449144 1.12620713,2.32500833 C1.42368891,1.82328531 1.82328531,1.42368891 2.32500833,1.12620713 C2.84353627,0.820408594 3.4040811,0.667230482 4.00665958,0.66666822 L4.00666043,0.66666822 Z M4.00666043,0.66666822 C4.00555043,0.666667185 4.00444029,0.666666667 4.00333,0.666666667 L4.00999001,0.666666667 C4.00887973,0.666666667 4.00776958,0.666667185 4.00665958,0.66666822 L4.00666043,0.66666822 Z M4.34299034,5.67499167 L4.34299034,5.00899101 L3.67032967,5.00899101 L3.67032967,5.67499167 L4.34299034,5.67499167 Z M4.34299034,4.34299034 L4.34299034,2.33832834 L3.67032967,2.33832834 L3.67032967,4.34299034 L4.34299034,4.34299034 Z" id="" fill="#F83200"></path>
            </g>
        </g>
    </g>
</svg>