<?xml version="1.0" encoding="UTF-8"?>
<svg width="20px" height="20px" viewBox="0 0 20 20" version="1.1" xmlns="http://www.w3.org/2000/svg" xmlns:xlink="http://www.w3.org/1999/xlink">
    <!-- Generator: Sketch 51.3 (57544) - http://www.bohemiancoding.com/sketch -->
    <title>icons / classes/ BMC_SANSwitch_32</title>
    <desc>Created with Sketch.</desc>
    <defs></defs>
    <g id="icons-/-classes/-BMC_SANSwitch_32" stroke="none" stroke-width="1" fill="none" fill-rule="evenodd">
        <g>
            <g id="icons-/-20x20-icon-field" fill="#F5A623" fill-rule="nonzero" opacity="0">
                <rect x="0" y="0" width="20" height="20"></rect>
            </g>
            <path d="M19.1408591,5.8225324 L13.1068931,5.8225324 L13.1068931,11.665005 L15.5644356,11.665005 L14.8651349,10.9670987 L16.023976,9.83050847 L17.8621379,11.665005 L20,11.665005 L20,20 L3.33666334,20 L3.33666334,16.7896311 L0.1998002,13.6789631 L4.05594406,9.83050847 L5.23476523,10.9670987 L4.53546454,11.665005 L6.99300699,11.665005 L6.99300699,5.8225324 L0.859140859,5.8225324 C0.619379421,5.8225324 0.416251249,5.73944915 0.24975025,5.57328016 C0.0832492507,5.40711117 0,5.19774138 0,4.94516451 L0,0.877367896 C0,0.624791027 0.0799192807,0.415421236 0.23976024,0.249252243 C0.399601199,0.0830832502 0.606059341,0 0.859140859,0 L19.1408591,0 C19.3806206,0 19.5837488,0.0797599202 19.7502498,0.239282154 C19.9167507,0.398804387 20,0.611497507 20,0.877367896 L20,4.94516451 C20,5.19774138 19.9167507,5.40711117 19.7502498,5.57328016 C19.5837488,5.73944915 19.3806206,5.8225324 19.1408591,5.8225324 Z M4.15584416,12.5024925 L4.15584416,19.1425723 L19.1608392,19.1425723 L19.1608392,12.5024925 L4.15584416,12.5024925 Z M8.29170829,15.7926221 C8.42490909,15.8723833 8.53812807,15.9521432 8.63136863,16.0319043 C8.71128911,16.0983719 8.79120839,16.1814551 8.87112887,16.2811565 C8.95104935,16.3808579 9.00765884,16.4872045 9.04095904,16.6001994 C9.07425924,16.7131943 9.09090909,16.8328342 9.09090909,16.9591226 C9.09090909,17.0854111 9.07092927,17.2083743 9.03096903,17.328016 C8.99100879,17.4476576 8.93772927,17.5606508 8.87112887,17.666999 C8.80452847,17.7733472 8.72127922,17.8697237 8.62137862,17.9561316 C8.52147802,18.0425395 8.39826913,18.1189761 8.25174825,18.1854437 C8.10522737,18.2519113 7.95870869,18.3017612 7.81218781,18.334995 C7.66566693,18.3682288 7.49583846,18.3848455 7.3026973,18.3848455 C7.10955614,18.3848455 6.92307782,18.3682288 6.74325674,18.334995 C6.56343566,18.3017612 6.4035971,18.2552346 6.26373626,18.1954138 C6.12387542,18.1355929 5.99400659,18.055833 5.87412587,17.9561316 C5.75424515,17.8564302 5.64768611,17.7401137 5.55444555,17.6071785 C5.47452507,17.4609498 5.41458561,17.3280166 5.37462537,17.2083749 C5.33466513,17.0621462 5.31468531,16.909273 5.31468531,16.7497507 L5.89410589,16.7098704 C5.92074605,16.8560991 5.94738581,16.9690923 5.97402597,17.0488534 C6.00066613,17.1286146 6.0372958,17.2116978 6.08391608,17.2981057 C6.13053636,17.3845136 6.20046573,17.4543035 6.29370629,17.5074776 L6.33366633,17.5473579 C6.44022697,17.6138255 6.52014625,17.6603521 6.57342657,17.6869392 C6.67998721,17.7268197 6.79986613,17.760053 6.93306693,17.7866401 C7.06626773,17.8132271 7.19613656,17.8265204 7.32267732,17.8265204 C7.44921808,17.8265204 7.55910709,17.8132271 7.65234765,17.7866401 L7.95204795,17.7268195 C8.07192867,17.6736455 8.15184795,17.6271188 8.19180819,17.5872383 L8.21178821,17.5872383 C8.27838861,17.5207707 8.32500819,17.4675974 8.35164835,17.4277168 C8.41824875,17.3479557 8.45820839,17.2814891 8.47152847,17.2283151 L8.47152847,17.2083749 C8.48484855,17.1153202 8.49150849,17.0488536 8.49150849,17.0089731 C8.49150849,16.929212 8.48151858,16.8560987 8.46153846,16.7896311 C8.44155834,16.7231635 8.40825864,16.6633436 8.36163836,16.6101695 C8.31501808,16.5569954 8.25507862,16.5038221 8.18181818,16.4506481 C8.10855774,16.397474 8.02530849,16.357594 7.93206793,16.331007 L7.63236763,16.2313061 C7.55244715,16.204719 7.39926853,16.1648391 7.17282717,16.111665 L7.09290709,16.0917248 C6.83982557,16.0385507 6.64668731,15.9920241 6.51348651,15.9521436 L6.15384615,15.8125623 C6.02064535,15.7195077 5.92074625,15.6463944 5.85414585,15.5932203 C5.74758521,15.5134592 5.6709959,15.4336993 5.62437562,15.3539382 C5.57775534,15.2741771 5.54112567,15.1778005 5.51448551,15.0648056 C5.48784535,14.9518107 5.47452547,14.8454641 5.47452547,14.7457627 C5.47452547,14.6460613 5.49117532,14.5397148 5.52447552,14.4267198 C5.55777572,14.3137249 5.61105524,14.204055 5.68431568,14.0977069 C5.75757612,13.9913587 5.84415534,13.8983055 5.94405594,13.8185444 C6.04395654,13.7387833 6.16383546,13.6723167 6.3036963,13.6191426 C6.44355714,13.5659685 6.57342597,13.5260885 6.69330669,13.4995015 C6.85314765,13.4729145 7.00965624,13.4596211 7.16283716,13.4596211 C7.31601808,13.4596211 7.47918661,13.4729145 7.65234765,13.4995015 C7.79886853,13.5260885 7.94538721,13.5692918 8.09190809,13.6291127 C8.23842897,13.6889335 8.36163786,13.7620468 8.46153846,13.8484546 C8.56143906,13.9348625 8.65134825,14.0245924 8.73126873,14.1176471 C8.78454905,14.2107017 8.8344986,14.3236949 8.88111888,14.4566301 C8.92773916,14.5895653 8.95770889,14.7291452 8.97102897,14.8753739 L8.35164835,14.9351944 C8.33832827,14.7756722 8.30502857,14.6394157 8.25174825,14.5264207 C8.19846793,14.4134258 8.12187862,14.3203726 8.02197802,14.2472582 C7.92207742,14.1741439 7.80552847,14.1176473 7.67232767,14.0777667 C7.53912687,14.0378861 7.37595834,14.0179462 7.18281718,14.0179462 C6.98967602,14.0179462 6.82650749,14.0345628 6.69330669,14.0677966 C6.56010589,14.1010304 6.44688691,14.1542037 6.35364635,14.227318 C6.26040579,14.3004324 6.19380639,14.3801923 6.15384615,14.4666002 C6.11388591,14.5530081 6.09390609,14.6394147 6.09390609,14.7258225 C6.09390609,14.8122304 6.10722597,14.8919903 6.13386613,14.9651047 C6.16050629,15.038219 6.20712587,15.1013623 6.27372627,15.1545364 C6.34032667,15.2077105 6.44688571,15.2608837 6.59340659,15.3140578 C6.73992747,15.3672319 6.95304555,15.4237285 7.23276723,15.4835494 C7.51248891,15.5433702 7.73226693,15.5998668 7.89210789,15.6530409 L8.01198801,15.6929212 C8.14518881,15.7328018 8.23842797,15.7660351 8.29170829,15.7926221 Z M8.35164835,11.665005 L11.7282717,11.665005 L11.7282717,5.8225324 L8.35164835,5.8225324 L8.35164835,11.665005 Z M9.43056943,18.3050847 L11.2687313,13.5393819 L11.9480519,13.5393819 L13.9060939,18.3050847 L13.1868132,18.3050847 L12.6073926,16.8693918 L10.6093906,16.8693918 L10.0899101,18.3050847 L9.43056943,18.3050847 Z M11.4885115,14.4965105 C11.4352312,14.6959133 11.3886116,14.8487864 11.3486513,14.9551346 L10.8291708,16.3509472 L12.4475524,16.3509472 L11.7282717,14.4965105 L11.5884116,14.0378863 C11.5617714,14.1974086 11.5284717,14.3502818 11.4885115,14.4965105 Z M12.2277722,3.76869392 L14.7052947,3.76869392 L14.7052947,2.05383848 L12.2277722,2.05383848 L12.2277722,3.76869392 Z M15.004995,18.3050847 L14.4055944,18.3050847 L14.4055944,13.5393819 L15.0649351,13.5393819 L17.5624376,17.2881356 L17.5624376,13.5393819 L18.1818182,13.5393819 L18.1818182,18.3050847 L17.5424575,18.3050847 L15.004995,14.556331 L15.004995,18.3050847 Z M15.8041958,3.76869392 L18.3016983,3.76869392 L18.3016983,2.05383848 L15.8041958,2.05383848 L15.8041958,3.76869392 Z" id="" fill="#2B2826"></path>
            <g id="icons-/-Error_Mark" transform="translate(0.000000, 12.000000)" opacity="0">
                <circle id="Oval" fill="#FFFFFF" fill-rule="nonzero" cx="4" cy="4" r="4"></circle>
                <path d="M4.00666043,0.66666822 C4.60923891,0.667230482 5.16978374,0.820408594 5.68831169,1.12620713 C6.1900347,1.42368891 6.5896311,1.82328531 6.88711289,2.32500833 C7.19347473,2.84449144 7.34665335,3.4050364 7.34665335,4.00666001 C7.34665335,4.60828362 7.19347473,5.16882857 6.88711289,5.68831169 C6.5896311,6.1900347 6.1900347,6.5896311 5.68831169,6.88711289 C5.16882857,7.19347473 4.60828362,7.34665335 4.00666001,7.34665335 C3.4050364,7.34665335 2.84449144,7.19347473 2.32500833,6.88711289 C1.82328531,6.5896311 1.42368891,6.1900347 1.12620713,5.68831169 C0.819845288,5.16882857 0.666666667,4.60828362 0.666666667,4.00666001 C0.666666667,3.4050364 0.819845288,2.84449144 1.12620713,2.32500833 C1.42368891,1.82328531 1.82328531,1.42368891 2.32500833,1.12620713 C2.84353627,0.820408594 3.4040811,0.667230482 4.00665958,0.66666822 L4.00666043,0.66666822 Z M4.00666043,0.66666822 C4.00555043,0.666667185 4.00444029,0.666666667 4.00333,0.666666667 L4.00999001,0.666666667 C4.00887973,0.666666667 4.00776958,0.666667185 4.00665958,0.66666822 L4.00666043,0.66666822 Z M4.34299034,5.67499167 L4.34299034,5.00899101 L3.67032967,5.00899101 L3.67032967,5.67499167 L4.34299034,5.67499167 Z M4.34299034,4.34299034 L4.34299034,2.33832834 L3.67032967,2.33832834 L3.67032967,4.34299034 L4.34299034,4.34299034 Z" id="" fill="#F83200"></path>
            </g>
        </g>
    </g>
</svg>