<?xml version="1.0" encoding="UTF-8"?>
<svg width="20px" height="20px" viewBox="0 0 20 20" version="1.1" xmlns="http://www.w3.org/2000/svg" xmlns:xlink="http://www.w3.org/1999/xlink">
    <!-- Generator: Sketch 51.3 (57544) - http://www.bohemiancoding.com/sketch -->
    <title>icons / classes/ BMC_Desktop_32_Error</title>
    <desc>Created with Sketch.</desc>
    <defs></defs>
    <g id="icons-/-classes/-BMC_Desktop_32" stroke="none" stroke-width="1" fill="none" fill-rule="evenodd">
        <g id="icons-/-classes/-Desktop">
            <g id="icons-/-20x20-icon-field" fill="#F5A623" fill-rule="nonzero" opacity="0">
                <rect x="0" y="0" width="20" height="20"></rect>
            </g>
            <path d="M12.004995,15.5684316 L12.7242757,17.7442557 C12.7242757,17.8281722 12.688312,17.8971026 12.6163836,17.951049 C12.5444552,18.0049953 12.4605399,18.031968 12.3646354,18.031968 L7.65334665,18.031968 C7.55744208,18.031968 7.47352683,18.0049953 7.4015984,17.951049 C7.32966997,17.8971026 7.29370629,17.8281722 7.29370629,17.7442557 L8.01298701,15.5684316 L12.004995,15.5684316 Z M19.017982,2.63936064 L19.017982,13.7522478 C19.017982,14.1118899 18.8921092,14.4175812 18.6403596,14.6693307 C18.3886101,14.9210802 18.0829189,15.046953 17.7232767,15.046953 L2.27672328,15.046953 C1.92906919,15.046953 1.62937189,14.9210802 1.37762238,14.6693307 C1.12587287,14.4175812 1,14.1118899 1,13.7522478 L1,2.65734266 C1,2.2977005 1.12587287,1.99200925 1.37762238,1.74025974 C1.62937189,1.48851023 1.92906919,1.36263736 2.27672328,1.36263736 L17.7232767,1.36263736 C18.0709308,1.36263736 18.3736251,1.48851023 18.6313686,1.74025974 C18.8891122,1.99200925 19.017982,2.29170655 19.017982,2.63936064 Z M17.3456543,2.87312687 L2.58241758,2.87312687 L2.58241758,13.1228771 L17.3456543,13.1228771 L17.3456543,2.87312687 Z" id="" fill="#333333"></path>
        </g>
        <g id="icons-/-Error_Mark" transform="translate(0.000000, 12.000000)">
            <circle id="Oval" fill="#FFFFFF" fill-rule="nonzero" cx="4" cy="4" r="4"></circle>
            <path d="M4.00666043,0.66666822 C4.60923891,0.667230482 5.16978374,0.820408594 5.68831169,1.12620713 C6.1900347,1.42368891 6.5896311,1.82328531 6.88711289,2.32500833 C7.19347473,2.84449144 7.34665335,3.4050364 7.34665335,4.00666001 C7.34665335,4.60828362 7.19347473,5.16882857 6.88711289,5.68831169 C6.5896311,6.1900347 6.1900347,6.5896311 5.68831169,6.88711289 C5.16882857,7.19347473 4.60828362,7.34665335 4.00666001,7.34665335 C3.4050364,7.34665335 2.84449144,7.19347473 2.32500833,6.88711289 C1.82328531,6.5896311 1.42368891,6.1900347 1.12620713,5.68831169 C0.819845288,5.16882857 0.666666667,4.60828362 0.666666667,4.00666001 C0.666666667,3.4050364 0.819845288,2.84449144 1.12620713,2.32500833 C1.42368891,1.82328531 1.82328531,1.42368891 2.32500833,1.12620713 C2.84353627,0.820408594 3.4040811,0.667230482 4.00665958,0.66666822 L4.00666043,0.66666822 Z M4.00666043,0.66666822 C4.00555043,0.666667185 4.00444029,0.666666667 4.00333,0.666666667 L4.00999001,0.666666667 C4.00887973,0.666666667 4.00776958,0.666667185 4.00665958,0.66666822 L4.00666043,0.66666822 Z M4.34299034,5.67499167 L4.34299034,5.00899101 L3.67032967,5.00899101 L3.67032967,5.67499167 L4.34299034,5.67499167 Z M4.34299034,4.34299034 L4.34299034,2.33832834 L3.67032967,2.33832834 L3.67032967,4.34299034 L4.34299034,4.34299034 Z" id="" fill="#F83200"></path>
        </g>
    </g>
</svg>