<?xml version="1.0" encoding="UTF-8"?>
<svg width="20px" height="20px" viewBox="0 0 20 20" version="1.1" xmlns="http://www.w3.org/2000/svg" xmlns:xlink="http://www.w3.org/1999/xlink">
    <!-- Generator: Sketch 51.3 (57544) - http://www.bohemiancoding.com/sketch -->
    <title>icons / classes/ BMC_DiskDrive_32_Error</title>
    <desc>Created with Sketch.</desc>
    <defs></defs>
    <g id="icons-/-classes/-BMC_DiskDrive_32" stroke="none" stroke-width="1" fill="none" fill-rule="evenodd">
        <g id="icons-/-classes/-Disk-Drive">
            <g id="icons-/-20x20-icon-field" fill="#F5A623" fill-rule="nonzero" opacity="0">
                <rect x="0" y="0" width="20" height="20"></rect>
            </g>
            <path d="M17.2227772,1.3976024 C17.4125884,1.57475946 17.5549446,1.78038511 17.6498501,2.01448551 C17.7447557,2.24858592 17.7922078,2.49850017 17.7922078,2.76423576 L17.7922078,17.9300699 C17.7922078,18.1958055 17.7447557,18.4425563 17.6498501,18.6703297 C17.5549446,18.898103 17.4157518,19.1037287 17.2322677,19.2872128 C17.0487836,19.4706969 16.836831,19.6130531 16.5964036,19.7142857 C16.4065925,19.8028642 16.1661686,19.8471528 15.8751249,19.8471528 L3.93606394,19.8471528 C3.65767427,19.8471528 3.41092349,19.8028642 3.1958042,19.7142857 C2.94272268,19.600399 2.72760661,19.4548793 2.55044955,19.2777223 C2.37329249,19.1005652 2.23726321,18.898103 2.14235764,18.6703297 C2.04745207,18.4425563 2,18.1958055 2,17.9300699 L2,2.74525475 C2,2.47951915 2.04745207,2.23276837 2.14235764,2.004995 C2.23726321,1.77722164 2.3827829,1.57159599 2.57892108,1.38811189 C2.77505926,1.20462779 2.98068491,1.06859851 3.1958042,0.98001998 C3.43623164,0.878787373 3.68298242,0.828171828 3.93606394,0.828171828 L15.8561439,0.828171828 C16.1345335,0.828171828 16.3844478,0.875623901 16.6058941,0.970529471 C16.8273404,1.06543504 17.0329661,1.20779126 17.2227772,1.3976024 Z M3.32867133,2.4035964 C3.27805502,2.54279124 3.25274725,2.67565704 3.25274725,2.8021978 C3.25274725,2.92873856 3.27805502,3.04895048 3.32867133,3.16283716 C3.37928763,3.27672385 3.45521095,3.38428188 3.55644356,3.48551449 C3.65767616,3.58674709 3.7652342,3.66267041 3.87912088,3.71328671 C3.99300756,3.76390302 4.1227099,3.78921079 4.26823177,3.78921079 C4.41375364,3.78921079 4.53712903,3.76390302 4.63836164,3.71328671 C4.77755647,3.65001633 4.89144145,3.57092955 4.98001998,3.47602398 C5.06859851,3.38111841 5.13819489,3.27988732 5.18881119,3.17232767 C5.23942749,3.06476803 5.26473526,2.94139264 5.26473526,2.8021978 C5.26473526,2.66300297 5.24259096,2.53330063 5.1983017,2.41308691 C5.15401243,2.29287319 5.07808912,2.18215169 4.97052947,2.08091908 C4.86296983,1.97968647 4.75541179,1.90692663 4.64785215,1.86263736 C4.5402925,1.8183481 4.41691711,1.7962038 4.27772228,1.7962038 C4.13852744,1.7962038 4.00882511,1.8183481 3.88861139,1.86263736 C3.76839767,1.90692663 3.65767616,1.97968647 3.55644356,2.08091908 C3.45521095,2.18215169 3.37928763,2.28970972 3.32867133,2.4035964 Z M5.18881119,17.8731269 C5.23942749,17.7465861 5.26473526,17.6168838 5.26473526,17.484016 C5.26473526,17.3511482 5.24259096,17.2277728 5.1983017,17.1138861 C5.15401243,16.9999994 5.08125259,16.8924414 4.98001998,16.7912088 C4.87878737,16.6899762 4.77122934,16.6140529 4.65734266,16.5634366 C4.54345597,16.5128203 4.41691711,16.4875125 4.27772228,16.4875125 C4.13852744,16.4875125 4.00882511,16.5128203 3.88861139,16.5634366 C3.76839767,16.6140529 3.65767616,16.6899762 3.55644356,16.7912088 C3.45521095,16.8924414 3.37928763,16.9999994 3.32867133,17.1138861 C3.27805502,17.2277728 3.25274725,17.3479847 3.25274725,17.4745255 C3.25274725,17.6263744 3.27805502,17.7624037 3.32867133,17.8826174 C3.37928763,18.0028311 3.45521095,18.1103891 3.55644356,18.2052947 C3.65767616,18.3002003 3.7652342,18.3729601 3.87912088,18.4235764 C3.99300756,18.4741927 4.11954642,18.4995005 4.25874126,18.4995005 C4.39793609,18.4995005 4.52447496,18.4741927 4.63836164,18.4235764 C4.75224832,18.3729601 4.86296983,18.2938733 4.97052947,18.1863137 C5.07808912,18.078754 5.15084896,17.9743595 5.18881119,17.8731269 Z M10.00999,15.2157842 C10.8957753,15.2157842 11.7182779,15.0576106 12.4775225,14.7412587 C13.236767,14.4249068 13.9295673,13.9567131 14.5559441,13.3366633 C15.1823208,12.7166136 15.6536781,12.0238134 15.97003,11.2582418 C16.2863819,10.4926702 16.4445554,9.66384062 16.4445554,8.77172827 C16.4445554,7.87961592 16.2863819,7.05394985 15.97003,6.29470529 C15.6536781,5.53546074 15.1791573,4.84266047 14.5464535,4.21628372 C13.9137498,3.58990696 13.224113,3.12171317 12.4775225,2.81168831 C11.730932,2.50166345 10.9115929,2.34665335 10.0194805,2.34665335 C9.12736817,2.34665335 8.29853863,2.50166345 7.53296703,2.81168831 C6.76739544,3.12171317 6.0714317,3.58990696 5.44505495,4.21628372 C4.81867819,4.84266047 4.34732093,5.53546074 4.03096903,6.29470529 C3.71461713,7.05394985 3.55644356,7.87645245 3.55644356,8.76223776 C3.55644356,9.45821194 3.66083812,10.1257044 3.86963037,10.7647353 C4.07842262,11.4037661 4.38527936,12.0016622 4.79020979,12.5584416 L5.64435564,11.7042957 C5.74558825,11.6030631 5.85314628,11.5271398 5.96703297,11.4765235 C6.08091965,11.4259072 6.20745851,11.4005994 6.34665335,11.4005994 C6.48584818,11.4005994 6.61555051,11.4259072 6.73576424,11.4765235 C6.85597796,11.5271398 6.96353599,11.6030631 7.05844156,11.7042957 C7.15334713,11.8055283 7.22610697,11.9130863 7.27672328,12.026973 C7.32733958,12.1408597 7.35264735,12.2673986 7.35264735,12.4065934 C7.35264735,12.5457882 7.32733958,12.6723271 7.27672328,12.7862138 C7.22610697,12.9001005 7.15018366,13.0076585 7.04895105,13.1088911 L6.19480519,13.963037 C6.77689269,14.3932755 7.37795228,14.7096227 7.998002,14.9120879 C8.64335987,15.1145531 9.31401583,15.2157842 10.00999,15.2157842 Z M11.8891109,6.78821179 C12.1042302,7.02863923 12.2782211,7.28171695 12.4110889,7.54745255 C12.5439567,7.81318814 12.6230435,8.11055447 12.6483516,8.43956044 L12.6863137,8.51548452 L12.7052947,8.76223776 C12.7052947,9.04062743 12.6641696,9.30952251 12.5819181,9.56893107 C12.4996666,9.82833963 12.3794547,10.0719269 12.2212787,10.2997003 C12.0631028,10.5274737 11.8796214,10.7267724 11.6708292,10.8976024 C11.4620369,11.0684324 11.2437574,11.2044617 11.015984,11.3056943 C10.9906759,11.3436565 10.9463873,11.3752912 10.8831169,11.4005994 L10.5794206,11.4955045 C10.5161502,11.5208126 10.4655347,11.5334665 10.4275724,11.5334665 L10.1618382,11.5904096 L10.00999,11.5904096 C9.98468186,11.6030637 9.95304714,11.6030637 9.91508492,11.5904096 L9.72527473,11.5904096 L9.66833167,11.5524476 C9.33932569,11.5271394 9.02614201,11.4512161 8.72877123,11.3246753 C8.43140044,11.1981346 8.15934189,11.0114897 7.91258741,10.7647353 C7.66583293,10.5179808 7.47602464,10.2490857 7.34315684,9.95804196 C7.21028905,9.66699821 7.1375292,9.34432412 7.12487512,8.99000999 L7.12487512,8.93306693 L7.10589411,8.87612388 C7.09324003,8.8634698 7.08691309,8.84448897 7.08691309,8.81918082 L7.08691309,8.76223776 C7.08691309,8.45853994 7.13120169,8.1738275 7.21978022,7.90809191 C7.30835875,7.64235631 7.44122456,7.39244206 7.61838162,7.15834166 C7.79553868,6.92424125 7.99483739,6.72494255 8.21628372,6.56043956 C8.43773004,6.39593657 8.6876443,6.25674383 8.96603397,6.14285714 C9.00399619,6.13020307 9.05461174,6.11122224 9.11788212,6.08591409 L9.28871129,6.02897103 C9.31401944,6.02897103 9.36463499,6.02264409 9.44055944,6.00999001 L9.61138861,5.99100899 L9.66833167,5.97202797 L10.0859141,5.97202797 C10.1365304,5.97202797 10.1681651,5.97835492 10.1808192,5.99100899 L10.2377622,5.99100899 C10.5667682,6.02897122 10.8641345,6.11438495 11.1298701,6.24725275 C11.3956057,6.38012054 11.6486834,6.56043842 11.8891109,6.78821179 Z M10.9400599,9.1988012 C11.0033303,9.05960636 11.034965,8.91725014 11.034965,8.77172827 C11.034965,8.6262064 11.0064938,8.48701365 10.9495504,8.35414585 C10.8926071,8.22127806 10.8071934,8.09790267 10.6933067,7.98401598 C10.57942,7.8701293 10.4592081,7.78787904 10.3326673,7.73726274 C10.2061266,7.68664643 10.0637704,7.66133866 9.90559441,7.66133866 C9.74741846,7.66133866 9.60189877,7.68980991 9.46903097,7.74675325 C9.33616317,7.80369659 9.21911473,7.88594685 9.11788212,7.99350649 C9.01664951,8.10106614 8.93756272,8.22127806 8.88061938,8.35414585 C8.82367604,8.48701365 8.7952048,8.6262064 8.7952048,8.77172827 C8.7952048,8.91725014 8.82367604,9.05644289 8.88061938,9.18931069 C8.93756272,9.32217849 9.01981298,9.44555388 9.12737263,9.55944056 C9.23493227,9.67332724 9.35514419,9.75874097 9.48801199,9.81568432 C9.62087979,9.87262766 9.76007253,9.9010989 9.90559441,9.9010989 C10.0511163,9.9010989 10.190309,9.87262766 10.3231768,9.81568432 C10.4560446,9.75874097 10.57942,9.67332724 10.6933067,9.55944056 C10.7818852,9.45820795 10.8641355,9.33799603 10.9400599,9.1988012 Z M16.6533467,3.16283716 C16.703963,3.04895048 16.7292707,2.92557509 16.7292707,2.79270729 C16.7292707,2.6598395 16.703963,2.53330063 16.6533467,2.41308691 C16.6027303,2.29287319 16.526807,2.18215169 16.4255744,2.08091908 C16.3243418,1.97968647 16.2167838,1.90692663 16.1028971,1.86263736 C15.9890104,1.8183481 15.8624716,1.7962038 15.7232767,1.7962038 C15.5840819,1.7962038 15.457543,1.8183481 15.3436563,1.86263736 C15.2297697,1.90692663 15.1222116,1.97968647 15.020979,2.08091908 C14.9197464,2.18215169 14.8438231,2.29287319 14.7932068,2.41308691 C14.7425905,2.53330063 14.7172827,2.6598395 14.7172827,2.79270729 C14.7172827,2.92557509 14.7425905,3.04895048 14.7932068,3.16283716 C14.8438231,3.27672385 14.9197464,3.38428188 15.020979,3.48551449 C15.1222116,3.58674709 15.2266062,3.66267041 15.3341658,3.71328671 C15.4417255,3.76390302 15.5682643,3.78921079 15.7137862,3.78921079 C15.8593081,3.78921079 15.9890104,3.76390302 16.1028971,3.71328671 C16.2167838,3.66267041 16.3243418,3.58674709 16.4255744,3.48551449 C16.526807,3.38428188 16.6027303,3.27672385 16.6533467,3.16283716 Z M16.6533467,17.8731269 C16.703963,17.7465861 16.7292707,17.6168838 16.7292707,17.484016 C16.7292707,17.3511482 16.703963,17.2277728 16.6533467,17.1138861 C16.6027303,16.9999994 16.526807,16.8924414 16.4255744,16.7912088 C16.3243418,16.6899762 16.2167838,16.6140529 16.1028971,16.5634366 C15.9890104,16.5128203 15.8624716,16.4875125 15.7232767,16.4875125 C15.5840819,16.4875125 15.457543,16.5128203 15.3436563,16.5634366 C15.2297697,16.6140529 15.1222116,16.6899762 15.020979,16.7912088 C14.9197464,16.8924414 14.8438231,16.996836 14.7932068,17.1043956 C14.7425905,17.2119552 14.7172827,17.3384941 14.7172827,17.484016 C14.7172827,17.6295379 14.7425905,17.7624037 14.7932068,17.8826174 C14.8438231,18.0028311 14.9197464,18.1103891 15.020979,18.2052947 C15.1222116,18.3002003 15.2266062,18.3729601 15.3341658,18.4235764 C15.4417255,18.4741927 15.5682643,18.4995005 15.7137862,18.4995005 C15.8593081,18.4995005 15.9890104,18.4741927 16.1028971,18.4235764 C16.2167838,18.3729601 16.3243418,18.2970368 16.4255744,18.1958042 C16.526807,18.0945716 16.6027303,17.9870136 16.6533467,17.8731269 Z" id="" fill="#333333"></path>
        </g>
        <g id="icons-/-Error_Mark" transform="translate(0.000000, 12.000000)">
            <circle id="Oval" fill="#FFFFFF" fill-rule="nonzero" cx="4" cy="4" r="4"></circle>
            <path d="M4.00666043,0.66666822 C4.60923891,0.667230482 5.16978374,0.820408594 5.68831169,1.12620713 C6.1900347,1.42368891 6.5896311,1.82328531 6.88711289,2.32500833 C7.19347473,2.84449144 7.34665335,3.4050364 7.34665335,4.00666001 C7.34665335,4.60828362 7.19347473,5.16882857 6.88711289,5.68831169 C6.5896311,6.1900347 6.1900347,6.5896311 5.68831169,6.88711289 C5.16882857,7.19347473 4.60828362,7.34665335 4.00666001,7.34665335 C3.4050364,7.34665335 2.84449144,7.19347473 2.32500833,6.88711289 C1.82328531,6.5896311 1.42368891,6.1900347 1.12620713,5.68831169 C0.819845288,5.16882857 0.666666667,4.60828362 0.666666667,4.00666001 C0.666666667,3.4050364 0.819845288,2.84449144 1.12620713,2.32500833 C1.42368891,1.82328531 1.82328531,1.42368891 2.32500833,1.12620713 C2.84353627,0.820408594 3.4040811,0.667230482 4.00665958,0.66666822 L4.00666043,0.66666822 Z M4.00666043,0.66666822 C4.00555043,0.666667185 4.00444029,0.666666667 4.00333,0.666666667 L4.00999001,0.666666667 C4.00887973,0.666666667 4.00776958,0.666667185 4.00665958,0.66666822 L4.00666043,0.66666822 Z M4.34299034,5.67499167 L4.34299034,5.00899101 L3.67032967,5.00899101 L3.67032967,5.67499167 L4.34299034,5.67499167 Z M4.34299034,4.34299034 L4.34299034,2.33832834 L3.67032967,2.33832834 L3.67032967,4.34299034 L4.34299034,4.34299034 Z" id="" fill="#F83200"></path>
        </g>
    </g>
</svg>