<?xml version="1.0" encoding="UTF-8"?>
<svg width="20px" height="20px" viewBox="0 0 20 20" version="1.1" xmlns="http://www.w3.org/2000/svg" xmlns:xlink="http://www.w3.org/1999/xlink">
    <!-- Generator: Sketch 51.3 (57544) - http://www.bohemiancoding.com/sketch -->
    <title>icons / classes/ BMC_ApplicationService_32_Error</title>
    <desc>Created with Sketch.</desc>
    <defs></defs>
    <g id="icons-/-classes/-BMC_ApplicationService_32" stroke="none" stroke-width="1" fill="none" fill-rule="evenodd">
        <g id="icons-/-classes/-application-service">
            <g id="icons-/-20x20-icon-field" fill="#F5A623" fill-rule="nonzero" opacity="0">
                <rect x="0" y="0" width="20" height="20"></rect>
            </g>
            <path d="M18.8741259,3.62837163 C18.9220782,3.73626428 18.9580418,3.84715228 18.982018,3.96103896 C19.0059941,4.07492564 19.017982,4.18581365 19.017982,4.29370629 L19.017982,15.1188811 C19.017982,15.2267738 19.0000002,15.3466527 18.964036,15.4785215 C18.9520479,15.5744261 18.9220782,15.6823171 18.8741259,15.8021978 C18.8381617,15.8861143 18.7782222,15.9880114 18.6943057,16.1078921 C18.6463534,16.2037967 18.5654351,16.2996998 18.4515485,16.3956044 C18.3376618,16.491509 18.2447556,16.5634363 18.1728272,16.6113886 C18.0409584,16.683317 17.9330674,16.7372626 17.8491508,16.7732268 C17.7652343,16.809191 17.6663342,16.8391607 17.5524476,16.8631369 C17.4385609,16.887113 17.3216789,16.8991009 17.2017982,16.8991009 L2.78021978,16.8991009 C2.6843152,16.8991009 2.57642418,16.887113 2.45654346,16.8631369 C2.33666274,16.8391607 2.22277776,16.809191 2.11488511,16.7732268 C2.04295668,16.7372626 1.94705355,16.683317 1.82717283,16.6113886 L1.80919081,16.6113886 C1.74925045,16.5634363 1.65934126,16.485515 1.53946054,16.3776224 C1.44355596,16.3056939 1.35964072,16.2157848 1.28771229,16.1078921 C1.22777193,16.0359637 1.17382641,15.9370636 1.12587413,15.8111888 C1.07792184,15.6853141 1.04195816,15.5684321 1.01798202,15.4605395 C0.994005874,15.3526468 0.982017982,15.2387618 0.982017982,15.1188811 L0.982017982,4.29370629 C0.982017982,4.18581365 0.997002847,4.0689317 1.02697303,3.94305694 C1.05694321,3.81718219 1.08990991,3.70629419 1.12587413,3.61038961 C1.16183834,3.51448503 1.21878083,3.41558493 1.2967033,3.31368631 C1.37462576,3.2117877 1.44955009,3.12487548 1.52147852,3.05294705 C1.59340695,2.98101862 1.68931009,2.89710338 1.80919081,2.8011988 C1.89310731,2.74125844 1.9950044,2.68731293 2.11488511,2.63936064 C2.23476583,2.59140835 2.34865081,2.55544468 2.45654346,2.53146853 C2.5644361,2.50749239 2.67232713,2.4955045 2.78021978,2.4955045 L17.2197802,2.4955045 C17.3276729,2.4955045 17.4475518,2.50749239 17.5794206,2.53146853 C17.6753252,2.55544468 17.7832162,2.59140835 17.9030969,2.63936064 C17.9630373,2.67532486 18.0589404,2.72927037 18.1908092,2.8011988 C18.2747257,2.84915109 18.3706288,2.93306633 18.4785215,3.05294705 C18.562438,3.13686356 18.6343653,3.22677275 18.6943057,3.32267732 L18.7302697,3.37662338 C18.7902101,3.48451602 18.8381617,3.56843127 18.8741259,3.62837163 Z M2.69030969,5.1028971 C2.71428583,5.16283746 2.73826162,5.20479508 2.76223776,5.22877123 L2.83416583,5.33666334 L3.06793207,5.46253746 C3.11588436,5.48651361 3.15784198,5.50449544 3.19380619,5.51648352 L3.33766234,5.51648352 C3.45754306,5.51648352 3.55644317,5.50149865 3.63436563,5.47152847 C3.7122881,5.44155829 3.78121848,5.39960067 3.84115884,5.34565435 C3.9010992,5.29170802 3.9460538,5.22277764 3.97602398,5.13886114 C4.00599416,5.05494464 4.02097902,4.95304755 4.02097902,4.83316683 L4.002997,4.68931069 C4.002997,4.67732262 3.99700306,4.65934078 3.98501499,4.63536464 L3.8951049,4.45554446 L3.7962038,4.35664336 C3.76623362,4.32667318 3.73926086,4.30569437 3.71528472,4.29370629 L3.58941059,4.23976024 C3.55344637,4.2157841 3.51148875,4.2037962 3.46353646,4.2037962 L3.33766234,4.18581419 L3.19380619,4.2037962 C3.14585391,4.2037962 3.10389628,4.2157841 3.06793207,4.23976024 L2.85214785,4.38361638 L2.74425574,4.49150849 C2.73226767,4.51548464 2.72027978,4.54545437 2.70829171,4.58141858 L2.69030969,4.5994006 C2.66633355,4.63536482 2.65434565,4.67732244 2.65434565,4.72527473 L2.63636364,4.83316683 L2.65434565,4.97702298 L2.69030969,5.1028971 Z M17.2197802,6.82917083 L2.78021978,6.82917083 L2.78021978,15.1188811 L17.2197802,15.1188811 L17.2197802,6.82917083 Z M4.50649351,4.5994006 C4.48251736,4.63536482 4.47052947,4.67732244 4.47052947,4.72527473 L4.45254745,4.85114885 L4.47052947,4.995005 C4.47052947,5.03096921 4.47952039,5.06693289 4.4975025,5.1028971 L4.56043956,5.22877123 C4.57242763,5.25274737 4.60239736,5.28871105 4.65034965,5.33666334 L4.88411588,5.46253746 C4.9200801,5.48651361 4.9530468,5.50149847 4.98301698,5.50749251 C5.01298716,5.51348654 5.0639357,5.51648352 5.13586414,5.51648352 C5.25574486,5.51648352 5.35764194,5.50449562 5.44155844,5.48051948 C5.52547495,5.45654334 5.59140835,5.41758269 5.63936064,5.36363636 C5.68731293,5.30969004 5.72927055,5.24075966 5.76523477,5.15684316 C5.80119898,5.07292665 5.81918082,4.96503562 5.81918082,4.83316683 L5.8011988,4.70729271 C5.8011988,4.67132849 5.79220788,4.63236784 5.77422577,4.59040959 C5.75624367,4.54845134 5.73526486,4.50949069 5.71128871,4.47352647 L5.69330669,4.45554446 C5.66933055,4.41958024 5.64535477,4.38961051 5.62137862,4.36563437 L5.51348651,4.29370629 L5.40559441,4.23976024 C5.35764212,4.2157841 5.3156845,4.19780226 5.27972028,4.18581419 L4.99200799,4.18581419 C4.95604378,4.19780226 4.91708313,4.2157841 4.87512488,4.23976024 C4.83316662,4.26373638 4.79420597,4.28771217 4.75824176,4.31168831 L4.65034965,4.4015984 L4.56043956,4.49150849 C4.53646342,4.52747271 4.51848158,4.56343638 4.50649351,4.5994006 Z M17.2197802,4.29370629 L6.39460539,4.29370629 L6.39460539,5.37262737 L17.2197802,5.37262737 L17.2197802,4.29370629 Z M7.74325674,11.8461538 C7.61138795,11.7982016 7.47352719,11.744256 7.32967033,11.6843157 C7.22177768,11.6243753 7.11688363,11.5554449 7.01498501,11.4775225 C6.9130864,11.3996 6.84115905,11.3216787 6.7992008,11.2437562 C6.75724255,11.1658338 6.73626374,11.0789216 6.73626374,10.983017 C6.73626374,10.7912078 6.82017898,10.6233773 6.98801199,10.4795205 C7.155845,10.3356636 7.40759073,10.2157847 7.74325674,10.1198801 C7.77922096,10.1198801 7.80319674,10.1138862 7.81518482,10.1018981 L7.85114885,10.1018981 L7.81518482,10.011988 C7.71928024,9.80819079 7.64735289,9.62837241 7.5994006,9.47252747 C7.55144831,9.31668254 7.53346647,9.19080967 7.54545455,9.09490509 L7.54545455,9.07692308 C7.56943069,8.96903043 7.5904095,8.88511518 7.60839161,8.82517483 C7.62637372,8.76523447 7.66233739,8.705295 7.71628372,8.64535465 C7.77023004,8.58541429 7.84515437,8.54345666 7.94105894,8.51948052 C8.03696352,8.49550438 8.14785152,8.48951043 8.27372627,8.5014985 C8.39960103,8.51348657 8.52247692,8.5434563 8.64235764,8.59140859 C8.77422643,8.63936088 8.90609325,8.69930034 9.03796204,8.77122877 L9.07392607,8.78921079 C9.09790222,8.80119886 9.11588406,8.80719281 9.12787213,8.80719281 L9.14585415,8.71728272 C9.19380643,8.54944971 9.24775195,8.41158895 9.30769231,8.3036963 C9.37962074,8.15983944 9.44555415,8.05194841 9.50549451,7.98001998 C9.58941101,7.87212733 9.67032928,7.80019998 9.74825175,7.76423576 C9.82617422,7.72827155 9.91308643,7.71028971 10.008991,7.71028971 C10.1048956,7.71028971 10.1918078,7.73426549 10.2697303,7.78221778 C10.3476527,7.83017007 10.425574,7.89910045 10.5034965,7.98901099 C10.581419,8.07892153 10.6503494,8.1928065 10.7102897,8.33066933 C10.7702301,8.46853216 10.8181816,8.60339594 10.8541459,8.73526474 C10.8661339,8.74725281 10.8721279,8.7592407 10.8721279,8.77122877 L10.8901099,8.82517483 L10.962038,8.75324675 C11.129871,8.68131832 11.2737257,8.62437583 11.3936064,8.58241758 C11.5134871,8.54045933 11.6303691,8.51348657 11.7442557,8.5014985 C11.8581424,8.48951043 11.9660335,8.49550438 12.0679321,8.51948052 C12.1698307,8.54345666 12.244755,8.59140823 12.2927073,8.66333666 C12.3406596,8.69930088 12.3796202,8.75324639 12.4095904,8.82517483 C12.4395606,8.89710326 12.4575424,8.98401547 12.4635365,9.08591409 C12.4695305,9.1878127 12.4545456,9.31668254 12.4185814,9.47252747 C12.3826172,9.62837241 12.3046959,9.80819079 12.1848152,10.011988 L12.1308691,10.0839161 C12.1428572,10.0959042 12.160839,10.1018981 12.1848152,10.1018981 L12.2387612,10.1198801 C12.5744273,10.2037966 12.82917,10.3176816 13.002997,10.4615385 C13.176824,10.6053953 13.2637363,10.7792198 13.2637363,10.983017 C13.2637363,11.0669335 13.2397605,11.1508487 13.1918082,11.2347652 C13.1438559,11.3186817 13.0719286,11.396603 12.976024,11.4685315 C12.9040955,11.5164838 12.7962045,11.5824172 12.6523477,11.6663337 C12.5084908,11.7502502 12.376624,11.8101896 12.2567433,11.8461538 L12.2027972,11.8461538 C12.1908091,11.8581419 12.1728273,11.8641359 12.1488511,11.8641359 L12.2027972,11.9360639 C12.3106899,12.1398612 12.3886111,12.3196795 12.4365634,12.4755245 C12.4845157,12.6313694 12.5024976,12.7572423 12.4905095,12.8531469 C12.4665333,12.9730276 12.4425576,13.0629368 12.4185814,13.1228771 C12.3946053,13.1828175 12.3586416,13.2427569 12.3106893,13.3026973 L12.2387612,13.3566434 L12.1488511,13.3926074 L12.022977,13.4465534 L11.6813187,13.4465534 C11.6333664,13.4345654 11.567433,13.4165835 11.4835165,13.3926074 L10.8721279,13.1408591 L10.8541459,13.2307692 C10.8061936,13.3986022 10.7522481,13.536463 10.6923077,13.6443556 C10.6203793,13.7882125 10.5544459,13.8961035 10.4945055,13.968032 C10.410589,14.0759246 10.3296707,14.1508489 10.2517483,14.1928072 C10.1738258,14.2347654 10.0869136,14.2557443 9.99100899,14.2557443 C9.89510442,14.2557443 9.80519522,14.2317685 9.72127872,14.1838162 C9.63736222,14.1358639 9.55944092,14.0639365 9.48751249,13.968032 C9.42757213,13.8961035 9.36163872,13.7882125 9.28971029,13.6443556 C9.22976993,13.536463 9.17582442,13.3986022 9.12787213,13.2307692 L9.10989011,13.1408591 L8.4985015,13.3926074 L8.3006993,13.4465534 L7.95904096,13.4465534 L7.86913087,13.4105894 L7.74325674,13.3566434 L7.67132867,13.3026973 C7.62337638,13.254745 7.58441573,13.1858146 7.55444555,13.0959041 C7.52447537,13.0059936 7.50349656,12.9190813 7.49150849,12.8351648 C7.47952042,12.7512483 7.50049923,12.6313694 7.55444555,12.4755245 C7.60839188,12.3196795 7.68931015,12.1398612 7.7972028,11.9360639 L7.83316683,11.8641359 L7.74325674,11.8461538 Z M7.32967033,10.7312687 C7.26972997,10.779221 7.22477537,10.8241756 7.19480519,10.8661339 C7.16483501,10.9080921 7.14985015,10.9440558 7.14985015,10.974026 C7.14985015,11.0039962 7.16183804,11.0339659 7.18581419,11.0639361 C7.20979033,11.0939062 7.26373584,11.1388608 7.34765235,11.1988012 C7.39560464,11.2347654 7.46453501,11.276723 7.55444555,11.3246753 C7.64435609,11.3726276 7.74925015,11.4085913 7.86913087,11.4325674 L7.95904096,11.4685315 C7.9830171,11.4805195 8.01898078,11.4865135 8.06693307,11.4865135 C8.11488535,11.4265731 8.1658339,11.3546458 8.21978022,11.2707293 C8.27372654,11.1868128 8.32467508,11.1148854 8.37262737,11.0549451 L8.46253746,10.965035 L8.37262737,10.8931069 C8.30069894,10.7972023 8.24675343,10.716284 8.21078921,10.6503497 C8.174825,10.5844153 8.12687343,10.5094909 8.06693307,10.4255744 C8.04295692,10.4375625 8.00699325,10.4495504 7.95904096,10.4615385 C7.91108867,10.4735265 7.88111894,10.4855144 7.86913087,10.4975025 C7.74925015,10.5334667 7.64135912,10.5754243 7.54545455,10.6233766 L7.32967033,10.7312687 Z M8.17482517,9.81418581 C8.18681325,9.8621381 8.20479508,9.89810178 8.22877123,9.92207792 L8.28271728,10.011988 L8.58841159,9.94005994 L8.91208791,9.88611389 L8.91208791,9.85014985 L9.001998,9.23876124 L8.75024975,9.09490509 C8.69030939,9.05894088 8.61838204,9.02597418 8.53446553,8.996004 C8.45054903,8.96603382 8.37862168,8.945055 8.31868132,8.93306693 L8.04895105,8.91508492 L8.01298701,8.95104895 L7.97702298,8.95104895 C7.96503491,8.96303702 7.95304701,8.99300675 7.94105894,9.04095904 L7.94105894,9.2027972 C7.94105894,9.26273756 7.95904078,9.35264675 7.995005,9.47252747 C8.01898114,9.53246783 8.06693271,9.62837097 8.13886114,9.76023976 L8.17482517,9.81418581 Z M8.85814186,12.7992008 L8.89410589,12.7632368 L9.001998,12.7092907 L8.91208791,12.1698302 L8.91208791,12.0619381 L8.84015984,12.0619381 L8.51648352,12.025974 C8.40859087,12.0019979 8.31868168,11.984016 8.24675325,11.972028 L8.15684316,12.1338661 C8.07292665,12.2897111 8.01898114,12.403596 7.995005,12.4755245 C7.95904078,12.5954052 7.94105894,12.6913083 7.94105894,12.7632368 C7.94105894,12.8351652 7.94405591,12.8891107 7.95004995,12.9250749 C7.95604399,12.9610391 7.96803188,12.9880119 7.98601399,13.005994 C8.00399609,13.0239761 8.03096885,13.032967 8.06693307,13.032967 L8.22877123,13.0509491 C8.3246758,13.0269729 8.40859105,12.9970032 8.48051948,12.961039 L8.51648352,12.9430569 C8.66034038,12.8831166 8.77422535,12.835165 8.85814186,12.7992008 Z M8.71428571,10.6413586 C8.72627379,10.6293706 8.73226773,10.6173827 8.73226773,10.6053946 L8.75024975,10.5874126 C8.76223782,10.5634364 8.78021966,10.5394607 8.8041958,10.5154845 L8.85814186,10.4615385 L8.85814186,10.2637363 C8.85814186,10.2757243 8.84615397,10.2817183 8.82217782,10.2817183 L8.76823177,10.2817183 L8.4985015,10.3356643 C8.52247764,10.3716286 8.55244737,10.4195801 8.58841159,10.4795205 L8.58841159,10.4975025 C8.6243758,10.5454548 8.66633343,10.5934064 8.71428571,10.6413586 Z M8.71428571,11.2887113 C8.70229764,11.3126874 8.6843158,11.3426572 8.66033966,11.3786214 L8.4985015,11.5944056 L8.76823177,11.6483516 L8.84015984,11.6483516 L8.89410589,11.6663337 L8.87612388,11.4505495 C8.85214773,11.4385614 8.83416589,11.4265735 8.82217782,11.4145854 L8.75024975,11.3246753 C8.73826168,11.3006992 8.72627379,11.2887113 8.71428571,11.2887113 Z M10.2967033,10.2277722 L9.68531469,10.2277722 L9.55944056,10.3356643 L9.25374625,10.6593407 L9.25374625,11.2707293 L9.36163836,11.3786214 L9.46953047,11.5044955 C9.50549469,11.5164836 9.54145836,11.5464533 9.57742258,11.5944056 C9.61338679,11.6423579 9.65534442,11.6783216 9.7032967,11.7022977 L10.2967033,11.7022977 L10.7282717,11.2707293 L10.7282717,10.6593407 L10.5304695,10.4435564 L10.2967033,10.2277722 Z M9.32567433,9.7962038 L9.32567433,9.86813187 L9.50549451,9.85014985 L9.61338661,9.76023976 C9.64935083,9.73626362 9.67332661,9.71228783 9.68531469,9.68831169 C9.64935047,9.65234747 9.6013989,9.6163838 9.54145854,9.58041958 L9.37962038,9.47252747 L9.34365634,9.74225774 L9.32567433,9.7962038 Z M9.32567433,12.2057942 C9.32567433,12.2417584 9.33166827,12.28971 9.34365634,12.3496503 L9.36163836,12.4755245 C9.42157872,12.4515483 9.46953029,12.4215786 9.50549451,12.3856144 L9.52347652,12.3856144 C9.58341688,12.3376621 9.63136845,12.3016984 9.66733267,12.2777223 L9.68531469,12.2777223 L9.63136863,12.2417582 L9.63136863,12.2057942 L9.50549451,12.1158841 C9.48151836,12.103896 9.45154863,12.0979021 9.41558442,12.0979021 L9.30769231,12.0979021 L9.30769231,12.1518482 C9.30769231,12.1758243 9.31368625,12.1938061 9.32567433,12.2057942 Z M9.52347652,8.84315684 C9.51148845,8.86713299 9.50549451,8.89710272 9.50549451,8.93306693 L9.46953047,9.04095904 C9.5414589,9.07692326 9.61338625,9.13086877 9.68531469,9.2027972 L9.91908092,9.36463536 L9.99100899,9.43656344 L10.0629371,9.36463536 L10.2967033,9.2027972 C10.3446556,9.15484492 10.4165829,9.1008994 10.5124875,9.04095904 L10.4945055,8.93306693 C10.4825174,8.89710272 10.4705295,8.86713299 10.4585415,8.84315684 C10.4105892,8.69929998 10.3686315,8.58841198 10.3326673,8.51048951 C10.2967031,8.43256704 10.2547455,8.36363666 10.2067932,8.3036963 L10.1528472,8.23176823 C10.1408591,8.20779209 10.1228772,8.18981025 10.0989011,8.17782218 C10.0629369,8.14185796 10.0299702,8.12387612 10,8.12387612 C9.97002982,8.12387612 9.93706312,8.13886099 9.9010989,8.16883117 C9.86513469,8.19880135 9.82317706,8.24375594 9.77522478,8.3036963 L9.64935065,8.51948052 C9.58941029,8.63936124 9.54745267,8.74725227 9.52347652,8.84315684 Z M10.4765235,13.0869131 C10.4885115,13.074925 10.4945055,13.0449553 10.4945055,12.997003 L10.5304695,12.8891109 C10.446553,12.8531467 10.3746257,12.8111891 10.3146853,12.7632368 C10.2187807,12.6913083 10.1468534,12.6253749 10.0989011,12.5654346 L10.008991,12.5114885 L9.91908092,12.5654346 L9.7032967,12.7452547 C9.65534442,12.781219 9.58341706,12.8291705 9.48751249,12.8891109 L9.50549451,12.997003 C9.51748258,13.0329672 9.52947047,13.0629369 9.54145854,13.0869131 C9.58941083,13.23077 9.63136845,13.341658 9.66733267,13.4195804 C9.70329688,13.4975029 9.74525451,13.5724272 9.79320679,13.6443556 C9.81718294,13.6923079 9.85314661,13.7402595 9.9010989,13.7882118 L9.91908092,13.7882118 C9.94305706,13.824176 9.97002982,13.8421578 10,13.8421578 C10.0299702,13.8421578 10.0629369,13.827173 10.0989011,13.7972028 C10.1348653,13.7672326 10.1768229,13.722278 10.2247752,13.6623377 L10.3506494,13.4105894 C10.4105897,13.2907087 10.4525473,13.1828177 10.4765235,13.0869131 Z M10.6743257,9.74225774 C10.6743257,9.70629353 10.6683317,9.65834196 10.6563437,9.5984016 L10.6383616,9.47252747 L10.3146853,9.68831169 L10.4225774,9.77822178 L10.4945055,9.85014985 L10.6923077,9.86813187 L10.6923077,9.7962038 C10.6923077,9.78421572 10.6863137,9.76623389 10.6743257,9.74225774 Z M10.6743257,12.2057942 L10.6743257,12.0619381 C10.6503495,12.0739261 10.6203798,12.0799201 10.5844156,12.0799201 L10.4945055,12.0799201 L10.3686314,12.2057942 C10.3566433,12.2057942 10.3446554,12.2117882 10.3326673,12.2237762 L10.3146853,12.2417582 L10.6023976,12.4575425 L10.6383616,12.3316683 C10.6623378,12.283716 10.6743257,12.2417584 10.6743257,12.2057942 Z M11.4655345,8.98701299 C11.4415583,8.99900106 11.3996007,9.02297684 11.3396603,9.05894106 L10.998002,9.22077922 L11.0879121,9.76023976 L11.0879121,9.86813187 L11.4115884,9.92207792 L11.7352647,9.99400599 C11.7472528,9.95804178 11.7622377,9.92507507 11.7802198,9.8951049 C11.7982019,9.86513472 11.8131868,9.83216801 11.8251748,9.7962038 C11.9090913,9.65234693 11.9690308,9.53846196 12.004995,9.45454545 C12.0409592,9.33466474 12.0589411,9.2387616 12.0589411,9.16683317 C12.0589411,9.09490474 12.0529471,9.04695317 12.040959,9.02297702 L12.022977,8.95104895 C12.022977,8.93906088 12.0109891,8.92707299 11.987013,8.91508492 L11.951049,8.8971029 L11.8611389,8.8971029 C11.8011985,8.8971029 11.741259,8.90309684 11.6813187,8.91508492 L11.4655345,8.98701299 Z M11.8251748,12.1158841 C11.8251748,12.103896 11.8131869,12.0799203 11.7892108,12.043956 L11.7352647,11.954046 C11.6753244,11.966034 11.5914091,11.9840159 11.4835165,12.007992 L11.1418581,12.043956 L11.0879121,12.0619381 L11.0879121,12.1698302 L10.998002,12.6913087 L11.0699301,12.7452547 L11.1418581,12.7812188 C11.285715,12.8771234 11.4055939,12.9370628 11.5014985,12.961039 L11.7532468,13.014985 C11.8371633,13.014985 11.8971027,13.011988 11.9330669,13.005994 C11.9690311,13 11.9960039,12.9880121 12.013986,12.97003 C12.0319681,12.9520479 12.040959,12.9250751 12.040959,12.8891109 L12.040959,12.7272727 C12.040959,12.6553443 12.0229772,12.5714291 11.987013,12.4755245 L11.8251748,12.1158841 Z M11.2857143,10.6413586 C11.2977024,10.6293706 11.3156842,10.5994008 11.3396603,10.5514486 L11.5014985,10.3356643 L11.3756244,10.3356643 C11.3276721,10.3236763 11.2797205,10.3176823 11.2317682,10.3176823 C11.2197802,10.3056942 11.2017983,10.2997003 11.1778222,10.2997003 L11.1238761,10.2997003 L11.1238761,10.4975025 C11.1598403,10.5094906 11.1808192,10.5244754 11.1868132,10.5424575 C11.1928072,10.5604397 11.213786,10.5814185 11.2497502,10.6053946 L11.2497502,10.6413586 L11.2857143,10.6413586 Z M11.2857143,11.2887113 C11.2737262,11.2887113 11.2647353,11.2947052 11.2587413,11.3066933 C11.2527472,11.3186814 11.2497502,11.3306693 11.2497502,11.3426573 L11.2497502,11.3606394 L11.1418581,11.4685315 L11.1238761,11.6663337 C11.1598403,11.6663337 11.1808192,11.6633367 11.1868132,11.6573427 C11.1928072,11.6513486 11.213786,11.6483516 11.2497502,11.6483516 L11.5194805,11.5944056 L11.4115884,11.4325674 C11.3876123,11.3966032 11.3456546,11.3486516 11.2857143,11.2887113 Z M12.6703297,10.7312687 C12.6223774,10.6953045 12.5444561,10.6533469 12.4365634,10.6053946 C12.3286708,10.5574423 12.2327677,10.5274726 12.1488511,10.5154845 L12.040959,10.4795205 C12.0169829,10.4675324 11.9810192,10.4615385 11.9330669,10.4615385 L11.7892108,10.6773227 C11.7172824,10.7732273 11.6633368,10.8451546 11.6273726,10.8931069 L11.5374625,10.983017 L11.6273726,11.0549451 L11.7892108,11.2887113 C11.825175,11.3366636 11.8731266,11.4085909 11.9330669,11.5044955 L12.040959,11.4685315 C12.0889113,11.4685315 12.1188811,11.4625375 12.1308691,11.4505495 C12.2507499,11.4025972 12.3586409,11.3546456 12.4545455,11.3066933 L12.6703297,11.1988012 C12.73027,11.1508489 12.7752246,11.1058943 12.8051948,11.0639361 C12.835165,11.0219778 12.8501499,10.9860141 12.8501499,10.956044 C12.8501499,10.9260738 12.838162,10.8931071 12.8141858,10.8571429 C12.7902097,10.8211786 12.7422581,10.779221 12.6703297,10.7312687 Z" id="" fill="#333333"></path>
        </g>
        <g id="icons-/-Error_Mark" transform="translate(0.000000, 12.000000)">
            <circle id="Oval" fill="#FFFFFF" fill-rule="nonzero" cx="4" cy="4" r="4"></circle>
            <path d="M4.00666043,0.66666822 C4.60923891,0.667230482 5.16978374,0.820408594 5.68831169,1.12620713 C6.1900347,1.42368891 6.5896311,1.82328531 6.88711289,2.32500833 C7.19347473,2.84449144 7.34665335,3.4050364 7.34665335,4.00666001 C7.34665335,4.60828362 7.19347473,5.16882857 6.88711289,5.68831169 C6.5896311,6.1900347 6.1900347,6.5896311 5.68831169,6.88711289 C5.16882857,7.19347473 4.60828362,7.34665335 4.00666001,7.34665335 C3.4050364,7.34665335 2.84449144,7.19347473 2.32500833,6.88711289 C1.82328531,6.5896311 1.42368891,6.1900347 1.12620713,5.68831169 C0.819845288,5.16882857 0.666666667,4.60828362 0.666666667,4.00666001 C0.666666667,3.4050364 0.819845288,2.84449144 1.12620713,2.32500833 C1.42368891,1.82328531 1.82328531,1.42368891 2.32500833,1.12620713 C2.84353627,0.820408594 3.4040811,0.667230482 4.00665958,0.66666822 L4.00666043,0.66666822 Z M4.00666043,0.66666822 C4.00555043,0.666667185 4.00444029,0.666666667 4.00333,0.666666667 L4.00999001,0.666666667 C4.00887973,0.666666667 4.00776958,0.666667185 4.00665958,0.66666822 L4.00666043,0.66666822 Z M4.34299034,5.67499167 L4.34299034,5.00899101 L3.67032967,5.00899101 L3.67032967,5.67499167 L4.34299034,5.67499167 Z M4.34299034,4.34299034 L4.34299034,2.33832834 L3.67032967,2.33832834 L3.67032967,4.34299034 L4.34299034,4.34299034 Z" id="" fill="#F83200"></path>
        </g>
    </g>
</svg>