<?xml version="1.0" encoding="UTF-8"?>
<svg width="21px" height="21px" viewBox="0 0 21 21" version="1.1" xmlns="http://www.w3.org/2000/svg" xmlns:xlink="http://www.w3.org/1999/xlink">
    <!-- Generator: Sketch 51.3 (57544) - http://www.bohemiancoding.com/sketch -->
    <title>icons / classes/ BMC_AdministrationApplication_SIM_CELL_32_Error</title>
    <desc>Created with Sketch.</desc>
    <defs></defs>
    <g id="icons-/-classes/-BMC_AdministrationApplication_SIM_CELL_32" stroke="none" stroke-width="1" fill="none" fill-rule="evenodd">
        <g>
            <g id="icons-/-20x20-icon-field" transform="translate(0.000000, 1.000000)" fill="#F5A623" fill-rule="nonzero" opacity="0">
                <rect x="0" y="0" width="20" height="20"></rect>
            </g>
            <path d="M19.2207792,7.09090909 C19.7535824,8.32967652 20.01998,9.63502478 20.01998,11.006993 C20.01998,12.3789612 19.7535824,13.6709896 19.2207792,14.8831169 C18.687976,16.0952442 17.9687025,17.1541746 17.0629371,18.0599401 C16.1571716,18.9657055 15.0982412,19.6816491 13.8861139,20.2077922 C12.6739866,20.7339354 11.3786283,20.997003 10,20.997003 C8.62137173,20.997003 7.32601339,20.7339354 6.11388611,20.2077922 C4.90175884,19.6816491 3.84282837,18.9657055 2.93706294,18.0599401 C2.0312975,17.1541746 1.31535395,16.0952442 0.789210789,14.8831169 C0.263067632,13.6709896 0,12.3789612 0,11.006993 C0,9.63502478 0.259737662,8.33633646 0.779220779,7.11088911 C1.2987039,5.88544176 2.01464745,4.81652138 2.92707293,3.9040959 C3.8394984,2.99167043 4.89842887,2.27572687 6.1038961,1.75624376 C7.30936334,1.23676064 8.60805165,0.977022977 10,0.977022977 C11.3919484,0.977022977 12.6906367,1.23676064 13.8961039,1.75624376 C15.1015711,2.27572687 16.1605016,2.99167043 17.0729271,3.9040959 C17.9853525,4.81652138 18.7012961,5.87878182 19.2207792,7.09090909 Z M13.3466533,16.8411588 L16.6633367,10.987013 L13.3266733,5.15284715 L6.67332667,5.17282717 L3.33666334,10.987013 L6.65334665,16.8411588 L13.3466533,16.8411588 Z" id="" fill="#2B2826"></path>
            <text id="" font-family="dpl-iconfont" font-size="6" font-weight="normal" fill="#2B2826">
                <tspan x="7" y="13"></tspan>
            </text>
            <g id="icons-/-Error_Mark" transform="translate(0.000000, 13.000000)">
                <circle id="Oval" fill="#FFFFFF" fill-rule="nonzero" cx="4" cy="4" r="4"></circle>
                <path d="M4.00666043,0.66666822 C4.60923891,0.667230482 5.16978374,0.820408594 5.68831169,1.12620713 C6.1900347,1.42368891 6.5896311,1.82328531 6.88711289,2.32500833 C7.19347473,2.84449144 7.34665335,3.4050364 7.34665335,4.00666001 C7.34665335,4.60828362 7.19347473,5.16882857 6.88711289,5.68831169 C6.5896311,6.1900347 6.1900347,6.5896311 5.68831169,6.88711289 C5.16882857,7.19347473 4.60828362,7.34665335 4.00666001,7.34665335 C3.4050364,7.34665335 2.84449144,7.19347473 2.32500833,6.88711289 C1.82328531,6.5896311 1.42368891,6.1900347 1.12620713,5.68831169 C0.819845288,5.16882857 0.666666667,4.60828362 0.666666667,4.00666001 C0.666666667,3.4050364 0.819845288,2.84449144 1.12620713,2.32500833 C1.42368891,1.82328531 1.82328531,1.42368891 2.32500833,1.12620713 C2.84353627,0.820408594 3.4040811,0.667230482 4.00665958,0.66666822 L4.00666043,0.66666822 Z M4.00666043,0.66666822 C4.00555043,0.666667185 4.00444029,0.666666667 4.00333,0.666666667 L4.00999001,0.666666667 C4.00887973,0.666666667 4.00776958,0.666667185 4.00665958,0.66666822 L4.00666043,0.66666822 Z M4.34299034,5.67499167 L4.34299034,5.00899101 L3.67032967,5.00899101 L3.67032967,5.67499167 L4.34299034,5.67499167 Z M4.34299034,4.34299034 L4.34299034,2.33832834 L3.67032967,2.33832834 L3.67032967,4.34299034 L4.34299034,4.34299034 Z" id="" fill="#F83200"></path>
            </g>
        </g>
    </g>
</svg>