<?xml version="1.0" encoding="UTF-8"?>
<svg width="21px" height="20px" viewBox="0 0 21 20" version="1.1" xmlns="http://www.w3.org/2000/svg" xmlns:xlink="http://www.w3.org/1999/xlink">
    <!-- Generator: Sketch 51.3 (57544) - http://www.bohemiancoding.com/sketch -->
    <title>icons / classes/ BMC_AdministrationApplication_BIP_32_Error</title>
    <desc>Created with Sketch.</desc>
    <defs></defs>
    <g id="icons-/-classes/-BMC_AdministrationApplication_BIP_32" stroke="none" stroke-width="1" fill="none" fill-rule="evenodd">
        <g>
            <g id="icons-/-20x20-icon-field" transform="translate(1.000000, 0.000000)" fill="#F5A623" fill-rule="nonzero" opacity="0">
                <rect x="0" y="0" width="20" height="20"></rect>
            </g>
            <text id="" font-family="dpl-iconfont" font-size="10" font-weight="normal" fill="#2B2826">
                <tspan x="10" y="18"></tspan>
            </text>
            <path d="M8.49250749,14.1828172 C8.49250749,14.8621413 8.59240659,15.5281353 8.79220779,16.1808192 L2.998002,16.1808192 C2.4651988,16.1808192 1.99567303,15.9876809 1.58941059,15.6013986 C1.18314815,15.2151163 0.98001998,14.7422605 0.98001998,14.1828172 L0.98001998,2.19480519 C0.98001998,1.662002 1.17981818,1.19247622 1.57942058,0.786213786 C1.97902298,0.379951349 2.44521878,0.176823177 2.97802198,0.176823177 L18.962038,0.176823177 C19.5214813,0.176823177 19.9943371,0.376621379 20.3806194,0.776223776 C20.7669017,1.17582617 20.96004,1.64868192 20.96004,2.19480519 L20.96004,10.1868132 C20.4405568,9.45420879 19.7878827,8.84149431 19.001998,8.34865135 L19.001998,4.99200799 L2.97802198,4.99200799 L2.97802198,14.1828172 L8.49250749,14.1828172 Z M19.001998,2.19480519 L6.97402597,2.19480519 L6.97402597,3.39360639 L19.001998,3.39360639 L19.001998,2.19480519 Z M5.03596404,2.29470529 C4.88944316,2.44122617 4.81618382,2.61438462 4.81618382,2.81418581 C4.81618382,3.01398701 4.88944316,3.18714545 5.03596404,3.33366633 C5.18248492,3.48018721 5.36896324,3.55344655 5.5954046,3.55344655 C6.10156763,3.55344655 6.35464535,3.30036883 6.35464535,2.79420579 C6.35464535,2.58108452 6.28138601,2.40792607 6.13486513,2.27472527 C5.98834426,2.14152448 5.80852587,2.07492507 5.5954046,2.07492507 C5.38228332,2.07492507 5.195805,2.14818442 5.03596404,2.29470529 Z M3.05794206,2.29470529 C2.91142118,2.44122617 2.83816184,2.60772468 2.83816184,2.79420579 C2.83816184,3.00732707 2.90809121,3.18714545 3.04795205,3.33366633 C3.18781289,3.48018721 3.3643013,3.55344655 3.57742258,3.55344655 C4.08358561,3.55344655 4.33666334,3.30036883 4.33666334,2.79420579 C4.33666334,2.58108452 4.263404,2.40792607 4.11688312,2.27472527 C3.97036224,2.14152448 3.79054386,2.07492507 3.57742258,2.07492507 C3.3643013,2.07492507 3.19114286,2.14818442 3.05794206,2.29470529 Z" id="" fill="#2B2826"></path>
            <path d="M8.95486459,13.3186813 C8.96890679,13.3186813 8.97993978,13.3426571 8.98796389,13.3906094 C8.995988,13.4385617 9,13.4945052 9,13.5584416 C9,13.6223779 8.99348051,13.6783214 8.98044132,13.7262737 C8.96740214,13.774226 8.95386165,13.7982018 8.93981946,13.7982018 L6.06018054,13.7982018 C6.04613835,13.7982018 6.03259786,13.774226 6.01955868,13.7262737 C6.00651949,13.6783214 6,13.6223779 6,13.5584416 C6,13.4945052 6.00651949,13.4385617 6.01955868,13.3906094 C6.03259786,13.3426571 6.04613835,13.3186813 6.06018054,13.3186813 L8.95486459,13.3186813 Z M17.4125874,8.37862099 L15.6143856,8.37862099 L15.6143856,6.13136862 C15.6143856,6.09107538 15.6403594,6.05810868 15.6923077,6.03246753 C15.744256,6.00682638 15.8181813,5.99400599 15.9140859,5.99400599 L17.1128871,5.99400599 C17.2007996,5.99400599 17.272727,6.00682638 17.3286713,6.03246753 C17.3846157,6.05810868 17.4125874,6.09107538 17.4125874,6.13136862 L17.4125874,8.37862099 Z M14.4125874,8.37862099 L12.6143856,8.37862099 L12.6143856,7.13136862 C12.6143856,7.09107538 12.6403594,7.05810868 12.6923077,7.03246753 C12.744256,7.00682638 12.8181813,6.99400599 12.9140859,6.99400599 L14.1128871,6.99400599 C14.2007996,6.99400599 14.272727,7.00682638 14.3286713,7.03246753 C14.3846157,7.05810868 14.4125874,7.09107538 14.4125874,7.13136862 L14.4125874,8.37862099 Z M11.4065934,9.37862139 L9.60839161,11.3786214 L9.60839161,6.51102023 C9.60839161,6.47599258 9.63436537,6.44733403 9.68631369,6.42504371 C9.738262,6.40275339 9.81218733,6.39160839 9.90809191,6.39160839 L11.1068931,6.39160839 C11.1948056,6.39160839 11.266733,6.40275339 11.3226773,6.42504371 C11.3786217,6.44733403 11.4065934,6.47599258 11.4065934,6.51102023 L11.4065934,9.37862139 Z M8.3976024,13.3786214 L6.5994006,13.3786214 L6.5994006,11.1008991 C6.5994006,11.0049945 6.62737235,10.9290712 6.68331668,10.8731269 C6.73926102,10.8171825 6.81118837,10.7892108 6.8991009,10.7892108 L8.0979021,10.7892108 C8.19380667,10.7892108 8.26773201,10.8171825 8.31968032,10.8731269 C8.37162863,10.9290712 8.3976024,11.0049945 8.3976024,11.1008991 L8.3976024,13.3786214 Z" id="" fill="#2B2826"></path>
            <g id="icons-/-Error_Mark" transform="translate(1.000000, 12.000000)">
                <circle id="Oval" fill="#FFFFFF" fill-rule="nonzero" cx="4" cy="4" r="4"></circle>
                <path d="M4.00666043,0.66666822 C4.60923891,0.667230482 5.16978374,0.820408594 5.68831169,1.12620713 C6.1900347,1.42368891 6.5896311,1.82328531 6.88711289,2.32500833 C7.19347473,2.84449144 7.34665335,3.4050364 7.34665335,4.00666001 C7.34665335,4.60828362 7.19347473,5.16882857 6.88711289,5.68831169 C6.5896311,6.1900347 6.1900347,6.5896311 5.68831169,6.88711289 C5.16882857,7.19347473 4.60828362,7.34665335 4.00666001,7.34665335 C3.4050364,7.34665335 2.84449144,7.19347473 2.32500833,6.88711289 C1.82328531,6.5896311 1.42368891,6.1900347 1.12620713,5.68831169 C0.819845288,5.16882857 0.666666667,4.60828362 0.666666667,4.00666001 C0.666666667,3.4050364 0.819845288,2.84449144 1.12620713,2.32500833 C1.42368891,1.82328531 1.82328531,1.42368891 2.32500833,1.12620713 C2.84353627,0.820408594 3.4040811,0.667230482 4.00665958,0.66666822 L4.00666043,0.66666822 Z M4.00666043,0.66666822 C4.00555043,0.666667185 4.00444029,0.666666667 4.00333,0.666666667 L4.00999001,0.666666667 C4.00887973,0.666666667 4.00776958,0.666667185 4.00665958,0.66666822 L4.00666043,0.66666822 Z M4.34299034,5.67499167 L4.34299034,5.00899101 L3.67032967,5.00899101 L3.67032967,5.67499167 L4.34299034,5.67499167 Z M4.34299034,4.34299034 L4.34299034,2.33832834 L3.67032967,2.33832834 L3.67032967,4.34299034 L4.34299034,4.34299034 Z" id="" fill="#F83200"></path>
            </g>
        </g>
    </g>
</svg>