<?xml version="1.0" encoding="UTF-8"?>
<svg width="20px" height="20px" viewBox="0 0 20 20" version="1.1" xmlns="http://www.w3.org/2000/svg" xmlns:xlink="http://www.w3.org/1999/xlink">
    <!-- Generator: Sketch 51.3 (57544) - http://www.bohemiancoding.com/sketch -->
    <title>icons / classes/ BMC_ResourcePool_32</title>
    <desc>Created with Sketch.</desc>
    <defs></defs>
    <g id="icons-/-classes/-BMC_ResourcePool_32" stroke="none" stroke-width="1" fill="none" fill-rule="evenodd">
        <g id="icons-/-classes/-Resources-Pool">
            <g id="icons-/-20x20-icon-field" fill="#F5A623" fill-rule="nonzero" opacity="0">
                <rect x="0" y="0" width="20" height="20"></rect>
            </g>
            <path d="M16.8781219,9.36463536 C16.9260742,9.59240873 16.9620378,9.80819079 16.986014,10.011988 C17.0099901,10.2637375 17.021978,10.4915075 17.021978,10.6953047 L17.021978,10.7852148 C16.7462524,10.6893102 16.4615399,10.605395 16.1678322,10.5334665 C15.8741244,10.4615381 15.5714301,10.4255744 15.2597403,10.4255744 C14.6363605,10.4255744 14.0489538,10.5484503 13.4975025,10.7942058 C12.9460512,11.0399613 12.4695325,11.3636344 12.0679321,11.7652348 C11.6663317,12.1668352 11.3456555,12.6373599 11.1058941,13.1768232 C10.8661327,13.7162864 10.7462537,14.3006962 10.7462537,14.9300699 C10.7462537,15.5594437 10.8631357,16.1438534 11.0969031,16.6833167 C11.3306705,17.2227799 11.6453527,17.6903077 12.040959,18.0859141 C11.5854123,18.2897113 11.0969057,18.4425569 10.5754246,18.5444555 C10.0539434,18.6463542 9.52647619,18.6973027 8.99300699,18.6973027 C8.45953779,18.6973027 7.93506751,18.6463542 7.41958042,18.5444555 C6.90409333,18.4425569 6.39460791,18.2837174 5.89110889,18.0679321 C5.38760987,17.8521468 4.93206997,17.606395 4.52447552,17.3306693 C4.06892879,17.0189795 3.67332835,16.6893124 3.33766234,16.3416583 C2.97802018,15.9820162 2.65734407,15.5954067 2.37562438,15.1818182 C2.09390469,14.7682297 1.83916198,14.3036989 1.61138861,13.7882118 C1.40759139,13.320677 1.25174879,12.8231795 1.14385614,12.2957043 C1.04795157,11.8041933 1,11.2767261 1,10.7132867 C1,10.1498473 1.05094854,9.60739521 1.15284715,9.08591409 C1.25474576,8.56443296 1.41358533,8.06993241 1.62937063,7.6023976 C1.84515592,7.08691051 2.09090771,6.62537666 2.36663337,6.21778222 C2.67832324,5.77422356 3.00799027,5.38461706 3.35564436,5.04895105 C3.71528651,4.67732082 4.10189603,4.35065076 4.51548452,4.06893107 C4.929073,3.78721138 5.3846129,3.53846262 5.88211788,3.32267732 C6.37962287,3.10689203 6.88611131,2.94505548 7.4015984,2.83716284 C7.91708549,2.72927019 8.45054669,2.67532468 9.001998,2.67532468 C9.20579522,2.67532468 9.43356517,2.68731257 9.68531469,2.71128871 C9.87712384,2.73526486 10.0988998,2.77122853 10.3506494,2.81918082 C10.5544466,2.86713311 10.7642347,2.92107862 10.98002,2.98101898 C11.1958053,3.04095934 11.3995994,3.11288669 11.5914086,3.1968032 L8.98401598,10.7132867 L16.5004995,8.21378621 C16.5724279,8.35764308 16.6443553,8.53446449 16.7162837,8.74425574 C16.7882121,8.954047 16.8421577,9.16083814 16.8781219,9.36463536 Z M18.2267732,4.02397602 C18.3706301,4.26373746 18.5174818,4.53346503 18.6673327,4.83316683 C18.8171836,5.13286863 18.9340655,5.42057804 19.017982,5.6963037 L11.4115884,8.28571429 L14.000999,0.679320679 C14.2887127,0.775225255 14.5734252,0.88911023 14.8551449,1.02097902 C15.1368645,1.15284781 15.415583,1.30869041 15.6913087,1.48851149 C15.9910105,1.68032064 16.2367623,1.85414507 16.4285714,2.00999001 C16.6803209,2.20179916 16.9110879,2.40559333 17.1208791,2.62137862 C17.3306704,2.83716392 17.5254736,3.05893992 17.7052947,3.28671329 C17.8731277,3.50249858 18.0469521,3.74825037 18.2267732,4.02397602 Z M18.1998002,15.5684316 L18.2087912,15.5684316 L18.1368631,15.6043956 L18.046953,15.6403596 L17.975025,15.7122877 C17.9630369,15.7242758 17.957043,15.7482516 17.957043,15.7842158 L17.7412587,16.2877123 C17.7052945,16.3356646 17.6933066,16.3896101 17.7052947,16.4495504 C17.7172828,16.5094908 17.7412586,16.5634363 17.7772228,16.6113886 L18.2087912,17.024975 C18.2327674,17.0489512 18.2477522,17.06993 18.2537463,17.0879121 C18.2597403,17.1058942 18.2627373,17.1388609 18.2627373,17.1868132 L18.2627373,17.2407592 C18.2507492,17.2647354 18.2327674,17.2827172 18.2087912,17.2947053 L17.6153846,17.9060939 C17.5794204,17.93007 17.5554446,17.9480519 17.5434565,17.96004 L17.3816184,17.96004 L16.8961039,17.4745255 C16.8481516,17.4265732 16.7972031,17.4025974 16.7432567,17.4025974 C16.6893104,17.4025974 16.6383619,17.4085913 16.5904096,17.4205794 L16.0689311,17.6363636 C16.0089907,17.6603398 15.9640361,17.6933065 15.9340659,17.7352647 C15.9040958,17.777223 15.8891109,17.8341655 15.8891109,17.9060939 L15.8891109,18.5174825 L15.8711289,18.5894106 C15.8711289,18.6133867 15.859141,18.6313686 15.8351648,18.6433566 L15.7632368,18.6973027 L14.8461538,18.6973027 C14.8101896,18.6973027 14.7802199,18.6913088 14.7562438,18.6793207 C14.7322676,18.6673326 14.7112888,18.6523477 14.6933067,18.6343656 C14.6753246,18.6163835 14.6633367,18.5984017 14.6573427,18.5804196 C14.6513486,18.5624375 14.6483516,18.5294708 14.6483516,18.4815185 L14.6483516,17.8701299 C14.6483516,17.8341657 14.6393607,17.801199 14.6213786,17.7712288 C14.6033965,17.7412586 14.5884116,17.7202798 14.5764236,17.7082917 L14.5224775,17.6543457 C14.4985014,17.6303695 14.4745256,17.6183816 14.4505495,17.6183816 L13.9470529,17.4025974 C13.8751245,17.3666332 13.8121881,17.3516483 13.7582418,17.3576424 C13.7042954,17.3636364 13.6593408,17.3906092 13.6233766,17.4385614 L13.1738262,17.8881119 C13.14985,17.912088 13.1258742,17.9240759 13.1018981,17.9240759 L13.047952,17.9420579 L12.958042,17.9240759 C12.9340658,17.9240759 12.916084,17.912088 12.9040959,17.8881119 L12.2927073,17.2947053 L12.2387612,17.2227772 L12.2387612,17.0609391 L12.2927073,17.006993 L12.7242757,16.5574426 C12.772228,16.5214783 12.7992008,16.4765237 12.8051948,16.4225774 C12.8111888,16.3686311 12.796204,16.3116886 12.7602398,16.2517483 L12.5624376,15.7482517 C12.5384614,15.6763233 12.5084917,15.6253748 12.4725275,15.5954046 C12.4365633,15.5654344 12.3826177,15.5504496 12.3106893,15.5504496 L11.6993007,15.5504496 L11.6093906,15.5324675 C11.5854145,15.5324675 11.5644357,15.5204796 11.5464535,15.4965035 C11.5284714,15.4725274 11.5194805,15.4545455 11.5194805,15.4425574 L11.5014985,15.3706294 L11.5014985,14.5074925 C11.5014985,14.4715283 11.5074924,14.4415586 11.5194805,14.4175824 C11.5314686,14.3936063 11.5464535,14.3726275 11.5644356,14.3546454 C11.5824177,14.3366632 11.6003995,14.3246754 11.6183816,14.3186813 C11.6363637,14.3126873 11.6633365,14.3096903 11.6993007,14.3096903 L12.3286713,14.3096903 C12.3526475,14.3096903 12.3796202,14.3036964 12.4095904,14.2917083 C12.4395606,14.2797202 12.4665333,14.2617384 12.4905095,14.2377622 L12.5444555,14.2017982 C12.5684317,14.1778221 12.5804196,14.1538463 12.5804196,14.1298701 L12.7782218,13.6083916 C12.8261741,13.5484512 12.8441559,13.4945057 12.8321678,13.4465534 C12.8201798,13.3986012 12.79021,13.3506496 12.7422577,13.3026973 L12.3106893,12.8711289 C12.2867132,12.8591408 12.2717283,12.841159 12.2657343,12.8171828 C12.2597402,12.7932067 12.2567433,12.7632369 12.2567433,12.7272727 L12.2567433,12.6553447 L12.3106893,12.6013986 L12.9220779,12.007992 C12.9460541,11.9840159 12.9670329,11.966034 12.985015,11.954046 C13.0029971,11.9420579 13.0269729,11.9360639 13.0569431,11.9360639 C13.0869132,11.9360639 13.113886,11.9420579 13.1378621,11.954046 L13.1918082,12.007992 L13.6413586,12.4215784 C13.6893109,12.4815188 13.7402595,12.5114885 13.7942058,12.5114885 C13.8481521,12.5114885 13.8991007,12.4995006 13.9470529,12.4755245 L14.4505495,12.2777223 C14.4985017,12.2537461 14.5434563,12.2207794 14.5854146,12.1788212 C14.6273728,12.1368629 14.6483516,12.0799204 14.6483516,12.007992 L14.6483516,11.3246753 C14.6603397,11.3006992 14.6753246,11.2797204 14.6933067,11.2617383 C14.7112888,11.2437562 14.7322676,11.2287713 14.7562438,11.2167832 L14.8281718,11.1988012 L15.6913087,11.1988012 C15.7152848,11.1988012 15.7332667,11.2047951 15.7452547,11.2167832 L15.8171828,11.2527473 C15.853147,11.2887115 15.8711289,11.3126873 15.8711289,11.3246753 L15.8891109,11.3966034 L15.8891109,12.0979021 C15.901099,12.1218782 15.9190808,12.145854 15.9430569,12.1698302 L15.997003,12.2417582 L16.0869131,12.2777223 L16.5724276,12.4755245 C16.6323679,12.5114887 16.6893104,12.5264736 16.7432567,12.5204795 C16.7972031,12.5144855 16.8481516,12.4875127 16.8961039,12.4395604 L17.3276723,11.99001 C17.3396604,11.9780219 17.3636362,11.966034 17.3996004,11.954046 L17.4715285,11.9360639 C17.5074927,11.9360639 17.5314685,11.9420579 17.5434565,11.954046 L17.6153846,11.99001 L18.2087912,12.6013986 C18.2447554,12.6253747 18.2627373,12.6433566 18.2627373,12.6553447 L18.2807193,12.7272727 C18.2807193,12.775225 18.2747253,12.8051947 18.2627373,12.8171828 L18.2087912,12.8891109 L17.7772228,13.3026973 C17.7292705,13.3626377 17.7022977,13.4165832 17.6963037,13.4645355 C17.6903097,13.5124878 17.7052945,13.5664333 17.7412587,13.6263736 L17.957043,14.1298701 C17.969031,14.2017986 17.9960038,14.2527471 18.037962,14.2827173 C18.0799203,14.3126875 18.1308688,14.3276723 18.1908092,14.3276723 L18.8201798,14.3276723 C18.856144,14.3276723 18.8861138,14.3336663 18.9100899,14.3456543 L18.964036,14.3816184 L19,14.4535465 L19.017982,14.5254745 L19.017982,15.3886114 C19.017982,15.4125875 19.0119881,15.4365633 19,15.4605395 L18.964036,15.5144855 L18.8921079,15.5684316 L18.1998002,15.5684316 Z M14.6483516,16.5214785 C14.8401608,16.593407 15.043955,16.6293706 15.2597403,16.6293706 C15.4755256,16.6293706 15.6763227,16.59041 15.8621379,16.5124875 C16.047953,16.434565 16.2187804,16.3206801 16.3746254,16.1708292 C16.5304703,16.0209783 16.6473523,15.8531478 16.7252747,15.6673327 C16.8031972,15.4815176 16.8421578,15.2777234 16.8421578,15.0559441 C16.8421578,14.8341647 16.8031972,14.6333675 16.7252747,14.4535465 C16.6473523,14.2737254 16.5334673,14.1028979 16.3836164,13.9410589 C16.2337655,13.77922 16.062938,13.659341 15.8711289,13.5814186 C15.6793197,13.5034961 15.4755256,13.4645355 15.2597403,13.4645355 C15.043955,13.4645355 14.8461547,13.5004991 14.6663337,13.5724276 C14.4865126,13.644356 14.3156851,13.758241 14.1538462,13.9140859 C13.9920072,14.0699308 13.8721283,14.2437553 13.7942058,14.4355644 C13.7162833,14.6273736 13.6773227,14.8311678 13.6773227,15.046953 C13.6773227,15.2627383 13.7132864,15.4605386 13.7852148,15.6403596 C13.8571432,15.8201807 13.9710282,15.9910082 14.1268731,16.1528472 C14.2827181,16.3146861 14.4565425,16.437562 14.6483516,16.5214785 Z" id="" fill="#2B2826"></path>
        </g>
        <g id="icons-/-Error_Mark" transform="translate(0.000000, 12.000000)" opacity="0">
            <circle id="Oval" fill="#FFFFFF" fill-rule="nonzero" cx="4" cy="4" r="4"></circle>
            <path d="M4.00666043,0.66666822 C4.60923891,0.667230482 5.16978374,0.820408594 5.68831169,1.12620713 C6.1900347,1.42368891 6.5896311,1.82328531 6.88711289,2.32500833 C7.19347473,2.84449144 7.34665335,3.4050364 7.34665335,4.00666001 C7.34665335,4.60828362 7.19347473,5.16882857 6.88711289,5.68831169 C6.5896311,6.1900347 6.1900347,6.5896311 5.68831169,6.88711289 C5.16882857,7.19347473 4.60828362,7.34665335 4.00666001,7.34665335 C3.4050364,7.34665335 2.84449144,7.19347473 2.32500833,6.88711289 C1.82328531,6.5896311 1.42368891,6.1900347 1.12620713,5.68831169 C0.819845288,5.16882857 0.666666667,4.60828362 0.666666667,4.00666001 C0.666666667,3.4050364 0.819845288,2.84449144 1.12620713,2.32500833 C1.42368891,1.82328531 1.82328531,1.42368891 2.32500833,1.12620713 C2.84353627,0.820408594 3.4040811,0.667230482 4.00665958,0.66666822 L4.00666043,0.66666822 Z M4.00666043,0.66666822 C4.00555043,0.666667185 4.00444029,0.666666667 4.00333,0.666666667 L4.00999001,0.666666667 C4.00887973,0.666666667 4.00776958,0.666667185 4.00665958,0.66666822 L4.00666043,0.66666822 Z M4.34299034,5.67499167 L4.34299034,5.00899101 L3.67032967,5.00899101 L3.67032967,5.67499167 L4.34299034,5.67499167 Z M4.34299034,4.34299034 L4.34299034,2.33832834 L3.67032967,2.33832834 L3.67032967,4.34299034 L4.34299034,4.34299034 Z" id="" fill="#F83200"></path>
        </g>
    </g>
</svg>