<?xml version="1.0" encoding="UTF-8"?>
<svg width="20px" height="20px" viewBox="0 0 20 20" version="1.1" xmlns="http://www.w3.org/2000/svg" xmlns:xlink="http://www.w3.org/1999/xlink">
    <!-- Generator: Sketch 51.3 (57544) - http://www.bohemiancoding.com/sketch -->
    <title>icons / classes/ BMC_BIOSElement_32_Error</title>
    <desc>Created with Sketch.</desc>
    <defs>
        <polygon id="path-1" points="8.33333333e-05 0 20 0 20 20 8.33333333e-05 20"></polygon>
    </defs>
    <g id="icons-/-classes/-BMC_BIOSElement_32" stroke="none" stroke-width="1" fill="none" fill-rule="evenodd">
        <g id="icons-/-classes/-BIOS-Element">
            <g id="icons-/-20x20-icon-field" fill="#F5A623" fill-rule="nonzero" opacity="0">
                <rect x="0" y="0" width="20" height="20"></rect>
            </g>
            <g id="Group-3">
                <mask id="mask-2" fill="white">
                    <use xlink:href="#path-1"></use>
                </mask>
                <g id="Clip-2"></g>
                <path d="M16.71675,4.16666667 C16.3750833,4.16666667 16.09175,4.4 15.9834167,4.725 L15.6750833,4.725 L15.6750833,3.05833333 C15.6750833,2.75 15.44175,2.5 15.1584167,2.5 L13.59175,2.5 L13.59175,2.825 C13.9000833,2.94166667 14.11675,3.25 14.11675,3.60833333 C14.11675,4.075 13.76675,4.44166667 13.3334167,4.44166667 C12.9000833,4.44166667 12.5500833,4.075 12.5500833,3.60833333 C12.5500833,3.25 12.76675,2.94166667 13.0750833,2.825 L13.0750833,2.5 L11.5084167,2.5 C11.2250833,2.5 10.99175,2.75 10.99175,3.05833333 L10.99175,4.725 L10.6834167,4.725 C10.5750833,4.4 10.29175,4.16666667 9.95008333,4.16666667 C9.51675,4.16666667 9.16675,4.54166667 9.16675,5 C9.16675,5.45833333 9.51675,5.83333333 9.95008333,5.83333333 C10.29175,5.83333333 10.5750833,5.6 10.6834167,5.275 L10.99175,5.275 L10.99175,6.94166667 C10.99175,7.25 11.2250833,7.5 11.5084167,7.5 L13.0750833,7.5 L13.0750833,7.175 C12.76675,7.05833333 12.5500833,6.75 12.5500833,6.39166667 C12.5500833,5.925 12.9000833,5.55833333 13.3334167,5.55833333 C13.76675,5.55833333 14.11675,5.925 14.11675,6.39166667 C14.11675,6.75 13.9000833,7.05833333 13.59175,7.175 L13.59175,7.5 L15.1584167,7.5 C15.44175,7.5 15.6750833,7.25 15.6750833,6.94166667 L15.6750833,5.275 L15.9834167,5.275 C16.09175,5.6 16.3750833,5.83333333 16.71675,5.83333333 C17.1500833,5.83333333 17.5000833,5.45833333 17.5000833,5 C17.5000833,4.54166667 17.1500833,4.16666667 16.71675,4.16666667 Z M8.33341667,15 L9.16675,15 L9.16675,14.1666667 L8.33341667,14.1666667 L8.33341667,15 Z M8.33341667,16.6666667 L9.16675,16.6666667 L9.16675,15.8333333 L8.33341667,15.8333333 L8.33341667,16.6666667 Z M2.50008333,18.3333333 L8.33341667,18.3333333 L8.33341667,17.5 L2.50008333,17.5 L2.50008333,18.3333333 Z M1.66675,16.6666667 L2.50008333,16.6666667 L2.50008333,15.8333333 L1.66675,15.8333333 L1.66675,16.6666667 Z M1.66675,15 L2.50008333,15 L2.50008333,14.1666667 L1.66675,14.1666667 L1.66675,15 Z M3.33341667,16.6666667 L4.16675,16.6666667 L4.16675,15.8333333 L3.33341667,15.8333333 L3.33341667,16.6666667 Z M3.33341667,15 L4.16675,15 L4.16675,14.1666667 L3.33341667,14.1666667 L3.33341667,15 Z M5.00008333,16.6666667 L5.83341667,16.6666667 L5.83341667,15.8333333 L5.00008333,15.8333333 L5.00008333,16.6666667 Z M5.00008333,15 L5.83341667,15 L5.83341667,14.1666667 L5.00008333,14.1666667 L5.00008333,15 Z M6.66675,16.6666667 L7.50008333,16.6666667 L7.50008333,15.8333333 L6.66675,15.8333333 L6.66675,16.6666667 Z M6.66675,15 L7.50008333,15 L7.50008333,14.1666667 L6.66675,14.1666667 L6.66675,15 Z M10.0000833,12.5 L0.833416667,12.5 C0.375083333,12.5 8.33333333e-05,12.875 8.33333333e-05,13.3333333 L8.33333333e-05,19.1666667 C8.33333333e-05,19.625 0.375083333,20 0.833416667,20 L10.0000833,20 C10.4584167,20 10.8334167,19.625 10.8334167,19.1666667 L10.8334167,13.3333333 C10.8334167,12.875 10.4584167,12.5 10.0000833,12.5 Z M15.8334167,12.5 L12.3500833,12.5 C12.1750833,12.0083333 11.8500833,11.5833333 11.4334167,11.2916667 L11.4334167,11.2833333 C11.5834167,11.0083333 11.86675,10.8333333 12.1834167,10.8333333 L14.4834167,10.8333333 C14.8000833,10.8333333 15.09175,11.0083333 15.2334167,11.2916667 L15.8334167,12.5 Z M7.91675,8.75 L18.7500833,8.75 L18.7500833,1.25 L7.91675,1.25 L7.91675,8.75 Z M19.21675,0 L7.45008333,0 C7.01675,0 6.66675,0.35 6.66675,0.783333333 L6.66675,9.21666667 C6.66675,9.65 7.01675,10 7.45008333,10 L19.21675,10 C19.6500833,10 20.0000833,9.65 20.0000833,9.21666667 L20.0000833,0.783333333 C20.0000833,0.35 19.6500833,0 19.21675,0 Z" id="Fill-1" fill="#333333" mask="url(#mask-2)"></path>
            </g>
        </g>
        <g id="icons-/-Error_Mark" transform="translate(0.000000, 12.000000)">
            <circle id="Oval" fill="#FFFFFF" fill-rule="nonzero" cx="4" cy="4" r="4"></circle>
            <path d="M4.00666043,0.66666822 C4.60923891,0.667230482 5.16978374,0.820408594 5.68831169,1.12620713 C6.1900347,1.42368891 6.5896311,1.82328531 6.88711289,2.32500833 C7.19347473,2.84449144 7.34665335,3.4050364 7.34665335,4.00666001 C7.34665335,4.60828362 7.19347473,5.16882857 6.88711289,5.68831169 C6.5896311,6.1900347 6.1900347,6.5896311 5.68831169,6.88711289 C5.16882857,7.19347473 4.60828362,7.34665335 4.00666001,7.34665335 C3.4050364,7.34665335 2.84449144,7.19347473 2.32500833,6.88711289 C1.82328531,6.5896311 1.42368891,6.1900347 1.12620713,5.68831169 C0.819845288,5.16882857 0.666666667,4.60828362 0.666666667,4.00666001 C0.666666667,3.4050364 0.819845288,2.84449144 1.12620713,2.32500833 C1.42368891,1.82328531 1.82328531,1.42368891 2.32500833,1.12620713 C2.84353627,0.820408594 3.4040811,0.667230482 4.00665958,0.66666822 L4.00666043,0.66666822 Z M4.00666043,0.66666822 C4.00555043,0.666667185 4.00444029,0.666666667 4.00333,0.666666667 L4.00999001,0.666666667 C4.00887973,0.666666667 4.00776958,0.666667185 4.00665958,0.66666822 L4.00666043,0.66666822 Z M4.34299034,5.67499167 L4.34299034,5.00899101 L3.67032967,5.00899101 L3.67032967,5.67499167 L4.34299034,5.67499167 Z M4.34299034,4.34299034 L4.34299034,2.33832834 L3.67032967,2.33832834 L3.67032967,4.34299034 L4.34299034,4.34299034 Z" id="" fill="#F83200"></path>
        </g>
    </g>
</svg>