<?xml version="1.0" encoding="UTF-8"?>
<svg width="20px" height="20px" viewBox="0 0 20 20" version="1.1" xmlns="http://www.w3.org/2000/svg" xmlns:xlink="http://www.w3.org/1999/xlink">
    <!-- Generator: Sketch 51.3 (57544) - http://www.bohemiancoding.com/sketch -->
    <title>icons / classes/ BMC_DataBase_32</title>
    <desc>Created with Sketch.</desc>
    <defs></defs>
    <g id="icons-/-classes/-BMC_DataBase_32" stroke="none" stroke-width="1" fill="none" fill-rule="evenodd">
        <g id="icons-/-classes/-Database">
            <g id="icons-/-20x20-icon-field" fill="#F5A623" fill-rule="nonzero" opacity="0">
                <rect x="0" y="0" width="20" height="20"></rect>
            </g>
            <path d="M16.011988,5.84015984 L16.011988,16.1258741 C16.011988,16.5934089 15.7452574,17.024973 15.2117882,17.4205794 C14.678319,17.8161858 13.9620425,18.127871 13.0629371,18.3556444 C12.1278675,18.5834177 11.1118936,18.6973027 10.014985,18.6973027 C8.91807643,18.6973027 7.90210258,18.5834177 6.96703297,18.3556444 C6.0559395,18.127871 5.333669,17.8161858 4.8001998,17.4205794 C4.2667306,17.024973 4,16.5934089 4,16.1258741 L4,5.84015984 C4,6.29570657 4.2667306,6.72127674 4.8001998,7.11688312 C5.333669,7.51248949 6.0559395,7.82417469 6.96703297,8.05194805 C7.90210258,8.29170949 8.91807643,8.41158841 10.014985,8.41158841 C11.1118936,8.41158841 12.1278675,8.29170949 13.0629371,8.05194805 C13.9620425,7.82417469 14.678319,7.51548646 15.2117882,7.12587413 C15.7452574,6.73626179 16.011988,6.30769465 16.011988,5.84015984 Z M16.011988,4.02397602 C16.011988,4.49151083 15.7452574,4.92307495 15.2117882,5.31868132 C14.678319,5.71428769 13.9620425,6.01997894 13.0629371,6.23576424 C12.1278675,6.47552567 11.1118936,6.5954046 10.014985,6.5954046 C8.91807643,6.5954046 7.90210258,6.47552567 6.96703297,6.23576424 C6.0559395,6.01997894 5.333669,5.71428769 4.8001998,5.31868132 C4.2667306,4.92307495 4,4.49151083 4,4.02397602 L4,3.26873127 C4.04795229,2.80119646 4.34465262,2.36963235 4.89010989,1.97402597 C5.43556716,1.5784196 6.15184372,1.26673441 7.03896104,1.03896104 C7.96204258,0.811187672 8.95404065,0.697302697 10.014985,0.697302697 C11.0759294,0.697302697 12.0679275,0.811187672 12.991009,1.03896104 C13.8781263,1.26673441 14.5944029,1.5784196 15.1398601,1.97402597 C15.6853174,2.36963235 15.9760238,2.80119646 16.011988,3.26873127 L16.011988,4.02397602 Z" id="" fill="#333333"></path>
        </g>
        <g id="icons-/-Error_Mark" transform="translate(0.000000, 12.000000)" opacity="0">
            <circle id="Oval" fill="#FFFFFF" fill-rule="nonzero" cx="4" cy="4" r="4"></circle>
            <path d="M4.00666043,0.66666822 C4.60923891,0.667230482 5.16978374,0.820408594 5.68831169,1.12620713 C6.1900347,1.42368891 6.5896311,1.82328531 6.88711289,2.32500833 C7.19347473,2.84449144 7.34665335,3.4050364 7.34665335,4.00666001 C7.34665335,4.60828362 7.19347473,5.16882857 6.88711289,5.68831169 C6.5896311,6.1900347 6.1900347,6.5896311 5.68831169,6.88711289 C5.16882857,7.19347473 4.60828362,7.34665335 4.00666001,7.34665335 C3.4050364,7.34665335 2.84449144,7.19347473 2.32500833,6.88711289 C1.82328531,6.5896311 1.42368891,6.1900347 1.12620713,5.68831169 C0.819845288,5.16882857 0.666666667,4.60828362 0.666666667,4.00666001 C0.666666667,3.4050364 0.819845288,2.84449144 1.12620713,2.32500833 C1.42368891,1.82328531 1.82328531,1.42368891 2.32500833,1.12620713 C2.84353627,0.820408594 3.4040811,0.667230482 4.00665958,0.66666822 L4.00666043,0.66666822 Z M4.00666043,0.66666822 C4.00555043,0.666667185 4.00444029,0.666666667 4.00333,0.666666667 L4.00999001,0.666666667 C4.00887973,0.666666667 4.00776958,0.666667185 4.00665958,0.66666822 L4.00666043,0.66666822 Z M4.34299034,5.67499167 L4.34299034,5.00899101 L3.67032967,5.00899101 L3.67032967,5.67499167 L4.34299034,5.67499167 Z M4.34299034,4.34299034 L4.34299034,2.33832834 L3.67032967,2.33832834 L3.67032967,4.34299034 L4.34299034,4.34299034 Z" id="" fill="#F83200"></path>
        </g>
    </g>
</svg>