<?xml version="1.0" encoding="UTF-8"?>
<svg width="20px" height="20px" viewBox="0 0 20 20" version="1.1" xmlns="http://www.w3.org/2000/svg" xmlns:xlink="http://www.w3.org/1999/xlink">
    <!-- Generator: Sketch 51.3 (57544) - http://www.bohemiancoding.com/sketch -->
    <title>icons / classes/ BMC_CDROMDrive_32</title>
    <desc>Created with Sketch.</desc>
    <defs></defs>
    <g id="icons-/-classes/-BMC_CDROMDrive_32" stroke="none" stroke-width="1" fill="none" fill-rule="evenodd">
        <g id="icons-/-classes/-CD-ROM-Drive">
            <g id="icons-/-20x20-icon-field" fill="#F5A623" fill-rule="nonzero" opacity="0">
                <rect x="0" y="0" width="20" height="20"></rect>
            </g>
            <path d="M18.6043956,7.00899101 C18.6403598,7.1408598 18.6943053,7.34465397 18.7662338,7.62037962 L18.7662338,7.65634366 C18.8261741,7.87212895 18.8741257,8.08791101 18.9100899,8.3036963 C18.9340661,8.45954124 18.9580418,8.68731119 18.982018,8.98701299 C19.0059941,9.13086985 19.017982,9.35264585 19.017982,9.65234765 C19.017982,10.2757274 18.9580426,10.8871099 18.8381618,11.4865135 C18.7302692,12.0619409 18.5564448,12.6313658 18.3166833,13.1948052 C18.0769219,13.7582446 17.7982034,14.2737239 17.4805195,14.7412587 C17.1628356,15.2087935 16.8002018,15.6463516 16.3926074,16.0539461 C15.9850129,16.4615405 15.5444579,16.8241742 15.0709291,17.1418581 C14.5974002,17.459542 14.0879148,17.7382605 13.5424575,17.978022 C12.9970003,18.2177834 12.4275754,18.4005988 11.8341658,18.5264735 C11.2407563,18.6523483 10.6353677,18.7152847 10.017982,18.7152847 C9.40059631,18.7152847 8.79221079,18.6553453 8.19280719,18.5354645 C7.61737974,18.4275719 7.04795487,18.2417596 6.48451548,17.978022 C5.93306418,17.7502486 5.42657573,17.480521 4.96503497,17.1688312 C4.5034942,16.8571413 4.05694521,16.4915106 3.62537463,16.0719281 C3.21778018,15.6523456 2.85514644,15.2087935 2.53746254,14.7412587 C2.21977863,14.2737239 1.94106014,13.7582446 1.7012987,13.1948052 C1.46153726,12.6313658 1.28771283,12.0679349 1.17982018,11.5044955 C1.05993946,10.8451515 1,10.2277751 1,9.65234765 L1.03596404,9.65234765 C1.03596404,9.05294406 1.08990955,8.45354945 1.1978022,7.85414585 C1.30569485,7.29070647 1.49150717,6.72727554 1.75524476,6.16383616 C1.98301812,5.636361 2.25873964,5.12687558 2.58241758,4.63536464 C2.88211938,4.19180597 3.24775009,3.74825397 3.67932068,3.3046953 C4.07492705,2.90908893 4.51548209,2.54945217 5.000999,2.22577423 C5.48651591,1.90209628 5.99300436,1.62637477 6.52047952,1.3986014 C7.0839189,1.15883996 7.64734983,0.985015524 8.21078921,0.877122877 C8.83416895,0.757242158 9.44555145,0.697302697 10.044955,0.697302697 C10.5964064,0.697302697 11.1238736,0.745254266 11.6273726,0.841158841 C12.1788239,0.937063417 12.6913063,1.07492418 13.1648352,1.25474525 C13.638364,1.43456633 14.1028948,1.65634234 14.5584416,1.92007992 C14.9780241,2.17182943 15.4035942,2.47152673 15.8351648,2.81918082 C16.0989024,3.04695419 16.36863,3.30469387 16.6443556,3.59240759 C16.872129,3.83216903 17.1118869,4.12587239 17.3636364,4.47352647 C17.5554455,4.73726406 17.7592397,5.06093714 17.975025,5.44455544 C18.142858,5.75624531 18.2927066,6.09790024 18.4245754,6.46953047 L18.5324675,6.73926074 L18.6043956,7.00899101 Z M16.4645355,12.4575425 C16.6443565,12.049948 16.7822173,11.61239 16.8781219,11.1448551 C16.9620384,10.7132846 17.006993,10.2427598 17.012987,9.73326673 C17.018981,9.22377368 16.9740265,8.74725497 16.8781219,8.3036963 C16.7702292,7.81218535 16.6293715,7.3626394 16.4555445,6.95504496 C16.2817174,6.54745051 16.0689323,6.15784402 15.8171828,5.78621379 C15.5414572,5.39060741 15.2537478,5.04895249 14.954046,4.76123876 C14.6183799,4.43756082 14.273728,4.15284838 13.9200799,3.90709291 C13.5664318,3.66133743 13.1738283,3.4425584 12.7422577,3.25074925 C12.3226752,3.08291624 11.8791232,2.94505548 11.4115884,2.83716284 C11.015982,2.75324633 10.5484542,2.71128871 10.008991,2.71128871 C9.50549199,2.71128871 9.0379642,2.75924028 8.60639361,2.85514486 C8.12687073,2.9630375 7.67732478,3.10389523 7.25774226,3.27772228 C6.83815974,3.45154932 6.44555627,3.66433441 6.07992008,3.91608392 C5.71428389,4.16783343 5.37262896,4.45254586 5.05494505,4.77022977 C4.73726115,5.08791368 4.45254871,5.43256557 4.2007992,5.8041958 C3.96103776,6.15184989 3.7452557,6.54145638 3.55344655,6.97302697 C3.3616374,7.40459756 3.2177827,7.84814957 3.12187812,8.3036963 C3.02597355,8.79520725 2.97802198,9.27472294 2.97802198,9.74225774 C2.97802198,10.2337687 3.02597355,10.7012965 3.12187812,11.1448551 C3.22977077,11.624378 3.37362547,12.0619361 3.55344655,12.4575425 C3.73326763,12.889113 3.94904969,13.2937044 4.2007992,13.6713287 C4.45254871,14.0489529 4.73726115,14.3906079 5.05494505,14.6963037 C5.37262896,15.0019995 5.71428389,15.280718 6.07992008,15.5324675 C6.44555627,15.784217 6.84415369,16.005993 7.27572428,16.1978022 C7.70729487,16.3896113 8.14485293,16.5304691 8.58841159,16.6203796 C9.03197025,16.7102902 9.50249501,16.7552448 10,16.7552448 C10.497505,16.7552448 10.9680298,16.7072932 11.4115884,16.6113886 C11.9030994,16.503496 12.3466514,16.3656352 12.7422577,16.1978022 C13.1738283,15.994005 13.5694288,15.772229 13.9290709,15.5324675 C14.3366654,15.2447538 14.6843142,14.9570444 14.972028,14.6693307 C15.2957059,14.3456527 15.5714274,14.0099917 15.7992008,13.6623377 C16.0629384,13.2547432 16.2847144,12.8531488 16.4645355,12.4575425 Z M12.1488511,7.58441558 C12.4006007,7.83616509 12.5954039,8.10888964 12.7332667,8.4025974 C12.8711296,8.69630516 12.9580418,9.01698128 12.994006,9.36463536 C13.0059941,9.37662344 13.011988,9.40659317 13.011988,9.45454545 L13.02997,9.68831169 C13.02997,9.98801349 12.9850154,10.2727259 12.8951049,10.5424575 C12.8051944,10.8121892 12.6763245,11.0729258 12.5084915,11.3246753 C12.3406585,11.5764248 12.1518492,11.7892099 11.9420579,11.963037 C11.7322667,12.136864 11.4955058,12.2897096 11.2317682,12.4215784 C11.1838159,12.4575426 11.1358644,12.4845154 11.0879121,12.5024975 C11.0399598,12.5204796 10.9860143,12.5414584 10.9260739,12.5654346 L10.4585415,12.6733267 C10.4225772,12.6853147 10.3746257,12.6913087 10.3146853,12.6913087 L10.044955,12.7092907 L9.84715285,12.6913087 L9.77522478,12.6553447 C9.41558262,12.6433566 9.07992164,12.5654353 8.76823177,12.4215784 C8.4565419,12.2777216 8.16883249,12.0769244 7.90509491,11.8191808 C7.64135732,11.5614373 7.44056013,11.2707309 7.3026973,10.9470529 C7.16483448,10.623375 7.0839162,10.2817201 7.05994006,9.92207792 C7.05994006,9.89810178 7.05694309,9.88011994 7.05094905,9.86813187 C7.04495501,9.8561438 7.04195804,9.83516499 7.04195804,9.80519481 L7.04195804,9.68831169 C7.04195804,9.35264567 7.08990961,9.04096048 7.18581419,8.75324675 C7.28171876,8.46553303 7.41957952,8.19880243 7.5994006,7.95304695 C7.77922168,7.70729148 7.98900979,7.49750337 8.22877123,7.32367632 C8.46853267,7.14984928 8.74425419,7.0029976 9.05594406,6.88311688 C9.10389634,6.85914074 9.15184791,6.8411589 9.1998002,6.82917083 L9.36163836,6.79320679 C9.42157872,6.76923065 9.48151818,6.75124881 9.54145854,6.73926074 L9.72127872,6.73926074 L9.79320679,6.7032967 L10.2247752,6.7032967 C10.2487514,6.71528478 10.2787211,6.72127872 10.3146853,6.72127872 L10.3866134,6.72127872 C10.7222794,6.76923101 11.0369616,6.86213717 11.3306693,7 C11.6243771,7.13786283 11.8971016,7.33266607 12.1488511,7.58441558 Z M11.1238761,10.1378621 C11.1838165,10.0059933 11.2167832,9.85314772 11.2227772,9.67932068 C11.2287713,9.50549364 11.1988015,9.35264801 11.1328671,9.22077922 C11.0669327,9.08891043 10.9770235,8.96303756 10.8631369,8.84315684 C10.7492502,8.72327612 10.6233773,8.63336693 10.4855145,8.57342657 C10.3476517,8.51348621 10.197803,8.48351648 10.035964,8.48351648 C9.87412506,8.48351648 9.72427641,8.51348621 9.58641359,8.57342657 C9.44855076,8.63336693 9.31968092,8.72327612 9.1998002,8.84315684 C9.07991948,8.96303756 8.99300726,9.0919074 8.93906094,9.22977023 C8.88511462,9.36763306 8.85814186,9.51748171 8.85814186,9.67932068 C8.85814186,9.84115965 8.88511462,9.99400527 8.93906094,10.1378621 C8.99300726,10.281719 9.07692251,10.4105888 9.19080919,10.5244755 C9.30469587,10.6383622 9.43356571,10.7252744 9.57742258,10.7852148 C9.72127944,10.8451551 9.87112809,10.8751249 10.026973,10.8751249 C10.182818,10.8751249 10.3296696,10.8481521 10.4675325,10.7942058 C10.6053953,10.7402595 10.7402591,10.6533473 10.8721279,10.5334665 C10.9680324,10.44955 11.0519477,10.3176832 11.1238761,10.1378621 Z" id="" fill="#333333"></path>
        </g>
        <g id="icons-/-Error_Mark" transform="translate(0.000000, 12.000000)" opacity="0">
            <circle id="Oval" fill="#FFFFFF" fill-rule="nonzero" cx="4" cy="4" r="4"></circle>
            <path d="M4.00666043,0.66666822 C4.60923891,0.667230482 5.16978374,0.820408594 5.68831169,1.12620713 C6.1900347,1.42368891 6.5896311,1.82328531 6.88711289,2.32500833 C7.19347473,2.84449144 7.34665335,3.4050364 7.34665335,4.00666001 C7.34665335,4.60828362 7.19347473,5.16882857 6.88711289,5.68831169 C6.5896311,6.1900347 6.1900347,6.5896311 5.68831169,6.88711289 C5.16882857,7.19347473 4.60828362,7.34665335 4.00666001,7.34665335 C3.4050364,7.34665335 2.84449144,7.19347473 2.32500833,6.88711289 C1.82328531,6.5896311 1.42368891,6.1900347 1.12620713,5.68831169 C0.819845288,5.16882857 0.666666667,4.60828362 0.666666667,4.00666001 C0.666666667,3.4050364 0.819845288,2.84449144 1.12620713,2.32500833 C1.42368891,1.82328531 1.82328531,1.42368891 2.32500833,1.12620713 C2.84353627,0.820408594 3.4040811,0.667230482 4.00665958,0.66666822 L4.00666043,0.66666822 Z M4.00666043,0.66666822 C4.00555043,0.666667185 4.00444029,0.666666667 4.00333,0.666666667 L4.00999001,0.666666667 C4.00887973,0.666666667 4.00776958,0.666667185 4.00665958,0.66666822 L4.00666043,0.66666822 Z M4.34299034,5.67499167 L4.34299034,5.00899101 L3.67032967,5.00899101 L3.67032967,5.67499167 L4.34299034,5.67499167 Z M4.34299034,4.34299034 L4.34299034,2.33832834 L3.67032967,2.33832834 L3.67032967,4.34299034 L4.34299034,4.34299034 Z" id="" fill="#F83200"></path>
        </g>
    </g>
</svg>