<?xml version="1.0" encoding="UTF-8"?>
<svg width="20px" height="20px" viewBox="0 0 20 20" version="1.1" xmlns="http://www.w3.org/2000/svg" xmlns:xlink="http://www.w3.org/1999/xlink">
    <!-- Generator: Sketch 51.3 (57544) - http://www.bohemiancoding.com/sketch -->
    <title>icons / classes/ BMC_ActivityManual_32_Error</title>
    <desc>Created with Sketch.</desc>
    <defs></defs>
    <g id="icons-/-classes/-BMC_ActivityManual_32" stroke="none" stroke-width="1" fill="none" fill-rule="evenodd">
        <g>
            <g id="icons-/-20x20-icon-field" fill="#F5A623" fill-rule="nonzero" opacity="0">
                <rect x="0" y="0" width="20" height="20"></rect>
            </g>
            <path d="M17.7242757,0.476523477 C17.8574765,0.636364436 17.9640356,0.806192907 18.043956,0.986013986 C18.1238765,1.16583506 18.1638362,1.36896324 18.1638362,1.5954046 L18.1638362,18.2987013 C18.1638362,18.5384627 18.1205466,18.7515808 18.033966,18.9380619 C17.9473855,19.1245431 17.8108567,19.3076914 17.6243756,19.4875125 C17.4378945,19.6673336 17.2447562,19.8005324 17.044955,19.8871129 C16.8451538,19.9736934 16.6253758,20.016983 16.3856144,20.016983 L3.6983017,20.016983 C3.47186034,20.016983 3.25541229,19.9736934 3.04895105,19.8871129 C2.84248981,19.8005324 2.6660014,19.6706635 2.51948052,19.4975025 C2.34631948,19.3110214 2.21645065,19.1212131 2.12987013,18.9280719 C2.04328961,18.7349308 2,18.5251427 2,18.2987013 L2,1.75524476 C2,1.51548332 2.03995964,1.29570529 2.11988012,1.0959041 C2.1998006,0.896102897 2.32633946,0.702964635 2.4995005,0.516483516 C2.67266154,0.330002398 2.85580989,0.193473626 3.04895105,0.106893107 C3.24209221,0.0203125874 3.45854026,-0.022977023 3.6983017,-0.022977023 L5.85614386,-0.022977023 L5.85614386,1.51548452 L3.77822178,1.51548452 C3.72494146,1.51548452 3.68831179,1.51881449 3.66833167,1.52547453 C3.64835155,1.53213457 3.62504176,1.54212448 3.5984016,1.55544456 C3.57176144,1.56876464 3.55844156,1.5954044 3.55844156,1.63536464 L3.53846154,1.75524476 L3.53846154,18.2387612 C3.53846154,18.2787215 3.54179151,18.3086912 3.54845155,18.3286713 C3.55511159,18.3486514 3.57176144,18.3719612 3.5984016,18.3986014 L3.67832168,18.4385614 C3.69164176,18.4518815 3.72494146,18.4585415 3.77822178,18.4585415 L16.4255744,18.4585415 L16.5254745,18.3986014 L16.5854146,18.3386613 C16.6120547,18.2987011 16.6253746,18.2654014 16.6253746,18.2387612 L16.6253746,1.8951049 C16.6253746,1.8285045 16.6120547,1.771895 16.5854146,1.72527473 C16.5587744,1.67865445 16.5321347,1.63869481 16.5054945,1.60539461 C16.4788543,1.57209441 16.4388947,1.54878462 16.3856144,1.53546454 L16.2457542,1.51548452 L14.3076923,1.51548452 L14.3076923,-0.022977023 L16.6253746,-0.022977023 C16.8384959,-0.022977023 17.0382941,0.0203125874 17.2247752,0.106893107 C17.4112563,0.193473626 17.5777548,0.316682517 17.7242757,0.476523477 Z M10.9310689,11.005994 L13.4885115,8.44855145 L11.8901099,8.44855145 L11.8901099,7.50949051 L15.0869131,7.48951049 L15.0869131,10.6863137 L14.1278721,10.7062937 L14.1078921,9.16783217 L10.9310689,12.3246753 L8.39360639,9.80719281 L5.73626374,12.5044955 L5.07692308,11.8051948 L8.39360639,8.48851149 L10.9310689,11.005994 Z M12.7892108,-0.022977023 L12.7892108,2.29470529 L7.39460539,2.29470529 L7.39460539,-0.022977023 L12.7892108,-0.022977023 Z" id="" fill="#2B2826"></path>
            <g id="icons-/-Error_Mark" transform="translate(0.000000, 12.000000)">
                <circle id="Oval" fill="#FFFFFF" fill-rule="nonzero" cx="4" cy="4" r="4"></circle>
                <path d="M4.00666043,0.66666822 C4.60923891,0.667230482 5.16978374,0.820408594 5.68831169,1.12620713 C6.1900347,1.42368891 6.5896311,1.82328531 6.88711289,2.32500833 C7.19347473,2.84449144 7.34665335,3.4050364 7.34665335,4.00666001 C7.34665335,4.60828362 7.19347473,5.16882857 6.88711289,5.68831169 C6.5896311,6.1900347 6.1900347,6.5896311 5.68831169,6.88711289 C5.16882857,7.19347473 4.60828362,7.34665335 4.00666001,7.34665335 C3.4050364,7.34665335 2.84449144,7.19347473 2.32500833,6.88711289 C1.82328531,6.5896311 1.42368891,6.1900347 1.12620713,5.68831169 C0.819845288,5.16882857 0.666666667,4.60828362 0.666666667,4.00666001 C0.666666667,3.4050364 0.819845288,2.84449144 1.12620713,2.32500833 C1.42368891,1.82328531 1.82328531,1.42368891 2.32500833,1.12620713 C2.84353627,0.820408594 3.4040811,0.667230482 4.00665958,0.66666822 L4.00666043,0.66666822 Z M4.00666043,0.66666822 C4.00555043,0.666667185 4.00444029,0.666666667 4.00333,0.666666667 L4.00999001,0.666666667 C4.00887973,0.666666667 4.00776958,0.666667185 4.00665958,0.66666822 L4.00666043,0.66666822 Z M4.34299034,5.67499167 L4.34299034,5.00899101 L3.67032967,5.00899101 L3.67032967,5.67499167 L4.34299034,5.67499167 Z M4.34299034,4.34299034 L4.34299034,2.33832834 L3.67032967,2.33832834 L3.67032967,4.34299034 L4.34299034,4.34299034 Z" id="" fill="#F83200"></path>
            </g>
        </g>
    </g>
</svg>