<?xml version="1.0" encoding="UTF-8"?>
<svg width="20px" height="20px" viewBox="0 0 20 20" version="1.1" xmlns="http://www.w3.org/2000/svg" xmlns:xlink="http://www.w3.org/1999/xlink">
    <!-- Generator: Sketch 51.3 (57544) - http://www.bohemiancoding.com/sketch -->
    <title>icons / classes/  BMC_StorageExtent_32</title>
    <desc>Created with Sketch.</desc>
    <defs></defs>
    <g id="icons-/-classes/--BMC_StorageExtent_32" stroke="none" stroke-width="1" fill="none" fill-rule="evenodd">
        <g id="icons-/-classes/--extend-storage">
            <g id="icons-/-20x20-icon-field" fill="#F5A623" fill-rule="nonzero" opacity="0">
                <rect x="0" y="0" width="20" height="20"></rect>
            </g>
            <path d="M14.4083333,13.575 C14.0833333,13.9 14.0833333,14.4333333 14.4083333,14.7583333 C14.7333333,15.0833333 15.2666667,15.0833333 15.5916667,14.7583333 C15.9166667,14.4333333 15.9166667,13.9 15.5916667,13.575 C15.2666667,13.25 14.7333333,13.25 14.4083333,13.575 Z M16.175,12.9916667 C15.525,12.3333333 14.475,12.3333333 13.825,12.9916667 C13.1666667,13.6416667 13.1666667,14.6916667 13.825,15.3416667 C14.475,16 15.525,16 16.175,15.3416667 C16.8333333,14.6916667 16.8333333,13.6416667 16.175,12.9916667 Z M16.7666667,12.4 C17.7416667,13.375 17.7416667,14.9583333 16.7666667,15.9333333 C15.825,16.875 14.3083333,16.9083333 13.3333333,16.0166667 C13.3,15.9916667 13.2666667,15.9666667 13.2333333,15.9333333 C12.825,15.525 12.5833333,15 12.5166667,14.4583333 C12.4333333,13.725 12.675,12.9583333 13.2333333,12.4 C14.2083333,11.425 15.7916667,11.425 16.7666667,12.4 Z M17.95,11.2166667 C16.7,9.96666667 14.8583333,9.68333333 13.3333333,10.35 C12.8666667,10.5416667 12.4333333,10.8333333 12.05,11.2166667 C11.4333333,11.8416667 11.05,12.6 10.9,13.4 C10.7916667,13.9833333 10.8083333,14.5916667 10.9583333,15.1666667 C11.075,15.625 11.2666667,16.0583333 11.5333333,16.4666667 C11.85,16.2083333 12.3333333,16.2166667 12.6416667,16.525 C12.95,16.8333333 12.9583333,17.3166667 12.7,17.6333333 C12.7833333,17.6833333 12.8583333,17.7333333 12.9416667,17.7833333 C14.5333333,18.7 16.5833333,18.475 17.95,17.1166667 C19.575,15.4833333 19.575,12.85 17.95,11.2166667 Z M20,9.16666667 L20,19.1666667 C20,19.625 19.625,20 19.1666667,20 L10.8333333,20 C10.5,20 10.2166667,19.8083333 10.0833333,19.525 C10.0333333,19.4166667 10,19.2916667 10,19.1666667 L10,9.16666667 C10,8.70833333 10.375,8.33333333 10.8333333,8.33333333 L19.1666667,8.33333333 C19.625,8.33333333 20,8.70833333 20,9.16666667 Z M1.28333333,12.7916667 C1.34166667,12.8416667 1.40833333,12.8833333 1.475,12.9166667 C1.68333333,13.0583333 1.91666667,13.1833333 2.16666667,13.2916667 C2.55,13.4666667 2.975,13.625 3.43333333,13.75 C4.39166667,14.0166667 5.49166667,14.1666667 6.66666667,14.1666667 C7.24166667,14.1666667 7.8,14.1333333 8.33333333,14.0583333 L8.33333333,9.9 C7.8,9.96666667 7.24166667,10 6.66666667,10 C4.88333333,10 3.26666667,9.7 1.94166667,9.16666667 C1.71666667,9.08333333 1.49166667,8.98333333 1.28333333,8.875 C1,8.74166667 0.733333333,8.58333333 0.483333333,8.41666667 C0.4,8.36666667 0.325,8.31666667 0.25,8.25833333 C0.15,8.45 0.075,8.64166667 0.0333333333,8.83333333 C0.00833333333,8.94166667 0,9.05833333 0,9.16666667 L0,10.8333333 C0,11.5666667 0.475,12.2416667 1.28333333,12.7916667 Z M8.33333333,15.7333333 C7.8,15.8 7.24166667,15.8333333 6.66666667,15.8333333 C4.88333333,15.8333333 3.26666667,15.5333333 1.94166667,15 C1.71666667,14.9166667 1.49166667,14.8166667 1.28333333,14.7083333 C1,14.575 0.733333333,14.4166667 0.483333333,14.25 C0.4,14.2 0.325,14.15 0.25,14.0916667 C0.15,14.2833333 0.075,14.475 0.0333333333,14.6666667 C0.00833333333,14.775 0,14.8916667 0,15 L0,16.6666667 C0,18.5083333 2.98333333,20 6.66666667,20 C7.28333333,20 7.875,19.9583333 8.44166667,19.875 C8.36666667,19.65 8.33333333,19.4083333 8.33333333,19.1666667 L8.33333333,15.7333333 Z M10.8333333,6.66666667 C9.8,6.66666667 8.90833333,7.3 8.53333333,8.2 C7.94166667,8.29166667 7.31666667,8.33333333 6.66666667,8.33333333 C5.49166667,8.33333333 4.39166667,8.18333333 3.43333333,7.91666667 C2.975,7.79166667 2.55,7.63333333 2.16666667,7.45833333 C1.91666667,7.35 1.68333333,7.225 1.475,7.08333333 C1.40833333,7.05 1.34166667,7.00833333 1.28333333,6.95833333 C0.475,6.40833333 0,5.73333333 0,5 L0,3.33333333 C0,3.225 0.00833333333,3.10833333 0.0333333333,3 C0.325,1.54166667 2.49166667,0.358333333 5.325,0.0666666667 C5.51666667,0.05 5.725,0.0333333333 5.925,0.025 C6.16666667,0.00833333333 6.41666667,0 6.66666667,0 C6.91666667,0 7.16666667,0.00833333333 7.40833333,0.025 C7.60833333,0.0333333333 7.81666667,0.05 8.00833333,0.0666666667 C10.8416667,0.358333333 13.0083333,1.54166667 13.3,3 C13.325,3.10833333 13.3333333,3.225 13.3333333,3.33333333 L13.3333333,5 C13.3333333,5.60833333 13,6.18333333 12.425,6.66666667 L10.8333333,6.66666667 Z" id="Fill-1" fill="#333333"></path>
        </g>
        <g id="icons-/-Error_Mark" transform="translate(0.000000, 12.000000)" opacity="0">
            <circle id="Oval" fill="#FFFFFF" fill-rule="nonzero" cx="4" cy="4" r="4"></circle>
            <path d="M4.00666043,0.66666822 C4.60923891,0.667230482 5.16978374,0.820408594 5.68831169,1.12620713 C6.1900347,1.42368891 6.5896311,1.82328531 6.88711289,2.32500833 C7.19347473,2.84449144 7.34665335,3.4050364 7.34665335,4.00666001 C7.34665335,4.60828362 7.19347473,5.16882857 6.88711289,5.68831169 C6.5896311,6.1900347 6.1900347,6.5896311 5.68831169,6.88711289 C5.16882857,7.19347473 4.60828362,7.34665335 4.00666001,7.34665335 C3.4050364,7.34665335 2.84449144,7.19347473 2.32500833,6.88711289 C1.82328531,6.5896311 1.42368891,6.1900347 1.12620713,5.68831169 C0.819845288,5.16882857 0.666666667,4.60828362 0.666666667,4.00666001 C0.666666667,3.4050364 0.819845288,2.84449144 1.12620713,2.32500833 C1.42368891,1.82328531 1.82328531,1.42368891 2.32500833,1.12620713 C2.84353627,0.820408594 3.4040811,0.667230482 4.00665958,0.66666822 L4.00666043,0.66666822 Z M4.00666043,0.66666822 C4.00555043,0.666667185 4.00444029,0.666666667 4.00333,0.666666667 L4.00999001,0.666666667 C4.00887973,0.666666667 4.00776958,0.666667185 4.00665958,0.66666822 L4.00666043,0.66666822 Z M4.34299034,5.67499167 L4.34299034,5.00899101 L3.67032967,5.00899101 L3.67032967,5.67499167 L4.34299034,5.67499167 Z M4.34299034,4.34299034 L4.34299034,2.33832834 L3.67032967,2.33832834 L3.67032967,4.34299034 L4.34299034,4.34299034 Z" id="" fill="#F83200"></path>
        </g>
    </g>
</svg>