<?xml version="1.0" encoding="UTF-8"?>
<svg width="20px" height="20px" viewBox="0 0 20 20" version="1.1" xmlns="http://www.w3.org/2000/svg" xmlns:xlink="http://www.w3.org/1999/xlink">
    <!-- Generator: Sketch 51.3 (57544) - http://www.bohemiancoding.com/sketch -->
    <title>icons / classes/ BMC_FederatedBaseElement_32_Error</title>
    <desc>Created with Sketch.</desc>
    <defs>
        <polygon id="path-1" points="8e-05 0.00032 19.204 0.00032 19.204 19.204 8e-05 19.204"></polygon>
    </defs>
    <g id="icons-/-classes/-BMC_FederatedBaseElement_32" stroke="none" stroke-width="1" fill="none" fill-rule="evenodd">
        <g>
            <g id="icons-/-20x20-icon-field" fill="#F5A623" fill-rule="nonzero" opacity="0">
                <rect x="0" y="0" width="20" height="20"></rect>
            </g>
            <g id="Group-3">
                <mask id="mask-2" fill="white">
                    <use xlink:href="#path-1"></use>
                </mask>
                <g id="Clip-2"></g>
                <path d="M15.33008,11.69032 L13.60208,8.00232 L11.87408,11.69032 L8.00208,12.28152 L10.80208,15.14552 L10.19408,18.85832 L10.13808,19.20232 L13.60208,17.29032 L17.06608,19.20232 L16.40208,15.14552 L19.20208,12.28152 L15.33008,11.69032 Z M9.09008,15.69032 L8.61808,18.61752 C8.57008,18.59432 5.14608,15.17032 5.14608,15.17032 L4.49008,15.82632 C4.90608,16.70632 4.76208,17.78632 4.03408,18.51352 C3.11408,19.43432 1.61808,19.43432 0.69008,18.51352 C-0.22992,17.58632 -0.22992,16.09032 0.69008,15.17032 C1.41808,14.44152 2.49808,14.29832 3.37808,14.71352 L4.03408,14.05832 L0.69008,10.71352 C0.08208,10.10632 0.08208,9.09832 0.69008,8.49032 L4.03408,5.14552 L4.69008,5.80232 C4.26608,6.68152 4.41808,7.76232 5.14608,8.49032 C6.07408,9.40952 7.56208,9.40952 8.49008,8.49032 C9.41008,7.56232 9.41008,6.07352 8.49008,5.14552 C7.76208,4.41752 6.68208,4.26632 5.80208,4.69032 L5.14608,4.03432 L8.49008,0.69032 C9.09808,0.08152 10.10608,0.08152 10.71408,0.69032 L14.05808,4.03432 L14.71408,3.37752 C14.29808,2.49832 14.44208,1.41752 15.17008,0.69032 C16.09008,-0.22968 17.58608,-0.22968 18.51408,0.69032 C19.43408,1.61752 19.43408,3.11352 18.51408,4.03432 C17.78608,4.76232 16.70608,4.90632 15.82608,4.49032 L15.17008,5.14552 L18.51408,8.49032 C19.07408,9.04952 19.12208,9.95432 18.62608,10.57032 L16.41808,10.23432 L13.60208,4.23432 L10.78608,10.23432 L4.68208,11.17032 L9.09008,15.69032 Z" id="Fill-1" fill="#333333" mask="url(#mask-2)"></path>
            </g>
            <g id="icons-/-Error_Mark" transform="translate(0.000000, 12.000000)">
                <circle id="Oval" fill="#FFFFFF" fill-rule="nonzero" cx="4" cy="4" r="4"></circle>
                <path d="M4.00666043,0.66666822 C4.60923891,0.667230482 5.16978374,0.820408594 5.68831169,1.12620713 C6.1900347,1.42368891 6.5896311,1.82328531 6.88711289,2.32500833 C7.19347473,2.84449144 7.34665335,3.4050364 7.34665335,4.00666001 C7.34665335,4.60828362 7.19347473,5.16882857 6.88711289,5.68831169 C6.5896311,6.1900347 6.1900347,6.5896311 5.68831169,6.88711289 C5.16882857,7.19347473 4.60828362,7.34665335 4.00666001,7.34665335 C3.4050364,7.34665335 2.84449144,7.19347473 2.32500833,6.88711289 C1.82328531,6.5896311 1.42368891,6.1900347 1.12620713,5.68831169 C0.819845288,5.16882857 0.666666667,4.60828362 0.666666667,4.00666001 C0.666666667,3.4050364 0.819845288,2.84449144 1.12620713,2.32500833 C1.42368891,1.82328531 1.82328531,1.42368891 2.32500833,1.12620713 C2.84353627,0.820408594 3.4040811,0.667230482 4.00665958,0.66666822 L4.00666043,0.66666822 Z M4.00666043,0.66666822 C4.00555043,0.666667185 4.00444029,0.666666667 4.00333,0.666666667 L4.00999001,0.666666667 C4.00887973,0.666666667 4.00776958,0.666667185 4.00665958,0.66666822 L4.00666043,0.66666822 Z M4.34299034,5.67499167 L4.34299034,5.00899101 L3.67032967,5.00899101 L3.67032967,5.67499167 L4.34299034,5.67499167 Z M4.34299034,4.34299034 L4.34299034,2.33832834 L3.67032967,2.33832834 L3.67032967,4.34299034 L4.34299034,4.34299034 Z" id="" fill="#F83200"></path>
            </g>
        </g>
    </g>
</svg>