<?xml version="1.0" encoding="UTF-8"?>
<svg width="20px" height="20px" viewBox="0 0 20 20" version="1.1" xmlns="http://www.w3.org/2000/svg" xmlns:xlink="http://www.w3.org/1999/xlink">
    <!-- Generator: Sketch 51.3 (57544) - http://www.bohemiancoding.com/sketch -->
    <title>icons / classes/ BMC_BusinessServiceTechnical_32_Error</title>
    <desc>Created with Sketch.</desc>
    <defs></defs>
    <g id="icons-/-classes/-BMC_BusinessServiceTechnical_32" stroke="none" stroke-width="1" fill="none" fill-rule="evenodd">
        <g>
            <g id="icons-/-20x20-icon-field" fill="#F5A623" fill-rule="nonzero" opacity="0">
                <rect x="0" y="0" width="20" height="20"></rect>
            </g>
            <path d="M13,10 L20,10 L20,20 L13,20 L13,10 Z M17.9860789,12.0139211 L14.9976798,12.0139211 L14.9976798,13.5081206 L17.9860789,13.5081206 L17.9860789,12.0139211 Z" id="" fill="#2B2826"></path>
            <path d="M10.8651349,15.8421578 C10.8651349,15.9260743 10.8831167,16.0459533 10.9190809,16.2017982 C10.6913076,16.3456551 10.4575437,16.4175824 10.2177822,16.4175824 C9.72627127,16.4175824 9.28271926,16.1538488 8.88711289,15.6263736 C8.52747073,15.1588388 8.22177948,14.4875169 7.97002997,13.6123876 L7.80819181,13.7022977 C6.89709834,14.1818206 6.13586719,14.4215784 5.52447552,14.4215784 C5.05694072,14.4215784 4.68531606,14.2837177 4.40959041,14.007992 C4.13386476,13.7322664 3.996004,13.3606417 3.996004,12.8931069 C3.996004,12.2697272 4.23576184,11.508496 4.71528472,10.6093906 L4.80519481,10.4295704 C3.93006555,10.1778209 3.2587436,9.87212967 2.79120879,9.51248751 C2.26373363,9.11688114 2,8.67932308 2,8.1998002 C2,7.72027732 2.26373363,7.28271926 2.79120879,6.88711289 C3.2587436,6.52747073 3.93006555,6.22777343 4.80519481,5.98801199 L4.71528472,5.79020979 C4.23576184,4.8911044 3.996004,4.12987325 3.996004,3.50649351 C3.996004,3.0389587 4.13386476,2.66733405 4.40959041,2.39160839 C4.74525642,2.05594238 5.23676,1.93006951 5.88411588,2.01398601 C6.48351948,2.09790252 7.18481117,2.36163614 7.98801199,2.80519481 C8.2397615,1.93006555 8.54545275,1.25274965 8.90509491,0.773226773 C9.30070128,0.25773968 9.73825934,0 10.2177822,0 C10.6973051,0 11.1348632,0.25773968 11.5304695,0.773226773 C11.9020998,1.25274965 12.213785,1.93006555 12.4655345,2.80519481 C13.2567472,2.36163614 13.952045,2.10389646 14.5514486,2.03196803 C15.1868164,1.93606346 15.6783199,2.06193632 16.025974,2.40959041 C16.2897116,2.68531606 16.4215784,3.05694072 16.4215784,3.52447552 C16.4335665,4.13586719 16.1998026,4.89709834 15.7202797,5.80819181 L15.6303696,5.98801199 C16.5054989,6.2397615 17.1768208,6.54545275 17.6443556,6.90509491 C18.1598427,7.28871321 18.4175824,7.72027732 18.4175824,8.1998002 C18.4175824,8.31968092 18.4055945,8.43356589 18.3816184,8.54145854 C18.321678,8.52947047 18.2557446,8.52347652 18.1838162,8.52347652 C17.8481502,8.52347652 17.5604408,8.64335544 17.3206793,8.88311688 L17.2487512,8.95504496 L17.2487512,8.86513487 C17.2487512,8.76923029 17.2367634,8.66733321 17.2127872,8.55944056 C17.344656,8.42757177 17.4105894,8.30769285 17.4105894,8.1998002 C17.4105894,8.00799105 17.2127892,7.79220899 16.8171828,7.55244755 C16.3976003,7.30069804 15.8221815,7.07292809 15.0909091,6.86913087 C14.8990999,7.1568446 14.6893118,7.4565419 14.4615385,7.76823177 C14.3416577,7.82817213 14.2337667,7.89410553 14.1378621,7.96603397 C13.8861126,8.2057954 13.7602398,8.50549271 13.7602398,8.86513487 L13.7602398,8.95504496 L13.6523477,8.84715285 C13.4245743,8.64335562 13.1488528,8.54145854 12.8251748,8.54145854 C12.5734253,8.54145854 12.3336675,8.61937984 12.1058941,8.77522478 L12.1238761,8.1998002 L12.1058941,7.42657343 C11.926073,7.23476428 11.7462546,7.04895195 11.5664336,6.86913087 C11.470529,6.77322629 11.3266743,6.63536553 11.1348651,6.45554446 L10.991009,6.32967033 L10.2177822,6.31168831 L9.46253746,6.32967033 L9.31868132,6.45554446 C9.12687217,6.63536553 8.98301746,6.77322629 8.88711289,6.86913087 C8.68331566,7.06094002 8.50349728,7.24675235 8.34765235,7.42657343 L8.32967033,8.1998002 L8.34765235,8.99100899 C8.52747343,9.18281814 8.71028878,9.37162744 8.8961039,9.55744256 C9.08191901,9.74325767 9.26473437,9.92007908 9.44455544,10.0879121 L10.2177822,10.1058941 L10.9370629,10.0879121 C10.8891106,10.2197809 10.8651349,10.3516477 10.8651349,10.4835165 C10.8651349,10.7832183 10.9670319,11.0529459 11.1708292,11.2927073 L11.026973,11.4365634 C10.7632354,11.4725277 10.5354655,11.5804187 10.3436563,11.7602398 C10.2117876,11.8801205 10.1098905,12.0359631 10.037962,12.2277722 C9.61837952,12.5514502 9.22877303,12.8331656 8.86913087,13.0729271 C9.07292809,13.7922114 9.30069804,14.3676302 9.55244755,14.7992008 C9.79220899,15.1828191 10.007991,15.3746254 10.1998002,15.3746254 C10.3916094,15.3746254 10.6013975,15.194807 10.8291708,14.8351648 C10.9490515,14.8711291 11.0689305,14.8891109 11.1888112,14.8891109 L11.2967033,14.8891109 L11.2247752,14.961039 C10.9850138,15.2008004 10.8651349,15.4945038 10.8651349,15.8421578 Z M13.4365634,7.39060939 C13.5684322,7.23476446 13.7422567,7.00100056 13.958042,6.68931069 L13.994006,6.63536464 C13.7182803,6.57542428 13.4065951,6.52747271 13.0589411,6.49150849 L13.0949051,7.01298701 L13.3286713,7.26473526 C13.3766236,7.32467562 13.4125873,7.36663325 13.4365634,7.39060939 Z M14.8931069,3.002997 C14.6653335,3.002997 14.3626393,3.07492436 13.985015,3.21878122 C13.6073907,3.36263808 13.1848175,3.56643225 12.7172827,3.83016983 C12.8251754,4.34565692 12.9150846,4.89709996 12.987013,5.48451548 C13.5864166,5.55644392 14.1198778,5.63436521 14.5874126,5.71828172 L14.8031968,5.32267732 C15.1268747,4.69929758 15.318681,4.17782428 15.3786214,3.75824176 C15.4265737,3.44655189 15.3966039,3.23676378 15.2887113,3.12887113 C15.2047948,3.04495463 15.072928,3.002997 14.8931069,3.002997 Z M11.9440559,5.39460539 C11.8841156,4.97502288 11.836164,4.64535584 11.8001998,4.40559441 C11.5844145,4.54945127 11.3266748,4.74125754 11.026973,4.98101898 C11.2187822,5.13686392 11.3626369,5.26273678 11.4585415,5.35864136 C11.6623387,5.37062943 11.8241752,5.38261732 11.9440559,5.39460539 Z M10.2177822,1.02497502 C10.013985,1.02497502 9.79220899,1.2167813 9.55244755,1.6003996 C9.30069804,2.01998212 9.07292809,2.59540094 8.86913087,3.32667333 C9.30070146,3.60239898 9.75024741,3.92607207 10.2177822,4.2977023 C10.685317,3.92607207 11.128869,3.60239898 11.5484515,3.32667333 C11.3566424,2.60738901 11.1288724,2.03197019 10.8651349,1.6003996 C10.6253734,1.2167813 10.4095914,1.02497502 10.2177822,1.02497502 Z M8.63536464,4.40559441 C8.58741235,4.68132006 8.53946078,5.01098709 8.49150849,5.39460539 L8.97702298,5.35864136 L9.40859141,4.98101898 L9.3006993,4.89110889 C9.0009975,4.66333552 8.7792215,4.50149898 8.63536464,4.40559441 Z M5.14685315,3.12887113 C5.02697243,3.2247757 4.99100875,3.43456382 5.03896104,3.75824176 C5.0989014,4.17782428 5.29070767,4.69929758 5.61438561,5.32267732 L5.84815185,5.71828172 C6.32767473,5.62237714 6.86113592,5.54445584 7.44855145,5.48451548 C7.52047988,4.87312382 7.61038907,4.32168078 7.71828172,3.83016983 C7.25074691,3.56643225 6.82817372,3.36263808 6.45054945,3.21878122 C6.07292518,3.07492436 5.76423696,3.002997 5.52447552,3.002997 C5.34465445,3.002997 5.21878158,3.04495463 5.14685315,3.12887113 Z M6.98101898,9.00899101 C6.75324561,9.29670474 6.56743329,9.55444442 6.42357642,9.78221778 C6.69930208,9.83017007 7.01098727,9.87212769 7.35864136,9.90809191 L7.32267732,9.38661339 L7.08891109,9.13486513 C7.0409588,9.07492478 7.00499512,9.03296715 6.98101898,9.00899101 Z M6.42357642,6.61738262 C6.6033975,6.89310827 6.78920983,7.15084795 6.98101898,7.39060939 L7.32267732,6.995005 L7.35864136,6.47352647 C7.02297534,6.52147876 6.71129015,6.56943033 6.42357642,6.61738262 Z M3.04295704,8.1998002 C3.04295704,8.39160935 3.23476332,8.60739141 3.61838162,8.84715285 C4.03796414,9.11089043 4.61338296,9.33866038 5.34465534,9.53046953 C5.58441678,9.17082737 5.90808987,8.72727536 6.31568432,8.1998002 C5.96803023,7.75624154 5.64435714,7.31268953 5.34465534,6.86913087 C4.61338296,7.06094002 4.03796414,7.28271602 3.61838162,7.53446553 C3.23476332,7.77422697 3.04295704,7.99600298 3.04295704,8.1998002 Z M7.7002997,12.5874126 C7.60439512,12.0839136 7.52047988,11.5384645 7.44855145,10.951049 C6.873124,10.8911086 6.33366885,10.8071933 5.83016983,10.6993007 L5.61438561,11.0769231 C5.29070767,11.7003028 5.0989014,12.2217761 5.03896104,12.6413586 C4.99100875,12.9530485 5.02097848,13.1628366 5.12887113,13.2707293 C5.23676378,13.3786219 5.45254583,13.4085916 5.77622378,13.3606394 C6.19580629,13.3126871 6.71128565,13.1208808 7.32267732,12.7852148 L7.7002997,12.5874126 Z M8.49150849,11.0589411 C8.53946078,11.4065951 8.58741235,11.7182803 8.63536464,11.994006 C8.91109029,11.8021968 9.16882997,11.6163845 9.40859141,11.4365634 L9.03096903,11.0769231 L8.77922078,11.0769231 C8.64735199,11.064935 8.55144885,11.0589411 8.49150849,11.0589411 Z" id="" fill="#333333"></path>
            <g id="icons-/-Error_Mark" transform="translate(0.000000, 12.000000)">
                <circle id="Oval" fill="#FFFFFF" fill-rule="nonzero" cx="4" cy="4" r="4"></circle>
                <path d="M4.00666043,0.66666822 C4.60923891,0.667230482 5.16978374,0.820408594 5.68831169,1.12620713 C6.1900347,1.42368891 6.5896311,1.82328531 6.88711289,2.32500833 C7.19347473,2.84449144 7.34665335,3.4050364 7.34665335,4.00666001 C7.34665335,4.60828362 7.19347473,5.16882857 6.88711289,5.68831169 C6.5896311,6.1900347 6.1900347,6.5896311 5.68831169,6.88711289 C5.16882857,7.19347473 4.60828362,7.34665335 4.00666001,7.34665335 C3.4050364,7.34665335 2.84449144,7.19347473 2.32500833,6.88711289 C1.82328531,6.5896311 1.42368891,6.1900347 1.12620713,5.68831169 C0.819845288,5.16882857 0.666666667,4.60828362 0.666666667,4.00666001 C0.666666667,3.4050364 0.819845288,2.84449144 1.12620713,2.32500833 C1.42368891,1.82328531 1.82328531,1.42368891 2.32500833,1.12620713 C2.84353627,0.820408594 3.4040811,0.667230482 4.00665958,0.66666822 L4.00666043,0.66666822 Z M4.00666043,0.66666822 C4.00555043,0.666667185 4.00444029,0.666666667 4.00333,0.666666667 L4.00999001,0.666666667 C4.00887973,0.666666667 4.00776958,0.666667185 4.00665958,0.66666822 L4.00666043,0.66666822 Z M4.34299034,5.67499167 L4.34299034,5.00899101 L3.67032967,5.00899101 L3.67032967,5.67499167 L4.34299034,5.67499167 Z M4.34299034,4.34299034 L4.34299034,2.33832834 L3.67032967,2.33832834 L3.67032967,4.34299034 L4.34299034,4.34299034 Z" id="" fill="#F83200"></path>
            </g>
        </g>
    </g>
</svg>