<?xml version="1.0" encoding="UTF-8"?>
<svg width="20px" height="20px" viewBox="0 0 20 20" version="1.1" xmlns="http://www.w3.org/2000/svg" xmlns:xlink="http://www.w3.org/1999/xlink">
    <!-- Generator: Sketch 51.3 (57544) - http://www.bohemiancoding.com/sketch -->
    <title>icons / classes/ BMC_Tablet_32_Error</title>
    <desc>Created with Sketch.</desc>
    <defs></defs>
    <g id="icons-/-classes/-BMC_Tablet_32" stroke="none" stroke-width="1" fill="none" fill-rule="evenodd">
        <g id="icons-/-classes/-Tablt">
            <g id="icons-/-20x20-icon-field" fill="#F5A623" fill-rule="nonzero" opacity="0">
                <rect x="0" y="0" width="20" height="20"></rect>
            </g>
            <path d="M17.7772228,2.45954046 C18.0049961,2.55544503 18.2267721,2.69330579 18.4425574,2.87312687 C18.6223785,3.0769241 18.7602393,3.29570313 18.8561439,3.52947053 C18.9520484,3.76323793 19,4.01798064 19,4.29370629 L19,15.0829171 C19,15.3466547 18.9520484,15.5984004 18.8561439,15.8381618 C18.7602393,16.0779233 18.6163846,16.2967023 18.4245754,16.4945055 C18.2327663,16.6923087 18.0139872,16.8391604 17.7682318,16.9350649 C17.5224763,17.0309695 17.2677336,17.0789211 17.003996,17.0789211 L2.97802198,17.0789211 C2.70229632,17.0789211 2.44755362,17.0309695 2.21378621,16.9350649 C1.98001881,16.8391604 1.76723373,16.6923087 1.57542458,16.4945055 C1.38361542,16.2967023 1.23676375,16.0779233 1.13486513,15.8381618 C1.03296652,15.5984004 0.982017982,15.3526486 0.982017982,15.1008991 L0.982017982,4.29370629 C0.982017982,4.02996871 1.03296652,3.78121995 1.13486513,3.54745255 C1.23676375,3.31368514 1.38361542,3.09790309 1.57542458,2.9000999 C1.76723373,2.70229671 1.98001881,2.55544503 2.21378621,2.45954046 C2.44755362,2.36363588 2.70229632,2.31568432 2.97802198,2.31568432 L17.003996,2.31568432 C17.2677336,2.31568432 17.5254733,2.36363588 17.7772228,2.45954046 Z M16.968032,4.45554446 C16.968032,4.33566374 16.9380622,4.20979087 16.8781219,4.07792208 C16.8181815,3.94605329 16.7462542,3.83516528 16.6623377,3.74525475 C16.5784212,3.65534421 16.4765241,3.58341685 16.3566434,3.52947053 C16.2367626,3.47552421 16.1108898,3.44855145 15.979021,3.44855145 L3.08591409,3.44855145 C2.96603337,3.44855145 2.84315747,3.47552421 2.71728272,3.52947053 C2.59140796,3.58341685 2.48351693,3.65834118 2.39360639,3.75424575 C2.30369585,3.85015033 2.23476547,3.95204741 2.18681319,4.05994006 C2.1388609,4.16783271 2.11488511,4.29969952 2.11488511,4.45554446 L2.11488511,14.9390609 C2.11488511,15.0949059 2.14185787,15.2297697 2.1958042,15.3436563 C2.24975052,15.457543 2.32167787,15.5594401 2.41158841,15.6493506 C2.50149895,15.7392612 2.60339603,15.8111885 2.71728272,15.8651349 C2.8311694,15.9190812 2.95404529,15.9460539 3.08591409,15.9460539 L15.979021,15.9460539 C16.1108898,15.9460539 16.2397596,15.9190812 16.3656344,15.8651349 C16.4915091,15.8111885 16.5904092,15.7362642 16.6623377,15.6403596 C16.7702303,15.532467 16.8481516,15.4275729 16.8961039,15.3256743 C16.9440562,15.2237757 16.968032,15.0949059 16.968032,14.9390609 L16.968032,4.45554446 Z M18.010989,10.3356643 C18.0949055,10.3356643 18.1758238,10.3176825 18.2537463,10.2817183 C18.3316687,10.2457541 18.3976021,10.2007995 18.4515485,10.1468531 C18.5054948,10.0929068 18.5504494,10.0299704 18.5864136,9.95804196 C18.6223778,9.88611353 18.6403596,9.80219828 18.6403596,9.70629371 C18.6403596,9.61038913 18.6193808,9.52347691 18.5774226,9.44555445 C18.5354643,9.36763198 18.4875128,9.2987016 18.4335664,9.23876124 C18.3796201,9.17882088 18.3196806,9.13386628 18.2537463,9.1038961 C18.1878119,9.07392592 18.1068936,9.05894106 18.010989,9.05894106 C17.9150844,9.05894106 17.8311692,9.0769229 17.7592408,9.11288711 C17.6873123,9.14885133 17.6183819,9.1968029 17.5524476,9.25674326 C17.4865132,9.31668362 17.4385616,9.385614 17.4085914,9.46353646 C17.3786212,9.54145893 17.3636364,9.62537418 17.3636364,9.71528472 C17.3636364,9.80519525 17.3816182,9.88011958 17.4175824,9.94005994 C17.4655347,10.0239764 17.5134863,10.0959038 17.5614386,10.1558442 C17.6093908,10.2157845 17.6723273,10.2607391 17.7502498,10.2907093 C17.8281722,10.3206795 17.9150844,10.3356643 18.010989,10.3356643 Z" id="" fill="#2B2826"></path>
        </g>
        <g id="icons-/-Error_Mark" transform="translate(0.000000, 12.000000)">
            <circle id="Oval" fill="#FFFFFF" fill-rule="nonzero" cx="4" cy="4" r="4"></circle>
            <path d="M4.00666043,0.66666822 C4.60923891,0.667230482 5.16978374,0.820408594 5.68831169,1.12620713 C6.1900347,1.42368891 6.5896311,1.82328531 6.88711289,2.32500833 C7.19347473,2.84449144 7.34665335,3.4050364 7.34665335,4.00666001 C7.34665335,4.60828362 7.19347473,5.16882857 6.88711289,5.68831169 C6.5896311,6.1900347 6.1900347,6.5896311 5.68831169,6.88711289 C5.16882857,7.19347473 4.60828362,7.34665335 4.00666001,7.34665335 C3.4050364,7.34665335 2.84449144,7.19347473 2.32500833,6.88711289 C1.82328531,6.5896311 1.42368891,6.1900347 1.12620713,5.68831169 C0.819845288,5.16882857 0.666666667,4.60828362 0.666666667,4.00666001 C0.666666667,3.4050364 0.819845288,2.84449144 1.12620713,2.32500833 C1.42368891,1.82328531 1.82328531,1.42368891 2.32500833,1.12620713 C2.84353627,0.820408594 3.4040811,0.667230482 4.00665958,0.66666822 L4.00666043,0.66666822 Z M4.00666043,0.66666822 C4.00555043,0.666667185 4.00444029,0.666666667 4.00333,0.666666667 L4.00999001,0.666666667 C4.00887973,0.666666667 4.00776958,0.666667185 4.00665958,0.66666822 L4.00666043,0.66666822 Z M4.34299034,5.67499167 L4.34299034,5.00899101 L3.67032967,5.00899101 L3.67032967,5.67499167 L4.34299034,5.67499167 Z M4.34299034,4.34299034 L4.34299034,2.33832834 L3.67032967,2.33832834 L3.67032967,4.34299034 L4.34299034,4.34299034 Z" id="" fill="#F83200"></path>
        </g>
    </g>
</svg>