<?xml version="1.0" encoding="UTF-8"?>
<svg width="20px" height="20px" viewBox="0 0 20 20" version="1.1" xmlns="http://www.w3.org/2000/svg" xmlns:xlink="http://www.w3.org/1999/xlink">
    <!-- Generator: Sketch 51.3 (57544) - http://www.bohemiancoding.com/sketch -->
    <title>icons / classes/ BMC_TapeLibrary_32</title>
    <desc>Created with Sketch.</desc>
    <defs></defs>
    <g id="icons-/-classes/-BMC_TapeLibrary_32" stroke="none" stroke-width="1" fill="none" fill-rule="evenodd">
        <g>
            <g id="icons-/-20x20-icon-field" fill="#F5A623" fill-rule="nonzero" opacity="0">
                <rect x="0" y="0" width="20" height="20"></rect>
            </g>
            <path d="M11.6666667,12.5 C11.6666667,12.0416667 11.2916667,11.6666667 10.8333333,11.6666667 C10.375,11.6666667 10,12.0416667 10,12.5 C10,12.9583333 10.375,13.3333333 10.8333333,13.3333333 C11.2916667,13.3333333 11.6666667,12.9583333 11.6666667,12.5 Z M5,12.5 C5,12.0416667 4.625,11.6666667 4.16666667,11.6666667 C3.70833333,11.6666667 3.33333333,12.0416667 3.33333333,12.5 C3.33333333,12.9583333 3.70833333,13.3333333 4.16666667,13.3333333 C4.625,13.3333333 5,12.9583333 5,12.5 Z M12.0416667,11.3583333 C12.3333333,11.6583333 12.5,12.0583333 12.5,12.5 C12.5,12.9416667 12.3333333,13.3416667 12.0416667,13.6416667 C11.7416667,13.9666667 11.3083333,14.1666667 10.8333333,14.1666667 L4.16666667,14.1666667 C3.69166667,14.1666667 3.25833333,13.9666667 2.95833333,13.6416667 C2.66666667,13.3416667 2.5,12.9416667 2.5,12.5 C2.5,12.0583333 2.66666667,11.6583333 2.95833333,11.3583333 C3.25833333,11.0333333 3.69166667,10.8333333 4.16666667,10.8333333 C4.46666667,10.8333333 4.75833333,10.9166667 5,11.0583333 C5.5,11.35 5.83333333,11.8833333 5.83333333,12.5 C5.83333333,12.8083333 5.74166667,13.0833333 5.6,13.3333333 L9.4,13.3333333 C9.25833333,13.0833333 9.16666667,12.8083333 9.16666667,12.5 C9.16666667,11.5833333 9.91666667,10.8333333 10.8333333,10.8333333 C11.3083333,10.8333333 11.7416667,11.0333333 12.0416667,11.3583333 Z M13.75,8.75 L1.25,8.75 L1.25,18.75 L2.5,18.75 L2.5,18.4166667 C2.5,17.9083333 2.90833333,17.5 3.41666667,17.5 L11.5833333,17.5 C12.0916667,17.5 12.5,17.9083333 12.5,18.4166667 L12.5,18.75 L13.75,18.75 L13.75,8.75 Z M15,8.33333333 L15,10 L15,12.5 L15,19.1666667 C15,19.625 14.625,20 14.1666667,20 L0.833333333,20 C0.375,20 0,19.625 0,19.1666667 L0,8.33333333 C0,7.875 0.375,7.5 0.833333333,7.5 L5,7.5 L6.25,7.5 L14.1666667,7.5 C14.625,7.5 15,7.875 15,8.33333333 Z M9.41666667,5.79166667 L10.625,5.79166667 C10.75,5.55 10.8333333,5.29166667 10.8333333,5 C10.8333333,4.08333333 10.0833333,3.33333333 9.16666667,3.33333333 C8.25,3.33333333 7.5,4.08333333 7.5,5 C7.5,5.28333333 7.575,5.55833333 7.7,5.79166667 L8.925,5.79166667 C8.58333333,5.69166667 8.33333333,5.375 8.33333333,5 C8.33333333,4.54166667 8.70833333,4.16666667 9.16666667,4.16666667 C9.625,4.16666667 10,4.54166667 10,5 C10,5.375 9.75833333,5.68333333 9.41666667,5.79166667 Z M16.6666667,5 C16.6666667,4.54166667 16.2916667,4.16666667 15.8333333,4.16666667 C15.375,4.16666667 15,4.54166667 15,5 C15,5.45833333 15.375,5.83333333 15.8333333,5.83333333 C16.2916667,5.83333333 16.6666667,5.45833333 16.6666667,5 Z M16.0666667,6.65 C15.65,6.175 15.0508333,5.85833333 14.3833333,5.80833333 C14.25,5.56666667 14.1666667,5.3 14.1666667,5 C14.1666667,4.08333333 14.9166667,3.33333333 15.8333333,3.33333333 C16.75,3.33333333 17.5,4.08333333 17.5,5 C17.5,5.83333333 16.875,6.53333333 16.0666667,6.65 Z M20,0.833333333 L20,11.6666667 C20,12.125 19.625,12.5 19.1666667,12.5 L16.7083333,12.5 L16.7083333,10.0083333 C17.1583333,10.0666667 17.5,10.45 17.5,10.9166667 L17.5,11.25 L18.75,11.25 L18.75,1.25 L6.25,1.25 L6.25,5.79166667 L5,5.79166667 L5,0.833333333 C5,0.375 5.375,0 5.83333333,0 L19.1666667,0 C19.625,0 20,0.375 20,0.833333333 Z" id="Fill-1" fill="#333333"></path>
            <g id="icons-/-Error_Mark" transform="translate(0.000000, 12.000000)" opacity="0">
                <circle id="Oval" fill="#FFFFFF" fill-rule="nonzero" cx="4" cy="4" r="4"></circle>
                <path d="M4.00666043,0.66666822 C4.60923891,0.667230482 5.16978374,0.820408594 5.68831169,1.12620713 C6.1900347,1.42368891 6.5896311,1.82328531 6.88711289,2.32500833 C7.19347473,2.84449144 7.34665335,3.4050364 7.34665335,4.00666001 C7.34665335,4.60828362 7.19347473,5.16882857 6.88711289,5.68831169 C6.5896311,6.1900347 6.1900347,6.5896311 5.68831169,6.88711289 C5.16882857,7.19347473 4.60828362,7.34665335 4.00666001,7.34665335 C3.4050364,7.34665335 2.84449144,7.19347473 2.32500833,6.88711289 C1.82328531,6.5896311 1.42368891,6.1900347 1.12620713,5.68831169 C0.819845288,5.16882857 0.666666667,4.60828362 0.666666667,4.00666001 C0.666666667,3.4050364 0.819845288,2.84449144 1.12620713,2.32500833 C1.42368891,1.82328531 1.82328531,1.42368891 2.32500833,1.12620713 C2.84353627,0.820408594 3.4040811,0.667230482 4.00665958,0.66666822 L4.00666043,0.66666822 Z M4.00666043,0.66666822 C4.00555043,0.666667185 4.00444029,0.666666667 4.00333,0.666666667 L4.00999001,0.666666667 C4.00887973,0.666666667 4.00776958,0.666667185 4.00665958,0.66666822 L4.00666043,0.66666822 Z M4.34299034,5.67499167 L4.34299034,5.00899101 L3.67032967,5.00899101 L3.67032967,5.67499167 L4.34299034,5.67499167 Z M4.34299034,4.34299034 L4.34299034,2.33832834 L3.67032967,2.33832834 L3.67032967,4.34299034 L4.34299034,4.34299034 Z" id="" fill="#F83200"></path>
            </g>
        </g>
    </g>
</svg>