<?xml version="1.0" encoding="UTF-8"?>
<svg width="20px" height="20px" viewBox="0 0 20 20" version="1.1" xmlns="http://www.w3.org/2000/svg" xmlns:xlink="http://www.w3.org/1999/xlink">
    <!-- Generator: Sketch 51.3 (57544) - http://www.bohemiancoding.com/sketch -->
    <title>icons / classes/ BMC_Application_32</title>
    <desc>Created with Sketch.</desc>
    <defs></defs>
    <g id="icons-/-classes/-BMC_Application_32" stroke="none" stroke-width="1" fill="none" fill-rule="evenodd">
        <g id="icons-/-classes/-application">
            <g id="icons-/-20x20-icon-field" fill="#F5A623" fill-rule="nonzero" opacity="0">
                <rect x="0" y="0" width="20" height="20"></rect>
            </g>
            <path d="M19.017982,15.1008991 C19.017982,15.6043981 18.8351667,16.0299683 18.4695305,16.3776224 C18.1038943,16.7252765 17.6813211,16.8991009 17.2017982,16.8991009 L2.7982018,16.8991009 C2.31867892,16.8991009 1.8991027,16.7252765 1.53946054,16.3776224 C1.17981838,16.0299683 1,15.6043981 1,15.1008991 L1,4.29370629 C1,3.81418342 1.17981838,3.39460719 1.53946054,3.03496503 C1.8991027,2.67532288 2.31867892,2.4955045 2.7982018,2.4955045 L17.2017982,2.4955045 C17.7052972,2.4955045 18.1338644,2.67532288 18.4875125,3.03496503 C18.8411606,3.39460719 19.017982,3.81418342 19.017982,4.29370629 L19.017982,15.1008991 Z M17.2197802,4.29370629 L6.39460539,4.29370629 L6.39460539,5.37262737 L17.2197802,5.37262737 L17.2197802,4.29370629 Z M4.65034965,4.38361638 C4.51848086,4.51548517 4.45254745,4.67132777 4.45254745,4.85114885 C4.45254745,5.03096993 4.51848086,5.18681253 4.65034965,5.31868132 C4.78221844,5.45055011 4.94405499,5.51648352 5.13586414,5.51648352 C5.59141087,5.51648352 5.81918082,5.28871357 5.81918082,4.83316683 C5.81918082,4.64135768 5.75324741,4.48551508 5.62137862,4.36563437 C5.48950983,4.24575365 5.32767329,4.18581419 5.13586414,4.18581419 C4.94405499,4.18581419 4.78221844,4.25174759 4.65034965,4.38361638 Z M2.85214785,4.38361638 C2.72027906,4.51548517 2.65434565,4.67132777 2.65434565,4.85114885 C2.65434565,5.03096993 2.72027906,5.18681253 2.85214785,5.31868132 C2.98401664,5.45055011 3.14585319,5.51648352 3.33766234,5.51648352 C3.79320907,5.51648352 4.02097902,5.28871357 4.02097902,4.83316683 C4.02097902,4.64135768 3.95504561,4.48551508 3.82317682,4.36563437 C3.69130803,4.24575365 3.52947149,4.18581419 3.33766234,4.18581419 C3.14585319,4.18581419 2.98401664,4.25174759 2.85214785,4.38361638 Z M2.7982018,15.1008991 L17.2197802,15.1008991 L17.2197802,6.81118881 L2.7982018,6.81118881 L2.7982018,15.1008991 Z" id="" fill="#333333"></path>
        </g>
        <g id="icons-/-Error_Mark" transform="translate(0.000000, 12.000000)" opacity="0">
            <circle id="Oval" fill="#FFFFFF" fill-rule="nonzero" cx="4" cy="4" r="4"></circle>
            <path d="M4.00666043,0.66666822 C4.60923891,0.667230482 5.16978374,0.820408594 5.68831169,1.12620713 C6.1900347,1.42368891 6.5896311,1.82328531 6.88711289,2.32500833 C7.19347473,2.84449144 7.34665335,3.4050364 7.34665335,4.00666001 C7.34665335,4.60828362 7.19347473,5.16882857 6.88711289,5.68831169 C6.5896311,6.1900347 6.1900347,6.5896311 5.68831169,6.88711289 C5.16882857,7.19347473 4.60828362,7.34665335 4.00666001,7.34665335 C3.4050364,7.34665335 2.84449144,7.19347473 2.32500833,6.88711289 C1.82328531,6.5896311 1.42368891,6.1900347 1.12620713,5.68831169 C0.819845288,5.16882857 0.666666667,4.60828362 0.666666667,4.00666001 C0.666666667,3.4050364 0.819845288,2.84449144 1.12620713,2.32500833 C1.42368891,1.82328531 1.82328531,1.42368891 2.32500833,1.12620713 C2.84353627,0.820408594 3.4040811,0.667230482 4.00665958,0.66666822 L4.00666043,0.66666822 Z M4.00666043,0.66666822 C4.00555043,0.666667185 4.00444029,0.666666667 4.00333,0.666666667 L4.00999001,0.666666667 C4.00887973,0.666666667 4.00776958,0.666667185 4.00665958,0.66666822 L4.00666043,0.66666822 Z M4.34299034,5.67499167 L4.34299034,5.00899101 L3.67032967,5.00899101 L3.67032967,5.67499167 L4.34299034,5.67499167 Z M4.34299034,4.34299034 L4.34299034,2.33832834 L3.67032967,2.33832834 L3.67032967,4.34299034 L4.34299034,4.34299034 Z" id="" fill="#F83200"></path>
        </g>
    </g>
</svg>