<?xml version="1.0" encoding="UTF-8"?>
<svg width="20px" height="20px" viewBox="0 0 20 20" version="1.1" xmlns="http://www.w3.org/2000/svg" xmlns:xlink="http://www.w3.org/1999/xlink">
    <!-- Generator: Sketch 51.3 (57544) - http://www.bohemiancoding.com/sketch -->
    <title>icons / classes/ BMC_FTPServer_32</title>
    <desc>Created with Sketch.</desc>
    <defs></defs>
    <g id="icons-/-classes/-BMC_FTPServer_32" stroke="none" stroke-width="1" fill="none" fill-rule="evenodd">
        <g transform="translate(-1.000000, -1.000000)">
            <g id="icons-/-20x20-icon-field" transform="translate(1.000000, 1.000000)" fill="#F5A623" fill-rule="nonzero" opacity="0">
                <rect x="0" y="0" width="20" height="20"></rect>
            </g>
            <path d="M15.7452547,12.6653347 L21,12.6653347 L21,21.016983 L0.98001998,21.016983 L0.98001998,1.997003 C0.98001998,1.44471825 1.42773523,0.997002997 1.98001998,0.997002997 L14.7452547,0.997002997 C15.2975395,0.997002997 15.7452547,1.44471825 15.7452547,1.997003 L15.7452547,12.6653347 Z M5.21578422,5.19280719 L5.21578422,8.36963037 L11.5294705,8.36963037 L11.5294705,5.19280719 L5.21578422,5.19280719 Z M20.1608392,20.1578422 L20.1608392,13.5044955 L5.995005,13.5044955 L5.995005,20.1578422 L20.1608392,20.1578422 Z M7.37362637,14.5634366 L10.6103896,14.5634366 L10.6103896,15.1228771 L8.01298701,15.1228771 L8.01298701,16.6013986 L10.2507493,16.6013986 L10.2507493,17.1608392 L8.01298701,17.1608392 L8.01298701,19.3386613 L7.37362637,19.3386613 L7.37362637,14.5634366 Z M11.04995,14.5634366 L14.8461538,14.5634366 L14.8461538,15.1228771 L13.2677323,15.1228771 L13.2677323,19.3386613 L12.6483516,19.3386613 L12.6483516,15.1228771 L11.04995,15.1228771 L11.04995,14.5634366 Z M15.5054945,19.3386613 L15.5054945,14.5434565 L17.3036963,14.5434565 L17.7232767,14.5634366 C17.8564775,14.5767566 17.9563766,14.5834166 18.022977,14.5834166 C18.1162176,14.6100567 18.2161167,14.6400265 18.3226773,14.6733267 C18.429238,14.7066269 18.5291371,14.7499165 18.6223776,14.8031968 C18.7289383,14.8964374 18.8021976,14.9696967 18.8421578,15.022977 C18.9087582,15.0895774 18.9653677,15.1794866 19.011988,15.2927073 C19.0586083,15.405928 19.088578,15.509157 19.1018981,15.6023976 C19.1285383,15.7489185 19.1418581,15.8621375 19.1418581,15.9420579 C19.1418581,16.1418591 19.1118884,16.3283375 19.0519481,16.5014985 C18.9920077,16.6746595 18.8954386,16.8311681 18.7622378,16.971029 C18.629037,17.1108898 18.4492186,17.2174489 18.2227772,17.2907093 C17.9963359,17.3639697 17.7099584,17.4005994 17.3636364,17.4005994 L16.1248751,17.4005994 L16.1248751,19.3386613 L15.5054945,19.3386613 Z M16.1248751,15.1228771 L16.1248751,16.8211788 L17.3636364,16.8211788 C17.5634376,16.8211788 17.733266,16.804529 17.8731269,16.7712288 C18.0129877,16.7379286 18.1328666,16.6846491 18.2327672,16.6113886 C18.3326678,16.5381282 18.3992672,16.441559 18.4325674,16.3216783 C18.4658676,16.2017976 18.4825175,16.0885786 18.4825175,15.982018 C18.4825175,15.8754573 18.4691976,15.7788882 18.4425574,15.6923077 C18.4159173,15.6057272 18.3792876,15.5258079 18.3326673,15.4525475 C18.2860471,15.379287 18.2294376,15.3193476 18.1628372,15.2727273 C18.0962368,15.226107 18.0163175,15.1894773 17.9230769,15.1628372 C17.8964368,15.1495171 17.8231774,15.1428571 17.7032967,15.1428571 L17.3436563,15.1228771 L16.1248751,15.1228771 Z" id="" fill="#2B2826"></path>
            <g id="icons-/-Error_Mark" transform="translate(1.000000, 13.000000)" opacity="0">
                <circle id="Oval" fill="#FFFFFF" fill-rule="nonzero" cx="4" cy="4" r="4"></circle>
                <path d="M4.00666043,0.66666822 C4.60923891,0.667230482 5.16978374,0.820408594 5.68831169,1.12620713 C6.1900347,1.42368891 6.5896311,1.82328531 6.88711289,2.32500833 C7.19347473,2.84449144 7.34665335,3.4050364 7.34665335,4.00666001 C7.34665335,4.60828362 7.19347473,5.16882857 6.88711289,5.68831169 C6.5896311,6.1900347 6.1900347,6.5896311 5.68831169,6.88711289 C5.16882857,7.19347473 4.60828362,7.34665335 4.00666001,7.34665335 C3.4050364,7.34665335 2.84449144,7.19347473 2.32500833,6.88711289 C1.82328531,6.5896311 1.42368891,6.1900347 1.12620713,5.68831169 C0.819845288,5.16882857 0.666666667,4.60828362 0.666666667,4.00666001 C0.666666667,3.4050364 0.819845288,2.84449144 1.12620713,2.32500833 C1.42368891,1.82328531 1.82328531,1.42368891 2.32500833,1.12620713 C2.84353627,0.820408594 3.4040811,0.667230482 4.00665958,0.66666822 L4.00666043,0.66666822 Z M4.00666043,0.66666822 C4.00555043,0.666667185 4.00444029,0.666666667 4.00333,0.666666667 L4.00999001,0.666666667 C4.00887973,0.666666667 4.00776958,0.666667185 4.00665958,0.66666822 L4.00666043,0.66666822 Z M4.34299034,5.67499167 L4.34299034,5.00899101 L3.67032967,5.00899101 L3.67032967,5.67499167 L4.34299034,5.67499167 Z M4.34299034,4.34299034 L4.34299034,2.33832834 L3.67032967,2.33832834 L3.67032967,4.34299034 L4.34299034,4.34299034 Z" id="" fill="#F83200"></path>
            </g>
        </g>
    </g>
</svg>