<?xml version="1.0" encoding="UTF-8"?>
<svg width="20px" height="20px" viewBox="0 0 20 20" version="1.1" xmlns="http://www.w3.org/2000/svg" xmlns:xlink="http://www.w3.org/1999/xlink">
    <!-- Generator: Sketch 51.3 (57544) - http://www.bohemiancoding.com/sketch -->
    <title>icons / classes/ BMC_ConcreteCollection_32</title>
    <desc>Created with Sketch.</desc>
    <defs>
        <polygon id="path-1" points="0 0 19.9998333 0 19.9998333 20 0 20"></polygon>
    </defs>
    <g id="icons-/-classes/-BMC_ConcreteCollection_32" stroke="none" stroke-width="1" fill="none" fill-rule="evenodd">
        <g id="icons-/-20x20-icon-field" fill="#F5A623" fill-rule="nonzero" opacity="0">
            <rect x="0" y="0" width="20" height="20"></rect>
        </g>
        <g id="Group-3">
            <mask id="mask-2" fill="white">
                <use xlink:href="#path-1"></use>
            </mask>
            <g id="Clip-2"></g>
            <path d="M16.3081667,12.2916667 L17.4998333,13.5 L13.3331667,17.7083333 L9.1665,13.4916667 L10.3581667,12.2916667 L13.3248333,15.3166667 L16.3081667,12.2916667 Z M18.7498333,18.3333333 C18.7498333,18.5583333 18.5581667,18.75 18.3331667,18.75 L8.33316667,18.75 C8.10816667,18.75 7.9165,18.5583333 7.9165,18.3333333 L7.9165,11.6666667 C7.9165,11.625 7.92483333,11.5833333 7.9415,11.5416667 C7.97483333,11.4166667 8.08316667,11.3083333 8.20816667,11.275 C8.24983333,11.2583333 8.2915,11.25 8.33316667,11.25 L18.2165,11.25 L18.3331667,11.25 C18.5581667,11.25 18.7498333,11.4416667 18.7498333,11.6666667 L18.7498333,18.3333333 Z M18.3331667,10 L8.33316667,10 C7.4165,10 6.6665,10.75 6.6665,11.6666667 L6.6665,18.3333333 C6.6665,19.25 7.4165,20 8.33316667,20 L18.3331667,20 C19.2498333,20 19.9998333,19.25 19.9998333,18.3333333 L19.9998333,11.6666667 C19.9998333,10.75 19.2498333,10 18.3331667,10 Z M2.49983333,4.16666667 L5.83316667,4.16666667 L5.83316667,2.5 L2.49983333,2.5 L2.49983333,4.16666667 Z M8.33316667,0.833333333 C8.33316667,0.375 7.95816667,0 7.49983333,0 L0.833166667,0 C0.374833333,0 -0.000166666667,0.375 -0.000166666667,0.833333333 L-0.000166666667,10.8333333 C-0.000166666667,11.2916667 0.374833333,11.6666667 0.833166667,11.6666667 L4.99983333,11.6666667 C4.99983333,9.825 6.4915,8.33333333 8.33316667,8.33333333 L8.33316667,0.833333333 Z M12.4998333,4.16666667 L15.8331667,4.16666667 L15.8331667,2.5 L12.4998333,2.5 L12.4998333,4.16666667 Z M18.3331667,0.833333333 C18.3331667,0.375 17.9581667,0 17.4998333,0 L10.8331667,0 C10.3748333,0 9.99983333,0.375 9.99983333,0.833333333 L9.99983333,8.33333333 L18.3331667,8.33333333 L18.3331667,0.833333333 Z" id="Fill-1" fill="#333333" mask="url(#mask-2)"></path>
        </g>
        <g id="icons-/-Error_Mark" transform="translate(0.000000, 12.000000)" opacity="0">
            <circle id="Oval" fill="#FFFFFF" fill-rule="nonzero" cx="4" cy="4" r="4"></circle>
            <path d="M4.00666043,0.66666822 C4.60923891,0.667230482 5.16978374,0.820408594 5.68831169,1.12620713 C6.1900347,1.42368891 6.5896311,1.82328531 6.88711289,2.32500833 C7.19347473,2.84449144 7.34665335,3.4050364 7.34665335,4.00666001 C7.34665335,4.60828362 7.19347473,5.16882857 6.88711289,5.68831169 C6.5896311,6.1900347 6.1900347,6.5896311 5.68831169,6.88711289 C5.16882857,7.19347473 4.60828362,7.34665335 4.00666001,7.34665335 C3.4050364,7.34665335 2.84449144,7.19347473 2.32500833,6.88711289 C1.82328531,6.5896311 1.42368891,6.1900347 1.12620713,5.68831169 C0.819845288,5.16882857 0.666666667,4.60828362 0.666666667,4.00666001 C0.666666667,3.4050364 0.819845288,2.84449144 1.12620713,2.32500833 C1.42368891,1.82328531 1.82328531,1.42368891 2.32500833,1.12620713 C2.84353627,0.820408594 3.4040811,0.667230482 4.00665958,0.66666822 L4.00666043,0.66666822 Z M4.00666043,0.66666822 C4.00555043,0.666667185 4.00444029,0.666666667 4.00333,0.666666667 L4.00999001,0.666666667 C4.00887973,0.666666667 4.00776958,0.666667185 4.00665958,0.66666822 L4.00666043,0.66666822 Z M4.34299034,5.67499167 L4.34299034,5.00899101 L3.67032967,5.00899101 L3.67032967,5.67499167 L4.34299034,5.67499167 Z M4.34299034,4.34299034 L4.34299034,2.33832834 L3.67032967,2.33832834 L3.67032967,4.34299034 L4.34299034,4.34299034 Z" id="" fill="#F83200"></path>
        </g>
    </g>
</svg>