<?xml version="1.0" encoding="UTF-8"?>
<svg width="20px" height="20px" viewBox="0 0 20 20" version="1.1" xmlns="http://www.w3.org/2000/svg" xmlns:xlink="http://www.w3.org/1999/xlink">
    <!-- Generator: Sketch 51.3 (57544) - http://www.bohemiancoding.com/sketch -->
    <title>icons / classes/ BMC_Laptop_32</title>
    <desc>Created with Sketch.</desc>
    <defs></defs>
    <g id="icons-/-classes/-BMC_Laptop_32" stroke="none" stroke-width="1" fill="none" fill-rule="evenodd">
        <g id="icons-/-classes/-Laptop">
            <g id="icons-/-20x20-icon-field" fill="#F5A623" fill-rule="nonzero" opacity="0">
                <rect x="0" y="0" width="20" height="20"></rect>
            </g>
            <path d="M1,13.8961039 L19.017982,13.8961039 L19.017982,14.8131868 C19.017982,15.0649363 18.8711303,15.2747244 18.5774226,15.4425574 C18.2837148,15.6103904 17.933069,15.7002996 17.5254745,15.7122877 L2.49250749,15.7122877 C2.09690112,15.7122877 1.74625527,15.6223785 1.44055944,15.4425574 C1.13486361,15.2627364 0.988011928,15.0529483 1,14.8131868 L1,13.8961039 Z M15.1158841,13.3026973 L4.9020979,13.3026973 C4.48251538,13.3026973 4.12887257,13.1558456 3.84115884,12.8621379 C3.55344511,12.5684301 3.40959041,12.2117903 3.40959041,11.7922078 L3.40959041,5.19280719 C3.40959041,4.77322468 3.55344511,4.41658489 3.84115884,4.12287712 C4.12887257,3.82916936 4.48251538,3.68231768 4.9020979,3.68231768 L15.1158841,3.68231768 C15.5234786,3.68231768 15.8741244,3.82916936 16.1678322,4.12287712 C16.4615399,4.41658489 16.6143856,4.77322468 16.6263736,5.19280719 L16.6263736,11.7922078 C16.6263736,12.2117903 16.476525,12.5684301 16.1768232,12.8621379 C15.8771214,13.1558456 15.5234786,13.3026973 15.1158841,13.3026973 Z M4.7042957,4.97702298 C4.64435534,5.04895141 4.60839167,5.12087876 4.5964036,5.19280719 L4.5964036,11.7922078 C4.5964036,11.8761243 4.6293703,11.9510486 4.6953047,12.016983 C4.76123909,12.0829174 4.83016947,12.1098902 4.9020979,12.0979021 L15.1158841,12.0979021 C15.1998006,12.0979021 15.271728,12.0709293 15.3316683,12.016983 C15.3916087,11.9630367 15.4215784,11.8881124 15.4215784,11.7922078 L15.4215784,5.19280719 C15.4215784,5.10889069 15.3916087,5.03996031 15.3316683,4.98601399 C15.271728,4.93206766 15.1998006,4.89910096 15.1158841,4.88711289 L4.9020979,4.88711289 C4.8181814,4.88711289 4.75224799,4.91708262 4.7042957,4.97702298 Z M9.25374625,14.8131868 L10.7462537,14.8131868 C10.8541464,14.8131868 10.9080919,14.7622383 10.9080919,14.6603397 C10.9080919,14.558441 10.8541464,14.5074925 10.7462537,14.5074925 L9.25374625,14.5074925 C9.15784168,14.5074925 9.10989011,14.558441 9.10989011,14.6603397 C9.10989011,14.7622383 9.15784168,14.8131868 9.25374625,14.8131868 Z" id="" fill="#333333"></path>
        </g>
        <g id="icons-/-Error_Mark" transform="translate(0.000000, 12.000000)" opacity="0">
            <circle id="Oval" fill="#FFFFFF" fill-rule="nonzero" cx="4" cy="4" r="4"></circle>
            <path d="M4.00666043,0.66666822 C4.60923891,0.667230482 5.16978374,0.820408594 5.68831169,1.12620713 C6.1900347,1.42368891 6.5896311,1.82328531 6.88711289,2.32500833 C7.19347473,2.84449144 7.34665335,3.4050364 7.34665335,4.00666001 C7.34665335,4.60828362 7.19347473,5.16882857 6.88711289,5.68831169 C6.5896311,6.1900347 6.1900347,6.5896311 5.68831169,6.88711289 C5.16882857,7.19347473 4.60828362,7.34665335 4.00666001,7.34665335 C3.4050364,7.34665335 2.84449144,7.19347473 2.32500833,6.88711289 C1.82328531,6.5896311 1.42368891,6.1900347 1.12620713,5.68831169 C0.819845288,5.16882857 0.666666667,4.60828362 0.666666667,4.00666001 C0.666666667,3.4050364 0.819845288,2.84449144 1.12620713,2.32500833 C1.42368891,1.82328531 1.82328531,1.42368891 2.32500833,1.12620713 C2.84353627,0.820408594 3.4040811,0.667230482 4.00665958,0.66666822 L4.00666043,0.66666822 Z M4.00666043,0.66666822 C4.00555043,0.666667185 4.00444029,0.666666667 4.00333,0.666666667 L4.00999001,0.666666667 C4.00887973,0.666666667 4.00776958,0.666667185 4.00665958,0.66666822 L4.00666043,0.66666822 Z M4.34299034,5.67499167 L4.34299034,5.00899101 L3.67032967,5.00899101 L3.67032967,5.67499167 L4.34299034,5.67499167 Z M4.34299034,4.34299034 L4.34299034,2.33832834 L3.67032967,2.33832834 L3.67032967,4.34299034 L4.34299034,4.34299034 Z" id="" fill="#F83200"></path>
        </g>
    </g>
</svg>