<?xml version="1.0" encoding="UTF-8"?>
<svg width="20px" height="20px" viewBox="0 0 20 20" version="1.1" xmlns="http://www.w3.org/2000/svg" xmlns:xlink="http://www.w3.org/1999/xlink">
    <!-- Generator: Sketch 51.3 (57544) - http://www.bohemiancoding.com/sketch -->
    <title>icons / classes/ BMC_Package_32_Error</title>
    <desc>Created with Sketch.</desc>
    <defs>
        <polygon id="path-1" points="0.000333333333 0.000125 16.6666667 0.000125 16.6666667 19.9999167 0.000333333333 19.9999167"></polygon>
    </defs>
    <g id="icons-/-classes/-BMC_Package_32" stroke="none" stroke-width="1" fill="none" fill-rule="evenodd">
        <g id="icons-/-classes/-Package">
            <g id="icons-/-20x20-icon-field" fill="#F5A623" fill-rule="nonzero" opacity="0">
                <rect x="0" y="0" width="20" height="20"></rect>
            </g>
            <g id="Group-3" transform="translate(2.000000, 0.000000)">
                <mask id="mask-2" fill="white">
                    <use xlink:href="#path-1"></use>
                </mask>
                <g id="Clip-2"></g>
                <path d="M9.16866667,10.35075 L15.0003333,6.88908333 L15.0003333,14.11575 L9.16866667,17.66325 L9.16866667,10.35075 Z M7.502,10.35075 L7.502,17.6649167 L1.67033333,14.1149167 L1.67033333,6.88908333 L7.502,10.35075 Z M8.33533333,8.88658333 L2.462,5.40075 L8.33366667,1.82741667 L14.2061667,5.40241667 L8.33533333,8.88658333 Z M7.9095,0.12075 L0.4045,4.68158333 C0.153666667,4.83408333 0.000333333333,5.10991667 0.000333333333,5.40658333 L0.00533333333,14.5940833 C0.00533333333,14.8899167 0.158666667,15.1649167 0.4095,15.31825 L7.9095,19.8799167 C8.17283333,20.0399167 8.50283333,20.0399167 8.76616667,19.8799167 L16.262,15.31825 C16.5128333,15.1649167 16.667,14.8899167 16.667,14.59325 L16.667,5.40658333 C16.667,5.10991667 16.5128333,4.83491667 16.262,4.68158333 L8.76616667,0.12075 C8.50283333,-0.0400833333 8.17366667,-0.0400833333 7.9095,0.12075 Z" id="Fill-1" fill="#333333" mask="url(#mask-2)"></path>
            </g>
        </g>
        <g id="icons-/-Error_Mark" transform="translate(0.000000, 12.000000)">
            <circle id="Oval" fill="#FFFFFF" fill-rule="nonzero" cx="4" cy="4" r="4"></circle>
            <path d="M4.00666043,0.66666822 C4.60923891,0.667230482 5.16978374,0.820408594 5.68831169,1.12620713 C6.1900347,1.42368891 6.5896311,1.82328531 6.88711289,2.32500833 C7.19347473,2.84449144 7.34665335,3.4050364 7.34665335,4.00666001 C7.34665335,4.60828362 7.19347473,5.16882857 6.88711289,5.68831169 C6.5896311,6.1900347 6.1900347,6.5896311 5.68831169,6.88711289 C5.16882857,7.19347473 4.60828362,7.34665335 4.00666001,7.34665335 C3.4050364,7.34665335 2.84449144,7.19347473 2.32500833,6.88711289 C1.82328531,6.5896311 1.42368891,6.1900347 1.12620713,5.68831169 C0.819845288,5.16882857 0.666666667,4.60828362 0.666666667,4.00666001 C0.666666667,3.4050364 0.819845288,2.84449144 1.12620713,2.32500833 C1.42368891,1.82328531 1.82328531,1.42368891 2.32500833,1.12620713 C2.84353627,0.820408594 3.4040811,0.667230482 4.00665958,0.66666822 L4.00666043,0.66666822 Z M4.00666043,0.66666822 C4.00555043,0.666667185 4.00444029,0.666666667 4.00333,0.666666667 L4.00999001,0.666666667 C4.00887973,0.666666667 4.00776958,0.666667185 4.00665958,0.66666822 L4.00666043,0.66666822 Z M4.34299034,5.67499167 L4.34299034,5.00899101 L3.67032967,5.00899101 L3.67032967,5.67499167 L4.34299034,5.67499167 Z M4.34299034,4.34299034 L4.34299034,2.33832834 L3.67032967,2.33832834 L3.67032967,4.34299034 L4.34299034,4.34299034 Z" id="" fill="#F83200"></path>
        </g>
    </g>
</svg>