<?xml version="1.0" encoding="UTF-8"?>
<svg width="20px" height="20px" viewBox="0 0 20 20" version="1.1" xmlns="http://www.w3.org/2000/svg" xmlns:xlink="http://www.w3.org/1999/xlink">
    <!-- Generator: Sketch 51.3 (57544) - http://www.bohemiancoding.com/sketch -->
    <title>icons / classes/ BMC_Phone_32_Error</title>
    <desc>Created with Sketch.</desc>
    <defs></defs>
    <g id="icons-/-classes/-BMC_Phone_32" stroke="none" stroke-width="1" fill="none" fill-rule="evenodd">
        <g id="icons-/-classes/-Phone">
            <g id="icons-/-20x20-icon-field" fill="#F5A623" fill-rule="nonzero" opacity="0">
                <rect x="0" y="0" width="20" height="20"></rect>
            </g>
            <path d="M14.7382617,12.6553447 C14.8461544,12.7272731 14.888112,12.7632368 14.8641359,12.7632368 C14.8161836,12.8711294 14.7082925,13.0509478 14.5404595,13.3026973 C14.3246742,13.6023991 14.2167832,13.7642356 14.2167832,13.7882118 L14.1988012,13.7882118 C14.1748251,13.8121879 14.1328674,13.8361637 14.0729271,13.8601399 C13.8211776,13.9440564 13.4016013,13.9260745 12.8141858,13.8061938 C12.514484,13.7462534 12.0409623,13.5184835 11.3936064,13.1228771 C10.8541432,12.7872111 10.3926093,12.463538 10.008991,12.1518482 C9.61338464,11.8161821 9.27772366,11.5224788 9.001998,11.2707293 L8.48051948,10.7852148 C8.28871033,10.6053937 8.07892222,10.4015995 7.85114885,10.1738262 C7.62337548,9.94605281 7.40459645,9.70329799 7.19480519,9.44555445 C6.98501394,9.1878109 6.80219858,8.9210803 6.64635365,8.64535465 C6.26273534,7.98601069 6.04095934,7.50349803 5.98101898,7.1978022 C5.92107862,6.89210636 5.88511495,6.61938182 5.87312687,6.37962038 C5.87312687,6.22377544 5.89110871,6.09790258 5.92707293,6.001998 L5.96303696,5.91208791 L5.98101898,5.89410589 L6.98801199,5.19280719 C7.04795235,5.18081912 7.08391602,5.18681307 7.0959041,5.21078921 L7.70729271,6.16383616 L8.13886114,6.82917083 L8.3006993,7.15284715 C8.3006993,7.16483522 8.29470535,7.18881101 8.28271728,7.22477522 C8.234765,7.3206798 8.18681343,7.39260715 8.13886114,7.44055944 L7.81518482,7.8001998 C7.68331602,7.94405666 7.62937051,8.16583267 7.65334665,8.46553447 C7.6773228,8.80120048 7.88711091,9.19680092 8.28271728,9.65234765 C8.63037137,10.0599421 8.87612316,10.3356636 9.01998002,10.4795205 L9.27172827,10.7492507 C9.31968056,10.797203 9.42157764,10.8931062 9.57742258,11.036963 C9.74525558,11.192808 10.0149832,11.40859 10.3866134,11.6843157 C10.818184,12.0199817 11.1898086,12.1698303 11.5014985,12.1338661 C11.7772242,12.1338661 11.9870123,12.0739267 12.1308691,11.954046 C12.2387618,11.8821175 12.3766225,11.7502507 12.5444555,11.5584416 C12.5804198,11.5224773 12.6403592,11.5104895 12.7242757,11.5224775 C12.8801207,11.5584417 12.9880117,11.6003994 13.047952,11.6483516 C13.1678328,11.7442562 13.4495482,11.9180807 13.8931069,12.1698302 C14.3007013,12.3976035 14.5824168,12.5594401 14.7382617,12.6553447 Z M18.2987013,6.18181818 C18.7662361,7.2847208 19,8.45653725 19,9.6973027 C19,10.9380681 18.7662361,12.1038906 18.2987013,13.1948052 C17.8311665,14.2857197 17.1898143,15.2387572 16.3746254,16.0539461 C15.5594365,16.8691349 14.6034021,17.5164811 13.5064935,17.996004 C12.4095849,18.4755269 11.2407654,18.7152847 10,18.7152847 C8.75923456,18.7152847 7.59041507,18.4755269 6.49350649,17.996004 C5.39659791,17.5164811 4.44056352,16.8691349 3.62537463,16.0539461 C2.81018573,15.2387572 2.16583653,14.2857197 1.69230769,13.1948052 C1.21877885,12.1038906 0.982017982,10.9380681 0.982017982,9.6973027 C0.982017982,8.45653725 1.21877885,7.28771777 1.69230769,6.19080919 C2.16583653,5.09390061 2.81018573,4.13786621 3.62537463,3.32267732 C4.44056352,2.50748843 5.39659791,1.86313923 6.49350649,1.38961039 C7.59041507,0.916081548 8.75923456,0.679320679 10,0.679320679 C11.2407654,0.679320679 12.4095849,0.916081548 13.5064935,1.38961039 C14.6034021,1.86313923 15.5594365,2.50748843 16.3746254,3.32267732 C17.1898143,4.13786621 17.8311665,5.09090364 18.2987013,6.18181818 Z M15.5654346,12.997003 C15.6133869,12.8531461 15.6133869,12.6973035 15.5654346,12.5294705 C15.5174823,12.3616375 15.3796215,12.193807 15.1518482,12.025974 C14.9720271,11.9180814 14.6753267,11.7472539 14.2617383,11.5134865 C13.8481498,11.2797191 13.599401,11.1328674 13.5154845,11.0729271 C13.3596396,10.9410583 13.1438575,10.8451551 12.8681319,10.7852148 C12.5204778,10.7132864 12.2267744,10.7972016 11.987013,11.036963 C11.8431561,11.204796 11.741259,11.3126871 11.6813187,11.3606394 C11.6453545,11.3726274 11.5674332,11.3846153 11.4475524,11.3966034 C11.3036956,11.3966034 11.0999014,11.2947063 10.8361638,11.0909091 C10.5004978,10.8271715 10.2487521,10.6233773 10.0809191,10.4795205 L9.82917083,10.2277722 L9.54145854,9.95804196 C9.42157782,9.82617317 9.18781393,9.56243954 8.84015984,9.16683317 C8.55244611,8.83116715 8.40859141,8.57942142 8.40859141,8.41158841 L8.39060939,8.26773227 L8.67832168,7.96203796 C8.78621433,7.85414531 8.88211746,7.71628456 8.96603397,7.54845155 C9.06193854,7.32067818 9.06793249,7.09290823 8.98401598,6.86513487 C8.92407562,6.70928993 8.85814222,6.57142917 8.78621379,6.45154845 L7.74325674,4.85114885 C7.64735217,4.6593397 7.50649444,4.53346683 7.32067932,4.47352647 C7.13486421,4.41358611 6.93406701,4.41958006 6.71828172,4.49150849 L6.61038961,4.54545455 L5.54945055,5.28271728 C5.41758176,5.36663379 5.30969073,5.51048849 5.22577423,5.71428571 C5.14185772,5.91808294 5.10589405,6.15484381 5.11788212,6.42457542 C5.12987019,6.69430704 5.17182781,7.00299526 5.24375624,7.35064935 C5.31568468,7.73426765 5.56743041,8.29170464 5.999001,9.02297702 C6.17882208,9.33466689 6.38261624,9.63136722 6.61038961,9.91308691 C6.83816298,10.1948066 7.07192687,10.4555433 7.31168831,10.6953047 C7.55144975,10.9350661 7.77322575,11.1508482 7.97702298,11.3426573 L8.4985015,11.8101898 C8.78621522,12.0979035 9.1338641,12.4065918 9.54145854,12.7362637 C9.94905299,13.0659357 10.4345626,13.4105876 10.998002,13.7702298 C11.7172863,14.2137884 12.2687294,14.4745251 12.6523477,14.5524476 C13.035966,14.63037 13.362636,14.6693307 13.6323676,14.6693307 C13.9020993,14.6693307 14.1328662,14.633367 14.3246753,14.5614386 C14.5524487,14.4775221 14.7202792,14.3576431 14.8281718,14.2017982 C14.864136,14.1538459 14.9720271,13.9980033 15.1518482,13.7342657 C15.3676334,13.4345639 15.5054942,13.1888121 15.5654346,12.997003 Z" id="" fill="#2B2826"></path>
        </g>
        <g id="icons-/-Error_Mark" transform="translate(0.000000, 12.000000)">
            <circle id="Oval" fill="#FFFFFF" fill-rule="nonzero" cx="4" cy="4" r="4"></circle>
            <path d="M4.00666043,0.66666822 C4.60923891,0.667230482 5.16978374,0.820408594 5.68831169,1.12620713 C6.1900347,1.42368891 6.5896311,1.82328531 6.88711289,2.32500833 C7.19347473,2.84449144 7.34665335,3.4050364 7.34665335,4.00666001 C7.34665335,4.60828362 7.19347473,5.16882857 6.88711289,5.68831169 C6.5896311,6.1900347 6.1900347,6.5896311 5.68831169,6.88711289 C5.16882857,7.19347473 4.60828362,7.34665335 4.00666001,7.34665335 C3.4050364,7.34665335 2.84449144,7.19347473 2.32500833,6.88711289 C1.82328531,6.5896311 1.42368891,6.1900347 1.12620713,5.68831169 C0.819845288,5.16882857 0.666666667,4.60828362 0.666666667,4.00666001 C0.666666667,3.4050364 0.819845288,2.84449144 1.12620713,2.32500833 C1.42368891,1.82328531 1.82328531,1.42368891 2.32500833,1.12620713 C2.84353627,0.820408594 3.4040811,0.667230482 4.00665958,0.66666822 L4.00666043,0.66666822 Z M4.00666043,0.66666822 C4.00555043,0.666667185 4.00444029,0.666666667 4.00333,0.666666667 L4.00999001,0.666666667 C4.00887973,0.666666667 4.00776958,0.666667185 4.00665958,0.66666822 L4.00666043,0.66666822 Z M4.34299034,5.67499167 L4.34299034,5.00899101 L3.67032967,5.00899101 L3.67032967,5.67499167 L4.34299034,5.67499167 Z M4.34299034,4.34299034 L4.34299034,2.33832834 L3.67032967,2.33832834 L3.67032967,4.34299034 L4.34299034,4.34299034 Z" id="" fill="#F83200"></path>
        </g>
    </g>
</svg>