<?xml version="1.0" encoding="UTF-8"?>
<svg width="20px" height="20px" viewBox="0 0 20 20" version="1.1" xmlns="http://www.w3.org/2000/svg" xmlns:xlink="http://www.w3.org/1999/xlink">
    <!-- Generator: Sketch 51.3 (57544) - http://www.bohemiancoding.com/sketch -->
    <title>icons / classes/ BMC_WAN_32</title>
    <desc>Created with Sketch.</desc>
    <defs></defs>
    <g id="icons-/-classes/-BMC_WAN_32" stroke="none" stroke-width="1" fill="none" fill-rule="evenodd">
        <g id="icons-/-classes/-WAN">
            <g id="icons-/-20x20-icon-field" fill="#F5A623" fill-rule="nonzero" opacity="0">
                <rect x="0" y="0" width="20" height="20"></rect>
            </g>
            <path d="M14.2527473,11.1988012 L19,11.1988012 L19,18.7152847 L0.982017982,18.7152847 L0.982017982,0.697302697 L14.2527473,0.697302697 L14.2527473,11.1988012 Z M18.2447552,17.9420579 L18.2447552,11.954046 L3.24775225,11.954046 L3.24775225,17.9420579 L18.2447552,17.9420579 Z M9.03796204,12.9070929 L9.5954046,12.9070929 L8.40859141,17.2047952 L7.86913087,17.2047952 L6.86213786,13.6083916 C6.83816172,13.5244751 6.82617383,13.4645356 6.82617383,13.4285714 L5.8011988,17.1868132 L5.20779221,17.1868132 L4.07492507,12.9070929 L4.65034965,12.9070929 L5.2977023,15.7122877 L5.40559441,16.1618382 C5.42957055,16.3176831 5.45954028,16.4615378 5.4955045,16.5934066 L5.6033966,16.1258741 L6.5024975,12.9070929 L7.18581419,12.9070929 L7.7972028,15.0829171 L7.995005,15.8741259 C8.04295728,16.0779231 8.09090885,16.3176809 8.13886114,16.5934066 L8.22877123,16.1618382 L9.03796204,12.9070929 Z M7.14985015,9.85014985 L6.39460539,10.8211788 L6.86213786,11.1988012 L6.8981019,11.1988012 L7.63536464,10.2637363 L7.14985015,9.85014985 Z M8.57042957,8.06993007 L7.81518482,9.02297702 L8.28271728,9.4005994 L9.03796204,8.46553447 L8.57042957,8.06993007 Z M10.0989011,6.16383616 L9.32567433,7.13486513 L9.81118881,7.49450549 L10.5664336,6.55944056 L10.0989011,6.16383616 Z M11.0699301,12.9070929 L11.6813187,12.9070929 L13.4435564,17.2047952 L12.8141858,17.2047952 L12.3106893,15.8921079 L10.5124875,15.8921079 L10.044955,17.2047952 L9.43356643,17.2047952 L11.0699301,12.9070929 Z M10.2427572,4.43756244 C10.1828169,4.59340737 10.1528472,4.75524392 10.1528472,4.92307692 C10.1528472,5.09090993 10.1828169,5.24675253 10.2427572,5.39060939 C10.3026976,5.53446625 10.3926068,5.66633307 10.5124875,5.78621379 C10.6323682,5.90609451 10.770229,5.9960037 10.9260739,6.05594406 C11.0819189,6.11588442 11.2377615,6.14585415 11.3936064,6.14585415 C11.5734275,6.14585415 11.735264,6.11288744 11.8791209,6.04695305 C12.0229777,5.98101865 12.1548446,5.89110946 12.2747253,5.77722278 C12.394606,5.66333609 12.4845152,5.53146928 12.5444555,5.38161838 C12.6043959,5.23176748 12.6343656,5.07592489 12.6343656,4.91408591 C12.6343656,4.75224694 12.6073929,4.59640435 12.5534466,4.44655345 C12.4995002,4.29670255 12.409591,4.15884179 12.2837163,4.03296703 C12.1578415,3.90709228 12.0169838,3.81118914 11.8611389,3.74525475 C11.7052939,3.67932035 11.5434574,3.64635365 11.3756244,3.64635365 C11.2077914,3.64635365 11.0579427,3.68231732 10.9260739,3.75424575 C10.7582409,3.82617419 10.6203802,3.91908035 10.5124875,4.03296703 C10.4045949,4.14685372 10.3146857,4.2817175 10.2427572,4.43756244 Z M10.6809106,15.4245754 L12.1308691,15.4245754 L11.6813187,14.2557443 C11.5974022,14.039959 11.5374627,13.8721285 11.5014985,13.7522478 L11.3756244,13.3566434 C11.3516482,13.5005002 11.3156846,13.632367 11.2677323,13.7522478 L11.2497502,13.8601399 C11.201798,14.0039967 11.1658343,14.1058938 11.1418581,14.1658342 L10.6809106,15.4245754 Z M13.9110889,12.9070929 L14.4865135,12.9070929 L16.7342657,16.2877123 L16.7342657,12.9070929 L17.2737263,12.9070929 L17.2737263,17.2047952 L16.6983017,17.2047952 L14.4505495,13.8241758 L14.4505495,17.2047952 L13.9110889,17.2047952 L13.9110889,12.9070929 Z" id="" fill="#2B2826"></path>
        </g>
        <g id="icons-/-Error_Mark" transform="translate(0.000000, 12.000000)" opacity="0">
            <circle id="Oval" fill="#FFFFFF" fill-rule="nonzero" cx="4" cy="4" r="4"></circle>
            <path d="M4.00666043,0.66666822 C4.60923891,0.667230482 5.16978374,0.820408594 5.68831169,1.12620713 C6.1900347,1.42368891 6.5896311,1.82328531 6.88711289,2.32500833 C7.19347473,2.84449144 7.34665335,3.4050364 7.34665335,4.00666001 C7.34665335,4.60828362 7.19347473,5.16882857 6.88711289,5.68831169 C6.5896311,6.1900347 6.1900347,6.5896311 5.68831169,6.88711289 C5.16882857,7.19347473 4.60828362,7.34665335 4.00666001,7.34665335 C3.4050364,7.34665335 2.84449144,7.19347473 2.32500833,6.88711289 C1.82328531,6.5896311 1.42368891,6.1900347 1.12620713,5.68831169 C0.819845288,5.16882857 0.666666667,4.60828362 0.666666667,4.00666001 C0.666666667,3.4050364 0.819845288,2.84449144 1.12620713,2.32500833 C1.42368891,1.82328531 1.82328531,1.42368891 2.32500833,1.12620713 C2.84353627,0.820408594 3.4040811,0.667230482 4.00665958,0.66666822 L4.00666043,0.66666822 Z M4.00666043,0.66666822 C4.00555043,0.666667185 4.00444029,0.666666667 4.00333,0.666666667 L4.00999001,0.666666667 C4.00887973,0.666666667 4.00776958,0.666667185 4.00665958,0.66666822 L4.00666043,0.66666822 Z M4.34299034,5.67499167 L4.34299034,5.00899101 L3.67032967,5.00899101 L3.67032967,5.67499167 L4.34299034,5.67499167 Z M4.34299034,4.34299034 L4.34299034,2.33832834 L3.67032967,2.33832834 L3.67032967,4.34299034 L4.34299034,4.34299034 Z" id="" fill="#F83200"></path>
        </g>
    </g>
</svg>