<?xml version="1.0" encoding="UTF-8"?>
<svg width="20px" height="20px" viewBox="0 0 20 20" version="1.1" xmlns="http://www.w3.org/2000/svg" xmlns:xlink="http://www.w3.org/1999/xlink">
    <!-- Generator: Sketch 51.3 (57544) - http://www.bohemiancoding.com/sketch -->
    <title>icons / classes/ BMC_Print_32_Error</title>
    <desc>Created with Sketch.</desc>
    <defs></defs>
    <g id="icons-/-classes/-BMC_Print_32" stroke="none" stroke-width="1" fill="none" fill-rule="evenodd">
        <g transform="translate(-1.000000, -1.000000)">
            <g id="icons-/-20x20-icon-field" transform="translate(1.000000, 1.000000)" fill="#F5A623" fill-rule="nonzero" opacity="0">
                <rect x="0" y="0" width="20" height="20"></rect>
            </g>
            <path d="M13.3276723,12.0859141 C13.3809526,12.0859141 13.4408921,12.092574 13.5074925,12.1058941 C13.5740929,12.1192142 13.6406923,12.139194 13.7072927,12.1658342 L13.8871129,12.2657343 C13.9537133,12.2923744 14.0103228,12.3323341 14.0569431,12.3856144 C14.1035633,12.4388947 14.140193,12.4921742 14.1668332,12.5454545 L14.2667333,12.7052947 C14.2800533,12.7452549 14.2933732,12.7985345 14.3066933,12.8651349 L14.3266733,12.9050949 C14.3399934,12.9450551 14.3466533,13.0183145 14.3466533,13.1248751 L14.3466533,17.7402597 L14.3266733,17.9400599 C14.3133532,17.9933403 14.2933734,18.0632696 14.2667333,18.1498501 C14.2400931,18.2364307 14.2067934,18.3030301 14.1668332,18.3496503 C14.1268729,18.3962706 14.0869133,18.4329003 14.046953,18.4595405 C13.9936727,18.5261409 13.9403932,18.5727604 13.8871129,18.5994006 L13.7072927,18.6993007 C13.6406923,18.7392609 13.5740929,18.7659007 13.5074925,18.7792208 L12.0889111,18.7792208 L12.0889111,19.7982018 C12.0889111,19.8648022 12.0822511,19.9447215 12.0689311,20.037962 C12.055611,20.1045624 12.0356312,20.1778218 12.008991,20.2577423 C11.9823508,20.3376627 11.9490511,20.4042621 11.9090909,20.4575425 L11.7692308,20.6573427 C11.7159504,20.710623 11.656011,20.7572426 11.5894106,20.7972028 L11.3896104,20.8971029 C11.2963698,20.9237431 11.2164505,20.9437229 11.1498501,20.957043 L11.0699301,20.977023 C11.0033297,21.0036631 10.9567101,21.016983 10.9300699,21.016983 L4.3966034,21.016983 C4.330003,21.016983 4.24342378,21.0103231 4.13686314,20.997003 C4.08358282,20.9836829 4.01032348,20.9570432 3.91708292,20.9170829 C3.85048252,20.8904428 3.78388312,20.8571431 3.71728272,20.8171828 C3.65068232,20.7639025 3.5974028,20.7172829 3.55744256,20.6773227 C3.49084216,20.6240424 3.44422258,20.5707628 3.41758242,20.5174825 L3.31768232,20.2977023 C3.27772208,20.2044617 3.25108232,20.1245425 3.23776224,20.0579421 C3.22444216,19.9513814 3.21778222,19.8714621 3.21778222,19.8181818 L3.21778222,18.7992008 L1.999001,18.7992008 C1.94572068,18.7992008 1.88578122,18.7958708 1.81918082,18.7892108 C1.75258042,18.7825507 1.68598102,18.7659009 1.61938062,18.7392607 L1.43956044,18.6193806 L1.27972028,18.4995005 C1.25308012,18.4595403 1.21312048,18.4062607 1.15984016,18.3396603 L1.07992008,18.1398601 L1.01998002,17.9200799 C0.99333986,17.8401594 0.98001998,17.7535802 0.98001998,17.6603397 L0.98001998,13.1248751 C0.98001998,13.0715948 0.98667992,12.9983355 1,12.9050949 C1.01332008,12.8518146 1.03662987,12.7885452 1.06993007,12.7152847 C1.10323027,12.6420243 1.1332,12.5854148 1.15984016,12.5454545 L1.27972028,12.3856144 C1.31968052,12.3323341 1.37296004,12.2923744 1.43956044,12.2657343 L1.61938062,12.1658342 C1.64602078,12.1525141 1.69264036,12.1391942 1.75924076,12.1258741 L1.7992008,12.1058941 C1.83916104,12.092574 1.90576044,12.0859141 1.999001,12.0859141 L3.1978022,12.0859141 L3.1978022,7.65034965 L9.13186813,7.65034965 L12.1288711,10.6073926 L12.1288711,12.0859141 L13.3276723,12.0859141 Z M3.91708292,12.0859141 L11.3696304,12.0859141 L11.3696304,10.8871129 L11.0899101,10.5874126 L9.13186813,10.5874126 L9.13186813,8.66933067 L8.85214785,8.36963037 L3.91708292,8.36963037 L3.91708292,12.0859141 Z M11.3696304,16.2417582 C11.3696304,16.201798 11.3596405,16.1585084 11.3396603,16.1118881 C11.3196802,16.0652678 11.2830505,16.0153183 11.2297702,15.962038 C11.1764899,15.9087576 11.1232104,15.868798 11.0699301,15.8421578 C11.0166498,15.8155177 10.9700302,15.8021978 10.9300699,15.8021978 L4.3966034,15.8021978 C4.330003,15.8021978 4.27339351,15.8155177 4.22677323,15.8421578 C4.18015295,15.868798 4.1302034,15.9054277 4.07692308,15.952048 C4.02364276,15.9986682 3.98368312,16.0519478 3.95704296,16.1118881 C3.9304028,16.1718285 3.91708292,16.2151181 3.91708292,16.2417582 L3.91708292,19.8181818 C3.91708292,19.8581421 3.9304028,19.9114216 3.95704296,19.978022 C3.98368312,20.0446224 4.02364276,20.1012319 4.07692308,20.1478521 C4.1302034,20.1944724 4.18015295,20.2244422 4.22677323,20.2377622 C4.27339351,20.2510823 4.330003,20.2577423 4.3966034,20.2577423 L10.95005,20.2577423 C11.0033303,20.2577423 11.0499499,20.2477523 11.0899101,20.2277722 C11.1298703,20.2077921 11.1798199,20.1744924 11.2397602,20.1278721 C11.2997006,20.0812518 11.3396602,20.0246424 11.3596404,19.958042 C11.3796205,19.8914416 11.3896104,19.838162 11.3896104,19.7982018 L11.3896104,16.2417582 L11.3696304,16.2417582 Z M5.43556444,18.03996 L5.43556444,17.3006993 L9.91108891,17.3006993 L9.91108891,18.03996 L5.43556444,18.03996 Z M5.43556444,19.5184815 L5.43556444,18.7992008 L9.91108891,18.7992008 L9.91108891,19.5184815 L5.43556444,19.5184815 Z M9.91108891,9.40859141 L9.91108891,9.86813187 L10.3506494,9.86813187 L9.91108891,9.40859141 Z M10.8701299,0.997002997 L21.01998,0.997002997 L21.01998,14.7432567 L15.1658342,14.7432567 L15.1658342,12.7852148 C15.1658342,12.7186144 15.1591742,12.6386951 15.1458541,12.5454545 C15.119214,12.2790529 14.9993351,12.049285 14.7862138,11.8561439 C14.5730925,11.6630027 14.3999341,11.5264739 14.2667333,11.4465534 C14.1734927,11.4065932 14.0602737,11.3666336 13.9270729,11.3266733 C13.767232,11.273393 13.5607738,11.2467532 13.3076923,11.2467532 L12.968032,11.2467532 L12.968032,10.2677323 L10.8701299,8.20979021 L10.8701299,0.997002997 Z M18.1228771,3.87412587 L13.7472527,3.87412587 L13.7472527,6.05194805 L18.1228771,6.05194805 L18.1228771,3.87412587 Z" id="" fill="#2B2826"></path>
            <g id="icons-/-Error_Mark" transform="translate(1.000000, 13.000000)">
                <circle id="Oval" fill="#FFFFFF" fill-rule="nonzero" cx="4" cy="4" r="4"></circle>
                <path d="M4.00666043,0.66666822 C4.60923891,0.667230482 5.16978374,0.820408594 5.68831169,1.12620713 C6.1900347,1.42368891 6.5896311,1.82328531 6.88711289,2.32500833 C7.19347473,2.84449144 7.34665335,3.4050364 7.34665335,4.00666001 C7.34665335,4.60828362 7.19347473,5.16882857 6.88711289,5.68831169 C6.5896311,6.1900347 6.1900347,6.5896311 5.68831169,6.88711289 C5.16882857,7.19347473 4.60828362,7.34665335 4.00666001,7.34665335 C3.4050364,7.34665335 2.84449144,7.19347473 2.32500833,6.88711289 C1.82328531,6.5896311 1.42368891,6.1900347 1.12620713,5.68831169 C0.819845288,5.16882857 0.666666667,4.60828362 0.666666667,4.00666001 C0.666666667,3.4050364 0.819845288,2.84449144 1.12620713,2.32500833 C1.42368891,1.82328531 1.82328531,1.42368891 2.32500833,1.12620713 C2.84353627,0.820408594 3.4040811,0.667230482 4.00665958,0.66666822 L4.00666043,0.66666822 Z M4.00666043,0.66666822 C4.00555043,0.666667185 4.00444029,0.666666667 4.00333,0.666666667 L4.00999001,0.666666667 C4.00887973,0.666666667 4.00776958,0.666667185 4.00665958,0.66666822 L4.00666043,0.66666822 Z M4.34299034,5.67499167 L4.34299034,5.00899101 L3.67032967,5.00899101 L3.67032967,5.67499167 L4.34299034,5.67499167 Z M4.34299034,4.34299034 L4.34299034,2.33832834 L3.67032967,2.33832834 L3.67032967,4.34299034 L4.34299034,4.34299034 Z" id="" fill="#F83200"></path>
            </g>
        </g>
    </g>
</svg>