<?xml version="1.0" encoding="UTF-8"?>
<svg width="20px" height="20px" viewBox="0 0 20 20" version="1.1" xmlns="http://www.w3.org/2000/svg" xmlns:xlink="http://www.w3.org/1999/xlink">
    <!-- Generator: Sketch 51.3 (57544) - http://www.bohemiancoding.com/sketch -->
    <title>icons / classes/ BMC_IPXConnectivityNetwork_32</title>
    <desc>Created with Sketch.</desc>
    <defs></defs>
    <g id="icons-/-classes/-BMC_IPXConnectivityNetwork_32" stroke="none" stroke-width="1" fill="none" fill-rule="evenodd">
        <g id="icons-/-classes/-IPX-Connectivity-Network">
            <g id="icons-/-20x20-icon-field" fill="#F5A623" fill-rule="nonzero" opacity="0">
                <rect x="0" y="0" width="20" height="20"></rect>
            </g>
            <path d="M14.2527473,11.1988012 L19,11.1988012 L19,18.7152847 L0.982017982,18.7152847 L0.982017982,0.697302697 L14.2527473,0.697302697 L14.2527473,11.1988012 Z M5.22577423,14.7772228 C5.28571459,14.6333659 5.31568432,14.4745263 5.31568432,14.3006993 C5.31568432,14.1268723 5.28271761,13.9680327 5.21678322,13.8241758 C5.15084882,13.680319 5.06693358,13.5514491 4.96503497,13.4375624 C4.86313635,13.3236758 4.73126954,13.2337666 4.56943057,13.1678322 C4.4075916,13.1018978 4.24275808,13.0689311 4.07492507,13.0689311 C3.90709207,13.0689311 3.75124947,13.1018978 3.60739261,13.1678322 C3.46353574,13.2337666 3.32867196,13.3236758 3.2027972,13.4375624 C3.07692245,13.5514491 2.98401628,13.6833159 2.92407592,13.8331668 C2.86413556,13.9830177 2.83416583,14.1418573 2.83416583,14.3096903 C2.83416583,14.4775233 2.86413556,14.6333659 2.92407592,14.7772228 C2.98401628,14.9210796 3.07692245,15.0559434 3.2027972,15.1818182 C3.32867196,15.3076929 3.46353574,15.4005991 3.60739261,15.4605395 C3.75124947,15.5204798 3.90709207,15.5504496 4.07492507,15.5504496 C4.24275808,15.5504496 4.40159765,15.5174828 4.55144855,15.4515485 C4.70129945,15.3856141 4.83616324,15.2927079 4.95604396,15.1728272 C5.07592468,15.0529465 5.16583387,14.9210796 5.22577423,14.7772228 Z M5.35164835,13.1048951 L6.10689311,12.1518482 L5.65734266,11.7742258 L4.88411588,12.7272727 L5.35164835,13.1048951 Z M6.88011988,11.1988012 L7.61738262,10.2637363 L7.14985015,9.85014985 L6.39460539,10.8211788 L6.86213786,11.1988012 L6.88011988,11.1988012 Z M18.2447552,17.9420579 L18.2447552,11.954046 L6.98801199,11.954046 L6.98801199,17.9420579 L18.2447552,17.9420579 Z M8.57042957,8.06993007 L7.81518482,9.02297702 L8.28271728,9.4005994 L9.03796204,8.46553447 L8.57042957,8.06993007 Z M8.31868132,12.8891109 L8.87612388,12.8891109 L8.87612388,17.1868132 L8.31868132,17.1868132 L8.31868132,12.8891109 Z M10.0989011,6.16383616 L9.32567433,7.13486513 L9.81118881,7.49450549 L10.5664336,6.55944056 L10.0989011,6.16383616 Z M12.6883117,13.1408591 C12.748252,13.1768234 12.8111885,13.2277719 12.8771229,13.2937063 C12.9430573,13.3596407 12.9970028,13.4435559 13.038961,13.5454545 C13.0809193,13.6473532 13.113886,13.7492502 13.1378621,13.8511489 C13.1618383,13.9530475 13.1738262,14.0459536 13.1738262,14.1298701 C13.1738262,14.3216793 13.1438564,14.4925067 13.0839161,14.6423576 C13.0239757,14.7922085 12.9370635,14.9300693 12.8231768,15.0559441 C12.7092901,15.1818188 12.5474536,15.2807189 12.3376623,15.3526474 C12.1278711,15.4245758 11.8671344,15.4605395 11.5554446,15.4605395 L10.4585415,15.4605395 L10.4585415,17.2047952 L9.88311688,17.2047952 L9.88311688,12.9070929 L11.8791209,12.9070929 C12.0109897,12.919081 12.1008989,12.9310689 12.1488511,12.9430569 C12.2567438,12.9670331 12.3586409,12.9970028 12.4545455,13.032967 C12.55045,13.0689312 12.6283713,13.1048949 12.6883117,13.1408591 Z M10.2427572,4.43756244 C10.1828169,4.59340737 10.1528472,4.75524392 10.1528472,4.92307692 C10.1528472,5.09090993 10.1828169,5.24675253 10.2427572,5.39060939 C10.3026976,5.53446625 10.3926068,5.66633307 10.5124875,5.78621379 C10.6323682,5.90609451 10.770229,5.9960037 10.9260739,6.05594406 C11.0819189,6.11588442 11.2377615,6.14585415 11.3936064,6.14585415 C11.5734275,6.14585415 11.735264,6.11288744 11.8791209,6.04695305 C12.0229777,5.98101865 12.1548446,5.89110946 12.2747253,5.77722278 C12.394606,5.66333609 12.4845152,5.53146928 12.5444555,5.38161838 C12.6043959,5.23176748 12.6343656,5.07592489 12.6343656,4.91408591 C12.6343656,4.75224694 12.6073929,4.59640435 12.5534466,4.44655345 C12.4995002,4.29670255 12.409591,4.15884179 12.2837163,4.03296703 C12.1578415,3.90709228 12.0169838,3.81118914 11.8611389,3.74525475 C11.7052939,3.67932035 11.5434574,3.64635365 11.3756244,3.64635365 C11.2077914,3.64635365 11.0579427,3.68231732 10.9260739,3.75424575 C10.7582409,3.82617419 10.6203802,3.91908035 10.5124875,4.03296703 C10.4045949,4.14685372 10.3146857,4.2817175 10.2427572,4.43756244 Z M12.3466533,14.7232767 C12.4305699,14.6633364 12.4845154,14.5854151 12.5084915,14.4895105 C12.5444557,14.3696298 12.5624376,14.2587418 12.5624376,14.1568432 C12.5624376,14.0549445 12.5504497,13.9650354 12.5264735,13.8871129 C12.5024974,13.8091904 12.4725277,13.746254 12.4365634,13.6983017 C12.4005992,13.6503494 12.3526477,13.6023978 12.2927073,13.5544456 C12.2327669,13.5064933 12.1608396,13.4705296 12.0769231,13.4465534 C12.0409589,13.4345654 11.9690315,13.4225775 11.8611389,13.4105894 L10.4585415,13.4105894 L10.4585415,14.9390609 L11.5734266,14.9390609 C11.7532477,14.9390609 11.9090902,14.9210791 12.040959,14.8851149 C12.1728278,14.8491507 12.2747249,14.7952052 12.3466533,14.7232767 Z M15.1158841,14.957043 L13.6593407,12.9070929 L14.3246753,12.9070929 L15.1158841,14.021978 L15.4575425,14.5254745 L15.6013986,14.2917083 C15.661339,14.2317679 15.7212784,14.1538466 15.7812188,14.0579421 L16.6443556,12.9070929 L17.2557443,12.9070929 L15.7632368,14.9390609 L17.3816184,17.2047952 L16.6803197,17.2047952 L15.5834166,15.6763237 L15.4035964,15.3886114 L15.2957043,15.5684316 L14.1268731,17.2047952 L13.4435564,17.2047952 L15.1158841,14.957043 Z" id="" fill="#2B2826"></path>
        </g>
        <g id="icons-/-Error_Mark" transform="translate(0.000000, 12.000000)" opacity="0">
            <circle id="Oval" fill="#FFFFFF" fill-rule="nonzero" cx="4" cy="4" r="4"></circle>
            <path d="M4.00666043,0.66666822 C4.60923891,0.667230482 5.16978374,0.820408594 5.68831169,1.12620713 C6.1900347,1.42368891 6.5896311,1.82328531 6.88711289,2.32500833 C7.19347473,2.84449144 7.34665335,3.4050364 7.34665335,4.00666001 C7.34665335,4.60828362 7.19347473,5.16882857 6.88711289,5.68831169 C6.5896311,6.1900347 6.1900347,6.5896311 5.68831169,6.88711289 C5.16882857,7.19347473 4.60828362,7.34665335 4.00666001,7.34665335 C3.4050364,7.34665335 2.84449144,7.19347473 2.32500833,6.88711289 C1.82328531,6.5896311 1.42368891,6.1900347 1.12620713,5.68831169 C0.819845288,5.16882857 0.666666667,4.60828362 0.666666667,4.00666001 C0.666666667,3.4050364 0.819845288,2.84449144 1.12620713,2.32500833 C1.42368891,1.82328531 1.82328531,1.42368891 2.32500833,1.12620713 C2.84353627,0.820408594 3.4040811,0.667230482 4.00665958,0.66666822 L4.00666043,0.66666822 Z M4.00666043,0.66666822 C4.00555043,0.666667185 4.00444029,0.666666667 4.00333,0.666666667 L4.00999001,0.666666667 C4.00887973,0.666666667 4.00776958,0.666667185 4.00665958,0.66666822 L4.00666043,0.66666822 Z M4.34299034,5.67499167 L4.34299034,5.00899101 L3.67032967,5.00899101 L3.67032967,5.67499167 L4.34299034,5.67499167 Z M4.34299034,4.34299034 L4.34299034,2.33832834 L3.67032967,2.33832834 L3.67032967,4.34299034 L4.34299034,4.34299034 Z" id="" fill="#F83200"></path>
        </g>
    </g>
</svg>