<?xml version="1.0" encoding="UTF-8"?>
<svg width="20px" height="20px" viewBox="0 0 20 20" version="1.1" xmlns="http://www.w3.org/2000/svg" xmlns:xlink="http://www.w3.org/1999/xlink">
    <!-- Generator: Sketch 51.3 (57544) - http://www.bohemiancoding.com/sketch -->
    <title>icons / classes/ BMC_MFVirtualSystemEnabler_32_Error</title>
    <desc>Created with Sketch.</desc>
    <defs></defs>
    <g id="icons-/-classes/-BMC_MFVirtualSystemEnabler_32" stroke="none" stroke-width="1" fill="none" fill-rule="evenodd">
        <g>
            <g id="icons-/-20x20-icon-field" fill="#F5A623" fill-rule="nonzero" opacity="0">
                <rect x="0" y="0" width="20" height="20"></rect>
            </g>
            <path d="M19.8801199,0.896103896 C19.9200801,0.962704296 19.9500499,1.03596364 19.97003,1.11588412 C19.9900101,1.1958046 20,1.2957037 20,1.41558442 L20,10.9260739 C19.7602386,10.4598711 19.4472214,10.0203151 19.0609391,9.60739261 C18.6746567,9.19447013 18.2484206,8.84149331 17.7822178,8.54845155 L17.7822178,2.21478521 L2.21778222,2.21478521 L2.21778222,12.2247752 L7.79220779,12.2247752 C7.68564715,12.5444571 7.60905784,12.8608043 7.56243756,13.1738262 C7.51581728,13.4868481 7.49250749,13.8165151 7.49250749,14.1628372 L7.49250749,14.4225774 L1.43856144,14.4225774 C1.34532088,14.4225774 1.2321019,14.4159175 1.0989011,14.4025974 C1.0323007,14.4025974 0.945721479,14.3826176 0.839160839,14.3426573 C0.75924036,14.3026971 0.685981019,14.2560775 0.619380619,14.2027972 C0.55278022,14.1495169 0.492840759,14.0762575 0.43956044,13.983017 L0.25974026,13.7432567 C0.21978002,13.6899764 0.16983047,13.6200471 0.10989011,13.5334665 C0.0499497502,13.446886 0.0133200799,13.3702967 0,13.3036963 C-0.0133200799,13.2370959 -0.01998002,13.1371968 -0.01998002,13.003996 L-0.01998002,1.41558442 C-0.01998002,1.2957037 -0.00666013986,1.1958046 0.01998002,1.11588412 L0.0999000999,0.856143856 C0.13986034,0.776223377 0.18647992,0.699634066 0.23976024,0.626373626 C0.293040559,0.553113187 0.35963996,0.489843756 0.43956044,0.436563437 C0.479520679,0.396603197 0.53946014,0.349983616 0.619380619,0.296703297 L0.899100899,0.116883117 C0.965701299,0.0769228771 1.04895055,0.0469531469 1.14885115,0.026973027 C1.24875175,0.00699290709 1.34532088,-0.002997003 1.43856144,-0.002997003 L18.8811189,-0.002997003 C18.9477193,0.0103230769 19.0342985,0.0369628372 19.1408591,0.0769230769 C19.2207796,0.103563237 19.2973689,0.146852847 19.3706294,0.206793207 C19.4438898,0.266733566 19.5071592,0.343322877 19.5604396,0.436563437 L19.8801199,0.896103896 Z M7.63236763,8.86813187 C7.64568771,8.85481179 7.65234765,8.84149191 7.65234765,8.82817183 L7.65234765,8.76823177 L7.67232767,8.68831169 L7.63236763,8.64835165 L7.41258741,8.12887113 L7.41258741,8.06893107 C7.41258741,8.05561099 7.40925744,8.04562108 7.4025974,8.03896104 L7.37262737,8.00899101 L7.29270729,7.96903097 L7.27272727,7.94905095 L7.17282717,7.92907093 L6.55344655,7.92907093 C6.54012647,7.92907093 6.52680659,7.92241099 6.51348651,7.90909091 L6.49350649,7.88911089 L6.43356643,7.88911089 L6.43356643,7.84915085 L6.41358641,7.82917083 L6.39360639,7.76923077 L6.37362637,7.72927073 L6.37362637,6.91008991 L6.41358641,6.83016983 L6.49350649,6.75024975 C6.49350649,6.73692967 6.50016643,6.73026973 6.51348651,6.73026973 L7.27272727,6.73026973 L7.31268731,6.71028971 C7.32600739,6.69696963 7.33266733,6.68364975 7.33266733,6.67032967 L7.33266733,6.65034965 L7.37262737,6.63036963 C7.38594745,6.63036963 7.39593736,6.62370969 7.4025974,6.61038961 C7.40925744,6.59706953 7.41258741,6.58374965 7.41258741,6.57042957 L7.41258741,6.53046953 L7.63236763,6.07092907 L7.63236763,6.03096903 L7.67232767,5.97102897 L7.65234765,5.85114885 C7.65234765,5.83782877 7.64568771,5.82450889 7.63236763,5.81118881 L7.59240759,5.73126873 L7.17282717,5.33166833 L7.15284715,5.29170829 L7.13286713,5.23176823 L7.13286713,5.13186813 L7.17282717,5.05194805 L7.75224775,4.49250749 L7.79220779,4.45254745 C7.79220779,4.43922737 7.79886773,4.43256743 7.81218781,4.43256743 L7.95204795,4.43256743 L8.47152847,4.89210789 C8.47152847,4.90542797 8.47485844,4.91541788 8.48151848,4.92207792 C8.48817852,4.92873796 8.50482837,4.93206793 8.53146853,4.93206793 L8.57142857,4.97202797 L8.71128871,4.99200799 L8.75124875,4.97202797 L8.79120879,4.93206793 L9.27072927,4.77222777 L9.31068931,4.73226773 L9.35064935,4.73226773 L9.47052947,4.59240759 L9.49050949,4.49250749 L9.49050949,3.85314685 L9.51048951,3.79320679 L9.55044955,3.75324675 C9.55044955,3.73992667 9.55377952,3.72993676 9.56043956,3.72327672 C9.5670996,3.71661668 9.58374945,3.71328671 9.61038961,3.71328671 L10.6093906,3.71328671 L10.6493506,3.75324675 C10.6626707,3.76656683 10.6693307,3.77988671 10.6693307,3.79320679 L10.6693307,3.83316683 C10.6826507,3.83316683 10.6893107,3.83982677 10.6893107,3.85314685 L10.6893107,4.49250749 C10.6893107,4.50582757 10.6959706,4.52580739 10.7092907,4.55244755 L10.7292707,4.63236763 L10.7892108,4.71228771 C10.8158509,4.71228771 10.8358308,4.71894765 10.8491508,4.73226773 L11.3686314,4.93206793 L11.4085914,4.95204795 L11.4285714,4.97202797 L11.5684316,4.95204795 L11.6483516,4.91208791 L12.1278721,4.43256743 C12.1411922,4.41924735 12.1545121,4.41258741 12.1678322,4.41258741 L12.3276723,4.41258741 C12.3276723,4.42590749 12.3343323,4.43922737 12.3476523,4.45254745 C12.3609724,4.46586753 12.3676324,4.47918741 12.3676324,4.49250749 L12.987013,5.05194805 L12.987013,5.13186813 C13.0003331,5.14518821 13.006993,5.16516803 13.006993,5.19180819 L13.006993,5.25174825 L12.987013,5.35164835 L12.5474525,5.75124875 C12.5474525,5.77788891 12.5341327,5.80452867 12.5074925,5.83116883 C12.4408921,5.83116883 12.4075924,5.83782877 12.4075924,5.85114885 L12.4075924,5.89110889 C12.3942723,5.90442897 12.3876124,5.91774885 12.3876124,5.93106893 L12.3876124,6.03096903 L12.4275724,6.05094905 L12.6273726,6.57042957 L12.6273726,6.61038961 L12.6673327,6.65034965 C12.6939728,6.67698981 12.7139526,6.69030969 12.7272727,6.69030969 L12.7672328,6.73026973 L13.4665335,6.73026973 L13.5064935,6.75024975 C13.5198136,6.75024975 13.5264735,6.75690969 13.5264735,6.77022977 L13.5664336,6.79020979 C13.5797536,6.79020979 13.5864136,6.79686973 13.5864136,6.81018981 L13.6263736,6.83016983 C13.6396937,6.84348991 13.6463536,6.85680979 13.6463536,6.87012987 L13.6463536,7.54945055 C13.2867115,7.56277063 12.900435,7.62271009 12.4875125,7.72927073 C12.1411904,7.80919121 11.7882136,7.93573007 11.4285714,8.10889111 C11.4285714,8.09557103 11.4352314,8.07226124 11.4485514,8.03896104 C11.4618715,8.00566084 11.4751914,7.96903117 11.4885115,7.92907093 L11.5284715,7.78921079 C11.5417916,7.74925055 11.5484515,7.69597103 11.5484515,7.62937063 L11.5484515,7.16983017 L11.4885115,7.00999001 C11.4751914,6.94338961 11.4552116,6.89677003 11.4285714,6.87012987 L11.3686314,6.73026973 C11.3553113,6.69030949 11.3353315,6.65034985 11.3086913,6.61038961 L11.1288711,6.39060939 L11.008991,6.27072927 L10.8091908,6.13086913 L10.4895105,5.99100899 L10.3496503,5.95104895 L10.1898102,5.95104895 L10.00999,5.91108891 L9.69030969,5.93106893 L9.57042957,5.97102897 C9.50382917,5.99766913 9.45720959,6.01764895 9.43056943,6.03096903 C9.36396903,6.04428911 9.31734945,6.06426893 9.29070929,6.09090909 L9.05094905,6.25074925 C8.99766873,6.29070949 8.96436903,6.32400919 8.95104895,6.35064935 L8.83116883,6.47052947 L8.77122877,6.57042957 L8.69130869,6.71028971 C8.66466853,6.73692987 8.64468871,6.78354945 8.63136863,6.85014985 L8.57142857,6.97002997 L8.49150849,7.28971029 L8.51148851,7.60939061 L8.53146853,7.74925075 L8.59140859,7.88911089 C8.60472867,7.95571129 8.61804855,8.00233087 8.63136863,8.02897103 L8.75124875,8.28871129 L8.95104895,8.52847153 L9.19080919,8.70829171 C9.21744935,8.73493187 9.25740899,8.76157163 9.31068931,8.78821179 L9.57042957,8.88811189 C9.63702997,8.91475205 9.68364955,8.92807193 9.71028971,8.92807193 L9.85014985,8.96803197 L10.00999,8.96803197 C9.81018881,9.11455285 9.64369031,9.25441159 9.51048951,9.38761239 C9.33732847,9.56077343 9.19080979,9.72061199 9.07092907,9.86713287 L8.69130869,9.70729271 L8.49150849,9.72727273 L8.01198801,10.2067932 L7.97202797,10.2067932 L7.93206793,10.2467532 C7.93206793,10.2600733 7.92540799,10.2667333 7.91208791,10.2667333 L7.83216783,10.2667333 L7.71228771,10.2067932 L7.13286713,9.62737263 L7.11288711,9.54745255 C7.09956703,9.54745255 7.09290709,9.53413267 7.09290709,9.50749251 L7.09290709,9.42757243 L7.11288711,9.34765235 L7.15284715,9.32767233 C7.16616723,9.32767233 7.17282717,9.32101239 7.17282717,9.30769231 L7.63236763,8.88811189 L7.63236763,8.86813187 Z M6.99300699,17.4395604 L7.69230769,15.7612388 C7.78554825,16.134201 7.9020972,16.4838479 8.04195804,16.8101898 C8.18181888,17.1365318 8.35830729,17.4661988 8.57142857,17.7992008 L7.31268731,17.7992008 L7.17282717,17.7792208 L7.11288711,17.7392607 L7.11288711,17.6793207 C7.11288711,17.6526805 7.10955714,17.6293707 7.1028971,17.6093906 C7.09623706,17.5894105 7.07958721,17.5727606 7.05294705,17.5594406 L6.99300699,17.5194805 L6.99300699,17.4395604 Z M18.2617383,9.98701299 C18.5148198,10.2534146 18.7479177,10.5464519 18.961039,10.8661339 C19.1608402,11.1591756 19.3473185,11.4921726 19.5204795,11.8651349 C19.6803205,12.224777 19.7968694,12.6010636 19.8701299,12.994006 C19.9433903,13.3869484 19.98335,13.7765548 19.99001,14.1628372 C19.99667,14.5491195 19.9633703,14.938726 19.8901099,15.3316683 C19.8168495,15.7246107 19.6969705,16.1008973 19.5304695,16.4605395 C19.3639685,16.8201816 19.1774902,17.1498487 18.971029,17.4495504 C18.7645677,17.7492522 18.5314698,18.0322997 18.2717283,18.2987013 C18.0119867,18.5651029 17.7289393,18.7982008 17.4225774,18.998002 C17.0895754,19.2111233 16.7532485,19.3909417 16.4135864,19.5374625 C16.0739244,19.6839834 15.7109576,19.7972024 15.3246753,19.8771229 C14.8851127,19.9703634 14.4988362,20.016983 14.1658342,20.016983 C13.7795518,20.016983 13.3899454,19.9770234 12.997003,19.8971029 C12.6040606,19.8171824 12.231104,19.6973035 11.8781219,19.5374625 C11.5251398,19.3776216 11.1921428,19.1944732 10.8791209,18.988012 C10.566099,18.7815507 10.2830515,18.5484528 10.02997,18.2887113 C9.77688851,18.0289697 9.54379061,17.7459223 9.33066933,17.4395604 C9.11754805,17.1331986 8.93772967,16.8035316 8.79120879,16.4505495 C8.64468791,16.0975673 8.53146893,15.7279407 8.45154845,15.3416583 C8.37162797,14.9820162 8.33166833,14.5924097 8.33166833,14.1728272 C8.33166833,13.7532447 8.37162797,13.3569782 8.45154845,12.984016 C8.53146893,12.5844136 8.64468791,12.208127 8.79120879,11.8551449 C8.93772967,11.5021627 9.11754805,11.1724957 9.33066933,10.8661339 C9.54379061,10.559772 9.77688851,10.2767246 10.02997,10.016983 C10.2830515,9.75724146 10.569429,9.52414356 10.8891109,9.31768232 C11.2087928,9.11122108 11.5384598,8.93806264 11.8781219,8.7982018 C12.2177839,8.65834096 12.5874106,8.54179201 12.987013,8.44855145 C13.3333351,8.36863097 13.7262715,8.32867133 14.1658342,8.32867133 C14.5521165,8.32867133 14.9450529,8.36863097 15.3446553,8.44855145 C15.6909774,8.51515185 16.0539442,8.6317008 16.4335664,8.7982018 C16.8131887,8.9647028 17.1428557,9.14119121 17.4225774,9.32767233 C17.7688995,9.55411369 18.048617,9.77389171 18.2617383,9.98701299 Z M13.3066933,16.7802198 L17.5624376,12.6843157 L16.8031968,11.8251748 L13.2467532,15.2017982 L11.4285714,13.3836164 L10.6893107,14.1828172 L13.3066933,16.7802198 Z" id="" fill="#2B2826"></path>
            <g id="icons-/-Error_Mark" transform="translate(0.000000, 12.000000)">
                <circle id="Oval" fill="#FFFFFF" fill-rule="nonzero" cx="4" cy="4" r="4"></circle>
                <path d="M4.00666043,0.66666822 C4.60923891,0.667230482 5.16978374,0.820408594 5.68831169,1.12620713 C6.1900347,1.42368891 6.5896311,1.82328531 6.88711289,2.32500833 C7.19347473,2.84449144 7.34665335,3.4050364 7.34665335,4.00666001 C7.34665335,4.60828362 7.19347473,5.16882857 6.88711289,5.68831169 C6.5896311,6.1900347 6.1900347,6.5896311 5.68831169,6.88711289 C5.16882857,7.19347473 4.60828362,7.34665335 4.00666001,7.34665335 C3.4050364,7.34665335 2.84449144,7.19347473 2.32500833,6.88711289 C1.82328531,6.5896311 1.42368891,6.1900347 1.12620713,5.68831169 C0.819845288,5.16882857 0.666666667,4.60828362 0.666666667,4.00666001 C0.666666667,3.4050364 0.819845288,2.84449144 1.12620713,2.32500833 C1.42368891,1.82328531 1.82328531,1.42368891 2.32500833,1.12620713 C2.84353627,0.820408594 3.4040811,0.667230482 4.00665958,0.66666822 L4.00666043,0.66666822 Z M4.00666043,0.66666822 C4.00555043,0.666667185 4.00444029,0.666666667 4.00333,0.666666667 L4.00999001,0.666666667 C4.00887973,0.666666667 4.00776958,0.666667185 4.00665958,0.66666822 L4.00666043,0.66666822 Z M4.34299034,5.67499167 L4.34299034,5.00899101 L3.67032967,5.00899101 L3.67032967,5.67499167 L4.34299034,5.67499167 Z M4.34299034,4.34299034 L4.34299034,2.33832834 L3.67032967,2.33832834 L3.67032967,4.34299034 L4.34299034,4.34299034 Z" id="" fill="#F83200"></path>
            </g>
        </g>
    </g>
</svg>