<?xml version="1.0" encoding="UTF-8"?>
<svg width="20px" height="20px" viewBox="0 0 20 20" version="1.1" xmlns="http://www.w3.org/2000/svg" xmlns:xlink="http://www.w3.org/1999/xlink">
    <!-- Generator: Sketch 51.3 (57544) - http://www.bohemiancoding.com/sketch -->
    <title>icons / classes/ BMC_Collection_32_Error</title>
    <desc>Created with Sketch.</desc>
    <defs></defs>
    <g id="icons-/-classes/-BMC_Collection_32" stroke="none" stroke-width="1" fill="none" fill-rule="evenodd">
        <g id="icons-/-classes/-Collection">
            <g id="icons-/-20x20-icon-field" fill="#F5A623" fill-rule="nonzero" opacity="0">
                <rect x="0" y="0" width="20" height="20"></rect>
            </g>
            <path d="M2.52847153,0.679320679 L4.66833167,0.679320679 L7.43756244,3.44855145 L7.43756244,7.6023976 C7.43756244,7.79420675 7.40159876,7.97402513 7.32967033,8.14185814 C7.2577419,8.30969115 7.15284784,8.46253677 7.01498501,8.6003996 C6.87712219,8.73826243 6.72127959,8.83716254 6.54745255,8.8971029 C6.3736255,8.95704326 6.19081015,8.98701299 5.999001,8.98701299 L2.52847153,8.98701299 C2.31268623,8.98701299 2.11188904,8.95704326 1.92607393,8.8971029 C1.74025881,8.83716254 1.58141924,8.7412594 1.44955045,8.60939061 C1.29370551,8.47752182 1.17682357,8.32467619 1.0989011,8.15084915 C1.02097863,7.97702211 0.982017982,7.79420675 0.982017982,7.6023976 L0.982017982,2.18981019 C0.982017982,1.98601297 1.02097863,1.79420669 1.0989011,1.61438561 C1.17682357,1.43456454 1.29070854,1.26973102 1.44055944,1.11988012 C1.59041034,0.970029221 1.74924991,0.859141219 1.91708292,0.787212787 C2.08491592,0.715284356 2.28871009,0.679320679 2.52847153,0.679320679 Z M2.52847153,10.3536464 L4.66833167,10.3536464 L7.43756244,13.1588412 L7.43756244,17.3126873 C7.43756244,17.5044965 7.40159876,17.6873118 7.32967033,17.8611389 C7.2577419,18.0349659 7.15584482,18.1848146 7.02397602,18.3106893 C6.89210723,18.4365641 6.73926161,18.5324672 6.56543457,18.5984016 C6.39160752,18.664336 6.20279822,18.6973027 5.999001,18.6973027 L2.52847153,18.6973027 C2.31268623,18.6973027 2.11188904,18.664336 1.92607393,18.5984016 C1.74025881,18.5324672 1.58141924,18.4335671 1.44955045,18.3016983 C1.29370551,18.1698295 1.17682357,18.0229778 1.0989011,17.8611389 C1.02097863,17.6992999 0.982017982,17.5164845 0.982017982,17.3126873 L0.982017982,11.9000999 C0.982017982,11.6963027 1.02097863,11.5044964 1.0989011,11.3246753 C1.17682357,11.1448542 1.29370551,10.9770238 1.44955045,10.8211788 C1.60539538,10.6653339 1.7702289,10.5484519 1.94405594,10.4705295 C2.11788299,10.392607 2.31268623,10.3536464 2.52847153,10.3536464 Z M6.05294705,3.80819181 L4.30869131,3.80819181 L4.30869131,2.06393606 L2.38461538,2.06393606 L2.38461538,7.6023976 L6.05294705,7.6023976 L6.05294705,3.80819181 Z M6.05294705,13.4825175 L4.30869131,13.4825175 L4.30869131,11.7742258 L2.38461538,11.7742258 L2.38461538,17.3126873 L6.05294705,17.3126873 L6.05294705,13.4825175 Z M8.4985015,13.6263736 C8.64235836,13.7822186 8.78921004,13.9320672 8.93906094,14.0759241 C9.08891184,14.2197809 9.25374535,14.3636356 9.43356643,14.5074925 L9.41558442,14.6153846 C9.33166791,14.8911103 9.2777224,15.0949044 9.25374625,15.2267732 C9.19380589,15.4665347 9.15184827,15.7062925 9.12787213,15.9460539 C8.93606298,15.5983999 8.78621433,15.2237782 8.67832168,14.8221778 C8.57042903,14.4205774 8.51048957,14.02198 8.4985015,13.6263736 Z M8.82217782,11.5944056 C8.84615397,11.8581432 8.88211764,12.1578405 8.93006993,12.4935065 C8.96603415,12.7572441 9.03196755,13.0509474 9.12787213,13.3746254 L8.84015984,13.0509491 C8.79220755,13.0029968 8.7202802,12.9190815 8.62437562,12.7992008 L8.55244755,12.7092907 C8.5764237,12.5294696 8.61238737,12.3376634 8.66033966,12.1338661 C8.6843158,12.0139854 8.73826132,11.834167 8.82217782,11.5944056 Z M9.9010989,8.82517483 C9.82917047,8.80119868 9.76923101,8.77122895 9.72127872,8.73526474 L9.66733267,8.6993007 C9.60739231,8.65134841 9.56543469,8.61538474 9.54145854,8.59140859 C9.40958975,8.47152787 9.30169872,8.32167922 9.21778222,8.14185814 C9.13386571,7.96203706 9.09190809,7.78221868 9.09190809,7.6023976 L9.09190809,2.18981019 C9.09190809,1.98601297 9.12787177,1.80020064 9.1998002,1.63236763 C9.27172863,1.46453463 9.38261663,1.29970111 9.53246753,1.13786214 C9.68231843,0.976023167 9.84715195,0.859141219 10.026973,0.787212787 C10.182818,0.715284356 10.3806182,0.679320679 10.6203796,0.679320679 L12.7782218,0.679320679 L15.5474525,3.44855145 L15.5474525,7.63836164 L15.5294705,7.71028971 C15.2897091,7.62637321 15.0679331,7.56643375 14.8641359,7.53046953 C14.5644341,7.48251724 14.3246762,7.45254751 14.1448551,7.44055944 L14.1448551,3.80819181 L12.4185814,3.80819181 L12.4185814,2.06393606 L10.4945055,2.06393606 L10.4945055,7.6023976 L12.3646354,7.6023976 C11.9210767,7.71029025 11.4835186,7.86613285 11.0519481,8.06993007 C10.6563417,8.27372729 10.2727291,8.52547303 9.9010989,8.82517483 Z M9.48751249,10.3536464 L9.48751249,10.4615385 L9.36163836,10.5334665 L9.48751249,10.3536464 Z M9.84715285,13.5364635 C9.72727213,13.1768214 9.62537504,12.7872149 9.54145854,12.3676324 C9.46953011,12.0079902 9.43356643,11.6123898 9.43356643,11.1808192 L9.46953047,10.4615385 C9.99700563,10.1858128 10.5544426,9.97902167 11.1418581,9.84115884 C11.7292737,9.70329601 12.3286683,9.63436563 12.9400599,9.63436563 L13.2457542,9.63436563 C13.3176827,9.63436563 13.4195798,9.64035958 13.5514486,9.65234765 C12.7122835,10.0959063 11.9780251,10.6413554 11.3486513,11.2887113 C10.7192776,11.9360672 10.2187831,12.6853104 9.84715285,13.5364635 Z M9.46953047,14.4535465 L9.46953047,14.4175824 C9.46953047,14.4055943 9.47552442,14.3996004 9.48751249,14.3996004 L9.5954046,14.6333666 L9.52347652,14.5974026 L9.43356643,14.5254745 C9.44555451,14.5134865 9.45154845,14.5014986 9.45154845,14.4895105 L9.46953047,14.4535465 Z M9.9010989,15.2627373 C10.3566456,16.0419619 10.9020947,16.7162809 11.5374625,17.2857143 C12.1728303,17.8551477 12.9100857,18.3316664 13.7492507,18.7152847 C13.3536444,18.7152847 12.9640379,18.6703301 12.5804196,18.5804196 C12.1968013,18.490509 11.8281736,18.3616392 11.4745255,18.1938062 C11.1208774,18.0259732 10.8002012,17.828173 10.5124875,17.6003996 C10.2007976,17.3486501 9.93107007,17.0849165 9.7032967,16.8091908 C9.71528478,16.4495487 9.73326661,16.1798211 9.75724276,16 C9.79320697,15.7362624 9.84115854,15.4905106 9.9010989,15.2627373 Z M10.0989011,14.2377622 L10.1888112,14.3096903 L10.1528472,14.3636364 L10.0989011,14.2377622 Z M14.7202797,9.83216783 C14.7322678,9.8441559 14.7502496,9.8561438 14.7742258,9.86813187 L14.8281718,9.86813187 C15.1998021,10.227774 15.535463,10.6233745 15.8351648,11.0549451 C16.1108905,11.4385634 16.3476514,11.8611366 16.5454545,12.3226773 C16.7432577,12.7842181 16.8901094,13.2667307 16.986014,13.7702298 C17.0819186,14.2857169 17.1298701,14.7952023 17.1298701,15.2987013 C16.7462518,15.4305701 16.3386635,15.5354641 15.9070929,15.6133866 C15.4755223,15.6913091 15.0439582,15.7302697 14.6123876,15.7302697 C13.7852106,15.7302697 13.0059977,15.6103908 12.2747253,15.3706294 C11.5434529,15.1308679 10.8481551,14.7772251 10.1888112,14.3096903 C10.3806203,13.7822151 10.6233752,13.2937085 10.9170829,12.8441558 C11.2107907,12.3946031 11.5524456,11.9750269 11.9420579,11.5854146 C12.3316703,11.1958022 12.7602374,10.8511503 13.2277722,10.5514486 C13.6593428,10.2757229 14.1568403,10.0359651 14.7202797,9.83216783 Z M12.5444555,8.33966034 C12.7482528,8.42357684 12.9700288,8.53146787 13.2097902,8.66333666 C13.4255755,8.78321738 13.6353636,8.9150842 13.8391608,9.05894106 C13.6833159,9.03496492 13.5334673,9.02297702 13.3896104,9.02297702 L12.958042,9.004995 C12.4905072,9.004995 12.0469551,9.04095868 11.6273726,9.11288711 C11.1718259,9.18481554 10.7522497,9.28671263 10.3686314,9.41858142 C10.6923093,9.15484384 11.0369612,8.93007086 11.4025974,8.74425574 C11.7682336,8.55844063 12.1488492,8.42357684 12.5444555,8.33966034 Z M10.7282717,15.3886114 C11.3396634,15.7122893 11.9690277,15.9520472 12.6163836,16.1078921 C13.2637395,16.263737 13.9290675,16.3416583 14.6123876,16.3416583 C15.0319701,16.3416583 15.4575403,16.3116886 15.8891109,16.2517483 C16.3206815,16.1918079 16.7222759,16.0959048 17.0939061,15.964036 C17.06993,16.2637378 17.0249754,16.569429 16.959041,16.8811189 C16.8931066,17.1928088 16.8061943,17.4925061 16.6983017,17.7802198 C16.4465522,17.9600409 16.1888125,18.1098895 15.9250749,18.2297702 C15.6613373,18.3496509 15.3976037,18.4395601 15.1338661,18.4995005 C14.2227727,18.2717271 13.3896142,17.8941085 12.6343656,17.3666334 C11.9030932,16.8631343 11.267735,16.2038003 10.7282717,15.3886114 Z M13.6413586,8.17782218 L13.7492507,8.17782218 C14.1928094,8.17782218 14.6273705,8.23176769 15.0529471,8.33966034 C15.4785236,8.44755299 15.8891089,8.60938953 16.2847153,8.82517483 C16.0569419,8.84915097 15.829172,8.88511465 15.6013986,8.93306693 C15.3976014,8.96903115 15.1698314,9.02897061 14.9180819,9.11288711 C14.6543443,8.88511375 14.4475532,8.71428628 14.2977023,8.6003996 C14.1478514,8.48651292 13.9290724,8.34565518 13.6413586,8.17782218 Z M18.4965035,11.1808192 C18.0889091,10.7972009 17.6693328,10.4765248 17.2377622,10.2187812 C16.8061916,9.96103767 16.3386639,9.7362647 15.8351648,9.54445554 C16.0749263,9.48451518 16.2847144,9.44855151 16.4645355,9.43656344 C16.7042969,9.41258729 16.914085,9.4005994 17.0939061,9.4005994 C17.405596,9.65234891 17.6693296,9.92207648 17.8851149,10.2097902 C18.1488525,10.5454562 18.3526466,10.8691293 18.4965035,11.1808192 Z M18.9460539,12.5834166 C18.958042,12.6793212 18.9760239,12.8171819 19,12.997003 C19.0119881,13.1048956 19.017982,13.2547443 19.017982,13.4465534 C19.017982,13.5664342 19.0119881,13.7222768 19,13.9140859 C18.9880119,14.0219786 18.9640361,14.1718272 18.9280719,14.3636364 C18.7602389,14.4835171 18.5714296,14.603396 18.3616384,14.7232767 C18.1518471,14.8431574 17.945056,14.9510485 17.7412587,15.046953 C17.7172826,14.1478477 17.564437,13.3027013 17.2827173,12.5114885 C17.0009976,11.7202758 16.5904123,10.9890143 16.0509491,10.3176823 C16.6143884,10.5574438 17.1418557,10.869129 17.6333666,11.2527473 C18.0889134,11.6004013 18.5264714,12.0439533 18.9460539,12.5834166 Z M17.6693307,16.4135864 C17.7052949,16.185813 17.7292707,15.9580431 17.7412587,15.7302697 C17.9090917,15.6703294 18.0709283,15.598402 18.2267732,15.5144855 L18.6943057,15.2627373 C18.5624369,15.6103913 18.4035973,15.9310675 18.2177822,16.2247752 C18.0319671,16.518483 17.8071941,16.7972015 17.5434565,17.0609391 C17.5794208,16.9170822 17.6213784,16.7013001 17.6693307,16.4135864 Z" id="" fill="#333333"></path>
        </g>
        <g id="icons-/-Error_Mark" transform="translate(0.000000, 12.000000)">
            <circle id="Oval" fill="#FFFFFF" fill-rule="nonzero" cx="4" cy="4" r="4"></circle>
            <path d="M4.00666043,0.66666822 C4.60923891,0.667230482 5.16978374,0.820408594 5.68831169,1.12620713 C6.1900347,1.42368891 6.5896311,1.82328531 6.88711289,2.32500833 C7.19347473,2.84449144 7.34665335,3.4050364 7.34665335,4.00666001 C7.34665335,4.60828362 7.19347473,5.16882857 6.88711289,5.68831169 C6.5896311,6.1900347 6.1900347,6.5896311 5.68831169,6.88711289 C5.16882857,7.19347473 4.60828362,7.34665335 4.00666001,7.34665335 C3.4050364,7.34665335 2.84449144,7.19347473 2.32500833,6.88711289 C1.82328531,6.5896311 1.42368891,6.1900347 1.12620713,5.68831169 C0.819845288,5.16882857 0.666666667,4.60828362 0.666666667,4.00666001 C0.666666667,3.4050364 0.819845288,2.84449144 1.12620713,2.32500833 C1.42368891,1.82328531 1.82328531,1.42368891 2.32500833,1.12620713 C2.84353627,0.820408594 3.4040811,0.667230482 4.00665958,0.66666822 L4.00666043,0.66666822 Z M4.00666043,0.66666822 C4.00555043,0.666667185 4.00444029,0.666666667 4.00333,0.666666667 L4.00999001,0.666666667 C4.00887973,0.666666667 4.00776958,0.666667185 4.00665958,0.66666822 L4.00666043,0.66666822 Z M4.34299034,5.67499167 L4.34299034,5.00899101 L3.67032967,5.00899101 L3.67032967,5.67499167 L4.34299034,5.67499167 Z M4.34299034,4.34299034 L4.34299034,2.33832834 L3.67032967,2.33832834 L3.67032967,4.34299034 L4.34299034,4.34299034 Z" id="" fill="#F83200"></path>
        </g>
    </g>
</svg>