<?xml version="1.0" encoding="UTF-8"?>
<svg width="20px" height="20px" viewBox="0 0 20 20" version="1.1" xmlns="http://www.w3.org/2000/svg" xmlns:xlink="http://www.w3.org/1999/xlink">
    <!-- Generator: Sketch 51.3 (57544) - http://www.bohemiancoding.com/sketch -->
    <title>icons / classes/ BMC_PointingDevice_32</title>
    <desc>Created with Sketch.</desc>
    <defs></defs>
    <g id="icons-/-classes/-BMC_PointingDevice_32" stroke="none" stroke-width="1" fill="none" fill-rule="evenodd">
        <g id="icons-/-classes/-Pointing-Device">
            <g id="icons-/-20x20-icon-field" fill="#F5A623" fill-rule="nonzero" opacity="0">
                <rect x="0" y="0" width="20" height="20"></rect>
            </g>
            <path d="M12.7242757,10.6593407 C12.7482519,10.6833168 12.7782216,10.7192805 12.8141858,10.7672328 L12.9400599,10.9470529 L12.994006,11.1088911 C13.0059941,11.1448553 13.011988,11.1988008 13.011988,11.2707293 L13.011988,17.7442557 C13.011988,17.8041961 13.0059941,17.8701295 12.994006,17.9420579 C12.9820179,17.9900102 12.9610391,18.0469527 12.9310689,18.1128871 C12.9010988,18.1788215 12.874126,18.22977 12.8501499,18.2657343 L12.7242757,18.4095904 L12.5624376,18.5354645 C12.5144853,18.5714288 12.4725277,18.5954045 12.4365634,18.6073926 C12.3766231,18.6433568 12.3226776,18.6673326 12.2747253,18.6793207 L12.2027972,18.6973027 C12.1548449,18.7092908 12.1128873,18.7152847 12.0769231,18.7152847 L1.91708292,18.7152847 C1.8811187,18.7152847 1.82117924,18.7092908 1.73726274,18.6973027 C1.68931045,18.6853146 1.62937099,18.6613388 1.55744256,18.6253746 L1.3956044,18.5354645 C1.34765211,18.5114884 1.30269751,18.4755247 1.26073926,18.4275724 C1.21878101,18.3796201 1.18581431,18.3316686 1.16183816,18.2837163 L1.05394605,18.1218781 L1,17.96004 C0.988011928,17.9240757 0.982017982,17.8581423 0.982017982,17.7622378 L0.982017982,11.2887113 C0.982017982,11.240759 0.988011928,11.1808195 1,11.1088911 C1.01198807,11.084915 1.02996991,11.0429573 1.05394605,10.983017 L1.16183816,10.7852148 C1.19780238,10.7372625 1.23376605,10.7012988 1.26973027,10.6773227 C1.32967063,10.6173823 1.3776222,10.5754247 1.41358641,10.5514486 L1.55744256,10.4615385 C1.60539485,10.4495504 1.66533431,10.4315686 1.73726274,10.4075924 C1.78521502,10.3956043 1.85114843,10.3896104 1.93506494,10.3896104 L12.0589411,10.3896104 C12.1188814,10.3896104 12.1848148,10.3956043 12.2567433,10.4075924 C12.3046955,10.4195805 12.364635,10.4405593 12.4365634,10.4705295 C12.5084919,10.5004997 12.5624374,10.5274724 12.5984016,10.5514486 L12.7242757,10.6593407 Z M2.83416583,12.4035964 L2.83416583,12.961039 L2.85214785,13.014985 C2.85214785,13.0389612 2.86113877,13.0629369 2.87912088,13.0869131 C2.89710299,13.1108892 2.91508483,13.1288711 2.93306693,13.1408591 C2.95104904,13.1528472 2.9780218,13.1588412 3.01398601,13.1588412 L3.57142857,13.1588412 L3.64335664,13.1408591 C3.65534472,13.1408591 3.6793205,13.1228773 3.71528472,13.0869131 L3.75124875,13.014985 C3.76323682,13.0029969 3.76923077,12.9850151 3.76923077,12.961039 L3.76923077,12.4035964 L3.75124875,12.3316683 C3.75124875,12.3076922 3.73926086,12.2837164 3.71528472,12.2597403 L3.64335664,12.2237762 C3.63136857,12.2117882 3.60739279,12.2057942 3.57142857,12.2057942 L3.01398601,12.2057942 C3.00199794,12.2057942 2.9840161,12.2117882 2.96003996,12.2237762 L2.90609391,12.2597403 C2.88211776,12.2837164 2.86413592,12.3046952 2.85214785,12.3226773 C2.84015978,12.3406594 2.83416583,12.3676322 2.83416583,12.4035964 Z M2.83416583,14.2557443 L2.83416583,14.7952048 L2.85214785,14.8671329 C2.85214785,14.891109 2.86113877,14.9150848 2.87912088,14.9390609 C2.89710299,14.9630371 2.91508483,14.9810189 2.93306693,14.993007 C2.95104904,15.0049951 2.9780218,15.010989 3.01398601,15.010989 L3.57142857,15.010989 L3.64335664,14.993007 C3.65534472,14.9810189 3.6793205,14.9630371 3.71528472,14.9390609 L3.75124875,14.8671329 C3.76323682,14.8431567 3.76923077,14.8191809 3.76923077,14.7952048 L3.76923077,14.1658342 L3.71528472,14.1118881 L3.64335664,14.0759241 C3.63136857,14.063936 3.61338673,14.0579421 3.58941059,14.0579421 L3.01398601,14.0579421 C3.00199794,14.0579421 2.9840161,14.063936 2.96003996,14.0759241 L2.90609391,14.1118881 C2.88211776,14.1358643 2.86413592,14.1568431 2.85214785,14.1748252 C2.84015978,14.1928073 2.83416583,14.21978 2.83416583,14.2557443 Z M11.1598402,16.1078921 C11.1598402,16.095904 11.1538462,16.0779222 11.1418581,16.0539461 L11.1058941,15.982018 L11.0519481,15.9460539 C11.03996,15.9340659 11.0099902,15.9280719 10.962038,15.9280719 L2.94205794,15.9280719 C2.93006987,15.94006 2.915085,15.9580418 2.8971029,15.982018 C2.87912079,16.0059941 2.86413592,16.0299699 2.85214785,16.0539461 L2.85214785,16.6833167 C2.85214785,16.7072928 2.85514483,16.7282716 2.86113886,16.7462537 C2.8671329,16.7642359 2.87912079,16.7822177 2.8971029,16.8001998 L2.94205794,16.8451548 L11.0519481,16.8451548 C11.0639361,16.8451548 11.081918,16.827173 11.1058941,16.7912088 L11.1418581,16.7372627 C11.1538462,16.7252747 11.1598402,16.7072928 11.1598402,16.6833167 L11.1598402,16.1078921 Z M4.68631369,12.4035964 L4.68631369,13.014985 C4.69830176,13.0389612 4.7162836,13.0629369 4.74025974,13.0869131 L4.81218781,13.1408591 C4.82417588,13.1528472 4.84215772,13.1588412 4.86613387,13.1588412 L5.44155844,13.1588412 L5.4955045,13.1408591 C5.51948064,13.1408591 5.54045945,13.1258743 5.55844156,13.0959041 C5.57642367,13.0659339 5.59140853,13.0389612 5.6033966,13.014985 L5.6033966,12.3316683 C5.59140853,12.3076922 5.57342669,12.2837164 5.54945055,12.2597403 L5.4955045,12.2237762 C5.48351642,12.2117882 5.46553459,12.2057942 5.44155844,12.2057942 L4.88411588,12.2057942 L4.81218781,12.2237762 L4.74025974,12.2597403 L4.7042957,12.3316683 C4.69230763,12.3436564 4.68631369,12.3676322 4.68631369,12.4035964 Z M4.68631369,14.2557443 L4.68631369,14.8671329 C4.69830176,14.891109 4.7162836,14.9150848 4.74025974,14.9390609 L4.81218781,14.993007 C4.82417588,15.0049951 4.84215772,15.010989 4.86613387,15.010989 L5.44155844,15.010989 L5.4955045,14.993007 C5.51948064,14.9810189 5.54045945,14.9630371 5.55844156,14.9390609 C5.57642367,14.9150848 5.59140853,14.891109 5.6033966,14.8671329 L5.6033966,14.1658342 L5.54945055,14.1118881 L5.4955045,14.0759241 C5.48351642,14.063936 5.46553459,14.0579421 5.44155844,14.0579421 L4.88411588,14.0579421 L4.81218781,14.0759241 L4.74025974,14.1118881 L4.7042957,14.1658342 C4.69230763,14.1898103 4.68631369,14.21978 4.68631369,14.2557443 Z M6.53846154,12.961039 C6.53846154,12.9850151 6.54145851,13.0059939 6.54745255,13.023976 C6.55344658,13.0419581 6.56843145,13.0629369 6.59240759,13.0869131 L6.64635365,13.1408591 C6.67032979,13.1528472 6.69430557,13.1588412 6.71828172,13.1588412 L7.27572428,13.1588412 L7.34765235,13.1408591 C7.35964042,13.1408591 7.37762226,13.1258743 7.4015984,13.0959041 C7.42557455,13.0659339 7.44355638,13.0389612 7.45554446,13.014985 L7.45554446,12.3316683 C7.44355638,12.3076922 7.42557455,12.2837164 7.4015984,12.2597403 L7.34765235,12.2237762 C7.33566428,12.2117882 7.31168849,12.2057942 7.27572428,12.2057942 L6.71828172,12.2057942 L6.66433566,12.2237762 L6.59240759,12.2597403 L6.55644356,12.3316683 C6.54445548,12.3316683 6.53846154,12.3556441 6.53846154,12.4035964 L6.53846154,12.961039 Z M6.53846154,14.7952048 C6.53846154,14.831169 6.54145851,14.8581418 6.54745255,14.8761239 C6.55344658,14.894106 6.56843145,14.9150848 6.59240759,14.9390609 L6.64635365,14.993007 C6.67032979,15.0049951 6.69430557,15.010989 6.71828172,15.010989 L7.27572428,15.010989 L7.34765235,14.993007 L7.4015984,14.9390609 C7.42557455,14.9150848 7.44355638,14.891109 7.45554446,14.8671329 L7.45554446,14.1658342 L7.4015984,14.1118881 L7.34765235,14.0759241 C7.33566428,14.063936 7.31168849,14.0579421 7.27572428,14.0579421 L6.71828172,14.0579421 L6.66433566,14.0759241 L6.59240759,14.1118881 L6.55644356,14.1658342 C6.54445548,14.1778222 6.53846154,14.207792 6.53846154,14.2557443 L6.53846154,14.7952048 Z M18.9100899,1.25474525 C18.9580422,1.29070947 18.982018,1.33866104 18.982018,1.3986014 L19,1.56043956 L19,8.91508492 C18.9880119,8.97502527 18.9730271,9.03196776 18.955045,9.08591409 C18.9370628,9.13986041 18.9070931,9.19080895 18.8651349,9.23876124 C18.8231766,9.28671353 18.778222,9.32567418 18.7302697,9.35564436 C18.6823174,9.38561454 18.6343659,9.41258729 18.5864136,9.43656344 L18.4425574,9.54445554 C18.3826171,9.56843169 18.3256746,9.5894105 18.2717283,9.60739261 C18.2177819,9.62537472 18.1608395,9.63436563 18.1008991,9.63436563 L7.52747253,9.63436563 C7.47952024,9.63436563 7.41958078,9.62837169 7.34765235,9.61638362 C7.29970006,9.60439554 7.24575455,9.58641371 7.18581419,9.56243756 C7.12587383,9.53846142 7.07192831,9.50849169 7.02397602,9.47252747 C6.97602374,9.43656326 6.94006006,9.39460563 6.91608392,9.34665335 L6.71828172,9.07692308 C6.6823175,9.02897079 6.66133869,8.9720283 6.65534466,8.90609391 C6.64935062,8.84015951 6.64635365,8.78321702 6.64635365,8.73526474 L6.64635365,1.56043956 L6.66433566,1.38061938 L6.68231768,1.21878122 C6.70629383,1.17082893 6.73626356,1.12587434 6.77222777,1.08391608 C6.80819199,1.04195783 6.85614356,0.997003237 6.91608392,0.949050949 C6.95204813,0.937062877 6.9999997,0.907093147 7.05994006,0.859140859 L7.0959041,0.841158841 C7.14385638,0.805194625 7.17982006,0.781218841 7.2037962,0.769230769 C7.23976042,0.733266553 7.28771199,0.709290769 7.34765235,0.697302697 L7.54545455,0.679320679 L18.1008991,0.679320679 L18.2987013,0.697302697 C18.3706297,0.709290769 18.4305692,0.724275634 18.4785215,0.742257742 C18.5264738,0.76023985 18.5744253,0.79020958 18.6223776,0.832167832 C18.6703299,0.874126084 18.7062936,0.913086733 18.7302697,0.949050949 L18.8201798,1.11088911 C18.856144,1.14685333 18.8861138,1.1948049 18.9100899,1.25474525 Z M17.6333666,2.06393606 L8.01298701,2.06393606 L8.01298701,8.24975025 L17.6333666,8.24975025 L17.6333666,2.06393606 Z M8.40859141,12.3316683 L8.40859141,13.014985 L8.46253746,13.0869131 L8.51648352,13.1408591 C8.52847159,13.1528472 8.54645343,13.1588412 8.57042957,13.1588412 L9.14585415,13.1588412 L9.1998002,13.1408591 C9.22377634,13.1408591 9.24475515,13.1258743 9.26273726,13.0959041 C9.28071937,13.0659339 9.29570424,13.0389612 9.30769231,13.014985 L9.30769231,12.3316683 C9.29570424,12.3076922 9.2777224,12.2837164 9.25374625,12.2597403 L9.1998002,12.2237762 C9.18781213,12.2117882 9.16983029,12.2057942 9.14585415,12.2057942 L8.57042957,12.2057942 C8.54645343,12.2057942 8.52847159,12.2117882 8.51648352,12.2237762 L8.46253746,12.2597403 L8.40859141,12.3316683 Z M8.40859141,14.1658342 L8.40859141,14.8671329 L8.46253746,14.9390609 L8.51648352,14.993007 C8.52847159,15.0049951 8.54645343,15.010989 8.57042957,15.010989 L9.14585415,15.010989 L9.1998002,14.993007 C9.22377634,14.9810189 9.24475515,14.9630371 9.26273726,14.9390609 C9.28071937,14.9150848 9.29570424,14.891109 9.30769231,14.8671329 L9.30769231,14.1658342 L9.25374625,14.1118881 L9.1998002,14.0759241 C9.18781213,14.063936 9.16983029,14.0579421 9.14585415,14.0579421 L8.57042957,14.0579421 C8.54645343,14.0579421 8.52847159,14.063936 8.51648352,14.0759241 L8.46253746,14.1118881 L8.40859141,14.1658342 Z M11.1598402,12.4035964 C11.1598402,12.3796203 11.1538462,12.3556445 11.1418581,12.3316683 L11.1058941,12.2597403 L11.0519481,12.2237762 C11.03996,12.2117882 11.0099902,12.2057942 10.962038,12.2057942 L10.4225774,12.2057942 L10.3506494,12.2237762 C10.3386613,12.2357643 10.3206794,12.2507492 10.2967033,12.2687313 C10.2727272,12.2867134 10.2577423,12.3016982 10.2517483,12.3136863 C10.2457542,12.3256744 10.2427572,12.3556441 10.2427572,12.4035964 L10.2427572,12.961039 L10.2607393,13.014985 C10.2607393,13.0389612 10.2697302,13.0629369 10.2877123,13.0869131 C10.3056944,13.1108892 10.3236762,13.1288711 10.3416583,13.1408591 C10.3596404,13.1528472 10.3866132,13.1588412 10.4225774,13.1588412 L10.962038,13.1588412 C10.9980022,13.1588412 11.0249749,13.1558442 11.042957,13.1498501 C11.0609392,13.1438561 11.075924,13.1288712 11.0879121,13.1048951 L11.1418581,13.014985 C11.1538462,13.0029969 11.1598402,12.9850151 11.1598402,12.961039 L11.1598402,12.4035964 Z M11.1598402,14.2557443 C11.1598402,14.2317681 11.1538462,14.2017984 11.1418581,14.1658342 L11.1058941,14.1118881 L11.0519481,14.0759241 C11.03996,14.063936 11.0099902,14.0579421 10.962038,14.0579421 L10.4225774,14.0579421 L10.3506494,14.0759241 C10.3386613,14.0759241 10.3206794,14.087912 10.2967033,14.1118881 C10.2727272,14.1358643 10.2577423,14.1538461 10.2517483,14.1658342 C10.2457542,14.1778222 10.2427572,14.207792 10.2427572,14.2557443 L10.2427572,14.7952048 L10.2607393,14.8671329 C10.2607393,14.891109 10.2697302,14.9150848 10.2877123,14.9390609 C10.3056944,14.9630371 10.3236762,14.9810189 10.3416583,14.993007 C10.3596404,15.0049951 10.3866132,15.010989 10.4225774,15.010989 L10.962038,15.010989 C10.9980022,15.010989 11.0249749,15.0049951 11.042957,14.993007 C11.0609392,14.9810189 11.075924,14.969031 11.0879121,14.957043 L11.1418581,14.8671329 C11.1538462,14.8551448 11.1598402,14.831169 11.1598402,14.7952048 L11.1598402,14.2557443 Z M13.6773227,10.3176823 L14.1988012,10.3176823 L14.6843157,11.4865135 L14.6843157,11.5224775 L14.6483516,11.6123876 L14.6123876,11.6123876 L14.5404595,11.6483516 C14.5404595,11.6603397 14.5344656,11.6693306 14.5224775,11.6753247 C14.5104895,11.6813187 14.4985016,11.6843157 14.4865135,11.6843157 L13.7492507,11.6843157 L13.7492507,10.7132867 C13.7492507,10.6653344 13.7432568,10.599401 13.7312687,10.5154845 C13.7192807,10.4555442 13.7012988,10.3896107 13.6773227,10.3176823 Z" id="" fill="#2B2826"></path>
        </g>
        <g id="icons-/-Error_Mark" transform="translate(0.000000, 12.000000)" opacity="0">
            <circle id="Oval" fill="#FFFFFF" fill-rule="nonzero" cx="4" cy="4" r="4"></circle>
            <path d="M4.00666043,0.66666822 C4.60923891,0.667230482 5.16978374,0.820408594 5.68831169,1.12620713 C6.1900347,1.42368891 6.5896311,1.82328531 6.88711289,2.32500833 C7.19347473,2.84449144 7.34665335,3.4050364 7.34665335,4.00666001 C7.34665335,4.60828362 7.19347473,5.16882857 6.88711289,5.68831169 C6.5896311,6.1900347 6.1900347,6.5896311 5.68831169,6.88711289 C5.16882857,7.19347473 4.60828362,7.34665335 4.00666001,7.34665335 C3.4050364,7.34665335 2.84449144,7.19347473 2.32500833,6.88711289 C1.82328531,6.5896311 1.42368891,6.1900347 1.12620713,5.68831169 C0.819845288,5.16882857 0.666666667,4.60828362 0.666666667,4.00666001 C0.666666667,3.4050364 0.819845288,2.84449144 1.12620713,2.32500833 C1.42368891,1.82328531 1.82328531,1.42368891 2.32500833,1.12620713 C2.84353627,0.820408594 3.4040811,0.667230482 4.00665958,0.66666822 L4.00666043,0.66666822 Z M4.00666043,0.66666822 C4.00555043,0.666667185 4.00444029,0.666666667 4.00333,0.666666667 L4.00999001,0.666666667 C4.00887973,0.666666667 4.00776958,0.666667185 4.00665958,0.66666822 L4.00666043,0.66666822 Z M4.34299034,5.67499167 L4.34299034,5.00899101 L3.67032967,5.00899101 L3.67032967,5.67499167 L4.34299034,5.67499167 Z M4.34299034,4.34299034 L4.34299034,2.33832834 L3.67032967,2.33832834 L3.67032967,4.34299034 L4.34299034,4.34299034 Z" id="" fill="#F83200"></path>
        </g>
    </g>
</svg>