<?xml version="1.0" encoding="UTF-8"?>
<svg width="20px" height="20px" viewBox="0 0 20 20" version="1.1" xmlns="http://www.w3.org/2000/svg" xmlns:xlink="http://www.w3.org/1999/xlink">
    <!-- Generator: Sketch 51.3 (57544) - http://www.bohemiancoding.com/sketch -->
    <title>icons / classes/ BMC_SANDirector_32</title>
    <desc>Created with Sketch.</desc>
    <defs></defs>
    <g id="icons-/-classes/-BMC_SANDirector_32" stroke="none" stroke-width="1" fill="none" fill-rule="evenodd">
        <g>
            <g id="icons-/-20x20-icon-field" fill="#F5A623" fill-rule="nonzero" opacity="0">
                <rect x="0" y="0" width="20" height="20"></rect>
            </g>
            <path d="M2.33766234,5.55144855 C1.53845754,5.36496743 0.949052847,5.17182917 0.569430569,4.97202797 C0.189808292,4.77222677 0,4.53912887 0,4.27272727 L0,1.81518482 C0,1.54878322 0.193138262,1.3056954 0.579420579,1.08591409 C0.965702897,0.866132767 1.54844765,0.669664535 2.32767233,0.496503497 C3.106897,0.323342458 3.96935924,0.196803596 4.91508492,0.116883117 C5.86081059,0.0369626374 6.88644136,-0.002997003 7.99200799,-0.002997003 C9.09757463,-0.002997003 10.1198754,0.0369626374 11.0589411,0.116883117 C11.9980067,0.196803596 12.857139,0.323342458 13.6363636,0.496503497 C14.4155883,0.669664535 14.9983331,0.866132767 15.3846154,1.08591409 C15.7708977,1.3056954 15.964036,1.54878322 15.964036,1.81518482 L15.964036,1.85514486 L15.984016,1.85514486 L15.984016,4.29270729 C15.984016,4.53246873 15.7875478,4.76223666 15.3946054,4.98201798 C15.001663,5.2017993 14.4189183,5.39160759 13.6463536,5.55144855 C12.9004292,5.73792967 12.0412969,5.87778841 11.0689311,5.97102897 C10.1498456,6.06426953 9.12421479,6.11088911 7.99200799,6.11088911 C6.8598012,6.11088911 5.84083037,6.06426953 4.93506494,5.97102897 C3.9626991,5.87778841 3.09690689,5.73792967 2.33766234,5.55144855 Z M2.31768232,10.2867133 C1.55843776,10.1002322 0.982352947,9.90376394 0.589410589,9.6973027 C0.196468232,9.49084146 0,9.25441359 0,8.98801199 L0,6.53046953 C0,6.47718921 0.00665994006,6.43056963 0.01998002,6.39060939 L0.0999000999,6.25074925 C0.233100899,6.46387053 0.532798202,6.66366873 0.999000999,6.85014985 C1.42524356,7.02331089 2.01797822,7.18980939 2.77722278,7.34965035 C3.44322677,7.48285115 4.24907952,7.58941019 5.19480519,7.66933067 C5.95404975,7.73593107 6.88644136,7.76923077 7.99200799,7.76923077 C9.01765415,7.76923077 9.95004575,7.73593107 10.7892108,7.66933067 C11.7349365,7.57609011 12.5407892,7.46287113 13.2067932,7.32967033 C13.9260775,7.19646953 14.5121522,7.03663097 14.965035,6.85014985 C15.4179177,6.66366873 15.7242749,6.45721059 15.8841159,6.23076923 C15.9240761,6.28404955 15.9507159,6.33732907 15.964036,6.39060939 C15.977356,6.44388971 15.977356,6.49050929 15.964036,6.53046953 L15.964036,8.98801199 C15.964036,9.24109351 15.7675677,9.47752138 15.3746254,9.6973027 C14.981683,9.91708402 14.3989383,10.1135522 13.6263736,10.2867133 C12.853809,10.4598743 12.0013367,10.5897432 11.0689311,10.6763237 C10.1365255,10.7629042 9.11422468,10.8061938 8.001998,10.8061938 C6.88977133,10.8061938 5.86081059,10.7662342 4.91508492,10.6863137 C3.94271908,10.5930731 3.07692687,10.4598743 2.31768232,10.2867133 Z M15.964036,11.6653347 L20.01998,11.6653347 L20.01998,20.016983 L3.33666334,20.016983 L3.33666334,19.6573427 C3.17682238,19.6307025 3.00366394,19.5974028 2.81718282,19.5574426 L2.31768232,19.4575425 C1.54511768,19.2843814 0.965702897,19.0912432 0.579420579,18.8781219 C0.193138262,18.6650006 0,18.4319027 0,18.1788212 L0,15.6813187 C0,15.6413584 0.0133198801,15.5947389 0.03996004,15.5414585 C0.0666001998,15.4881782 0.09323996,15.4482186 0.11988012,15.4215784 C0.253080919,15.6346997 0.546118282,15.8344979 0.999000999,16.020979 C1.43856364,16.1941401 2.03795824,16.3606386 2.7972028,16.5204795 L3.33666334,16.6203796 L3.33666334,15.1018981 C3.17682238,15.0752579 3.00366394,15.0419582 2.81718282,15.001998 L2.31768232,14.8821179 C1.55843776,14.7089568 0.982352947,14.5158186 0.589410589,14.3026973 C0.196468232,14.089576 0,13.8498182 0,13.5834166 L0,11.1058941 C0,11.0526138 0.00998991009,11.0026642 0.02997003,10.956044 C0.0499501499,10.9094237 0.0799198801,10.8594741 0.11988012,10.8061938 C0.253080919,11.0193151 0.546118282,11.2191133 0.999000999,11.4055944 C1.43856364,11.5787554 2.03795824,11.7452539 2.7972028,11.9050949 L3.33666334,12.004995 L3.33666334,11.6453546 L14.2857143,11.6453546 C14.6986368,11.538794 15.0416237,11.4122551 15.3146853,11.2657343 C15.587747,11.1192134 15.7775552,10.9660348 15.8841159,10.8061938 C15.9240761,10.8594741 15.9507159,10.9127536 15.964036,10.966034 L15.964036,10.986014 C15.977356,11.0392943 15.977356,11.0792539 15.964036,11.1058941 L15.964036,11.6653347 Z M19.1608392,19.1578422 L19.1608392,12.5044955 L4.15584416,12.5044955 L4.15584416,19.1578422 L19.1608392,19.1578422 Z M8.29170829,15.8011988 C8.42490909,15.8811193 8.54145804,15.9610386 8.64135864,16.040959 C8.74125924,16.1208795 8.82450849,16.2074587 8.89110889,16.3006993 C8.95770929,16.3939399 9.00765884,16.4971689 9.04095904,16.6103896 C9.07425924,16.7236103 9.09090909,16.8434892 9.09090909,16.97003 C9.09090909,17.0965707 9.07425924,17.2164497 9.04095904,17.3296703 C9.00765884,17.442891 8.95104935,17.55944 8.87112887,17.6793207 C8.79120839,17.7992014 8.70462917,17.9024305 8.61138861,17.989011 C8.51814805,18.0755915 8.4015991,18.1521808 8.26173826,18.2187812 C8.12187742,18.2853816 7.97202877,18.3320012 7.81218781,18.3586414 C7.65234685,18.3852815 7.48584835,18.3986014 7.31268731,18.3986014 C7.11288611,18.3986014 6.92307782,18.3819515 6.74325674,18.3486513 C6.56343566,18.3153511 6.40026713,18.2654016 6.25374625,18.1988012 C6.10722537,18.1322008 5.97402657,18.0522815 5.85414585,17.959041 C5.73426513,17.8658004 5.63436603,17.7559114 5.55444555,17.6293706 C5.47452507,17.5028299 5.41458561,17.3629711 5.37462537,17.2097902 C5.33466513,17.0566093 5.31468531,16.9134206 5.31468531,16.7802198 L5.89410589,16.7202797 C5.92074605,16.8801207 5.94738581,16.9966696 5.97402597,17.0699301 C6.00066613,17.1431905 6.0372958,17.2231098 6.08391608,17.3096903 C6.13053636,17.3962708 6.20046573,17.4728601 6.29370629,17.5394605 C6.38694685,17.6060609 6.48351598,17.6626704 6.58341658,17.7092907 C6.68331718,17.755911 6.79986613,17.7925407 6.93306693,17.8191808 C7.06626773,17.845821 7.19613656,17.8591409 7.32267732,17.8591409 C7.44921808,17.8591409 7.56576703,17.845821 7.67232767,17.8191808 C7.77888831,17.7925407 7.87212747,17.7659009 7.95204795,17.7392607 C8.07192867,17.6859804 8.15850789,17.6393608 8.21178821,17.5994006 C8.26506853,17.5594404 8.31834805,17.5028309 8.37162837,17.4295704 C8.42490869,17.35631 8.45820839,17.2897106 8.47152847,17.2297702 C8.48484855,17.1698299 8.49150849,17.0999005 8.49150849,17.01998 C8.49150849,16.9400595 8.48151858,16.8701302 8.46153846,16.8101898 C8.44155834,16.7502495 8.40825864,16.69364 8.36163836,16.6403596 C8.31501808,16.5870793 8.25840859,16.5337998 8.19180819,16.4805195 C8.12520779,16.4272392 8.03862857,16.3872795 7.93206793,16.3606394 L7.63236763,16.2607393 C7.55244715,16.2340991 7.39926853,16.1941395 7.17282717,16.1408591 L6.51348651,15.961039 C6.34032547,15.9077586 6.22044655,15.8544791 6.15384615,15.8011988 C6.04728551,15.7612386 5.95071638,15.7046291 5.86413586,15.6313686 C5.77755534,15.5581082 5.704296,15.4748589 5.64435564,15.3816184 C5.58441528,15.2883778 5.54112567,15.1884787 5.51448551,15.0819181 C5.48784535,14.9753574 5.47452547,14.8687984 5.47452547,14.7622378 C5.47452547,14.6556771 5.49117532,14.5457881 5.52447552,14.4325674 C5.55777572,14.3193468 5.61105524,14.2094577 5.68431568,14.1028971 C5.75757612,13.9963365 5.84415534,13.9064273 5.94405594,13.8331668 C6.04395654,13.7599064 6.16383546,13.689977 6.3036963,13.6233766 C6.44355714,13.5567762 6.57342597,13.5168166 6.69330669,13.5034965 C6.85314765,13.4768563 7.00965624,13.4635365 7.16283716,13.4635365 C7.31601808,13.4635365 7.47918661,13.4768563 7.65234765,13.5034965 C7.79886853,13.5301367 7.94538721,13.5734263 8.09190809,13.6333666 C8.23842897,13.693307 8.36163786,13.7632364 8.46153846,13.8431568 C8.56143906,13.9230773 8.65134825,14.0163165 8.73126873,14.1228771 C8.78454905,14.2027976 8.8344986,14.3126866 8.88111888,14.4525475 C8.92773916,14.5924083 8.95770889,14.7289371 8.97102897,14.8621379 L8.35164835,14.9220779 C8.33832827,14.775557 8.30502857,14.6456882 8.25174825,14.5324675 C8.19846793,14.4192469 8.11854865,14.3260077 8.01198801,14.2527473 C7.90542737,14.1794868 7.78887842,14.1228773 7.66233766,14.0829171 C7.5357969,14.0429568 7.37595834,14.022977 7.18281718,14.022977 C6.98967602,14.022977 6.82650749,14.0396269 6.69330669,14.0729271 C6.56010589,14.1062273 6.44688691,14.1595068 6.35364635,14.2327672 C6.26040579,14.3060277 6.19380639,14.3892769 6.15384615,14.4825175 C6.11388591,14.575758 6.09390609,14.6623373 6.09390609,14.7422577 C6.09390609,14.8221782 6.10722597,14.8987675 6.13386613,14.972028 C6.16050629,15.0452884 6.20712587,15.1085578 6.27372627,15.1618382 C6.34032667,15.2151185 6.44688571,15.268398 6.59340659,15.3216783 C6.73992747,15.3749586 6.95304555,15.4315681 7.23276723,15.4915085 C7.51248891,15.5514489 7.73226693,15.6080583 7.89210789,15.6613387 L8.01198801,15.7012987 C8.14518881,15.7412589 8.23842797,15.7745586 8.29170829,15.8011988 Z M11.2687313,13.5634366 L11.9480519,13.5634366 L13.9060939,18.3386613 L13.1868132,18.3386613 L12.6073926,16.8801199 L10.6093906,16.8801199 L10.0899101,18.3386613 L9.43056943,18.3386613 L11.2687313,13.5634366 Z M10.8167888,16.3606394 L12.4475524,16.3606394 L11.9080919,15.001998 C11.8281714,14.7755566 11.7748919,14.6090581 11.7482517,14.5024975 L11.6083916,14.0629371 C11.5817514,14.222778 11.5484517,14.3692967 11.5084915,14.5024975 L11.4685315,14.6223776 C11.4152511,14.7822186 11.3752915,14.8954376 11.3486513,14.962038 L10.8167888,16.3606394 Z M15.0649351,13.5634366 L17.5624376,17.3196803 L17.5624376,13.5634366 L18.1818182,13.5634366 L18.1818182,18.3386613 L17.5224775,18.3386613 L15.004995,14.5624376 L15.004995,18.3186813 L14.4055944,18.3186813 L14.4055944,13.5434565 L15.0649351,13.5434565 L15.0649351,13.5634366 Z" id="" fill="#2B2826"></path>
            <g id="icons-/-Error_Mark" transform="translate(0.000000, 12.000000)" opacity="0">
                <circle id="Oval" fill="#FFFFFF" fill-rule="nonzero" cx="4" cy="4" r="4"></circle>
                <path d="M4.00666043,0.66666822 C4.60923891,0.667230482 5.16978374,0.820408594 5.68831169,1.12620713 C6.1900347,1.42368891 6.5896311,1.82328531 6.88711289,2.32500833 C7.19347473,2.84449144 7.34665335,3.4050364 7.34665335,4.00666001 C7.34665335,4.60828362 7.19347473,5.16882857 6.88711289,5.68831169 C6.5896311,6.1900347 6.1900347,6.5896311 5.68831169,6.88711289 C5.16882857,7.19347473 4.60828362,7.34665335 4.00666001,7.34665335 C3.4050364,7.34665335 2.84449144,7.19347473 2.32500833,6.88711289 C1.82328531,6.5896311 1.42368891,6.1900347 1.12620713,5.68831169 C0.819845288,5.16882857 0.666666667,4.60828362 0.666666667,4.00666001 C0.666666667,3.4050364 0.819845288,2.84449144 1.12620713,2.32500833 C1.42368891,1.82328531 1.82328531,1.42368891 2.32500833,1.12620713 C2.84353627,0.820408594 3.4040811,0.667230482 4.00665958,0.66666822 L4.00666043,0.66666822 Z M4.00666043,0.66666822 C4.00555043,0.666667185 4.00444029,0.666666667 4.00333,0.666666667 L4.00999001,0.666666667 C4.00887973,0.666666667 4.00776958,0.666667185 4.00665958,0.66666822 L4.00666043,0.66666822 Z M4.34299034,5.67499167 L4.34299034,5.00899101 L3.67032967,5.00899101 L3.67032967,5.67499167 L4.34299034,5.67499167 Z M4.34299034,4.34299034 L4.34299034,2.33832834 L3.67032967,2.33832834 L3.67032967,4.34299034 L4.34299034,4.34299034 Z" id="" fill="#F83200"></path>
            </g>
        </g>
    </g>
</svg>