<?xml version="1.0" encoding="UTF-8"?>
<svg width="20px" height="20px" viewBox="0 0 20 20" version="1.1" xmlns="http://www.w3.org/2000/svg" xmlns:xlink="http://www.w3.org/1999/xlink">
    <!-- Generator: Sketch 51.3 (57544) - http://www.bohemiancoding.com/sketch -->
    <title>icons / classes/ BMC_Patch_32</title>
    <desc>Created with Sketch.</desc>
    <defs></defs>
    <g id="icons-/-classes/-BMC_Patch_32" stroke="none" stroke-width="1" fill="none" fill-rule="evenodd">
        <g id="icons-/-classes/-Patch">
            <g id="icons-/-20x20-icon-field" fill="#F5A623" fill-rule="nonzero" opacity="0">
                <rect x="0" y="0" width="20" height="20"></rect>
            </g>
            <path d="M12.7272727,13.6363636 C12.7272727,13.1336364 13.1345455,12.7272727 13.6363636,12.7272727 C14.1381818,12.7272727 14.5454545,13.1336364 14.5454545,13.6363636 C14.5454545,14.1390909 14.1381818,14.5454545 13.6363636,14.5454545 C13.1345455,14.5454545 12.7272727,14.1390909 12.7272727,13.6363636 Z M9.09090909,13.6363636 C9.09090909,13.1336364 9.49818182,12.7272727 10,12.7272727 C10.5018182,12.7272727 10.9090909,13.1336364 10.9090909,13.6363636 C10.9090909,14.1390909 10.5018182,14.5454545 10,14.5454545 C9.49818182,14.5454545 9.09090909,14.1390909 9.09090909,13.6363636 Z M5.45454545,13.6363636 C5.45454545,13.1336364 5.86181818,12.7272727 6.36363636,12.7272727 C6.86545455,12.7272727 7.27272727,13.1336364 7.27272727,13.6363636 C7.27272727,14.1390909 6.86545455,14.5454545 6.36363636,14.5454545 C5.86181818,14.5454545 5.45454545,14.1390909 5.45454545,13.6363636 Z M12.7272727,10 C12.7272727,9.49727273 13.1345455,9.09090909 13.6363636,9.09090909 C14.1381818,9.09090909 14.5454545,9.49727273 14.5454545,10 C14.5454545,10.5027273 14.1381818,10.9090909 13.6363636,10.9090909 C13.1345455,10.9090909 12.7272727,10.5027273 12.7272727,10 Z M9.09090909,10 C9.09090909,9.49727273 9.49818182,9.09090909 10,9.09090909 C10.5018182,9.09090909 10.9090909,9.49727273 10.9090909,10 C10.9090909,10.5027273 10.5018182,10.9090909 10,10.9090909 C9.49818182,10.9090909 9.09090909,10.5027273 9.09090909,10 Z M5.45454545,10 C5.45454545,9.49727273 5.86181818,9.09090909 6.36363636,9.09090909 C6.86545455,9.09090909 7.27272727,9.49727273 7.27272727,10 C7.27272727,10.5027273 6.86545455,10.9090909 6.36363636,10.9090909 C5.86181818,10.9090909 5.45454545,10.5027273 5.45454545,10 Z M12.7272727,6.36363636 C12.7272727,5.86090909 13.1345455,5.45454545 13.6363636,5.45454545 C14.1381818,5.45454545 14.5454545,5.86090909 14.5454545,6.36363636 C14.5454545,6.86636364 14.1381818,7.27272727 13.6363636,7.27272727 C13.1345455,7.27272727 12.7272727,6.86636364 12.7272727,6.36363636 Z M9.09090909,6.36363636 C9.09090909,5.86090909 9.49818182,5.45454545 10,5.45454545 C10.5018182,5.45454545 10.9090909,5.86090909 10.9090909,6.36363636 C10.9090909,6.86636364 10.5018182,7.27272727 10,7.27272727 C9.49818182,7.27272727 9.09090909,6.86636364 9.09090909,6.36363636 Z M5.45454545,6.36363636 C5.45454545,5.86090909 5.86181818,5.45454545 6.36363636,5.45454545 C6.86545455,5.45454545 7.27272727,5.86090909 7.27272727,6.36363636 C7.27272727,6.86636364 6.86545455,7.27272727 6.36363636,7.27272727 C5.86181818,7.27272727 5.45454545,6.86636364 5.45454545,6.36363636 Z M1.81818182,18.1818182 L18.1818182,18.1818182 L18.1818182,1.81818182 L1.81818182,1.81818182 L1.81818182,18.1818182 Z M18.1818182,0 L1.81818182,0 C0.818181818,0 0,0.818181818 0,1.81818182 L0,18.1818182 C0,19.1818182 0.818181818,20 1.81818182,20 L18.1818182,20 C19.1818182,20 20,19.1818182 20,18.1818182 L20,1.81818182 C20,0.818181818 19.1818182,0 18.1818182,0 Z" id="Fill-1" fill="#333333"></path>
        </g>
        <g id="icons-/-Error_Mark" transform="translate(0.000000, 12.000000)" opacity="0">
            <circle id="Oval" fill="#FFFFFF" fill-rule="nonzero" cx="4" cy="4" r="4"></circle>
            <path d="M4.00666043,0.66666822 C4.60923891,0.667230482 5.16978374,0.820408594 5.68831169,1.12620713 C6.1900347,1.42368891 6.5896311,1.82328531 6.88711289,2.32500833 C7.19347473,2.84449144 7.34665335,3.4050364 7.34665335,4.00666001 C7.34665335,4.60828362 7.19347473,5.16882857 6.88711289,5.68831169 C6.5896311,6.1900347 6.1900347,6.5896311 5.68831169,6.88711289 C5.16882857,7.19347473 4.60828362,7.34665335 4.00666001,7.34665335 C3.4050364,7.34665335 2.84449144,7.19347473 2.32500833,6.88711289 C1.82328531,6.5896311 1.42368891,6.1900347 1.12620713,5.68831169 C0.819845288,5.16882857 0.666666667,4.60828362 0.666666667,4.00666001 C0.666666667,3.4050364 0.819845288,2.84449144 1.12620713,2.32500833 C1.42368891,1.82328531 1.82328531,1.42368891 2.32500833,1.12620713 C2.84353627,0.820408594 3.4040811,0.667230482 4.00665958,0.66666822 L4.00666043,0.66666822 Z M4.00666043,0.66666822 C4.00555043,0.666667185 4.00444029,0.666666667 4.00333,0.666666667 L4.00999001,0.666666667 C4.00887973,0.666666667 4.00776958,0.666667185 4.00665958,0.66666822 L4.00666043,0.66666822 Z M4.34299034,5.67499167 L4.34299034,5.00899101 L3.67032967,5.00899101 L3.67032967,5.67499167 L4.34299034,5.67499167 Z M4.34299034,4.34299034 L4.34299034,2.33832834 L3.67032967,2.33832834 L3.67032967,4.34299034 L4.34299034,4.34299034 Z" id="" fill="#F83200"></path>
        </g>
    </g>
</svg>