<?xml version="1.0" encoding="UTF-8"?>
<svg width="20px" height="20px" viewBox="0 0 20 20" version="1.1" xmlns="http://www.w3.org/2000/svg" xmlns:xlink="http://www.w3.org/1999/xlink">
    <!-- Generator: Sketch 51.3 (57544) - http://www.bohemiancoding.com/sketch -->
    <title>icons / classes/ BMC_Contract_32_Error</title>
    <desc>Created with Sketch.</desc>
    <defs></defs>
    <g id="icons-/-classes/-BMC_Contract_32" stroke="none" stroke-width="1" fill="none" fill-rule="evenodd">
        <g id="icons-/-classes/-file_contract" transform="translate(0.000000, -1.000000)">
            <g id="icons-/-20x20-icon-field" transform="translate(0.000000, 1.000000)" fill="#F5A623" fill-rule="nonzero" opacity="0">
                <rect x="0" y="0" width="20" height="20"></rect>
            </g>
            <path d="M15.7862138,12.8451548 C15.7862138,13.031636 15.6896447,13.2014644 15.4965035,13.3546454 C15.3033623,13.5078263 15.0536146,13.6310352 14.7472527,13.7242757 L14.6673327,13.7442557 L14.8071928,14.043956 C14.9004334,14.2703974 14.9603728,14.4701956 14.987013,14.6433566 L14.987013,14.7632368 L14.967033,14.9430569 L14.9470529,15.042957 L14.8271728,15.2027972 C14.6806519,15.3493181 14.4908437,15.4059276 14.2577423,15.3726274 C14.0246409,15.3393272 13.7615732,15.242758 13.4685315,15.0829171 L13.3886114,15.042957 L13.3486513,15.1228771 C13.2554108,15.442559 13.1355319,15.6956368 12.989011,15.8821179 C12.8424901,16.068599 12.6759916,16.1684981 12.4895105,16.1818182 L12.4295704,16.1818182 C12.2430893,16.1818182 12.0799208,16.0852491 11.9400599,15.8921079 C11.8001991,15.6989667 11.6769902,15.442559 11.5704296,15.1228771 L11.5504496,15.042957 L11.4705295,15.0829171 C11.1774877,15.229438 10.9110901,15.3226771 10.6713287,15.3626374 C10.4315672,15.4025976 10.2450889,15.3526481 10.1118881,15.2127872 C9.97868731,15.0729264 9.92540779,14.8831181 9.95204795,14.6433566 C9.97868811,14.4035952 10.0652673,14.1371976 10.2117882,13.8441558 L10.2717283,13.7642358 L10.1718282,13.7242757 C9.86546633,13.6310352 9.61571858,13.5111562 9.42257742,13.3646354 C9.22943626,13.2181145 9.13286713,13.044956 9.13286713,12.8451548 L9.15284715,12.6653347 C9.20612747,12.5321339 9.29270669,12.4189149 9.41258741,12.3256743 C9.59906853,12.1791534 9.85214625,12.0526146 10.1718282,11.9460539 L10.2517483,11.9260739 L10.2117882,11.8461538 C10.0652673,11.5664322 9.97535814,11.3033645 9.94205794,11.0569431 C9.90875774,10.8105216 9.96203726,10.6173833 10.1018981,10.4775225 C10.2417589,10.3376616 10.4315672,10.2843821 10.6713287,10.3176823 C10.9110901,10.3509825 11.1774877,10.4475516 11.4705295,10.6073926 L11.5504496,10.6473526 L11.5704296,10.5474525 C11.6769902,10.2410907 11.8035291,9.99134296 11.95005,9.7982018 C12.0965708,9.60506064 12.2663993,9.50849151 12.4595405,9.50849151 C12.6526816,9.50849151 12.8258401,9.60506064 12.979021,9.7982018 C13.1322019,9.99134296 13.2554108,10.2410907 13.3486513,10.5474525 L13.3686314,10.6473526 L13.4485514,10.6073926 C13.7415932,10.4608717 14.0113208,10.3676326 14.2577423,10.3276723 C14.5041637,10.2877121 14.693972,10.3376616 14.8271728,10.4775225 C14.9603736,10.6173833 15.0103232,10.8071916 14.977023,11.046953 C14.9437228,11.2867145 14.8538136,11.5531121 14.7072927,11.8461538 L14.6673327,11.9260739 L14.7472527,11.9460539 C15.0536146,12.0392945 15.3066923,12.1658334 15.5064935,12.3256743 C15.6396943,12.4189149 15.7262735,12.5321339 15.7662338,12.6653347 L15.7862138,12.6653347 L15.7862138,12.8451548 Z M12.4495504,17.000999 C13.381956,17.000999 14.2144486,16.7279415 14.9470529,16.1818182 L14.9470529,20.997003 L12.4495504,19.1788212 L9.95204795,20.997003 L9.95204795,16.1618382 C10.6713323,16.7212815 11.5038248,17.000999 12.4495504,17.000999 Z M6.53546454,10.2077922 L9.21278721,10.2077922 C8.83982498,10.6473548 8.58008731,11.1601702 8.43356643,11.7462537 L6.53546454,11.7462537 C6.3623035,11.7462537 6.20579491,11.6663345 6.06593407,11.5064935 C5.92607323,11.3466525 5.85614386,11.1734941 5.85614386,10.987013 C5.85614386,10.7605716 5.92274326,10.5740933 6.05594406,10.4275724 C6.18914486,10.2810515 6.34898342,10.2077922 6.53546454,10.2077922 Z M17.7242757,1.47652348 C18.0173175,1.79620539 18.1638362,2.16916204 18.1638362,2.5954046 L18.1638362,19.2987013 C18.1638362,19.751584 17.9840178,20.1478504 17.6243756,20.4875125 C17.2647335,20.8271745 16.8518172,20.997003 16.3856144,20.997003 L15.7862138,20.997003 L15.7862138,19.4585415 L16.3856144,19.4585415 C16.4255746,19.4585415 16.4755242,19.4385616 16.5354645,19.3986014 C16.5954049,19.3586412 16.6253746,19.2987017 16.6253746,19.2187812 L16.6253746,2.8951049 C16.6253746,2.77522418 16.588745,2.67865504 16.5154845,2.60539461 C16.4422241,2.53213417 16.3523149,2.4955045 16.2457542,2.4955045 L3.77822178,2.4955045 C3.71162138,2.4955045 3.65501189,2.51548432 3.60839161,2.55544456 C3.56177133,2.5954048 3.53846154,2.6620042 3.53846154,2.75524476 L3.53846154,19.2187812 C3.53846154,19.3120218 3.55844136,19.3752912 3.5984016,19.4085914 C3.63836184,19.4418916 3.6983013,19.4585415 3.77822178,19.4585415 L9.11288711,19.4585415 L9.11288711,20.997003 L3.6983017,20.997003 C3.2320989,20.997003 2.8325025,20.8271745 2.4995005,20.4875125 C2.1664985,20.1478504 2,19.751584 2,19.2987013 L2,2.75524476 C2,2.28904196 2.16316853,1.87612567 2.48951049,1.51648352 C2.81585245,1.15684136 3.21877882,0.977022977 3.6983017,0.977022977 L16.6253746,0.977022977 C17.0516172,0.977022977 17.4179139,1.14352148 17.7242757,1.47652348 Z M6.53546454,8.66933067 C6.3623035,8.66933067 6.20579491,8.59274136 6.06593407,8.43956044 C5.92607323,8.28637952 5.85614386,8.10989111 5.85614386,7.91008991 C5.85614386,7.67032847 5.92607323,7.48385015 6.06593407,7.35064935 C6.20579491,7.21744855 6.3623035,7.15084915 6.53546454,7.15084915 L13.6283716,7.15084915 C13.8148527,7.15084915 13.9746913,7.22743846 14.1078921,7.38061938 C14.2410929,7.5338003 14.3076923,7.71028871 14.3076923,7.91008991 C14.3076923,8.10989111 14.2377629,8.27638961 14.0979021,8.40959041 C13.9580413,8.54279121 13.8015327,8.62937043 13.6283716,8.66933067 L6.53546454,8.66933067 Z M6.53546454,13.3046953 L8.31368631,13.3046953 C8.35364655,13.8241784 8.51348511,14.3369938 8.79320679,14.8431568 L6.53546454,14.8431568 C6.34898342,14.8431568 6.18914486,14.7599076 6.05594406,14.5934066 C5.92274326,14.4269056 5.85614386,14.2504172 5.85614386,14.0639361 C5.85614386,13.8241746 5.92274326,13.6376963 6.05594406,13.5044955 C6.18914486,13.3712947 6.34898342,13.3046953 6.53546454,13.3046953 Z" id="" fill="#333333"></path>
        </g>
        <g id="icons-/-Error_Mark" transform="translate(0.000000, 12.000000)">
            <circle id="Oval" fill="#FFFFFF" fill-rule="nonzero" cx="4" cy="4" r="4"></circle>
            <path d="M4.00666043,0.66666822 C4.60923891,0.667230482 5.16978374,0.820408594 5.68831169,1.12620713 C6.1900347,1.42368891 6.5896311,1.82328531 6.88711289,2.32500833 C7.19347473,2.84449144 7.34665335,3.4050364 7.34665335,4.00666001 C7.34665335,4.60828362 7.19347473,5.16882857 6.88711289,5.68831169 C6.5896311,6.1900347 6.1900347,6.5896311 5.68831169,6.88711289 C5.16882857,7.19347473 4.60828362,7.34665335 4.00666001,7.34665335 C3.4050364,7.34665335 2.84449144,7.19347473 2.32500833,6.88711289 C1.82328531,6.5896311 1.42368891,6.1900347 1.12620713,5.68831169 C0.819845288,5.16882857 0.666666667,4.60828362 0.666666667,4.00666001 C0.666666667,3.4050364 0.819845288,2.84449144 1.12620713,2.32500833 C1.42368891,1.82328531 1.82328531,1.42368891 2.32500833,1.12620713 C2.84353627,0.820408594 3.4040811,0.667230482 4.00665958,0.66666822 L4.00666043,0.66666822 Z M4.00666043,0.66666822 C4.00555043,0.666667185 4.00444029,0.666666667 4.00333,0.666666667 L4.00999001,0.666666667 C4.00887973,0.666666667 4.00776958,0.666667185 4.00665958,0.66666822 L4.00666043,0.66666822 Z M4.34299034,5.67499167 L4.34299034,5.00899101 L3.67032967,5.00899101 L3.67032967,5.67499167 L4.34299034,5.67499167 Z M4.34299034,4.34299034 L4.34299034,2.33832834 L3.67032967,2.33832834 L3.67032967,4.34299034 L4.34299034,4.34299034 Z" id="" fill="#F83200"></path>
        </g>
    </g>
</svg>