<?xml version="1.0" encoding="UTF-8"?>
<svg width="20px" height="20px" viewBox="0 0 20 20" version="1.1" xmlns="http://www.w3.org/2000/svg" xmlns:xlink="http://www.w3.org/1999/xlink">
    <!-- Generator: Sketch 51.3 (57544) - http://www.bohemiancoding.com/sketch -->
    <title>icons / classes/ BMC_BulkInventory_32</title>
    <desc>Created with Sketch.</desc>
    <defs></defs>
    <g id="icons-/-classes/-BMC_BulkInventory_32" stroke="none" stroke-width="1" fill="none" fill-rule="evenodd">
        <g>
            <g id="icons-/-20x20-icon-field" fill="#F5A623" fill-rule="nonzero" opacity="0">
                <rect x="0" y="0" width="20" height="20"></rect>
            </g>
            <path d="M8.33333333,15 L9.16666667,15 L9.16666667,14.1666667 L8.33333333,14.1666667 L8.33333333,15 Z M8.33333333,16.6666667 L9.16666667,16.6666667 L9.16666667,15.8333333 L8.33333333,15.8333333 L8.33333333,16.6666667 Z M6.66666667,16.6666667 L7.5,16.6666667 L7.5,15.8333333 L6.66666667,15.8333333 L6.66666667,16.6666667 Z M2.5,18.3333333 L8.33333333,18.3333333 L8.33333333,17.5 L2.5,17.5 L2.5,18.3333333 Z M1.66666667,16.6666667 L2.5,16.6666667 L2.5,15.8333333 L1.66666667,15.8333333 L1.66666667,16.6666667 Z M1.66666667,15 L2.5,15 L2.5,14.1666667 L1.66666667,14.1666667 L1.66666667,15 Z M3.33333333,15 L4.16666667,15 L4.16666667,14.1666667 L3.33333333,14.1666667 L3.33333333,15 Z M3.33333333,16.6666667 L4.16666667,16.6666667 L4.16666667,15.8333333 L3.33333333,15.8333333 L3.33333333,16.6666667 Z M5,16.6666667 L5.83333333,16.6666667 L5.83333333,15.8333333 L5,15.8333333 L5,16.6666667 Z M5,15 L5.83333333,15 L5.83333333,14.1666667 L5,14.1666667 L5,15 Z M6.66666667,15 L7.5,15 L7.5,14.1666667 L6.66666667,14.1666667 L6.66666667,15 Z M10,12.5 L0.833333333,12.5 C0.375,12.5 0,12.875 0,13.3333333 L0,19.1666667 C0,19.625 0.375,20 0.833333333,20 L10,20 C10.4583333,20 10.8333333,19.625 10.8333333,19.1666667 L10.8333333,13.3333333 C10.8333333,12.875 10.4583333,12.5 10,12.5 Z M12.9166667,8.75 L13.75,8.75 L13.75,7.91666667 L12.9166667,7.91666667 L12.9166667,8.75 Z M12.9166667,10.4166667 L13.75,10.4166667 L13.75,9.58333333 L12.9166667,9.58333333 L12.9166667,10.4166667 Z M11.25,10.4166667 L12.0833333,10.4166667 L12.0833333,9.58333333 L11.25,9.58333333 L11.25,10.4166667 Z M9.58333333,10.4166667 L10.4166667,10.4166667 L10.4166667,9.58333333 L9.58333333,9.58333333 L9.58333333,10.4166667 Z M7.91666667,10.4166667 L8.75,10.4166667 L8.75,9.58333333 L7.91666667,9.58333333 L7.91666667,10.4166667 Z M6.25,8.75 L7.08333333,8.75 L7.08333333,7.91666667 L6.25,7.91666667 L6.25,8.75 Z M6.25,10.4166667 L7.08333333,10.4166667 L7.08333333,9.58333333 L6.25,9.58333333 L6.25,10.4166667 Z M7.91666667,8.75 L8.75,8.75 L8.75,7.91666667 L7.91666667,7.91666667 L7.91666667,8.75 Z M9.58333333,8.75 L10.4166667,8.75 L10.4166667,7.91666667 L9.58333333,7.91666667 L9.58333333,8.75 Z M11.25,8.75 L12.0833333,8.75 L12.0833333,7.91666667 L11.25,7.91666667 L11.25,8.75 Z M14.5833333,6.25 L5.41666667,6.25 C4.95833333,6.25 4.58333333,6.625 4.58333333,7.08333333 L4.58333333,10.8333333 L10,10.8333333 C10.5083333,10.8333333 10.9833333,10.9916667 11.3833333,11.25 L12.9166667,11.25 L12.9166667,12.0833333 L12.1666667,12.0833333 C12.375,12.45 12.5,12.8833333 12.5,13.3333333 L12.5,13.75 L14.5833333,13.75 C15.0416667,13.75 15.4166667,13.375 15.4166667,12.9166667 L15.4166667,7.08333333 C15.4166667,6.625 15.0416667,6.25 14.5833333,6.25 Z M17.5,2.5 L18.3333333,2.5 L18.3333333,1.66666667 L17.5,1.66666667 L17.5,2.5 Z M17.5,4.16666667 L18.3333333,4.16666667 L18.3333333,3.33333333 L17.5,3.33333333 L17.5,4.16666667 Z M15.8333333,2.5 L16.6666667,2.5 L16.6666667,1.66666667 L15.8333333,1.66666667 L15.8333333,2.5 Z M15.8333333,4.16666667 L16.6666667,4.16666667 L16.6666667,3.33333333 L15.8333333,3.33333333 L15.8333333,4.16666667 Z M14.1666667,2.5 L15,2.5 L15,1.66666667 L14.1666667,1.66666667 L14.1666667,2.5 Z M14.1666667,4.16666667 L15,4.16666667 L15,3.33333333 L14.1666667,3.33333333 L14.1666667,4.16666667 Z M12.5,2.5 L13.3333333,2.5 L13.3333333,1.66666667 L12.5,1.66666667 L12.5,2.5 Z M12.5,4.16666667 L13.3333333,4.16666667 L13.3333333,3.33333333 L12.5,3.33333333 L12.5,4.16666667 Z M10.8333333,2.5 L11.6666667,2.5 L11.6666667,1.66666667 L10.8333333,1.66666667 L10.8333333,2.5 Z M10.8333333,4.16666667 L11.6666667,4.16666667 L11.6666667,3.33333333 L10.8333333,3.33333333 L10.8333333,4.16666667 Z M19.1666667,0 L10,0 C9.54166667,0 9.16666667,0.375 9.16666667,0.833333333 L9.16666667,4.58333333 L14.5833333,4.58333333 C15.0916667,4.58333333 15.5666667,4.74166667 15.9666667,5 L17.5,5 L17.5,5.83333333 L16.75,5.83333333 C16.9583333,6.2 17.0833333,6.63333333 17.0833333,7.08333333 L17.0833333,7.5 L19.1666667,7.5 C19.625,7.5 20,7.125 20,6.66666667 L20,0.833333333 C20,0.375 19.625,0 19.1666667,0 Z" id="Fill-1" fill="#333333"></path>
            <g id="icons-/-Error_Mark" transform="translate(0.000000, 12.000000)" opacity="0">
                <circle id="Oval" fill="#FFFFFF" fill-rule="nonzero" cx="4" cy="4" r="4"></circle>
                <path d="M4.00666043,0.66666822 C4.60923891,0.667230482 5.16978374,0.820408594 5.68831169,1.12620713 C6.1900347,1.42368891 6.5896311,1.82328531 6.88711289,2.32500833 C7.19347473,2.84449144 7.34665335,3.4050364 7.34665335,4.00666001 C7.34665335,4.60828362 7.19347473,5.16882857 6.88711289,5.68831169 C6.5896311,6.1900347 6.1900347,6.5896311 5.68831169,6.88711289 C5.16882857,7.19347473 4.60828362,7.34665335 4.00666001,7.34665335 C3.4050364,7.34665335 2.84449144,7.19347473 2.32500833,6.88711289 C1.82328531,6.5896311 1.42368891,6.1900347 1.12620713,5.68831169 C0.819845288,5.16882857 0.666666667,4.60828362 0.666666667,4.00666001 C0.666666667,3.4050364 0.819845288,2.84449144 1.12620713,2.32500833 C1.42368891,1.82328531 1.82328531,1.42368891 2.32500833,1.12620713 C2.84353627,0.820408594 3.4040811,0.667230482 4.00665958,0.66666822 L4.00666043,0.66666822 Z M4.00666043,0.66666822 C4.00555043,0.666667185 4.00444029,0.666666667 4.00333,0.666666667 L4.00999001,0.666666667 C4.00887973,0.666666667 4.00776958,0.666667185 4.00665958,0.66666822 L4.00666043,0.66666822 Z M4.34299034,5.67499167 L4.34299034,5.00899101 L3.67032967,5.00899101 L3.67032967,5.67499167 L4.34299034,5.67499167 Z M4.34299034,4.34299034 L4.34299034,2.33832834 L3.67032967,2.33832834 L3.67032967,4.34299034 L4.34299034,4.34299034 Z" id="" fill="#F83200"></path>
            </g>
        </g>
    </g>
</svg>