<?xml version="1.0" encoding="UTF-8"?>
<svg width="20px" height="20px" viewBox="0 0 20 20" version="1.1" xmlns="http://www.w3.org/2000/svg" xmlns:xlink="http://www.w3.org/1999/xlink">
    <!-- Generator: Sketch 51.3 (57544) - http://www.bohemiancoding.com/sketch -->
    <title>icons / classes/ BMC_AdministrationApplication_IAS_32_Error</title>
    <desc>Created with Sketch.</desc>
    <defs></defs>
    <g id="icons-/-classes/-BMC_AdministrationApplication_IAS_32" stroke="none" stroke-width="1" fill="none" fill-rule="evenodd">
        <g transform="translate(0.000000, -1.000000)">
            <g id="icons-/-20x20-icon-field" transform="translate(0.000000, 1.000000)" fill="#F5A623" fill-rule="nonzero" opacity="0">
                <rect x="0" y="0" width="20" height="20"></rect>
            </g>
            <path d="M12.994006,14.5834166 L12.994006,13.4565435 L14.1208791,13.4565435 L14.1208791,14.5834166 L12.994006,14.5834166 Z M14.8761239,13.8341658 L17.8761239,13.8341658 L17.8761239,14.2117882 L14.8761239,14.2117882 L14.8761239,13.8341658 Z M12.994006,16.4595405 L12.994006,15.3326673 L14.1208791,15.3326673 L14.1208791,16.4595405 L12.994006,16.4595405 Z M14.8761239,16.0879121 L14.8761239,15.7102897 L17.8761239,15.7102897 L17.8761239,16.0879121 L14.8761239,16.0879121 Z M12.994006,18.3416583 L12.994006,17.2147852 L14.1208791,17.2147852 L14.1208791,18.3416583 L12.994006,18.3416583 Z M14.8761239,17.964036 L14.8761239,17.5864136 L17.8761239,17.5864136 L17.8761239,17.964036 L14.8761239,17.964036 Z" id="" fill="#2B2826"></path>
            <path d="M10.8691309,8.48951049 C10.8025305,8.48951049 10.7226112,8.49617043 10.6293706,8.50949051 C10.5760903,8.52281059 10.5094909,8.54279041 10.4295704,8.56943057 L10.2497502,8.68931069 C10.1698298,8.74259101 10.1098903,8.78921059 10.0699301,8.82917083 L9.93006993,8.98901099 C9.87678961,9.04229131 9.83682997,9.10556074 9.81018981,9.17882118 C9.78354965,9.25208162 9.76356983,9.32201099 9.75024975,9.38861139 C9.72360959,9.48185195 9.71028971,9.55511129 9.71028971,9.60839161 L9.71028971,20.6973027 L9.75024975,21.016983 L0,21.016983 L0,0.997002997 L14.7452547,0.997002997 L14.7452547,8.48951049 L10.8691309,8.48951049 Z M10.5294705,5.19280719 L4.21578422,5.19280719 L4.21578422,8.36963037 L10.5294705,8.36963037 L10.5294705,5.19280719 Z M20,12.3656344 L20,20.2177822 C19.9866799,20.2444224 19.9667001,20.2977019 19.9400599,20.3776224 L19.9400599,20.3976024 C19.9134198,20.4375626 19.8801201,20.4908422 19.8401598,20.5574426 L19.7202797,20.7172827 L19.5604396,20.8371628 C19.4938392,20.8771231 19.4372297,20.9070928 19.3906094,20.9270729 C19.3439891,20.947053 19.2807197,20.9703628 19.2007992,20.997003 C19.160839,21.0103231 19.0942396,21.016983 19.000999,21.016983 L11.5484515,21.016983 C11.4951712,21.016983 11.4352318,21.0103231 11.3686314,20.997003 C11.3286711,20.9836829 11.2753916,20.9637031 11.2087912,20.9370629 L11.1688312,20.9370629 C11.1288709,20.9104228 11.0755914,20.8771231 11.008991,20.8371628 L10.8491508,20.7172827 L10.7292707,20.5374625 C10.6893105,20.4841822 10.6626707,20.4375626 10.6493506,20.3976024 L10.5894106,20.2177822 C10.5760905,20.177822 10.5694306,20.1178825 10.5694306,20.037962 L10.5694306,10.3076923 C10.5694306,10.254412 10.5760905,10.1878126 10.5894106,10.1078921 C10.5894106,10.0679319 10.6027305,10.0146523 10.6293706,9.94805195 L10.6493506,9.92807193 C10.6626707,9.88811169 10.6926405,9.83483217 10.7392607,9.76823177 C10.785881,9.70163137 10.8225107,9.65501179 10.8491508,9.62837163 C10.9157512,9.57509131 10.9690308,9.53513167 11.008991,9.50849151 L11.1688312,9.40859141 C11.2354316,9.36863117 11.302031,9.34199141 11.3686314,9.32867133 L16.8831169,9.32867133 L17.002997,9.36863137 L17.0829171,9.36863137 L17.2827173,9.44855145 L17.4625375,9.56843157 L19.7002997,11.7862138 L19.8401598,11.986014 C19.8534799,11.9993341 19.8667998,12.0226439 19.8801199,12.0559441 C19.89344,12.0892443 19.9000999,12.1258739 19.9000999,12.1658342 L20,12.3656344 Z M19.1608392,20.037962 L19.1608392,12.8851149 L16.9030969,12.8851149 C16.8231764,12.8851149 16.756577,12.871795 16.7032967,12.8451548 C16.6500164,12.8185147 16.6033968,12.778555 16.5634366,12.7252747 L16.4635365,12.5854146 C16.4368963,12.5321343 16.4235764,12.4721948 16.4235764,12.4055944 L16.4235764,10.1678322 L11.5284715,10.1678322 L11.4285714,10.1878122 L11.3886114,10.2277722 L11.3886114,20.0579421 C11.4019315,20.0845822 11.4219113,20.104562 11.4485514,20.1178821 L11.5284715,20.1578422 L18.981019,20.1578422 C19.0742595,20.1578422 19.134199,20.1178825 19.1608392,20.037962 Z M17.2827173,10.6273726 L17.2827173,12.005994 L18.6413586,12.005994 L17.2827173,10.6273726 Z" id="" fill="#2B2826"></path>
            <g id="icons-/-Error_Mark" transform="translate(0.000000, 13.000000)">
                <circle id="Oval" fill="#FFFFFF" fill-rule="nonzero" cx="4" cy="4" r="4"></circle>
                <path d="M4.00666043,0.66666822 C4.60923891,0.667230482 5.16978374,0.820408594 5.68831169,1.12620713 C6.1900347,1.42368891 6.5896311,1.82328531 6.88711289,2.32500833 C7.19347473,2.84449144 7.34665335,3.4050364 7.34665335,4.00666001 C7.34665335,4.60828362 7.19347473,5.16882857 6.88711289,5.68831169 C6.5896311,6.1900347 6.1900347,6.5896311 5.68831169,6.88711289 C5.16882857,7.19347473 4.60828362,7.34665335 4.00666001,7.34665335 C3.4050364,7.34665335 2.84449144,7.19347473 2.32500833,6.88711289 C1.82328531,6.5896311 1.42368891,6.1900347 1.12620713,5.68831169 C0.819845288,5.16882857 0.666666667,4.60828362 0.666666667,4.00666001 C0.666666667,3.4050364 0.819845288,2.84449144 1.12620713,2.32500833 C1.42368891,1.82328531 1.82328531,1.42368891 2.32500833,1.12620713 C2.84353627,0.820408594 3.4040811,0.667230482 4.00665958,0.66666822 L4.00666043,0.66666822 Z M4.00666043,0.66666822 C4.00555043,0.666667185 4.00444029,0.666666667 4.00333,0.666666667 L4.00999001,0.666666667 C4.00887973,0.666666667 4.00776958,0.666667185 4.00665958,0.66666822 L4.00666043,0.66666822 Z M4.34299034,5.67499167 L4.34299034,5.00899101 L3.67032967,5.00899101 L3.67032967,5.67499167 L4.34299034,5.67499167 Z M4.34299034,4.34299034 L4.34299034,2.33832834 L3.67032967,2.33832834 L3.67032967,4.34299034 L4.34299034,4.34299034 Z" id="" fill="#F83200"></path>
            </g>
        </g>
    </g>
</svg>