<?xml version="1.0" encoding="UTF-8"?>
<svg width="20px" height="20px" viewBox="0 0 20 20" version="1.1" xmlns="http://www.w3.org/2000/svg" xmlns:xlink="http://www.w3.org/1999/xlink">
    <!-- Generator: Sketch 51.3 (57544) - http://www.bohemiancoding.com/sketch -->
    <title>icons / classes/ BMC_SANRouter_32_Error</title>
    <desc>Created with Sketch.</desc>
    <defs></defs>
    <g id="icons-/-classes/-BMC_SANRouter_32" stroke="none" stroke-width="1" fill="none" fill-rule="evenodd">
        <g transform="translate(-1.000000, -1.000000)">
            <g id="icons-/-20x20-icon-field" transform="translate(1.000000, 1.000000)" fill="#F5A623" fill-rule="nonzero" opacity="0">
                <rect x="0" y="0" width="20" height="20"></rect>
            </g>
            <path d="M20.0809191,5.55244755 L11.9090909,5.55244755 L11.9090909,10.0679321 L15.1458541,10.0679321 C15.452216,10.0679321 15.7519133,10.0979018 16.044955,10.1578422 C16.3379968,10.2177825 16.6277042,10.3076917 16.9140859,10.4275724 C17.2004676,10.5474531 17.4635353,10.6939718 17.7032967,10.8671329 C17.9563782,11.053614 18.1828162,11.2400923 18.3826174,11.4265734 C18.5424583,11.5864144 18.7022969,11.7795526 18.8621379,12.005994 C19.0086587,12.1924751 19.1418575,12.4122531 19.2617383,12.6653347 L21,12.6653347 L21,20.997003 L4.33666334,20.997003 L4.33666334,20.5574426 C4.1635023,20.6906434 3.9637041,20.8038623 3.73726274,20.8971029 C3.55078162,20.9637033 3.32434366,20.997003 3.05794206,20.997003 C2.7649003,20.997003 2.49517273,20.9437235 2.24875125,20.8371628 C2.00232977,20.7306022 1.77922178,20.5774236 1.57942058,20.3776224 C1.37961938,20.1778212 1.22977073,19.9580432 1.12987013,19.7182817 C1.02996953,19.4785203 0.98001998,19.2121227 0.98001998,18.9190809 C0.98001998,18.7459199 1.00332977,18.5694315 1.04995005,18.3896104 C1.09657033,18.2097893 1.16982967,18.0366309 1.26973027,17.8701299 C1.36963087,17.7036289 1.48284985,17.5604402 1.60939061,17.4405594 C1.73593137,17.3206787 1.8658002,17.2141197 1.999001,17.1208791 L1.999001,14.6633367 C1.999001,14.3569748 2.0323007,14.0539476 2.0989011,13.7542458 C2.1655015,13.454544 2.25874066,13.1615066 2.37862138,12.8751249 C2.4985021,12.5887432 2.64502078,12.3323355 2.81818182,12.1058941 C3.00466294,11.8394925 3.1978012,11.6097246 3.3976024,11.4165834 C3.5974036,11.2234423 3.81718162,11.0402939 4.05694306,10.8671329 C4.25674426,10.720612 4.52314186,10.5740933 4.85614386,10.4275724 C5.13586553,10.3076917 5.42224296,10.2177825 5.71528472,10.1578422 C6.00832647,10.0979018 6.30802378,10.0679321 6.61438561,10.0679321 L9.83116883,10.0679321 L9.83116883,5.55244755 L1.93906094,5.55244755 C1.80586014,5.55244755 1.68598122,5.53246773 1.57942058,5.49250749 C1.47285994,5.45254725 1.36963087,5.38594785 1.26973027,5.29270729 C1.16982967,5.19946673 1.09657033,5.09956763 1.04995005,4.99300699 C1.00332977,4.88644635 0.98001998,4.76656743 0.98001998,4.63336663 L0.98001998,1.91608392 C0.98001998,1.7962032 1.00332977,1.67965425 1.04995005,1.56643357 C1.09657033,1.45321289 1.1664997,1.35331379 1.25974026,1.26673327 C1.35298082,1.18015275 1.44954995,1.11022338 1.54945055,1.05694306 C1.64935115,1.00366274 1.77921998,0.977022977 1.93906094,0.977022977 L20.0809191,0.977022977 C20.2007998,0.977022977 20.3140188,1.00033277 20.4205794,1.04695305 C20.5271401,1.09357333 20.6270392,1.1635027 20.7202797,1.25674326 C20.8135203,1.34998382 20.8834497,1.44988292 20.9300699,1.55644356 C20.9766902,1.6630042 21,1.78288312 21,1.91608392 L21,4.61338661 C21,4.73326733 20.9800202,4.84981628 20.9400599,4.96303696 C20.9000997,5.07625764 20.8335003,5.17948671 20.7402597,5.27272727 C20.6470192,5.36596783 20.5471201,5.4358972 20.4405594,5.48251748 C20.3339988,5.52913776 20.2141199,5.55244755 20.0809191,5.55244755 Z M4.23676324,17.2007992 C4.25008332,17.2141193 4.27006314,17.2274392 4.2967033,17.2407592 L4.33666334,17.2607393 L4.33666334,13.5844156 C4.25674286,13.7575766 4.20013337,13.9307351 4.16683317,14.1038961 C4.13353297,14.2770571 4.11688312,14.4502156 4.11688312,14.6233766 L4.11688312,17.1208791 L4.21678322,17.2007992 L4.23676324,17.2007992 Z M6.71428571,12.0659341 C6.3946038,12.0659341 6.08824655,12.1158836 5.7952048,12.2157842 C5.50216304,12.3156848 5.24908531,12.4655335 5.03596404,12.6653347 L9.95104895,12.6653347 L9.95104895,12.0659341 L6.71428571,12.0659341 Z M5.15584416,13.5044955 L5.15584416,20.1578422 L20.1608392,20.1578422 L20.1608392,13.5044955 L5.15584416,13.5044955 Z M9.29170829,16.8011988 C9.42490909,16.8811193 9.53812807,16.9610386 9.63136863,17.040959 C9.71128911,17.1075594 9.79120839,17.1908087 9.87112887,17.2907093 C9.95104935,17.3906099 10.0076588,17.4971689 10.040959,17.6103896 C10.0742592,17.7236103 10.0909091,17.8434892 10.0909091,17.97003 C10.0909091,18.0965707 10.0709293,18.2197796 10.030969,18.3396603 C9.99100879,18.4595411 9.93772927,18.57276 9.87112887,18.6793207 C9.80452847,18.7858813 9.72127922,18.8824504 9.62137862,18.969031 C9.52147802,19.0556115 9.39826913,19.1322008 9.25174825,19.1988012 C9.10522737,19.2654016 8.95870869,19.3153511 8.81218781,19.3486513 C8.66566693,19.3819515 8.49583846,19.3986014 8.3026973,19.3986014 C8.10955614,19.3986014 7.92307782,19.3819515 7.74325674,19.3486513 C7.56343566,19.3153511 7.4035971,19.2687316 7.26373626,19.2087912 C7.12387542,19.1488508 6.99400659,19.0689316 6.87412587,18.969031 C6.75424515,18.8691304 6.64768611,18.7525814 6.55444555,18.6193806 C6.47452507,18.4728597 6.41458561,18.3396609 6.37462537,18.2197802 C6.33466513,18.0732593 6.31468531,17.9200807 6.31468531,17.7602398 L6.89410589,17.7202797 C6.92074605,17.8668006 6.94738581,17.9800196 6.97402597,18.0599401 C7.00066613,18.1398605 7.0372958,18.2231098 7.08391608,18.3096903 C7.13053636,18.3962708 7.20046573,18.4662002 7.29370629,18.5194805 L7.33366633,18.5594406 C7.44022697,18.626041 7.52014625,18.6726605 7.57342657,18.6993007 C7.67998721,18.7392609 7.79986613,18.7725606 7.93306693,18.7992008 C8.06626773,18.825841 8.19613656,18.8391608 8.32267732,18.8391608 C8.44921808,18.8391608 8.55910709,18.825841 8.65234765,18.7992008 L8.95204795,18.7392607 C9.07192867,18.6859804 9.15184795,18.6393608 9.19180819,18.5994006 L9.21178821,18.5994006 C9.27838861,18.5328002 9.32500819,18.4795207 9.35164835,18.4395604 C9.41824875,18.35964 9.45820839,18.2930406 9.47152847,18.2397602 L9.47152847,18.2197802 C9.48484855,18.1265397 9.49150849,18.0599403 9.49150849,18.01998 C9.49150849,17.9400595 9.48151858,17.8668002 9.46153846,17.8001998 C9.44155834,17.7335994 9.40825864,17.6736599 9.36163836,17.6203796 C9.31501808,17.5670993 9.25507862,17.5138198 9.18181818,17.4605395 C9.10855774,17.4072591 9.02530849,17.3672995 8.93206793,17.3406593 L8.63236763,17.2407592 C8.55244715,17.2141191 8.39926853,17.1741594 8.17282717,17.1208791 L8.09290709,17.1008991 C7.83982557,17.0476188 7.64668731,17.0009992 7.51348651,16.961039 L7.15384615,16.8211788 C7.02064535,16.7279383 6.92074625,16.6546789 6.85414585,16.6013986 C6.74758521,16.5214781 6.6709959,16.4415588 6.62437562,16.3616384 C6.57775534,16.2817179 6.54112567,16.1851488 6.51448551,16.0719281 C6.48784535,15.9587074 6.47452547,15.8521484 6.47452547,15.7522478 C6.47452547,15.6523472 6.49117532,15.5457881 6.52447552,15.4325674 C6.55777572,15.3193468 6.61105524,15.2094577 6.68431568,15.1028971 C6.75757612,14.9963365 6.84415534,14.9030973 6.94405594,14.8231768 C7.04395654,14.7432563 7.16383546,14.6766569 7.3036963,14.6233766 C7.44355714,14.5700963 7.57342597,14.5301367 7.69330669,14.5034965 C7.85314765,14.4768563 8.00965624,14.4635365 8.16283716,14.4635365 C8.31601808,14.4635365 8.47918661,14.4768563 8.65234765,14.5034965 C8.79886853,14.5301367 8.94538721,14.5734263 9.09190809,14.6333666 C9.23842897,14.693307 9.36163786,14.7665663 9.46153846,14.8531469 C9.56143906,14.9397274 9.65134825,15.0296366 9.73126873,15.1228771 C9.78454905,15.2161177 9.8344986,15.3293367 9.88111888,15.4625375 C9.92773916,15.5957383 9.95770889,15.735597 9.97102897,15.8821179 L9.35164835,15.9420579 C9.33832827,15.782217 9.30502857,15.6456882 9.25174825,15.5324675 C9.19846793,15.4192469 9.12187862,15.3260077 9.02197802,15.2527473 C8.92207742,15.1794868 8.80552847,15.1228773 8.67232767,15.0829171 C8.53912687,15.0429568 8.37595834,15.022977 8.18281718,15.022977 C7.98967602,15.022977 7.82650749,15.0396269 7.69330669,15.0729271 C7.56010589,15.1062273 7.44688691,15.1595068 7.35364635,15.2327672 C7.26040579,15.3060277 7.19380639,15.385947 7.15384615,15.4725275 C7.11388591,15.559108 7.09390609,15.6456872 7.09390609,15.7322677 C7.09390609,15.8188483 7.10722597,15.8987675 7.13386613,15.972028 C7.16050629,16.0452884 7.20712587,16.1085578 7.27372627,16.1618382 C7.34032667,16.2151185 7.44688571,16.268398 7.59340659,16.3216783 C7.73992747,16.3749586 7.95304555,16.4315681 8.23276723,16.4915085 C8.51248891,16.5514489 8.73226693,16.6080583 8.89210789,16.6613387 L9.01198801,16.7012987 C9.14518881,16.7412589 9.23842797,16.7745586 9.29170829,16.8011988 Z M12.2687313,14.5634366 L12.9480519,14.5634366 L14.9060939,19.3386613 L14.1868132,19.3386613 L13.6073926,17.8801199 L11.6093906,17.8801199 L11.0899101,19.3386613 L10.4305694,19.3386613 L12.2687313,14.5634366 Z M11.8167888,17.3606394 L13.4475524,17.3606394 L12.9080919,16.001998 C12.8281714,15.7755566 12.7748919,15.6090581 12.7482517,15.5024975 L12.6083916,15.0629371 C12.5817514,15.222778 12.5484517,15.3692967 12.5084915,15.5024975 L12.4685315,15.6223776 C12.4152511,15.7822186 12.3752915,15.8954376 12.3486513,15.962038 L11.8167888,17.3606394 Z M12.028971,12.0659341 L12.028971,12.6653347 L16.964036,12.6653347 C16.7375946,12.4655335 16.4811869,12.3156848 16.1948052,12.2157842 C15.9084235,12.1158836 15.5987363,12.0659341 15.2657343,12.0659341 L12.028971,12.0659341 Z M16.0649351,14.5634366 L18.5624376,18.3196803 L18.5624376,14.5634366 L19.1818182,14.5634366 L19.1818182,19.3386613 L18.5224775,19.3386613 L16.004995,15.5624376 L16.004995,19.3186813 L15.4055944,19.3186813 L15.4055944,14.5434565 L16.0649351,14.5434565 L16.0649351,14.5634366 Z M17.4835165,4.17382617 L19.2417582,4.17382617 L19.2417582,2.41558442 L17.4835165,2.41558442 L17.4835165,4.17382617 Z" id="" fill="#2B2826"></path>
            <g id="icons-/-Error_Mark" transform="translate(1.000000, 13.000000)">
                <circle id="Oval" fill="#FFFFFF" fill-rule="nonzero" cx="4" cy="4" r="4"></circle>
                <path d="M4.00666043,0.66666822 C4.60923891,0.667230482 5.16978374,0.820408594 5.68831169,1.12620713 C6.1900347,1.42368891 6.5896311,1.82328531 6.88711289,2.32500833 C7.19347473,2.84449144 7.34665335,3.4050364 7.34665335,4.00666001 C7.34665335,4.60828362 7.19347473,5.16882857 6.88711289,5.68831169 C6.5896311,6.1900347 6.1900347,6.5896311 5.68831169,6.88711289 C5.16882857,7.19347473 4.60828362,7.34665335 4.00666001,7.34665335 C3.4050364,7.34665335 2.84449144,7.19347473 2.32500833,6.88711289 C1.82328531,6.5896311 1.42368891,6.1900347 1.12620713,5.68831169 C0.819845288,5.16882857 0.666666667,4.60828362 0.666666667,4.00666001 C0.666666667,3.4050364 0.819845288,2.84449144 1.12620713,2.32500833 C1.42368891,1.82328531 1.82328531,1.42368891 2.32500833,1.12620713 C2.84353627,0.820408594 3.4040811,0.667230482 4.00665958,0.66666822 L4.00666043,0.66666822 Z M4.00666043,0.66666822 C4.00555043,0.666667185 4.00444029,0.666666667 4.00333,0.666666667 L4.00999001,0.666666667 C4.00887973,0.666666667 4.00776958,0.666667185 4.00665958,0.66666822 L4.00666043,0.66666822 Z M4.34299034,5.67499167 L4.34299034,5.00899101 L3.67032967,5.00899101 L3.67032967,5.67499167 L4.34299034,5.67499167 Z M4.34299034,4.34299034 L4.34299034,2.33832834 L3.67032967,2.33832834 L3.67032967,4.34299034 L4.34299034,4.34299034 Z" id="" fill="#F83200"></path>
            </g>
        </g>
    </g>
</svg>