<?xml version="1.0" encoding="UTF-8"?>
<svg width="20px" height="20px" viewBox="0 0 20 20" version="1.1" xmlns="http://www.w3.org/2000/svg" xmlns:xlink="http://www.w3.org/1999/xlink">
    <!-- Generator: Sketch 51.3 (57544) - http://www.bohemiancoding.com/sketch -->
    <title>icons / classes/ BMC_ActivityInteraction_32_Error</title>
    <desc>Created with Sketch.</desc>
    <defs></defs>
    <g id="icons-/-classes/-BMC_ActivityInteraction_32" stroke="none" stroke-width="1" fill="none" fill-rule="evenodd">
        <g>
            <g id="icons-/-20x20-icon-field" fill="#F5A623" fill-rule="nonzero" opacity="0">
                <rect x="0" y="0" width="20" height="20"></rect>
            </g>
            <path d="M13.6463536,0.036963037 L20.01998,-0.002997003 L20.01998,6.37062937 L18.0819181,6.41058941 L18.021978,3.35364635 L13.8661339,7.48951049 C13.2667303,7.51615065 12.6839855,7.62270969 12.1178821,7.80919081 C11.5517787,7.99567193 11.0356334,8.24208971 10.5694306,8.54845155 L6.61338661,4.65234765 L1.2987013,10.006993 L0,8.60839161 L6.61338661,1.97502498 L11.6883117,6.99000999 L16.7632368,1.91508492 L13.6463536,1.91508492 L13.6463536,0.036963037 Z M18.2817183,10.006993 C18.56144,10.2733946 18.8045278,10.5564421 19.010989,10.8561439 C19.2174502,11.1558457 19.4005986,11.4921726 19.5604396,11.8651349 C19.7069604,12.224777 19.8201794,12.5977337 19.9000999,12.984016 C19.9667003,13.317018 20,13.7099544 20,14.1628372 C20,14.5491195 19.9667003,14.9420559 19.9000999,15.3416583 C19.8334995,15.6879804 19.7202805,16.0476172 19.5604396,16.4205794 C19.4005986,16.7802216 19.2174502,17.1165486 19.010989,17.4295704 C18.8045278,17.7425923 18.5680999,18.0289697 18.3016983,18.2887113 C18.0352967,18.5484528 17.7455893,18.7815507 17.4325674,18.988012 C17.1195456,19.1944732 16.7865486,19.3776216 16.4335664,19.5374625 C16.0805843,19.6973035 15.7109576,19.8171824 15.3246753,19.8971029 C14.938393,19.9770234 14.5521165,20.016983 14.1658342,20.016983 C13.7795518,20.016983 13.3932753,19.9770234 13.006993,19.8971029 C12.6207107,19.8171824 12.247754,19.6973035 11.8881119,19.5374625 C11.5284697,19.3776216 11.2021327,19.1978032 10.9090909,18.998002 C10.5760889,18.7582406 10.2863815,18.5184827 10.03996,18.2787213 C9.79353856,18.0389598 9.56377063,17.7592424 9.35064935,17.4395604 C9.13752807,17.1198785 8.95104975,16.7868815 8.79120879,16.4405594 C8.63136783,16.0942374 8.51481888,15.7312706 8.44155844,15.3516484 C8.368298,14.9720261 8.33166833,14.5757596 8.33166833,14.1628372 C8.33166833,13.7499147 8.36496803,13.3569782 8.43156843,12.984016 C8.51148891,12.5844136 8.63136783,12.204797 8.79120879,11.8451548 C8.95104975,11.4855127 9.1341981,11.1591756 9.34065934,10.8661339 C9.54712058,10.5730921 9.78354845,10.2933746 10.04995,10.026973 C10.3163516,9.76057143 10.6027291,9.52081359 10.9090909,9.30769231 C11.2154527,9.09457103 11.5417898,8.91475265 11.8881119,8.76823177 C12.234434,8.62171089 12.6007307,8.51182188 12.987013,8.43856144 C13.3732953,8.365301 13.7629018,8.32867133 14.1558442,8.32867133 C14.5487865,8.32867133 14.938393,8.365301 15.3246753,8.43856144 C15.7109576,8.51182188 16.0839143,8.62171089 16.4435564,8.76823177 C16.8031986,8.91475265 17.1361956,9.09457103 17.4425574,9.30769231 C17.7222791,9.50749351 18.0019966,9.74059141 18.2817183,10.006993 Z M13.2467532,13.5834166 L11.9280719,13.5834166 L11.9280719,13.3436563 C11.941392,13.2637359 11.9547119,13.1904765 11.968032,13.1238761 L12.027972,12.9240759 C12.0412921,12.8574755 12.0745918,12.7775562 12.1278721,12.6843157 C12.1411922,12.6443554 12.167832,12.584416 12.2077922,12.5044955 C12.2610725,12.424575 12.3010322,12.3712955 12.3276723,12.3446553 L12.4475524,12.1848152 C12.4608725,12.158175 12.4941722,12.1182154 12.5474525,12.0649351 L12.5874126,12.024975 C12.654013,11.9716947 12.7139524,11.9284051 12.7672328,11.8951049 C12.8205131,11.8618047 12.8737926,11.8185151 12.9270729,11.7652348 L13.3066933,11.5654346 L13.7462537,11.4455544 L14.1858142,11.4055944 L14.2857143,11.4055944 L14.4055944,11.3656344 L14.5454545,11.2657343 L14.6453546,11.1258741 C14.6586747,11.112554 14.6719946,11.0792543 14.6853147,11.025974 L14.6853147,10.8461538 L14.6453546,10.7462537 L14.5454545,10.6063936 L14.4655345,10.5464535 L14.2857143,10.4465534 C14.2723942,10.4332334 14.2390945,10.4265734 14.1858142,10.4265734 L13.8661339,10.4465534 L13.5664336,10.4865135 L13.2267732,10.5664336 C13.1335327,10.5930737 13.0336336,10.6263734 12.9270729,10.6663337 L12.6473526,10.7862138 C12.5541121,10.826174 12.4675329,10.8794535 12.3876124,10.9460539 C12.321012,10.9993343 12.2377627,11.0626037 12.1378621,11.1358641 C12.0379615,11.2091246 11.9613722,11.272394 11.9080919,11.3256743 L11.6883117,11.5454545 C11.6217113,11.6386951 11.5684318,11.7119544 11.5284715,11.7652348 C11.4885113,11.8185151 11.4352318,11.8917744 11.3686314,11.985015 L11.2087912,12.3046953 C11.168831,12.3979359 11.1355313,12.497835 11.1088911,12.6043956 L11.028971,12.9240759 C11.0023309,13.0306366 10.982351,13.1305357 10.969031,13.2237762 L10.969031,13.5634366 L9.61038961,13.5634366 L11.4285714,16.000999 L13.2467532,13.5834166 Z M17.4225774,14.7822178 L18.7612388,14.7822178 L16.9230769,12.3646354 L15.0849151,14.7822178 L16.4635365,14.7822178 L16.4435564,15.001998 L16.4235764,15.2417582 L16.3636364,15.4415584 L16.2837163,15.6613387 C16.2570761,15.714619 16.2237764,15.7745584 16.1838162,15.8411588 L16.1038961,15.961039 L15.9440559,16.1808192 C15.9040957,16.2340995 15.8508162,16.2807191 15.7842158,16.3206793 L15.6243756,16.4605395 C15.5577752,16.5271399 15.5044957,16.5670995 15.4645355,16.5804196 L15.2647353,16.6803197 L15.0649351,16.7602398 C15.0116547,16.7868799 14.9450553,16.8068597 14.8651349,16.8201798 L14.6653347,16.8801199 L14.4455544,16.9200799 L14.1058941,16.9200799 L14.045954,16.96004 L13.966034,17.01998 L13.8261738,17.1598402 L13.7462537,17.2997003 L13.7262737,17.3796204 C13.7262737,17.4329007 13.7329337,17.4662004 13.7462537,17.4795205 L13.7662338,17.5594406 L13.8661339,17.6993007 L13.9460539,17.7792208 L14.025974,17.8191808 C14.0392941,17.8325009 14.0659339,17.8391608 14.1058941,17.8391608 L14.5454545,17.8391608 C14.6520152,17.8258408 14.7585742,17.8058609 14.8651349,17.7792208 L15.1648352,17.7192807 C15.2713958,17.6926406 15.3712949,17.6526809 15.4645355,17.5994006 L15.7442557,17.4795205 C15.8374963,17.4395602 15.9307355,17.3862807 16.023976,17.3196803 L16.043956,17.3196803 C16.1505167,17.2530799 16.223776,17.1998004 16.2637363,17.1598402 L16.5034965,16.96004 C16.5967371,16.8667994 16.6633365,16.7935401 16.7032967,16.7402597 L16.8831169,16.5204795 L17.042957,16.2407592 C17.1095574,16.1475187 17.156177,16.0609395 17.1828172,15.981019 C17.2094573,15.9010985 17.242757,15.8011994 17.2827173,15.6813187 L17.3826174,15.3816184 L17.4225774,15.0819181 C17.4358975,15.0286378 17.4425574,14.9553784 17.4425574,14.8621379 L17.4225774,14.7822178 Z" id="" fill="#2B2826"></path>
            <g id="icons-/-Error_Mark" transform="translate(0.000000, 12.000000)">
                <circle id="Oval" fill="#FFFFFF" fill-rule="nonzero" cx="4" cy="4" r="4"></circle>
                <path d="M4.00666043,0.66666822 C4.60923891,0.667230482 5.16978374,0.820408594 5.68831169,1.12620713 C6.1900347,1.42368891 6.5896311,1.82328531 6.88711289,2.32500833 C7.19347473,2.84449144 7.34665335,3.4050364 7.34665335,4.00666001 C7.34665335,4.60828362 7.19347473,5.16882857 6.88711289,5.68831169 C6.5896311,6.1900347 6.1900347,6.5896311 5.68831169,6.88711289 C5.16882857,7.19347473 4.60828362,7.34665335 4.00666001,7.34665335 C3.4050364,7.34665335 2.84449144,7.19347473 2.32500833,6.88711289 C1.82328531,6.5896311 1.42368891,6.1900347 1.12620713,5.68831169 C0.819845288,5.16882857 0.666666667,4.60828362 0.666666667,4.00666001 C0.666666667,3.4050364 0.819845288,2.84449144 1.12620713,2.32500833 C1.42368891,1.82328531 1.82328531,1.42368891 2.32500833,1.12620713 C2.84353627,0.820408594 3.4040811,0.667230482 4.00665958,0.66666822 L4.00666043,0.66666822 Z M4.00666043,0.66666822 C4.00555043,0.666667185 4.00444029,0.666666667 4.00333,0.666666667 L4.00999001,0.666666667 C4.00887973,0.666666667 4.00776958,0.666667185 4.00665958,0.66666822 L4.00666043,0.66666822 Z M4.34299034,5.67499167 L4.34299034,5.00899101 L3.67032967,5.00899101 L3.67032967,5.67499167 L4.34299034,5.67499167 Z M4.34299034,4.34299034 L4.34299034,2.33832834 L3.67032967,2.33832834 L3.67032967,4.34299034 L4.34299034,4.34299034 Z" id="" fill="#F83200"></path>
            </g>
        </g>
    </g>
</svg>