<?xml version="1.0" encoding="UTF-8"?>
<svg width="20px" height="20px" viewBox="0 0 20 20" version="1.1" xmlns="http://www.w3.org/2000/svg" xmlns:xlink="http://www.w3.org/1999/xlink">
    <!-- Generator: Sketch 51.3 (57544) - http://www.bohemiancoding.com/sketch -->
    <title>icons / classes/ BMC_UIComponent_32</title>
    <desc>Created with Sketch.</desc>
    <defs></defs>
    <g id="icons-/-classes/-BMC_UIComponent_32" stroke="none" stroke-width="1" fill="none" fill-rule="evenodd">
        <g>
            <g id="icons-/-20x20-icon-field" fill="#F5A623" fill-rule="nonzero" opacity="0">
                <rect x="0" y="0" width="20" height="20"></rect>
            </g>
            <path d="M17.9000999,15.041958 C17.9533802,15.0819183 17.9866799,15.115218 18,15.1418581 C18.0133201,15.1684983 18.0000002,15.2151179 17.96004,15.2817183 L16.5414585,16.9000999 C16.4881782,16.9667003 16.4515486,17.0066599 16.4315684,17.01998 C16.4115883,17.0333001 16.3616388,17.0532799 16.2817183,17.0799201 C15.8687958,17.1731606 15.6590077,17.0499517 15.6523477,16.7102897 C15.6456876,16.3706277 15.5158188,16.0209808 15.2627373,15.6613387 C15.2360971,15.6213784 15.1428579,15.5714289 14.983017,15.5114885 C14.823176,15.4515482 14.709957,15.4282384 14.6433566,15.4415584 C14.4968358,15.4681986 14.356977,15.5114882 14.2237762,15.5714286 C14.0905754,15.6313689 13.9773564,15.7212781 13.8841159,15.8411588 C13.6976348,16.0809203 13.6343653,16.3240081 13.6943057,16.5704296 C13.7542461,16.816851 13.9107546,17.0266392 14.1638362,17.1998002 C14.4169177,17.3729612 14.6400257,17.4895102 14.8331668,17.5494505 C15.026308,17.6093909 15.1228771,17.7392597 15.1228771,17.9390609 C15.096237,18.2720629 14.8864489,18.6350297 14.4935065,19.027972 C14.1005641,19.4209144 13.777557,19.683982 13.5244755,19.8171828 C13.4578751,19.8704631 13.4079256,19.890443 13.3746254,19.8771229 C13.3413252,19.8638028 13.2980356,19.8305031 13.2447552,19.7772228 L12.4455544,18.7982018 C12.1525127,18.4252396 11.9593744,18.2121215 11.8661339,18.1588412 C11.719613,18.0789207 11.5298047,18.0689308 11.2967033,18.1288711 C11.0636019,18.1888115 10.8971034,18.3120204 10.7972028,18.4985015 C10.6973022,18.6849826 10.6340328,18.9014307 10.6073926,19.1478521 C10.5807524,19.3942736 10.520813,19.5840819 10.4275724,19.7172827 C10.4009323,19.770563 10.3476527,19.8238426 10.2677323,19.8771229 C10.1878118,19.9304032 10.1078925,19.9637029 10.027972,19.977023 C9.78821059,20.0036631 9.57176254,19.9703634 9.37862138,19.8771229 C9.18548022,19.7838823 9.02231169,19.6373636 8.88911089,19.4375624 C8.72926993,19.197801 8.70263017,18.9247435 8.80919081,18.6183816 C8.91575145,18.3120198 9.13552947,18.1188815 9.46853147,18.038961 C9.54845195,18.025641 9.64502108,18.018981 9.75824176,18.018981 C9.87146244,18.018981 9.95471169,18.0056611 10.007992,17.979021 C10.167833,17.9390607 10.2677321,17.8591415 10.3076923,17.7392607 C10.3476525,17.61938 10.3543125,17.4728613 10.3276723,17.2997003 C10.2610719,16.8468176 10.027974,16.4405612 9.62837163,16.0809191 C9.34864995,15.8278376 8.93573367,15.4748607 8.38961039,15.021978 C8.32300999,14.9820178 8.28638032,14.9453881 8.27972028,14.9120879 C8.27306024,14.8787877 8.28971009,14.8288382 8.32967033,14.7622378 C8.46287113,14.5357964 8.78920819,14.1794896 9.30869131,13.6933067 C9.82817443,13.2071238 10.1744913,12.9373962 10.3476523,12.8841159 C10.6806543,12.7775552 10.8671327,12.9274039 10.9070929,13.3336663 C10.9470531,13.7399288 11.0402923,14.0562759 11.1868132,14.2827173 C11.2267734,14.3759578 11.2900429,14.4525472 11.3766234,14.5124875 C11.4632039,14.5724279 11.5531131,14.6157175 11.6463536,14.6423576 C11.9660356,14.7622384 12.2723928,14.7222787 12.5654346,14.5224775 C12.8584763,14.3226763 12.9850152,14.0496188 12.9450549,13.7032967 C12.9317349,13.4768553 12.8651355,13.2570773 12.7452547,13.043956 C12.625374,12.8308348 12.4522156,12.7042959 12.2257742,12.6643357 C12.1458537,12.6510156 12.0492846,12.6543456 11.9360639,12.6743257 C11.8228433,12.6943058 11.7329341,12.6943058 11.6663337,12.6743257 C11.5997333,12.6543456 11.5531137,12.6243758 11.5264735,12.5844156 L11.5064935,12.5444555 C11.4665333,12.4911752 11.4398935,12.4445556 11.4265734,12.4045954 C11.359973,12.3246749 11.3133534,12.2414257 11.2867133,12.1548452 C11.2600731,12.0682646 11.2667331,11.9783554 11.3066933,11.8851149 L11.3666334,11.8051948 C11.3932735,11.7652346 11.4265732,11.7319349 11.4665335,11.7052947 L12.985015,10.1868132 L13.0849151,10.1068931 C13.1115552,10.1068931 13.1515149,10.1401928 13.2047952,10.2067932 L15.1228771,11.985015 L15.2627373,12.0849151 L15.3626374,12.1248751 C15.6823193,12.1515153 15.8554777,12.0249764 15.8821179,11.7452547 L15.982018,11.045954 C16.0086581,10.8594729 16.0619377,10.7329341 16.1418581,10.6663337 C16.2217786,10.5997333 16.3349976,10.5397938 16.4815185,10.4865135 C16.7079598,10.406593 16.8977681,10.3666334 17.0509491,10.3666334 C17.20413,10.3666334 17.3872783,10.4465526 17.6003996,10.6063936 C17.7868807,10.7662346 17.9067596,10.9826826 17.96004,11.2557443 C18.0133203,11.5288059 17.9633707,11.7619038 17.8101898,11.955045 C17.6570089,12.1481861 17.5071602,12.2580751 17.3606394,12.2847153 C17.1608382,12.3113554 16.96104,12.3246753 16.7612388,12.3246753 C16.6147179,12.3246753 16.488179,12.3446551 16.3816184,12.3846154 C16.2750577,12.4245756 16.2017984,12.497835 16.1618382,12.6043956 C15.962037,13.003998 16.1152156,13.4568739 16.6213786,13.963037 C17.1541818,14.5091602 17.580418,14.868797 17.9000999,15.041958 Z" id="" fill="#2B2826"></path>
            <path d="M19.8404786,1.25623131 C19.9335332,1.49551466 19.9800598,1.74144108 19.9800598,1.99401795 L19.9800598,10.9471585 C19.5014931,10.0564927 18.8434738,9.31871346 18.0059821,8.7337986 L18.0059821,4.80558325 L1.99401795,4.80558325 L1.99401795,13.998006 L7.49750748,13.998006 L7.49750748,14.1575274 C7.49750748,14.7823228 7.58391406,15.3938156 7.75672981,15.9920239 L1.99401795,15.9920239 C1.74144108,15.9920239 1.49883799,15.942174 1.2662014,15.8424726 C1.03356481,15.7427712 0.817548355,15.6065147 0.618145563,15.4336989 C0.405449252,15.2210026 0.249252742,14.9983395 0.149551346,14.7657029 C0.0498499501,14.5330663 0,14.2771699 0,13.998006 L0,1.99401795 C0,1.74144108 0.0498499501,1.49883799 0.149551346,1.2662014 C0.249252742,1.03356481 0.402125922,0.814225025 0.608175474,0.608175474 C0.814225025,0.402125922 1.03356481,0.249252742 1.2662014,0.149551346 C1.49883799,0.0498499501 1.74144108,0 1.99401795,0 L18.0059821,0 C18.2718524,0 18.5211022,0.0498499501 18.7537388,0.149551346 C18.9863754,0.249252742 19.2023918,0.402125922 19.4017946,0.608175474 C19.6011974,0.814225025 19.7474239,1.03024148 19.8404786,1.25623131 Z M3.19042871,3.19042871 C3.31007039,3.05749352 3.36989033,2.86474038 3.36989033,2.61216351 C3.36989033,2.49252183 3.34662702,2.39282193 3.3000997,2.31306082 C3.25357238,2.2332997 3.19707577,2.15686311 3.13060818,2.08374875 C3.06414058,2.0106344 2.98438066,1.95746112 2.89132602,1.92422732 C2.79827139,1.89099352 2.70189482,1.87437687 2.60219342,1.87437687 C2.50249202,1.87437687 2.40611545,1.89764018 2.31306082,1.9441675 C2.22000618,1.99069482 2.14024626,2.04719143 2.07377866,2.11365902 C2.00731107,2.18012662 1.95081446,2.25988654 1.90428714,2.35294118 C1.85775982,2.44599581 1.83449651,2.53240239 1.83449651,2.61216351 C1.83449651,2.69192463 1.85775982,2.78497787 1.90428714,2.89132602 C1.95081446,2.99767418 2.00398774,3.08075743 2.06380857,3.14057827 C2.12362941,3.2003991 2.20338933,3.25357238 2.30309073,3.3000997 C2.40279212,3.34662702 2.50581535,3.36989033 2.61216351,3.36989033 C2.86474038,3.36989033 3.05749352,3.31007039 3.19042871,3.19042871 Z M5.16450648,3.19042871 C5.29744167,3.05749352 5.36390828,2.86474038 5.36390828,2.61216351 C5.36390828,2.50581535 5.3439683,2.40943878 5.30408774,2.32303091 C5.26420718,2.23662303 5.2110339,2.16018644 5.1445663,2.09371884 C5.0780987,2.02725125 4.99833878,1.97407797 4.90528415,1.93419741 C4.81222951,1.89431685 4.70920628,1.87437687 4.59621137,1.87437687 C4.48321645,1.87437687 4.38683988,1.89764018 4.30707876,1.9441675 C4.22731765,1.99069482 4.14755773,2.04719143 4.06779661,2.11365902 C3.98803549,2.18012662 3.93153888,2.25656321 3.89830508,2.34297109 C3.86507129,2.42937896 3.84845464,2.52575553 3.84845464,2.63210369 C3.84845464,2.73845184 3.86507129,2.83150508 3.89830508,2.9112662 C3.93153888,2.99102732 3.98471216,3.06414058 4.05782652,3.13060818 C4.13094088,3.19707577 4.2107008,3.25357238 4.29710867,3.3000997 C4.38351655,3.34662702 4.48653978,3.36989033 4.60618146,3.36989033 C4.85875833,3.36989033 5.04486481,3.31007039 5.16450648,3.19042871 Z M18.0059821,1.99401795 L6.00199402,1.99401795 L6.00199402,3.21036889 L18.0059821,3.21036889 L18.0059821,1.99401795 Z" id="" fill="#2B2826"></path>
            <g id="icons-/-Error_Mark" transform="translate(0.000000, 12.000000)" opacity="0">
                <circle id="Oval" fill="#FFFFFF" fill-rule="nonzero" cx="4" cy="4" r="4"></circle>
                <path d="M4.00666043,0.66666822 C4.60923891,0.667230482 5.16978374,0.820408594 5.68831169,1.12620713 C6.1900347,1.42368891 6.5896311,1.82328531 6.88711289,2.32500833 C7.19347473,2.84449144 7.34665335,3.4050364 7.34665335,4.00666001 C7.34665335,4.60828362 7.19347473,5.16882857 6.88711289,5.68831169 C6.5896311,6.1900347 6.1900347,6.5896311 5.68831169,6.88711289 C5.16882857,7.19347473 4.60828362,7.34665335 4.00666001,7.34665335 C3.4050364,7.34665335 2.84449144,7.19347473 2.32500833,6.88711289 C1.82328531,6.5896311 1.42368891,6.1900347 1.12620713,5.68831169 C0.819845288,5.16882857 0.666666667,4.60828362 0.666666667,4.00666001 C0.666666667,3.4050364 0.819845288,2.84449144 1.12620713,2.32500833 C1.42368891,1.82328531 1.82328531,1.42368891 2.32500833,1.12620713 C2.84353627,0.820408594 3.4040811,0.667230482 4.00665958,0.66666822 L4.00666043,0.66666822 Z M4.00666043,0.66666822 C4.00555043,0.666667185 4.00444029,0.666666667 4.00333,0.666666667 L4.00999001,0.666666667 C4.00887973,0.666666667 4.00776958,0.666667185 4.00665958,0.66666822 L4.00666043,0.66666822 Z M4.34299034,5.67499167 L4.34299034,5.00899101 L3.67032967,5.00899101 L3.67032967,5.67499167 L4.34299034,5.67499167 Z M4.34299034,4.34299034 L4.34299034,2.33832834 L3.67032967,2.33832834 L3.67032967,4.34299034 L4.34299034,4.34299034 Z" id="" fill="#F83200"></path>
            </g>
        </g>
    </g>
</svg>