<?xml version="1.0" encoding="UTF-8"?>
<svg width="20px" height="20px" viewBox="0 0 20 20" version="1.1" xmlns="http://www.w3.org/2000/svg" xmlns:xlink="http://www.w3.org/1999/xlink">
    <!-- Generator: Sketch 51.3 (57544) - http://www.bohemiancoding.com/sketch -->
    <title>icons / classes/ BMC_TapeDrive_32_Error</title>
    <desc>Created with Sketch.</desc>
    <defs></defs>
    <g id="icons-/-classes/-BMC_TapeDrive_32" stroke="none" stroke-width="1" fill="none" fill-rule="evenodd">
        <g id="icons-/-classes/-Tape-Drive">
            <g id="icons-/-20x20-icon-field" fill="#F5A623" fill-rule="nonzero" opacity="0">
                <rect x="0" y="0" width="20" height="20"></rect>
            </g>
            <path d="M18.8741259,3.62837163 C18.9220782,3.73626428 18.9580418,3.84715228 18.982018,3.96103896 C19.0059941,4.07492564 19.017982,4.18581365 19.017982,4.29370629 L19.017982,15.1188811 C19.017982,15.2267738 19.0000002,15.3466527 18.964036,15.4785215 C18.9520479,15.5744261 18.9220782,15.6823171 18.8741259,15.8021978 C18.8381617,15.8861143 18.7782222,15.9880114 18.6943057,16.1078921 C18.6463534,16.2037967 18.5654351,16.2996998 18.4515485,16.3956044 C18.3376618,16.491509 18.2447556,16.5634363 18.1728272,16.6113886 C18.0409584,16.683317 17.9330674,16.7372626 17.8491508,16.7732268 C17.7652343,16.809191 17.6663342,16.8391607 17.5524476,16.8631369 C17.4385609,16.887113 17.3216789,16.8991009 17.2017982,16.8991009 L2.78021978,16.8991009 C2.6843152,16.8991009 2.57642418,16.887113 2.45654346,16.8631369 C2.33666274,16.8391607 2.22277776,16.809191 2.11488511,16.7732268 C2.04295668,16.7372626 1.94705355,16.683317 1.82717283,16.6113886 L1.80919081,16.6113886 C1.74925045,16.5634363 1.65934126,16.485515 1.53946054,16.3776224 C1.44355596,16.3056939 1.35964072,16.2157848 1.28771229,16.1078921 C1.22777193,16.0359637 1.17382641,15.9370636 1.12587413,15.8111888 C1.07792184,15.6853141 1.04195816,15.5684321 1.01798202,15.4605395 C0.994005874,15.3526468 0.982017982,15.2387618 0.982017982,15.1188811 L0.982017982,4.29370629 C0.982017982,4.18581365 0.997002847,4.0689317 1.02697303,3.94305694 C1.05694321,3.81718219 1.08990991,3.70629419 1.12587413,3.61038961 C1.16183834,3.51448503 1.21878083,3.41558493 1.2967033,3.31368631 C1.37462576,3.2117877 1.44955009,3.12487548 1.52147852,3.05294705 C1.59340695,2.98101862 1.68931009,2.89710338 1.80919081,2.8011988 C1.89310731,2.74125844 1.9950044,2.68731293 2.11488511,2.63936064 C2.23476583,2.59140835 2.34865081,2.55544468 2.45654346,2.53146853 C2.5644361,2.50749239 2.67232713,2.4955045 2.78021978,2.4955045 L17.2197802,2.4955045 C17.3276729,2.4955045 17.4475518,2.50749239 17.5794206,2.53146853 C17.6753252,2.55544468 17.7832162,2.59140835 17.9030969,2.63936064 C17.9630373,2.67532486 18.0589404,2.72927037 18.1908092,2.8011988 C18.2747257,2.84915109 18.3706288,2.93306633 18.4785215,3.05294705 C18.562438,3.13686356 18.6343653,3.22677275 18.6943057,3.32267732 L18.7302697,3.37662338 C18.7902101,3.48451602 18.8381617,3.56843127 18.8741259,3.62837163 Z M17.2197802,15.1188811 L17.2197802,4.29370629 L2.78021978,4.29370629 L2.78021978,15.1188811 L4.36263736,15.1188811 L4.36263736,13.4645355 C4.36263736,13.3566428 4.37462525,13.2427578 4.3986014,13.1228771 C4.42257754,13.0029964 4.45554425,12.8951054 4.4975025,12.7992008 C4.53946075,12.7032962 4.60239718,12.5954052 4.68631369,12.4755245 C4.73426597,12.391608 4.80619333,12.3076927 4.9020979,12.2237762 C4.99800248,12.1398597 5.09989956,12.0559445 5.20779221,11.972028 C5.29170871,11.9000995 5.39060882,11.8401601 5.5044955,11.7922078 C5.61838219,11.7442555 5.72327624,11.7142858 5.81918082,11.7022977 C5.96303768,11.6783216 6.0829166,11.6663337 6.17882118,11.6663337 L13.8391608,11.6663337 C13.9710296,11.6663337 14.0939055,11.6753246 14.2077922,11.6933067 C14.3216789,11.7112888 14.4325669,11.7442555 14.5404595,11.7922078 C14.612388,11.828172 14.7082911,11.8881115 14.8281718,11.972028 C14.9120883,12.0199803 15.0079915,12.0979016 15.1158841,12.2057942 C15.2117887,12.3016988 15.283716,12.391608 15.3316683,12.4755245 C15.4035968,12.5954052 15.4605393,12.7002993 15.5024975,12.7902098 C15.5444558,12.8801203 15.5774225,12.9850144 15.6013986,13.1048951 C15.6253747,13.1768235 15.6373626,13.2967025 15.6373626,13.4645355 L15.6373626,15.1188811 L17.2197802,15.1188811 Z M4.45254745,8.35764236 L4.45254745,8.1958042 C4.45254745,7.96803083 4.48551416,7.75824272 4.55144855,7.56643357 C4.61738295,7.37462442 4.71028911,7.20679393 4.83016983,7.06293706 C4.96203862,6.88311598 5.10289635,6.73626431 5.25274725,6.62237762 C5.40259815,6.50849094 5.57941956,6.41558478 5.78321678,6.34365634 L6.12487512,6.23576424 L6.5024975,6.21778222 L6.57442557,6.23576424 L6.68231768,6.23576424 C6.92207912,6.25974038 7.14085815,6.32567379 7.33866134,6.43356643 C7.53646453,6.54145908 7.70729199,6.66733195 7.85114885,6.81118881 C8.03096993,6.99100989 8.1568428,7.17082827 8.22877123,7.35064935 C8.3246758,7.56643465 8.38461526,7.77622276 8.40859141,7.98001998 L8.40859141,8.1958042 C8.40859141,8.38761335 8.38161865,8.57642265 8.32767233,8.76223776 C8.273726,8.94805288 8.19280773,9.12187731 8.08491508,9.28371628 C7.97702244,9.44555525 7.85114957,9.58641299 7.70729271,9.70629371 C7.56343584,9.82617443 7.40759325,9.92807151 7.23976024,10.011988 L7.02397602,10.1198801 L6.80819181,10.1738262 L6.62837163,10.1918082 L6.3046953,10.1918082 L6.26873127,10.1558442 C6.02896983,10.1438561 5.80119988,10.0929075 5.58541459,10.002997 C5.36962929,9.91308646 5.17782302,9.78121965 5.00999001,9.60739261 C4.842157,9.43356556 4.71029019,9.24475626 4.61438561,9.04095904 C4.51848104,8.83716182 4.46453552,8.60939187 4.45254745,8.35764236 Z M5.71128871,7.90809191 C5.6753245,7.99200841 5.65734266,8.08791155 5.65734266,8.1958042 C5.65734266,8.30369684 5.6753245,8.40559393 5.71128871,8.5014985 C5.74725293,8.59740308 5.80119844,8.68731227 5.87312687,8.77122877 C5.9450553,8.85514527 6.0349645,8.91208776 6.14285714,8.94205794 C6.25074979,8.97202812 6.35264687,8.98701299 6.44855145,8.98701299 C6.54445602,8.98701299 6.64035916,8.96903115 6.73626374,8.93306693 C6.82018024,8.89710272 6.90109851,8.84016023 6.97902098,8.76223776 C7.05694345,8.68431529 7.11987988,8.60040005 7.16783217,8.51048951 C7.21578446,8.42057897 7.23976024,8.32167886 7.23976024,8.21378621 C7.23976024,8.10589357 7.2217784,8.00699346 7.18581419,7.91708292 C7.14984997,7.82717238 7.08391656,7.73426621 6.98801199,7.63836164 C6.91608356,7.56643321 6.83516528,7.50949072 6.74525475,7.46753247 C6.65534421,7.42557422 6.5564441,7.4045954 6.44855145,7.4045954 C6.3406588,7.4045954 6.23576475,7.42557422 6.13386613,7.46753247 C6.03196752,7.50949072 5.9450553,7.56943018 5.87312687,7.64735265 C5.80119844,7.72527511 5.74725293,7.81218733 5.71128871,7.90809191 Z M13.8391608,13.4645355 L6.16083916,13.4645355 L6.16083916,15.1188811 L13.8391608,15.1188811 L13.8391608,13.4645355 Z M11.5914086,8.35764236 L11.5914086,8.32167832 L11.5734266,8.3036963 L11.5734266,8.1958042 C11.5734266,7.9800189 11.6063933,7.77322776 11.6723277,7.57542458 C11.7382621,7.37762139 11.8251743,7.20679393 11.9330669,7.06293706 C12.0649357,6.88311598 12.2117874,6.73626431 12.3736264,6.62237762 C12.5354653,6.50849094 12.7122868,6.40959083 12.9040959,6.32567433 L13.2277722,6.23576424 L13.3536464,6.21778222 L13.4435564,6.1998002 L13.6233766,6.1998002 C13.6353647,6.1998002 13.6533465,6.20579415 13.6773227,6.21778222 L13.7672328,6.21778222 C14.0189823,6.26573451 14.2347643,6.33166791 14.4145854,6.41558442 C14.6183826,6.52347706 14.804195,6.65834085 14.972028,6.82017982 C15.139861,6.98201879 15.2657338,7.15584323 15.3496503,7.34165834 C15.4335669,7.52747346 15.4875124,7.74025854 15.5114885,7.98001998 C15.5234766,7.99200805 15.5294705,8.00998989 15.5294705,8.03396603 L15.5294705,8.1958042 C15.5294705,8.38761335 15.5024978,8.57342567 15.4485514,8.75324675 C15.3946051,8.93306783 15.3106899,9.10988924 15.1968032,9.28371628 C15.0829165,9.45754333 14.9570436,9.60139803 14.8191808,9.71528472 C14.681318,9.8291714 14.5224784,9.92807151 14.3426573,10.011988 C14.3186812,10.0359642 14.2887115,10.053946 14.2527473,10.0659341 L14.036963,10.1378621 C13.9770227,10.1498502 13.941059,10.1618381 13.9290709,10.1738262 L13.7492507,10.1918082 L13.4255744,10.1918082 L13.3896104,10.1558442 C13.1378609,10.1438561 12.907094,10.0929075 12.6973027,10.002997 C12.4875114,9.91308646 12.2987021,9.78421662 12.1308691,9.61638362 C11.9630361,9.44855061 11.8311693,9.25674434 11.7352647,9.04095904 C11.6633363,8.88511411 11.6153847,8.65734416 11.5914086,8.35764236 Z M12.8501499,7.90809191 C12.8021976,7.99200841 12.7782218,8.08491458 12.7782218,8.18681319 C12.7782218,8.2887118 12.7962036,8.39360585 12.8321678,8.5014985 C12.868132,8.57342693 12.9220776,8.65734218 12.994006,8.75324675 C13.0659344,8.84915133 13.1558436,8.91208776 13.2637363,8.94205794 C13.3716289,8.97202812 13.473526,8.98701299 13.5694306,8.98701299 C13.6653351,8.98701299 13.7672322,8.96903115 13.8751249,8.93306693 C13.9470533,8.89710272 14.0249746,8.83716326 14.1088911,8.75324675 C14.1928076,8.66933025 14.255744,8.58241803 14.2977023,8.49250749 C14.3396605,8.40259695 14.3606394,8.30669382 14.3606394,8.2047952 C14.3606394,8.10289659 14.3366636,8.00399648 14.2887113,7.90809191 C14.2647351,7.8241754 14.2077927,7.74026016 14.1178821,7.65634366 C14.0279716,7.57242715 13.9410594,7.51248769 13.8571429,7.47652348 C13.7732264,7.44055926 13.6743262,7.42257742 13.5604396,7.42257742 C13.4465529,7.42257742 13.3476528,7.44055926 13.2637363,7.47652348 C13.1798198,7.51248769 13.0989015,7.56943018 13.020979,7.64735265 C12.9430566,7.72527511 12.8861141,7.81218733 12.8501499,7.90809191 Z" id="" fill="#2B2826"></path>
        </g>
        <g id="icons-/-Error_Mark" transform="translate(0.000000, 12.000000)">
            <circle id="Oval" fill="#FFFFFF" fill-rule="nonzero" cx="4" cy="4" r="4"></circle>
            <path d="M4.00666043,0.66666822 C4.60923891,0.667230482 5.16978374,0.820408594 5.68831169,1.12620713 C6.1900347,1.42368891 6.5896311,1.82328531 6.88711289,2.32500833 C7.19347473,2.84449144 7.34665335,3.4050364 7.34665335,4.00666001 C7.34665335,4.60828362 7.19347473,5.16882857 6.88711289,5.68831169 C6.5896311,6.1900347 6.1900347,6.5896311 5.68831169,6.88711289 C5.16882857,7.19347473 4.60828362,7.34665335 4.00666001,7.34665335 C3.4050364,7.34665335 2.84449144,7.19347473 2.32500833,6.88711289 C1.82328531,6.5896311 1.42368891,6.1900347 1.12620713,5.68831169 C0.819845288,5.16882857 0.666666667,4.60828362 0.666666667,4.00666001 C0.666666667,3.4050364 0.819845288,2.84449144 1.12620713,2.32500833 C1.42368891,1.82328531 1.82328531,1.42368891 2.32500833,1.12620713 C2.84353627,0.820408594 3.4040811,0.667230482 4.00665958,0.66666822 L4.00666043,0.66666822 Z M4.00666043,0.66666822 C4.00555043,0.666667185 4.00444029,0.666666667 4.00333,0.666666667 L4.00999001,0.666666667 C4.00887973,0.666666667 4.00776958,0.666667185 4.00665958,0.66666822 L4.00666043,0.66666822 Z M4.34299034,5.67499167 L4.34299034,5.00899101 L3.67032967,5.00899101 L3.67032967,5.67499167 L4.34299034,5.67499167 Z M4.34299034,4.34299034 L4.34299034,2.33832834 L3.67032967,2.33832834 L3.67032967,4.34299034 L4.34299034,4.34299034 Z" id="" fill="#F83200"></path>
        </g>
    </g>
</svg>