<?xml version="1.0" encoding="UTF-8"?>
<svg width="20px" height="20px" viewBox="0 0 20 20" version="1.1" xmlns="http://www.w3.org/2000/svg" xmlns:xlink="http://www.w3.org/1999/xlink">
    <!-- Generator: Sketch 51.3 (57544) - http://www.bohemiancoding.com/sketch -->
    <title>icons / classes/ BMC_Router_32_Error</title>
    <desc>Created with Sketch.</desc>
    <defs></defs>
    <g id="icons-/-classes/-BMC_Router_32" stroke="none" stroke-width="1" fill="none" fill-rule="evenodd">
        <g id="icons-/-classes/-Router">
            <g id="icons-/-20x20-icon-field" fill="#F5A623" fill-rule="nonzero" opacity="0">
                <rect x="0" y="0" width="20" height="20"></rect>
            </g>
            <path d="M18.1728272,5.7972028 L10.8181818,5.7972028 L10.8181818,9.86113886 L13.7312687,9.86113886 C13.9950063,9.86113886 14.2587399,9.88811162 14.5224775,9.94205794 C14.7862151,9.99600427 15.0469518,10.0769225 15.3046953,10.1848152 C15.5624389,10.2927078 15.8051937,10.4185807 16.032967,10.5624376 C16.2247762,10.6943064 16.4225764,10.8621368 16.6263736,11.0659341 C16.8181828,11.2457551 16.9860133,11.4495493 17.1298701,11.6773227 C17.273727,11.8811199 17.4055938,12.1148838 17.5254745,12.3786214 C17.6453552,12.6183828 17.7322675,12.8761225 17.7862138,13.1518482 C17.8401601,13.4275738 17.8671329,13.6973014 17.8671329,13.961039 L17.8671329,16.1908092 C18.0109897,16.2387615 18.1608384,16.3226767 18.3166833,16.4425574 C18.436564,16.5264739 18.550449,16.6493498 18.6583417,16.8111888 C18.7662343,16.9730278 18.8441556,17.1198795 18.8921079,17.2517483 C18.9520483,17.4195813 18.9880119,17.5934057 19,17.7732268 C19,17.7852148 19.0059939,17.8031967 19.017982,17.8271728 C19.017982,18.0909104 18.9700304,18.3306683 18.8741259,18.5464535 C18.7782213,18.7622388 18.6373636,18.963036 18.4515485,19.1488511 C18.2657333,19.3346663 18.0589422,19.472527 17.8311688,19.5624376 C17.6033955,19.6523481 17.3606406,19.6973027 17.1028971,19.6973027 C16.8451536,19.6973027 16.6083927,19.6493511 16.3926074,19.5534466 C16.1768221,19.457542 15.9790219,19.3196812 15.7992008,19.1398601 C15.6193797,18.9600391 15.4845159,18.7592419 15.3946054,18.5374625 C15.3046949,18.3156832 15.2597403,18.0789223 15.2597403,17.8271728 C15.2597403,17.6593398 15.283716,17.4915093 15.3316683,17.3236763 C15.3556445,17.1918075 15.412587,17.0449559 15.5024975,16.8831169 C15.592408,16.7212779 15.6943051,16.5894111 15.8081918,16.4875125 C15.9220785,16.3856139 16.0449544,16.2927077 16.1768232,16.2087912 L16.1768232,13.961039 C16.1768232,13.637361 16.1228777,13.3346667 16.014985,13.0529471 C15.9070924,12.7712274 15.7392619,12.5194816 15.5114885,12.2977023 C15.2837151,12.075923 15.0319694,11.9080925 14.7562438,11.7942058 C14.4805181,11.6803191 14.1688329,11.6233766 13.8211788,11.6233766 L10.9260739,11.6233766 L10.9260739,16.1368631 C11.0579427,16.1968035 11.1778216,16.2807187 11.2857143,16.3886114 C11.4295711,16.5324683 11.5374622,16.6583411 11.6093906,16.7662338 C11.681319,16.8981026 11.7412585,17.0539452 11.7892108,17.2337662 C11.825175,17.365635 11.8431568,17.5214776 11.8431568,17.7012987 C11.8431568,17.9650363 11.7982022,18.2077911 11.7082917,18.4295704 C11.6183812,18.6513498 11.4805204,18.8551439 11.2947053,19.040959 C11.1088902,19.2267742 10.905096,19.3646349 10.6833167,19.4545455 C10.4615374,19.544456 10.2247765,19.5894106 9.97302697,19.5894106 C9.72127746,19.5894106 9.48151962,19.541459 9.25374625,19.4455544 C9.02597289,19.3496499 8.82517569,19.2147861 8.65134865,19.040959 C8.47752161,18.867132 8.34265782,18.6663348 8.24675325,18.4385614 C8.15084867,18.2107881 8.1028971,17.9650363 8.1028971,17.7012987 C8.1028971,17.5574418 8.12087894,17.4075932 8.15684316,17.2517483 C8.19280737,17.0959033 8.25574381,16.9370637 8.34565435,16.7752248 C8.43556489,16.6133858 8.534465,16.484516 8.64235764,16.3886114 C8.77422643,16.2687307 8.90609325,16.1788215 9.03796204,16.1188811 L9.03796204,11.6233766 L6.14285714,11.6233766 C5.80719113,11.6233766 5.50149988,11.6803191 5.22577423,11.7942058 C4.95004857,11.9080925 4.69830284,12.075923 4.47052947,12.2977023 C4.2427561,12.5194816 4.07492561,12.7652334 3.96703297,13.034965 C3.85914032,13.3046967 3.80519481,13.6073909 3.80519481,13.9430569 L3.80519481,16.1908092 C3.96103974,16.2867138 4.08691261,16.3826169 4.18281718,16.4785215 C4.31468597,16.6223783 4.41058911,16.7542452 4.47052947,16.8741259 C4.56643405,17.0179827 4.63536443,17.1618374 4.67732268,17.3056943 C4.71928093,17.4495512 4.74025974,17.6173817 4.74025974,17.8091908 C4.74025974,18.0729284 4.69230817,18.3126862 4.5964036,18.5284715 C4.48851095,18.768233 4.34765322,18.9780211 4.17382617,19.1578422 C3.99999913,19.3376632 3.79620497,19.472527 3.56243756,19.5624376 C3.32867016,19.6523481 3.08591534,19.6973027 2.83416583,19.6973027 C2.58241632,19.6973027 2.34565545,19.6493511 2.12387612,19.5534466 C1.90209679,19.457542 1.7012996,19.3196812 1.52147852,19.1398601 C1.34165744,18.9600391 1.20679366,18.7622388 1.11688312,18.5464535 C1.02697258,18.3306683 0.982017982,18.0909104 0.982017982,17.8271728 C0.982017982,17.6713279 1.00299679,17.5154853 1.04495504,17.3596404 C1.0869133,17.2037954 1.14984973,17.0449559 1.23376623,16.8831169 C1.31768274,16.7212779 1.41658285,16.5894111 1.53046953,16.4875125 C1.64435621,16.3856139 1.76723211,16.2927077 1.8991009,16.2087912 L1.8991009,13.979021 C1.8991009,13.7032953 1.92607366,13.4275738 1.98001998,13.1518482 C2.0339663,12.8761225 2.11788155,12.6153858 2.23176823,12.3696304 C2.34565492,12.1238749 2.4805187,11.890111 2.63636364,11.6683317 C2.79220857,11.4465523 2.96303603,11.2457551 3.14885115,11.0659341 C3.33466626,10.886113 3.53246648,10.7242764 3.74225774,10.5804196 C3.952049,10.4365627 4.19480382,10.298702 4.47052947,10.1668332 C4.71029091,10.0589405 4.96203664,9.97502527 5.22577423,9.91508492 C5.48951181,9.85514456 5.76523333,9.82517483 6.05294705,9.82517483 L8.94805195,9.82517483 L8.94805195,5.7972028 L1.84515485,5.7972028 C1.72527413,5.7972028 1.6173831,5.77922096 1.52147852,5.74325674 C1.42557395,5.70729253 1.33266778,5.64735307 1.24275724,5.56343656 C1.1528467,5.47952006 1.0869133,5.38961087 1.04495504,5.29370629 C1.00299679,5.19780172 0.982017982,5.08391674 0.982017982,4.95204795 L0.982017982,2.52447552 C0.982017982,2.41658288 1.00299679,2.31168882 1.04495504,2.20979021 C1.0869133,2.1078916 1.14984973,2.01798241 1.23376623,1.94005994 C1.31768274,1.86213747 1.40459496,1.79920104 1.49450549,1.75124875 C1.58441603,1.70329646 1.70129798,1.67932068 1.84515485,1.67932068 L18.1728272,1.67932068 C18.2807198,1.67932068 18.3826169,1.70029949 18.4785215,1.74225774 C18.5744261,1.78421599 18.6643352,1.84715243 18.7482517,1.93106893 C18.8321683,2.01498543 18.8951047,2.10489463 18.9370629,2.2007992 C18.9790212,2.29670378 19,2.40459481 19,2.52447552 L19,4.95204795 C19,5.0599406 18.9820182,5.16483466 18.9460539,5.26673327 C18.9100897,5.36863188 18.8501503,5.46153804 18.7662338,5.54545455 C18.6823173,5.62937105 18.5894111,5.69230748 18.4875125,5.73426573 C18.3856139,5.77622399 18.2807198,5.7972028 18.1728272,5.7972028 Z M15.8351648,4.55644356 L17.3996004,4.55644356 L17.3996004,2.97402597 L15.8351648,2.97402597 L15.8351648,4.55644356 Z" id="" fill="#2B2826"></path>
        </g>
        <g id="icons-/-Error_Mark" transform="translate(0.000000, 12.000000)">
            <circle id="Oval" fill="#FFFFFF" fill-rule="nonzero" cx="4" cy="4" r="4"></circle>
            <path d="M4.00666043,0.66666822 C4.60923891,0.667230482 5.16978374,0.820408594 5.68831169,1.12620713 C6.1900347,1.42368891 6.5896311,1.82328531 6.88711289,2.32500833 C7.19347473,2.84449144 7.34665335,3.4050364 7.34665335,4.00666001 C7.34665335,4.60828362 7.19347473,5.16882857 6.88711289,5.68831169 C6.5896311,6.1900347 6.1900347,6.5896311 5.68831169,6.88711289 C5.16882857,7.19347473 4.60828362,7.34665335 4.00666001,7.34665335 C3.4050364,7.34665335 2.84449144,7.19347473 2.32500833,6.88711289 C1.82328531,6.5896311 1.42368891,6.1900347 1.12620713,5.68831169 C0.819845288,5.16882857 0.666666667,4.60828362 0.666666667,4.00666001 C0.666666667,3.4050364 0.819845288,2.84449144 1.12620713,2.32500833 C1.42368891,1.82328531 1.82328531,1.42368891 2.32500833,1.12620713 C2.84353627,0.820408594 3.4040811,0.667230482 4.00665958,0.66666822 L4.00666043,0.66666822 Z M4.00666043,0.66666822 C4.00555043,0.666667185 4.00444029,0.666666667 4.00333,0.666666667 L4.00999001,0.666666667 C4.00887973,0.666666667 4.00776958,0.666667185 4.00665958,0.66666822 L4.00666043,0.66666822 Z M4.34299034,5.67499167 L4.34299034,5.00899101 L3.67032967,5.00899101 L3.67032967,5.67499167 L4.34299034,5.67499167 Z M4.34299034,4.34299034 L4.34299034,2.33832834 L3.67032967,2.33832834 L3.67032967,4.34299034 L4.34299034,4.34299034 Z" id="" fill="#F83200"></path>
        </g>
    </g>
</svg>