<?xml version="1.0" encoding="UTF-8"?>
<svg width="20px" height="20px" viewBox="0 0 20 20" version="1.1" xmlns="http://www.w3.org/2000/svg" xmlns:xlink="http://www.w3.org/1999/xlink">
    <!-- Generator: Sketch 51.3 (57544) - http://www.bohemiancoding.com/sketch -->
    <title>icons / classes/ BMC_NTDomain_32_Error</title>
    <desc>Created with Sketch.</desc>
    <defs>
        <polygon id="path-1" points="0.000166666667 0 20 0 20 20 0.000166666667 20"></polygon>
    </defs>
    <g id="icons-/-classes/-BMC_NTDomain_32" stroke="none" stroke-width="1" fill="none" fill-rule="evenodd">
        <g id="icons-/-classes/-NT-Domain">
            <g id="icons-/-20x20-icon-field" fill="#F5A623" fill-rule="nonzero" opacity="0">
                <rect x="0" y="0" width="20" height="20"></rect>
            </g>
            <g id="Group-3">
                <mask id="mask-2" fill="white">
                    <use xlink:href="#path-1"></use>
                </mask>
                <g id="Clip-2"></g>
                <path d="M13.9501667,13.3333333 L17.9168333,13.3333333 L17.9168333,14.0333333 L16.3668333,14.0333333 L16.3668333,18.3333333 L15.5001667,18.3333333 L15.5001667,14.0333333 L13.9501667,14.0333333 L13.9501667,13.3333333 Z M12.3585,13.3333333 L13.1501667,13.3333333 L13.1501667,18.3333333 L12.0918333,18.3333333 L9.49183333,14.35 L9.46683333,14.35 L9.4835,14.575 C9.51683333,14.9916667 9.5335,15.3833333 9.5335,15.7333333 L9.5335,18.3333333 L8.75016667,18.3333333 L8.75016667,14.65 L8.75016667,13.3333333 L9.80016667,13.3333333 L9.9835,13.6166667 L12.3835,17.3 L12.4085,17.3 C12.4001667,17.2416667 12.3918333,17.05 12.3751667,16.725 C12.3668333,16.3916667 12.3585,16.1416667 12.3585,15.95 L12.3585,13.3333333 Z M19.1668333,19.1666667 L7.50016667,19.1666667 L7.50016667,15 L7.50016667,12.5 L16.5585,12.5 L19.1668333,12.5 L19.1668333,19.1666667 Z M15.0001667,3.33333333 C15.9168333,3.33333333 16.6668333,4.08333333 16.6668333,5 C16.6668333,5.91666667 15.9168333,6.66666667 15.0001667,6.66666667 C14.0835,6.66666667 13.3335,5.91666667 13.3335,5 C13.3335,4.08333333 14.0835,3.33333333 15.0001667,3.33333333 Z M19.5918333,8.95833333 C19.6668333,8.775 19.7251667,8.58333333 19.7751667,8.38333333 C19.9251667,7.83333333 20.0001667,7.25833333 20.0001667,6.66666667 L20.0001667,6.50833333 C19.9251667,3.39166667 17.7168333,0.808333333 14.7751667,0.158333333 C14.6501667,0.125 14.5168333,0.1 14.3835,0.0833333333 C14.2751667,0.0666666667 14.1668333,0.05 14.0585,0.0416666667 C13.9501667,0.0333333333 13.8335,0.025 13.7168333,0.0166666667 C13.5835,0.00833333333 13.4585,0 13.3335,0 C13.2168333,0 13.0993333,0 12.9918333,0.00833333333 C12.8001667,0.00833333333 12.6168333,0.025 12.4418333,0.0416666667 C12.1835,0.0666666667 11.9251667,0.116666667 11.6668333,0.208333333 C11.6251667,0.216666667 11.5835,0.233333333 11.5418333,0.241666667 C8.72433333,1.025 6.66683333,3.60833333 6.66683333,6.66666667 C6.66683333,7.51666667 6.82516667,8.33333333 7.12516667,9.08333333 L0.000166666667,16.1833333 L0.000166666667,20 L3.3335,20 L3.3335,17.5 L5.8335,17.5 L5.8335,15 L6.66683333,15 L6.66683333,20 L20.0001667,20 L20.0001667,11.6666667 L17.7418333,11.6666667 C18.2918333,11.1833333 18.7585,10.6 19.1251667,9.95 C19.3168333,9.63333333 19.4668333,9.30833333 19.5918333,8.95833333 Z" id="Fill-1" fill="#333333" mask="url(#mask-2)"></path>
            </g>
        </g>
        <g id="icons-/-Error_Mark" transform="translate(0.000000, 12.000000)">
            <circle id="Oval" fill="#FFFFFF" fill-rule="nonzero" cx="4" cy="4" r="4"></circle>
            <path d="M4.00666043,0.66666822 C4.60923891,0.667230482 5.16978374,0.820408594 5.68831169,1.12620713 C6.1900347,1.42368891 6.5896311,1.82328531 6.88711289,2.32500833 C7.19347473,2.84449144 7.34665335,3.4050364 7.34665335,4.00666001 C7.34665335,4.60828362 7.19347473,5.16882857 6.88711289,5.68831169 C6.5896311,6.1900347 6.1900347,6.5896311 5.68831169,6.88711289 C5.16882857,7.19347473 4.60828362,7.34665335 4.00666001,7.34665335 C3.4050364,7.34665335 2.84449144,7.19347473 2.32500833,6.88711289 C1.82328531,6.5896311 1.42368891,6.1900347 1.12620713,5.68831169 C0.819845288,5.16882857 0.666666667,4.60828362 0.666666667,4.00666001 C0.666666667,3.4050364 0.819845288,2.84449144 1.12620713,2.32500833 C1.42368891,1.82328531 1.82328531,1.42368891 2.32500833,1.12620713 C2.84353627,0.820408594 3.4040811,0.667230482 4.00665958,0.66666822 L4.00666043,0.66666822 Z M4.00666043,0.66666822 C4.00555043,0.666667185 4.00444029,0.666666667 4.00333,0.666666667 L4.00999001,0.666666667 C4.00887973,0.666666667 4.00776958,0.666667185 4.00665958,0.66666822 L4.00666043,0.66666822 Z M4.34299034,5.67499167 L4.34299034,5.00899101 L3.67032967,5.00899101 L3.67032967,5.67499167 L4.34299034,5.67499167 Z M4.34299034,4.34299034 L4.34299034,2.33832834 L3.67032967,2.33832834 L3.67032967,4.34299034 L4.34299034,4.34299034 Z" id="" fill="#F83200"></path>
        </g>
    </g>
</svg>