<?xml version="1.0" encoding="UTF-8"?>
<svg width="20px" height="20px" viewBox="0 0 20 20" version="1.1" xmlns="http://www.w3.org/2000/svg" xmlns:xlink="http://www.w3.org/1999/xlink">
    <!-- Generator: Sketch 51.3 (57544) - http://www.bohemiancoding.com/sketch -->
    <title>icons / classes/ BMC_AccessPoint_32</title>
    <desc>Created with Sketch.</desc>
    <defs>
        <path d="M0.769230769,6.95192308 C0.769230769,9.18269231 1.65384615,11.2980769 3.23076923,12.875 C3.57692308,13.2211538 4.07692308,13.2211538 4.42307692,12.875 C4.76923077,12.5288462 4.76923077,11.9903846 4.42307692,11.6442308 C3.19230769,10.4134615 2.5,8.72115385 2.5,6.95192308 C2.5,5.18269231 3.19230769,3.49038462 4.42307692,2.25961538 C4.76923077,1.91346154 4.76923077,1.375 4.42307692,1.02884615 C4.07692308,0.682692308 3.57692308,0.682692308 3.23076923,1.02884615 C1.65384615,2.60576923 0.769230769,4.72115385 0.769230769,6.95192308 Z M5.65384615,10.4134615 C4.73076923,9.49038462 4.23076923,8.25961538 4.23076923,6.95192308 C4.23076923,5.64423077 4.73076923,4.41346154 5.65384615,3.49038462 C6,3.14423077 6.53846154,3.14423077 6.88461538,3.49038462 C7.23076923,3.83653846 7.23076923,4.375 6.88461538,4.72115385 C6.26923077,5.33653846 5.96153846,6.10576923 5.96153846,6.95192308 C5.96153846,7.79807692 6.30769231,8.60576923 6.88461538,9.18269231 C7.23076923,9.52884615 7.23076923,10.0673077 6.88461538,10.4134615 C6.53846154,10.7596154 6,10.7596154 5.65384615,10.4134615 Z M16.7307692,1.02884615 C18.3076923,2.60576923 19.1923077,4.72115385 19.1923077,6.95192308 C19.1923077,9.18269231 18.3076923,11.2980769 16.7307692,12.875 C16.3846154,13.2211538 15.8461538,13.2211538 15.5,12.875 C15.1538462,12.5288462 15.1538462,11.9903846 15.5,11.6442308 C16.7692308,10.4134615 17.4615385,8.72115385 17.4615385,6.95192308 C17.4615385,5.18269231 16.7307692,3.49038462 15.5,2.25961538 C15.1538462,1.91346154 15.1538462,1.375 15.5,1.02884615 C15.8461538,0.682692308 16.3846154,0.682692308 16.7307692,1.02884615 Z M15.7307692,6.95192308 L15.6923077,6.95192308 C15.6923077,8.25961538 15.1923077,9.49038462 14.2692308,10.4134615 C13.9230769,10.7596154 13.4230769,10.7596154 13.0769231,10.4134615 C12.7307692,10.0673077 12.7307692,9.52884615 13.0769231,9.18269231 C13.6538462,8.60576923 14,7.79807692 14,6.95192308 C14,6.10576923 13.6538462,5.33653846 13.0769231,4.72115385 C12.7307692,4.375 12.7307692,3.83653846 13.0769231,3.49038462 C13.4230769,3.14423077 13.9230769,3.14423077 14.2692308,3.49038462 C15.1923077,4.41346154 15.6923077,5.64423077 15.7307692,6.95192308 Z M9.11538462,9.02884615 C8.26923077,8.68269231 7.73076923,7.875 7.73076923,6.91346154 C7.73076923,5.68269231 8.73076923,4.68269231 9.96153846,4.68269231 C11.1923077,4.68269231 12.2307692,5.68269231 12.2307692,6.91346154 C12.2307692,7.875 11.6538462,8.64423077 10.8461538,8.99038462 L10.8461538,10.0673077 L10.8461538,18.0673077 C10.8461538,18.2980769 10.6153846,18.5288462 10.3846154,18.4903846 L9.53846154,18.4903846 C9.30769231,18.4903846 9.11538462,18.2980769 9.11538462,18.0673077 L9.11538462,10.0288462 L9.11538462,9.02884615 Z" id="path-1"></path>
    </defs>
    <g id="icons-/-classes/-BMC_AccessPoint_32" stroke="none" stroke-width="1" fill="none" fill-rule="evenodd">
        <g id="icons-/-classes/-access-point">
            <g id="icons-/-20x20-icon-field" fill="#F5A623" fill-rule="nonzero" opacity="0">
                <rect x="0" y="0" width="20" height="20"></rect>
            </g>
            <mask id="mask-2" fill="white">
                <use xlink:href="#path-1"></use>
            </mask>
            <use id="Combined-Shape" fill="#333333" xlink:href="#path-1"></use>
            <path d="M18.5,12.5 C19.05,12.5 19.5,12.05 19.5,11.5 C19.5,10.95 19.05,10.5 18.5,10.5 C18.1,10.5 17.76,10.73 17.6,11.07 C17.54,11.2 17.5,11.35 17.5,11.5 C17.5,12.05 17.95,12.5 18.5,12.5 M17.54,17.97 C17.36,17.99 17.18,18 17,18 C16.66,18 16.32,17.97 16,17.9 C15.65,17.83 15.32,17.73 15,17.59 L13.5,19 L12,19 L12,20.5 L10.5,20.5 L10.5,21.95 L10.5,22 L8,22 L8,19.33 L12.39,14.96 L12.39,14.95 C12.26,14.65 12.17,14.33 12.1,14 C12.03,13.68 12,13.34 12,13 C12,12.66 12.03,12.32 12.1,12 C12.17,11.65 12.28,11.32 12.42,11 C12.77,10.2 13.32,9.51 14.01,9 C14.06,8.96 14.11,8.93 14.16,8.89 C14.71,8.51 15.33,8.24 16,8.1 C16.32,8.03 16.66,8 17,8 C18.13,8 19.17,8.37 20,9 C21.21,9.91 22,11.37 22,13 C22,13.9 21.76,14.74 21.35,15.47 C21.12,15.87 20.83,16.24 20.5,16.56 C19.72,17.34 18.68,17.85 17.54,17.97 M1.5,17.21 L1.5,12 C1.5,11.46 2.13,11 2.88,11 L9,11 L9,15.51 L10.14,14.38 C10.05,13.95 10,13.49 10,13 C10,12.5 10.05,12.02 10.14,11.6 C10.33,10.66 10.71,9.77 11.26,9 L11,9 L11,2.79 C11.88,2.4 12.5,1.52 12.5,0.5 C12.5,-0.88 11.38,-2 10,-2 C8.62,-2 7.5,-0.88 7.5,0.5 C7.5,1.52 8.12,2.4 9,2.79 L9,9 L2.88,9 C1.01,9 -0.5,10.35 -0.5,12 L-0.5,17.21 C-1.38,17.6 -2,18.48 -2,19.5 C-2,20.88 -0.88,22 0.5,22 C1.88,22 3,20.88 3,19.5 C3,18.48 2.38,17.6 1.5,17.21 M21.64,18.23 C21.87,18.6 22,19.04 22,19.5 C22,20.88 20.88,22 19.5,22 C18.29,22 17.28,21.14 17.05,20 C18.76,19.99 20.39,19.34 21.64,18.23" id="Fill-1" fill="#333333" mask="url(#mask-2)"></path>
        </g>
        <g id="icons-/-Error_Mark" transform="translate(0.000000, 12.000000)" opacity="0">
            <circle id="Oval" fill="#FFFFFF" fill-rule="nonzero" cx="4" cy="4" r="4"></circle>
            <path d="M4.00666043,0.66666822 C4.60923891,0.667230482 5.16978374,0.820408594 5.68831169,1.12620713 C6.1900347,1.42368891 6.5896311,1.82328531 6.88711289,2.32500833 C7.19347473,2.84449144 7.34665335,3.4050364 7.34665335,4.00666001 C7.34665335,4.60828362 7.19347473,5.16882857 6.88711289,5.68831169 C6.5896311,6.1900347 6.1900347,6.5896311 5.68831169,6.88711289 C5.16882857,7.19347473 4.60828362,7.34665335 4.00666001,7.34665335 C3.4050364,7.34665335 2.84449144,7.19347473 2.32500833,6.88711289 C1.82328531,6.5896311 1.42368891,6.1900347 1.12620713,5.68831169 C0.819845288,5.16882857 0.666666667,4.60828362 0.666666667,4.00666001 C0.666666667,3.4050364 0.819845288,2.84449144 1.12620713,2.32500833 C1.42368891,1.82328531 1.82328531,1.42368891 2.32500833,1.12620713 C2.84353627,0.820408594 3.4040811,0.667230482 4.00665958,0.66666822 L4.00666043,0.66666822 Z M4.00666043,0.66666822 C4.00555043,0.666667185 4.00444029,0.666666667 4.00333,0.666666667 L4.00999001,0.666666667 C4.00887973,0.666666667 4.00776958,0.666667185 4.00665958,0.66666822 L4.00666043,0.66666822 Z M4.34299034,5.67499167 L4.34299034,5.00899101 L3.67032967,5.00899101 L3.67032967,5.67499167 L4.34299034,5.67499167 Z M4.34299034,4.34299034 L4.34299034,2.33832834 L3.67032967,2.33832834 L3.67032967,4.34299034 L4.34299034,4.34299034 Z" id="" fill="#F83200"></path>
        </g>
    </g>
</svg>