<?xml version="1.0" encoding="UTF-8"?>
<svg width="20px" height="20px" viewBox="0 0 20 20" version="1.1" xmlns="http://www.w3.org/2000/svg" xmlns:xlink="http://www.w3.org/1999/xlink">
    <!-- Generator: Sketch 51.3 (57544) - http://www.bohemiancoding.com/sketch -->
    <title>icons / classes/ BMC_MFSecurityServer_32</title>
    <desc>Created with Sketch.</desc>
    <defs></defs>
    <g id="icons-/-classes/-BMC_MFSecurityServer_32" stroke="none" stroke-width="1" fill="none" fill-rule="evenodd">
        <g>
            <g id="icons-/-20x20-icon-field" fill="#F5A623" fill-rule="nonzero" opacity="0">
                <rect x="0" y="0" width="20" height="20"></rect>
            </g>
            <g id="Group-3" fill="#333333">
                <path d="M17.0003333,12.2249167 L12.9995,12.2249167 L12.9995,10.2749167 C12.9995,9.74241667 13.4495,9.30825 13.9995,9.30825 L16.0003333,9.30825 C16.5503333,9.30825 17.0003333,9.74241667 17.0003333,10.2749167 L17.0003333,12.2249167 Z M14.1245,17.6665833 L15.8745,17.6665833 L15.8745,14.7499167 L14.1245,14.7499167 L14.1245,17.6665833 Z M18.9995,12.2249167 L17.9995,12.2249167 L17.9995,10.2749167 C17.9995,9.19991667 17.1086667,8.33325 16.0003333,8.33325 L15.0003333,8.33325 L13.9995,8.33325 C12.8911667,8.33325 12.0003333,9.19991667 12.0003333,10.2749167 L12.0003333,12.2249167 L11.0003333,12.2249167 C10.4503333,12.2249167 10.0003333,12.6590833 10.0003333,13.1915833 L10.0003333,19.0249167 C10.0003333,19.5674167 10.4503333,19.9999167 11.0003333,19.9999167 L18.9995,19.9999167 C19.5503333,19.9999167 20.0003333,19.5674167 20.0003333,19.0249167 L20.0003333,13.1915833 C20.0003333,12.6590833 19.5503333,12.2249167 18.9995,12.2249167 Z M4.167,7.49991667 L10.8336667,7.49991667 L10.8336667,4.16658333 L4.167,4.16658333 L4.167,7.49991667 Z M10.3336667,10.6415833 L10.3336667,10.2749167 C10.3336667,8.28408333 11.9753333,6.66658333 13.9995,6.66658333 L15.0003333,6.66658333 L15.0003333,1.58325 C15.0003333,0.70825 14.2828333,-8.33333333e-05 13.392,-8.33333333e-05 L1.60783333,-8.33333333e-05 C0.717,-8.33333333e-05 0.000333333333,0.70825 0.000333333333,1.58325 L0.000333333333,18.4165833 C0.000333333333,19.2915833 0.717,19.9999167 1.60783333,19.9999167 L8.52533333,19.9999167 C8.40033333,19.6999167 8.33366667,19.3665833 8.33366667,19.0249167 L8.33366667,13.1915833 C8.33366667,11.9665833 9.18283333,10.93325 10.3336667,10.6415833 Z" id="Fill-1"></path>
            </g>
            <g id="icons-/-Error_Mark" transform="translate(0.000000, 12.000000)" opacity="0">
                <circle id="Oval" fill="#FFFFFF" fill-rule="nonzero" cx="4" cy="4" r="4"></circle>
                <path d="M4.00666043,0.66666822 C4.60923891,0.667230482 5.16978374,0.820408594 5.68831169,1.12620713 C6.1900347,1.42368891 6.5896311,1.82328531 6.88711289,2.32500833 C7.19347473,2.84449144 7.34665335,3.4050364 7.34665335,4.00666001 C7.34665335,4.60828362 7.19347473,5.16882857 6.88711289,5.68831169 C6.5896311,6.1900347 6.1900347,6.5896311 5.68831169,6.88711289 C5.16882857,7.19347473 4.60828362,7.34665335 4.00666001,7.34665335 C3.4050364,7.34665335 2.84449144,7.19347473 2.32500833,6.88711289 C1.82328531,6.5896311 1.42368891,6.1900347 1.12620713,5.68831169 C0.819845288,5.16882857 0.666666667,4.60828362 0.666666667,4.00666001 C0.666666667,3.4050364 0.819845288,2.84449144 1.12620713,2.32500833 C1.42368891,1.82328531 1.82328531,1.42368891 2.32500833,1.12620713 C2.84353627,0.820408594 3.4040811,0.667230482 4.00665958,0.66666822 L4.00666043,0.66666822 Z M4.00666043,0.66666822 C4.00555043,0.666667185 4.00444029,0.666666667 4.00333,0.666666667 L4.00999001,0.666666667 C4.00887973,0.666666667 4.00776958,0.666667185 4.00665958,0.66666822 L4.00666043,0.66666822 Z M4.34299034,5.67499167 L4.34299034,5.00899101 L3.67032967,5.00899101 L3.67032967,5.67499167 L4.34299034,5.67499167 Z M4.34299034,4.34299034 L4.34299034,2.33832834 L3.67032967,2.33832834 L3.67032967,4.34299034 L4.34299034,4.34299034 Z" id="" fill="#F83200"></path>
            </g>
        </g>
    </g>
</svg>