<?xml version="1.0" encoding="UTF-8"?>
<svg width="20px" height="20px" viewBox="0 0 20 20" version="1.1" xmlns="http://www.w3.org/2000/svg" xmlns:xlink="http://www.w3.org/1999/xlink">
    <!-- Generator: Sketch 51.3 (57544) - http://www.bohemiancoding.com/sketch -->
    <title>icons / classes/ BMC_VirtualSystemSettingsData_32</title>
    <desc>Created with Sketch.</desc>
    <defs>
        <polygon id="path-1" points="0 0.000333333333 19.9999167 0.000333333333 19.9999167 20 0 20"></polygon>
    </defs>
    <g id="icons-/-classes/-BMC_VirtualSystemSettingsData_32" stroke="none" stroke-width="1" fill="none" fill-rule="evenodd">
        <g id="icons-/-20x20-icon-field" transform="translate(0.000000, 0.002997)" fill="#F5A623" fill-rule="nonzero" opacity="0">
            <rect x="0" y="0" width="20" height="20"></rect>
        </g>
        <g id="Group-3">
            <mask id="mask-2" fill="white">
                <use xlink:href="#path-1"></use>
            </mask>
            <g id="Clip-2"></g>
            <path d="M19.08325,11.342 C18.8749167,11.5503333 18.60825,11.6745 18.33325,11.7078333 C18.25825,11.7253333 18.18325,11.7336667 18.10825,11.7336667 C17.73325,11.7336667 17.3415833,11.5836667 17.0415833,11.2911667 C16.4665833,10.7078333 16.4415833,9.7995 16.9915833,9.2495 L17.80825,8.43366667 C17.55825,8.367 17.2999167,8.33366667 17.0415833,8.33366667 C16.28325,8.33366667 15.5249167,8.6245 14.9499167,9.20033333 C14.18325,9.967 13.9415833,11.0578333 14.1999167,12.042 L8.66658333,17.5745 C8.45825,17.7828333 8.34991667,18.0503333 8.34158333,18.3336667 C8.30825,18.7336667 8.47491667,19.1745 8.81658333,19.517 C9.13325,19.8328333 9.54158333,20.0003333 9.92491667,20.0003333 C10.23325,20.0003333 10.53325,19.892 10.75825,19.6661667 L16.2915833,14.1336667 C16.5415833,14.2003333 16.7999167,14.2336667 17.05825,14.2336667 C17.8165833,14.2336667 18.5665833,13.9503333 19.13325,13.3745 C19.70825,12.8003333 19.9999167,12.0503333 19.9999167,11.2911667 C19.9999167,11.0336667 19.9665833,10.7745 19.8999167,10.5253333 L19.08325,11.342 Z M9.99991667,9.37533333 C10.3165833,9.37533333 10.60825,9.292 10.8749167,9.13366667 C11.1499167,8.9745 11.35825,8.76616667 11.5165833,8.50033333 C11.6665833,8.22533333 11.7499167,7.93283333 11.7499167,7.61616667 C11.7499167,7.2995 11.6665833,7.00866667 11.5165833,6.73366667 C11.35825,6.46616667 11.1499167,6.25783333 10.8749167,6.10033333 C10.60825,5.942 10.3165833,5.867 9.99991667,5.867 C9.67491667,5.867 9.38325,5.942 9.11658333,6.10033333 C8.84158333,6.25783333 8.63325,6.46616667 8.47491667,6.73366667 C8.32491667,7.00866667 8.24158333,7.2995 8.24158333,7.61616667 C8.24158333,7.93283333 8.32491667,8.22533333 8.47491667,8.50033333 C8.63325,8.76616667 8.84158333,8.9745 9.11658333,9.13366667 C9.38325,9.292 9.67491667,9.37533333 9.99991667,9.37533333 Z M9.30825,11.4503333 L9.30825,10.7586667 C9.30825,10.7078333 9.29158333,10.6503333 9.24991667,10.592 C9.20825,10.5328333 9.15825,10.4911667 9.09158333,10.4753333 L8.52491667,10.2495 C8.47491667,10.2161667 8.41658333,10.2086667 8.34991667,10.2245 C8.28325,10.2336667 8.22491667,10.2578333 8.17491667,10.2911667 L7.69991667,10.7745 C7.64991667,10.8253333 7.59991667,10.8411667 7.54158333,10.8411667 C7.47491667,10.8411667 7.42491667,10.8253333 7.39158333,10.7745 L6.71658333,10.1161667 C6.67491667,10.067 6.65825,10.0161667 6.65825,9.95866667 C6.65825,9.892 6.67491667,9.84116667 6.71658333,9.7995 L7.19991667,9.31616667 C7.24158333,9.27533333 7.26658333,9.21616667 7.27491667,9.15033333 C7.28325,9.08366667 7.27491667,9.02533333 7.24991667,8.96616667 L7.01658333,8.40033333 C6.99991667,8.34116667 6.95825,8.292 6.90825,8.25033333 C6.84991667,8.217 6.79158333,8.192 6.73325,8.192 L6.04991667,8.192 C5.99158333,8.192 5.93325,8.1745 5.89158333,8.13283333 C5.84991667,8.092 5.83325,8.03283333 5.83325,7.96616667 L5.83325,7.0245 C5.83325,6.95783333 5.84991667,6.90866667 5.89158333,6.867 C5.93325,6.82533333 5.99158333,6.80866667 6.04991667,6.80866667 L6.73325,6.80866667 C6.79158333,6.80866667 6.84991667,6.78283333 6.90825,6.74116667 C6.95825,6.70033333 6.99991667,6.65033333 7.01658333,6.592 L7.24991667,6.03366667 C7.27491667,5.97533333 7.28325,5.91616667 7.27491667,5.8495 C7.26658333,5.7745 7.24158333,5.72533333 7.19991667,5.68366667 L6.71658333,5.20033333 C6.67491667,5.15866667 6.65825,5.10866667 6.65825,5.04116667 C6.65825,4.98366667 6.67491667,4.93366667 6.71658333,4.88366667 L7.39158333,4.21616667 C7.43325,4.1745 7.48325,4.15866667 7.54991667,4.15866667 C7.60825,4.15866667 7.65825,4.1745 7.69991667,4.21616667 L8.17491667,4.6995 C8.22491667,4.742 8.28325,4.76616667 8.34991667,4.77533333 C8.41658333,4.792 8.47491667,4.78366667 8.52491667,4.75033333 L9.09158333,4.5245 C9.15825,4.50866667 9.19991667,4.467 9.24158333,4.41616667 C9.28325,4.35866667 9.29991667,4.30033333 9.29991667,4.24116667 L9.29991667,3.5495 C9.29991667,3.492 9.32491667,3.43366667 9.36658333,3.392 C9.40825,3.3495 9.46658333,3.33366667 9.52491667,3.33366667 L10.4749167,3.33366667 C10.53325,3.33366667 10.58325,3.3495 10.6249167,3.392 C10.6665833,3.43366667 10.6915833,3.492 10.6915833,3.5495 L10.6915833,4.23366667 C10.6915833,4.292 10.70825,4.3495 10.7499167,4.40866667 C10.7915833,4.45783333 10.8415833,4.50033333 10.90825,4.517 L11.4665833,4.742 C11.5165833,4.77533333 11.58325,4.78366667 11.6499167,4.77533333 C11.7165833,4.76616667 11.7749167,4.742 11.8165833,4.6995 L12.2915833,4.21616667 C12.3415833,4.167 12.3915833,4.15033333 12.4499167,4.15033333 C12.5165833,4.15033333 12.5665833,4.167 12.60825,4.21616667 L13.28325,4.88366667 C13.3249167,4.93366667 13.3415833,4.98366667 13.3415833,5.04116667 C13.3415833,5.10866667 13.3249167,5.15866667 13.28325,5.192 L12.7999167,5.6745 C12.75825,5.717 12.73325,5.7745 12.7165833,5.8495 C12.70825,5.91616667 12.7165833,5.97533333 12.7415833,6.02533333 L12.9749167,6.592 C12.9915833,6.65033333 13.03325,6.70033333 13.0915833,6.74116667 C13.1499167,6.78283333 13.20825,6.80866667 13.25825,6.80866667 L13.9415833,6.80866667 C13.9999167,6.80866667 14.05825,6.82533333 14.0999167,6.867 C14.1415833,6.90866667 14.1665833,6.95783333 14.1665833,7.0245 L14.1665833,7.67533333 C14.0249167,7.78283333 13.8999167,7.90033333 13.7749167,8.02533333 C13.7165833,8.07533333 13.6665833,8.13283333 13.6249167,8.192 L13.2665833,8.192 C13.2165833,8.192 13.15825,8.217 13.0999167,8.25866667 C13.0415833,8.30033333 12.9999167,8.3495 12.98325,8.40033333 L12.7499167,8.96616667 C12.7249167,9.02533333 12.7165833,9.08366667 12.7249167,9.15033333 C12.7415833,9.22533333 12.7665833,9.27533333 12.80825,9.31616667 L12.85825,9.367 C12.6415833,9.82533333 12.50825,10.3245 12.4665833,10.8411667 L12.45825,10.8411667 C12.3999167,10.8411667 12.3499167,10.8253333 12.2999167,10.7745 L11.8249167,10.2911667 C11.7749167,10.2578333 11.7249167,10.2336667 11.65825,10.2245 C11.5915833,10.2086667 11.5249167,10.2161667 11.4749167,10.2495 L10.90825,10.4753333 C10.8499167,10.4911667 10.7999167,10.5328333 10.75825,10.5836667 C10.7165833,10.6411667 10.6999167,10.6995 10.6999167,10.7586667 L10.6999167,11.4503333 C10.6999167,11.5078333 10.6749167,11.5586667 10.63325,11.6003333 C10.5915833,11.6411667 10.5415833,11.667 10.48325,11.667 L9.52491667,11.667 C9.46658333,11.667 9.41658333,11.6411667 9.37491667,11.6003333 C9.33325,11.5586667 9.30825,11.5078333 9.30825,11.4503333 Z M19.9999167,1.667 L19.9999167,7.292 L18.33325,6.8495 L18.33325,1.667 L1.66658333,1.667 L1.66658333,13.3336667 L10.55825,13.3336667 L8.89158333,15.0003333 L1.66658333,15.0003333 C0.749916667,15.0003333 -8.33333333e-05,14.2495 -8.33333333e-05,13.3336667 L-8.33333333e-05,1.667 C-8.33333333e-05,0.750333333 0.749916667,0.000333333333 1.66658333,0.000333333333 L18.33325,0.000333333333 C19.2499167,0.000333333333 19.9999167,0.750333333 19.9999167,1.667 Z" id="Fill-1" fill="#333333" mask="url(#mask-2)"></path>
        </g>
        <g id="icons-/-Error_Mark" transform="translate(0.000000, 12.002997)" opacity="0">
            <circle id="Oval" fill="#FFFFFF" fill-rule="nonzero" cx="4" cy="4" r="4"></circle>
            <path d="M4.00666043,0.66666822 C4.60923891,0.667230482 5.16978374,0.820408594 5.68831169,1.12620713 C6.1900347,1.42368891 6.5896311,1.82328531 6.88711289,2.32500833 C7.19347473,2.84449144 7.34665335,3.4050364 7.34665335,4.00666001 C7.34665335,4.60828362 7.19347473,5.16882857 6.88711289,5.68831169 C6.5896311,6.1900347 6.1900347,6.5896311 5.68831169,6.88711289 C5.16882857,7.19347473 4.60828362,7.34665335 4.00666001,7.34665335 C3.4050364,7.34665335 2.84449144,7.19347473 2.32500833,6.88711289 C1.82328531,6.5896311 1.42368891,6.1900347 1.12620713,5.68831169 C0.819845288,5.16882857 0.666666667,4.60828362 0.666666667,4.00666001 C0.666666667,3.4050364 0.819845288,2.84449144 1.12620713,2.32500833 C1.42368891,1.82328531 1.82328531,1.42368891 2.32500833,1.12620713 C2.84353627,0.820408594 3.4040811,0.667230482 4.00665958,0.66666822 L4.00666043,0.66666822 Z M4.00666043,0.66666822 C4.00555043,0.666667185 4.00444029,0.666666667 4.00333,0.666666667 L4.00999001,0.666666667 C4.00887973,0.666666667 4.00776958,0.666667185 4.00665958,0.66666822 L4.00666043,0.66666822 Z M4.34299034,5.67499167 L4.34299034,5.00899101 L3.67032967,5.00899101 L3.67032967,5.67499167 L4.34299034,5.67499167 Z M4.34299034,4.34299034 L4.34299034,2.33832834 L3.67032967,2.33832834 L3.67032967,4.34299034 L4.34299034,4.34299034 Z" id="" fill="#F83200"></path>
        </g>
    </g>
</svg>