<?xml version="1.0" encoding="UTF-8"?>
<svg width="20px" height="20px" viewBox="0 0 20 20" version="1.1" xmlns="http://www.w3.org/2000/svg" xmlns:xlink="http://www.w3.org/1999/xlink">
    <!-- Generator: Sketch 51.3 (57544) - http://www.bohemiancoding.com/sketch -->
    <title>icons / classes/ BMC_AccessServer_32</title>
    <desc>Created with Sketch.</desc>
    <defs></defs>
    <g id="icons-/-classes/-BMC_AccessServer_32" stroke="none" stroke-width="1" fill="none" fill-rule="evenodd">
        <g transform="translate(-1.000000, -1.000000)">
            <g id="icons-/-20x20-icon-field" transform="translate(1.000000, 1.000000)" fill="#F5A623" fill-rule="nonzero" opacity="0">
                <rect x="0" y="0" width="20" height="20"></rect>
            </g>
            <path d="M14.1868132,18.6793207 C14.3732943,18.6793207 14.5797524,18.6660008 14.8061938,18.6393606 C14.9926749,18.6127205 15.1991331,18.5727608 15.4255744,18.5194805 L15.7452547,18.8791209 L15.7452547,21.016983 L0.98001998,21.016983 L0.98001998,0.997002997 L15.7452547,0.997002997 L15.7452547,9.52847153 C15.5188134,9.44855105 15.2657357,9.38195165 14.986014,9.32867133 C14.7595726,9.27539101 14.493175,9.24875125 14.1868132,9.24875125 C13.5341293,9.24875125 12.9280747,9.37529011 12.3686314,9.62837163 C11.7692278,9.89477323 11.2697323,10.2344302 10.8701299,10.6473526 C10.4305672,11.1002354 10.0875803,11.6030608 9.84115884,12.1558442 C9.59473736,12.7086275 9.47152847,13.311352 9.47152847,13.964036 C9.47152847,14.6167199 9.6013973,15.2327643 9.86113886,15.8121878 C10.1208804,16.3916113 10.4572074,16.8877768 10.8701299,17.3006993 C11.2963724,17.7402619 11.7958679,18.0799189 12.3686314,18.3196803 C12.9413948,18.5594418 13.5474494,18.6793207 14.1868132,18.6793207 Z M5.21578422,5.19280719 L5.21578422,8.36963037 L11.5294705,8.36963037 L11.5294705,5.19280719 L5.21578422,5.19280719 Z M17.023976,15.1228771 L21.01998,19.0789211 L21.01998,21.016983 L19.0819181,21.016983 L19.0819181,19.8581419 L17.9430569,19.8581419 L17.9430569,18.7392607 L16.7842158,18.7392607 L15.0859141,17.040959 C14.7795522,17.1475197 14.4831849,17.2174491 14.1968032,17.2507493 C13.9104215,17.2840495 13.6107242,17.2773895 13.2977023,17.2307692 C12.9846804,17.184149 12.7082929,17.0942398 12.4685315,16.961039 C12.1888098,16.8145181 11.9623718,16.6413596 11.7892108,16.4415584 C11.5228092,16.1485167 11.326341,15.8121897 11.1998002,15.4325674 C11.0732594,15.0529452 11.00999,14.6400289 11.00999,14.1938062 C11.00999,13.7475835 11.0832494,13.3346672 11.2297702,12.955045 C11.3762911,12.5754227 11.5960691,12.2457556 11.8891109,11.966034 C12.2087928,11.6596721 12.5584397,11.4265742 12.9380619,11.2667333 C13.3176842,11.1068923 13.7239406,11.0169831 14.1568432,10.997003 C14.5897458,10.9770229 14.9926721,11.0336324 15.3656344,11.1668332 C15.7385966,11.300034 16.0782535,11.5264719 16.3846154,11.8461538 C16.5977367,12.045955 16.7742251,12.2790529 16.9140859,12.5454545 C17.0539468,12.8118561 17.1471859,13.0949036 17.1938062,13.3946054 C17.2404265,13.6943072 17.2504164,13.9773546 17.2237762,14.2437562 C17.1971361,14.5101578 17.1305367,14.8031952 17.023976,15.1228771 Z M14.3866134,13.9240759 C14.4398937,13.8041952 14.4665335,13.6776563 14.4665335,13.5444555 C14.4665335,13.4112547 14.4432237,13.2880459 14.3966034,13.1748252 C14.3499831,13.0616045 14.2800537,12.9583754 14.1868132,12.8651349 C14.0935726,12.7718943 13.9970035,12.698635 13.8971029,12.6453546 C13.7972023,12.5920743 13.6806533,12.5654346 13.5474525,12.5654346 C13.4142517,12.5654346 13.2877129,12.5854144 13.1678322,12.6253746 C13.0479514,12.6653349 12.9413924,12.7352642 12.8481518,12.8351648 C12.7549113,12.9350654 12.6849819,13.0416245 12.6383616,13.1548452 C12.5917414,13.2680658 12.5684316,13.3946047 12.5684316,13.5344655 C12.5684316,13.6743264 12.5884114,13.7975353 12.6283716,13.9040959 C12.6683319,14.0106565 12.7349313,14.1105556 12.8281718,14.2037962 C12.9214124,14.2970368 13.0213115,14.3669661 13.1278721,14.4135864 C13.2344328,14.4602067 13.3676316,14.4835165 13.5274725,14.4835165 C13.6473532,14.4835165 13.7605722,14.4635367 13.8671329,14.4235764 C13.9736935,14.3836162 14.0769226,14.3136868 14.1768232,14.2137862 C14.2767238,14.1138856 14.3466531,14.0173165 14.3866134,13.9240759 Z" id="" fill="#2B2826"></path>
            <g id="icons-/-Error_Mark" transform="translate(1.000000, 13.000000)" opacity="0">
                <circle id="Oval" fill="#FFFFFF" fill-rule="nonzero" cx="4" cy="4" r="4"></circle>
                <path d="M4.00666043,0.66666822 C4.60923891,0.667230482 5.16978374,0.820408594 5.68831169,1.12620713 C6.1900347,1.42368891 6.5896311,1.82328531 6.88711289,2.32500833 C7.19347473,2.84449144 7.34665335,3.4050364 7.34665335,4.00666001 C7.34665335,4.60828362 7.19347473,5.16882857 6.88711289,5.68831169 C6.5896311,6.1900347 6.1900347,6.5896311 5.68831169,6.88711289 C5.16882857,7.19347473 4.60828362,7.34665335 4.00666001,7.34665335 C3.4050364,7.34665335 2.84449144,7.19347473 2.32500833,6.88711289 C1.82328531,6.5896311 1.42368891,6.1900347 1.12620713,5.68831169 C0.819845288,5.16882857 0.666666667,4.60828362 0.666666667,4.00666001 C0.666666667,3.4050364 0.819845288,2.84449144 1.12620713,2.32500833 C1.42368891,1.82328531 1.82328531,1.42368891 2.32500833,1.12620713 C2.84353627,0.820408594 3.4040811,0.667230482 4.00665958,0.66666822 L4.00666043,0.66666822 Z M4.00666043,0.66666822 C4.00555043,0.666667185 4.00444029,0.666666667 4.00333,0.666666667 L4.00999001,0.666666667 C4.00887973,0.666666667 4.00776958,0.666667185 4.00665958,0.66666822 L4.00666043,0.66666822 Z M4.34299034,5.67499167 L4.34299034,5.00899101 L3.67032967,5.00899101 L3.67032967,5.67499167 L4.34299034,5.67499167 Z M4.34299034,4.34299034 L4.34299034,2.33832834 L3.67032967,2.33832834 L3.67032967,4.34299034 L4.34299034,4.34299034 Z" id="" fill="#F83200"></path>
            </g>
        </g>
    </g>
</svg>