<?xml version="1.0" encoding="UTF-8"?>
<svg width="20px" height="20px" viewBox="0 0 20 20" version="1.1" xmlns="http://www.w3.org/2000/svg" xmlns:xlink="http://www.w3.org/1999/xlink">
    <!-- Generator: Sketch 51.3 (57544) - http://www.bohemiancoding.com/sketch -->
    <title>icons / classes/ BMC_ResourceAllocationSettingsData_32_Error</title>
    <desc>Created with Sketch.</desc>
    <defs>
        <polygon id="path-1" points="0 0 20 0 20 19.9999167 0 19.9999167"></polygon>
    </defs>
    <g id="icons-/-classes/-BMC_ResourceAllocationSettingsData_32" stroke="none" stroke-width="1" fill="none" fill-rule="evenodd">
        <g>
            <g id="icons-/-20x20-icon-field" fill="#F5A623" fill-rule="nonzero" opacity="0">
                <rect x="0" y="0" width="20" height="20"></rect>
            </g>
            <g id="Group-3">
                <mask id="mask-2" fill="white">
                    <use xlink:href="#path-1"></use>
                </mask>
                <g id="Clip-2"></g>
                <path d="M14.1666667,16.7915833 C14.2583333,16.7915833 14.35,16.78325 14.4333333,16.7749167 C14.775,16.7415833 15.0916667,16.63325 15.3916667,16.45825 C15.775,16.23325 16.0666667,15.9415833 16.2833333,15.55825 C16.5,15.18325 16.6083333,14.7749167 16.6083333,14.33325 C16.6083333,14.2665833 16.6083333,14.1915833 16.6,14.1249167 C16.575,14.0749167 16.5583333,14.0249167 16.55,13.9665833 C16.5333333,13.8915833 16.5333333,13.8249167 16.5416667,13.75825 C16.4916667,13.5249167 16.4,13.30825 16.2833333,13.0999167 C16.2416667,13.0249167 16.2,12.95825 16.15,12.8915833 C15.95,12.60825 15.7,12.38325 15.3916667,12.20825 C15.0166667,11.9915833 14.6083333,11.88325 14.1583333,11.88325 C14.0666667,11.88325 13.9666667,11.8915833 13.875,11.8999167 C13.775,11.9165833 13.675,11.93325 13.575,11.95825 C13.5166667,11.9665833 13.4583333,11.9749167 13.4083333,11.9999167 C13.2416667,12.0499167 13.075,12.1165833 12.925,12.20825 C12.55,12.4249167 12.25,12.7165833 12.0333333,13.0999167 C11.85,13.4165833 11.7416667,13.75825 11.7166667,14.1249167 C11.7083333,14.1915833 11.7083333,14.2665833 11.7083333,14.33325 C11.7083333,14.7749167 11.8166667,15.18325 12.0333333,15.55825 C12.25,15.9415833 12.55,16.23325 12.925,16.45825 C13.0583333,16.53325 13.2,16.5999167 13.35,16.6499167 C13.3583333,16.6499167 13.3666667,16.65825 13.375,16.65825 C13.625,16.7415833 13.8916667,16.7915833 14.1666667,16.7915833 M20,13.4999167 L20,14.1665833 L20,14.8249167 C20,14.8915833 19.975,14.95825 19.9333333,15.00825 C19.925,15.0249167 19.9166667,15.03325 19.9083333,15.0415833 C19.8416667,15.10825 19.775,15.1415833 19.6833333,15.1415833 L18.7416667,15.1415833 C18.6666667,15.1415833 18.5833333,15.1665833 18.5083333,15.2249167 C18.425,15.28325 18.3666667,15.3499167 18.35,15.4249167 L18.0166667,16.2165833 C17.9833333,16.2999167 17.9666667,16.38325 17.9833333,16.48325 C18,16.5749167 18.0416667,16.6499167 18.1,16.70825 L18.775,17.38325 C18.8333333,17.4415833 18.8583333,17.5165833 18.8583333,17.5999167 L18.8583333,17.6249167 C18.85,17.70825 18.825,17.7749167 18.775,17.8249167 L17.8333333,18.75825 C17.7833333,18.80825 17.7166667,18.8415833 17.6416667,18.8415833 C17.6333333,18.8499167 17.625,18.8499167 17.6166667,18.8499167 C17.525,18.8499167 17.4583333,18.8165833 17.3916667,18.75825 L16.7166667,18.08325 C16.6583333,18.0249167 16.575,17.9915833 16.4833333,17.9749167 C16.4583333,17.9749167 16.4333333,17.9665833 16.4083333,17.9665833 C16.3416667,17.9665833 16.2833333,17.98325 16.225,18.00825 L15.4333333,18.33325 C15.3583333,18.35825 15.2916667,18.40825 15.2333333,18.4915833 C15.175,18.5665833 15.1416667,18.6499167 15.1416667,18.73325 L15.1416667,19.6999167 C15.1416667,19.7749167 15.1166667,19.8415833 15.0583333,19.90825 C15.05,19.9165833 15.0416667,19.9249167 15.025,19.9249167 C14.975,19.9749167 14.9083333,19.9999167 14.8416667,19.9999167 L14.1666667,19.9999167 L13.5,19.9999167 C13.4333333,19.9999167 13.3666667,19.9749167 13.325,19.93325 C13.3083333,19.9249167 13.3,19.9165833 13.2916667,19.90825 C13.2333333,19.8415833 13.2,19.7749167 13.2,19.6999167 L13.2,18.73325 C13.2,18.65825 13.175,18.5749167 13.1166667,18.4915833 C13.0583333,18.40825 12.9833333,18.35825 12.9,18.33325 L12.1083333,18.00825 C12.0583333,17.98325 12,17.9665833 11.9333333,17.9665833 C11.9083333,17.9665833 11.8833333,17.9749167 11.8583333,17.9749167 C11.7916667,17.98325 11.725,18.00825 11.675,18.0499167 C11.65,18.0499167 11.6333333,18.0665833 11.6166667,18.08325 L10.9416667,18.75825 C10.8833333,18.8165833 10.8083333,18.8499167 10.7166667,18.8499167 C10.7083333,18.8499167 10.7,18.8499167 10.6916667,18.8415833 C10.6166667,18.8415833 10.5583333,18.80825 10.5083333,18.75825 L10.0416667,18.2915833 L9.925,18.18325 L9.56666667,17.8249167 C9.525,17.7749167 9.49166667,17.7165833 9.49166667,17.6415833 C9.48333333,17.63325 9.48333333,17.6165833 9.48333333,17.5999167 C9.48333333,17.5165833 9.51666667,17.4415833 9.56666667,17.38325 L10.2416667,16.70825 C10.3083333,16.6499167 10.3416667,16.5665833 10.35,16.4749167 C10.3666667,16.38325 10.35,16.2999167 10.3166667,16.2165833 L9.98333333,15.4249167 C9.96666667,15.3415833 9.91666667,15.2749167 9.83333333,15.2165833 C9.75833333,15.1665833 9.675,15.1415833 9.59166667,15.1415833 L8.63333333,15.1415833 C8.55,15.1415833 8.475,15.10825 8.41666667,15.0499167 C8.40833333,15.0415833 8.40833333,15.0415833 8.40833333,15.03325 C8.35833333,14.9749167 8.33333333,14.90825 8.33333333,14.8249167 L8.33333333,14.1665833 L8.33333333,14.15825 L8.33333333,13.4999167 C8.33333333,13.43325 8.35,13.38325 8.38333333,13.33325 C8.39166667,13.3249167 8.39166667,13.30825 8.40833333,13.2999167 C8.40833333,13.2915833 8.40833333,13.2915833 8.41666667,13.28325 C8.475,13.2249167 8.55,13.1915833 8.63333333,13.1915833 L9.59166667,13.1915833 C9.675,13.1915833 9.75833333,13.1665833 9.83333333,13.10825 C9.9,13.05825 9.95,12.9999167 9.96666667,12.93325 C9.975,12.9249167 9.98333333,12.90825 9.98333333,12.8915833 L10.3166667,12.1165833 C10.35,12.03325 10.3666667,11.9499167 10.35,11.8499167 C10.3416667,11.75825 10.3083333,11.68325 10.2416667,11.6249167 L9.56666667,10.9499167 C9.51666667,10.8915833 9.48333333,10.8165833 9.48333333,10.73325 C9.48333333,10.7165833 9.48333333,10.6999167 9.49166667,10.6915833 C9.49166667,10.6165833 9.525,10.55825 9.56666667,10.50825 L10.0416667,10.0415833 L10.5083333,9.56658333 C10.5666667,9.51658333 10.625,9.49158333 10.6916667,9.49158333 C10.7,9.48325 10.7166667,9.48325 10.7333333,9.48325 C10.8166667,9.48325 10.8833333,9.50825 10.9416667,9.56658333 L11.6166667,10.2415833 C11.675,10.2999167 11.7583333,10.3415833 11.8583333,10.35825 C11.8833333,10.35825 11.9083333,10.3665833 11.9333333,10.3665833 C12,10.3665833 12.0583333,10.3499167 12.1083333,10.3249167 L12.9,9.99991667 C12.9833333,9.97491667 13.05,9.92491667 13.1083333,9.84158333 C13.1583333,9.76658333 13.1916667,9.68325 13.1916667,9.59991667 L13.1916667,8.63325 C13.1916667,8.59158333 13.2,8.54158333 13.225,8.50825 C13.2333333,8.47491667 13.25,8.44158333 13.2833333,8.41658333 C13.2916667,8.40825 13.2916667,8.40825 13.3,8.40825 C13.3583333,8.35825 13.425,8.33325 13.5,8.33325 L13.725,8.33325 L14.1666667,8.33325 L14.8416667,8.33325 C14.9166667,8.33325 14.975,8.35825 15.0333333,8.40825 C15.0416667,8.40825 15.0416667,8.40825 15.05,8.41658333 C15.1,8.47491667 15.1333333,8.54991667 15.1333333,8.63325 L15.1333333,9.59158333 C15.1333333,9.67491667 15.1583333,9.75825 15.2166667,9.83325 C15.275,9.90825 15.35,9.95825 15.4333333,9.98325 L15.8333333,10.1499167 L16.2166667,10.30825 C16.275,10.3415833 16.3416667,10.35825 16.4083333,10.35825 C16.4333333,10.35825 16.4583333,10.35825 16.475,10.3499167 C16.55,10.3415833 16.6083333,10.3165833 16.6583333,10.2749167 L16.6666667,10.2749167 C16.6833333,10.2665833 16.7,10.2499167 16.7083333,10.2415833 L17.3833333,9.56658333 C17.4416667,9.50825 17.5166667,9.47491667 17.6,9.47491667 C17.6083333,9.47491667 17.625,9.47491667 17.6333333,9.48325 C17.7083333,9.48325 17.7666667,9.51658333 17.825,9.56658333 L18.2916667,10.0415833 L18.7666667,10.50825 C18.8083333,10.55825 18.8416667,10.6165833 18.8416667,10.6915833 C18.85,10.6999167 18.85,10.7165833 18.85,10.73325 C18.85,10.8165833 18.8166667,10.88325 18.7666667,10.9415833 L18.3333333,11.3749167 L18.0916667,11.6165833 C18.075,11.63325 18.0583333,11.6499167 18.0583333,11.6665833 C18.0083333,11.7165833 17.9833333,11.78325 17.975,11.8499167 C17.9583333,11.9499167 17.9666667,12.03325 18.0083333,12.0999167 L18.3333333,12.8915833 C18.3583333,12.9749167 18.4083333,13.0499167 18.4916667,13.10825 C18.575,13.1665833 18.65,13.1915833 18.7333333,13.1915833 L19.6833333,13.1915833 C19.775,13.1915833 19.8416667,13.2249167 19.9083333,13.28325 C19.9166667,13.2915833 19.925,13.2999167 19.9333333,13.3165833 C19.975,13.3665833 20,13.43325 20,13.4999167 M6.35,8.16658333 C5.975,8.80825 5.79166667,9.51658333 5.79166667,10.28325 C5.79166667,11.0415833 5.975,11.7499167 6.35,12.3915833 C6.46666667,12.5999167 6.6,12.7915833 6.75833333,12.9749167 C6.7,13.3665833 6.66666667,13.75825 6.66666667,14.1665833 C6.66666667,15.1249167 6.85,16.0415833 7.18333333,16.88325 L6.46666667,16.5915833 C6.35,16.5249167 6.2,16.4999167 6.04166667,16.53325 C5.875,16.55825 5.73333333,16.6165833 5.63333333,16.70825 L4.475,17.8665833 C4.36666667,17.9749167 4.24166667,18.0249167 4.09166667,18.0249167 C3.94166667,18.0249167 3.825,17.9749167 3.73333333,17.8665833 L2.11666667,16.2749167 C2.025,16.1665833 1.975,16.0415833 1.975,15.8915833 C1.975,15.7499167 2.025,15.6165833 2.11666667,15.5165833 L3.275,14.35825 C3.38333333,14.2499167 3.44166667,14.1165833 3.46666667,13.95825 C3.48333333,13.7999167 3.45833333,13.6499167 3.39166667,13.5165833 L2.83333333,12.1665833 C2.79166667,12.0165833 2.70833333,11.8999167 2.575,11.80825 C2.44166667,11.70825 2.3,11.6665833 2.15833333,11.6665833 L0.516666667,11.6665833 C0.375,11.6665833 0.25,11.6165833 0.15,11.5165833 C0.05,11.4165833 0,11.28325 0,11.1249167 L0,8.84991667 C0,8.70825 0.05,8.58325 0.15,8.48325 C0.25,8.38325 0.375,8.33325 0.516666667,8.33325 L2.15833333,8.33325 C2.3,8.33325 2.44166667,8.28325 2.575,8.18325 C2.70833333,8.08325 2.79166667,7.96658333 2.83333333,7.81658333 L3.39166667,6.48325 C3.45833333,6.34991667 3.48333333,6.19991667 3.46666667,6.03325 C3.44166667,5.86658333 3.38333333,5.73325 3.275,5.64158333 L2.11666667,4.48325 C2.025,4.38325 1.975,4.24991667 1.975,4.10825 C1.975,3.95825 2.025,3.83325 2.11666667,3.72491667 L3.73333333,2.11658333 C3.84166667,2.02491667 3.96666667,1.97491667 4.11666667,1.97491667 C4.25833333,1.97491667 4.375,2.02491667 4.475,2.11658333 L5.63333333,3.26658333 C5.73333333,3.37491667 5.875,3.44158333 6.04166667,3.46658333 C6.2,3.49991667 6.35,3.47491667 6.46666667,3.40825 L7.825,2.84991667 C7.975,2.80825 8.09166667,2.72491667 8.18333333,2.59158333 C8.275,2.45825 8.325,2.31658333 8.325,2.17491667 L8.325,0.516583333 C8.325,0.374916667 8.375,0.249916667 8.48333333,0.149916667 C8.59166667,0.0499166667 8.71666667,-8.33333333e-05 8.85833333,-8.33333333e-05 L11.1416667,-8.33333333e-05 C11.2833333,-8.33333333e-05 11.4083333,0.0499166667 11.5083333,0.149916667 C11.6083333,0.249916667 11.6583333,0.374916667 11.6583333,0.516583333 L11.6583333,2.14991667 C11.6583333,2.29991667 11.7083333,2.44158333 11.8083333,2.57491667 C11.9083333,2.70825 12.0333333,2.79158333 12.175,2.83325 L13.5083333,3.39158333 C13.6416667,3.45825 13.7916667,3.48325 13.9666667,3.45825 C14.125,3.44158333 14.2583333,3.37491667 14.35,3.26658333 L15.5083333,2.11658333 C15.6166667,2.00825 15.7416667,1.94991667 15.8916667,1.94991667 C16.0333333,1.94991667 16.1583333,2.00825 16.2666667,2.11658333 L17.8833333,3.72491667 C17.975,3.83325 18.025,3.95825 18.025,4.10825 C18.025,4.24991667 17.975,4.37491667 17.8833333,4.46658333 L16.725,5.62491667 C16.6166667,5.73325 16.55,5.86658333 16.525,6.03325 C16.5,6.19991667 16.5166667,6.34158333 16.5833333,6.45825 L16.8833333,7.18325 C16.0416667,6.84991667 15.125,6.66658333 14.1666667,6.66658333 C13.575,6.66658333 13,6.73325 12.45,6.86658333 C12.3416667,6.78325 12.225,6.70825 12.1083333,6.64158333 C11.4583333,6.26658333 10.7583333,6.08325 9.99166667,6.08325 C9.225,6.08325 8.51666667,6.26658333 7.875,6.64158333 C7.225,7.00825 6.71666667,7.52491667 6.35,8.16658333" id="Fill-1" fill="#333333" mask="url(#mask-2)"></path>
            </g>
            <g id="icons-/-Error_Mark" transform="translate(0.000000, 11.200000)">
                <circle id="Oval" fill="#FFFFFF" fill-rule="nonzero" cx="4.4" cy="4.4" r="4.4"></circle>
                <path d="M4.40732647,0.733335042 C5.0701628,0.73395353 5.68676212,0.902449454 6.25714286,1.23882784 C6.80903817,1.5660578 7.24859421,2.00561385 7.57582418,2.55750916 C7.9128222,3.12894059 8.08131868,3.74554004 8.08131868,4.40732601 C8.08131868,5.06911198 7.9128222,5.68571143 7.57582418,6.25714286 C7.24859421,6.80903817 6.80903817,7.24859421 6.25714286,7.57582418 C5.68571143,7.9128222 5.06911198,8.08131868 4.40732601,8.08131868 C3.74554004,8.08131868 3.12894059,7.9128222 2.55750916,7.57582418 C2.00561385,7.24859421 1.5660578,6.80903817 1.23882784,6.25714286 C0.901829817,5.68571143 0.733333333,5.06911198 0.733333333,4.40732601 C0.733333333,3.74554004 0.901829817,3.12894059 1.23882784,2.55750916 C1.5660578,2.00561385 2.00561385,1.5660578 2.55750916,1.23882784 C3.1278899,0.902449454 3.74448922,0.73395353 4.40732554,0.733335042 L4.40732647,0.733335042 Z M4.40732647,0.733335042 C4.40610547,0.733333903 4.40488432,0.733333333 4.403663,0.733333333 L4.41098901,0.733333333 C4.4097677,0.733333333 4.40854654,0.733333903 4.40732554,0.733335042 L4.40732647,0.733335042 Z M4.77728938,6.24249084 L4.77728938,5.50989011 L4.03736264,5.50989011 L4.03736264,6.24249084 L4.77728938,6.24249084 Z M4.77728938,4.77728938 L4.77728938,2.57216117 L4.03736264,2.57216117 L4.03736264,4.77728938 L4.77728938,4.77728938 Z" id="" fill="#F83200"></path>
            </g>
        </g>
    </g>
</svg>