<?xml version="1.0" encoding="UTF-8"?>
<svg width="20px" height="20px" viewBox="0 0 20 20" version="1.1" xmlns="http://www.w3.org/2000/svg" xmlns:xlink="http://www.w3.org/1999/xlink">
    <!-- Generator: Sketch 51.3 (57544) - http://www.bohemiancoding.com/sketch -->
    <title>icons / classes/ BMC_IPConnectivitySubnet_32_Error</title>
    <desc>Created with Sketch.</desc>
    <defs></defs>
    <g id="icons-/-classes/-BMC_IPConnectivitySubnet_32" stroke="none" stroke-width="1" fill="none" fill-rule="evenodd">
        <g id="icons-/-classes/-IP-Connectivity-Subnet">
            <g id="icons-/-20x20-icon-field" fill="#F5A623" fill-rule="nonzero" opacity="0">
                <rect x="0" y="0" width="20" height="20"></rect>
            </g>
            <path d="M1.5034965,0.679320679 L2.996004,0.679320679 L2.996004,2.17182817 L2.49250749,2.17182817 L2.49250749,2.42357642 L0.982017982,2.42357642 L0.982017982,0.931068931 L1.5034965,0.931068931 L1.5034965,0.679320679 Z M0.982017982,3.17882118 L2.49250749,3.17882118 L2.49250749,4.67132867 L0.982017982,4.67132867 L0.982017982,3.17882118 Z M0.982017982,5.44455544 L2.49250749,5.44455544 L2.49250749,6.93706294 L0.982017982,6.93706294 L0.982017982,5.44455544 Z M2.49250749,7.69230769 L2.49250749,9.18481518 L0.982017982,9.18481518 L0.982017982,7.69230769 L2.49250749,7.69230769 Z M0.982017982,9.94005994 L2.49250749,9.94005994 L2.49250749,11.4325674 L0.982017982,11.4325674 L0.982017982,9.94005994 Z M0.982017982,12.1878122 L2.49250749,12.1878122 L2.49250749,13.6803197 L0.982017982,13.6803197 L0.982017982,12.1878122 Z M0.982017982,14.4535465 L2.49250749,14.4535465 L2.49250749,15.9460539 L0.982017982,15.9460539 L0.982017982,14.4535465 Z M2.49250749,17.1868132 L2.72627373,17.1868132 L2.72627373,18.6973027 L1.23376623,18.6973027 L1.23376623,18.1938062 L0.982017982,18.1938062 L0.982017982,16.7012987 L2.49250749,16.7012987 L2.49250749,17.1868132 Z M3.4995005,17.1868132 L4.99200799,17.1868132 L4.99200799,18.6973027 L3.4995005,18.6973027 L3.4995005,17.1868132 Z M4.52447552,12.6013986 C4.68032046,12.6013986 4.82117819,12.6283714 4.94705295,12.6823177 C5.0729277,12.736264 5.1838157,12.8111883 5.27972028,12.9070929 C5.37562486,13.0029975 5.45054918,13.1138855 5.5044955,13.2397602 C5.55844183,13.365635 5.58541459,13.4975018 5.58541459,13.6353646 C5.58541459,13.7732275 5.55844183,13.9050943 5.5044955,14.030969 C5.45054918,14.1568438 5.37262788,14.2737257 5.27072927,14.3816184 C5.16883066,14.489511 5.05494568,14.5704293 4.92907093,14.6243756 C4.80319617,14.6783219 4.67132936,14.7052947 4.53346653,14.7052947 C4.39560371,14.7052947 4.26373689,14.6783219 4.13786214,14.6243756 C4.01198738,14.5704293 3.89810241,14.489511 3.7962038,14.3816184 C3.69430518,14.2737257 3.62237783,14.1568438 3.58041958,14.030969 C3.53846133,13.9050943 3.51748252,13.7732275 3.51748252,13.6353646 C3.51748252,13.4975018 3.53846133,13.365635 3.58041958,13.2397602 C3.62237783,13.1138855 3.69430518,13.0029975 3.7962038,12.9070929 C3.89810241,12.8111883 4.01198738,12.736264 4.13786214,12.6823177 C4.26373689,12.6283714 4.39260673,12.6013986 4.52447552,12.6013986 Z M3.75124875,0.679320679 L5.24375624,0.679320679 L5.24375624,2.17182817 L3.75124875,2.17182817 L3.75124875,0.679320679 Z M6.25074925,11.8281718 L5.62137862,12.6373626 L5.22577423,12.3136863 L5.87312687,11.5044955 L6.25074925,11.8281718 Z M7.23976024,17.1868132 L7.23976024,18.6973027 L5.74725275,18.6973027 L5.74725275,17.1868132 L7.23976024,17.1868132 Z M5.999001,0.679320679 L7.49150849,0.679320679 L7.49150849,2.17182817 L5.999001,2.17182817 L5.999001,0.679320679 Z M7.13186813,9.9040959 L7.54545455,10.2277722 L6.88011988,11.036963 L6.5024975,10.6953047 L7.13186813,9.9040959 Z M8.1028971,9.52647353 L7.68931069,9.18481518 L8.31868132,8.39360639 L8.73226773,8.73526474 L8.1028971,9.52647353 Z M7.995005,17.1868132 L9.07392607,17.1868132 C9.13386643,17.2707297 9.19979984,17.3546449 9.27172827,17.4385614 L9.48751249,17.6903097 L9.48751249,18.6973027 L7.995005,18.6973027 L7.995005,17.1868132 Z M8.26473526,0.679320679 L9.75724276,0.679320679 L9.75724276,2.17182817 L8.26473526,2.17182817 L8.26473526,0.679320679 Z M8.4985015,13.6263736 C8.64235836,13.7822186 8.78921004,13.9320672 8.93906094,14.0759241 C9.08891184,14.2197809 9.25374535,14.3636356 9.43356643,14.5074925 L9.41558442,14.6153846 C9.33166791,14.8911103 9.2777224,15.0949044 9.25374625,15.2267732 C9.19380589,15.4665347 9.15184827,15.7062925 9.12787213,15.9460539 C8.93606298,15.5983999 8.78621433,15.2237782 8.67832168,14.8221778 C8.57042903,14.4205774 8.51048957,14.02198 8.4985015,13.6263736 Z M8.55244755,12.7092907 C8.5764237,12.5294696 8.61238737,12.3406603 8.66033966,12.1428571 C8.70829195,11.945054 8.76223746,11.7622386 8.82217782,11.5944056 C8.84615397,11.8581432 8.88211764,12.1578405 8.93006993,12.4935065 C8.96603415,12.7692321 9.03196755,13.0629355 9.12787213,13.3746254 L8.84015984,13.0509491 C8.79220755,13.0149848 8.73226809,12.9430575 8.66033966,12.8351648 L8.55244755,12.7092907 Z M9.36163836,7.90809191 L8.96603397,7.6023976 L9.61338661,6.79320679 L10.008991,7.0989011 L9.36163836,7.90809191 Z M9.48751249,10.3536464 L9.48751249,10.4615385 L9.36163836,10.5334665 L9.48751249,10.3536464 Z M9.84715285,13.5364635 C9.72727213,13.1768214 9.62537504,12.7872149 9.54145854,12.3676324 C9.46953011,12.0079902 9.43356643,11.6123898 9.43356643,11.1808192 L9.46953047,10.4615385 C9.99700563,10.1858128 10.5544426,9.97902167 11.1418581,9.84115884 C11.7292737,9.70329601 12.3286683,9.63436563 12.9400599,9.63436563 L13.2457542,9.63436563 C13.3176827,9.63436563 13.4195798,9.64035958 13.5514486,9.65234765 C12.7122835,10.0959063 11.9780251,10.6413554 11.3486513,11.2887113 C10.7192776,11.9360672 10.2187831,12.6853104 9.84715285,13.5364635 Z M9.46953047,14.4535465 L9.46953047,14.4175824 C9.46953047,14.4055943 9.47552442,14.3996004 9.48751249,14.3996004 L9.5954046,14.6333666 L9.52347652,14.5974026 L9.43356643,14.5254745 C9.44555451,14.5134865 9.45154845,14.5014986 9.45154845,14.4895105 L9.46953047,14.4535465 Z M9.95504496,6.46953047 C9.85914038,6.36163782 9.78721303,6.24475587 9.73926074,6.11888112 C9.69130845,5.99300636 9.66733267,5.86413652 9.66733267,5.73226773 C9.66733267,5.60039894 9.69130845,5.4715291 9.73926074,5.34565435 C9.78721303,5.21977959 9.86513433,5.09990067 9.97302697,4.98601399 C10.0809196,4.8721273 10.1978016,4.79120903 10.3236763,4.74325674 C10.4495511,4.69530446 10.5784209,4.67132867 10.7102897,4.67132867 C10.8421585,4.67132867 10.9740253,4.69530446 11.1058941,4.74325674 C11.2377629,4.79120903 11.3546448,4.86613336 11.4565435,4.96803197 C11.5584421,5.06993058 11.6363634,5.18381555 11.6903097,5.30969031 C11.744256,5.43556506 11.7712288,5.56743188 11.7712288,5.70529471 C11.7712288,5.84315753 11.744256,5.97802132 11.6903097,6.10989011 C11.6363634,6.2417589 11.5554451,6.36163782 11.4475524,6.46953047 C11.3636359,6.56543504 11.2527479,6.64035937 11.1148851,6.69430569 C10.9770223,6.74825202 10.8391615,6.77522478 10.7012987,6.77522478 C10.5634359,6.77522478 10.4285721,6.74525504 10.2967033,6.68531469 C10.1648345,6.62537433 10.0509495,6.55344697 9.95504496,6.46953047 Z M9.9010989,15.2627373 C10.3566456,16.0419619 10.9020947,16.7162809 11.5374625,17.2857143 C12.1728303,17.8551477 12.9100857,18.3316664 13.7492507,18.7152847 C13.3536444,18.7152847 12.9640379,18.6703301 12.5804196,18.5804196 C12.1968013,18.490509 11.8281736,18.3616392 11.4745255,18.1938062 C11.1208774,18.0259732 10.8002012,17.828173 10.5124875,17.6003996 C10.2007976,17.3486501 9.93107007,17.0849165 9.7032967,16.8091908 C9.71528478,16.4495487 9.73326661,16.1798211 9.75724276,16 C9.79320697,15.7362624 9.84115854,15.4905106 9.9010989,15.2627373 Z M10.0989011,14.2377622 L10.1888112,14.3096903 L10.1528472,14.3636364 L10.0989011,14.2377622 Z M14.7202797,9.83216783 C14.7322678,9.8441559 14.7502496,9.8561438 14.7742258,9.86813187 L14.8101898,9.86813187 C15.18182,10.227774 15.523475,10.6233745 15.8351648,11.0549451 C16.1108905,11.4385634 16.3476514,11.8611366 16.5454545,12.3226773 C16.7432577,12.7842181 16.8901094,13.2667307 16.986014,13.7702298 C17.0819186,14.2857169 17.1298701,14.7952023 17.1298701,15.2987013 C16.7462518,15.4305701 16.3386635,15.5354641 15.9070929,15.6133866 C15.4755223,15.6913091 15.0439582,15.7302697 14.6123876,15.7302697 C13.7852106,15.7302697 13.0059977,15.6103908 12.2747253,15.3706294 C11.5434529,15.1308679 10.8481551,14.7772251 10.1888112,14.3096903 C10.3806203,13.7822151 10.6233752,13.2937085 10.9170829,12.8441558 C11.2107907,12.3946031 11.5524456,11.9750269 11.9420579,11.5854146 C12.3316703,11.1958022 12.7602374,10.8511503 13.2277722,10.5514486 C13.6593428,10.2757229 14.1568403,10.0359651 14.7202797,9.83216783 Z M12.958042,8.98701299 C12.5264714,8.98701299 12.0919103,9.01997969 11.6543457,9.08591409 C11.216781,9.15184848 10.7882139,9.25674254 10.3686314,9.4005994 C10.6923093,9.14884989 11.0369612,8.93007086 11.4025974,8.74425574 C11.7682336,8.55844063 12.1428552,8.42357684 12.5264735,8.33966034 C12.7302707,8.41158877 12.9580407,8.5194798 13.2097902,8.66333666 C13.4255755,8.78321738 13.6293697,8.90909025 13.8211788,9.04095904 L13.3716284,8.98701299 L12.958042,8.98701299 Z M10.5124875,0.679320679 L12.004995,0.679320679 L12.004995,2.17182817 L10.5124875,2.17182817 L10.5124875,0.679320679 Z M10.7282717,15.3886114 C11.3396634,15.7122893 11.9690277,15.9520472 12.6163836,16.1078921 C13.2637395,16.263737 13.9290675,16.3416583 14.6123876,16.3416583 C15.0319701,16.3416583 15.4575403,16.3116886 15.8891109,16.2517483 C16.3206815,16.1918079 16.7222759,16.0959048 17.0939061,15.964036 C17.06993,16.2637378 17.0249754,16.569429 16.959041,16.8811189 C16.8931066,17.1928088 16.8061943,17.4925061 16.6983017,17.7802198 C16.4465522,17.9600409 16.1888125,18.1098895 15.9250749,18.2297702 C15.6613373,18.3496509 15.3976037,18.4395601 15.1338661,18.4995005 C14.2227727,18.2717271 13.3896142,17.8941085 12.6343656,17.3666334 C11.9030932,16.8631343 11.267735,16.2038003 10.7282717,15.3886114 Z M12.7602398,0.679320679 L14.2527473,0.679320679 L14.2527473,2.42357642 L12.7602398,2.42357642 L12.7602398,0.679320679 Z M12.7602398,3.17882118 L14.2527473,3.17882118 L14.2527473,4.67132867 L12.7602398,4.67132867 L12.7602398,3.17882118 Z M14.2527473,5.44455544 L14.2527473,6.93706294 L12.7602398,6.93706294 L12.7602398,5.44455544 L14.2527473,5.44455544 Z M13.6413586,8.17782218 L13.7492507,8.17782218 C14.1928094,8.17782218 14.6273705,8.23176769 15.0529471,8.33966034 C15.4785236,8.44755299 15.8891089,8.60938953 16.2847153,8.82517483 C16.0569419,8.84915097 15.829172,8.88511465 15.6013986,8.93306693 C15.3976014,8.96903115 15.1698314,9.02897061 14.9180819,9.11288711 C14.6543443,8.88511375 14.4475532,8.71428628 14.2977023,8.6003996 C14.1478514,8.48651292 13.9290724,8.34565518 13.6413586,8.17782218 Z M18.4965035,11.1808192 C18.0889091,10.7972009 17.6693328,10.4765248 17.2377622,10.2187812 C16.8061916,9.96103767 16.3386639,9.7362647 15.8351648,9.54445554 C16.0749263,9.48451518 16.2847144,9.44855151 16.4645355,9.43656344 C16.7042969,9.41258729 16.914085,9.4005994 17.0939061,9.4005994 C17.405596,9.65234891 17.6693296,9.92207648 17.8851149,10.2097902 C18.1488525,10.5454562 18.3526466,10.8691293 18.4965035,11.1808192 Z M18.9460539,12.5834166 C18.958042,12.6793212 18.9760239,12.8171819 19,12.997003 L19,13.9140859 C18.9880119,14.0219786 18.9640361,14.1718272 18.9280719,14.3636364 C18.7602389,14.4835171 18.5714296,14.603396 18.3616384,14.7232767 C18.1518471,14.8431574 17.945056,14.9510485 17.7412587,15.046953 C17.7172826,14.1478477 17.564437,13.3027013 17.2827173,12.5114885 C17.0009976,11.7202758 16.5904123,10.9890143 16.0509491,10.3176823 C16.6143884,10.5574438 17.1418557,10.869129 17.6333666,11.2527473 C18.0889134,11.6004013 18.5264714,12.0439533 18.9460539,12.5834166 Z M17.6693307,16.4135864 C17.7052949,16.185813 17.7292707,15.9580431 17.7412587,15.7302697 C17.9090917,15.6703294 18.0709283,15.598402 18.2267732,15.5144855 L18.6943057,15.2627373 C18.5624369,15.6103913 18.4035973,15.9310675 18.2177822,16.2247752 C18.0319671,16.518483 17.8071941,16.7972015 17.5434565,17.0609391 C17.5794208,16.9170822 17.6213784,16.7013001 17.6693307,16.4135864 Z" id="" fill="#333333"></path>
        </g>
        <g id="icons-/-Error_Mark" transform="translate(0.000000, 12.000000)">
            <circle id="Oval" fill="#FFFFFF" fill-rule="nonzero" cx="4" cy="4" r="4"></circle>
            <path d="M4.00666043,0.66666822 C4.60923891,0.667230482 5.16978374,0.820408594 5.68831169,1.12620713 C6.1900347,1.42368891 6.5896311,1.82328531 6.88711289,2.32500833 C7.19347473,2.84449144 7.34665335,3.4050364 7.34665335,4.00666001 C7.34665335,4.60828362 7.19347473,5.16882857 6.88711289,5.68831169 C6.5896311,6.1900347 6.1900347,6.5896311 5.68831169,6.88711289 C5.16882857,7.19347473 4.60828362,7.34665335 4.00666001,7.34665335 C3.4050364,7.34665335 2.84449144,7.19347473 2.32500833,6.88711289 C1.82328531,6.5896311 1.42368891,6.1900347 1.12620713,5.68831169 C0.819845288,5.16882857 0.666666667,4.60828362 0.666666667,4.00666001 C0.666666667,3.4050364 0.819845288,2.84449144 1.12620713,2.32500833 C1.42368891,1.82328531 1.82328531,1.42368891 2.32500833,1.12620713 C2.84353627,0.820408594 3.4040811,0.667230482 4.00665958,0.66666822 L4.00666043,0.66666822 Z M4.00666043,0.66666822 C4.00555043,0.666667185 4.00444029,0.666666667 4.00333,0.666666667 L4.00999001,0.666666667 C4.00887973,0.666666667 4.00776958,0.666667185 4.00665958,0.66666822 L4.00666043,0.66666822 Z M4.34299034,5.67499167 L4.34299034,5.00899101 L3.67032967,5.00899101 L3.67032967,5.67499167 L4.34299034,5.67499167 Z M4.34299034,4.34299034 L4.34299034,2.33832834 L3.67032967,2.33832834 L3.67032967,4.34299034 L4.34299034,4.34299034 Z" id="" fill="#F83200"></path>
        </g>
    </g>
</svg>