<?xml version="1.0" encoding="UTF-8"?>
<svg width="20px" height="20px" viewBox="0 0 20 20" version="1.1" xmlns="http://www.w3.org/2000/svg" xmlns:xlink="http://www.w3.org/1999/xlink">
    <!-- Generator: Sketch 51.3 (57544) - http://www.bohemiancoding.com/sketch -->
    <title>icons / classes/ BMC_VMWare_32</title>
    <desc>Created with Sketch.</desc>
    <defs>
        <polygon id="path-1" points="0 0 19.9996667 0 19.9996667 20 0 20"></polygon>
    </defs>
    <g id="icons-/-classes/-BMC_VMWare_32" stroke="none" stroke-width="1" fill="none" fill-rule="evenodd">
        <g>
            <g id="icons-/-20x20-icon-field" fill="#F5A623" fill-rule="nonzero" opacity="0">
                <rect x="0" y="0" width="20" height="20"></rect>
            </g>
            <g id="Group-3">
                <mask id="mask-2" fill="white">
                    <use xlink:href="#path-1"></use>
                </mask>
                <g id="Clip-2"></g>
                <path d="M16.3663333,12.5 L17.4996667,12.5 L17.4996667,17.5 L16.7255,17.5 L16.7496667,13.3333333 L15.2746667,17.5 L14.5671667,17.5 L13.133,13.325 L13.1663333,17.5 L12.433,17.5 L12.433,12.5 L13.5671667,12.5 L14.933,16.475 L14.9588333,16.475 L16.3663333,12.5 Z M10.9496667,12.5 L11.783,12.5 L10.0663333,17.5 L9.21716667,17.5 L7.49966667,12.5 L8.3255,12.5 C8.3255,12.5 9.62466667,16.6 9.64216667,16.7 C9.66633333,16.5666667 10.9496667,12.5 10.9496667,12.5 Z M14.1663333,4.16666667 L17.4996667,4.16666667 L17.4996667,2.5 L14.1663333,2.5 L14.1663333,4.16666667 Z M1.24966667,16.25 L1.24966667,8.75 L12.083,8.75 L12.083,10 L4.99966667,10 L4.99966667,16.25 L1.24966667,16.25 Z M5.833,19.1666667 L19.1663333,19.1666667 L19.1663333,10.8333333 L5.833,10.8333333 L5.833,19.1666667 Z M19.1663333,0 L12.4996667,0 C12.0421667,0 11.6663333,0.375 11.6663333,0.833333333 L11.6663333,5.83333333 L12.5505,5.83333333 C13.8996667,5.83333333 14.9996667,6.93333333 14.9996667,8.28333333 L14.9996667,10 L13.333,10 L13.333,8.28333333 C13.333,7.85 12.983,7.5 12.5505,7.5 L11.6663333,7.5 L0.783,7.5 C0.349666667,7.5 -0.000333333333,7.85 -0.000333333333,8.28333333 L-0.000333333333,16.7166667 C-0.000333333333,17.15 0.349666667,17.5 0.783,17.5 L4.99966667,17.5 L4.99966667,18.5166667 C4.89966667,18.5833333 4.82466667,18.675 4.76633333,18.7916667 L4.16633333,20 L19.9996667,20 L19.9996667,0.833333333 C19.9996667,0.375 19.6246667,0 19.1663333,0 Z" id="Fill-1" fill="#333333" mask="url(#mask-2)"></path>
            </g>
            <g id="icons-/-Error_Mark" transform="translate(0.000000, 12.000000)" fill="#F83200" opacity="0">
                <circle id="Oval" cx="4" cy="4" r="4"></circle>
                <path d="M4.00666043,0.66666822 C4.60923891,0.667230482 5.16978374,0.820408594 5.68831169,1.12620713 C6.1900347,1.42368891 6.5896311,1.82328531 6.88711289,2.32500833 C7.19347473,2.84449144 7.34665335,3.4050364 7.34665335,4.00666001 C7.34665335,4.60828362 7.19347473,5.16882857 6.88711289,5.68831169 C6.5896311,6.1900347 6.1900347,6.5896311 5.68831169,6.88711289 C5.16882857,7.19347473 4.60828362,7.34665335 4.00666001,7.34665335 C3.4050364,7.34665335 2.84449144,7.19347473 2.32500833,6.88711289 C1.82328531,6.5896311 1.42368891,6.1900347 1.12620713,5.68831169 C0.819845288,5.16882857 0.666666667,4.60828362 0.666666667,4.00666001 C0.666666667,3.4050364 0.819845288,2.84449144 1.12620713,2.32500833 C1.42368891,1.82328531 1.82328531,1.42368891 2.32500833,1.12620713 C2.84353627,0.820408594 3.4040811,0.667230482 4.00665958,0.66666822 L4.00666043,0.66666822 Z M4.00666043,0.66666822 C4.00555043,0.666667185 4.00444029,0.666666667 4.00333,0.666666667 L4.00999001,0.666666667 C4.00887973,0.666666667 4.00776958,0.666667185 4.00665958,0.66666822 L4.00666043,0.66666822 Z M4.34299034,5.67499167 L4.34299034,5.00899101 L3.67032967,5.00899101 L3.67032967,5.67499167 L4.34299034,5.67499167 Z M4.34299034,4.34299034 L4.34299034,2.33832834 L3.67032967,2.33832834 L3.67032967,4.34299034 L4.34299034,4.34299034 Z" id=""></path>
            </g>
        </g>
    </g>
</svg>