<?xml version="1.0" encoding="UTF-8"?>
<svg width="20px" height="20px" viewBox="0 0 20 20" version="1.1" xmlns="http://www.w3.org/2000/svg" xmlns:xlink="http://www.w3.org/1999/xlink">
    <!-- Generator: Sketch 51.3 (57544) - http://www.bohemiancoding.com/sketch -->
    <title>icons / classes/ BMC_Monitor_32</title>
    <desc>Created with Sketch.</desc>
    <defs></defs>
    <g id="icons-/-classes/-BMC_Monitor_32" stroke="none" stroke-width="1" fill="none" fill-rule="evenodd">
        <g id="icons-/-classes/-Monitor">
            <g id="icons-/-20x20-icon-field" fill="#F5A623" fill-rule="nonzero" opacity="0">
                <rect x="0" y="0" width="20" height="20"></rect>
            </g>
            <path d="M19.017982,13.3926074 C19.017982,13.824178 18.8801213,14.1298692 18.6043956,14.3096903 L18.4605395,14.3996004 C18.3166826,14.507493 18.2027976,14.5794204 18.1188811,14.6153846 C17.9870123,14.675325 17.8491516,14.7052947 17.7052947,14.7052947 L2.29470529,14.7052947 C1.87512278,14.7052947 1.57542547,14.5734279 1.3956044,14.3096903 L1.28771229,14.1478521 C1.17981964,14.0039953 1.10789229,13.8961043 1.07192807,13.8241758 C1.01198771,13.692307 0.982017982,13.5484523 0.982017982,13.3926074 L0.982017982,2.999001 C0.982017982,2.56743041 1.11987874,2.26173916 1.3956044,2.08191808 L1.53946054,1.99200799 C1.6833174,1.88411534 1.79720238,1.81218799 1.88111888,1.77622378 C2.0009996,1.71628342 2.13886036,1.68631369 2.29470529,1.68631369 L17.7052947,1.68631369 C18.1248772,1.68631369 18.4245745,1.8181805 18.6043956,2.08191808 L18.7122877,2.24375624 C18.8201804,2.38761311 18.8921077,2.49550414 18.9280719,2.56743257 C18.9880123,2.69930136 19.017982,2.84315606 19.017982,2.999001 L19.017982,13.3926074 Z M2.996004,3.7002997 L2.996004,12.7092907 L17.003996,12.7092907 L17.003996,3.7002997 L2.996004,3.7002997 Z M12.7062937,17.4025974 C12.7062937,17.4745258 12.7002998,17.5254744 12.6883117,17.5554446 C12.6763236,17.5854147 12.6493509,17.6003996 12.6073926,17.6003996 C12.5654344,17.6003996 12.5294707,17.6183814 12.4995005,17.6543457 C12.4695303,17.6903099 12.4365636,17.7082917 12.4005994,17.7082917 L7.5994006,17.7082917 C7.52747217,17.7082917 7.47652363,17.7022978 7.44655345,17.6903097 C7.41658327,17.6783216 7.4015984,17.6513489 7.4015984,17.6093906 C7.4015984,17.5674324 7.38361656,17.5314687 7.34765235,17.5014985 C7.31168813,17.4715283 7.29370629,17.4385616 7.29370629,17.4025974 L7.995005,15.6943057 L12.004995,15.6943057 L12.7062937,17.4025974 Z" id="" fill="#333333"></path>
        </g>
        <g id="icons-/-Error_Mark" transform="translate(0.000000, 12.000000)" opacity="0">
            <circle id="Oval" fill="#FFFFFF" fill-rule="nonzero" cx="4" cy="4" r="4"></circle>
            <path d="M4.00666043,0.66666822 C4.60923891,0.667230482 5.16978374,0.820408594 5.68831169,1.12620713 C6.1900347,1.42368891 6.5896311,1.82328531 6.88711289,2.32500833 C7.19347473,2.84449144 7.34665335,3.4050364 7.34665335,4.00666001 C7.34665335,4.60828362 7.19347473,5.16882857 6.88711289,5.68831169 C6.5896311,6.1900347 6.1900347,6.5896311 5.68831169,6.88711289 C5.16882857,7.19347473 4.60828362,7.34665335 4.00666001,7.34665335 C3.4050364,7.34665335 2.84449144,7.19347473 2.32500833,6.88711289 C1.82328531,6.5896311 1.42368891,6.1900347 1.12620713,5.68831169 C0.819845288,5.16882857 0.666666667,4.60828362 0.666666667,4.00666001 C0.666666667,3.4050364 0.819845288,2.84449144 1.12620713,2.32500833 C1.42368891,1.82328531 1.82328531,1.42368891 2.32500833,1.12620713 C2.84353627,0.820408594 3.4040811,0.667230482 4.00665958,0.66666822 L4.00666043,0.66666822 Z M4.00666043,0.66666822 C4.00555043,0.666667185 4.00444029,0.666666667 4.00333,0.666666667 L4.00999001,0.666666667 C4.00887973,0.666666667 4.00776958,0.666667185 4.00665958,0.66666822 L4.00666043,0.66666822 Z M4.34299034,5.67499167 L4.34299034,5.00899101 L3.67032967,5.00899101 L3.67032967,5.67499167 L4.34299034,5.67499167 Z M4.34299034,4.34299034 L4.34299034,2.33832834 L3.67032967,2.33832834 L3.67032967,4.34299034 L4.34299034,4.34299034 Z" id="" fill="#F83200"></path>
        </g>
    </g>
</svg>