<?xml version="1.0" encoding="UTF-8"?>
<svg width="20px" height="20px" viewBox="0 0 20 20" version="1.1" xmlns="http://www.w3.org/2000/svg" xmlns:xlink="http://www.w3.org/1999/xlink">
    <!-- Generator: Sketch 51.3 (57544) - http://www.bohemiancoding.com/sketch -->
    <title>icons / classes/ BMC_UserCommunity_32_Error</title>
    <desc>Created with Sketch.</desc>
    <defs>
        <polygon id="path-1" points="0 0 19.9999167 0 19.9999167 20 0 20"></polygon>
    </defs>
    <g id="icons-/-classes/-BMC_UserCommunity_32" stroke="none" stroke-width="1" fill="none" fill-rule="evenodd">
        <g id="icons-/-classes/-User-Community" fill="#F5A623" fill-rule="nonzero" opacity="0">
            <g id="icons-/-20x20-icon-field">
                <rect x="0" y="0" width="20" height="20"></rect>
            </g>
        </g>
        <g id="Group-3">
            <mask id="mask-2" fill="white">
                <use xlink:href="#path-1"></use>
            </mask>
            <g id="Clip-2"></g>
            <path d="M13.4915833,15 C12.4915833,14.4416667 11.0415833,14.0333333 9.37491667,13.85 L9.37491667,13.1416667 C10.4915833,12.3833333 11.2499167,10.9916667 11.2499167,9.375 C11.2499167,7.50833333 10.2499167,5.91666667 8.83325,5.29166667 C8.41658333,5.1 7.96658333,5 7.49991667,5 C5.42491667,5 3.74991667,6.95833333 3.74991667,9.375 C3.74991667,10.6666667 4.23325,11.8166667 4.99991667,12.6083333 C5.19158333,12.8083333 5.39991667,12.9916667 5.62491667,13.1416667 L5.62491667,13.85 C5.41658333,13.875 5.20825,13.9 4.99991667,13.925 C2.09158333,14.3583333 -8.33333333e-05,15.5083333 -8.33333333e-05,16.875 L-8.33333333e-05,20 L14.9999167,20 L14.9999167,16.875 C14.9999167,16.175 14.4415833,15.5166667 13.4915833,15 M19.9999167,11.875 L19.9999167,15 L16.0415833,15 C15.2999167,13.975 13.9249167,13.1583333 12.0499167,12.65 C12.60825,11.6916667 12.9165833,10.5666667 12.9165833,9.375 C12.9165833,6.55 11.1665833,4.175 8.81658333,3.525 C9.15825,1.51666667 10.6749167,0 12.4999167,0 C14.5749167,0 16.2499167,1.95833333 16.2499167,4.375 C16.2499167,5.99166667 15.4915833,7.38333333 14.3749167,8.14166667 L14.3749167,8.85 C17.60825,9.2 19.9999167,10.4166667 19.9999167,11.875" id="Fill-1" fill="#333333" mask="url(#mask-2)"></path>
        </g>
        <g id="icons-/-Error_Mark" transform="translate(0.000000, 12.000000)">
            <circle id="Oval" fill="#FFFFFF" fill-rule="nonzero" cx="4" cy="4" r="4"></circle>
            <path d="M4.00666043,0.66666822 C4.60923891,0.667230482 5.16978374,0.820408594 5.68831169,1.12620713 C6.1900347,1.42368891 6.5896311,1.82328531 6.88711289,2.32500833 C7.19347473,2.84449144 7.34665335,3.4050364 7.34665335,4.00666001 C7.34665335,4.60828362 7.19347473,5.16882857 6.88711289,5.68831169 C6.5896311,6.1900347 6.1900347,6.5896311 5.68831169,6.88711289 C5.16882857,7.19347473 4.60828362,7.34665335 4.00666001,7.34665335 C3.4050364,7.34665335 2.84449144,7.19347473 2.32500833,6.88711289 C1.82328531,6.5896311 1.42368891,6.1900347 1.12620713,5.68831169 C0.819845288,5.16882857 0.666666667,4.60828362 0.666666667,4.00666001 C0.666666667,3.4050364 0.819845288,2.84449144 1.12620713,2.32500833 C1.42368891,1.82328531 1.82328531,1.42368891 2.32500833,1.12620713 C2.84353627,0.820408594 3.4040811,0.667230482 4.00665958,0.66666822 L4.00666043,0.66666822 Z M4.00666043,0.66666822 C4.00555043,0.666667185 4.00444029,0.666666667 4.00333,0.666666667 L4.00999001,0.666666667 C4.00887973,0.666666667 4.00776958,0.666667185 4.00665958,0.66666822 L4.00666043,0.66666822 Z M4.34299034,5.67499167 L4.34299034,5.00899101 L3.67032967,5.00899101 L3.67032967,5.67499167 L4.34299034,5.67499167 Z M4.34299034,4.34299034 L4.34299034,2.33832834 L3.67032967,2.33832834 L3.67032967,4.34299034 L4.34299034,4.34299034 Z" id="" fill="#F83200"></path>
        </g>
    </g>
</svg>