<?xml version="1.0" encoding="UTF-8"?>
<svg width="20px" height="20px" viewBox="0 0 20 20" version="1.1" xmlns="http://www.w3.org/2000/svg" xmlns:xlink="http://www.w3.org/1999/xlink">
    <!-- Generator: Sketch 51.3 (57544) - http://www.bohemiancoding.com/sketch -->
    <title>icons / classes/ BMC_DatabaseStorage_32</title>
    <desc>Created with Sketch.</desc>
    <defs></defs>
    <g id="icons-/-classes/-BMC_DatabaseStorage_32" stroke="none" stroke-width="1" fill="none" fill-rule="evenodd">
        <g id="icons-/-classes/-Database-Storage">
            <g id="icons-/-20x20-icon-field" fill="#F5A623" fill-rule="nonzero" opacity="0">
                <rect x="0" y="0" width="20" height="20"></rect>
            </g>
            <path d="M3.1038961,5.6963037 C2.38461179,5.52847069 1.85414756,5.35464625 1.51248751,5.17482517 C1.17082746,4.9950041 1,4.78521598 1,4.54545455 L1,2.33366633 C1,2.0939049 1.17382444,1.87512586 1.52147852,1.67732268 C1.86913261,1.47951949 2.39360289,1.30269808 3.09490509,1.14685315 C3.7962073,0.991008212 4.57242332,0.877123237 5.42357642,0.805194805 C6.27472953,0.733266374 7.19779722,0.697302697 8.19280719,0.697302697 C9.18781716,0.697302697 10.1078879,0.733266374 10.953047,0.805194805 C11.798206,0.877123237 12.5714251,0.991008212 13.2727273,1.14685315 C13.9740295,1.30269808 14.4984998,1.47951949 14.8461538,1.67732268 C15.1938079,1.87512586 15.3676324,2.0939049 15.3676324,2.33366633 L15.3676324,2.36963037 L15.3856144,2.36963037 L15.3856144,4.56343656 C15.3856144,4.77922186 15.208793,4.986013 14.8551449,5.18381618 C14.5014967,5.38161937 13.9770265,5.55244683 13.2817183,5.6963037 C12.6103863,5.8641367 11.8371672,5.99000957 10.962038,6.07392607 C10.134861,6.15784258 9.21179331,6.1998002 8.19280719,6.1998002 C7.17382108,6.1998002 6.25674733,6.15784258 5.44155844,6.07392607 C4.56642919,5.99000957 3.7872162,5.8641367 3.1038961,5.6963037 Z M3.08591409,9.95804196 C2.40259399,9.79020895 1.88411765,9.61338754 1.53046953,9.42757243 C1.17682141,9.24175731 1,9.02897223 1,8.78921079 L1,6.57742258 C1,6.52947029 1.00599395,6.48751267 1.01798202,6.45154845 L1.08991009,6.32567433 C1.20979081,6.51748348 1.47951838,6.69730186 1.8991009,6.86513487 C2.2827192,7.0209798 2.8161804,7.17082845 3.4995005,7.31468531 C4.0989041,7.43456603 4.82417157,7.53046917 5.67532468,7.6023976 C6.35864478,7.66233796 7.19779722,7.69230769 8.19280719,7.69230769 C9.11588873,7.69230769 9.95504118,7.66233796 10.7102897,7.6023976 C11.5614428,7.5184811 12.2867103,7.41658402 12.8861139,7.2967033 C13.5334698,7.17682258 14.060937,7.03296787 14.4685315,6.86513487 C14.8761259,6.69730186 15.1518474,6.51148953 15.2957043,6.30769231 C15.3316685,6.3556446 15.3556443,6.40359616 15.3676324,6.45154845 C15.3796204,6.49950074 15.3796204,6.54145836 15.3676324,6.57742258 L15.3676324,7.44055944 C15.139859,7.44055944 14.8821193,7.45254733 14.5944056,7.47652348 C14.3426561,7.50049962 14.0999013,7.53346632 13.8661339,7.57542458 C13.6323665,7.61738283 13.3986026,7.66833137 13.1648352,7.72827173 C12.9310678,7.78821209 12.7242766,7.86013944 12.5444555,7.94405594 C12.3406583,8.02797245 12.1638369,8.11488467 12.013986,8.2047952 C11.8641351,8.29470574 11.7352653,8.39060888 11.6273726,8.49250749 C11.51948,8.5944061 11.4325678,8.70229713 11.3666334,8.81618382 C11.300699,8.9300705 11.2617383,9.0409585 11.2497502,9.14885115 L11.2497502,10.2997003 C10.7342632,10.3476526 10.2487535,10.3836163 9.79320679,10.4075924 C9.21777934,10.4315686 8.68431814,10.4435564 8.19280719,10.4435564 C7.19779722,10.4435564 6.27472953,10.4075928 5.42357642,10.3356643 C4.60838753,10.2637359 3.82917455,10.137863 3.08591409,9.95804196 Z M3.08591409,14.0939061 C2.40259399,13.9260731 1.88411765,13.7492517 1.53046953,13.5634366 C1.17682141,13.3776214 1,13.1648364 1,12.9250749 L1,10.6953047 C1,10.6473524 1.00899092,10.6023978 1.02697303,10.5604396 C1.04495513,10.5184813 1.07192789,10.4735267 1.10789211,10.4255744 C1.22777283,10.6293716 1.49150645,10.80919 1.8991009,10.965035 C2.29470727,11.132868 2.83416242,11.2827166 3.51748252,11.4145854 C4.0809219,11.5344661 4.80019542,11.6363632 5.67532468,11.7202797 C6.39460899,11.7922082 7.23376144,11.8281718 8.19280719,11.8281718 C8.7442585,11.8281718 9.27172575,11.813187 9.77522478,11.7832168 C10.2787238,11.7532466 10.7702274,11.714286 11.2497502,11.6663337 L11.2497502,14.4355644 C10.7342632,14.4835167 10.2487535,14.5134865 9.79320679,14.5254745 C9.21777934,14.5494507 8.68431814,14.5614386 8.19280719,14.5614386 C7.19779722,14.5614386 6.2777265,14.5254749 5.43256743,14.4535465 C4.58740836,14.381618 3.8051984,14.2617391 3.08591409,14.0939061 Z M11.2497502,17.7262737 C11.2497502,17.8341664 11.276723,17.9450544 11.3306693,18.0589411 C11.3846157,18.1728277 11.4715279,18.2837157 11.5914086,18.3916084 C11.6033967,18.4155845 11.6213785,18.4335664 11.6453546,18.4455544 L11.6813187,18.4995005 C11.1658316,18.5714289 10.6263764,18.6223775 10.0629371,18.6523477 C9.49949768,18.6823178 8.87612729,18.6973027 8.19280719,18.6973027 C7.17382108,18.6973027 6.25075339,18.661339 5.42357642,18.5894106 C4.57242332,18.5054941 3.7962073,18.3856152 3.09490509,18.2297702 C2.39360289,18.0739253 1.86913261,17.8971039 1.52147852,17.6993007 C1.17382444,17.5014975 1,17.2887124 1,17.0609391 L1,14.8131868 C1,14.7772226 1.01198789,14.735265 1.03596404,14.6873127 C1.05994018,14.6393604 1.08391596,14.6033967 1.10789211,14.5794206 C1.22777283,14.7712297 1.49150645,14.9510481 1.8991009,15.1188811 C2.29470727,15.2747261 2.83416242,15.4245747 3.51748252,15.5684316 C4.11688611,15.6883123 4.83615964,15.7842154 5.67532468,15.8561439 C6.43057321,15.9280723 7.26972565,15.964036 8.19280719,15.964036 C8.68431814,15.964036 9.21178539,15.9520481 9.77522478,15.9280719 C10.2187834,15.9040958 10.710287,15.8621382 11.2497502,15.8021978 L11.2497502,17.7262737 Z M18.6943057,9.09490509 C18.7902103,9.19080967 18.8621376,9.28970978 18.9100899,9.39160839 C18.9580422,9.493507 18.9940059,9.59240711 19.017982,9.68831169 L19.017982,10.1378621 C19.017982,10.2337667 18.9970032,10.3266729 18.955045,10.4165834 C18.9130867,10.506494 18.8381624,10.611388 18.7302697,10.7312687 C18.6463532,10.8151852 18.5414592,10.8961035 18.4155844,10.974026 C18.2897097,11.0519484 18.1488519,11.1268728 17.993007,11.1988012 C17.8731263,11.2467535 17.7052958,11.300699 17.4895105,11.3606394 C17.2977013,11.4085916 17.0939072,11.4565432 16.8781219,11.5044955 C16.6383604,11.5524478 16.4165844,11.5824175 16.2127872,11.5944056 C15.9130854,11.6183817 15.6733276,11.6303696 15.4935065,11.6303696 C15.241757,11.6303696 15.0079931,11.6183817 14.7922078,11.5944056 C14.5404583,11.5704295 14.3156853,11.5404597 14.1178821,11.5044955 C13.9200789,11.4685313 13.7252757,11.4235767 13.5334665,11.3696304 C13.3416574,11.315684 13.1678329,11.2587416 13.011988,11.1988012 C12.8921073,11.1388608 12.7542465,11.0609395 12.5984016,10.965035 C12.490509,10.9050946 12.3856149,10.8241763 12.2837163,10.7222777 C12.1818177,10.6203791 12.1098903,10.521479 12.0679321,10.4255744 C12.0259738,10.3296699 12.004995,10.2337667 12.004995,10.1378621 L12.004995,9.68831169 C12.0169831,9.58041904 12.0439558,9.48151893 12.0859141,9.39160839 C12.1278723,9.30169785 12.2027967,9.20279774 12.3106893,9.09490509 C12.3946058,8.99900052 12.5084908,8.91508527 12.6523477,8.84315684 C12.8321687,8.7352642 12.9700295,8.66333684 13.0659341,8.62737263 C13.2697313,8.54345612 13.4435557,8.47752272 13.5874126,8.42957043 C13.7552456,8.38161814 13.9470519,8.33966052 14.1628372,8.3036963 C14.4025986,8.24375594 14.6183807,8.20779227 14.8101898,8.1958042 C15.1098916,8.18381612 15.3376616,8.17782218 15.4935065,8.17782218 C15.7572441,8.17782218 15.985014,8.18381612 16.1768232,8.1958042 C16.4285727,8.23176841 16.6443547,8.26773209 16.8241758,8.3036963 C17.0519492,8.33966052 17.2617373,8.38461511 17.4535465,8.43856144 C17.6453556,8.49250776 17.8071921,8.5554442 17.9390609,8.62737263 L18.3706294,8.84315684 C18.4425578,8.89110913 18.5444549,8.96903043 18.6763237,9.07692308 L18.6943057,9.09490509 Z M17.993007,12.2417582 C18.1368639,12.1818179 18.2777216,12.1098905 18.4155844,12.025974 C18.5534472,11.9420575 18.6643352,11.8551453 18.7482517,11.7652348 C18.8321683,11.6753242 18.8981017,11.5764241 18.9460539,11.4685315 C18.9940062,11.3606388 19.017982,11.2707296 19.017982,11.1988012 L19.017982,17.1868132 C19.017982,17.2827178 18.9970032,17.3786209 18.955045,17.4745255 C18.9130867,17.57043 18.8471533,17.6663332 18.7572428,17.7622378 C18.6673322,17.8581423 18.5564442,17.9480515 18.4245754,18.031968 C18.3166828,18.1038965 18.175825,18.1788208 18.001998,18.2567433 C17.828171,18.3346657 17.6573435,18.3916082 17.4895105,18.4275724 C17.2737252,18.4995009 17.0669341,18.5534464 16.8691309,18.5894106 C16.6713277,18.6253748 16.4615396,18.6553445 16.2397602,18.6793207 C16.0179809,18.7032968 15.7752261,18.7152847 15.5114885,18.7152847 C15.2957032,18.7152847 15.0559454,18.6973029 14.7922078,18.6613387 C14.5644344,18.6493506 14.3486524,18.6223778 14.1448551,18.5804196 C13.9410579,18.5384613 13.7402607,18.4905098 13.5424575,18.4365634 C13.3446544,18.3826171 13.164836,18.3196807 13.002997,18.2477522 C12.841158,18.1758238 12.7003003,18.1008995 12.5804196,18.022977 C12.4605389,17.9450546 12.3586418,17.8581423 12.2747253,17.7622378 C12.1908088,17.6663332 12.1248754,17.5674331 12.0769231,17.4655345 C12.0289708,17.3636359 12.004995,17.2707297 12.004995,17.1868132 L12.004995,11.1808192 C12.004995,11.2767238 12.0259738,11.3726269 12.0679321,11.4685315 C12.1098903,11.564436 12.1758237,11.6573422 12.2657343,11.7472527 C12.3556448,11.8371633 12.4605389,11.9210785 12.5804196,11.999001 C12.7003003,12.0769235 12.844155,12.1518478 13.011988,12.2237762 C13.179821,12.2957047 13.3536455,12.3556441 13.5334665,12.4035964 C13.7492518,12.4755248 13.947052,12.5234764 14.1268731,12.5474525 C14.3786226,12.6073929 14.6003986,12.6433566 14.7922078,12.6553447 C15.1038977,12.6673327 15.3436555,12.6733267 15.5114885,12.6733267 C15.7272738,12.6733267 15.9670316,12.6613388 16.2307692,12.6373626 C16.4585426,12.6133865 16.6773216,12.5834168 16.8871129,12.5474525 C17.0969041,12.5114883 17.2977013,12.4695307 17.4895105,12.4215784 C17.7172839,12.34965 17.8851143,12.2897105 17.993007,12.2417582 Z" id="" fill="#333333"></path>
        </g>
        <g id="icons-/-Error_Mark" transform="translate(0.000000, 12.000000)" opacity="0">
            <circle id="Oval" fill="#FFFFFF" fill-rule="nonzero" cx="4" cy="4" r="4"></circle>
            <path d="M4.00666043,0.66666822 C4.60923891,0.667230482 5.16978374,0.820408594 5.68831169,1.12620713 C6.1900347,1.42368891 6.5896311,1.82328531 6.88711289,2.32500833 C7.19347473,2.84449144 7.34665335,3.4050364 7.34665335,4.00666001 C7.34665335,4.60828362 7.19347473,5.16882857 6.88711289,5.68831169 C6.5896311,6.1900347 6.1900347,6.5896311 5.68831169,6.88711289 C5.16882857,7.19347473 4.60828362,7.34665335 4.00666001,7.34665335 C3.4050364,7.34665335 2.84449144,7.19347473 2.32500833,6.88711289 C1.82328531,6.5896311 1.42368891,6.1900347 1.12620713,5.68831169 C0.819845288,5.16882857 0.666666667,4.60828362 0.666666667,4.00666001 C0.666666667,3.4050364 0.819845288,2.84449144 1.12620713,2.32500833 C1.42368891,1.82328531 1.82328531,1.42368891 2.32500833,1.12620713 C2.84353627,0.820408594 3.4040811,0.667230482 4.00665958,0.66666822 L4.00666043,0.66666822 Z M4.00666043,0.66666822 C4.00555043,0.666667185 4.00444029,0.666666667 4.00333,0.666666667 L4.00999001,0.666666667 C4.00887973,0.666666667 4.00776958,0.666667185 4.00665958,0.66666822 L4.00666043,0.66666822 Z M4.34299034,5.67499167 L4.34299034,5.00899101 L3.67032967,5.00899101 L3.67032967,5.67499167 L4.34299034,5.67499167 Z M4.34299034,4.34299034 L4.34299034,2.33832834 L3.67032967,2.33832834 L3.67032967,4.34299034 L4.34299034,4.34299034 Z" id="" fill="#F83200"></path>
        </g>
    </g>
</svg>