<?xml version="1.0" encoding="UTF-8"?>
<svg width="20px" height="20px" viewBox="0 0 20 20" version="1.1" xmlns="http://www.w3.org/2000/svg" xmlns:xlink="http://www.w3.org/1999/xlink">
    <!-- Generator: Sketch 51.3 (57544) - http://www.bohemiancoding.com/sketch -->
    <title>icons / classes/ BMC_FinancialElement_32</title>
    <desc>Created with Sketch.</desc>
    <defs></defs>
    <g id="icons-/-classes/-BMC_FinancialElement_32" stroke="none" stroke-width="1" fill="none" fill-rule="evenodd">
        <g id="icons-/-classes/-Financial-Element">
            <g id="icons-/-20x20-icon-field" fill="#F5A623" fill-rule="nonzero" opacity="0">
                <rect x="0" y="0" width="20" height="20"></rect>
            </g>
            <path d="M14.1317365,16.3892216 C14.2674657,16.5369269 14.4351287,16.6307383 14.6347305,16.6706587 L14.6347305,15.2874251 C14.6187624,15.2834331 14.5888226,15.2734532 14.5449102,15.257485 C14.5169659,15.249501 14.4770462,15.239521 14.4251497,15.2275449 C14.2495001,15.1796405 14.0898211,15.1277448 13.9461078,15.0718563 C13.7824343,15.0119757 13.6387232,14.9331342 13.5149701,14.8353293 C13.3912169,14.7375245 13.2924155,14.6147712 13.2185629,14.4670659 C13.1447102,14.3193605 13.1077844,14.1347316 13.1077844,13.9131737 C13.1077844,13.6916157 13.1506982,13.4950108 13.2365269,13.3233533 C13.3223557,13.1516957 13.435129,13.0079846 13.5748503,12.8922156 C13.7145716,12.7764465 13.8782426,12.6866271 14.0658683,12.6227545 C14.253494,12.5588819 14.4431128,12.5189622 14.6347305,12.502994 L14.6347305,12 L15.0299401,12 L15.0299401,12.502994 C15.2295419,12.5269462 15.4151688,12.570858 15.5868263,12.6347305 C15.7584839,12.6986031 15.911177,12.7874246 16.0449102,12.9011976 C16.1786434,13.0149706 16.2864267,13.1536918 16.3682635,13.3173653 C16.4501002,13.4810387 16.4970059,13.6806375 16.508982,13.9161677 L15.5748503,13.9161677 C15.5708583,13.7405181 15.5159686,13.590819 15.4101796,13.4670659 C15.3043907,13.3433128 15.1756495,13.2814371 15.0239521,13.2814371 L15.0239521,14.4491018 L15.1856287,14.4850299 C15.2534934,14.5049901 15.311377,14.520958 15.3592814,14.5329341 C15.6866284,14.6207589 15.9381229,14.7295403 16.1137725,14.8592814 C16.289422,14.9890226 16.4191613,15.1247498 16.502994,15.2664671 C16.5868268,15.4081843 16.6357285,15.5489015 16.6497006,15.6886228 C16.6636727,15.828344 16.6706587,15.9540913 16.6706587,16.0658683 C16.6706587,16.1616771 16.6467068,16.2834324 16.5988024,16.4311377 C16.550898,16.5788431 16.4650705,16.7225542 16.3413174,16.8622754 C16.2175643,17.0019967 16.0499013,17.127744 15.8383234,17.239521 C15.6267454,17.351298 15.3552911,17.4191616 15.0239521,17.4431138 L15.0239521,18 L14.6407186,18 L14.6407186,17.4371257 C14.1457061,17.4011974 13.7594824,17.2495023 13.4820359,16.9820359 C13.2045894,16.7145695 13.0439124,16.3213599 13,15.8023952 L13.9341317,15.8023952 C13.9301397,16.0499014 13.9960073,16.2475043 14.1317365,16.3952096 L14.1317365,16.3892216 Z M14.4191617,13.3113772 C14.3512971,13.3313374 14.2884234,13.3652692 14.2305389,13.4131737 C14.1726544,13.4610781 14.1267467,13.5189617 14.0928144,13.5868263 C14.0588821,13.654691 14.0419162,13.7345305 14.0419162,13.8263473 C14.0419162,13.9700606 14.0888219,14.0818359 14.1826347,14.1616766 C14.2764476,14.2415174 14.4291407,14.305389 14.6407186,14.3532934 L14.6407186,13.2754491 C14.5648699,13.2754491 14.4910183,13.287425 14.4191617,13.3113772 Z M15.2754491,16.6107784 C15.3592819,16.5868262 15.4351294,16.5479045 15.502994,16.494012 C15.5708586,16.4401195 15.6267463,16.3742519 15.6706587,16.2964072 C15.7145711,16.2185625 15.7365269,16.127745 15.7365269,16.0239521 C15.7365269,15.8522946 15.6836333,15.7235533 15.5778443,15.6377246 C15.4720554,15.5518958 15.2874265,15.4730543 15.0239521,15.4011976 L15.0239521,16.6706587 C15.1077849,16.6626746 15.1916163,16.6427147 15.2754491,16.6107784 Z M9.84715285,16.6833167 C9.84715285,16.7672332 9.86513469,16.8871121 9.9010989,17.042957 C9.67332553,17.1868139 9.43956164,17.2587413 9.1998002,17.2587413 C8.70828925,17.2587413 8.26473724,16.9950076 7.86913087,16.4675325 C7.50948871,15.9999977 7.20379746,15.3286757 6.95204795,14.4535465 L6.79020979,14.5434565 C5.87911632,15.0229794 5.11788517,15.2627373 4.50649351,15.2627373 C4.0389587,15.2627373 3.66733405,15.1248765 3.39160839,14.8491508 C3.11588274,14.5734252 2.97802198,14.2018005 2.97802198,13.7342657 C2.97802198,13.110886 3.21777982,12.3496548 3.6973027,11.4505495 L3.78721279,11.2707293 C2.91208354,11.0189798 2.24076158,10.7132885 1.77322677,10.3536464 C1.24575161,9.95803998 0.982017982,9.52048192 0.982017982,9.04095904 C0.982017982,8.56143616 1.24575161,8.1238781 1.77322677,7.72827173 C2.24076158,7.36862957 2.91208354,7.06893227 3.78721279,6.82917083 L3.6973027,6.63136863 C3.21777982,5.73226324 2.97802198,4.97103209 2.97802198,4.34765235 C2.97802198,3.88011754 3.11588274,3.50849289 3.39160839,3.23276723 C3.72727441,2.89710122 4.21877798,2.77122835 4.86613387,2.85514486 C5.46553746,2.93906136 6.16682915,3.20279499 6.97002997,3.64635365 C7.22177948,2.7712244 7.52747073,2.09390849 7.88711289,1.61438561 C8.28271926,1.09889852 8.72027732,0.841158841 9.1998002,0.841158841 C9.67932308,0.841158841 10.1168811,1.09889852 10.5124875,1.61438561 C10.8841177,2.09390849 11.1958029,2.7712244 11.4475524,3.64635365 C12.2387652,3.20279499 12.9340629,2.9450553 13.5334665,2.87312687 C14.1688343,2.7772223 14.6603379,2.90309516 15.007992,3.25074925 C15.2717296,3.52647491 15.4035964,3.89809956 15.4035964,4.36563437 C15.4155845,4.97702603 15.1818206,5.73825718 14.7022977,6.64935065 L14.6123876,6.82917083 C15.4875169,7.08092034 16.1588388,7.38661159 16.6263736,7.74625375 C17.1418607,8.12987205 17.3996004,8.56143616 17.3996004,9.04095904 C17.3996004,9.16083976 17.3876125,9.27472474 17.3636364,9.38261738 C17.303696,9.37062931 17.2377626,9.36463536 17.1658342,9.36463536 C16.8301682,9.36463536 16.5424587,9.48451429 16.3026973,9.72427572 L16.2307692,9.7962038 L16.2307692,9.70629371 C16.2307692,9.61038913 16.2187813,9.50849205 16.1948052,9.4005994 C16.326674,9.26873061 16.3926074,9.14885169 16.3926074,9.04095904 C16.3926074,8.84914989 16.1948072,8.63336783 15.7992008,8.39360639 C15.3796183,8.14185688 14.8041995,7.91408693 14.0729271,7.71028971 C13.8811179,7.99800344 13.6713298,8.29770074 13.4435564,8.60939061 C13.3236757,8.66933097 13.2157847,8.73526438 13.1198801,8.80719281 C12.8681306,9.04695425 12.7422577,9.34665155 12.7422577,9.70629371 L12.7422577,9.7962038 L12.6343656,9.68831169 C12.4065923,9.48451447 12.1308707,9.38261738 11.8071928,9.38261738 C11.5554433,9.38261738 11.3156855,9.46053868 11.0879121,9.61638362 L11.1058941,9.04095904 L11.0879121,8.26773227 C10.908091,8.07592312 10.7282726,7.89011079 10.5484515,7.71028971 C10.452547,7.61438513 10.3086923,7.47652438 10.1168831,7.2967033 L9.97302697,7.17082917 L9.1998002,7.15284715 L8.44455544,7.17082917 L8.3006993,7.2967033 C8.10889015,7.47652438 7.96503544,7.61438513 7.86913087,7.71028971 C7.66533365,7.90209886 7.48551526,8.08791119 7.32967033,8.26773227 L7.31168831,9.04095904 L7.32967033,9.83216783 C7.50949141,10.023977 7.69230676,10.2127863 7.87812188,10.3986014 C8.06393699,10.5844165 8.24675235,10.7612379 8.42657343,10.9290709 L9.1998002,10.9470529 L9.91908092,10.9290709 C9.87112863,11.0609397 9.84715285,11.1928065 9.84715285,11.3246753 C9.84715285,11.6243771 9.94904993,11.8941047 10.1528472,12.1338661 L10.008991,12.2777223 C9.74525343,12.3136865 9.51748348,12.4215775 9.32567433,12.6013986 C9.19380553,12.7212793 9.09190845,12.8771219 9.01998002,13.0689311 C8.6003975,13.392609 8.21079101,13.6743245 7.85114885,13.9140859 C8.05494607,14.6333702 8.28271602,15.2087891 8.53446553,15.6403596 C8.77422697,16.0239779 8.99000903,16.2157842 9.18181818,16.2157842 C9.37362733,16.2157842 9.58341544,16.0359658 9.81118881,15.6763237 C9.93106953,15.7122879 10.0509485,15.7302697 10.1708292,15.7302697 L10.2787213,15.7302697 L10.2067932,15.8021978 C9.96703177,16.0419592 9.84715285,16.3356626 9.84715285,16.6833167 Z M15,19 C12.790861,19 11,17.209139 11,15 C11,12.790861 12.790861,11 15,11 C17.209139,11 19,12.790861 19,15 C19,17.209139 17.209139,19 15,19 Z M12.4185814,8.23176823 C12.5504502,8.0759233 12.7242746,7.8421594 12.9400599,7.53046953 L12.976024,7.47652348 C12.7002983,7.41658312 12.3886131,7.36863155 12.040959,7.33266733 L12.0769231,7.85414585 L12.3106893,8.10589411 C12.3586416,8.16583447 12.3946053,8.20779209 12.4185814,8.23176823 Z M13.8751249,3.84415584 C13.6473515,3.84415584 13.3446572,3.9160832 12.967033,4.05994006 C12.5894087,4.20379692 12.1668355,4.40759109 11.6993007,4.67132867 C11.8071933,5.18681576 11.8971025,5.7382588 11.969031,6.32567433 C12.5684346,6.39760276 13.1018958,6.47552406 13.5694306,6.55944056 L13.7852148,6.16383616 C14.1088927,5.54045642 14.300699,5.01898312 14.3606394,4.5994006 C14.4085916,4.28771073 14.3786219,4.07792262 14.2707293,3.97002997 C14.1868128,3.88611347 14.054946,3.84415584 13.8751249,3.84415584 Z M10.9260739,6.23576424 C10.8661336,5.81618172 10.818182,5.48651469 10.7822178,5.24675325 C10.5664325,5.39061011 10.3086928,5.58241638 10.008991,5.82217782 C10.2008002,5.97802276 10.3446549,6.10389562 10.4405594,6.1998002 C10.6443567,6.21178827 10.8061932,6.22377616 10.9260739,6.23576424 Z M9.1998002,1.86613387 C8.99600298,1.86613387 8.77422697,2.05794014 8.53446553,2.44155844 C8.28271602,2.86114096 8.05494607,3.43655978 7.85114885,4.16783217 C8.28271944,4.44355782 8.73226539,4.76723091 9.1998002,5.13886114 C9.667335,4.76723091 10.110887,4.44355782 10.5304695,4.16783217 C10.3386604,3.44854785 10.1108904,2.87312903 9.84715285,2.44155844 C9.60739141,2.05794014 9.39160935,1.86613387 9.1998002,1.86613387 Z M7.61738262,5.24675325 C7.56943033,5.5224789 7.52147876,5.85214593 7.47352647,6.23576424 L7.95904096,6.1998002 L8.39060939,5.82217782 L8.28271728,5.73226773 C7.98301548,5.50449437 7.76123948,5.34265782 7.61738262,5.24675325 Z M4.12887113,3.97002997 C4.00899041,4.06593455 3.97302673,4.27572266 4.02097902,4.5994006 C4.08091938,5.01898312 4.27272565,5.54045642 4.5964036,6.16383616 L4.83016983,6.55944056 C5.30969271,6.46353598 5.84315391,6.38561469 6.43056943,6.32567433 C6.50249786,5.71428266 6.59240705,5.16283962 6.7002997,4.67132867 C6.2327649,4.40759109 5.8101917,4.20379692 5.43256743,4.05994006 C5.05494317,3.9160832 4.74625495,3.84415584 4.50649351,3.84415584 C4.32667243,3.84415584 4.20079956,3.88611347 4.12887113,3.97002997 Z M5.96303696,9.85014985 C5.7352636,10.1378636 5.54945127,10.3956033 5.40559441,10.6233766 C5.68132006,10.6713289 5.99300525,10.7132865 6.34065934,10.7492507 L6.3046953,10.2277722 L6.07092907,9.97602398 C6.02297678,9.91608362 5.98701311,9.87412599 5.96303696,9.85014985 Z M5.40559441,7.45854146 C5.58541548,7.73426711 5.77122781,7.99200679 5.96303696,8.23176823 L6.3046953,7.83616384 L6.34065934,7.31468531 C6.00499333,7.3626376 5.69330813,7.41058917 5.40559441,7.45854146 Z M2.02497502,9.04095904 C2.02497502,9.23276819 2.2167813,9.44855025 2.6003996,9.68831169 C3.01998212,9.95204927 3.59540094,10.1798192 4.32667333,10.3716284 C4.56643477,10.0119862 4.89010785,9.56843421 5.2977023,9.04095904 C4.95004821,8.59740038 4.62637512,8.15384837 4.32667333,7.71028971 C3.59540094,7.90209886 3.01998212,8.12387487 2.6003996,8.37562438 C2.2167813,8.61538581 2.02497502,8.83716182 2.02497502,9.04095904 Z M6.68231768,13.4285714 C6.58641311,12.9250724 6.50249786,12.3796233 6.43056943,11.7922078 C5.85514198,11.7322674 5.31568683,11.6483522 4.81218781,11.5404595 L4.5964036,11.9180819 C4.27272565,12.5414617 4.08091938,13.062935 4.02097902,13.4825175 C3.97302673,13.7942074 4.00299646,14.0039955 4.11088911,14.1118881 C4.21878176,14.2197808 4.43456382,14.2497505 4.75824176,14.2017982 C5.17782428,14.1538459 5.69330364,13.9620396 6.3046953,13.6263736 L6.68231768,13.4285714 Z M7.47352647,11.9000999 C7.52147876,12.247754 7.56943033,12.5594392 7.61738262,12.8351648 C7.89310827,12.6433557 8.15084795,12.4575434 8.39060939,12.2777223 L8.01298701,11.9180819 L7.76123876,11.9180819 C7.62936997,11.9060938 7.53346683,11.9000999 7.47352647,11.9000999 Z" id="" fill="#333333"></path>
        </g>
        <g id="icons-/-Error_Mark" transform="translate(0.000000, 12.000000)" opacity="0">
            <circle id="Oval" fill="#FFFFFF" fill-rule="nonzero" cx="4" cy="4" r="4"></circle>
            <path d="M4.00666043,0.66666822 C4.60923891,0.667230482 5.16978374,0.820408594 5.68831169,1.12620713 C6.1900347,1.42368891 6.5896311,1.82328531 6.88711289,2.32500833 C7.19347473,2.84449144 7.34665335,3.4050364 7.34665335,4.00666001 C7.34665335,4.60828362 7.19347473,5.16882857 6.88711289,5.68831169 C6.5896311,6.1900347 6.1900347,6.5896311 5.68831169,6.88711289 C5.16882857,7.19347473 4.60828362,7.34665335 4.00666001,7.34665335 C3.4050364,7.34665335 2.84449144,7.19347473 2.32500833,6.88711289 C1.82328531,6.5896311 1.42368891,6.1900347 1.12620713,5.68831169 C0.819845288,5.16882857 0.666666667,4.60828362 0.666666667,4.00666001 C0.666666667,3.4050364 0.819845288,2.84449144 1.12620713,2.32500833 C1.42368891,1.82328531 1.82328531,1.42368891 2.32500833,1.12620713 C2.84353627,0.820408594 3.4040811,0.667230482 4.00665958,0.66666822 L4.00666043,0.66666822 Z M4.00666043,0.66666822 C4.00555043,0.666667185 4.00444029,0.666666667 4.00333,0.666666667 L4.00999001,0.666666667 C4.00887973,0.666666667 4.00776958,0.666667185 4.00665958,0.66666822 L4.00666043,0.66666822 Z M4.34299034,5.67499167 L4.34299034,5.00899101 L3.67032967,5.00899101 L3.67032967,5.67499167 L4.34299034,5.67499167 Z M4.34299034,4.34299034 L4.34299034,2.33832834 L3.67032967,2.33832834 L3.67032967,4.34299034 L4.34299034,4.34299034 Z" id="" fill="#F83200"></path>
        </g>
    </g>
</svg>