<?xml version="1.0" encoding="UTF-8"?>
<svg width="20px" height="20px" viewBox="0 0 20 20" version="1.1" xmlns="http://www.w3.org/2000/svg" xmlns:xlink="http://www.w3.org/1999/xlink">
    <!-- Generator: Sketch 51.3 (57544) - http://www.bohemiancoding.com/sketch -->
    <title>icons / classes/ BMC_MobileUserDevice_32</title>
    <desc>Created with Sketch.</desc>
    <defs></defs>
    <g id="icons-/-classes/-BMC_MobileUserDevice_32" stroke="none" stroke-width="1" fill="none" fill-rule="evenodd">
        <g>
            <g id="icons-/-20x20-icon-field" fill="#F5A623" fill-rule="nonzero" opacity="0">
                <rect x="0" y="0" width="20" height="20"></rect>
            </g>
            <path d="M14.1898102,-0.022977023 C14.6959732,-0.022977023 15.1321993,0.160171329 15.4985015,0.526473526 C15.8648037,0.892775724 16.047952,1.3290018 16.047952,1.83516484 L16.047952,18.1588412 C16.047952,18.6650042 15.8681337,19.0979003 15.5084915,19.4575425 C15.1488494,19.8171846 14.7092933,19.997003 14.1898102,19.997003 L5.85814186,19.997003 C5.33865874,19.997003 4.8991027,19.8171846 4.53946054,19.4575425 C4.17981838,19.0979003 4,18.6650042 4,18.1588412 L4,1.83516484 C4,1.3290018 4.17981838,0.892775724 4.53946054,0.526473526 C4.8991027,0.160171329 5.33865874,-0.022977023 5.85814186,-0.022977023 L14.1898102,-0.022977023 Z M8.81518482,1.47552448 C8.70862418,1.47552448 8.61871499,1.50882418 8.54545455,1.57542458 C8.47219411,1.64202498 8.43556444,1.7286042 8.43556444,1.83516484 C8.43556444,1.94172547 8.47219411,2.03163467 8.54545455,2.1048951 C8.61871499,2.17815554 8.70862418,2.21478521 8.81518482,2.21478521 L11.032967,2.21478521 C11.1395277,2.21478521 11.2261069,2.17815554 11.2927073,2.1048951 C11.3593077,2.03163467 11.3926074,1.94172547 11.3926074,1.83516484 C11.3926074,1.7286042 11.3593077,1.64202498 11.2927073,1.57542458 C11.2261069,1.50882418 11.1395277,1.47552448 11.032967,1.47552448 L8.81518482,1.47552448 Z M9.91408591,19.2777223 C10.2204478,19.2777223 10.4835154,19.1678333 10.7032967,18.9480519 C10.923078,18.7282706 11.032967,18.465203 11.032967,18.1588412 C11.032967,17.8524793 10.923078,17.5927417 10.7032967,17.3796204 C10.4835154,17.1664991 10.2204478,17.0599401 9.91408591,17.0599401 C9.60772408,17.0599401 9.34798641,17.1664991 9.13486513,17.3796204 C8.92174386,17.5927417 8.81518482,17.8524793 8.81518482,18.1588412 C8.81518482,18.465203 8.92174386,18.7282706 9.13486513,18.9480519 C9.34798641,19.1678333 9.60772408,19.2777223 9.91408591,19.2777223 Z M14.4295704,16.020979 L14.4295704,3.99300699 L5.5984016,3.99300699 L5.61838162,16.020979 L14.4295704,16.020979 Z" id="" fill="#2B2826"></path>
            <g id="icons-/-Error_Mark" transform="translate(0.000000, 12.000000)" opacity="0">
                <circle id="Oval" fill="#FFFFFF" fill-rule="nonzero" cx="4" cy="4" r="4"></circle>
                <path d="M4.00666043,0.66666822 C4.60923891,0.667230482 5.16978374,0.820408594 5.68831169,1.12620713 C6.1900347,1.42368891 6.5896311,1.82328531 6.88711289,2.32500833 C7.19347473,2.84449144 7.34665335,3.4050364 7.34665335,4.00666001 C7.34665335,4.60828362 7.19347473,5.16882857 6.88711289,5.68831169 C6.5896311,6.1900347 6.1900347,6.5896311 5.68831169,6.88711289 C5.16882857,7.19347473 4.60828362,7.34665335 4.00666001,7.34665335 C3.4050364,7.34665335 2.84449144,7.19347473 2.32500833,6.88711289 C1.82328531,6.5896311 1.42368891,6.1900347 1.12620713,5.68831169 C0.819845288,5.16882857 0.666666667,4.60828362 0.666666667,4.00666001 C0.666666667,3.4050364 0.819845288,2.84449144 1.12620713,2.32500833 C1.42368891,1.82328531 1.82328531,1.42368891 2.32500833,1.12620713 C2.84353627,0.820408594 3.4040811,0.667230482 4.00665958,0.66666822 L4.00666043,0.66666822 Z M4.00666043,0.66666822 C4.00555043,0.666667185 4.00444029,0.666666667 4.00333,0.666666667 L4.00999001,0.666666667 C4.00887973,0.666666667 4.00776958,0.666667185 4.00665958,0.66666822 L4.00666043,0.66666822 Z M4.34299034,5.67499167 L4.34299034,5.00899101 L3.67032967,5.00899101 L3.67032967,5.67499167 L4.34299034,5.67499167 Z M4.34299034,4.34299034 L4.34299034,2.33832834 L3.67032967,2.33832834 L3.67032967,4.34299034 L4.34299034,4.34299034 Z" id="" fill="#F83200"></path>
            </g>
        </g>
    </g>
</svg>