<?xml version="1.0" encoding="UTF-8"?>
<svg width="20px" height="20px" viewBox="0 0 20 20" version="1.1" xmlns="http://www.w3.org/2000/svg" xmlns:xlink="http://www.w3.org/1999/xlink">
    <!-- Generator: Sketch 51.3 (57544) - http://www.bohemiancoding.com/sketch -->
    <title>icons / classes/ BMC_RemoteFileSystem_32</title>
    <desc>Created with Sketch.</desc>
    <defs></defs>
    <g id="icons-/-classes/-BMC_RemoteFileSystem_32" stroke="none" stroke-width="1" fill="none" fill-rule="evenodd">
        <g id="icons-/-classes/-Remote-File-System">
            <g id="icons-/-20x20-icon-field" fill="#F5A623" fill-rule="nonzero" opacity="0">
                <rect x="0" y="0" width="20" height="20"></rect>
            </g>
            <path d="M14.1666667,12.5 L17.5,12.5 L17.5,10.8333333 L14.1666667,10.8333333 L14.1666667,12.5 Z M19.1666667,8.33333333 L12.5,8.33333333 C12.0416667,8.33333333 11.6666667,8.70833333 11.6666667,9.16666667 L11.6666667,19.1666667 C11.6666667,19.625 12.0416667,20 12.5,20 L19.1666667,20 C19.625,20 20,19.625 20,19.1666667 L20,9.16666667 C20,8.70833333 19.625,8.33333333 19.1666667,8.33333333 Z M6.80833333,11.7333333 C6.65833333,12.0083333 6.575,12.3 6.575,12.6166667 C6.575,12.9333333 6.65833333,13.225 6.80833333,13.5 C6.96666667,13.7666667 7.175,13.975 7.45,14.1333333 C7.71666667,14.2916667 8.00833333,14.375 8.33333333,14.375 C8.65,14.375 8.94166667,14.2916667 9.20833333,14.1333333 C9.48333333,13.975 9.69166667,13.7666667 9.85,13.5 C9.90833333,13.3833333 9.96666667,13.2666667 10,13.15 L10,15.225 L9.99166667,15.225 C9.925,15.2083333 9.85833333,15.2166667 9.80833333,15.25 L9.24166667,15.475 C9.18333333,15.4916667 9.13333333,15.5333333 9.09166667,15.5833333 C9.05,15.6416667 9.03333333,15.7 9.03333333,15.7583333 L9.03333333,16.45 C9.03333333,16.5083333 9.00833333,16.5583333 8.96666667,16.6 C8.925,16.6416667 8.875,16.6666667 8.81666667,16.6666667 L7.85833333,16.6666667 C7.8,16.6666667 7.75,16.6416667 7.70833333,16.6 C7.66666667,16.5583333 7.64166667,16.5083333 7.64166667,16.45 L7.64166667,15.7583333 C7.64166667,15.7083333 7.625,15.65 7.58333333,15.5916667 C7.54166667,15.5333333 7.49166667,15.4916667 7.425,15.475 L6.85833333,15.25 C6.80833333,15.2166667 6.75,15.2083333 6.68333333,15.225 C6.61666667,15.2333333 6.55833333,15.2583333 6.50833333,15.2916667 L6.03333333,15.775 C5.98333333,15.825 5.93333333,15.8416667 5.875,15.8416667 C5.80833333,15.8416667 5.75833333,15.825 5.725,15.775 L5.05,15.1166667 C5.00833333,15.0666667 4.99166667,15.0166667 4.99166667,14.9583333 C4.99166667,14.8916667 5.00833333,14.8416667 5.05,14.8 L5.53333333,14.3166667 C5.575,14.275 5.6,14.2166667 5.60833333,14.15 C5.61666667,14.0833333 5.60833333,14.025 5.58333333,13.9666667 L5.35,13.4 C5.33333333,13.3416667 5.29166667,13.2916667 5.24166667,13.25 C5.18333333,13.2166667 5.125,13.1916667 5.06666667,13.1916667 L4.38333333,13.1916667 C4.325,13.1916667 4.26666667,13.175 4.225,13.1333333 C4.18333333,13.0916667 4.16666667,13.0333333 4.16666667,12.9666667 L4.16666667,12.025 C4.16666667,11.9583333 4.18333333,11.9083333 4.225,11.8666667 C4.26666667,11.825 4.325,11.8083333 4.38333333,11.8083333 L5.06666667,11.8083333 C5.125,11.8083333 5.18333333,11.7833333 5.24166667,11.7416667 C5.29166667,11.7 5.33333333,11.65 5.35,11.5916667 L5.58333333,11.0333333 C5.60833333,10.975 5.61666667,10.9166667 5.60833333,10.85 C5.6,10.775 5.575,10.725 5.53333333,10.6833333 L5.05,10.2 C5.00833333,10.1583333 4.99166667,10.1083333 4.99166667,10.0416667 C4.99166667,9.98333333 5.00833333,9.93333333 5.05,9.88333333 L5.725,9.21666667 C5.76666667,9.175 5.81666667,9.15833333 5.88333333,9.15833333 C5.94166667,9.15833333 5.99166667,9.175 6.03333333,9.21666667 L6.50833333,9.7 C6.55833333,9.74166667 6.61666667,9.76666667 6.68333333,9.775 C6.75,9.79166667 6.80833333,9.78333333 6.85833333,9.75 L7.425,9.525 C7.49166667,9.50833333 7.53333333,9.46666667 7.575,9.41666667 C7.61666667,9.35833333 7.63333333,9.3 7.63333333,9.24166667 L7.63333333,8.55 C7.63333333,8.49166667 7.65833333,8.43333333 7.7,8.39166667 C7.74166667,8.35 7.8,8.33333333 7.85833333,8.33333333 L8.80833333,8.33333333 C8.86666667,8.33333333 8.91666667,8.35 8.95833333,8.39166667 C9,8.43333333 9.025,8.49166667 9.025,8.55 L9.025,9.23333333 C9.025,9.29166667 9.04166667,9.35 9.08333333,9.40833333 C9.125,9.45833333 9.175,9.5 9.24166667,9.51666667 L9.8,9.74166667 C9.85,9.775 9.91666667,9.78333333 9.98333333,9.775 C9.99166667,9.775 9.99166667,9.775 10,9.76666667 L10,12.0833333 C9.96666667,11.9666667 9.90833333,11.85 9.85,11.7333333 C9.69166667,11.4666667 9.48333333,11.2583333 9.20833333,11.1 C8.94166667,10.9416667 8.65,10.8666667 8.33333333,10.8666667 C8.00833333,10.8666667 7.71666667,10.9416667 7.45,11.1 C7.175,11.2583333 6.96666667,11.4666667 6.80833333,11.7333333 Z M11.6666667,1.66666667 L15,5 L11.6666667,5 L11.6666667,1.66666667 Z M11.6666667,6.66666667 L16.6666667,6.66666667 L16.6666667,4.65 C16.6666667,4.44166667 16.5916667,4.25 16.4583333,4.1 L12.5666667,0.208333333 C12.4166667,0.075 12.225,0 12.0166667,0 L1.66666667,0 C0.75,0 0,0.75 0,1.66666667 L0,18.3333333 C0,19.25 0.75,20 1.66666667,20 L10.15,20 C10.05,19.7416667 10,19.4583333 10,19.1666667 L10,18.3333333 L1.66666667,18.3333333 L1.66666667,1.66666667 L10,1.66666667 L10,5 C10,5.91666667 10.75,6.66666667 11.6666667,6.66666667 Z" id="Fill-1" fill="#333333"></path>
        </g>
        <g id="icons-/-Error_Mark" transform="translate(0.000000, 12.000000)" opacity="0">
            <circle id="Oval" fill="#FFFFFF" fill-rule="nonzero" cx="4" cy="4" r="4"></circle>
            <path d="M4.00666043,0.66666822 C4.60923891,0.667230482 5.16978374,0.820408594 5.68831169,1.12620713 C6.1900347,1.42368891 6.5896311,1.82328531 6.88711289,2.32500833 C7.19347473,2.84449144 7.34665335,3.4050364 7.34665335,4.00666001 C7.34665335,4.60828362 7.19347473,5.16882857 6.88711289,5.68831169 C6.5896311,6.1900347 6.1900347,6.5896311 5.68831169,6.88711289 C5.16882857,7.19347473 4.60828362,7.34665335 4.00666001,7.34665335 C3.4050364,7.34665335 2.84449144,7.19347473 2.32500833,6.88711289 C1.82328531,6.5896311 1.42368891,6.1900347 1.12620713,5.68831169 C0.819845288,5.16882857 0.666666667,4.60828362 0.666666667,4.00666001 C0.666666667,3.4050364 0.819845288,2.84449144 1.12620713,2.32500833 C1.42368891,1.82328531 1.82328531,1.42368891 2.32500833,1.12620713 C2.84353627,0.820408594 3.4040811,0.667230482 4.00665958,0.66666822 L4.00666043,0.66666822 Z M4.00666043,0.66666822 C4.00555043,0.666667185 4.00444029,0.666666667 4.00333,0.666666667 L4.00999001,0.666666667 C4.00887973,0.666666667 4.00776958,0.666667185 4.00665958,0.66666822 L4.00666043,0.66666822 Z M4.34299034,5.67499167 L4.34299034,5.00899101 L3.67032967,5.00899101 L3.67032967,5.67499167 L4.34299034,5.67499167 Z M4.34299034,4.34299034 L4.34299034,2.33832834 L3.67032967,2.33832834 L3.67032967,4.34299034 L4.34299034,4.34299034 Z" id="" fill="#F83200"></path>
        </g>
    </g>
</svg>