<?xml version="1.0" encoding="UTF-8"?>
<svg width="20px" height="20px" viewBox="0 0 20 20" version="1.1" xmlns="http://www.w3.org/2000/svg" xmlns:xlink="http://www.w3.org/1999/xlink">
    <!-- Generator: Sketch 51.3 (57544) - http://www.bohemiancoding.com/sketch -->
    <title>icons / classes/ BMC_HardwareSystemComponent_32</title>
    <desc>Created with Sketch.</desc>
    <defs>
        <polygon id="path-1" points="0 0 20 0 20 19.9995833 0 19.9995833"></polygon>
    </defs>
    <g id="icons-/-classes/-BMC_HardwareSystemComponent_32" stroke="none" stroke-width="1" fill="none" fill-rule="evenodd">
        <g id="icons-/-classes/-Hardware-System-Com">
            <g id="icons-/-20x20-icon-field" fill="#F5A623" fill-rule="nonzero" opacity="0">
                <rect x="0" y="0" width="20" height="20"></rect>
            </g>
            <g id="Group-3">
                <mask id="mask-2" fill="white">
                    <use xlink:href="#path-1"></use>
                </mask>
                <g id="Clip-2"></g>
                <path d="M17.95,11.0579167 L17.55,11.4579167 L19.5833333,13.4920833 C19.95,13.8579167 19.95,14.4754167 19.5833333,14.84125 L17.55,16.8745833 L17.15,16.4745833 C17.4083333,15.94125 17.3166667,15.2829167 16.875,14.84125 C16.5916667,14.5670833 16.225,14.4245833 15.8583333,14.4245833 C15.5583333,14.4245833 15.25,14.51625 15,14.7170833 C14.9416667,14.7504167 14.8916667,14.79125 14.8416667,14.84125 C14.2833333,15.40875 14.2833333,16.30875 14.8416667,16.8745833 C14.8833333,16.91625 14.9333333,16.9579167 14.9833333,16.99125 C15.2416667,17.19125 15.55,17.29125 15.85,17.29125 C16.0666667,17.29125 16.275,17.2504167 16.475,17.1504167 L16.875,17.5495833 L14.8416667,19.5829167 C14.6583333,19.76625 14.4083333,19.85875 14.1666667,19.85875 C13.925,19.85875 13.675,19.76625 13.4916667,19.5829167 L11.4583333,17.5495833 L11.0583333,17.9504167 C11.1166667,18.0754167 11.1583333,18.1995833 11.175,18.3329167 C11.225,18.60875 11.1916667,18.8995833 11.0666667,19.16625 C11.0083333,19.3079167 10.9166667,19.4420833 10.8083333,19.5579167 C10.8,19.5670833 10.7916667,19.5754167 10.7833333,19.5829167 C10.5833333,19.7754167 10.3416667,19.9079167 10.0833333,19.96625 C9.975,19.9920833 9.875,19.9995833 9.76666667,19.9995833 C9.525,19.9995833 9.29166667,19.94125 9.075,19.8170833 C8.95833333,19.7579167 8.85,19.68375 8.75,19.5829167 C8.625,19.4579167 8.525,19.31625 8.46666667,19.16625 C8.36666667,18.9579167 8.325,18.7420833 8.33333333,18.5254167 C8.33333333,18.45875 8.34166667,18.4004167 8.35833333,18.3329167 C8.38333333,18.10875 8.475,17.9004167 8.61666667,17.7079167 C8.65833333,17.6495833 8.7,17.6004167 8.75,17.5495833 C8.76666667,17.53375 8.78333333,17.51625 8.80833333,17.4995833 C8.96666667,17.35875 9.15833333,17.2579167 9.35,17.1995833 C9.48333333,17.1504167 9.625,17.1329167 9.75833333,17.1329167 C9.975,17.1329167 10.1833333,17.18375 10.3833333,17.2754167 L10.7833333,16.8745833 L8.75,14.84125 C8.38333333,14.4754167 8.38333333,13.8579167 8.75,13.4920833 L10.7833333,11.4579167 L11.1833333,11.85875 C10.925,12.3920833 11.0166667,13.0504167 11.4583333,13.4920833 C11.6416667,13.6754167 11.8583333,13.79125 12.0833333,13.8504167 C12.2083333,13.89125 12.3416667,13.90875 12.475,13.90875 C12.775,13.90875 13.0833333,13.8170833 13.3333333,13.61625 C13.3916667,13.5829167 13.4416667,13.54125 13.4916667,13.4920833 C13.9833333,12.99125 14.0416667,12.2245833 13.6583333,11.66625 C13.6083333,11.5920833 13.5583333,11.5254167 13.4916667,11.4579167 C13.4416667,11.40875 13.3916667,11.36625 13.3333333,11.3329167 C13.0833333,11.1420833 12.775,11.04125 12.4833333,11.04125 C12.35,11.04125 12.2166667,11.0579167 12.0833333,11.1004167 C12.0083333,11.11625 11.9333333,11.1495833 11.8583333,11.1829167 L11.6833333,11.0079167 L11.4583333,10.78375 L13.4916667,8.74958333 C13.675,8.56708333 13.925,8.47458333 14.1666667,8.47458333 C14.4083333,8.47458333 14.6583333,8.56708333 14.8416667,8.74958333 L16.875,10.78375 L17.275,10.3829167 C17.0166667,9.85041667 17.1083333,9.19208333 17.55,8.74958333 C17.8333333,8.47458333 18.2,8.33291667 18.5666667,8.33291667 C18.9333333,8.33291667 19.3,8.47458333 19.5833333,8.74958333 C19.8666667,9.03291667 20,9.40041667 20,9.76625 C20,10.13375 19.8666667,10.4995833 19.5833333,10.78375 C19.3,11.0579167 18.9333333,11.2004167 18.575,11.2004167 C18.3583333,11.2004167 18.15,11.1495833 17.95,11.0579167 Z M1.25,16.2495833 L7.70833333,16.2495833 C7.65833333,16.29125 7.61666667,16.3329167 7.575,16.3754167 C7.48333333,16.46625 7.39166667,16.56625 7.31666667,16.66625 C7.11666667,16.9245833 6.95833333,17.20875 6.85833333,17.4995833 L3.65833333,17.4995833 L0.783333333,17.4995833 C0.35,17.4995833 0,17.1504167 0,16.71625 L0,8.28375 C0,7.84958333 0.35,7.49958333 0.783333333,7.49958333 L11.6666667,7.49958333 L12.3916667,7.49958333 C12.3666667,7.52541667 12.3333333,7.54958333 12.3083333,7.57458333 L11.6666667,8.21708333 L11.1416667,8.74958333 L1.25,8.74958333 L1.25,16.2495833 Z M6.725,19.16625 C6.78333333,19.4495833 6.875,19.7329167 7.01666667,19.9995833 L4.16666667,19.9995833 L4.58333333,19.16625 L4.76666667,18.79125 C4.90833333,18.5079167 5.2,18.3329167 5.51666667,18.3329167 L6.68333333,18.3329167 C6.65833333,18.61625 6.675,18.89125 6.725,19.16625 Z M14.1666667,4.16625 L17.5,4.16625 L17.5,2.49958333 L14.1666667,2.49958333 L14.1666667,4.16625 Z M19.1666667,-0.000416666667 L12.5,-0.000416666667 C12.0416667,-0.000416666667 11.6666667,0.375416667 11.6666667,0.832916667 L11.6666667,5.83291667 L12.55,5.83291667 C13.3583333,5.83291667 14.0833333,6.23375 14.525,6.84125 C15.0916667,6.90875 15.6083333,7.16625 16.025,7.57458333 L16.2,7.75791667 C16.2583333,7.69208333 16.3166667,7.63375 16.375,7.57458333 C16.9583333,6.99125 17.7333333,6.66625 18.5666667,6.66625 C19.075,6.66625 19.5666667,6.79208333 20,7.02458333 L20,0.832916667 C20,0.375416667 19.625,-0.000416666667 19.1666667,-0.000416666667 Z" id="Fill-1" fill="#333333" mask="url(#mask-2)"></path>
            </g>
        </g>
        <g id="icons-/-Error_Mark" transform="translate(0.000000, 12.000000)" opacity="0">
            <circle id="Oval" fill="#FFFFFF" fill-rule="nonzero" cx="4" cy="4" r="4"></circle>
            <path d="M4.00666043,0.66666822 C4.60923891,0.667230482 5.16978374,0.820408594 5.68831169,1.12620713 C6.1900347,1.42368891 6.5896311,1.82328531 6.88711289,2.32500833 C7.19347473,2.84449144 7.34665335,3.4050364 7.34665335,4.00666001 C7.34665335,4.60828362 7.19347473,5.16882857 6.88711289,5.68831169 C6.5896311,6.1900347 6.1900347,6.5896311 5.68831169,6.88711289 C5.16882857,7.19347473 4.60828362,7.34665335 4.00666001,7.34665335 C3.4050364,7.34665335 2.84449144,7.19347473 2.32500833,6.88711289 C1.82328531,6.5896311 1.42368891,6.1900347 1.12620713,5.68831169 C0.819845288,5.16882857 0.666666667,4.60828362 0.666666667,4.00666001 C0.666666667,3.4050364 0.819845288,2.84449144 1.12620713,2.32500833 C1.42368891,1.82328531 1.82328531,1.42368891 2.32500833,1.12620713 C2.84353627,0.820408594 3.4040811,0.667230482 4.00665958,0.66666822 L4.00666043,0.66666822 Z M4.00666043,0.66666822 C4.00555043,0.666667185 4.00444029,0.666666667 4.00333,0.666666667 L4.00999001,0.666666667 C4.00887973,0.666666667 4.00776958,0.666667185 4.00665958,0.66666822 L4.00666043,0.66666822 Z M4.34299034,5.67499167 L4.34299034,5.00899101 L3.67032967,5.00899101 L3.67032967,5.67499167 L4.34299034,5.67499167 Z M4.34299034,4.34299034 L4.34299034,2.33832834 L3.67032967,2.33832834 L3.67032967,4.34299034 L4.34299034,4.34299034 Z" id="" fill="#F83200"></path>
        </g>
    </g>
</svg>