<?xml version="1.0" encoding="UTF-8"?>
<svg width="20px" height="20px" viewBox="0 0 20 20" version="1.1" xmlns="http://www.w3.org/2000/svg" xmlns:xlink="http://www.w3.org/1999/xlink">
    <!-- Generator: Sketch 51.3 (57544) - http://www.bohemiancoding.com/sketch -->
    <title>icons / classes/ BMC_ContractLine_32</title>
    <desc>Created with Sketch.</desc>
    <defs>
        <polygon id="path-1" points="0 0.00025 16.6666667 0.00025 16.6666667 20 0 20"></polygon>
    </defs>
    <g id="icons-/-classes/-BMC_ContractLine_32" stroke="none" stroke-width="1" fill="none" fill-rule="evenodd">
        <g id="icons-/-classes/-file_contract_line">
            <g id="icons-/-20x20-icon-field" fill="#F5A623" fill-rule="nonzero" opacity="0">
                <rect x="0" y="0" width="20" height="20"></rect>
            </g>
            <g id="Group-3" transform="translate(2.000000, 0.000000)">
                <mask id="mask-2" fill="white">
                    <use xlink:href="#path-1"></use>
                </mask>
                <g id="Clip-2"></g>
                <path d="M14.15,11.4835833 C14.1083333,11.3585833 14.0166667,11.2419167 13.8833333,11.15025 C13.6833333,10.9919167 13.4333333,10.8585833 13.125,10.7669167 L13.0416667,10.75025 L13.0833333,10.6669167 C13.2333333,10.37525 13.325,10.1085833 13.3583333,9.86691667 C13.3833333,9.69191667 13.3583333,9.54191667 13.2833333,9.41691667 C13.2666667,9.37525 13.2416667,9.33358333 13.2083333,9.30025 C13.1666667,9.25858333 13.125,9.22525 13.0666667,9.19191667 C12.9916667,9.15025 12.9,9.13358333 12.8,9.13358333 C12.75,9.13358333 12.6916667,9.14108333 12.6333333,9.15025 C12.5916667,9.15858333 12.5416667,9.16691667 12.5,9.18275 C12.2916667,9.22525 12.0666667,9.30858333 11.825,9.43358333 L11.7416667,9.47525 L11.725,9.37525 C11.7,9.30025 11.675,9.23358333 11.65,9.16691667 C11.575,8.95025 11.4666667,8.76608333 11.35,8.62441667 C11.2,8.43358333 11.025,8.33358333 10.8333333,8.33358333 C10.6416667,8.33358333 10.4666667,8.43358333 10.325,8.62441667 C10.2083333,8.76608333 10.1083333,8.95025 10.025,9.16691667 C9.99166667,9.23358333 9.96666667,9.30025 9.94166667,9.37525 L9.925,9.47525 L9.84166667,9.43358333 C9.60833333,9.30858333 9.38333333,9.21608333 9.18333333,9.16691667 C9.13333333,9.15858333 9.09166667,9.15025 9.04166667,9.14108333 C9,9.13358333 8.95833333,9.13358333 8.91666667,9.13358333 C8.83333333,9.13358333 8.75833333,9.14108333 8.69166667,9.16691667 C8.65833333,9.17441667 8.61666667,9.19191667 8.58333333,9.21608333 C8.54166667,9.23358333 8.5,9.26691667 8.46666667,9.30025 C8.43333333,9.33358333 8.40833333,9.36691667 8.38333333,9.40858333 C8.30833333,9.53358333 8.28333333,9.69191667 8.30833333,9.88358333 C8.34166667,10.12525 8.43333333,10.3910833 8.58333333,10.6669167 L8.61666667,10.75025 L8.54166667,10.7669167 C8.475,10.7919167 8.41666667,10.80775 8.35833333,10.8335833 C8.125,10.92525 7.93333333,11.0335833 7.78333333,11.15025 C7.65833333,11.2419167 7.575,11.3585833 7.51666667,11.4835833 L7.5,11.6669167 C7.5,11.8669167 7.6,12.0419167 7.79166667,12.1835833 C7.95833333,12.3169167 8.16666667,12.4169167 8.425,12.50025 C8.46666667,12.5160833 8.5,12.5335833 8.54166667,12.5419167 L8.64166667,12.58275 L8.58333333,12.6669167 C8.45833333,12.9085833 8.38333333,13.12525 8.34166667,13.3335833 C8.33333333,13.37525 8.325,13.42525 8.31666667,13.4669167 C8.30833333,13.5669167 8.30833333,13.6669167 8.33333333,13.75025 C8.35,13.8585833 8.4,13.95025 8.475,14.02525 L8.48333333,14.0335833 C8.50833333,14.0585833 8.53333333,14.0835833 8.56666667,14.10775 C8.6,14.1335833 8.64166667,14.15025 8.68333333,14.1669167 C8.74166667,14.18275 8.80833333,14.20025 8.88333333,14.20025 C8.93333333,14.20025 8.98333333,14.1919167 9.04166667,14.18275 C9.06666667,14.1744167 9.09166667,14.1744167 9.11666667,14.1669167 L9.16666667,14.1669167 L9.16666667,14.1585833 C9.375,14.10775 9.6,14.02525 9.84166667,13.8994167 L9.925,13.8585833 L9.94166667,13.9419167 C9.96666667,14.0169167 10,14.10025 10.025,14.1669167 C10.1166667,14.38275 10.2083333,14.5669167 10.3166667,14.7085833 C10.4416667,14.8919167 10.6,14.9919167 10.775,15.00025 L10.875,15.00025 C11.0583333,14.9835833 11.2166667,14.8835833 11.3666667,14.6994167 C11.475,14.5669167 11.5666667,14.38275 11.65,14.1669167 C11.675,14.10025 11.7,14.0169167 11.725,13.9419167 L11.7666667,13.8585833 L11.8416667,13.8994167 C12.0833333,14.0335833 12.3083333,14.1169167 12.5,14.1669167 C12.55,14.1744167 12.5916667,14.18275 12.6333333,14.1919167 C12.675,14.20025 12.7166667,14.20025 12.7583333,14.20025 C12.8333333,14.20025 12.9083333,14.1919167 12.975,14.1669167 C13.025,14.15025 13.0666667,14.12525 13.1083333,14.10025 C13.1416667,14.0835833 13.175,14.05025 13.2083333,14.02525 L13.225,14.00025 L13.2666667,13.9419167 L13.325,13.8585833 L13.35,13.75775 L13.35,13.75025 L13.3666667,13.5835833 L13.3666667,13.4669167 C13.3583333,13.42525 13.35,13.38275 13.3333333,13.3335833 C13.3083333,13.1919167 13.25,13.03275 13.1833333,12.8669167 L13.0416667,12.5669167 L13.125,12.5419167 C13.4333333,12.45025 13.6833333,12.32525 13.875,12.17525 C14.0666667,12.0244167 14.1666667,11.8494167 14.1666667,11.6669167 L14.1583333,11.4835833 L14.15,11.4835833 Z M8.33333333,15.00025 L8.33333333,20.00025 L10.8333333,18.3335833 L13.3333333,20.00025 L13.3333333,15.00025 C12.6416667,15.52525 11.775,15.8335833 10.8333333,15.8335833 C9.89166667,15.8335833 9.025,15.52525 8.33333333,15.00025 Z M4.16666667,14.1669167 L5.83333333,14.1669167 L5.83333333,13.3335833 L4.16666667,13.3335833 L4.16666667,14.1669167 Z M4.16666667,6.66691667 L5.83333333,6.66691667 L5.83333333,5.83358333 L4.16666667,5.83358333 L4.16666667,6.66691667 Z M4.16666667,9.16691667 L5,9.16691667 L5,7.50025 L4.16666667,7.50025 L4.16666667,9.16691667 Z M4.16666667,12.50025 L5,12.50025 L5,10.8335833 L4.16666667,10.8335833 L4.16666667,12.50025 Z M10.8333333,6.66691667 L12.5,6.66691667 L12.5,5.83358333 L10.8333333,5.83358333 L10.8333333,6.66691667 Z M7.5,6.66691667 L9.16666667,6.66691667 L9.16666667,5.83358333 L7.5,5.83358333 L7.5,6.66691667 Z M16.6666667,1.66691667 L16.6666667,18.3335833 C16.6666667,19.2494167 15.9166667,20.00025 15,20.00025 L15,14.0335833 L15,9.35858333 L15,1.66691667 L1.66666667,1.66691667 L1.66666667,18.3335833 L6.66666667,18.3335833 L6.66666667,20.00025 L1.66666667,20.00025 C0.75,20.00025 0,19.2494167 0,18.3335833 L0,1.66691667 C0,0.75025 0.75,0.00025 1.66666667,0.00025 L15,0.00025 C15.9166667,0.00025 16.6666667,0.75025 16.6666667,1.66691667 Z" id="Fill-1" fill="#333333" mask="url(#mask-2)"></path>
            </g>
        </g>
        <g id="icons-/-Error_Mark" transform="translate(0.000000, 12.000000)" opacity="0">
            <circle id="Oval" fill="#FFFFFF" fill-rule="nonzero" cx="4" cy="4" r="4"></circle>
            <path d="M4.00666043,0.66666822 C4.60923891,0.667230482 5.16978374,0.820408594 5.68831169,1.12620713 C6.1900347,1.42368891 6.5896311,1.82328531 6.88711289,2.32500833 C7.19347473,2.84449144 7.34665335,3.4050364 7.34665335,4.00666001 C7.34665335,4.60828362 7.19347473,5.16882857 6.88711289,5.68831169 C6.5896311,6.1900347 6.1900347,6.5896311 5.68831169,6.88711289 C5.16882857,7.19347473 4.60828362,7.34665335 4.00666001,7.34665335 C3.4050364,7.34665335 2.84449144,7.19347473 2.32500833,6.88711289 C1.82328531,6.5896311 1.42368891,6.1900347 1.12620713,5.68831169 C0.819845288,5.16882857 0.666666667,4.60828362 0.666666667,4.00666001 C0.666666667,3.4050364 0.819845288,2.84449144 1.12620713,2.32500833 C1.42368891,1.82328531 1.82328531,1.42368891 2.32500833,1.12620713 C2.84353627,0.820408594 3.4040811,0.667230482 4.00665958,0.66666822 L4.00666043,0.66666822 Z M4.00666043,0.66666822 C4.00555043,0.666667185 4.00444029,0.666666667 4.00333,0.666666667 L4.00999001,0.666666667 C4.00887973,0.666666667 4.00776958,0.666667185 4.00665958,0.66666822 L4.00666043,0.66666822 Z M4.34299034,5.67499167 L4.34299034,5.00899101 L3.67032967,5.00899101 L3.67032967,5.67499167 L4.34299034,5.67499167 Z M4.34299034,4.34299034 L4.34299034,2.33832834 L3.67032967,2.33832834 L3.67032967,4.34299034 L4.34299034,4.34299034 Z" id="" fill="#F83200"></path>
        </g>
    </g>
</svg>