<svg xmlns="http://www.w3.org/2000/svg" width="32" height="32" viewBox="0 0 32 32">
<path d="M16-0.016c-8.809 0-16.016 7.207-16.016 16.016s7.207 16.016 16.016 16.016c8.809 0 16.016-7.207 16.016-16.016s-7.207-16.016-16.016-16.016v0zM17.501 23.908h-3.103v-3.103h3.103v3.103zM20.605 14.899c-0.3 0.3-0.801 0.801-1.501 1.401l-0.701 0.601c-0.4 0.3-0.701 0.801-0.801 1.101s-0.2 0.5-0.2 1.301h-2.803c0.1-1.201 0.2-2.002 0.3-2.502 0.2-0.4 0.701-1.001 1.401-1.602l0.801-0.601c0.3-0.2 0.4-0.4 0.601-0.701 0.3-0.3 0.4-0.801 0.4-1.301s-0.2-1.001-0.5-1.401c-0.3-0.4-0.801-0.701-1.702-0.701-0.801 0-1.301 0.3-1.702 0.801-0.3 0.601-0.501 0.901-0.501 1.702h-2.903c0.1-1.902 0.801-3.503 2.102-4.304 0.801-0.4 1.802-0.701 3.003-0.701 1.602 0 2.803 0.3 3.904 1.101s1.602 1.802 1.602 3.303c-0.1 1.101-0.4 1.902-0.801 2.502z"></path>
</svg>
