<svg xmlns="http://www.w3.org/2000/svg" width="26" height="32" viewBox="0 0 26 32">
<path d="M17.003-0.016h-14.291c-1.478 0-2.71 1.232-2.71 2.71v26.611c0 1.478 1.232 2.71 2.71 2.71h20.451c1.478 0 2.71-1.232 2.71-2.71v-20.451c0-0.739-0.246-1.478-0.862-2.094l-5.913-5.913c-0.616-0.616-1.232-0.862-2.094-0.862zM18.481 3.557l3.696 3.819h-3.696v-3.819zM23.532 29.305c0 0.123-0.123 0.37-0.37 0.37h-20.451c-0.123 0-0.37-0.123-0.37-0.37v-26.611c0-0.246 0.123-0.37 0.37-0.37h13.059c0.123 0 0.246 0 0.37 0v6.16c0 0.616 0.493 1.232 1.232 1.232h6.283v19.588h-0.123zM20.724 17.096c0-0.899-0.887-1.639-2.563-2.144l0.025-0.037c1.010-1.934 0.702-2.87 0.259-3.314-0.628-0.628-1.799-0.542-3.339 0.271-0.517-1.675-1.269-2.55-2.168-2.55s-1.651 0.887-2.168 2.55c-1.54-0.813-2.71-0.912-3.339-0.271-0.444 0.444-0.764 1.38 0.259 3.314 0.012 0.012 0.012 0.025 0.025 0.037-1.675 0.505-2.563 1.244-2.563 2.144s0.887 1.651 2.55 2.168l-0.012 0.025c-1.010 1.934-0.702 2.87-0.259 3.314 0.628 0.628 1.774 0.554 3.314-0.259 0.012 0 0.012-0.012 0.025-0.012 0.517 1.663 1.269 2.55 2.168 2.55s1.651-0.875 2.168-2.55l0.025 0.012c1.54 0.801 2.686 0.887 3.314 0.259 0.444-0.444 0.752-1.38-0.259-3.314 0-0.012-0.012-0.012-0.012-0.025 1.663-0.517 2.55-1.269 2.55-2.168zM19.516 17.096c0 0.222-0.542 0.702-1.983 1.109-0.234-0.345-0.493-0.715-0.801-1.109 0.296-0.382 0.567-0.752 0.801-1.109 1.441 0.407 1.983 0.887 1.983 1.109zM15.759 15.926c0-0.099-0.012-0.197-0.012-0.296 0.197 0.025 0.37 0.049 0.53 0.074-0.111 0.16-0.209 0.296-0.32 0.431-0.074-0.062-0.136-0.136-0.197-0.209zM15.734 18.562c0-0.099 0.012-0.197 0.012-0.296 0.062-0.074 0.136-0.148 0.197-0.222 0.111 0.136 0.209 0.283 0.32 0.444-0.16 0.025-0.333 0.049-0.53 0.074zM17.114 14.349c-0.049 0.099-0.111 0.197-0.16 0.296-0.407-0.074-0.85-0.148-1.318-0.197-0.062-0.493-0.136-0.961-0.222-1.367 0.801-0.456 1.491-0.702 1.897-0.702 0.136 0 0.234 0.025 0.283 0.074 0.086 0.086 0.185 0.628-0.48 1.897zM15.623 19.782c0.48-0.062 0.924-0.136 1.343-0.209 0.049 0.099 0.111 0.185 0.148 0.271 0.665 1.269 0.567 1.811 0.468 1.897-0.025 0.025-0.394 0.32-1.91-0.468-0.086-0.049-0.185-0.099-0.271-0.148 0.099-0.419 0.16-0.862 0.222-1.343zM12.938 23.675c-0.222 0-0.702-0.542-1.109-1.983 0.345-0.234 0.715-0.505 1.109-0.801 0.394 0.308 0.764 0.579 1.109 0.801-0.407 1.441-0.887 1.983-1.109 1.983zM13.615 18.735c-0.444 0.012-0.912 0.012-1.355 0-0.16-0.148-0.32-0.308-0.48-0.468s-0.32-0.32-0.468-0.48c0-0.222-0.012-0.444-0.012-0.678s0-0.456 0.012-0.678c0.148-0.16 0.308-0.32 0.468-0.48s0.32-0.32 0.48-0.468c0.444-0.012 0.912-0.012 1.355 0 0.16 0.148 0.32 0.308 0.493 0.468 0.16 0.16 0.32 0.32 0.468 0.48 0 0.222 0.012 0.444 0.012 0.678s0 0.456-0.012 0.678c-0.148 0.16-0.308 0.32-0.468 0.493s-0.333 0.296-0.493 0.456zM12.938 10.518c0.222 0 0.702 0.542 1.109 1.983-0.345 0.234-0.727 0.505-1.109 0.801-0.382-0.308-0.764-0.567-1.109-0.801 0.407-1.441 0.887-1.983 1.109-1.983zM14.145 14.325c-0.086-0.074-0.172-0.16-0.259-0.234 0.148-0.111 0.283-0.209 0.431-0.32 0.025 0.172 0.049 0.357 0.086 0.567-0.086 0-0.172-0.012-0.259-0.012zM11.471 14.337c0.025-0.209 0.049-0.394 0.086-0.567 0.148 0.099 0.283 0.209 0.431 0.32-0.086 0.074-0.172 0.16-0.259 0.234-0.086 0-0.172 0.012-0.259 0.012zM11.779 19.918c0.074 0.062 0.148 0.136 0.222 0.197-0.148 0.111-0.283 0.209-0.444 0.32-0.025-0.16-0.049-0.333-0.074-0.53 0.086 0 0.185 0 0.296 0.012zM14.404 19.893c-0.025 0.197-0.049 0.37-0.074 0.53-0.16-0.111-0.296-0.209-0.444-0.32 0.074-0.062 0.148-0.136 0.222-0.197 0.099 0 0.197 0 0.296-0.012zM10.116 18.255v0c0.012 0.111 0.012 0.209 0.025 0.308-0.197-0.025-0.37-0.049-0.53-0.074 0.111-0.16 0.222-0.308 0.32-0.444 0.062 0.074 0.123 0.136 0.185 0.209zM10.141 15.63c0 0.099-0.012 0.197-0.012 0.296-0.074 0.074-0.136 0.148-0.209 0.222-0.099-0.136-0.209-0.283-0.32-0.431 0.172-0.037 0.357-0.062 0.542-0.086zM10.252 14.448c-0.468 0.049-0.924 0.123-1.331 0.197-0.062-0.099-0.111-0.197-0.16-0.296-0.665-1.281-0.567-1.811-0.468-1.91 0.049-0.049 0.148-0.074 0.283-0.074 0.419 0 1.109 0.259 1.897 0.702-0.099 0.419-0.172 0.887-0.222 1.38zM8.342 15.988c0.234 0.345 0.505 0.715 0.801 1.109-0.308 0.382-0.567 0.764-0.801 1.109-1.441-0.407-1.983-0.887-1.983-1.109s0.542-0.702 1.983-1.109zM8.761 19.844c0.049-0.086 0.099-0.185 0.148-0.271 0.419 0.086 0.862 0.16 1.343 0.209 0.062 0.48 0.123 0.936 0.209 1.343-0.099 0.049-0.185 0.111-0.271 0.148-1.355 0.715-1.823 0.554-1.91 0.468s-0.197-0.616 0.48-1.897z"></path>
</svg>
