<svg xmlns="http://www.w3.org/2000/svg" width="32" height="32" viewBox="0 0 32 32">
<path d="M31.776 28.813l-8.697-8.697c3.668-5.029 3.203-11.9-1.377-16.48-2.514-2.514-5.718-3.652-8.921-3.652-3.427 0-6.871 1.377-9.385 4.116-4.34 4.805-4.34 12.124 0 17.153 2.514 2.755 5.958 4.132 9.385 4.132 2.514 0 5.269-0.913 7.319-2.29l8.697 8.697c0.224 0.224 0.913 0.224 1.377 0l1.602-1.602c0.224-0.464 0.224-0.913 0-1.377zM6.151 19.427c-3.668-3.668-3.668-9.609 0-13.277 1.826-1.826 4.116-2.739 6.63-2.739s4.805 0.913 6.63 2.739c3.668 3.668 3.668 9.609 0 13.277-1.826 1.602-4.116 2.739-6.63 2.739s-5.029-1.137-6.63-2.739zM14.111 18.771h-2.899v-2.867h2.899v2.867zM14.111 13.982h-2.899v-7.688h2.899v7.688z"></path>
</svg>
