<svg xmlns="http://www.w3.org/2000/svg" width="26" height="32" viewBox="0 0 26 32">
<path d="M6.531-0.016h-3.812c-1.473 0-2.723 1.217-2.723 2.723v9.609c0 1.473 1.217 2.466 2.723 2.466h6.15c1.473 0 2.595-0.993 2.595-2.466v-7.399l-4.933-4.933zM8.998 12.316h-6.534c0 0 0-7.399 0-9.866 0 0 2.21 0 3.459 0v3.075h3.075v6.791zM20.945 17.217h-3.812c-1.473 0-2.723 1.217-2.723 2.723v9.609c0 1.473 1.217 2.466 2.723 2.466h6.15c1.473 0 2.595-0.993 2.595-2.466v-7.399l-4.933-4.933zM23.412 29.549h-6.534c0 0 0-7.399 0-9.866 0 0 2.21 0 3.459 0v3.075h3.075v6.791zM15.436 2.355c4.004 0 7.303 3.267 7.303 7.303 0 0.609-0.48 1.089-1.089 1.089s-1.089-0.48-1.089-1.089c0-2.819-2.274-5.093-5.093-5.093-0.609 0-1.089-0.48-1.089-1.089s0.448-1.121 1.057-1.121zM25.75 9.658l-4.132 5.157-4.132-5.157h8.264zM10.439 29.87c-4.004 0-7.303-3.267-7.303-7.303 0-0.609 0.48-1.089 1.089-1.089s1.089 0.48 1.089 1.089c0 2.819 2.274 5.093 5.093 5.093 0.609 0 1.089 0.48 1.089 1.089s-0.448 1.121-1.057 1.121zM0.125 22.598l4.132-5.157 4.132 5.157h-8.264z"></path>
</svg>
