<svg xmlns="http://www.w3.org/2000/svg" width="26" height="32" viewBox="0 0 26 32">
<path d="M17.003-0.016h-14.291c-1.478 0-2.71 1.232-2.71 2.71v26.611c0 1.478 1.232 2.71 2.71 2.71h20.451c1.478 0 2.71-1.232 2.71-2.71v-20.451c0-0.739-0.246-1.478-0.862-2.094l-5.913-5.913c-0.616-0.616-1.232-0.862-2.094-0.862zM18.481 3.557l3.696 3.819h-3.696v-3.819zM23.532 29.305c0 0.123-0.123 0.37-0.37 0.37h-20.451c-0.123 0-0.37-0.123-0.37-0.37v-26.611c0-0.246 0.123-0.37 0.37-0.37h13.059c0.123 0 0.246 0 0.37 0v6.16c0 0.616 0.493 1.232 1.232 1.232h6.283c0 0 0 0 0 0v19.588zM18.605 14.275l0.986-0.986c0.246 0.986-0.123 1.971-0.862 2.834-0.739 0.739-1.848 1.109-2.834 0.862l-4.312 4.312c0.246 0.986-0.123 1.971-0.862 2.834-0.739 0.739-1.848 1.109-2.834 0.862l0.986-0.986c0.616-0.616 0.616-1.602 0.123-2.094s-1.478-0.493-2.094 0.123l-0.986 0.986c-0.246-0.986 0.123-2.094 0.862-2.834s1.848-0.986 2.834-0.862l4.312-4.312c-0.246-0.986 0.123-1.971 0.862-2.834 0.739-0.739 1.848-1.109 2.834-0.862l-0.986 0.986c-0.616 0.616-0.616 1.602-0.123 2.094 0.616 0.493 1.478 0.493 2.094-0.123z"></path>
</svg>
