<svg version="1.1" id="Layer_1" xmlns="http://www.w3.org/2000/svg" xmlns:xlink="http://www.w3.org/1999/xlink" x="0px" y="0px"
	 viewBox="0 0 24 24" style="enable-background:new 0 0 24 24;" xml:space="preserve">
<g id="Combined-Shape">
	<g>
		<g>
			<polygon class="st0" points="22.8,14.7 16.3,20.9 13.4,18.3 12.2,19.5 16.5,23.9 24,15.9 			"/>
			<path class="st0" d="M10.7,19.5l-1.4,0.2v-9.5l0,0l9.3-1.1v7l1.7-1.7V8.8l2.8-4.6c0.1-0.2,0.1-0.4,0-0.7c0-0.2-0.2-0.4-0.4-0.5
				l-6.5-2.8c-0.2-0.1-0.4-0.1-0.6,0s-0.3,0.2-0.4,0.3l-2.4,3.8L7.5,4.9L7.1,4C7,3.9,6.9,3.7,6.7,3.6L1.1,1C1,0.9,0.8,0.9,0.7,0.9
				S0.4,1,0.3,1.1C0,1.4-0.1,1.7,0.1,2l1.8,4.1v10.7c0,0.3,0.1,0.5,0.4,0.7l5.9,3.8l0.2,0.1h0.2l3.5-0.5l-1.1-1.2L10.7,19.5z
				 M16.3,1.9l5,2.2l-2.2,3.6l-4.6-2.9L16.3,1.9z M14.1,5.6l4,2.6l-4,0.4V5.6z M2.3,3.4L5.7,5l1.5,3.4L3.4,6c0,0,0-0.1,0-0.1
				c0,0,0-0.1,0-0.1L2.3,3.4z M7.7,19.2l-4.3-2.8V7.1l4.3,2.8V19.2z M7.8,5.9L13,5.3l0.1,0.1v3.4L9.3,9.3L7.8,5.9z"/>
		</g>
	</g>
</g>
</svg>
