<svg xmlns="http://www.w3.org/2000/svg" width="18" height="18" viewBox="0 0 18 18">
  <path fill="#FFF" fill-rule="evenodd" d="M17.3368724,6.16818194 L15.472727,6.16818194 L15.472727,3.74090932 L13.8545452,3.74090932 L13.8545452,6.16818194 L4.14545475,6.16818194 L4.14545475,3.74090932 L2.527273,3.74090932 L2.527273,6.16818194 L0.663936721,6.16818194 C0.352436734,6.16818194 0.100000381,6.42061829 0.100000381,6.73211828 L0.100000381,8.03151822 C0.100000381,8.34301821 0.352436734,8.59545456 0.663936721,8.59545456 L7.98297277,8.59545456 L4.9658729,13.3957907 C4.73042746,13.7703998 4.99985472,14.2590907 5.44323652,14.2590907 L12.5575726,14.2590907 C13.0009544,14.2590907 13.2703816,13.7703998 13.0349362,13.3957907 L10.0170272,8.59545456 L17.3368724,8.59545456 C17.6483724,8.59545456 17.8999996,8.34301821 17.8999996,8.03151822 L17.8999996,6.73211828 C17.8999996,6.42061829 17.6483724,6.16818194 17.3368724,6.16818194"/>
</svg>
