<svg xmlns="http://www.w3.org/2000/svg" xmlns:xlink="http://www.w3.org/1999/xlink" width="18" height="18" viewBox="0 0 18 18">
  <defs>
    <path id="key_clients-a" d="M8.01712401,13.256825 C8.01712401,12.2121107 8.36536211,11.012624 8.90706581,10.083989 C9.56484888,8.9231954 10.3000182,8.45887794 10.880415,7.60762926 C11.8477431,6.17598376 12.0412087,4.12524831 11.4221187,2.57752345 C10.8030288,0.991105461 9.33269015,0.0624705418 7.6301928,0.101163663 C5.92769544,0.139856785 4.53474307,1.18457107 3.99303936,2.77098906 C3.37394942,4.51217953 3.64480127,6.6016081 5.03775365,7.91717424 C5.61815047,8.45887794 6.15985417,9.31012661 5.8503092,10.1226822 C5.57945735,10.8965446 4.65082243,11.2447827 3.99303936,11.5543277 C2.48400762,12.2121107 0.665430902,13.1407457 0.355885928,14.9206293 C0.0463409553,16.3909679 1.05236212,17.8999996 2.63878011,17.8999996 L9.21661078,17.8999996 C9.52615576,17.8999996 9.71962137,17.5130684 9.52615576,17.2809097 C8.55882772,16.1588091 8.01712401,14.7271636 8.01712401,13.256825 Z"/>
  </defs>
  <g fill="none" fill-rule="evenodd">
    <use fill="#FFF" xlink:href="#key_clients-a"/>
    <path fill="#FFF" d="M13.7582102,9.1725385 L14.5470779,11.7449332 C14.5813765,11.847829 14.6842723,11.8992769 14.7871681,11.8992769 L17.3595628,11.8992769 C17.6168023,11.8992769 17.7196981,12.2422629 17.5139065,12.3966066 L15.4216921,13.9400434 C15.3359456,14.0086406 15.301647,14.1286857 15.3359456,14.2315815 L16.3306049,16.8725734 C16.3992021,17.1126635 16.1419627,17.3184551 15.9361711,17.1641114 L13.689613,15.4834802 C13.6038665,15.414883 13.4838214,15.414883 13.3809257,15.4834802 L11.1172183,17.1641114 C10.9114267,17.3184551 10.6370379,17.1126635 10.7227844,16.8725734 L11.6831451,14.2315815 C11.7174437,14.1286857 11.6831451,14.0086406 11.5973986,13.9400434 L9.50518427,12.3966066 C9.29939269,12.2422629 9.41943778,11.8992769 9.65952795,11.8992769 L12.2319227,11.8992769 C12.3519678,11.8992769 12.4377143,11.8649783 12.4720128,11.7449332 L13.2780299,9.1553892 C13.3466271,8.91529903 13.689613,8.93244833 13.7582102,9.1725385 L13.7582102,9.1725385 Z"/>
  </g>
</svg>
