<svg xmlns="http://www.w3.org/2000/svg" width="18" height="18" viewBox="0 0 18 18">
  <path fill="#FFF" fill-rule="evenodd" d="M11.9666934,16.045859 L11.9666934,7.88750732 L12.523016,7.88750732 C12.8307282,7.88750732 13.0790938,8.13591376 13.0790938,8.44370755 L13.0790938,13.6354267 C13.0790938,14.9666012 14.1583109,16.045859 15.4895669,16.045859 C16.820823,16.045859 17.8999992,14.966642 17.8999992,13.6354267 L17.8999992,3.65263868 C17.8999992,3.1296627 17.6848987,2.65889045 17.3401256,2.32134177 L15.3745065,0.367273662 C15.0187539,0.0109087814 14.4437374,0.0109087814 14.0877399,0.367273662 C13.731824,0.723230381 13.731824,1.29800191 14.0877399,1.6536321 L15.3636086,2.93309264 L14.421656,3.91594298 C14.1139438,4.23092039 14.1139438,4.73903932 14.421656,5.05446571 C14.5733692,5.21744417 14.7776943,5.29532118 14.9815296,5.29168855 L16.0458896,5.28809674 L16.0458896,13.6354675 C16.0458896,13.9433021 15.7974832,14.1917494 15.4896078,14.1917494 C15.1817732,14.1917494 14.9333259,13.9433021 14.9333259,13.6354675 L14.9333259,8.44370755 C14.9333259,7.11249228 13.8542721,6.03335689 12.5230569,6.03335689 L11.9667342,6.03335689 L11.9667342,1.58330606 C11.9667342,0.763842345 11.3028204,0.100051022 10.4833159,0.100051022 L2.69585958,0.100051022 C1.87631424,0.100051022 1.2124821,0.763883161 1.2124821,1.58330606 L1.2124821,16.045859 L1.02705481,16.045859 C0.515384881,16.045859 0.100000001,16.4611623 0.100000001,16.9729955 C0.100000001,17.4846654 0.515384881,17.8999686 1.02705481,17.8999686 L12.1520798,17.8999686 C12.6637906,17.8999686 13.079053,17.4846654 13.079053,16.9729955 C13.079053,16.4611623 12.6637906,16.045859 12.1520798,16.045859 L11.9666934,16.045859 Z M3.88250443,1.95416064 L9.2965894,1.95416064 C9.74883117,1.95416064 10.1125021,2.31774996 10.1125021,2.77011417 L10.1125021,6.70074003 C10.1125021,7.15310424 9.74883117,7.51661193 9.2965894,7.51661193 L3.88250443,7.51661193 C3.43022185,7.51661193 3.06663253,7.15306342 3.06663253,6.70074003 L3.06663253,2.77011417 C3.06663253,2.31774996 3.43026266,1.95416064 3.88250443,1.95416064 Z"/>
</svg>
