<?xml version="1.0" encoding="UTF-8"?>
<svg viewBox="0 0 20 20" version="1.1" xmlns="http://www.w3.org/2000/svg" xmlns:xlink="http://www.w3.org/1999/xlink">
    <!-- Generator: Sketch 42 (36781) - http://www.bohemiancoding.com/sketch -->
    <title>arcGIS_icon</title>
    <desc>Created with Sketch.</desc>
    <defs>
        <polygon id="path-1" points="17.9903281 19.6969697 0 19.6969697 0 9.87718182 0 0.0573939394 17.9903281 0.0573939394"></polygon>
        <polygon id="path-3" points="7.31707813 0.141666667 7.31707813 10.1192424 0.209345859 10.1192424 0.209345859 0.141666667 7.31707813 0.141666667"></polygon>
    </defs>
    <g id="Page-1" stroke="none" stroke-width="1" fill="none" fill-rule="evenodd">
        <g id="arcGIS_icon">
            <g id="Page-1" transform="translate(0.500000, 0.000000)">
                <g id="Group-3" transform="translate(0.000000, 0.245606)">
                    <mask id="mask-2" fill="white">
                        <use xlink:href="#path-1"></use>
                    </mask>
                    <g id="Clip-2"></g>
                    <path d="M9.0190625,4.12709091 C8.13140625,4.16012121 7.2615625,4.26375758 6.41517187,4.43648485 C6.5466875,4.12254545 6.68621875,3.818 6.84207812,3.53527273 C7.46907812,2.39739394 8.23828125,1.64709091 9.0190625,1.38769697 L9.0190625,4.12709091 Z M9.0190625,9.26345455 L5.42746875,9.26345455 C5.47110937,8.06133333 5.640625,6.91193939 5.92621875,5.86406061 C6.92223437,5.608 7.95625,5.45193939 9.0190625,5.40890909 L9.0190625,9.26345455 Z M9.0190625,14.3452727 C7.95625,14.3025455 6.92223437,14.1461818 5.92621875,13.8901212 C5.640625,12.8425455 5.47110937,11.6928485 5.42746875,10.4910303 L9.0190625,10.4910303 L9.0190625,14.3452727 Z M9.0190625,18.3667879 C8.23828125,18.1070909 7.46907812,17.3567879 6.84207812,16.2189091 C6.68621875,15.9364848 6.5466875,15.6316364 6.41517187,15.318 C7.2615625,15.4904242 8.13140625,15.5940606 9.0190625,15.6270909 L9.0190625,18.3667879 Z M2.1386875,13.798303 C3.0435625,14.2725455 3.99771875,14.6601212 4.98898438,14.9589091 C5.36571875,16.0870909 5.86476563,17.0643636 6.4516875,17.8352727 C4.58553125,17.058303 3.05603125,15.6146667 2.1386875,13.798303 L2.1386875,13.798303 Z M1.22639063,10.4910303 L4.220375,10.4910303 C4.25629688,11.5392121 4.38276563,12.5422424 4.58553125,13.4761818 C3.47551563,13.0746667 2.42309375,12.5473939 1.4475625,11.907697 C1.33771875,11.448 1.26023438,10.9761818 1.22639063,10.4910303 L1.22639063,10.4910303 Z M1.4475625,7.84648485 C2.42309375,7.20678788 3.47551563,6.67951515 4.58553125,6.27860606 C4.38276563,7.21224242 4.25629688,8.2149697 4.220375,9.26345455 L1.22639063,9.26345455 C1.26023438,8.77860606 1.33771875,8.30618182 1.4475625,7.84648485 L1.4475625,7.84648485 Z M6.4516875,1.91890909 C5.86476563,2.68981818 5.36571875,3.66709091 4.98928125,4.79527273 C3.99771875,5.09406061 3.0435625,5.48133333 2.13898438,5.95587879 C3.05603125,4.13951515 4.58553125,2.69587879 6.4516875,1.91890909 L6.4516875,1.91890909 Z M10.2217031,1.38769697 C11.0021875,1.64709091 11.7713906,2.39739394 12.3986875,3.53527273 C12.5545469,3.818 12.6937812,4.12254545 12.8255937,4.43648485 C11.9792031,4.26375758 11.1093594,4.16012121 10.2217031,4.12709091 L10.2217031,1.38769697 Z M13.810625,17.3237576 C13.4831719,17.5167879 13.1423594,17.688303 12.7887813,17.8352727 C13.0057969,17.5504242 13.2106406,17.2370909 13.4018281,16.8986061 C13.155125,16.6328485 12.8624063,16.3007273 12.5524687,15.9152727 C12.502,16.018 12.4524219,16.1213333 12.3986875,16.2189091 C11.7713906,17.3567879 11.0021875,18.1070909 10.2217031,18.3667879 L10.2217031,15.6270909 C10.8852187,15.6022424 11.5383438,15.538 12.1795938,15.4352727 C11.9073594,15.0722424 11.6324531,14.6737576 11.3715,14.2486061 C10.9917969,14.2940606 10.609125,14.3295152 10.2217031,14.3452727 L10.2217031,11.7586061 C10.0370469,11.1428485 9.92482812,10.5092121 9.92482812,9.87193939 C9.91978125,9.24193939 10.0254687,8.62709091 10.2217031,8.04436364 L10.2217031,5.40890909 C10.7878438,5.43193939 11.3456719,5.48921212 11.8942969,5.57436364 C12.5474219,5.02133333 13.3103906,4.64133333 14.128875,4.44860606 C13.7690625,3.46648485 13.3145469,2.60921212 12.7887813,1.91890909 C14.0700937,2.45254545 15.1934687,3.30012121 16.06925,4.36587879 C16.7597812,4.46860606 17.40875,4.69921212 17.9903281,5.038 C16.3367344,2.06466667 13.2091562,0.0573939394 9.62023437,0.0573939394 C4.3070625,0.0573939394 0,4.45375758 0,9.87739394 C0,15.3004242 4.3070625,19.6970909 9.62023437,19.6970909 C11.4979688,19.6970909 13.2486406,19.1461818 14.7291563,18.1964848 L14.071875,17.5786061 C14.0237813,17.5334545 13.9323437,17.4458788 13.810625,17.3237576 L13.810625,17.3237576 Z" id="Fill-1" fill="#3083D3" mask="url(#mask-2)"></path>
                </g>
                <g id="Group-6" transform="translate(11.578125, 6.306212)">
                    <mask id="mask-4" fill="white">
                        <use xlink:href="#path-3"></use>
                    </mask>
                    <g id="Clip-5"></g>
                    <path d="M3.75505313,5.40106061 C3.14200625,5.40106061 2.57883438,5.02893939 2.33035,4.43681818 C2.08156875,3.845 2.21427188,3.16863636 2.6450375,2.72893939 C3.09242813,2.27257576 3.75505313,2.13712121 4.33485,2.37378788 C4.89831875,2.61045455 5.27920938,3.18560606 5.27920938,3.81136364 C5.29583438,4.67378788 4.59995938,5.38409091 3.75505313,5.40106061 M3.75505313,0.141666667 C1.78350625,0.158333333 0.19285,1.79863636 0.209475,3.81136364 C0.209475,6.78772727 3.75505313,10.1192424 3.75505313,10.1192424 C3.75505313,10.1192424 7.31725625,6.65257576 7.31725625,3.81136364 C7.31725625,1.79863636 5.7266,0.158333333 3.75505313,0.141666667" id="Fill-4" fill="#3083D3" mask="url(#mask-4)"></path>
                </g>
            </g>
        </g>
    </g>
</svg>