<svg xmlns="http://www.w3.org/2000/svg" viewBox="0 0 28 35" width="38px" height="38px"><title>live_event_hard_braking</title><path d="M24,0H4A4,4,0,0,0,0,4V24a4,4,0,0,0,4,4H8.44L14,34.28,19.56,28H24a4,4,0,0,0,4-4V4A4,4,0,0,0,24,0Z" style="fill:#061c3f"/><path d="M24,0H4A4,4,0,0,0,0,4V24a4,4,0,0,0,4,4H8.44L14,34.28,19.56,28H24a4,4,0,0,0,4-4V4A4,4,0,0,0,24,0Zm3,24a3,3,0,0,1-3,3H19.11L14,32.77,8.89,27H4a3,3,0,0,1-3-3V4A3,3,0,0,1,4,1H24a3,3,0,0,1,3,3Z" style="isolation:isolate"/><path d="M11.1,7h5.8L21,11.1v5.8L16.9,21H11.1L7,16.9V11.1Zm-3,4.55v4.9l3.47,3.47h4.9l3.47-3.47v-4.9L16.45,8.08h-4.9Z" style="fill:#fff"/><path d="M11,14.82a.28.28,0,0,0,0,.44l2.77,2.41a.4.4,0,0,0,.52,0L17,15.26a.28.28,0,0,0,0-.44l-.52-.44a.4.4,0,0,0-.52,0l-.86.75a.24.24,0,0,1-.41-.15V10.56a.36.36,0,0,0-.37-.33h-.74a.38.38,0,0,0-.37.33V15a.24.24,0,0,1-.4.15L12,14.38a.4.4,0,0,0-.52,0Z" style="fill:#fff"/></svg>