<svg xmlns="http://www.w3.org/2000/svg" viewBox="0 0 28 35" width="38px" height="38px"><title>live_event_quick_acceleration</title><path d="M24,0H4A4,4,0,0,0,0,4V24a4,4,0,0,0,4,4H8.44L14,34.28,19.56,28H24a4,4,0,0,0,4-4V4A4,4,0,0,0,24,0Z" style="fill:#061c3f"/><path d="M24,0H4A4,4,0,0,0,0,4V24a4,4,0,0,0,4,4H8.44L14,34.28,19.56,28H24a4,4,0,0,0,4-4V4A4,4,0,0,0,24,0Zm3,24a3,3,0,0,1-3,3H19.11L14,32.77,8.89,27H4a3,3,0,0,1-3-3V4A3,3,0,0,1,4,1H24a3,3,0,0,1,3,3Z" style="isolation:isolate"/><path d="M7.5,18.38V8.61a.35.35,0,0,1,.59-.25l5.71,4.77a.44.44,0,0,1,0,.69L8.09,18.66A.36.36,0,0,1,7.5,18.38Zm7.54,0V8.61a.35.35,0,0,1,.59-.25l5.71,4.77a.46.46,0,0,1,0,.69l-5.71,4.84A.36.36,0,0,1,15,18.38Z" style="fill:#fff"/></svg>