<?xml version="1.0" encoding="UTF-8"?>
<svg width="29px" height="29px" viewBox="0 0 29 29" version="1.1" xmlns="http://www.w3.org/2000/svg" xmlns:xlink="http://www.w3.org/1999/xlink">
    <!-- Generator: Sketch 50.2 (55047) - http://www.bohemiancoding.com/sketch -->
    <title>live_tracking_history_icon</title>
    <desc>Created with Sketch.</desc>
    <defs></defs>
    <g id="live_tracking_history_icon" stroke="none" stroke-width="1" fill="none" fill-rule="evenodd">
        <path d="M3.13111582,13.6424044 C3.13111582,13.7709706 3.08826042,13.9423922 3.08826042,14.0709584 L1.15976735,14.0709584 C0.602647133,14.0709584 0.302659323,14.7137894 0.645502534,15.099488 L3.85965764,18.9993296 C4.11679005,19.2993174 4.58819947,19.2993174 4.84533188,18.9993296 L8.05948699,15.099488 C8.4023302,14.670934 8.10234239,14.0709584 7.54522217,14.0709584 L5.65958451,14.0709584 L5.65958451,13.6424044 C6.08813852,8.84259942 10.1594017,5.07132409 15.0449174,5.07132409 C20.6161196,5.07132409 25.030226,9.91398445 24.4302503,15.5708974 C24.0016963,19.6421606 20.1447102,23.4991467 16.0305917,23.8848453 C12.9878582,24.1848331 10.1165463,23.0705927 8.10234239,20.8849672 C7.84520998,20.5849794 7.50236677,20.4135578 7.15952356,20.8421118 L6.13099392,22.0849185 C5.91671691,22.3420509 6.08813852,22.5134725 6.30241553,22.7277495 C8.61660721,25.1705074 11.7879069,26.5418802 15.216339,26.4990248 C21.3875168,26.413314 26.5730204,21.5277982 27.0015744,15.3566204 C27.5586947,8.37119 21.9874925,2.5 15.0877728,2.5 C8.74517341,2.5 3.55966983,7.42837117 3.13111582,13.6424044 Z" id="Shape" fill="#0070D2" fill-rule="nonzero"></path>
        <path d="M17.4547784,17.135936 C17.2270752,17.2435062 17.0315644,17.3212393 16.8666759,17.3809133 C16.8305574,17.2089581 16.7967945,17.0322917 16.7653872,16.8501291 C16.8933721,16.7904552 17.0378459,16.7166479 17.20509,16.6208555 C17.6212374,16.3695967 18.6576798,15.6346648 19.1931751,14.2755119 C19.4326561,13.652076 19.5378707,12.9736774 19.4970412,12.3156935 C19.4460042,11.5941096 19.2253676,10.8874443 18.8579017,10.2765715 C18.4480358,9.61858754 17.897622,9.08387747 17.2686899,8.73525592 C16.64918,8.36857514 15.9016851,8.16913849 15.1000126,8.15500518 C14.302266,8.16521257 13.5532008,8.36150849 12.9407575,8.71955223 C12.2984773,9.07367006 11.745708,9.60445423 11.3366273,10.2592974 C10.967591,10.8576074 10.7430284,11.5611319 10.6888507,12.2944935 C10.6409545,12.9375589 10.7422432,13.6159576 10.9809391,14.2566675 C11.5077973,15.61425 12.5403138,16.3554634 12.9596019,16.6114333 C13.1346979,16.7135072 13.2870235,16.7912404 13.417364,16.8532699 C13.3859567,17.0338621 13.3529789,17.2097433 13.3176457,17.3801281 C13.1472608,17.319669 12.9454686,17.2387951 12.7083431,17.1257286 C12.2238848,16.8760402 11.8124486,16.5878778 11.4434123,16.2416118 C10.9628798,15.7924867 10.5553695,15.2373619 10.2664219,14.6366964 C9.93507441,13.9473051 9.75605255,13.1534844 9.74898589,12.3423897 C9.75212663,11.4645543 9.9743336,10.586719 10.3912661,9.79996496 C10.8741541,8.93704811 11.5439158,8.23901983 12.3290994,7.77497628 C13.1119275,7.28580686 14.0989034,7.00942221 15.1039385,7 C16.110544,7.01413331 17.0959495,7.29522907 17.8850591,7.79382069 C18.6631761,8.25786423 19.3290118,8.9613888 19.8032628,9.82195011 C20.2225509,10.6220523 20.4392616,11.5006728 20.4337653,12.3683008 C20.4227727,13.1896029 20.2390397,13.9826384 19.9037663,14.6633926 C19.611678,15.2624878 19.2018121,15.8160422 18.7197093,16.2620266 C18.3467471,16.6067222 17.9337405,16.8933142 17.4547784,17.135936 Z M17.1147939,21.3413797 L17.0959495,21.3774982 C17.0802458,21.4104759 16.6672392,22.2200003 15.0921608,22.2200003 C13.5162971,22.2200003 13.1040757,21.4104759 13.0868017,21.3774982 L13.0436166,21.2872021 L13.071098,21.1607875 C13.1080016,21.0940469 14.5676581,18.3608225 14.6304728,14.3296896 C13.7361486,14.1192603 13.1032905,13.335647 13.1032905,12.403634 C13.1032905,11.3067324 13.9960444,10.4147638 15.0921608,10.4147638 C16.1882772,10.4147638 17.081031,11.3067324 17.081031,12.403634 C17.081031,13.335647 16.448173,14.1200455 15.5530636,14.3296896 C15.6158783,18.3608225 17.0763199,21.0940469 17.0904532,21.1207431 L17.1399198,21.2110392 L17.1147939,21.3413797 Z" id="Shape" fill="#0070D2" fill-rule="nonzero"></path>
    </g>
</svg>