<svg xmlns="http://www.w3.org/2000/svg" viewBox="0 0 28 35" width="38px" height="38px"><title>live_event_touch</title><path d="M24,0H4A4,4,0,0,0,0,4V24a4,4,0,0,0,4,4H8.44L14,34.28,19.56,28H24a4,4,0,0,0,4-4V4A4,4,0,0,0,24,0Z" style="fill:#061c3f"/><path d="M24,0H4A4,4,0,0,0,0,4V24a4,4,0,0,0,4,4H8.44L14,34.28,19.56,28H24a4,4,0,0,0,4-4V4A4,4,0,0,0,24,0Zm3,24a3,3,0,0,1-3,3H19.11L14,32.77,8.89,27H4a3,3,0,0,1-3-3V4A3,3,0,0,1,4,1H24a3,3,0,0,1,3,3Z" style="isolation:isolate"/><path d="M17.62,14.65l-2.49-.88a.5.5,0,0,1-.34-.47V9.88a.93.93,0,0,0-.94-.94h-.09a1,1,0,0,0-.94.94v6.74a.54.54,0,0,1-1,.32l-.64-1.38a1.1,1.1,0,0,0-1.64-.35l-.39.32,2.1,5.1a.57.57,0,0,0,.54.35h5.5a.56.56,0,0,0,.55-.44l1-3.57A2,2,0,0,0,17.62,14.65Zm-6.26-2.13V9.82a2.47,2.47,0,0,1,2.31-2.38h.24a2.47,2.47,0,0,1,2.31,2.38v2.7a.26.26,0,0,0,.43.18A4,4,0,0,0,17.71,10,3.89,3.89,0,0,0,10,9.35a4,4,0,0,0,1,3.35A.24.24,0,0,0,11.36,12.52Z" style="fill:#fff"/></svg>