<svg xmlns="http://www.w3.org/2000/svg" viewBox="0 0 1492 274"><title>mapanything_logo_mobile</title><polygon points="369.07 95.956 337.418 201.668 305.114 95.956 276.599 95.956 255.271 229.276 277.94 229.276 294.103 126.032 325.752 229.276 348.201 229.276 379.854 126.032 396.008 229.276 418.892 229.276 397.802 95.956 369.07 95.956" style="fill:#0070d2"/><path d="M473.445,127.6a66.281,66.281,0,0,0-32.327,8.084v19.294c8.306-4.717,17.3-8.07,28.728-8.07,11,0,19.077,4.93,19.077,15.707v8.309h-11c-28.724,0-46,9.869-46,30.062,0,22.457,18.848,30.324,44.662,30.324a148.04,148.04,0,0,0,34.123-4.057V161.489C510.706,136.583,495.215,127.6,473.445,127.6Zm15.478,85.97a80.947,80.947,0,0,1-12.115,1.121c-13.467,0-22.894-4.035-22.894-14.369,0-10.1,10.1-14.59,25.586-14.59h9.423Z" style="fill:#0070d2"/><path d="M574.735,127.6a109.426,109.426,0,0,0-40.172,7.858V269.681h22.006V228.833c4.042,1.568,11,2.689,18.166,2.689,33.679,0,54.772-19.52,54.772-53.188C629.507,146,607.956,127.6,574.735,127.6Zm-1.34,84.841a47.8,47.8,0,0,1-16.826-2.923v-59.47a62.064,62.064,0,0,1,17.948-2.475c19.987,0,32.554,11.675,32.554,31.435C607.071,201.23,593.154,212.445,573.4,212.445Z" style="fill:#0070d2"/><path d="M684.779,95.956l-51.847,133.32h24.237l11.671-31.413h59.483L740,229.276h24.912L712.836,95.956Zm-8.971,83.056L698.7,117.5l22.665,61.511Z" style="fill:#0070d2"/><path d="M823.745,127.6a133.235,133.235,0,0,0-45.561,8.531v93.141H800.4V150.721a77.058,77.058,0,0,1,21.55-2.927c12.346,0,21.317,5.164,21.317,19.542v61.94h22V165.307C865.272,137.256,849.11,127.6,823.745,127.6Z" style="fill:#0070d2"/><polygon points="925.113 208.175 896.838 129.859 873.041 129.859 914.121 233.776 900.206 269.681 921.972 269.681 975.845 129.859 952.949 129.859 925.113 208.175" style="fill:#0070d2"/><path d="M1019.483,195.843V148.484h28.284V129.859h-28.284V105.6h-21.99v24.255H982.449v18.625h15.044v52.294c0,22.669,13.687,30.744,29.85,30.744a51.926,51.926,0,0,0,24.023-5.39V206.168c-6.071,3.579-11.683,5.612-18.187,5.612C1024.65,211.78,1019.483,207.736,1019.483,195.843Z" style="fill:#0070d2"/><path d="M1116.012,127.6a74.788,74.788,0,0,0-26.044,4.722V76.649h-22.209V229.276h22.209V151.169a69.244,69.244,0,0,1,21.557-3.375c12.343,0,21.323,5.164,21.323,19.542v61.94h22.005V165.307C1154.853,137.482,1138.454,127.6,1116.012,127.6Z" style="fill:#0070d2"/><path d="M1189.885,85.636a13.929,13.929,0,0,0-13.908,13.687,13.915,13.915,0,1,0,27.827,0A13.935,13.935,0,0,0,1189.885,85.636Z" style="fill:#0070d2"/><rect x="1178.896" y="129.859" width="22.205" height="99.418" style="fill:#0070d2"/><path d="M1271.439,127.6a133.085,133.085,0,0,0-45.55,8.531v93.141h22.221V150.721a76.943,76.943,0,0,1,21.538-2.927c12.347,0,21.325,5.164,21.325,19.542v61.94h22V165.307C1312.975,137.256,1296.817,127.6,1271.439,127.6Z" style="fill:#0070d2"/><path d="M1331.006,178.773c0,33.007,21.769,50.286,52.745,50.286,7.628,0,15.709-1.8,19.073-3.818v2.241c0,18.639-12.119,25.828-26.253,25.828-11.682,0-22-2.928-32.773-8.77v20.424a78.939,78.939,0,0,0,32.773,6.963c22.659,0,48.256-10.551,48.256-43.094V134.789a104.191,104.191,0,0,0-37.484-7.185C1352.775,127.6,1331.006,146.912,1331.006,178.773Zm71.818,28.29a45.505,45.505,0,0,1-17.283,3.366c-19.525,0-32.089-12.127-32.089-31.656,0-20.411,12.788-31.644,33.891-31.644a45.617,45.617,0,0,1,15.481,2.472Z" style="fill:#0070d2"/><path d="M106.838,3.62A105.02,105.02,0,0,0,2,108.822c.04,24.022,16.338,57.775,48.44,100.321a690.505,690.505,0,0,0,47.854,56.422,12.388,12.388,0,0,0,8.966,3.815h0a12.379,12.379,0,0,0,8.991-3.843,682.529,682.529,0,0,0,47.681-56.583c31.972-42.652,48.162-76.461,48.118-100.485C211.956,50.655,164.758,3.62,106.838,3.62ZM124.71,169.2l-.032.309c-.033.309-.065.616-.1.922s-.066.609-.1.911-.067.6-.1.9l-1.253,2.389a8.255,8.255,0,0,0-.99,2.758,4.7,4.7,0,0,1-.3,1.641,15.473,15.473,0,0,0-.6,2.084,7.334,7.334,0,0,0-.1,2.218,1.149,1.149,0,0,1-.491,1.235,1.352,1.352,0,0,0-.77.808,1.117,1.117,0,0,0-.014.143A79.982,79.982,0,0,1,50.7,49.755l.806-.071c.939-.524,1.659-.845,1.6-.714a11.4,11.4,0,0,1-.66,1.044,11.9,11.9,0,0,1-2.371,2.058l-.124.085a12.979,12.979,0,0,0-2.289,1.906,9.368,9.368,0,0,0-.918,2.324c-.247.92-.276,1.688-.065,1.706a1.933,1.933,0,0,0,.625-.047c.133-.044.222.156.2.444a4.08,4.08,0,0,1-.281,1.038c-.11.24-.076.427.076.417l.558-.038.851-.056c.385-.1.148.646-.526,1.656l-.265.4c-2.681,2.192-4,2.883-6.6,5.175,2.138-1.489,2.876-1.059,5.06-2.481l.86-.756c.913-.8,2.369-2.1,3.236-2.893a20.506,20.506,0,0,1,2.212-1.806c.349-.2,1.078-.691,1.62-1.084a7.331,7.331,0,0,1,1.5-.873,6.105,6.105,0,0,0,1.44-.92c.511-.42.992-.534,1.068-.253a1.549,1.549,0,0,0,.8.808,6.074,6.074,0,0,0,1.49.392,3.373,3.373,0,0,1,1.35.476,8.7,8.7,0,0,1,1.417,2.4l.372.844a14.207,14.207,0,0,1,1,4.225l.1,2.1a2.728,2.728,0,0,0,2.034,2.533c1.061.18,1.867.944,1.792,1.7a7.477,7.477,0,0,0,.072,2.132A5.269,5.269,0,0,0,69.787,75.3a4.432,4.432,0,0,1,.9,2.417,15.2,15.2,0,0,1-.2,2.868c-.143.753-.421,1.882-.618,2.51a7.254,7.254,0,0,0-.267,2.29,12.892,12.892,0,0,1,.05,1.533l-.079.774c-.019.194-.038.388-.113,1.165l1.323,3.172c.468,1.121,1.167,2.612,1.554,3.314A6.137,6.137,0,0,0,74.2,97.309a6.466,6.466,0,0,1,1.97,2.684c.45,1.1,1.059,2.788,1.353,3.755a13.045,13.045,0,0,0,1.9,3.495l.065.083a29.547,29.547,0,0,0,2.964,3.167c.881.786,1.373.866,1.092.178a27.185,27.185,0,0,0-1.589-3.029c-.594-.978-1.56-2.648-2.146-3.711l-.106-.192a15.591,15.591,0,0,1-1.285-2.892c-.119-.527.221-.763.757-.524a3.089,3.089,0,0,1,1.356,1.836,9.678,9.678,0,0,0,1.848,3.053l.216.242a10.036,10.036,0,0,1,1.637,2.274,3.813,3.813,0,0,0,1.284,1.428,12.19,12.19,0,0,1,2.241,2.41,4.553,4.553,0,0,1,.965,2.5,2.763,2.763,0,0,0,.889,1.953,5.593,5.593,0,0,0,2.095,1.324,12.391,12.391,0,0,1,2.8,1.409,22.1,22.1,0,0,0,3.054,1.671,3.484,3.484,0,0,0,2.163.176,2.757,2.757,0,0,1,1.64-.083,8.294,8.294,0,0,1,2,1.311,8.085,8.085,0,0,0,3.367,1.392A5.225,5.225,0,0,1,109.9,125.2a7.154,7.154,0,0,0,2.223,2.233c.654.328,2.053,1.088,3.109,1.687l.024.014c1.056.6,2,.863,2.1.584a4.283,4.283,0,0,1,.851-1.19,1.069,1.069,0,0,1,1.5.165,2.777,2.777,0,0,1,.819,1.47l-.005.31c0,.309-.009.619-.014.927s-.01.616-.015.924-.01.614-.016.92l-.68,1.606a7.033,7.033,0,0,1-1.528,2.445,3.787,3.787,0,0,0-1.092,1.795c-.235.761-.428,1.444-.429,1.518l-.008.67c.539.084.792.441.564.795a13.42,13.42,0,0,0-.745,1.357,2.1,2.1,0,0,0,.61,1.808c.517.6,1.149,1.408,1.4,1.79a13.847,13.847,0,0,1,1.044,2.375,14.544,14.544,0,0,0,1.016,2.353,6.336,6.336,0,0,1,.64,1.341,4.77,4.77,0,0,0,1.813,1.611c.885.52,2.053,1.264,2.6,1.655a4,4,0,0,1,1.118,2.627,9.7,9.7,0,0,1-.17,2.815,15.762,15.762,0,0,0-.484,2.057,23.931,23.931,0,0,1-.776,2.937A17.8,17.8,0,0,0,124.71,169.2Zm.992,15.138a1.007,1.007,0,0,1,.28-.318,3.721,3.721,0,0,1,1.113-.533,4.884,4.884,0,0,0,1.573-1.451c.576-.736.825-1.627.553-1.98s-.152-.527.265-.386.875.105,1.015-.081a6.558,6.558,0,0,0,.6-1.3,2.563,2.563,0,0,1,1.991-1.175,4.139,4.139,0,0,0,2.36-1.1c.391-.49.621-1.074.513-1.3a8.085,8.085,0,0,1-.391-1.123c-.106-.393.326-.593.961-.445a5.668,5.668,0,0,0,3.095-.781l.182-.1c1.614-1.7,3.737-3.988,5.337-5.7a6.654,6.654,0,0,1,1.691-3.163,8.065,8.065,0,0,1,2.264-1.481,7.522,7.522,0,0,1,1.273-.311l.63-.021.939-.032c.594-.7,1.519-1.872,2.056-2.616a16.781,16.781,0,0,0,1.669-3.154c.381-.991.851-2.365,1.043-3.054a8.572,8.572,0,0,1,1.9-2.825l2.686-2.729s.144-.587.321-1.306a5.593,5.593,0,0,0,.178-1.92,1.136,1.136,0,0,0-1.047-.667,3.033,3.033,0,0,1-1.742-1.05,5.913,5.913,0,0,0-2.764-1.431,16.382,16.382,0,0,1-3.384-1.2c-.8-.424-1.923-.98-2.489-1.236s-1.021-.536-1.011-.626l.085-.814-.519-1.353a5.2,5.2,0,0,0-2.1-2.625,17.331,17.331,0,0,0-2.889-.879,6.741,6.741,0,0,1-2.978-1.811c-.768-.823-1.906-2.067-2.53-2.764a3.087,3.087,0,0,0-2.916-.744,5.579,5.579,0,0,1-2.9.1,17.386,17.386,0,0,0-2.591-.673,24.207,24.207,0,0,1-2.781-.676,5.156,5.156,0,0,0-2.9.181,3.181,3.181,0,0,0-1.855,1.631,1.859,1.859,0,0,1-.767,1.2c-.279.094-.952-.325-1.5-.932a1.624,1.624,0,0,0-2.259,0,2.122,2.122,0,0,1-2.787-.425A4.7,4.7,0,0,1,114,123.55c.191-1.144-.116-2.355-.68-2.691a4.316,4.316,0,0,0-1.684-.61h-3.292l1.322-5.106c.3-1.175-.381-1.978-1.523-1.782a3.463,3.463,0,0,0-2.586,2.04,2.9,2.9,0,0,1-2.327,1.862,4.42,4.42,0,0,1-3.04-.979A8.382,8.382,0,0,1,98.373,113l-.4-1.457c-.323-1.171-.314-2.411.021-2.755a2.188,2.188,0,0,0,.352-1.784,2.791,2.791,0,0,1,.44-2.047,3.254,3.254,0,0,1,1.484-1.066c.433-.1.787-.256.788-.354l.007-.889,1.6.148a12.886,12.886,0,0,0,3.238-.059c.571-.143.923-.459.78-.7s.713-.4,1.9-.356a6.684,6.684,0,0,1,2.842.617,1.437,1.437,0,0,0,1.285.267,1.089,1.089,0,0,1,1.119.267,4.818,4.818,0,0,1,.771,2.038,8.16,8.16,0,0,0,1.454,3.025c.66.837,1.278.6,1.373-.53a9.849,9.849,0,0,0-.727-4.068l-.094-.212a3.415,3.415,0,0,1-.051-3.066,5.79,5.79,0,0,1,1.611-1.4,5.185,5.185,0,0,0,1.512-1.3,23.376,23.376,0,0,1,1.832-1.983,7.276,7.276,0,0,0,1.541-3.164,22.6,22.6,0,0,1,1.086-3.553,3.729,3.729,0,0,1,1.836-1.831,8.9,8.9,0,0,1,1.48-.41l.542,0,.811,0a5.443,5.443,0,0,1-.431-2.726,4,4,0,0,1,2.4-1.536c1.162-.347,2.168-.266,2.236.18s.968.289,2-.348l1.906-1.177c1.033-.638,1.8-1.628,1.71-2.2a.637.637,0,0,0-1.032-.494,2.548,2.548,0,0,1-2.328-.424c-.8-.534-1.476-1.147-1.492-1.364l-.061-.785c-.016-.2-.031-.391-.094-1.17l-.264-.02c-1.211-.092-2.061-.585-1.888-1.094s1.3-.83,2.51-.712l1.09.106a7.919,7.919,0,0,0,3.93-.75c.953-.531,2.059-1.2,2.459-1.482s.7-.7.67-.92l-.112-.8c-.028-.2-.057-.4-.172-1.2l-1.649-1.322c-.947-.759-2.511-1.986-3.474-2.725l-.147-.113c-.963-.739-1.618-1.533-1.455-1.763s-.246-1.25-.909-2.267l-1.495-2.294c-.664-1.017-1.382-1.548-1.6-1.181a3.2,3.2,0,0,0-.354,1.49,1.79,1.79,0,0,1-.75,1.362,1.288,1.288,0,0,1-1.6-.439,6.592,6.592,0,0,1-1.112-2.465,2.546,2.546,0,0,0-1.441-1.835,5.227,5.227,0,0,1-2.07-1.47c-.51-.617-1.26-1.038-1.666-.936a3.725,3.725,0,0,1-1.873-.276c-.624-.254-1.272-.144-1.441.245a1.573,1.573,0,0,0,0,1.237,1.266,1.266,0,0,1,.046,1.055,2.452,2.452,0,0,0,.365,1.679,1.465,1.465,0,0,1-.148,1.765.915.915,0,0,0-.006,1.386,6.536,6.536,0,0,1,1.2,2.411,3.262,3.262,0,0,1-1.028,2.937,3.286,3.286,0,0,0-.878,3.166,4.222,4.222,0,0,1,.136,2.626,1.83,1.83,0,0,1-1.159.834c-.388.041-1.066-.642-1.506-1.517a9.766,9.766,0,0,1-.893-3.147,1.826,1.826,0,0,0-1.473-1.709,9.173,9.173,0,0,1-2.97-1.1c-.875-.518-2.161-1.3-2.857-1.726a3.05,3.05,0,0,0-1.883-.573c-.34.116-.842-.577-1.115-1.539s-.8-1.716-1.17-1.676-.5-.871-.3-2.025a7.626,7.626,0,0,1,1.993-3.6l.4-.377a11.894,11.894,0,0,0,2.079-2.451c.255-.521.6-.947.761-.947h1.485c.476-1.08,1.115-2.473,1.42-3.1a2.715,2.715,0,0,1,1.914-1.3,3.23,3.23,0,0,0,1.978-1.028,1.908,1.908,0,0,0-.033-1.927c-.357-.587-.432-1.188-.166-1.336a.718.718,0,0,0,.1-.968,4.191,4.191,0,0,0-1.685-1.283c-.716-.322-1.336-.278-1.377.1a2.471,2.471,0,0,0,.1,1.059c.1.206-.326.544-.94.751a1.436,1.436,0,0,1-1.62-.432c-.278-.445-.663-.494-.857-.109s-.688.173-1.1-.471a2.83,2.83,0,0,1-.581-1.635,3.928,3.928,0,0,0-.518-1.9,4.805,4.805,0,0,0-1.149-1.666c-.255-.128-.807.452-1.227,1.289a3.986,3.986,0,0,0-.523,2.239,2.443,2.443,0,0,0,.965,1.138,1.75,1.75,0,0,1,.664,1.5c-.034.595-.415.791-.847.434a7.811,7.811,0,0,1-1.448-1.8c-.363-.637-.8-.8-.98-.371a3.054,3.054,0,0,1-1,1.222,18.581,18.581,0,0,1-2.5,1.114,3,3,0,0,1-2.522.033,2.343,2.343,0,0,0-1.965-.3c-.692.192-1.165.719-1.051,1.172s-.213.631-.727.4a2.714,2.714,0,0,0-1.749-.135,8.091,8.091,0,0,1-2.245.272c-.787-.011-1.156-.2-.822-.42a1.528,1.528,0,0,0,.649-1,.8.8,0,0,0-.707-.736,10.6,10.6,0,0,1-2.1-.83,8.038,8.038,0,0,0-1.813-.727,1.5,1.5,0,0,0-.951.445c-.271.265-.38.109-.243-.347s.014-.729-.273-.608a2.481,2.481,0,0,0-.891.75c-.2.29-.392.05-.42-.534s-.645-.9-1.371-.7-2.2.719-3.266,1.159a8.93,8.93,0,0,0-2.659,1.615c-.393.448-.875.587-1.071.311a5.594,5.594,0,0,0-.89-.931,3.356,3.356,0,0,1-.758-.861c-.123-.238-.6-.321-1.065-.183a2.257,2.257,0,0,1-1.642-.273,2.854,2.854,0,0,0-.5-.253,80,80,0,1,1,58.279,147.3Z" style="fill:#0070d2"/><path d="M1482.411,119.347a26.878,26.878,0,0,1-45.939-19.117,26.914,26.914,0,1,1,45.939,19.117Zm-35.445-35.482a22.41,22.41,0,0,0-6.752,16.4,22.682,22.682,0,0,0,6.715,16.512,23.121,23.121,0,0,0,32.8,0,23.434,23.434,0,0,0,0-32.914,23.077,23.077,0,0,0-32.767,0Zm15.851,1.505q5.505,0,8.073,1.065,4.585,1.909,4.586,7.493a6.467,6.467,0,0,1-2.885,5.84,11.233,11.233,0,0,1-4.274,1.432,7.162,7.162,0,0,1,5.075,2.9,8.116,8.116,0,0,1,1.607,4.58v2.163q0,1.028.074,2.2a4.746,4.746,0,0,0,.257,1.54l.183.366h-4.88c-.025-.1-.049-.2-.074-.292s-.049-.207-.073-.33l-.11-.95v-2.341q0-5.121-2.789-6.767-1.65-.951-5.8-.951h-4.11v11.631h-5.21V85.37Zm5.627,4.66q-1.969-1.1-6.311-1.1h-4.453V99.643h4.711a14.172,14.172,0,0,0,4.968-.66,4.552,4.552,0,0,0,3.054-4.624Q1470.413,91.131,1468.444,90.03Z" style="fill:#0070d2"/></svg>