<svg xmlns="http://www.w3.org/2000/svg" width="165" height="165" viewBox="0 0 165 165">
  <g fill="none" fill-rule="evenodd">
    <path fill="#ECEBEA" fill-rule="nonzero" d="M134.252,0 L123.94,0 L123.94,4.125 L134.252,4.125 L134.252,0 Z M115.69,0 L105.378,0 L105.378,4.125 L115.69,4.125 L115.69,0 Z M97.129,0 L86.817,0 L86.817,4.125 L97.129,4.125 L97.129,0 L97.129,0 Z M78.567,0 L68.255,0 L68.255,4.125 L78.567,4.125 L78.567,0 Z M60.006,0 L49.694,0 L49.694,4.125 L60.006,4.125 L60.006,0 Z M41.444,0 L31.132,0 L31.132,4.125 L41.444,4.125 L41.444,0 Z M22.966,0.993 C21.8409824,1.28702986 20.7335389,1.64460357 19.649,2.064 L19.649,2.064 L19.518,2.115 L19.518,2.115 L19.389,2.166 L19.389,2.166 L19.26,2.218 L19.26,2.218 L19.239,2.226 L19.239,2.226 L19.218,2.235 L19.218,2.235 L19.153,2.261 L19.153,2.261 L19.133,2.269 L19.133,2.269 L19.113,2.277 L19.113,2.277 L19.092,2.285 L19.092,2.285 L19.027,2.312 L19.027,2.312 L19,2.327 L19,2.327 L18.981,2.335 L18.981,2.335 L18.961,2.343 L18.961,2.343 L18.897,2.37 L18.897,2.37 L18.877,2.378 L18.877,2.378 L18.86,2.385 L18.86,2.385 L18.842,2.392 L18.842,2.392 L18.821,2.401 L18.821,2.401 L18.778,2.419 L18.778,2.419 L18.759,2.427 L18.759,2.427 L18.742,2.435 L18.742,2.435 L18.724,2.443 L18.724,2.443 L18.64,2.479 L18.64,2.479 L18.622,2.486 L18.622,2.486 L18.605,2.493 L18.605,2.493 L18.586,2.501 L18.586,2.501 L18.523,2.528 L18.523,2.528 L18.504,2.536 L18.504,2.536 L18.487,2.543 L18.487,2.543 L18.469,2.551 L18.469,2.551 L18.406,2.579 L18.406,2.579 L18.387,2.588 L18.387,2.588 L18.369,2.596 L18.369,2.596 L18.35,2.604 L18.35,2.604 L18.266,2.642 L18.266,2.642 L18.247,2.651 L18.247,2.651 L18.229,2.66 L18.229,2.66 L18.145,2.699 L18.145,2.699 L18.125,2.708 L18.125,2.708 L18.106,2.717 L18.106,2.717 L18.021,2.756 L18.021,2.756 L18.001,2.765 L18.001,2.765 L17.982,2.774 L17.982,2.774 L17.877,2.822 L17.877,2.822 L17.857,2.832 L17.857,2.832 L17.837,2.842 L17.837,2.842 L17.754,2.881 L17.754,2.881 L17.734,2.89 L17.734,2.89 L17.714,2.899 L17.714,2.899 L17.63,2.938 L17.63,2.938 L17.61,2.947 L17.61,2.947 L17.589,2.956 L17.589,2.956 L17.506,2.996 L17.506,2.996 L17.487,3.006 L17.487,3.006 L17.468,3.016 L17.468,3.016 L17.363,3.067 L17.363,3.067 L17.343,3.077 L17.343,3.077 L17.218,3.139 L17.218,3.139 C17.093,3.201 16.968,3.264 16.844,3.328 L16.844,3.328 C15.7616038,3.88227834 14.7130903,4.50036702 13.704,5.179 L16.004,8.601 C18.4764521,6.93540195 21.2131559,5.70060554 24.098,4.949 L22.966,0.995 L22.966,0.993 Z M7.458,10.673 L7.458,10.673 L7.458,10.673 L7.447,10.685 L7.447,10.691 L7.437,10.702 L7.437,10.708 L7.427,10.719 L7.427,10.719 L7.415,10.733 L7.415,10.733 L7.4,10.749 L7.4,10.749 L7.389,10.762 L7.389,10.762 L7.379,10.774 L7.379,10.78 L7.37,10.79 L7.364,10.797 L7.356,10.806 L7.35,10.814 L7.342,10.824 L7.336,10.83 L7.326,10.842 L7.32,10.849 L7.308,10.863 L7.308,10.87 L7.3,10.879 L7.293,10.887 L7.285,10.896 L7.279,10.903 L7.272,10.912 L7.265,10.92 L7.257,10.929 L7.251,10.937 L7.243,10.946 L7.237,10.953 L7.228,10.964 L7.179,11 L7.172,11.008 L7.165,11.017 L7.158,11.025 L7.151,11.033 L7.144,11.042 L7.137,11.05 L7.13,11.058 L7.123,11.066 L7.116,11.075 L7.109,11.083 L7.1,11.1 L7.1,11.1 L7.087,11.115 L7.08,11.124 L7.073,11.132 L7.066,11.14 L7.059,11.149 L7.052,11.157 L7.045,11.165 L7.038,11.174 L7.032,11.181 L7.024,11.191 L7.018,11.198 L7.011,11.207 L7,11.219 L6.988,11.233 L6.98,11.242 L6.973,11.251 L6.967,11.259 L6.959,11.268 L6.953,11.276 L6.946,11.284 L6.939,11.293 L6.932,11.301 L6.926,11.309 L6.918,11.318 L6.918,11.325 L6.902,11.344 L6.897,11.35 L6.89,11.359 L6.884,11.367 L6.876,11.376 L6.87,11.384 L6.863,11.392 L6.856,11.401 L6.85,11.409 L6.842,11.418 L6.836,11.426 L6.828,11.435 L6.822,11.442 L6.813,11.454 L6.805,11.464 L6.796,11.475 L6.789,11.484 L6.782,11.492 L6.776,11.5 L6.768,11.509 L6.762,11.517 L6.755,11.526 L6.749,11.534 L6.741,11.543 L6.735,11.551 L6.727,11.561 L6.727,11.568 L6.714,11.584 L6.708,11.59 L6.7,11.601 L6.694,11.608 L6.687,11.618 L6.68,11.626 L6.673,11.636 L6.667,11.642 L6.659,11.653 L6.659,11.659 L6.65,11.671 L6.65,11.677 L6.64,11.689 L6.64,11.695 L6.628,11.71 L6.628,11.717 L6.62,11.727 L6.614,11.735 L6.607,11.744 L6.6,11.752 L6.594,11.761 L6.587,11.77 L6.58,11.778 L6.574,11.786 L6.566,11.796 L6.56,11.804 L6.547,11.82 L6.547,11.826 L6.538,11.837 L6.532,11.845 L6.525,11.854 L6.519,11.862 L6.512,11.871 L6.505,11.879 L6.498,11.889 L6.492,11.896 L6.484,11.906 L6.484,11.913 L6.474,11.926 L6.474,11.926 L6.461,11.943 L6.461,11.949 L6.452,11.96 L6.452,11.967 L6.444,11.977 L6.438,11.985 L6.431,11.995 L6.425,12.002 L6.417,12.012 L6.411,12.019 L6.403,12.03 L6.398,12.036 L6.388,12.05 L6.381,12.059 L6.372,12.071 L6.367,12.077 L6.359,12.088 L6.3,12.1 L6.291,12.11 L6.291,12.117 L6.283,12.128 L6.283,12.135 L6.274,12.146 L6.274,12.152 L6.262,12.168 L6.262,12.168 L6.249,12.186 L6.249,12.186 L6.24,12.199 L6.234,12.206 L6.226,12.216 L6.226,12.223 L6.218,12.234 L6.218,12.24 L6.209,12.252 L6.209,12.258 L6.2,12.27 L6.2,12.276 L6.174,12.31 L6.174,12.316 L6.165,12.327 L6.16,12.335 L6.153,12.345 L6.147,12.352 L6.139,12.363 L6.134,12.369 L6.126,12.381 L6.121,12.387 L6.111,12.401 L6.111,12.401 L6.098,12.419 L6.098,12.419 L6.086,12.436 L6.086,12.436 L6.076,12.449 L6.076,12.455 L6.067,12.467 L6.062,12.473 L6,12.5 L6,12.5 L5.991,12.513 L5.991,12.513 L5.978,12.53 L5.978,12.53 L5.965,12.548 L5.965,12.548 L5.955,12.563 L5.955,12.569 L5.947,12.581 L5.947,12.587 L5.938,12.599 L5.938,12.605 L5.929,12.617 L5.929,12.622 L5.919,12.636 L5.919,12.636 L5.893,12.672 L5.893,12.672 L5.882,12.687 L5.882,12.687 L5.872,12.701 L5.872,12.701 L5.863,12.714 L5.863,12.719 L5.852,12.733 L5.852,12.733 L5.826,12.769 L5.826,12.769 L5.814,12.785 L5.814,12.785 L5.804,12.8 L5.804,12.8 L5.795,12.813 L5.795,12.813 L5.785,12.826 L5.785,12.831 L5.774,12.846 L5.774,12.846 L5.748,12.883 L5.748,12.883 L5.738,12.898 L5.738,12.898 L5.729,12.911 L5.729,12.911 L5.72,12.924 L5.72,12.924 L5.71,12.939 L5.71,12.939 L5.698,12.956 L5.698,12.956 L5.685,12.975 L5.685,12.975 L5.673,12.993 L5.673,12.993 L5.663,13.007 L5.663,13.007 L5.654,13.02 L5.654,13.026 L5.645,13.039 L5.645,13.039 L5.634,13.055 L5.634,13.055 L5.608,13.092 L5.608,13.092 L5.596,13.108 L5.596,13.108 L5.586,13.124 L5.586,13.124 L5.576,13.139 L5.576,13.139 L5.566,13.153 L5.566,13.153 L5.528,13.209 L5.528,13.209 L5.517,13.225 L5.517,13.225 L5.507,13.24 L5.507,13.24 L5.497,13.255 L5.497,13.255 L5.486,13.271 L5.486,13.271 L5.46,13.309 L5.46,13.309 L5.447,13.327 L5.447,13.327 L5.436,13.343 L5.436,13.343 L5.425,13.358 L5.425,13.358 L5.414,13.373 L5.414,13.373 L5.402,13.391 L5.402,13.391 L5.377,13.429 L5.377,13.429 L5.367,13.443 L5.367,13.443 L5.358,13.458 L5.358,13.458 L5.347,13.473 L5.347,13.473 L5.336,13.49 L5.336,13.49 L5.298,13.546 L5.298,13.546 L5.287,13.563 L5.287,13.563 L5.277,13.579 L5.277,13.579 L5.266,13.596 L5.266,13.596 L5.215,13.672 L5.215,13.672 L5.204,13.689 L5.204,13.689 L5.194,13.705 L5.194,13.705 L5.182,13.723 L5.182,13.723 L5,13.943 L5,13.943 L4.988,13.961 L4.988,13.961 L4.976,13.979 L4.976,13.979 L4.959,14 L4.959,14 L4.909,14.077 L4.909,14.077 L4.9,14.1 L4.9,14.1 L4.889,14.116 L4.889,14.116 L4.877,14.134 L4.877,14.134 L4.839,14.193 L4.839,14.193 L4.827,14.212 L4.827,14.212 L4.816,14.23 L4.816,14.23 L4.804,14.247 L4.804,14.247 L4.755,14.324 L4.755,14.324 L4.743,14.343 L4.743,14.343 L4.732,14.361 L4.732,14.361 L4.671,14.461 L4.671,14.461 L4.66,14.478 L4.66,14.478 L4.649,14.495 L4.649,14.495 L4.589,14.595 L4.589,14.595 L4.577,14.613 L4.577,14.613 L4.565,14.631 L4.565,14.631 L4.517,14.709 L4.517,14.709 L4.506,14.727 L4.506,14.727 L4.495,14.744 L4.495,14.744 L4.447,14.823 L4.447,14.823 L4.435,14.842 L4.435,14.842 L4.424,14.859 L4.424,14.859 L4.413,14.876 L4.413,14.876 L4.366,14.954 L4.366,14.954 L4.356,14.971 L4.356,14.971 L4.345,14.988 L4.345,14.988 L4.335,15.006 L4.335,15.006 L4.3,15.065 L4.3,15.065 L4.289,15.083 L4.289,15.083 L4.28,15.098 L4.28,15.098 L4.27,15.114 L4.27,15.114 L4.26,15.133 L4.26,15.133 L4.225,15.193 L4.225,15.193 L4.215,15.21 L4.215,15.21 L4.206,15.226 L4.206,15.226 L4.196,15.243 L4.196,15.243 L4.162,15.302 L4.162,15.302 L4.152,15.321 L4.152,15.321 L4.142,15.338 L4.142,15.338 L4.132,15.354 L4.132,15.354 L4.123,15.371 L4.123,15.371 L4.089,15.429 L4.089,15.429 L4.08,15.445 L4.08,15.445 L4.071,15.46 L4.071,15.46 L4.062,15.475 L4.062,15.475 L4,15.584 L4,15.584 L3.977,15.624 L3.977,15.624 L3.967,15.64 L3.967,15.645 L3.958,15.66 L3.958,15.66 L3.95,15.674 L3.95,15.68 L3.942,15.695 L3.942,15.695 L3.931,15.714 L3.931,15.714 L3.92,15.733 L3.92,15.733 L3.911,15.748 L3.911,15.755 L3.905,15.768 L3.905,15.774 L3.898,15.787 L3.898,15.794 L3.891,15.807 L3.891,15.813 L3.883,15.827 L3.883,15.827 L3.862,15.866 L3.862,15.866 L3.854,15.88 L3.854,15.887 L3.847,15.899 L3.847,15.906 L3.84,15.919 L3.84,15.926 L3.833,15.939 L3.833,15.945 L3.825,15.959 L3.825,15.965 L3.815,15.983 L3.815,15.99 L3.808,16.002 L3.808,16.011 L3.802,16.021 L3.797,16.03 L3.797,16.04 L3.791,16.05 L3.786,16.059 L3.786,16.069 L3.781,16.077 L3.775,16.088 L3.775,16.096 L3.763,16.118 L3.763,16.125 L3.757,16.136 L3.757,16.144 L3.751,16.155 L3.751,16.163 L3.746,16.174 L3.746,16.182 L3.74,16.193 L3.735,16.202 L3.735,16.212 L3.735,16.22 L3.729,16.231 L3.729,16.231 L3.714,16.257 L3.714,16.266 L3.708,16.277 L3.708,16.285 L3.702,16.296 L3.702,16.304 L3.696,16.315 L3.696,16.322 L3.69,16.334 L3.69,16.342 L3.683,16.354 L3.683,16.354 L3.658,16.401 L3.658,16.401 L3.651,16.414 L3.651,16.42 L3.644,16.433 L3.644,16.439 L3.638,16.452 L3.638,16.458 L3.631,16.471 L3.631,16.471 L3.597,16.536 L3.597,16.536 L3.589,16.551 L3.589,16.551 L3.581,16.566 L3.581,16.566 L3.574,16.58 L3.574,16.58 L3.529,16.667 L3.529,16.667 L3.52,16.683 L3.52,16.683 L3.512,16.7 L3.512,16.7 L3.457,16.807 L3.457,16.807 C3.031,17.6476667 2.643,18.5103333 2.293,19.395 L6.13,20.91 C7.22540774,18.1361949 8.78052547,15.5668699 10.73,13.31 L7.607,10.616 L7.458,10.673 Z M0.178,27.441 C0.104666667,28.1196667 0.0543333333,28.805 0.027,29.497 L0.027,29.497 C0.027,29.617 0.018,29.738 0.015,29.859 L0.015,30.223 L0.015,30.223 L0.015,30.746 L0,30.746 L0,37.746 L4.125,37.746 L4.125,30.746 C4.12493758,29.7879853 4.17567548,28.8306413 4.277,27.878 L0.177,27.439 L0.178,27.441 Z M4.127,46 L0,46 L0,56.309 L4.125,56.309 L4.125,46 L4.127,46 Z M4.127,64.562 L0,64.562 L0,74.871 L4.125,74.871 L4.125,64.559 L4.127,64.562 Z M4.127,83.123 L0,83.123 L0,93.435 L4.125,93.435 L4.125,83.12 L4.127,83.123 Z M4.127,101.685 L0,101.685 L0,111.997 L4.125,111.997 L4.125,101.682 L4.127,101.685 Z M4.127,120.247 L0,120.247 L0,130.559 L4.125,130.559 L4.125,120.244 L4.127,120.247 Z M4.415,138.189 L0.334,138.789 C0.487333333,139.817 0.689333333,140.827667 0.94,141.821 L0.94,141.821 L0.946,141.843 L0.946,141.843 L0.969,141.934 L0.969,141.934 L0.975,141.955 L0.975,141.955 L0.975,141.976 L0.975,141.976 L0.993,142.044 L0.993,142.044 L0.998,142.066 L0.998,142.066 L0.998,142.085 L0.998,142.085 L0.998,142.103 L0.998,142.108 L1.004,142.128 L1.004,142.128 L1.016,142.173 L1.016,142.173 L1.016,142.192 L1.016,142.192 L1.021,142.209 L1.021,142.209 L1.026,142.226 L1.026,142.226 L1.032,142.247 L1.032,142.247 L1.044,142.291 L1.044,142.296 L1.049,142.313 L1.049,142.319 L1.054,142.335 L1.054,142.341 L1.054,142.357 L1.054,142.357 L1.066,142.401 L1.066,142.401 L1.066,142.421 L1.066,142.426 L1.066,142.442 L1.066,142.45 L1.066,142.464 L1.066,142.471 L1.066,142.488 L1.066,142.488 L1.072,142.51 L1.072,142.51 L1.078,142.532 L1.078,142.532 L1.078,142.55 L1.078,142.555 L1.078,142.571 L1.078,142.578 L1.078,142.593 L1.078,142.6 L1.078,142.615 L1.078,142.622 L1.09,142.664 L1.09,142.67 L1.09,142.686 L1.09,142.693 L1.09,142.707 L1.09,142.715 L1.09,142.729 L1.09,142.736 L1.09,142.752 L1.09,142.758 L1.096,142.779 L1.096,142.779 L1.101,142.796 L1.101,142.804 L1.101,142.818 L1.101,142.825 L1.101,142.839 L1.101,142.847 L1.101,142.862 L1.101,142.868 L1.106,142.885 L1.106,142.89 L1.112,142.911 L1.112,142.917 L1.112,142.932 L1.112,142.94 L1.112,142.954 L1.112,142.962 L1.112,142.974 L1.112,142.984 L1.112,142.996 L1.112,143.005 L1.112,143.021 L1.112,143.021 L1.118,143.042 L1.118,143.05 L1.118,143.062 L1.118,143.072 L1.118,143.084 L1.118,143.093 L1.118,143.105 L1.118,143.114 L1.118,143.127 L1.118,143.135 L1.123,143.151 L1.123,143.159 L1.128,143.178 L1.128,143.184 L1.133,143.198 L1.133,143.207 L1.133,143.219 L1.133,143.229 L1.133,143.24 L1.133,143.25 L1.133,143.263 L1.133,143.271 L1.139,143.289 L1.139,143.298 L1.139,143.312 L1.139,143.322 L1.139,143.333 L1.139,143.343 L1.139,143.354 L1.139,143.364 L1.139,143.375 L1.139,143.385 L1.139,143.398 L1.139,143.406 L1.145,143.426 L1.145,143.435 L1.145,143.447 L1.145,143.456 L1.145,143.468 L1.145,143.477 L1.145,143.49 L1.145,143.498 L1.145,143.511 L1.145,143.52 L1.145,143.534 L1.145,143.54 L1.152,143.561 L1.152,143.568 L1.152,143.582 L1.152,143.591 L1.152,143.603 L1.152,143.612 L1.152,143.625 L1.152,143.633 L1.152,143.646 L1.152,143.654 L1.157,143.671 L1.157,143.671 L1.164,143.691 L1.164,143.7 L1.164,143.713 L1.164,143.721 L1.164,143.734 L1.164,143.742 L1.164,143.755 L1.164,143.763 L1.17,143.778 L1.17,143.784 L1.184,143.826 L1.184,143.833 L1.184,143.847 L1.184,143.855 L1.184,143.868 L1.184,143.876 L1.184,143.89 L1.184,143.897 L1.184,143.913 L1.184,143.913 L1.191,143.934 L1.191,143.934 L1.198,143.953 L1.198,143.961 L1.198,143.974 L1.198,143.982 L1.203,143.995 L1.203,144.003 L1.203,144.016 L1.203,144.024 L1.203,144.039 L1.203,144.045 L1.21,144.066 L1.21,144.066 L1.216,144.084 L1.216,144.09 L1.216,144.105 L1.216,144.112 L1.221,144.126 L1.221,144.133 L1.226,144.149 L1.226,144.149 L1.233,144.17 L1.233,144.17 L1.24,144.192 L1.24,144.192 L1.24,144.209 L1.24,144.216 L1.245,144.231 L1.245,144.237 L1.25,144.252 L1.25,144.258 L1.25,144.275 L1.25,144.275 L1.265,144.318 L1.265,144.318 L1.271,144.335 L1.271,144.335 L1.277,144.352 L1.277,144.352 L1.283,144.369 L1.283,144.369 L1.29,144.388 L1.29,144.388 L1.306,144.431 L1.306,144.431 L1.312,144.449 L1.312,144.449 L1.318,144.465 L1.318,144.471 L1.324,144.488 L1.324,144.488 L1.347,144.552 L1.347,144.552 L1.354,144.57 L1.354,144.57 L1.361,144.588 L1.361,144.588 L1.368,144.606 L1.368,144.606 L1.391,144.67 L1.391,144.67 L1.398,144.687 L1.398,144.687 L1.405,144.705 L1.405,144.705 L1.437,144.792 L1.437,144.792 L1.445,144.813 L1.445,144.813 L1.453,144.834 L1.453,144.834 L1.494,144.944 L1.494,144.944 C1.93946291,146.127912 2.45847434,147.282829 3.048,148.402 L6.698,146.481 C5.30933676,143.843914 4.37780448,140.990483 3.943,138.042 L4.415,138.189 Z M11.3,152.431 L8.287,155.248 C8.523,155.5 8.763,155.748333 9.007,155.993 L9.007,155.993 C9.14766667,156.134333 9.29033333,156.274 9.435,156.412 L9.435,156.412 L9.451,156.427 L9.451,156.427 L9.551,156.522 L9.551,156.522 L9.567,156.538 L9.567,156.538 L9.667,156.632 L9.667,156.632 L9.684,156.648 L9.684,156.648 L9.784,156.742 L9.784,156.742 L9.8,156.756 L9.8,156.756 L9.9,156.849 L9.9,156.849 L9.917,156.864 L9.917,156.864 L9.985,156.926 L9.985,156.926 L10.001,156.941 L10.001,156.941 L10.016,156.955 L10.016,156.955 L10.031,156.969 L10.031,156.969 L10.099,157.031 L10.099,157.031 L10.116,157.046 L10.116,157.046 L10.133,157.061 L10.133,157.061 L10.149,157.076 L10.149,157.076 L10.2,157.122 L10.2,157.122 L10.217,157.136 L10.217,157.136 L10.233,157.15 L10.233,157.15 L10.249,157.164 L10.249,157.164 L10.265,157.179 L10.265,157.179 L10.316,157.225 L10.316,157.225 L10.331,157.239 L10.331,157.239 L10.345,157.252 L10.345,157.252 L10.36,157.265 L10.36,157.265 L10.428,157.326 L10.428,157.326 L10.444,157.339 L10.444,157.339 L10.458,157.352 L10.458,157.352 L10.473,157.364 L10.473,157.364 L10.489,157.379 L10.489,157.379 L10.54,157.424 L10.54,157.424 L10.555,157.437 L10.555,157.437 L10.569,157.449 L10.569,157.449 L10.583,157.462 L10.583,157.462 L10.634,157.507 L10.634,157.507 L10.65,157.521 L10.65,157.521 L10.664,157.533 L10.664,157.533 L10.678,157.545 L10.678,157.545 L10.693,157.558 L10.693,157.558 L10.745,157.603 L10.745,157.603 L10.76,157.616 L10.76,157.616 L10.774,157.629 L10.774,157.629 L10.789,157.641 L10.789,157.641 L10.804,157.654 L10.804,157.654 L10.855,157.698 L10.855,157.698 L10.869,157.71 L10.869,157.71 L10.882,157.722 L10.882,157.722 L10.896,157.734 L10.896,157.734 L10.911,157.747 L10.911,157.747 L10.963,157.79 L10.963,157.79 L10.977,157.802 L10.977,157.802 L10.992,157.813 L10.992,157.813 L11.008,157.826 L11.008,157.826 L11.025,157.84 L11.025,157.84 L11.06,157.869 L11.06,157.869 L11.074,157.881 L11.074,157.881 L11.086,157.891 L11.092,157.891 L11.104,157.9 L11.104,157.9 L11.117,157.911 L11.122,157.911 L11.137,157.923 L11.137,157.923 L11.155,157.938 L11.155,157.938 L11.172,157.952 L11.172,157.952 L11.186,157.963 L11.186,157.968 L11.198,157.978 L11.203,157.978 L11.215,157.988 L11.22,157.988 L11.233,157.999 L11.233,157.999 L11.25,158.012 L11.25,158.012 L11.268,158.027 L11.268,158.027 L11.285,158.041 L11.285,158.041 L11.298,158.051 L11.298,158.051 L11.31,158.062 L11.315,158.062 L11.329,158.073 L11.329,158.073 L11.343,158.084 L11.343,158.084 L11.378,158.112 L11.378,158.112 L11.395,158.125 L11.395,158.125 L11.409,158.136 L11.409,158.136 L11.422,158.147 L11.422,158.147 L11.436,158.158 L11.436,158.158 L11.452,158.17 L11.452,158.17 L11.488,158.198 L11.488,158.198 L11.504,158.211 L11.504,158.211 L11.517,158.221 L11.522,158.221 L11.534,158.23 L11.54,158.23 L11.552,158.24 L11.552,158.24 L11.567,158.252 L11.567,158.252 L11.601,158.279 L11.607,158.279 L11.619,158.288 L11.625,158.288 L11.636,158.297 L11.642,158.297 L11.654,158.307 L11.66,158.307 L11.672,158.317 L11.672,158.317 L11.688,158.33 L11.688,158.33 L11.706,158.344 L11.706,158.344 L11.723,158.357 L11.723,158.357 L11.736,158.367 L11.742,158.367 L11.754,158.376 L11.76,158.376 L11.771,158.384 L11.777,158.384 L11.79,158.394 L11.79,158.394 L11.806,158.406 L11.806,158.406 L11.823,158.419 L11.823,158.419 L11.839,158.431 L11.839,158.431 L11.852,158.441 L11.858,158.441 L11.869,158.449 L11.876,158.454 L11.887,158.463 L11.893,158.463 L11.907,158.474 L11.907,158.474 L11.942,158.501 L11.942,158.501 L11.956,158.512 L11.956,158.512 L11.968,158.521 L11.974,158.521 L11.986,158.53 L11.992,158.53 L12.003,158.539 L12.01,158.539 L12.023,158.549 L12.023,158.549 L12.058,158.576 L12.058,158.576 L12.07,158.585 L12.077,158.585 L12.088,158.593 L12.095,158.593 L12.105,158.601 L12.112,158.607 L12.123,158.614 L12.13,158.62 L12.141,158.628 L12.147,158.628 L12.164,158.64 L12.164,158.64 L12.178,158.651 L12.184,158.651 L12.195,158.659 L12.202,158.665 L12.213,158.672 L12.22,158.678 L12.23,158.685 L12.238,158.691 L12.248,158.699 L12.255,158.699 L12.268,158.709 L12.268,158.709 L12.5,159 L12.506,159 L12.517,159.009 L12.524,159.009 L12.535,159.016 L12.542,159.022 L12.553,159.03 L12.56,159.035 L12.57,159.042 L12.577,159.048 L12.589,159.056 L12.595,159.056 L12.61,159.067 L12.61,159.067 L12.628,159.08 L12.635,159.08 L12.645,159.088 L12.654,159.094 L12.663,159.101 L12.671,159.101 L12.681,159.109 L12.689,159.114 L12.698,159.121 L12.706,159.127 L12.716,159.135 L12.724,159.135 L12.74,159.146 L12.74,159.146 L12.757,159.159 L12.765,159.165 L12.775,159.172 L12.784,159.178 L12.792,159.184 L12.801,159.191 L12.81,159.197 L12.819,159.203 L12.828,159.21 L12.836,159.216 L12.846,159.223 L12.854,159.223 L12.868,159.234 L12.877,159.24 L12.888,159.248 L12.896,159.254 L12.906,159.261 L12.915,159.267 L12.923,159.273 L12.933,159.28 L12.94,159.28 L12.951,159.288 L12.958,159.288 L12.968,159.295 L12.976,159.295 L12.986,159.302 L13.002,159.314 L13.01,159.32 L13.019,159.326 L13.029,159.333 L13.037,159.339 L13.047,159.345 L13.055,159.352 L13.064,159.358 L13.073,159.364 L13.082,159.37 L13.091,159.376 L13.1,159.383 L13.109,159.389 L13.117,159.395 L13.134,159.407 L13.142,159.407 L13.152,159.414 L13.161,159.421 L13.17,159.427 L13.179,159.433 L13.187,159.439 L13.196,159.445 L13.205,159.451 L13.215,159.458 L13.222,159.458 L13.232,159.465 L13.239,159.465 L13.26,159.48 L13.267,159.48 L13.276,159.487 L13.284,159.492 L13.294,159.499 L13.302,159.505 L13.312,159.511 L13.32,159.517 L13.33,159.524 L13.338,159.524 L13.348,159.531 L13.355,159.531 L13.365,159.538 L13.374,159.544 L13.391,159.556 L13.4,159.562 L13.41,159.568 L13.417,159.574 L13.427,159.581 L13.435,159.581 L13.445,159.588 L13.453,159.588 L13.463,159.595 L13.47,159.595 L13.481,159.602 L13.487,159.602 L13.499,159.61 L13.499,159.61 L13.529,159.631 L13.529,159.631 L13.542,159.64 L13.542,159.64 L13.555,159.649 L13.56,159.649 L13.572,159.657 L13.578,159.657 L13.589,159.665 L13.595,159.665 L13.607,159.673 L13.612,159.673 L13.652,159.7 L13.659,159.7 L13.67,159.707 L13.677,159.707 L13.688,159.714 L13.694,159.714 L13.706,159.722 L13.712,159.722 L13.723,159.73 L13.73,159.73 L13.741,159.738 L13.746,159.738 L13.788,159.766 L13.788,159.766 L13.8,159.774 L13.806,159.774 L13.818,159.782 L13.824,159.782 L13.836,159.791 L13.836,159.791 L13.849,159.799 L13.849,159.799 L13.895,159.829 L13.895,159.829 L13.908,159.837 L13.908,159.837 L13.92,159.845 L13.926,159.845 L13.938,159.852 L13.944,159.852 L13.956,159.86 L13.961,159.86 L13.974,159.869 L13.974,159.869 L14.021,159.9 L14.021,159.9 L14.033,159.908 L14.039,159.908 L14.051,159.916 L14.057,159.916 L14.069,159.923 L14.075,159.923 L14.087,159.931 L14.087,159.931 L14.1,159.94 L14.1,159.94 L14.146,159.969 L14.146,159.969 L14.157,159.976 L14.164,159.976 L14.175,159.983 L14.182,159.983 L14.193,159.99 L14.2,159.99 L14.212,159.998 L14.212,159.998 L14.225,160.005 L14.225,160.005 L14.27,160.034 L14.27,160.034 L14.283,160.043 L14.288,160.043 L14.3,160.051 L14.306,160.051 L14.318,160.059 L14.324,160.059 L14.337,160.067 L14.337,160.067 L14.399,160.106 L14.399,160.106 L14.412,160.114 L14.417,160.114 L14.43,160.122 L14.43,160.122 L14.443,160.13 L14.443,160.13 L14.456,160.139 L14.456,160.139 L14.52,160.179 L14.52,160.179 L14.533,160.187 L14.533,160.187 L14.547,160.195 L14.547,160.195 L14.561,160.204 L14.561,160.204 L14.576,160.213 L14.576,160.213 L14.641,160.253 L14.641,160.253 L14.655,160.262 L14.655,160.262 L14.669,160.27 L14.669,160.27 L14.684,160.279 L14.684,160.279 L14.768,160.329 L14.768,160.329 L14.783,160.338 L14.783,160.338 L14.797,160.346 L14.797,160.346 L14.811,160.355 L14.811,160.355 L14.878,160.396 L14.878,160.396 L14.894,160.405 L14.894,160.405 L14.908,160.413 L14.908,160.413 L14.922,160.421 L14.922,160.421 L14.937,160.43 L14.937,160.43 L15.005,160.47 L15.005,160.47 L15.021,160.48 L15.021,160.48 L15.036,160.489 L15.036,160.489 L15.05,160.498 L15.05,160.498 L15.065,160.507 L15.065,160.507 L15.133,160.546 L15.133,160.546 L15.149,160.555 L15.149,160.555 L15.164,160.563 L15.164,160.563 L15.178,160.571 L15.178,160.571 L15.194,160.58 L15.194,160.58 L15.263,160.62 L15.263,160.62 L15.279,160.629 L15.279,160.629 L15.295,160.638 L15.295,160.638 L15.311,160.647 L15.311,160.647 L15.397,160.696 L15.397,160.696 L15.413,160.705 L15.413,160.705 L15.428,160.714 L15.428,160.714 L15.528,160.772 L15.528,160.772 L15.544,160.781 L15.544,160.781 L15.559,160.79 L15.559,160.79 L15.659,160.848 L15.659,160.848 L15.675,160.857 L15.675,160.857 L15.691,160.866 L15.691,160.866 L15.791,160.923 L15.791,160.923 L15.808,160.932 L15.808,160.932 L15.825,160.941 L15.825,160.941 L15.949,161.009 L15.949,161.009 L15.967,161.019 L15.967,161.019 L16.074,161.076 L16.074,161.076 L16.092,161.086 L16.092,161.086 L16.199,161.142 L16.199,161.142 L16.215,161.151 L16.215,161.151 L16.232,161.16 L16.232,161.16 L16.25,161.169 L18.171,157.519 C15.5299496,156.128928 13.1410681,154.305238 11.104,152.124 L11.3,152.431 Z M25.051,160.263 L24.173,164.293 C24.504,164.365 24.836,164.432 25.173,164.493 L25.173,164.493 L25.196,164.493 L25.196,164.493 L25.219,164.493 L25.219,164.493 L25.242,164.493 L25.242,164.493 L25.264,164.493 L25.264,164.493 L25.286,164.493 L25.286,164.493 L25.309,164.493 L25.309,164.493 L25.331,164.493 L25.331,164.493 L25.352,164.493 L25.352,164.493 L25.452,164.51 L25.452,164.51 L25.474,164.51 L25.5,164.51 L25.519,164.51 L25.528,164.51 L25.544,164.51 L25.553,164.51 L25.568,164.51 L25.578,164.51 L25.592,164.51 L25.603,164.51 L25.617,164.51 L25.628,164.51 L25.642,164.51 L25.652,164.51 L25.666,164.51 L25.677,164.51 L25.691,164.51 L25.702,164.51 L25.714,164.51 L25.726,164.51 L25.738,164.51 L25.751,164.51 L25.761,164.51 L25.776,164.51 L25.784,164.51 L25.8,164.51 L25.8,164.51 L25.845,164.517 L25.845,164.517 L25.862,164.517 L25.869,164.517 L25.886,164.517 L25.9,164.517 L25.916,164.517 L25.924,164.517 L25.94,164.517 L25.949,164.517 L25.965,164.517 L25.973,164.517 L25.989,164.517 L26,164.517 L26.015,164.517 L26.024,164.517 L26.04,164.517 L26.048,164.517 L26.064,164.517 L26.073,164.517 L26.089,164.517 L26.096,164.517 L26.114,164.517 L26.12,164.517 L26.138,164.517 L26.138,164.517 L26.158,164.517 L26.158,164.517 L26.323,164.541 L26.323,164.541 L26.344,164.541 L26.344,164.541 L26.365,164.541 L26.365,164.541 L26.386,164.541 L26.386,164.541 L26.406,164.541 L26.406,164.541 L26.426,164.541 L26.431,164.541 L26.451,164.541 L26.451,164.541 L26.472,164.541 L26.472,164.541 L26.494,164.541 L26.494,164.541 L26.733,164.573 L26.733,164.573 L26.756,164.573 L26.756,164.573 L26.778,164.573 L26.778,164.573 L26.799,164.573 L26.799,164.573 L26.82,164.573 L26.82,164.573 L26.841,164.573 L26.841,164.573 L26.864,164.573 L26.864,164.573 L26.887,164.573 L26.887,164.573 L27.152,164.605 L27.152,164.605 L27.176,164.605 L27.176,164.605 L27.199,164.605 L27.199,164.605 L27.222,164.605 L27.222,164.605 L27.246,164.605 L27.246,164.605 L27.536,164.636 L27.536,164.636 L27.559,164.636 L27.559,164.636 L27.582,164.636 L27.582,164.636 L27.605,164.636 L27.605,164.636 L27.628,164.636 L27.628,164.636 L27.651,164.636 L27.651,164.636 C27.751,164.646 27.843,164.655 27.94,164.663 L27.94,164.663 L27.963,164.663 L27.963,164.663 L27.985,164.663 L27.985,164.663 L28.008,164.663 L28.008,164.663 L28.03,164.663 L28.03,164.663 L28.053,164.663 L28.053,164.663 L28.295,164.682 L28.322,164.682 L28.342,164.682 L28.342,164.682 L28.363,164.682 L28.363,164.682 L28.383,164.682 L28.461,164.682 L28.483,164.682 L28.483,164.682 L28.505,164.682 L28.505,164.682 L28.696,164.694 L28.726,164.694 L28.745,164.694 L28.775,164.694 L28.794,164.694 L28.9,164.694 L28.919,164.694 L29.019,164.694 L29.14,164.701 L29.462,164.701 L29.533,164.701 L34.433,164.701 L34.433,160.576 L30.748,160.576 C28.8316554,160.577042 26.9207263,160.372539 25.048,159.966 L25.051,160.263 Z M52.997,160.873 L42.685,160.873 L42.685,165 L53,165 L53,160.875 L52.997,160.873 Z M71.558,160.873 L61.246,160.873 L61.246,165 L71.558,165 L71.558,160.875 L71.558,160.873 Z M90.12,160.873 L79.808,160.873 L79.808,165 L90.12,165 L90.12,160.875 L90.12,160.873 Z M108.681,160.873 L98.369,160.873 L98.369,165 L108.681,165 L108.681,160.875 L108.681,160.873 Z M127.243,160.873 L116.931,160.873 L116.931,165 L127.243,165 L127.243,160.875 L127.243,160.873 Z M144.022,159.025 C141.247836,160.118997 138.308852,160.736681 135.329,160.852 L135.493,164.973 C138.935668,164.839205 142.331045,164.125171 145.536,162.861 L144.022,159.025 L144.022,159.025 Z M156.356,149.094 C154.689777,151.571343 152.620105,153.751885 150.233,155.545 L152.712,158.845 C155.20571,156.969537 157.401235,154.727485 159.224,152.195 L159.224,152.195 L159.306,152.081 L159.306,152.081 L159.317,152.065 L159.317,152.065 L159.397,151.951 L159.397,151.951 L159.407,151.937 L159.407,151.937 L159.417,151.922 L159.417,151.922 L159.474,151.841 L159.474,151.841 L159.485,151.826 L159.485,151.826 L159.496,151.812 L159.496,151.812 L159.507,151.797 L159.507,151.797 L159.564,151.716 L159.564,151.716 L159.574,151.702 L159.574,151.702 L159.583,151.688 L159.583,151.688 L159.592,151.675 L159.592,151.675 L159.646,151.596 L159.646,151.596 L159.655,151.582 L159.655,151.582 L159.664,151.569 L159.664,151.569 L159.673,151.555 L159.673,151.555 L159.727,151.475 L159.727,151.475 L159.736,151.461 L159.736,151.461 L159.745,151.448 L159.745,151.448 L156.323,149.148 L156.356,149.094 Z M165,133.878 L160.875,133.878 L160.875,134.252 C160.878391,137.126842 160.415723,139.983223 159.505,142.71 L163.416,144.019 L163.416,144.019 L163.426,143.988 L163.426,143.988 L163.431,143.974 L163.431,143.968 L163.431,143.955 L163.431,143.949 L163.431,143.934 L163.431,143.934 L163.446,143.886 L163.446,143.879 L163.446,143.866 L163.446,143.86 L163.446,143.846 L163.446,143.846 L163.461,143.799 L163.461,143.793 L163.466,143.78 L163.466,143.774 L163.466,143.76 L163.466,143.76 L163.48,143.715 L163.48,143.708 L163.48,143.695 L163.48,143.688 L163.48,143.675 L163.48,143.669 L163.495,143.623 L163.495,143.623 L163.495,143.61 L163.495,143.603 L163.495,143.59 L163.495,143.584 L163.51,143.539 L163.51,143.532 L163.51,143.52 L163.51,143.513 L163.51,143.499 L163.51,143.493 L163.51,143.48 L163.51,143.48 L163.518,143.453 L163.518,143.446 L163.518,143.433 L163.518,143.426 L163.518,143.413 L163.518,143.407 L163.518,143.393 L163.518,143.393 L163.526,143.367 L163.526,143.36 L163.526,143.348 L163.526,143.34 L163.526,143.328 L163.526,143.32 L163.526,143.308 L163.526,143.301 L163.533,143.277 L163.533,143.27 L163.533,143.258 L163.533,143.249 L163.533,143.237 L163.533,143.229 L163.533,143.217 L163.533,143.209 L163.539,143.188 L163.539,143.178 L163.539,143.167 L163.539,143.158 L163.539,143.147 L163.539,143.138 L163.539,143.126 L163.539,143.117 L163.545,143.097 L163.545,143.088 L163.545,143.076 L163.545,143.067 L163.545,143.056 L163.545,143.046 L163.545,143.036 L163.545,143.025 L163.551,143.005 L163.551,142.997 L163.551,142.986 L163.551,142.976 L163.551,142.965 L163.551,142.955 L163.551,142.945 L163.551,142.933 L163.551,142.924 L163.551,142.905 L163.551,142.897 L163.551,142.884 L163.551,142.875 L163.551,142.863 L163.551,142.854 L163.551,142.842 L163.551,142.833 L163.557,142.814 L163.557,142.805 L163.557,142.793 L163.557,142.783 L163.557,142.772 L163.557,142.763 L163.557,142.75 L163.557,142.742 L163.563,142.722 L163.563,142.713 L163.563,142.702 L163.563,142.691 L163.563,142.681 L163.563,142.671 L163.563,142.66 L163.563,142.65 L163.569,142.631 L163.569,142.623 L163.569,142.61 L163.569,142.601 L163.569,142.589 L163.569,142.58 L163.569,142.568 L163.569,142.559 L163.569,142.54 L163.569,142.533 L163.569,142.518 L163.569,142.509 L163.569,142.498 L163.569,142.488 L163.569,142.476 L163.569,142.467 L163.575,142.448 L163.575,142.443 L163.575,142.427 L163.575,142.418 L163.575,142.405 L163.575,142.397 L163.575,142.384 L163.575,142.376 L163.575,142.36 L163.575,142.351 L163.575,142.335 L163.575,142.326 L163.575,142.314 L163.575,142.305 L163.575,142.292 L163.575,142.284 L163.575,142.268 L163.575,142.268 L163.575,142.248 L163.575,142.24 L163.575,142.227 L163.575,142.218 L163.575,142.205 L163.575,142.197 L163.575,142.182 L163.575,142.176 L163.581,142.156 L163.581,142.147 L163.581,142.135 L163.581,142.126 L163.581,142.114 L163.581,142.105 L163.581,142.09 L163.581,142.084 L163.587,142.064 L163.587,142.055 L163.587,142.043 L163.587,142.034 L163.587,142.021 L163.587,142.013 L163.587,141.999 L163.587,141.991 L163.587,141.972 L163.587,141.963 L163.587,141.951 L163.587,141.942 L163.587,141.929 L163.587,141.92 L163.587,141.906 L163.587,141.9 L163.587,141.879 L163.587,141.873 L163.587,141.857 L163.587,141.85 L163.587,141.836 L163.587,141.828 L163.587,141.813 L163.587,141.807 L163.587,141.786 L163.587,141.786 L163.587,141.769 L163.587,141.762 L163.587,141.747 L163.587,141.74 L163.587,141.724 L163.587,141.724 L163.593,141.702 L163.593,141.702 L163.593,141.683 L163.593,141.677 L163.593,141.662 L163.593,141.655 L163.593,141.639 L163.593,141.633 L163.599,141.612 L163.599,141.612 L163.599,141.594 L163.599,141.587 L163.599,141.572 L163.599,141.565 L163.599,141.55 L163.599,141.543 L163.604,141.524 L163.604,141.524 L163.604,141.504 L163.604,141.497 L163.604,141.482 L163.604,141.475 L163.604,141.459 L163.604,141.459 L163.614,141.416 L163.614,141.41 L163.614,141.394 L163.614,141.387 L163.614,141.372 L163.614,141.366 L163.614,141.347 L163.614,141.347 L163.614,141.326 L163.614,141.32 L163.614,141.304 L163.614,141.297 L163.614,141.282 L163.614,141.275 L163.614,141.258 L163.614,141.258 L163.614,141.237 L163.614,141.231 L163.614,141.215 L163.614,141.208 L163.614,141.193 L163.614,141.187 L163.614,141.168 L163.614,141.168 L163.614,141.145 L163.614,141.145 L163.614,141.125 L163.614,141.125 L163.614,141.108 L163.614,141.102 L163.614,141.085 L163.614,141.085 L163.619,141.064 L163.619,141.064 L163.619,141.046 L163.619,141.04 L163.619,141.024 L163.619,141.018 L163.619,141.001 L163.619,141.001 L163.619,140.979 L163.619,140.979 L163.619,140.961 L163.619,140.954 L163.619,140.939 L163.619,140.932 L163.619,140.917 L163.619,140.91 L163.619,140.889 L163.619,140.889 L163.619,140.869 L163.619,140.863 L163.619,140.847 L163.619,140.841 L163.619,140.825 L163.619,140.819 L163.628,140.776 L163.628,140.769 L163.628,140.754 L163.628,140.747 L163.628,140.732 L163.628,140.725 L163.637,140.682 L163.637,140.676 L163.637,140.66 L163.637,140.653 L163.637,140.638 L163.637,140.631 L163.647,140.588 L163.647,140.583 L163.647,140.566 L163.647,140.559 L163.647,140.544 L163.647,140.537 L163.647,140.519 L163.647,140.519 L163.652,140.498 L163.652,140.4 L163.652,140.384 L163.652,140.377 L163.652,140.362 L163.652,140.355 L163.652,140.335 L163.652,140.335 L163.652,140.313 L163.652,140.3 L163.652,140.284 L163.652,140.277 L163.652,140.262 L163.652,140.255 L163.652,140.237 L163.652,140.237 L163.652,140.216 L163.652,140.216 L163.652,140.199 L163.652,140.192 L163.652,140.176 L163.652,140.17 L163.652,140.152 L163.652,140.152 L163.652,140.13 L163.652,140.13 L163.652,140.112 L163.652,140.106 L163.652,140.09 L163.652,140.083 L163.652,140.066 L163.652,140.066 L163.652,140.044 L163.652,140.044 L163.652,140.025 L163.652,140 L163.652,139.983 L163.652,139.977 L163.652,139.958 L163.652,139.958 L163.661,139.913 L163.661,139.913 L163.661,139.896 L163.661,139.89 L163.661,139.872 L163.661,139.872 L163.669,139.828 L163.669,139.822 L163.669,139.806 L163.669,139.799 L163.669,139.782 L163.669,139.782 L163.677,139.738 L163.677,139.738 L163.677,139.721 L163.677,139.714 L163.677,139.698 L163.677,139.692 L163.685,139.648 L163.685,139.648 L163.685,139.631 L163.685,139.6 L163.685,139.582 L163.685,139.582 L163.693,139.537 L163.693,139.537 L163.693,139.519 L163.693,139.5 L163.693,139.482 L163.693,139.482 L163.701,139.436 L163.701,139.436 L163.701,139.416 L163.701,139.416 L163.701,139.398 L163.701,139.398 L163.701,139.376 L163.701,139.376 L163.701,139.352 L163.701,139.352 L163.701,139.333 L163.701,139.326 L163.701,139.31 L163.701,139.304 L163.701,139.283 L163.701,139.283 L163.701,139.259 L163.701,139.259 L163.701,139.238 L163.701,139.238 L163.701,139.221 L163.701,139.215 L163.701,139.197 L163.701,139.197 L163.701,139.174 L163.701,139.174 L163.701,139.154 L163.701,139.148 L163.701,139.131 L163.701,139.1 L163.701,139.082 L163.701,139.082 L163.708,139.038 L163.708,139.032 L163.708,139.015 L163.708,139 L163.708,138.983 L163.708,138.983 L163.715,138.939 L163.715,138.931 L163.715,138.916 L163.715,138.909 L163.715,138.893 L163.715,138.887 L163.722,138.843 L163.722,138.837 L163.722,138.82 L163.722,138.814 L163.722,138.797 L163.722,138.791 L163.728,138.747 L163.728,138.741 L163.728,138.724 L163.728,138.718 L163.728,138.701 L163.728,138.696 L163.734,138.651 L163.734,138.651 L163.734,138.632 L163.734,138.632 L163.734,138.615 L163.734,138.6 L163.74,138.556 L163.74,138.55 L163.74,138.534 L163.74,138.527 L163.74,138.511 L163.74,138.5 L163.74,138.48 L163.74,138.48 L163.74,138.457 L163.74,138.457 L163.74,138.438 L163.74,138.438 L163.74,138.421 L163.74,138.415 L163.74,138.395 L163.74,138.395 L163.74,138.373 L163.74,138.373 L163.74,138.354 L163.74,138.354 L163.74,138.336 L163.74,138.336 L163.74,138.316 L163.74,138.316 L163.74,138.292 L163.74,138.292 L163.74,138.271 L163.74,138.265 L163.74,138.249 L163.74,138.242 L163.74,138.224 L163.74,138.224 L163.74,138.202 L163.74,138.202 L163.74,138.183 L163.74,138.177 L163.74,138.16 L163.74,138.154 L163.74,138.136 L163.74,138.136 L163.746,138.09 L163.746,138.09 L163.746,138.071 L163.746,138.066 L163.746,138.048 L163.746,138.048 L163.746,138.025 L163.746,138.025 L163.746,138.003 L163.746,137.997 L163.746,137.981 L163.746,137.974 L163.746,137.956 L163.746,137.956 L163.746,137.91 L163.746,137.91 L163.746,137.893 L163.746,137.886 L163.746,137.87 L163.746,137.864 L163.746,137.844 L163.746,137.844 L163.746,137.822 L163.746,137.822 L163.746,137.804 L163.746,137.798 L163.746,137.78 L163.746,137.78 L163.746,137.76 L163.746,137.76 L163.746,137.737 L163.746,137.708 L163.746,137.691 L163.746,137.685 L163.746,137.666 L163.746,137.666 L163.746,137.643 L163.746,137.643 L163.746,137.624 L163.746,137.594 L163.746,137.576 L163.746,137.576 L163.746,137.553 L163.746,137.553 L163.746,137.535 L163.746,137.505 L163.746,137.488 L163.746,137.482 L163.746,137.46 L163.746,137.46 L163.746,137.442 L163.746,137.412 L163.746,137.395 L163.746,137.3 L163.746,137.278 L163.746,137.278 L163.746,137.258 L163.746,137.252 L163.746,137.236 L163.746,137.228 L163.746,137.213 L163.746,137.2 L163.746,137.177 L163.746,137.177 L163.746,137.155 L163.746,137.149 L163.746,137.132 L163.746,137.125 L163.746,137.108 L163.746,137.108 L163.746,137.063 L163.746,137.057 L163.746,137.04 L163.746,137.01 L163.746,136.965 L163.746,136.936 L163.746,136.919 L163.746,136.913 L163.746,136.867 L163.746,136.867 L163.746,136.848 L163.746,136.842 L163.746,136.824 L163.746,136.824 L163.746,136.778 L163.746,136.778 L163.746,136.759 L163.746,136.753 L163.746,136.736 L163.746,136.73 L163.746,136.709 L163.746,136.709 L163.746,136.686 L163.746,136.612 L163.746,136.589 L163.746,136.589 L163.746,136.57 L163.746,136.5 L163.746,136.476 L163.746,136.476 L163.746,136.455 L163.746,136.4 L163.746,136.377 L163.746,136.324 L163.746,136.306 L163.746,136.306 L163.746,136.283 L163.746,136.283 L163.746,136.2 L163.746,136.153 L163.746,136.1 L163.746,136.055 L163.746,135.98 L163.746,135.98 L163.746,135.78 L163.746,135.757 L163.746,135.386 L163.746,135.34 L163.746,135.264 L163.746,135.264 L163.746,134.248 L163.746,134.248 L163.746,133.874 L165,133.878 Z M165,115.316 L160.875,115.316 L160.875,125.628 L165,125.628 L165,115.316 L165,115.316 Z M165,96.754 L160.875,96.754 L160.875,107.066 L165,107.066 L165,96.754 L165,96.754 Z M165,78.193 L160.875,78.193 L160.875,88.505 L165,88.505 L165,78.193 L165,78.193 Z M165,59.631 L160.875,59.631 L160.875,69.943 L165,69.943 L165,59.631 L165,59.631 Z M165,41.07 L160.875,41.07 L160.875,51.382 L165,51.382 L165,41.07 L165,41.07 Z M163.91,22.605 L159.93,23.7 C160.557609,25.9983961 160.874758,28.3704564 160.873,30.753 L160.873,32.82 L165,32.82 L165,30.6 L165,30.6 L165,30.5 L165,30.5 L165,29.044 L165,29.044 L165,29.022 L165,28.947 L165,28.947 L165,28.92 L165,28.898 L165,28.898 L165,28.871 L165,28.849 L165,28.849 L165,28.8 L165,28.8 L165,28.77 L165,28.749 L165,28.749 L165,28.722 L165,28.678 L165,28.678 L165,28.634 L165,28.634 L165,28.589 L165,28.589 L165,28.546 L165,28.546 L165,28.524 L165,28.524 L165,28.498 L165,28.454 L165,28.454 L165,28.432 L165,28.38 L165,28.359 L165,28.331 L165,28.31 L165,28.31 L165,28.29 L165,28.284 L165,28.263 L165,28.263 L165,28.243 L165,28.243 L165,28.221 L165,28.221 L165,28.202 L165,28.196 L165,28.175 L165,28.175 L165,28.155 L165,28.155 L165,28.133 L165,28.133 L165,28.114 L165,28.109 L165,28.087 L165,28.087 L165,28.068 L165,28.062 L165,28.041 L165,27.99 L165,27.97 L165,27.97 L165,27.953 L165,27.947 L165,27.926 L165,27.898 L165,27.877 L165,27.877 L165,27.859 L165,27.853 L165,27.832 L165,27.8 L165,27.78 L165,27.77 L165,27.753 L165,27.748 L165,27.727 L165,27.727 L165,27.711 L165,27.7 L165,27.68 L165,27.674 L165,27.658 L165,27.652 L165,27.632 L165,27.6 L165,27.58 L165,27.552 L165,27.532 L165,27.526 L165,27.51 L165,27.504 L165,27.483 L165,27.455 L165,27.435 L165,27.407 L165,27.387 L165,27.381 L165,27.364 L165,27.359 L165,27.339 L165,27.332 L165,27.317 L165,27.31 L165,27.29 L165,27.284 L165,27.268 L165,27.262 L165,27.242 L165,27.236 L165,27.22 L165,27.214 L165,27.194 L165,27.187 L165,27.171 L165,27.166 L165,27.146 L165,27.14 L165,27.123 L165,27.12 L165,27.099 L165,27.099 L165,27.081 L165,27.081 L165,27.061 L165,27.054 L165,27.039 L165,27.032 L165,27.012 L165,26.985 L165,26.964 L165,26.958 L165,26.941 L165,26.936 L165,26.916 L165,26.9 L165,26.884 L165,26.879 L165,26.859 L165,26.853 L165,26.836 L165,26.83 L165,26.811 L165,26.8 L165,26.784 L165,26.784 L165,26.764 L165,26.758 L165,26.739 L165,26.739 L165,26.718 L165,26.718 L165,26.698 L165,26.698 L165,26.677 L165,26.671 L165,26.652 L165,26.652 L165,26.633 L165,26.627 L165,26.606 L165,26.606 L165,26.585 L165,26.579 L165,26.56 L165,26.56 L165,26.541 L165,26.535 L165,26.516 L165,26.516 L165,26.499 L165,26.492 L165,26.475 L165,26.466 L165,26.451 L165,26.444 L165,26.425 L165,26.4 L165,26.383 L165,26.376 L165,26.358 L165,26.351 L165,26.335 L165,26.328 L165,26.31 L165,26.3 L165,26.285 L165,26.277 L165,26.26 L165,26.251 L165,26.237 L165,26.23 L165,26.21 L165,26.205 L165,26.189 L165,26.182 L165,26.164 L165,26.156 L165,26.141 L165,26.134 L165,26.115 L165,26.108 L165,26.094 L165,26.087 L165,26.067 L165,26.061 L165,26.046 L165,26.039 L165,26.02 L165,26.014 L165,25.998 L165,25.991 L165,25.972 L165,25.966 L165,25.95 L165,25.944 L165,25.924 L165,25.918 L165,25.903 L165,25.896 L165,25.877 L165,25.871 L165,25.855 L165,25.849 L165,25.829 L165,25.824 L165,25.808 L165,25.8 L165,25.781 L165,25.775 L165,25.759 L165,25.753 L165,25.733 L165,25.727 L165,25.712 L165,25.706 L165,25.686 L165,25.68 L165,25.665 L165,25.659 L165,25.639 L165,25.634 L165,25.617 L165,25.617 L165,25.597 L165,25.597 L165,25.579 L165,25.579 L165,25.558 L165,25.558 L165,25.541 L165,25.541 L165,25.521 L165,25.515 L165,25.499 L165,25.47 L165,25.449 L165,25.449 L165,25.432 L165,25.427 L165,25.407 L165,25.4 L165,25.385 L165,25.379 L165,25.359 L165,25.353 L165,25.336 L165,25.336 L165,25.316 L165,25.3 L165,25.285 L165,25.28 L165,25.261 L165,25.254 L165,25.238 L165,25.233 L165,25.213 L165,25.207 L165,25.191 L165,25.186 L165,25.166 L165,25.16 L165,25.143 L165,25.143 L165,25.123 L165,25.117 L165,25.1 L165,25.1 L165,25.079 L165,25.079 L165,25.061 L165,25.061 L165,25.041 L165,25.035 L165,25.017 L165,25.017 L165,24.997 L165,24.99 L165,24.973 L165,24.973 L165,24.953 L165,24.946 L165,24.929 L165,24.929 L165,24.909 L165,24.903 L165,24.885 L165,24.885 L165,24.864 L165,24.864 L165,24.845 L165,24.845 L165,24.824 L165,24.819 L165,24.799 L165,24.799 L165,24.779 L165,24.772 L165,24.754 L165,24.754 L165,24.733 L165,24.727 L165,24.708 L165,24.708 L165,24.688 L165,24.681 L165,24.663 L165,24.663 L165,24.643 L165,24.638 L164.992,24.597 L164.992,24.59 L164.992,24.571 L164.992,24.571 L164.992,24.552 L164.992,24.5 L164.992,24.479 L164.992,24.479 L164.992,24.459 L164.992,24.453 L164.987,24.433 L164.987,24.433 L164.987,24.413 L164.987,24.408 L164.987,24.387 L164.987,24.387 L164.987,24.367 L164.987,24.367 L164.987,24.346 L164.987,24.346 L164.987,24.326 L164.987,24.321 L164.987,24.3 L164.987,24.3 L164.987,24.28 L164.987,24.274 L164.987,24.254 L164.987,24.254 L164.987,24.235 L164.987,24.229 L164.987,24.209 L164.987,24.209 L164.987,24.19 L164.987,24.185 L164.982,24.164 L164.982,24.164 L164.982,24.145 L164.982,24.145 L164.982,24.123 L164.982,24.123 L164.982,24.102 L164.982,24.102 L164.982,24.08 L164.982,24.08 L164.982,24.059 L164.982,24.059 L164.982,24.037 L164.982,24.037 L164.982,24.016 L164.982,24.016 L164.972,23.973 L164.972,23.973 L164.972,23.951 L164.972,23.951 L164.972,23.929 L164.972,23.929 L164.972,23.907 L164.972,23.907 L164.972,23.886 L164.972,23.886 L164.962,23.842 L164.962,23.842 L164.962,23.821 L164.962,23.821 L164.957,23.8 L164.957,23.8 L164.946,23.755 L164.946,23.755 L164.946,23.732 L164.946,23.732 L164.94,23.71 L164.94,23.71 L164.929,23.664 L164.929,23.664 L164.902,23.549 L164.902,23.549 L164.886,23.48 L164.886,23.48 L164.88,23.457 L164.88,23.457 L164.874,23.434 L164.874,23.434 L164.874,23.411 L164.874,23.411 C164.811333,23.157 164.744667,22.904 164.674,22.652 L163.91,22.605 Z M154.042,7.215 L151.386,10.371 C153.671037,12.2921565 155.617702,14.5829276 157.145,17.148 L160.689,15.037 C160.371,14.5036667 160.037667,13.9816667 159.689,13.471 L159.689,13.471 L159.679,13.456 L159.679,13.456 L159.669,13.442 L159.669,13.442 L159.625,13.378 L159.625,13.378 L159.616,13.364 L159.616,13.364 L159.608,13.352 L159.608,13.352 L159.599,13.339 L159.599,13.339 L159.59,13.326 L159.59,13.326 L159.58,13.313 L159.58,13.313 L159.549,13.269 L159.549,13.263 L159.541,13.252 L159.541,13.246 L159.534,13.235 L159.5,13.2 L159.493,13.19 L159.493,13.182 L159.486,13.172 L159.486,13.164 L159.479,13.154 L159.472,13.145 L159.463,13.132 L159.455,13.12 L159.448,13.111 L159.442,13.102 L159.436,13.093 L159.43,13.084 L159.424,13.076 L159.417,13.066 L159.411,13.058 L159.404,13.048 L159.404,13.041 L159.396,13.03 L159.391,13.023 L159.366,12.987 L159.366,12.987 L159.357,12.974 L159.357,12.968 L159.349,12.957 L159.349,12.95 L159.34,12.938 L159.34,12.932 L159.33,12.919 L159.33,12.919 L159.291,12.864 L159.291,12.864 L159.279,12.847 L159.279,12.847 L159.267,12.831 L159.267,12.831 L159.256,12.815 L159.256,12.815 L159.244,12.798 L159.244,12.798 L159.19,12.724 L159.19,12.724 L159.177,12.707 L159.177,12.707 L159.164,12.69 L159.164,12.69 C157.695512,10.6742144 155.988807,8.84327506 154.081,7.237 L154.042,7.215 Z M137.186,0.14 L136.797,4.247 C139.764706,4.52393568 142.664056,5.30160391 145.372,6.547 L147.097,2.801 L147.064,2.785 L147.064,2.785 L147.05,2.779 L147.05,2.779 L147.036,2.772 L147.03,2.772 L147.017,2.766 L147.017,2.766 L146.969,2.744 L146.963,2.744 L146.95,2.738 L146.944,2.738 L146.931,2.732 L146.925,2.732 L146.911,2.726 L146.911,2.726 L146.898,2.72 L146.892,2.72 L146.869,2.709 L146.86,2.709 L146.85,2.709 L146.84,2.709 L146.83,2.704 L146.819,2.704 L146.811,2.704 L146.8,2.704 L146.791,2.704 L146.778,2.699 L146.771,2.699 L146.752,2.69 L146.744,2.69 L146.732,2.684 L146.724,2.684 L146.712,2.678 L146.704,2.678 L146.691,2.672 L146.684,2.672 L146.67,2.666 L146.664,2.666 L146.624,2.648 L146.624,2.648 L146.608,2.642 L146.602,2.642 L146.588,2.636 L146.582,2.636 L146.566,2.629 L146.566,2.629 L146.504,2.602 L146.504,2.602 L146.486,2.594 L146.486,2.594 L146.468,2.586 L146.468,2.586 L146.448,2.577 L146.448,2.577 L146.385,2.549 L146.385,2.549 L146.365,2.54 L146.365,2.54 L146.344,2.531 L146.344,2.531 L146.258,2.494 L146.258,2.494 C143.746065,1.43191359 141.103264,0.710844149 138.4,0.35 L138.4,0.35 L138.3,0.337 L138.3,0.337 L138.278,0.337 L138.278,0.337 L138.256,0.337 L138.256,0.337 L138.162,0.325 L138.162,0.325 L138.14,0.325 L138.14,0.325 L138.118,0.325 L138.118,0.325 L138,0.228 L138,0.228 L137.978,0.228 L137.978,0.228 L137.957,0.228 L137.957,0.228 L137.886,0.22 L137.886,0.22 L137.863,0.22 L137.863,0.22 L137.843,0.22 L137.843,0.22 L137.822,0.22 L137.822,0.22 L137.752,0.212 L137.752,0.212 L137.733,0.212 L137.733,0.212 L137.714,0.212 L137.714,0.212 L137.693,0.212 L137.693,0.212 L137.646,0.207 L137.646,0.207 L137.626,0.207 L137.626,0.207 L137.608,0.207 L137.602,0.207 L137.584,0.207 L137.584,0.207 L137.536,0.202 L137.536,0.202 L137.514,0.202 L137.514,0.202 L137.496,0.202 L137.466,0.202 L137.45,0.202 L137.443,0.202 L137.397,0.202 L137.368,0.202 L137.351,0.202 L137.344,0.202 L137.327,0.202 L137.299,0.202 L137.252,0.202 L137.235,0.202 L137.186,0.14 Z"/>
    <rect width="105.667" height="29.942" x="29.667" y="27.738" fill="#DDDBDA" fill-rule="nonzero" rx="3"/>
    <path fill="#FFF" fill-rule="nonzero" d="M58.405,43.451 C58.4420558,43.248973 58.3937107,43.0406238 58.2714752,42.8755585 C58.1492398,42.7104933 57.9640507,42.6034809 57.76,42.58 L50.726,42.58 C50.3416427,42.5981409 50.0341409,42.9056427 50.016,43.29 L50.016,50.84 L58.405,50.84 L58.405,43.451 Z M53.565,48.872 C53.5639019,49.2277678 53.2757678,49.5159019 52.92,49.517 L52.275,49.517 C51.9188417,49.5164512 51.6301005,49.228157 51.629,48.872 L51.629,48.227 C51.6300981,47.8706799 51.9186799,47.5820981 52.275,47.581 L52.92,47.581 C53.276157,47.5821005 53.5644512,47.8708417 53.565,48.227 L53.565,48.872 Z M53.565,45.581 C53.5639019,45.9367678 53.2757678,46.2249019 52.92,46.226 L52.275,46.226 C51.9188417,46.2254512 51.6301005,45.937157 51.629,45.581 L51.629,44.935 C51.6306462,44.5790705 51.9190683,44.2910948 52.275,44.29 L52.92,44.29 C53.2757678,44.2910981 53.5639019,44.5792322 53.565,44.935 L53.565,45.581 Z M56.792,48.872 C56.7908995,49.228157 56.5021583,49.5164512 56.146,49.517 L55.5,49.517 C55.1442322,49.5159019 54.8560981,49.2277678 54.855,48.872 L54.855,48.227 C54.8555488,47.8708417 55.143843,47.5821005 55.5,47.581 L56.145,47.581 C56.5013201,47.5820981 56.7899019,47.8706799 56.791,48.227 L56.792,48.872 Z M56.792,45.581 C56.7908995,45.937157 56.5021583,46.2254512 56.146,46.226 L55.5,46.226 C55.1442322,46.2249019 54.8560981,45.9367678 54.855,45.581 L54.855,44.935 C54.8560981,44.5792322 55.1442322,44.2910981 55.5,44.29 L56.145,44.29 C56.5009317,44.2910948 56.7893538,44.5790705 56.791,44.935 L56.792,45.581 Z M51.952,39.967 L51.952,36.224 C51.9890558,36.021973 51.9407107,35.8136238 51.8184752,35.6485585 C51.6962398,35.4834933 51.5110507,35.3764809 51.307,35.353 L40.4,35.353 C40.0160072,35.3710989 39.7086401,35.678033 39.69,36.062 L39.69,50.84 L48.08,50.84 L48.08,41.386 C48.08,41.386 48.08,40.612 48.79,40.612 L51.339,40.612 C51.339,40.612 51.952,40.225 51.952,39.967 L51.952,39.967 Z M43.24,48.549 C43.2394512,48.9051583 42.951157,49.1938995 42.595,49.195 L41.95,49.195 C41.5936799,49.1939019 41.3050981,48.9053201 41.304,48.549 L41.304,47.9 C41.3051005,47.543843 41.5938417,47.2555488 41.95,47.255 L42.6,47.255 C42.9557678,47.2560981 43.2439019,47.5442322 43.245,47.9 L43.24,48.549 Z M43.24,45.226 C43.2389019,45.5817678 42.9507678,45.8699019 42.595,45.871 L41.95,45.871 C41.5938417,45.8704512 41.3051005,45.582157 41.304,45.226 L41.304,44.581 C41.3050981,44.2246799 41.5936799,43.9360981 41.95,43.935 L42.6,43.935 C42.956157,43.9361005 43.2444512,44.2248417 43.245,44.581 L43.24,45.226 Z M43.24,41.935 C43.2389019,42.2907678 42.9507678,42.5789019 42.595,42.58 L41.95,42.58 C41.5938417,42.5794512 41.3051005,42.291157 41.304,41.935 L41.304,41.289 C41.3056462,40.9330705 41.5940683,40.6450948 41.95,40.644 L42.6,40.644 C42.9557678,40.6450981 43.2439019,40.9332322 43.245,41.289 L43.24,41.935 Z M43.24,38.644 C43.2389019,38.9997678 42.9507678,39.2879019 42.595,39.289 L41.95,39.289 C41.5938417,39.2884512 41.3051005,39.000157 41.304,38.644 L41.304,38 C41.3051005,37.643843 41.5938417,37.3555488 41.95,37.355 L42.6,37.355 C42.9538137,37.3588266 43.2389269,37.6461672 43.24,38 L43.24,38.644 Z M46.789,48.549 C46.7884512,48.9051583 46.500157,49.1938995 46.144,49.195 L45.5,49.195 C45.143843,49.1938995 44.8555488,48.9051583 44.855,48.549 L44.855,47.9 C44.8560981,47.5442322 45.1442322,47.2560981 45.5,47.255 L46.145,47.255 C46.5007678,47.2560981 46.7889019,47.5442322 46.79,47.9 L46.789,48.549 Z M46.789,45.226 C46.7879019,45.5817678 46.4997678,45.8699019 46.144,45.871 L45.5,45.871 C45.1442322,45.8699019 44.8560981,45.5817678 44.855,45.226 L44.855,44.581 C44.8555488,44.2248417 45.143843,43.9361005 45.5,43.935 L46.145,43.935 C46.501157,43.9361005 46.7894512,44.2248417 46.79,44.581 L46.789,45.226 Z M46.789,41.935 C46.7879019,42.2907678 46.4997678,42.5789019 46.144,42.58 L45.5,42.58 C45.1442322,42.5789019 44.8560981,42.2907678 44.855,41.935 L44.855,41.289 C44.8560981,40.9332322 45.1442322,40.6450981 45.5,40.644 L46.145,40.644 C46.5007678,40.6450981 46.7889019,40.9332322 46.79,41.289 L46.789,41.935 Z M46.789,38.644 C46.7879019,38.9997678 46.4997678,39.2879019 46.144,39.289 L45.5,39.289 C45.1442322,39.2879019 44.8560981,38.9997678 44.855,38.644 L44.855,38 C44.8560981,37.6442322 45.1442322,37.3560981 45.5,37.355 L46.145,37.355 C46.5007678,37.3560981 46.7889019,37.6442322 46.79,38 L46.789,38.644 Z M50.339,38.644 C50.3378995,39.000157 50.0491583,39.2884512 49.693,39.289 L49.048,39.289 C48.6922322,39.2879019 48.4040981,38.9997678 48.403,38.644 L48.403,38 C48.4040981,37.6442322 48.6922322,37.3560981 49.048,37.355 L49.693,37.355 C50.0491583,37.3555488 50.3378995,37.643843 50.339,38 L50.339,38.644 Z"/>
    <rect width="105.667" height="29.942" x="29.667" y="67.529" fill="#DDDBDA" fill-rule="nonzero" rx="3"/>
    <circle cx="49.049" cy="75.851" r="2.682" fill="#FFF" fill-rule="nonzero"/>
    <path fill="#FFF" fill-rule="nonzero" d="M57.394,80.321 L40.7,80.321 C40.4365835,80.310447 40.1991855,80.478871 40.1221187,80.7309827 C40.0450519,80.9830944 40.1477051,81.255467 40.372,81.394 L44.723,84.194 C44.9396557,84.334736 45.0371051,84.6018047 44.962,84.849 L43.322,90.303 C43.2570447,90.5736272 43.3819302,90.854146 43.6265015,90.9869735 C43.8710727,91.119801 44.1743641,91.0718265 44.366,90.87 L48.6,86.4 C48.7138184,86.2728838 48.8763742,86.2002387 49.047,86.2002387 C49.2176258,86.2002387 49.3801816,86.2728838 49.494,86.4 L53.726,90.871 C53.9194459,91.0665444 54.2188463,91.1107013 54.4605074,90.9793285 C54.7021686,90.8479557 54.8279165,90.5726778 54.769,90.304 L53.13,84.85 C53.0692344,84.6036084 53.1632352,84.3449088 53.368,84.195 L57.72,81.395 C57.9432647,81.2560911 58.0454021,80.9845482 57.9690276,80.7329339 C57.892653,80.4813196 57.6568085,80.3123671 57.394,80.321 L57.394,80.321 Z"/>
    <rect width="105.667" height="29.942" x="29.667" y="107.319" fill="#DDDBDA" fill-rule="nonzero" rx="3"/>
    <g transform="translate(35 108)">
      <rect width="29" height="29" rx="14.5"/>
      <rect width="29" height="29" rx="14.5"/>
      <g fill="#FFF" transform="translate(6.888 6.888)">
        <path d="M15.225 12.992L15.225 13.7025C15.225 14.539875 14.539875 15.225 13.7025 15.225L1.5225 15.225C.685125 15.225 0 14.539875 0 13.7025L0 12.992C0 11.139625 2.156875 10.023125 4.186875 9.135 4.263 9.109625 4.31375 9.08425 4.389875 9.0335 4.542125 8.957375 4.71975 8.957375 4.872 9.058875 5.684 9.59175 6.622875 9.89625 7.6125 9.89625 8.602125 9.89625 9.541 9.59175 10.353 9.08425 10.50525 8.98275 10.682875 8.98275 10.835125 9.058875 10.91125 9.08425 10.962 9.109625 11.038125 9.160375 13.068125 10.023125 15.225 11.139625 15.225 12.992M7.6125 0C9.70060875 0 11.393375 1.87445125 11.393375 4.186875 11.393375 6.49929875 9.70060875 8.37375 7.6125 8.37375 5.52439125 8.37375 3.831625 6.49929875 3.831625 4.186875 3.831625 1.87445125 5.52439125 0 7.6125 0"/>
      </g>
    </g>
  </g>
</svg>
