<svg xmlns="http://www.w3.org/2000/svg" viewBox="0 0 28 35" width="38px" height="38px"><title>live_stop_association</title><path d="M24,0H4A4,4,0,0,0,0,4V24a4,4,0,0,0,4,4H8.44L14,34.28,19.56,28H24a4,4,0,0,0,4-4V4A4,4,0,0,0,24,0Z" style="fill:#d50000"/><path d="M24,0H4A4,4,0,0,0,0,4V24a4,4,0,0,0,4,4H8.44L14,34.28,19.56,28H24a4,4,0,0,0,4-4V4A4,4,0,0,0,24,0Zm3,24a3,3,0,0,1-3,3H19.11L14,32.77,8.89,27H4a3,3,0,0,1-3-3V4A3,3,0,0,1,4,1H24a3,3,0,0,1,3,3Z" style="opacity:0.319999992847443;isolation:isolate"/></svg>