<?xml version="1.0" encoding="UTF-8"?>
<svg width="14px" height="15px" viewBox="0 0 14 15" version="1.1" xmlns="http://www.w3.org/2000/svg" xmlns:xlink="http://www.w3.org/1999/xlink">
    <!-- Generator: Sketch 50.2 (55047) - http://www.bohemiancoding.com/sketch -->
    <title>Event Dot 3</title>
    <desc>Created with Sketch.</desc>
    <defs></defs>
    <g id="Event-Dot-3" stroke="none" stroke-width="1" fill="none" fill-rule="evenodd">
        <circle id="Oval" fill="#061C3F" cx="7" cy="7.5" r="6.25"></circle>
        <path d="M7,13.5 C10.3137085,13.5 13,10.8137085 13,7.5 C13,4.1862915 10.3137085,1.5 7,1.5 C3.6862915,1.5 1,4.1862915 1,7.5 C1,10.8137085 3.6862915,13.5 7,13.5 Z M7,14.5 C3.13400675,14.5 0,11.3659932 0,7.5 C0,3.63400675 3.13400675,0.5 7,0.5 C10.8659932,0.5 14,3.63400675 14,7.5 C14,11.3659932 10.8659932,14.5 7,14.5 Z" id="Oval" fill="#000000" fill-rule="nonzero"></path>
        <circle id="Oval" fill="#FFFFFF" cx="7" cy="7.5" r="1.5"></circle>
    </g>
</svg>