<svg xmlns="http://www.w3.org/2000/svg" width="183" height="183" viewBox="0 0 183 183"><title>resource-emptystate</title><rect x="24.5" y="24.5" width="134" height="134" rx="17.25" ry="17.25" style="fill:#fafaf9"/><path d="M76.094,113.12a2.788,2.788,0,0,0-2.719,2.719v16.312a2.788,2.788,0,0,0,2.719,2.719h48.937a2.788,2.788,0,0,0,2.719-2.719V115.839a2.788,2.788,0,0,0-2.719-2.719Zm0-32.625a2.788,2.788,0,0,0-2.719,2.719V99.526a2.788,2.788,0,0,0,2.719,2.719h56.187A2.788,2.788,0,0,0,135,99.526V83.214a2.788,2.788,0,0,0-2.719-2.719Zm0-32.5a2.788,2.788,0,0,0-2.719,2.719V67.031a2.788,2.788,0,0,0,2.719,2.719h41.687a2.788,2.788,0,0,0,2.719-2.719V50.719A2.788,2.788,0,0,0,117.781,48ZM50.719,48A2.788,2.788,0,0,0,48,50.719v81.562A2.788,2.788,0,0,0,50.719,135h9.062a2.788,2.788,0,0,0,2.719-2.719V50.719A2.788,2.788,0,0,0,59.781,48Z" style="fill:#dddbda"/><path d="M143.252,9H132.94v4.125h10.312V9ZM124.69,9H114.378v4.125H124.69V9ZM106.129,9H95.817v4.125h10.312V9ZM87.567,9H77.255v4.125H87.567V9ZM69.006,9H58.694v4.125H69.006V9ZM50.444,9H40.132v4.125H50.444V9Zm-18.478.993a30.766,30.766,0,0,0-3.317,1.071h0l-.131.051h0l-.129.051h0l-.129.052h0l-.021.008h0l-.021.009h0l-.065.026h0l-.02.008h0l-.02.008h0l-.021.008h0l-.065.027h0L28,11.327h0l-.019.008h0l-.02.008h0l-.064.027h0l-.02.008,0,0-.017.007,0,0-.018.007h0l-.021.009h0l-.043.018h0l-.019.008h0l-.017.008h0l-.018.008h0l-.084.036,0,0-.018.007,0,0-.017.007,0,0-.019.008h0l-.063.027h0l-.019.008,0,0-.017.007,0,0-.018.008h0l-.063.028h0l-.019.009h0l-.018.008h0l-.019.008h0l-.084.038h0l-.019.009h0l-.018.009h0l-.084.039h0l-.02.009h0l-.019.009h0l-.085.039h0l-.02.009h0l-.019.009h0l-.105.048h0l-.02.01h0l-.02.01h0l-.083.039h0l-.02.009h0l-.02.009h0l-.084.039h0l-.02.009h0l-.021.009h0l-.083.04h0l-.019.01h0l-.019.01h0l-.105.051h0l-.02.01h0l-.125.062h0c-.125.062-.25.125-.374.189h0a30.706,30.706,0,0,0-3.14,1.851l2.3,3.422a26.4,26.4,0,0,1,8.094-3.652L31.966,9.995Zm-15.508,9.68,0,0,0,0-.011.012,0,.006-.01.011,0,.006-.01.011,0,0-.012.014,0,0-.015.016,0,0-.011.013,0,0-.01.012,0,.006-.009.01-.006.007-.008.009-.006.008-.008.01-.006.006-.01.012-.006.007-.012.014,0,.007-.008.009-.007.008-.008.009-.006.007-.007.009-.007.008-.008.009-.006.008-.008.009-.006.007-.009.011L16.179,20l-.007.008-.007.009-.007.008-.007.008-.007.009-.007.008-.007.008-.007.008-.007.009-.007.008L16.1,20.1,16.1,20.1l-.013.015-.007.009-.007.008-.007.008-.007.009-.007.008-.007.008-.007.009-.006.007-.008.01-.006.007-.007.009L16,20.219l-.012.014-.008.009-.007.009-.006.008-.008.009-.006.008-.007.008-.007.009-.007.008-.006.008-.008.009,0,.007-.016.019-.005.006-.007.009-.006.008-.008.009-.006.008-.007.008-.007.009-.006.008-.008.009-.006.008-.008.009-.006.007-.009.012-.008.01-.009.011-.007.009-.007.008-.006.008-.008.009-.006.008-.007.009-.006.008-.008.009-.006.008-.008.01,0,.007-.013.016-.006.006-.008.011-.006.007-.007.01-.007.008-.007.01-.006.006-.008.011,0,.006-.009.012,0,.006-.01.012,0,.006-.012.015,0,.007-.008.01-.006.008-.007.009-.007.008-.006.009-.007.009-.007.008-.006.008-.008.01-.006.008-.013.016,0,.006-.009.011-.006.008-.007.009-.006.008-.007.009-.007.008-.007.01-.006.007-.008.01,0,.007-.01.013,0,0-.013.017,0,.006-.009.011,0,.007-.008.01-.006.008-.007.01-.006.007-.008.01-.006.007-.008.011-.005.006-.01.014-.007.009-.009.012-.005.006-.008.011L15.3,21.1l-.009.01,0,.007-.008.011,0,.007-.009.011,0,.006-.012.016h0l-.013.018,0,0-.009.013-.006.007-.008.01,0,.007-.008.011,0,.006-.009.012,0,.006-.009.012,0,.006-.026.034,0,.006-.009.011-.005.008-.007.01-.006.007-.008.011-.005.006-.008.012-.005.006-.01.014,0,0-.013.018h0l-.012.017,0,0-.01.013,0,.006-.009.012-.005.006L15,21.5,15,21.5l-.009.013,0,0-.013.017h0l-.013.018,0,0-.01.015,0,.006-.008.012,0,.006-.009.012,0,.006-.009.012,0,.005-.01.014,0,0-.026.036,0,0-.011.015,0,0-.01.014,0,0-.009.013,0,.005-.011.014,0,0-.026.036v0l-.012.016,0,0-.01.015,0,0-.009.013,0,0-.01.013,0,.005-.011.015,0,0-.026.037,0,0-.01.015,0,0-.009.013,0,0-.009.013,0,0-.01.015,0,0-.012.017h0l-.013.019h0l-.012.018,0,0-.01.014,0,0-.009.013,0,.006-.009.013,0,0-.011.016v0l-.026.037v0l-.012.016,0,0-.01.016,0,0-.01.015,0,0-.01.014,0,0-.038.056,0,0-.011.016,0,0-.01.015,0,0-.01.015,0,0-.011.016v0l-.026.038h0l-.013.018v0l-.011.016,0,0-.011.015,0,0-.011.015,0,0-.012.018h0l-.025.038,0,0-.01.014,0,0-.009.015,0,0-.011.015,0,0-.011.017v0l-.038.056v0l-.011.017,0,0-.01.016,0,0-.011.017h0l-.051.076v0l-.011.017,0,0-.01.016,0,0-.012.018h0L14,22.943h0l-.012.018h0l-.012.018v0L13.959,23h0l-.05.077v0L13.9,23.1l0,0-.011.016v0l-.012.018h0l-.038.059h0l-.012.019h0l-.011.018v0l-.012.017v0l-.049.077h0l-.012.019h0l-.011.018h0l-.061.1v0l-.011.017v0l-.011.017h0l-.06.1h0l-.012.018v0l-.012.018h0l-.048.078v0l-.011.018v0l-.011.017v0l-.048.079h0l-.012.019v0l-.011.017v0l-.011.017v0l-.047.078,0,0-.01.017v0l-.011.017v0l-.01.018,0,0-.035.059h0l-.011.018,0,0-.009.015,0,0-.01.016,0,0-.01.019h0l-.035.06v0l-.01.017,0,0-.009.016,0,0-.01.017v0l-.034.059h0l-.01.019v0l-.01.017,0,0-.01.016,0,0-.009.017,0,0-.034.058v0l-.009.016,0,0-.009.015,0,0-.009.015,0,0L13,24.584h0l-.023.04v0l-.01.016,0,.005-.009.015,0,0-.008.014,0,.006-.008.015,0,0-.011.019h0l-.011.019,0,0-.009.015,0,.007-.006.013,0,.006-.007.013,0,.007-.007.013,0,.006-.008.014,0,0-.021.039,0,0-.008.014,0,.007-.007.012,0,.007-.007.013,0,.007-.007.013,0,.006-.008.014,0,.006-.01.018,0,.007-.007.012,0,.009-.006.01-.005.009,0,.01-.006.01-.005.009,0,.01-.005.008-.006.011,0,.008-.012.022,0,.007-.006.011,0,.008-.006.011,0,.008-.005.011,0,.008-.006.011-.005.009,0,.01,0,.008-.006.011v0l-.015.026,0,.009-.006.011,0,.008-.006.011,0,.008-.006.011,0,.007-.006.012,0,.008-.007.012v0l-.025.047,0,0-.007.013,0,.006-.007.013,0,.006-.006.013,0,.006-.007.013,0,0-.034.065v0l-.008.015,0,0-.008.015,0,0-.007.014,0,0-.045.087v0l-.009.016v0l-.008.017h0l-.055.107h0q-.639,1.261-1.164,2.588l3.837,1.515a26.538,26.538,0,0,1,4.6-7.6l-3.123-2.694ZM9.178,36.441q-.11,1.018-.151,2.056h0c0,.12-.009.241-.012.362v.364h0v.523H9v7h4.125v-7a27.1,27.1,0,0,1,.152-2.868l-4.1-.439ZM13.127,55H9V65.309h4.125V55Zm0,18.562H9V83.871h4.125V73.559Zm0,18.561H9v10.312h4.125V92.12Zm0,18.562H9v10.312h4.125V110.682Zm0,18.562H9v10.312h4.125V129.244Zm.288,17.942-4.081.6q.23,1.542.606,3.032h0l.006.022h0l.023.091v0l.006.021v0l0,.021v0l.018.068h0l.005.022v0l0,.019v0l0,.018v.005l.006.02h0l.012.045v0l0,.019v0l.005.017v0l.005.017v0l.006.021h0l.012.044v.005l.005.017v.006l.005.016v.006l0,.016v0l.012.044v0l0,.02,0,.005,0,.016,0,.008,0,.014,0,.007,0,.017v0l.006.022h0l.006.022,0,0,0,.018,0,.005,0,.016v.007l0,.015,0,.007,0,.015,0,.007.012.042,0,.006,0,.016,0,.007,0,.014,0,.008,0,.014,0,.007,0,.016,0,.006.006.021v0l.005.017,0,.008,0,.014,0,.007,0,.014,0,.008,0,.015,0,.006.005.017,0,.005.006.021,0,.006,0,.015,0,.008,0,.014,0,.008,0,.012,0,.01,0,.012,0,.009,0,.016,0,0,.006.021,0,.008,0,.012,0,.01,0,.012,0,.009,0,.012,0,.009,0,.013,0,.008.005.016,0,.008.005.019,0,.006.005.014,0,.009,0,.012,0,.01,0,.011,0,.01,0,.013,0,.008.006.018,0,.009,0,.014,0,.01,0,.011,0,.01,0,.011,0,.01,0,.011,0,.01,0,.013,0,.008.006.02,0,.009,0,.012,0,.009,0,.012,0,.009,0,.013,0,.008,0,.013,0,.009,0,.014,0,.006.007.021,0,.007,0,.014,0,.009,0,.012,0,.009,0,.013,0,.008,0,.013,0,.008.005.017v0l.007.02,0,.009,0,.013,0,.008,0,.013,0,.008,0,.013,0,.008.006.015v.006l.014.042,0,.007,0,.014,0,.008,0,.013,0,.008,0,.014,0,.007,0,.016,0,0,.007.021v0l.007.019,0,.008,0,.013,0,.008.005.013,0,.008,0,.013,0,.008,0,.015,0,.006.007.021v0l.006.018,0,.006,0,.015,0,.007.005.014,0,.007.005.016,0,0,.007.021h0l.007.022,0,0,0,.017,0,.007.005.015,0,.006.005.015,0,.006,0,.017,0,0,.015.043v0l.006.017,0,0,.006.017v0l.006.017,0,0,.007.019v0l.016.043v0l.006.018,0,0,.006.016,0,.006.006.017v0l.023.064v0l.007.018v0l.007.018v0l.007.018v0l.023.064v0l.007.017v0l.007.018v0l.032.087h0l.008.021v0l.008.021h0l.041.11h0a30.363,30.363,0,0,0,1.554,3.458l3.65-1.921a26.368,26.368,0,0,1-2.755-8.439ZM20.3,161.431l-3.013,2.817q.354.378.72.745h0q.211.212.428.419h0l.016.015h0l.1.095h0l.016.016h0l.1.094h0l.017.016h0l.1.094h0l.016.014v0l.1.093h0l.017.015h0l.068.062h0l.016.015h0l.015.014,0,0,.015.014h0l.068.062h0l.017.015h0l.017.015h0l.016.015h0l.051.046h0l.017.014v0l.016.014h0l.016.014h0l.016.015h0l.051.046h0l.015.014,0,0,.014.013,0,0,.015.013h0l.068.061h0l.016.013,0,0,.014.013,0,0,.015.012,0,0,.016.015h0l.051.045h0l.015.013,0,0,.014.012,0,0,.014.013,0,0,.051.045h0l.016.014,0,0,.014.012,0,0,.014.012,0,0,.015.013h0l.052.045h0l.015.013,0,0,.014.013,0,0,.015.012,0,0,.015.013h0l.051.044,0,0,.014.012,0,0,.013.012,0,0,.014.012,0,0,.015.013h0l.052.043,0,0,.014.012,0,0,.015.011,0,0,.016.013h0l.017.014h0l.035.029,0,0,.014.012,0,0,.012.01.006,0,.012.009,0,0,.013.011.005,0,.015.012h0l.018.015h0l.017.014,0,0,.014.011,0,.005.012.01.005,0,.012.01.005,0,.013.011,0,0,.017.013h0l.018.015h0l.017.014,0,0,.013.01,0,0,.012.011.005,0,.014.011,0,0,.014.011,0,0,.035.028h0l.017.013,0,0,.014.011,0,0,.013.011,0,0,.014.011,0,0,.016.012v0l.036.028h0l.016.013,0,0,.013.01.005,0,.012.009.006,0,.012.01,0,0,.015.012,0,0,.034.027.006,0,.012.009.006,0,.011.009.006,0,.012.01.006,0,.012.01,0,0,.016.013h0l.018.014h0l.017.013,0,0,.013.01.006,0,.012.009.006,0,.011.008.006,0,.013.01,0,0,.016.012,0,0,.017.013,0,0,.016.012,0,0,.013.01.006,0,.011.008.007.005.011.009.006,0,.014.011,0,0,.035.027,0,0,.014.011,0,0,.012.009.006,0,.012.009.006,0,.011.009.007,0,.013.01,0,0,.035.027,0,0,.012.009.007,0,.011.008.007,0,.01.008.007.006.011.007.007.006.011.008.006,0,.017.012,0,0,.014.011.006,0,.011.008.007.006.011.007.007.006.01.007.008.006.01.008.007,0,.013.01,0,0L21.5,168l.006,0,.011.009.007,0,.011.007.007.006.011.008.007.005.01.007.007.006.012.008.006,0,.015.011h0l.018.013.007,0,.01.008.009.006.009.007.008,0,.01.008.008.005.009.007.008.006.01.008.008,0,.016.011h0l.017.013.008.006.01.007.009.006.008.006.009.007.009.006.009.006.009.007.008.006.01.007.008,0,.014.011.009.006.011.008.008.006.01.007.009.006.008.006.01.007.007,0,.011.008.007,0,.01.007.008,0,.01.007.016.012.008.006.009.006.01.007.008.006.01.006.008.007.009.006.009.006.009.006.009.006.009.007.009.006.008.006.017.012.008,0,.01.007.009.007.009.006.009.006.008.006.009.006.009.006.01.007.007,0,.01.007.007,0,.021.015.007,0,.009.007.008.005.01.007.008.006.01.006.008.006.01.007.008,0,.01.007.007,0,.01.007.009.006.017.012.009.006.01.006.007.006.01.007.008,0,.01.007.008,0,.01.007.007,0,.011.007.006,0,.012.008h0l.03.021,0,0,.013.009,0,0,.013.009.005,0,.012.008.006,0,.011.008.006,0,.012.008.005,0,.04.027.007,0,.011.007.007,0,.011.007.006,0,.012.008.006,0,.011.008.007,0,.011.008.005,0,.042.028,0,0,.012.008.006,0,.012.008.006,0,.012.009,0,0,.013.008,0,0,.046.03h0l.013.008,0,0,.012.008.006,0,.012.007.006,0,.012.008.005,0,.013.009,0,0,.047.031h0l.012.008.006,0,.012.008.006,0,.012.007.006,0,.012.008,0,0,.013.009,0,0,.046.029,0,0,.011.007.007,0,.011.007.007,0,.011.007.007,0,.012.008,0,0,.013.007,0,0,.045.029h0l.013.009.005,0,.012.008.006,0,.012.008.006,0,.013.008,0,0,.062.039,0,0,.013.008.005,0,.013.008,0,0,.013.008,0,0,.013.009h0l.064.04,0,0,.013.008,0,0,.014.008,0,0,.014.009,0,0,.015.009h0l.065.04h0l.014.009,0,0,.014.008,0,0,.015.009,0,0,.084.05h0l.015.009,0,0,.014.008,0,0,.014.009h0l.067.041h0l.016.009,0,0,.014.008,0,0,.014.008,0,0,.015.009h0l.068.04h0l.016.01h0l.015.009,0,0,.014.009h0l.015.009h0l.068.039,0,0,.016.009h0l.015.008,0,0,.014.008,0,0,.016.009h0l.069.04h0l.016.009h0l.016.009,0,0,.016.009h0l.086.049h0l.016.009h0l.015.009,0,0,.1.058h0l.016.009h0l.015.009h0l.1.058h0l.016.009h0l.016.009h0l.1.057h0l.017.009h0l.017.009h0l.124.068h0l.018.01h0l.107.057h0l.018.01h0l.107.056h0l.016.009h0l.017.009h0l.018.009,1.921-3.65a26.659,26.659,0,0,1-7.067-5.395Zm13.751,7.832-.878,4.03c.331.072.663.139,1,.2h0l.023,0h0l.023,0h0l.023,0h0l.022,0h0l.022,0h0l.023,0h0l.022,0h0l.021,0h0l.1.017h0l.022,0H34.5l.019,0h.009l.016,0h.009l.015,0,.01,0,.014,0,.011,0,.014,0,.011,0,.014,0,.01,0,.014,0,.011,0,.014,0h.011l.012,0,.012,0h.012l.013,0h.01l.015,0h.008l.016,0h0l.045.007h0l.017,0h.007l.017,0H34.9l.016,0h.008l.016,0,.009,0,.016,0,.008,0,.016,0H35l.015,0h.009l.016,0h.008l.016,0,.009,0,.016,0h.007l.018,0h.006l.018,0h0l.02,0h0l.165.024h0l.021,0h0l.021,0h0l.021,0h0l.02,0h0l.02,0h.005l.02,0h0l.021,0h0l.022,0h0l.239.032h0l.023,0h0l.022,0h0l.021,0h0l.021,0h0l.021,0h0l.023,0h0l.023,0h0l.265.032h0l.024,0h0l.023,0h0l.023,0h0l.024,0h0l.29.031h0l.023,0h0l.023,0h0l.023,0h0l.023,0h0l.023,0h0c.1.01.192.019.289.027h0l.023,0h0l.022,0h0l.023,0h0l.022,0h0l.023,0h0l.242.019h.027l.02,0h0l.021,0h0l.02,0h.078l.022,0h0l.022,0h0l.191.012h.03l.019,0h.03l.019,0H37.9l.019,0h.1l.121.007h.322l.071,0h4.9v-4.125H39.748a26.8,26.8,0,0,1-5.7-.61Zm27.946.61H51.685V174H62v-4.125Zm18.561,0H70.246V174H80.558v-4.125Zm18.562,0H88.808V174H99.12v-4.125Zm18.561,0H107.369V174h10.312v-4.125Zm18.562,0H125.931V174h10.312v-4.125Zm16.779-1.848a26.488,26.488,0,0,1-8.693,1.827l.164,4.121a30.61,30.61,0,0,0,10.043-2.112l-1.514-3.836Zm12.334-9.931a26.717,26.717,0,0,1-6.123,6.451l2.479,3.3a30.926,30.926,0,0,0,6.512-6.65h0l.082-.114h0l.011-.016h0l.08-.114,0,0,.01-.014,0,0,.01-.015h0l.057-.081h0l.011-.015v0l.011-.014v0l.011-.015h0l.057-.081v0l.01-.014,0,0,.009-.014,0,0,.009-.013,0,0,.054-.079,0,0,.009-.014,0,0,.009-.013,0,0,.009-.014,0,0,.054-.08,0,0,.009-.014,0,0,.009-.013h0l-3.422-2.3ZM174,142.878h-4.125v.374a26.6,26.6,0,0,1-1.37,8.458l3.911,1.309v0l.01-.031v0l.005-.014,0-.006,0-.013,0-.006,0-.015h0l.015-.048,0-.007,0-.013,0-.006,0-.014v0l.015-.047,0-.006.005-.013,0-.006,0-.014,0,0,.014-.045,0-.007,0-.013,0-.007,0-.013,0-.006.015-.046v0l0-.013,0-.007,0-.013v-.006l.015-.045,0-.007,0-.012,0-.007,0-.014,0-.006,0-.013,0,0,.008-.027,0-.007,0-.013,0-.007,0-.013,0-.006,0-.014v0l.008-.026,0-.007,0-.012,0-.008,0-.012,0-.008,0-.012,0-.007.007-.024,0-.007,0-.012,0-.009,0-.012,0-.008,0-.012,0-.008.006-.021,0-.01,0-.011,0-.009,0-.011,0-.009,0-.012,0-.009.006-.02,0-.009,0-.012,0-.009,0-.011,0-.01,0-.01,0-.011.006-.02,0-.008,0-.011,0-.01,0-.011,0-.01,0-.01,0-.012,0-.009,0-.019,0-.008,0-.013,0-.009,0-.012,0-.009,0-.012,0-.009.006-.019,0-.009,0-.012,0-.01,0-.011,0-.009,0-.013,0-.008.006-.02,0-.009,0-.011,0-.011,0-.01,0-.01,0-.011,0-.01.006-.019,0-.008,0-.013,0-.009,0-.012,0-.009,0-.012,0-.009,0-.019,0-.007,0-.015,0-.009,0-.011,0-.01,0-.012,0-.009.006-.019v-.005l0-.016,0-.009,0-.013,0-.008,0-.013,0-.008,0-.016,0-.009,0-.016,0-.009,0-.012,0-.009,0-.013,0-.008,0-.016,0,0,0-.02,0-.008,0-.013,0-.009,0-.013,0-.008,0-.015v-.006l.006-.02,0-.009,0-.012,0-.009,0-.012,0-.009,0-.015v-.006l.006-.02,0-.009,0-.012,0-.009,0-.013,0-.008,0-.014,0-.008,0-.019,0-.009,0-.012,0-.009,0-.013,0-.009,0-.014,0-.006,0-.021,0-.006,0-.016,0-.007,0-.014,0-.008,0-.015,0-.006,0-.021v0l0-.017,0-.007,0-.015,0-.007,0-.016v0l.006-.022v0l0-.019,0-.006,0-.015,0-.007,0-.016v-.006l.006-.021v0l0-.018v-.007l0-.015,0-.007,0-.015,0-.007.005-.019v0l0-.02,0-.007,0-.015v-.007l0-.016v0l.01-.043,0-.006,0-.016,0-.007,0-.015v-.006l0-.019v0l0-.021,0-.006,0-.016,0-.007,0-.015,0-.007,0-.017v0l0-.021v-.006l0-.016v-.007l0-.015v-.006l0-.019v0l0-.023h0l0-.02v0l0-.017v-.006l0-.017v0l.005-.021v0l0-.018v-.006l0-.016v-.006l0-.017v0l0-.022v0l0-.018v-.007l0-.015v-.007l0-.015,0-.007,0-.021v0l0-.02v-.006l0-.016v-.006l0-.016,0-.006.009-.043v-.007l0-.015v-.007l0-.015,0-.007.009-.043v-.006l0-.016,0-.007,0-.015v-.007l.01-.043v-.005l0-.017v-.007l0-.015v-.007l0-.018v0l.005-.021V149.4l0-.016,0-.007,0-.015v-.007l0-.02h0l0-.022V149.3l0-.016v-.007l0-.015,0-.007,0-.018v0l0-.021v0l0-.017v-.007l0-.016v-.006l0-.018v0l0-.022v0l0-.018v-.006l0-.016v-.007l0-.017v0l0-.022v0l0-.019V149l0-.017v-.006l0-.019v0l.009-.045v0l0-.017v-.006l0-.018v0l.008-.044v-.006l0-.016v-.007l0-.017v0l.008-.044v0l0-.017,0-.007,0-.016v-.006l.008-.044v0l0-.017V148.6l0-.018v0l.008-.045v0l0-.018V148.5l0-.018v0l.008-.046v0l0-.02v0l0-.018v0l0-.022h0l0-.024v0l0-.019v-.007l0-.016v-.006l0-.021h0l0-.024h0l0-.021v0l0-.017v-.006l0-.018v0l0-.023v0l0-.02v-.006l0-.017V148.1l0-.018v0l.007-.044v-.006l0-.017V148l0-.017v0l.007-.044v-.008l0-.015v-.007l0-.016v-.006l.007-.044v-.006l0-.017v-.006l0-.017v-.006l.006-.044v-.006l0-.017v-.006l0-.017v-.005l.006-.045v0l0-.019v0l0-.017V147.6l.006-.044v-.006l0-.016v-.007l0-.016V147.5l0-.02v0l0-.023v0l0-.019v0l0-.017v-.006l0-.02v0l0-.022v0l0-.019v0l0-.018v0l0-.02v0l0-.024h0l0-.021v-.006l0-.016v-.007l0-.018v0l0-.022v0l0-.019v-.006l0-.017v-.006l0-.018v0l.006-.046v0l0-.019v-.005l0-.018v0l0-.023h0l0-.022v-.006l0-.016v-.007l0-.018v0l0-.046v0l0-.017v-.007l0-.016v-.006l0-.02v0l0-.022v0l0-.018v-.006l0-.018v0l0-.02v0l0-.023v-.029l0-.017v-.006l0-.019v0l0-.023v0l0-.019v-.03l0-.018v0l0-.023v0l0-.018v-.03l0-.017v-.006l0-.022v0l0-.018v-.03l0-.017V146.3l0-.022v0l0-.02v-.006l0-.016v-.008l0-.015V146.2l0-.023h0l0-.022v-.006l0-.017v-.007l0-.017v0l0-.045v-.006l0-.017v-.03l0-.045v-.029l0-.017v-.006l0-.046v0l0-.019v-.006l0-.018v0l0-.046v0l0-.019v-.006l0-.017v-.006l0-.021v0l0-.023v-.074l0-.023v0l0-.019V145.5l0-.024h0l0-.021V145.4l0-.023v-.053l0-.018v0l0-.023h0V145.2l0-.047V145.1l0-.045v-.075h0v-.2l0-.023v-.371l0-.046v-.076h0v-1.016h0v-.374Zm0-18.562h-4.125v10.312H174V124.316Zm0-18.562h-4.125v10.312H174V105.754Zm0-18.561h-4.125V97.505H174V87.193Zm0-18.562h-4.125V78.943H174V68.631Zm0-18.561h-4.125V60.382H174V50.07Zm-1.09-18.465L168.93,32.7a26.7,26.7,0,0,1,.943,7.053V41.82H174V39.6h0v-.1h0V38.044h0l0-.022v-.075h0v-.027l0-.022h0v-.027l0-.022h0V37.8h0V37.77l0-.021h0v-.027l0-.044v0l0-.044v0l0-.045v0l0-.043v0l0-.022h0v-.026l0-.044v0l0-.022V37.38l0-.021v-.028l0-.021v0l0-.02v-.006l0-.021v0l0-.02v0l0-.022v0l0-.019v-.006l0-.021v0l0-.02v0l0-.022v0l0-.019v-.005l0-.022v0l0-.019v-.006l0-.021V36.99l0-.02v0l0-.017v-.006l0-.021v-.028l0-.021v0l0-.018v-.006l0-.021V36.8l0-.02V36.77l0-.017v-.005l0-.021v0l0-.016V36.7l0-.02v-.006l0-.016v-.006l0-.02V36.6l0-.02v-.028l0-.02v-.006l0-.016v-.006l0-.021v-.028l0-.02v-.028l0-.02v-.006l0-.017v-.005l0-.02v-.007l0-.015v-.007l0-.02v-.006l0-.016v-.006l0-.02v-.006l0-.016v-.006l0-.02v-.007l0-.016v-.005l0-.02v-.006l0-.017V36.12l0-.021v0l0-.018v0l0-.02v-.007l0-.015v-.007l0-.02v-.027l0-.021v-.006l0-.017v-.005l0-.02V35.9l0-.016v-.005l0-.02v-.006l0-.017V35.83l0-.019V35.8l0-.016v0l0-.02v-.006l0-.019v0l0-.021v0l0-.02h0l0-.021v-.006l0-.019v0l0-.019v-.006l0-.021h0l0-.021v-.006l0-.019v0l0-.019v-.006l0-.019v0l0-.017v-.007l0-.017v-.009l0-.015v-.007l0-.019V35.4l0-.017v-.007l0-.018v-.007l0-.016v-.007l0-.018V35.3l0-.015,0-.008,0-.017v-.009l0-.014V35.23l0-.02v-.005l0-.016v-.007l0-.018,0-.008,0-.015v-.007l0-.019v-.007l0-.014v-.007l0-.02v-.006l0-.015v-.007l0-.019v-.006l0-.016,0-.007,0-.019v-.006l0-.016v-.006l0-.02v-.006l0-.015,0-.007,0-.019v-.006l0-.016v-.006l0-.02v-.005l0-.016V34.8l0-.019v-.006l0-.016v-.006l0-.02v-.006l0-.015v-.006l0-.02V34.68l0-.015v-.006l0-.02v-.005l0-.017v0l0-.02v0l0-.018v0l0-.021v0l0-.017v0l0-.02,0-.006,0-.016V34.47l0-.021v0l0-.017v-.005l0-.02V34.4l0-.015v-.006l0-.02v-.006l0-.017v0l0-.02V34.3l0-.015V34.28l0-.019v-.007l0-.016v-.005l0-.02v-.006l0-.016v-.005l0-.02,0-.006,0-.017v0l0-.02v-.006l0-.017v0l0-.021v0l0-.018v0l0-.02v-.006l0-.018v0l0-.02,0-.007,0-.017v0l0-.02v-.007l0-.017v0l0-.02v-.006l0-.018v0l0-.021v0l0-.019v0l0-.021v-.005l0-.02h0l0-.02v-.007l0-.018v0l0-.021v-.006l0-.019h0l0-.02v-.007l0-.018v0l0-.02,0-.005-.008-.041v-.007l0-.019v0l0-.019V33.5l0-.021h0l0-.02v-.006l-.005-.02h0l0-.02v-.005l0-.021h0l0-.02v0l0-.021h0l0-.02v-.005l0-.021h0l0-.02v-.006l0-.02v0l0-.019v-.006l0-.02v0l0-.019v-.005l-.005-.021v0l0-.019v0l0-.022h0l0-.021v0l0-.022h0l0-.021v0l0-.022h0l0-.021v0l-.01-.043v0l0-.022h0l0-.022v0l0-.022h0l0-.021v0l-.01-.044v0l0-.021v0l-.005-.021v0l-.011-.045h0l0-.023h0l-.006-.022h0l-.011-.046h0l-.027-.115h0l-.016-.069h0l-.006-.023h0l-.006-.023h0l0-.023h0q-.094-.381-.2-.759Zm-9.868-15.39-2.656,3.156a26.7,26.7,0,0,1,5.759,6.777l3.544-2.111q-.477-.8-1-1.566l0,0-.01-.015v0l-.01-.014,0,0-.044-.064h0l-.009-.014,0,0-.008-.012,0,0-.009-.013,0,0-.009-.013,0,0-.01-.013h0l-.031-.044,0-.006-.008-.011,0-.006-.007-.011L168.5,22.2l-.007-.01,0-.008-.007-.01,0-.008-.007-.01-.007-.009-.009-.013-.008-.012-.007-.009-.006-.009-.006-.009-.006-.009-.006-.008-.007-.01-.006-.008-.007-.01,0-.007-.008-.011-.005-.007-.025-.036,0,0-.009-.013,0-.006-.008-.011,0-.007-.009-.012,0-.006-.01-.013,0,0-.039-.055h0l-.012-.017,0,0-.012-.016,0,0-.011-.016,0,0-.012-.017h0l-.054-.074h0l-.013-.017v0l-.013-.017h0a30.956,30.956,0,0,0-5.083-5.453ZM146.186,9.14l-.389,4.107a26.391,26.391,0,0,1,8.575,2.3l1.725-3.746-.033-.016,0,0-.014-.006,0,0-.014-.007-.006,0-.013-.006h0l-.048-.022-.006,0-.013-.006-.006,0-.013-.006-.006,0-.014-.006,0,0-.013-.006-.006,0-.023-.011-.009,0-.01,0-.01,0-.01-.005-.011,0-.008,0-.011,0-.009,0-.013-.005-.007,0-.019-.009-.008,0-.012-.006-.008,0-.012-.006-.008,0-.013-.006-.007,0-.014-.006-.006,0-.04-.018,0,0-.016-.006-.006,0-.014-.006-.006,0-.016-.007,0,0-.062-.027h0l-.018-.008h0l-.018-.008h0l-.02-.009h0l-.063-.028h0l-.02-.009h0l-.021-.009h0l-.086-.037h0a30.561,30.561,0,0,0-7.858-2.144h0l-.1-.013h0l-.022,0h0l-.022,0h0l-.094-.012h0l-.022,0h0l-.022,0h0L147,9.228h0l-.022,0h0l-.021,0h0l-.071-.008h0l-.023,0h0l-.02,0h0l-.021,0h0l-.07-.008h0l-.019,0h0l-.019,0h0l-.021,0h0l-.047-.005h0l-.02,0h0l-.018,0h-.006l-.018,0h0l-.048-.005h0l-.022,0h0l-.018,0h-.03l-.016,0h-.007l-.046,0h-.029l-.017,0h-.007l-.017,0h-.028l-.047,0h-.017Z" style="fill:#ecebea"/></svg>