<svg xmlns="http://www.w3.org/2000/svg" viewBox="0 0 28 35" width="38px" height="38px"><title>live_event_speeding_begin</title><path d="M24,0H4A4,4,0,0,0,0,4V24a4,4,0,0,0,4,4H8.44L14,34.28,19.56,28H24a4,4,0,0,0,4-4V4A4,4,0,0,0,24,0Z" style="fill:#061c3f"/><path d="M24,0H4A4,4,0,0,0,0,4V24a4,4,0,0,0,4,4H8.44L14,34.28,19.56,28H24a4,4,0,0,0,4-4V4A4,4,0,0,0,24,0Zm3,24a3,3,0,0,1-3,3H19.11L14,32.77,8.89,27H4a3,3,0,0,1-3-3V4A3,3,0,0,1,4,1H24a3,3,0,0,1,3,3Z" style="isolation:isolate"/><path d="M21.36,13.15a7.27,7.27,0,0,1,.74,3.17v.61h-2v-.61a5.73,5.73,0,0,0-.4-2.15L16,16.41a2.19,2.19,0,0,1-1.2,2.23,2.31,2.31,0,0,1-3.09-.95,2.22,2.22,0,0,1-.14-1.75,2.13,2.13,0,0,1,1.11-1.31,2.35,2.35,0,0,1,2.55.27l4-1.75A6.28,6.28,0,0,0,7.53,16.32v.26l0,.35h-2l0-.35v-.26A8.72,8.72,0,0,1,13.8,8.1a8.73,8.73,0,0,1,7.13,4.27l1.17-.52.4.61Z" style="fill:#fff"/></svg>