<svg xmlns="http://www.w3.org/2000/svg" viewBox="0 0 1476.67 273"><title>mapanything-logo-white-min</title><polygon points="369.07 85.79 337.42 191.51 305.11 85.79 276.6 85.79 255.27 219.12 277.94 219.12 294.1 115.87 325.75 219.12 348.2 219.12 379.85 115.87 396.01 219.12 418.89 219.12 397.8 85.79 369.07 85.79" style="fill:#fff"/><path d="M473.44,117.44a66.28,66.28,0,0,0-32.33,8.08v19.29c8.31-4.72,17.3-8.07,28.73-8.07,11,0,19.08,4.93,19.08,15.71v8.31h-11c-28.72,0-46,9.87-46,30.06,0,22.46,18.85,30.32,44.66,30.32a148,148,0,0,0,34.12-4.06V151.33C510.71,126.42,495.22,117.44,473.44,117.44Zm15.48,86a80.87,80.87,0,0,1-12.11,1.12c-13.47,0-22.89-4-22.89-14.37,0-10.1,10.1-14.59,25.59-14.59h9.42Z" style="fill:#fff"/><path d="M574.73,117.44a109.43,109.43,0,0,0-40.17,7.86V259.52h22V218.67c4,1.57,11,2.69,18.17,2.69,33.68,0,54.77-19.52,54.77-53.19C629.51,135.84,608,117.44,574.73,117.44Zm-1.34,84.84a47.79,47.79,0,0,1-16.83-2.92V139.89a62.07,62.07,0,0,1,17.95-2.48c20,0,32.55,11.68,32.55,31.43C607.07,191.07,593.15,202.28,573.39,202.28Z" style="fill:#fff"/><path d="M684.78,85.79,632.93,219.11h24.24l11.67-31.41h59.48L740,219.11h24.91L712.84,85.79Zm-9,83.06,22.89-61.51,22.67,61.51Z" style="fill:#fff"/><path d="M823.74,117.44A133.23,133.23,0,0,0,778.18,126v93.14H800.4V140.56A77.06,77.06,0,0,1,822,137.63c12.35,0,21.32,5.16,21.32,19.54v61.94h22v-64C865.27,127.09,849.11,117.44,823.74,117.44Z" style="fill:#fff"/><polygon points="925.11 198.01 896.84 119.7 873.04 119.7 914.12 223.62 900.21 259.52 921.97 259.52 975.85 119.7 952.95 119.7 925.11 198.01" style="fill:#fff"/><path d="M1019.48,185.68V138.32h28.28V119.7h-28.28V95.44h-22V119.7h-15v18.63h15v52.29c0,22.67,13.69,30.74,29.85,30.74a51.91,51.91,0,0,0,24-5.39V196c-6.07,3.58-11.68,5.61-18.19,5.61C1024.65,201.62,1019.48,197.57,1019.48,185.68Z" style="fill:#fff"/><path d="M1116,117.44a74.79,74.79,0,0,0-26,4.72V66.49h-22.21V219.11H1090V141a69.24,69.24,0,0,1,21.56-3.38c12.34,0,21.32,5.16,21.32,19.54v61.94h22v-64C1154.85,127.32,1138.45,117.44,1116,117.44Z" style="fill:#fff"/><path d="M1189.89,75.47A13.93,13.93,0,0,0,1176,89.16a13.92,13.92,0,1,0,27.83,0A13.93,13.93,0,0,0,1189.89,75.47Z" style="fill:#fff"/><rect x="1178.9" y="119.7" width="22.2" height="99.42" style="fill:#fff"/><path d="M1271.44,117.44a133.08,133.08,0,0,0-45.55,8.53v93.14h22.22V140.56a77,77,0,0,1,21.54-2.93c12.35,0,21.33,5.16,21.33,19.54v61.94h22v-64C1313,127.09,1296.82,117.44,1271.44,117.44Z" style="fill:#fff"/><path d="M1331,168.61c0,33,21.77,50.29,52.75,50.29,7.63,0,15.71-1.8,19.07-3.82v2.24c0,18.64-12.12,25.83-26.25,25.83-11.68,0-22-2.93-32.77-8.77V254.8a78.94,78.94,0,0,0,32.77,7c22.66,0,48.26-10.55,48.26-43.09v-94a104.2,104.2,0,0,0-37.48-7.18C1352.77,117.44,1331,136.75,1331,168.61Zm71.82,28.29a45.5,45.5,0,0,1-17.28,3.37c-19.52,0-32.09-12.13-32.09-31.66,0-20.41,12.79-31.64,33.89-31.64a45.63,45.63,0,0,1,15.48,2.47Z" style="fill:#fff"/><path d="M106.84,4.46A105,105,0,0,0,2,109.66c0,24,16.34,57.77,48.44,100.32A690.23,690.23,0,0,0,98.29,266.4a12.39,12.39,0,0,0,9,3.82h0a12.38,12.38,0,0,0,9-3.84,682.57,682.57,0,0,0,47.68-56.58c32-42.65,48.16-76.46,48.12-100.49C212,51.49,164.76,4.46,106.84,4.46ZM124.71,170l0,.31-.1.92-.1.91-.1.9-1.25,2.39a8.26,8.26,0,0,0-1,2.76,4.71,4.71,0,0,1-.3,1.64,15.4,15.4,0,0,0-.6,2.08,7.32,7.32,0,0,0-.1,2.22,1.15,1.15,0,0,1-.49,1.23,1.35,1.35,0,0,0-.77.81,1,1,0,0,0,0,.14A80,80,0,0,1,50.7,50.59l.81-.07c.94-.52,1.66-.85,1.6-.71a11.52,11.52,0,0,1-.66,1,11.91,11.91,0,0,1-2.37,2.06l-.12.08a13,13,0,0,0-2.29,1.91,9.35,9.35,0,0,0-.92,2.32c-.25.92-.28,1.69-.06,1.71a1.93,1.93,0,0,0,.63,0c.13,0,.22.16.2.44a4.06,4.06,0,0,1-.28,1c-.11.24-.08.43.08.42l.56,0,.85-.06c.38-.1.15.65-.53,1.66l-.27.4c-2.68,2.19-4,2.88-6.6,5.18,2.14-1.49,2.88-1.06,5.06-2.48l.86-.76c.91-.8,2.37-2.1,3.24-2.89A20.51,20.51,0,0,1,52.68,60c.35-.2,1.08-.69,1.62-1.08A7.32,7.32,0,0,1,55.8,58a6.09,6.09,0,0,0,1.44-.92c.51-.42,1-.53,1.07-.25a1.55,1.55,0,0,0,.8.81,6.09,6.09,0,0,0,1.49.39,3.38,3.38,0,0,1,1.35.48,8.67,8.67,0,0,1,1.42,2.4l.37.84a14.22,14.22,0,0,1,1,4.22l.1,2.1a2.73,2.73,0,0,0,2,2.53c1.06.18,1.87.94,1.79,1.7a7.48,7.48,0,0,0,.07,2.13,5.26,5.26,0,0,0,1,1.68,4.43,4.43,0,0,1,.9,2.42,15.16,15.16,0,0,1-.2,2.87c-.14.75-.42,1.88-.62,2.51a7.26,7.26,0,0,0-.27,2.29,12.89,12.89,0,0,1,.05,1.53l-.08.77-.11,1.17,1.32,3.17c.47,1.12,1.17,2.61,1.55,3.31a6.13,6.13,0,0,0,1.86,2,6.47,6.47,0,0,1,2,2.68c.45,1.1,1.06,2.79,1.35,3.76a13.05,13.05,0,0,0,1.9,3.49l.07.08a29.57,29.57,0,0,0,3,3.17c.88.79,1.37.87,1.09.18a27.17,27.17,0,0,0-1.59-3c-.59-1-1.56-2.65-2.15-3.71l-.11-.19a15.58,15.58,0,0,1-1.28-2.89c-.12-.53.22-.76.76-.52A3.09,3.09,0,0,1,80.52,103,9.67,9.67,0,0,0,82.37,106l.22.24a10,10,0,0,1,1.64,2.27A3.81,3.81,0,0,0,85.51,110a12.23,12.23,0,0,1,2.24,2.41,4.55,4.55,0,0,1,1,2.5,2.76,2.76,0,0,0,.89,2,5.58,5.58,0,0,0,2.1,1.32,12.41,12.41,0,0,1,2.79,1.41,22.06,22.06,0,0,0,3.05,1.67,3.48,3.48,0,0,0,2.16.18,2.76,2.76,0,0,1,1.64-.08,8.26,8.26,0,0,1,2,1.31,8.09,8.09,0,0,0,3.37,1.39,5.22,5.22,0,0,1,3.18,2,7.17,7.17,0,0,0,2.22,2.23c.65.33,2.05,1.09,3.11,1.69h0c1.06.6,2,.86,2.1.58a4.27,4.27,0,0,1,.85-1.19,1.07,1.07,0,0,1,1.5.16,2.77,2.77,0,0,1,.82,1.47v1.24q0,.46,0,.92l0,.92-.68,1.61a7,7,0,0,1-1.53,2.45,3.78,3.78,0,0,0-1.09,1.8c-.23.76-.43,1.44-.43,1.52v.67c.54.08.79.44.56.79a13.42,13.42,0,0,0-.75,1.36,2.1,2.1,0,0,0,.61,1.81c.52.6,1.15,1.41,1.4,1.79a13.8,13.8,0,0,1,1,2.38,14.51,14.51,0,0,0,1,2.35,6.43,6.43,0,0,1,.64,1.34,4.77,4.77,0,0,0,1.81,1.61c.88.52,2.05,1.26,2.6,1.66a4,4,0,0,1,1.12,2.63,9.69,9.69,0,0,1-.17,2.82,15.8,15.8,0,0,0-.48,2.06,23.74,23.74,0,0,1-.78,2.94A17.69,17.69,0,0,0,124.71,170Zm1,15.14a1,1,0,0,1,.28-.32,3.72,3.72,0,0,1,1.11-.53,4.88,4.88,0,0,0,1.57-1.45c.58-.74.82-1.63.55-2s-.15-.53.27-.39.87.1,1-.08a6.58,6.58,0,0,0,.6-1.3,2.56,2.56,0,0,1,2-1.17,4.14,4.14,0,0,0,2.36-1.1c.39-.49.62-1.07.51-1.3a8.12,8.12,0,0,1-.39-1.12c-.11-.39.33-.59,1-.45a5.68,5.68,0,0,0,3.1-.78l.18-.1c1.61-1.7,3.74-4,5.34-5.7a6.66,6.66,0,0,1,1.69-3.16,8.08,8.08,0,0,1,2.26-1.48,7.65,7.65,0,0,1,1.27-.31l.63,0,.94,0c.59-.7,1.52-1.87,2.06-2.62a16.78,16.78,0,0,0,1.67-3.15c.38-1,.85-2.37,1-3.05a8.58,8.58,0,0,1,1.9-2.83l2.69-2.73.32-1.31a5.58,5.58,0,0,0,.18-1.92,1.13,1.13,0,0,0-1-.67,3,3,0,0,1-1.74-1.05,5.9,5.9,0,0,0-2.76-1.43,16.44,16.44,0,0,1-3.38-1.2c-.8-.42-1.92-1-2.49-1.24s-1-.54-1-.63l.09-.81-.52-1.35a5.2,5.2,0,0,0-2.1-2.63,17.33,17.33,0,0,0-2.89-.88,6.75,6.75,0,0,1-3-1.81c-.77-.82-1.91-2.07-2.53-2.76a3.09,3.09,0,0,0-2.92-.74,5.59,5.59,0,0,1-2.9.1A17.26,17.26,0,0,0,130,127a24.19,24.19,0,0,1-2.78-.68,5.17,5.17,0,0,0-2.9.18,3.18,3.18,0,0,0-1.85,1.63,1.86,1.86,0,0,1-.77,1.2c-.28.09-1-.33-1.5-.93a1.62,1.62,0,0,0-2.26,0,2.12,2.12,0,0,1-2.79-.43,4.7,4.7,0,0,1-1.17-3.61c.19-1.14-.12-2.35-.68-2.69a4.31,4.31,0,0,0-1.68-.61h-3.29l1.32-5.11c.3-1.18-.38-2-1.52-1.78a3.46,3.46,0,0,0-2.59,2,2.9,2.9,0,0,1-2.33,1.86,4.42,4.42,0,0,1-3-1,8.38,8.38,0,0,1-1.81-3.28l-.4-1.46c-.32-1.17-.31-2.41,0-2.75a2.19,2.19,0,0,0,.35-1.78,2.79,2.79,0,0,1,.44-2,3.25,3.25,0,0,1,1.48-1.07c.43-.1.79-.26.79-.35v-.89l1.6.15a12.91,12.91,0,0,0,3.24-.06c.57-.14.92-.46.78-.7s.71-.4,1.9-.36a6.66,6.66,0,0,1,2.84.62,1.44,1.44,0,0,0,1.28.27,1.09,1.09,0,0,1,1.12.27,4.82,4.82,0,0,1,.77,2,8.15,8.15,0,0,0,1.45,3c.66.84,1.28.6,1.37-.53a9.84,9.84,0,0,0-.73-4.07l-.09-.21a3.41,3.41,0,0,1-.05-3.07,5.8,5.8,0,0,1,1.61-1.4,5.18,5.18,0,0,0,1.51-1.3,23.54,23.54,0,0,1,1.83-2A7.27,7.27,0,0,0,123.05,93a22.6,22.6,0,0,1,1.09-3.55A3.73,3.73,0,0,1,126,87.63a9,9,0,0,1,1.48-.41h1.35a5.45,5.45,0,0,1-.43-2.73,4,4,0,0,1,2.4-1.54c1.16-.35,2.17-.27,2.24.18s1,.29,2-.35l1.91-1.18c1-.64,1.8-1.63,1.71-2.2a.64.64,0,0,0-1-.49,2.55,2.55,0,0,1-2.33-.42c-.8-.53-1.48-1.15-1.49-1.36l-.06-.78-.09-1.17-.26,0c-1.21-.09-2.06-.58-1.89-1.09s1.3-.83,2.51-.71l1.09.11a7.91,7.91,0,0,0,3.93-.75c1-.53,2.06-1.2,2.46-1.48s.7-.7.67-.92l-.11-.8-.17-1.2L140.19,67c-.95-.76-2.51-2-3.47-2.73l-.15-.11c-1-.74-1.62-1.53-1.45-1.76s-.25-1.25-.91-2.27l-1.5-2.29c-.66-1-1.38-1.55-1.6-1.18a3.19,3.19,0,0,0-.35,1.49A1.79,1.79,0,0,1,130,59.5a1.29,1.29,0,0,1-1.6-.44,6.59,6.59,0,0,1-1.11-2.47,2.54,2.54,0,0,0-1.44-1.83,5.24,5.24,0,0,1-2.07-1.47c-.51-.62-1.26-1-1.67-.94a3.74,3.74,0,0,1-1.87-.28c-.62-.25-1.27-.14-1.44.24a1.57,1.57,0,0,0,0,1.24,1.26,1.26,0,0,1,0,1.06,2.45,2.45,0,0,0,.36,1.68,1.46,1.46,0,0,1-.15,1.76.92.92,0,0,0,0,1.39,6.53,6.53,0,0,1,1.2,2.41,3.26,3.26,0,0,1-1,2.94,3.29,3.29,0,0,0-.88,3.17,4.22,4.22,0,0,1,.14,2.63,1.83,1.83,0,0,1-1.16.83c-.39,0-1.07-.64-1.51-1.52a9.76,9.76,0,0,1-.89-3.15A1.83,1.83,0,0,0,113.46,65a9.16,9.16,0,0,1-3-1.1c-.88-.52-2.16-1.3-2.86-1.73a3.05,3.05,0,0,0-1.88-.57c-.34.12-.84-.58-1.11-1.54s-.8-1.72-1.17-1.68-.5-.87-.3-2a7.64,7.64,0,0,1,2-3.6l.4-.38A11.87,11.87,0,0,0,107.65,50c.25-.52.6-.95.76-.95h1.49c.48-1.08,1.12-2.47,1.42-3.1a2.72,2.72,0,0,1,1.91-1.3,3.23,3.23,0,0,0,2-1,1.91,1.91,0,0,0,0-1.93c-.36-.59-.43-1.19-.17-1.34a.72.72,0,0,0,.1-1,4.2,4.2,0,0,0-1.69-1.28c-.72-.32-1.34-.28-1.38.1a2.46,2.46,0,0,0,.1,1.06c.1.21-.33.54-.94.75a1.44,1.44,0,0,1-1.62-.43c-.28-.45-.66-.49-.86-.11s-.69.17-1.1-.47a2.83,2.83,0,0,1-.58-1.64,3.94,3.94,0,0,0-.52-1.9,4.78,4.78,0,0,0-1.15-1.67c-.25-.13-.81.45-1.23,1.29a4,4,0,0,0-.52,2.24,2.45,2.45,0,0,0,1,1.14,1.75,1.75,0,0,1,.66,1.5c0,.6-.41.79-.85.43A7.82,7.82,0,0,1,103,38.59c-.36-.64-.8-.8-1-.37a3.05,3.05,0,0,1-1,1.22,18.51,18.51,0,0,1-2.5,1.11,3,3,0,0,1-2.52,0,2.35,2.35,0,0,0-2-.3c-.69.19-1.16.72-1.05,1.17s-.21.63-.73.4a2.71,2.71,0,0,0-1.75-.13,8.07,8.07,0,0,1-2.25.27c-.79,0-1.16-.2-.82-.42a1.52,1.52,0,0,0,.65-1,.8.8,0,0,0-.71-.74,10.62,10.62,0,0,1-2.1-.83,8.08,8.08,0,0,0-1.81-.73,1.5,1.5,0,0,0-1,.45c-.27.27-.38.11-.24-.35s0-.73-.27-.61a2.49,2.49,0,0,0-.89.75c-.2.29-.39.05-.42-.53s-.65-.9-1.37-.7A34.56,34.56,0,0,0,76,38.45a8.93,8.93,0,0,0-2.66,1.61c-.39.45-.87.59-1.07.31a5.56,5.56,0,0,0-.89-.93,3.36,3.36,0,0,1-.76-.86c-.12-.24-.6-.32-1.06-.18a2.26,2.26,0,0,1-1.64-.27,2.81,2.81,0,0,0-.5-.25,80,80,0,1,1,58.28,147.3Z" style="fill:#fff"/><path d="M1433.87,91.94a21.19,21.19,0,0,1,2.35-10.07,17,17,0,0,1,6.86-7,24.41,24.41,0,0,1,21.65,0,16.77,16.77,0,0,1,6.86,7,23,23,0,0,1,0,20.15,16.77,16.77,0,0,1-6.86,7,24.41,24.41,0,0,1-21.65,0,17,17,0,0,1-6.86-7A21.18,21.18,0,0,1,1433.87,91.94Zm36.66,0a19.14,19.14,0,0,0-1.82-8.52,13.51,13.51,0,0,0-5.51-5.85,18.2,18.2,0,0,0-9.23-2.14,18.5,18.5,0,0,0-9.28,2.14,13.27,13.27,0,0,0-5.54,5.85,21.13,21.13,0,0,0,0,17,13.27,13.27,0,0,0,5.54,5.85,18.49,18.49,0,0,0,9.28,2.14,18.2,18.2,0,0,0,9.23-2.14,13.51,13.51,0,0,0,5.51-5.85A19.14,19.14,0,0,0,1470.53,91.94ZM1454.44,80.6a11.89,11.89,0,0,1,7.28,2.27l-1.42,2.48a10,10,0,0,0-5.8-1.79,6.53,6.53,0,0,0-5.35,2.22,9.19,9.19,0,0,0-1.82,6,9.41,9.41,0,0,0,1.79,6,6.32,6.32,0,0,0,5.27,2.27,11.3,11.3,0,0,0,5.91-1.79l1.32,2.48a12.53,12.53,0,0,1-7.44,2.32q-5.43,0-8-3.3a12.64,12.64,0,0,1-2.56-8,11.36,11.36,0,0,1,2.87-8.15A10.41,10.41,0,0,1,1454.44,80.6Z" style="fill:#fff"/></svg>