<svg id="Layer_1" data-name="Layer 1" xmlns="http://www.w3.org/2000/svg" viewBox="0 0 1500 284"><title>mapanything_logo</title><polygon points="371.921 99.794 340.269 205.506 307.965 99.794 279.45 99.794 258.122 233.115 280.791 233.115 296.954 129.87 328.603 233.115 351.052 233.115 382.705 129.87 398.859 233.115 421.743 233.115 400.653 99.794 371.921 99.794" style="fill:#fff"/><path d="M476.2959,131.44244a66.27988,66.27988,0,0,0-32.32654,8.08368v19.29431c8.306-4.71722,17.29529-8.0705,28.72791-8.0705,11.00244,0,19.07617,4.93005,19.07617,15.70666v8.30957H480.77417c-28.72461,0-46.00269,9.86884-46.00269,30.06232,0,22.45685,18.84827,30.32318,44.66284,30.32318a148.01348,148.01348,0,0,0,34.12256-4.05695V165.32727C513.55688,140.42078,498.06641,131.44244,476.2959,131.44244Zm15.47754,85.9696a80.86716,80.86716,0,0,1-12.1145,1.12067c-13.46655,0-22.89429-4.03516-22.89429-14.36871,0-10.099,10.0979-14.59027,25.58643-14.59027h9.42236V217.412Z" style="fill:#fff"/><path d="M577.58569,131.44244a109.43361,109.43361,0,0,0-40.17224,7.85773V273.51935h22.006V232.67151c4.043,1.56787,10.99707,2.68878,18.16626,2.68878,33.67969,0,54.77258-19.52057,54.77258-53.18829C632.35828,149.8421,610.80713,131.44244,577.58569,131.44244Zm-1.34009,84.84033a47.79234,47.79234,0,0,1-16.82617-2.92322V153.89038a62.07341,62.07341,0,0,1,17.948-2.47571c19.9873,0,32.55469,11.67578,32.55469,31.43494C609.92212,205.06757,596.00513,216.28278,576.24561,216.28278Z" style="fill:#fff"/><path d="M687.63019,99.79449l-51.847,133.32h24.23639l11.67151-31.41333h59.48322l11.67352,31.41333h24.912L715.687,99.79449H687.63019Zm-8.97076,83.05511,22.89319-61.51056,22.66516,61.51056H678.65942Z" style="fill:#fff"/><path d="M826.5957,131.44244a133.2292,133.2292,0,0,0-45.56055,8.53088V233.1145H803.254V154.55933a77.06166,77.06166,0,0,1,21.55011-2.92761c12.34558,0,21.31635,5.16473,21.31635,19.54211V233.1145h22.00293V169.14539C868.12341,141.094,851.96057,131.44244,826.5957,131.44244Z" style="fill:#fff"/><polygon points="927.964 212.013 899.689 133.697 875.892 133.697 916.972 237.615 903.057 273.519 924.823 273.519 978.695 133.697 955.8 133.697 927.964 212.013" style="fill:#fff"/><path d="M1022.33417,199.6814V152.32251h28.28375V133.6969h-28.28375V109.44177h-21.98981V133.6969H985.30017v18.62561h15.04419v52.29315c0,22.66968,13.68689,30.74463,29.84973,30.74463a51.91468,51.91468,0,0,0,24.0224-5.39069V210.00629c-6.07025,3.579-11.68219,5.61194-18.18677,5.61194C1027.50085,215.61823,1022.33417,211.57422,1022.33417,199.6814Z" style="fill:#fff"/><path d="M1118.86328,131.44244a74.78678,74.78678,0,0,0-26.04449,4.7215V80.487H1070.6095V233.1145h22.20929V155.00684a69.24417,69.24417,0,0,1,21.5575-3.37512c12.34247,0,21.323,5.16473,21.323,19.54211V233.1145h22.00494V169.14539C1157.70422,141.31995,1141.30475,131.44244,1118.86328,131.44244Z" style="fill:#fff"/><path d="M1192.736,89.474a13.92935,13.92935,0,0,0-13.90839,13.68689,13.9156,13.9156,0,1,0,27.82764,0A13.93462,13.93462,0,0,0,1192.736,89.474Z" style="fill:#fff"/><rect x="1181.74646" y="133.6969" width="22.2049" height="99.4176" style="fill:#fff"/><path d="M1274.29034,131.44244a133.0829,133.0829,0,0,0-45.54993,8.53088V233.1145h22.22022V154.55933a76.95451,76.95451,0,0,1,21.53784-2.92761c12.347,0,21.32532,5.16473,21.32532,19.54211V233.1145h22.00262V169.14539C1315.82642,141.094,1299.66809,131.44244,1274.29034,131.44244Z" style="fill:#fff"/><circle cx="111" cy="108" r="88" style="fill:#3083d3"/><path d="M1333.85718,182.61078c0,33.00745,21.76825,50.28644,52.74506,50.28644,7.6275,0,15.70868-1.80249,19.07281-3.81805v2.24127c0,18.63873-12.11877,25.82745-26.25287,25.82745-11.68243,0-22.00513-2.92761-32.77307-8.76971v20.42389a78.94008,78.94008,0,0,0,32.77307,6.96277c22.65851,0,48.2558-10.55066,48.2558-43.09332V138.627a104.19688,104.19688,0,0,0-37.48358-7.18451C1355.62543,131.44244,1333.85718,150.74994,1333.85718,182.61078ZM1405.675,210.901a45.49958,45.49958,0,0,1-17.2832,3.36639c-19.52478,0-32.089-12.12744-32.089-31.65662,0-20.41083,12.78772-31.64355,33.89154-31.64355a45.63206,45.63206,0,0,1,15.48065,2.4715V210.901Z" style="fill:#fff"/><polygon points="1436.385 87.469 1446.781 87.469 1446.781 115.299 1450.958 115.299 1450.958 87.469 1461.398 87.469 1461.398 83.742 1436.385 83.742 1436.385 87.469" style="fill:#fff"/><path d="M1490.04852,83.74243l-7.5556,21.95734q-1.14358,3.33591-1.67889,5.06036-0.47571-1.5509-1.50739-4.67383l-7.46893-22.34387h-6.2851v31.55682h4.02423V88.43811l9.12622,26.86115h3.768l9.16937-26.40948v26.40948h4.02667V83.74243h-5.61859Z" style="fill:#fff"/><path d="M109.68848,4.45752A105.01955,105.01955,0,0,0,4.85107,109.65979c0.03955,24.022,16.3374,57.77484,48.44019,100.32074A690.23491,690.23491,0,0,0,101.145,266.40271a12.38726,12.38726,0,0,0,8.96558,3.8158h0.001a12.3784,12.3784,0,0,0,8.9917-3.84387,682.56787,682.56787,0,0,0,47.68115-56.58228c31.97168-42.652,48.16138-76.461,48.1178-100.485C214.80652,51.49292,167.60889,4.45752,109.68848,4.45752Zm17.87268,165.58105-0.03235.30908q-0.04871.46335-.0979,0.92188-0.04907.45822-.09912,0.91162-0.05.45319-.10059,0.90137l-1.25342,2.39a8.263,8.263,0,0,0-.99011,2.75726,4.70906,4.70906,0,0,1-.30359,1.64166,15.39659,15.39659,0,0,0-.60217,2.08362,7.322,7.322,0,0,0-.10461,2.21765,1.14816,1.14816,0,0,1-.49182,1.23492,1.3517,1.3517,0,0,0-.76929.808,1.00309,1.00309,0,0,0-.014.1438A79.98239,79.98239,0,0,1,53.54858,50.59326c0.09436-.0083.259-0.02295,0.80676-0.0708a4.03111,4.03111,0,0,1,1.6-.7146,11.51593,11.51593,0,0,1-.66016,1.04407,11.91206,11.91206,0,0,1-2.37158,2.05847l-0.12329.085a12.96413,12.96413,0,0,0-2.28906,1.90552,9.351,9.351,0,0,0-.9187,2.32458c-0.24622.9198-.27515,1.68713-0.06445,1.7052a1.935,1.935,0,0,0,.62512-0.04687c0.13318-.04395.222,0.156,0.19763,0.44434a4.062,4.062,0,0,1-.281,1.03809c-0.10986.2395-.07568,0.42676,0.07581,0.41638l0.558-.03772c0.14038-.00928.28149-0.01855,0.8512-0.05566,0.38489-.09949.14807,0.64551-0.52612,1.65552l-0.265.397c-2.68066,2.19189-4.001,2.88354-6.59692,5.175,2.13867-1.489,2.876-1.059,5.05981-2.48083l0.86035-.75549c0.9126-.80127,2.36877-2.10352,3.23608-2.8938a20.51031,20.51031,0,0,1,2.21191-1.80591c0.34937-.20276,1.07825-0.69043,1.62-1.0835a7.32478,7.32478,0,0,1,1.4967-.8728,6.09353,6.09353,0,0,0,1.44043-.9209c0.51086-.41968.99146-0.5332,1.06812-0.25244a1.55069,1.55069,0,0,0,.80371.80811,6.08878,6.08878,0,0,0,1.49023.39209A3.3818,3.3818,0,0,1,64.804,58.527a8.673,8.673,0,0,1,1.41663,2.40051l0.3728,0.84375a14.22029,14.22029,0,0,1,.99841,4.22485l0.10107,2.10278a2.72762,2.72762,0,0,0,2.03418,2.53284,1.89867,1.89867,0,0,1,1.79175,1.69812,7.48443,7.48443,0,0,0,.07227,2.13171,5.2563,5.2563,0,0,0,1.04663,1.67926,4.42731,4.42731,0,0,1,.90076,2.41754,15.1632,15.1632,0,0,1-.19739,2.8678c-0.14294.75269-.42114,1.8822-0.61816,2.51a7.25689,7.25689,0,0,0-.26733,2.28937,12.89042,12.89042,0,0,1,.05029,1.53375l-0.07874.77374c-0.01941.19373-.03845,0.3877-0.1134,1.16522L73.637,92.87006c0.46753,1.12073,1.167,2.61206,1.55444,3.314a6.12708,6.12708,0,0,0,1.8562,1.96252,6.468,6.468,0,0,1,1.97046,2.6842c0.4502,1.09882,1.05884,2.78864,1.35242,3.75513a13.05465,13.05465,0,0,0,1.89575,3.495l0.06506,0.08295a29.56853,29.56853,0,0,0,2.96387,3.167c0.881,0.78607,1.37231.86609,1.09167,0.1778a27.16689,27.16689,0,0,0-1.58936-3.02881c-0.59363-.9776-1.5592-2.6474-2.14587-3.71057l-0.106-.19232a15.58264,15.58264,0,0,1-1.2843-2.89172c-0.11975-.52722.22083-0.76337,0.75671-0.52472a3.09376,3.09376,0,0,1,1.3562,1.83612,9.66945,9.66945,0,0,0,1.84814,3.053L85.4375,106.292a10.0223,10.0223,0,0,1,1.63721,2.27441,3.81315,3.81315,0,0,0,1.28442,1.42712,12.23487,12.23487,0,0,1,2.24121,2.41022A4.54994,4.54994,0,0,1,91.56445,114.9a2.76136,2.76136,0,0,0,.88916,1.95258,5.58221,5.58221,0,0,0,2.0957,1.32471,12.41044,12.41044,0,0,1,2.79492,1.40887,22.05732,22.05732,0,0,0,3.05371,1.67078,3.48457,3.48457,0,0,0,2.1626.17627,2.75622,2.75622,0,0,1,1.64063-.08295A8.2648,8.2648,0,0,1,106.2,122.66113a8.091,8.091,0,0,0,3.36719,1.39185,5.22218,5.22218,0,0,1,3.18164,1.98193,7.16853,7.16853,0,0,0,2.22278,2.23328c0.65417,0.32819,2.05347,1.0874,3.1095,1.68707l0.02393,0.01367c1.05591,0.59967,1.99927.86267,2.09644,0.58447a4.26776,4.26776,0,0,1,.851-1.19006,1.06833,1.06833,0,0,1,1.50183.16479,2.77286,2.77286,0,0,1,.81848,1.47l-0.00464.30969q-0.007.46445-.01428,0.92725t-0.01489.92371q-0.00769.461-.0155,0.92017l-0.68079,1.60571a7.0356,7.0356,0,0,1-1.52747,2.44531,3.78364,3.78364,0,0,0-1.09253,1.79541c-0.23486.76056-.42773,1.4433-0.42859,1.51727l-0.00781.67084c0.53845,0.08313.79224,0.44049,0.564,0.79413a13.41882,13.41882,0,0,0-.74536,1.35712,2.10167,2.10167,0,0,0,.60986,1.80865c0.51709,0.602,1.1488,1.40753,1.40369,1.79a13.79923,13.79923,0,0,1,1.04333,2.375,14.50982,14.50982,0,0,0,1.0166,2.3526,6.43484,6.43484,0,0,1,.64014,1.3407,4.7654,4.7654,0,0,0,1.81226,1.61176c0.88477,0.51923,2.05359,1.264,2.59717,1.655a3.99681,3.99681,0,0,1,1.11816,2.626,9.68579,9.68579,0,0,1-.17041,2.81567,15.804,15.804,0,0,0-.48413,2.05652,23.741,23.741,0,0,1-.77527,2.93738A17.69086,17.69086,0,0,0,127.56116,170.03857Zm0.99219,15.13873a1.01271,1.01271,0,0,1,.27966-0.3186,3.72346,3.72346,0,0,1,1.11279-.53278,4.87729,4.87729,0,0,0,1.573-1.45111,2.02644,2.02644,0,0,0,.55322-1.98c-0.272-.35352-0.15259-0.52722.26514-0.38593a1.0287,1.0287,0,0,0,1.01489-.08087,6.58441,6.58441,0,0,0,.59546-1.30035,2.564,2.564,0,0,1,1.99109-1.17474,4.13615,4.13615,0,0,0,2.3606-1.10223,1.75273,1.75273,0,0,0,.51257-1.29755,8.1243,8.1243,0,0,1-.39062-1.1228c-0.10645-.39343.32568-0.59369,0.96045-0.445a5.67712,5.67712,0,0,0,3.09546-.78107l0.18164-.09839c1.61426-1.697,3.73694-3.98743,5.337-5.69769a6.66017,6.66017,0,0,1,1.6908-3.16327,8.07913,8.07913,0,0,1,2.264-1.48114,7.65461,7.65461,0,0,1,1.2738-.311l0.62964-.02087c0.1571-.00525.31384-0.01056,0.939-0.03186,0.59351-.69507,1.51855-1.87231,2.05566-2.61609a16.77988,16.77988,0,0,0,1.66968-3.154c0.3811-.99091.85034-2.36505,1.0426-3.05359a8.58186,8.58186,0,0,1,1.89832-2.8255l2.68591-2.72882s0.14417-.58746.32043-1.30554a5.58189,5.58189,0,0,0,.17834-1.92059,1.13473,1.13473,0,0,0-1.04675-.66656,3.03339,3.03339,0,0,1-1.74255-1.05035,5.90327,5.90327,0,0,0-2.76331-1.43066,16.43932,16.43932,0,0,1-3.38477-1.20392c-0.803-.42468-1.92285-0.98084-2.48865-1.2359a2.56728,2.56728,0,0,1-1.01135-.62628l0.08533-.81445-0.51868-1.3526a5.20119,5.20119,0,0,0-2.09644-2.62537,17.335,17.335,0,0,0-2.889-.8786,6.74508,6.74508,0,0,1-2.97827-1.811c-0.76721-.823-1.9054-2.067-2.52917-2.76428a3.08753,3.08753,0,0,0-2.91589-.74359,5.59022,5.59022,0,0,1-2.90259.10321,17.265,17.265,0,0,0-2.5907-.6731,24.19366,24.19366,0,0,1-2.78149-.67676,5.16677,5.16677,0,0,0-2.90381.18091,3.18083,3.18083,0,0,0-1.85449,1.63129,1.85851,1.85851,0,0,1-.76782,1.19647,2.23539,2.23539,0,0,1-1.49731-.93274,1.62336,1.62336,0,0,0-2.259.00586,2.12359,2.12359,0,0,1-2.78748-.42511,4.70367,4.70367,0,0,1-1.17371-3.61462c0.19055-1.144-.1156-2.35468-0.68042-2.69043a4.31347,4.31347,0,0,0-1.68359-.61011l-0.32874.00018q-0.4931.00027-.98669,0.00043l-0.98755.00037-0.98877.00018,1.32129-5.10614a1.29344,1.29344,0,0,0-1.52271-1.78265,3.46485,3.46485,0,0,0-2.58618,2.04089,2.90165,2.90165,0,0,1-2.32678,1.86139,4.41863,4.41863,0,0,1-3.03992-.97882,8.37506,8.37506,0,0,1-1.81177-3.282l-0.403-1.45728c-0.32361-1.17041-.31433-2.41016.02087-2.75494a2.18956,2.18956,0,0,0,.35205-1.78406,2.78637,2.78637,0,0,1,.44006-2.04645,3.25126,3.25126,0,0,1,1.48376-1.0658,1.27662,1.27662,0,0,0,.788-0.35449l0.0072-.88892,1.60254,0.14752a12.91076,12.91076,0,0,0,3.238-.05817c0.57166-.14331.9231-0.45917,0.78076-0.7019s0.71265-.40314,1.89966-0.35645a6.66408,6.66408,0,0,1,2.8418.61749,1.43609,1.43609,0,0,0,1.28491.26666,1.08791,1.08791,0,0,1,1.1189.26709,4.82227,4.82227,0,0,1,.77173,2.03735,8.15226,8.15226,0,0,0,1.45374,3.02576c0.65979,0.83673,1.27747.598,1.37292-.53052a9.84182,9.84182,0,0,0-.72681-4.06781l-0.09448-.21161a3.414,3.414,0,0,1-.05054-3.06635,5.79671,5.79671,0,0,1,1.61035-1.3963,5.18112,5.18112,0,0,0,1.512-1.29749,23.53644,23.53644,0,0,1,1.83252-1.98376,7.271,7.271,0,0,0,1.54053-3.1637,22.59772,22.59772,0,0,1,1.08655-3.55237,3.73108,3.73108,0,0,1,1.83582-1.83191,8.98175,8.98175,0,0,1,1.48-.40948l0.54175,0.00317c0.13525,0.00079.27051,0.00159,0.811,0.00488a5.44813,5.44813,0,0,1-.43091-2.72632,4.00065,4.00065,0,0,1,2.39575-1.53571c1.1626-.34723,2.16882-0.26624,2.23633.17993s0.968,0.28943,2.00134-.34845l1.90564-1.17633c1.03333-.63788,1.803-1.62787,1.71045-2.20007a0.63744,0.63744,0,0,0-1.03271-.49463,2.54512,2.54512,0,0,1-2.32739-.424,4.24159,4.24159,0,0,1-1.49268-1.3634l-0.06079-.78473c-0.01538-.1958-0.03076-0.39124-0.09351-1.17059l-0.2644-.02014c-1.21094-.09222-2.06055-0.58459-1.88818-1.09412s1.30225-.83,2.51074-0.71191l1.0896,0.10638a7.91063,7.91063,0,0,0,3.92981-.75049c0.95276-.53082,2.0592-1.19745,2.45862-1.48151a1.3974,1.3974,0,0,0,.67065-0.92l-0.1123-.80359c-0.02832-.20032-0.05688-0.40027-0.17236-1.19727l-1.64856-1.32178c-0.94739-.75977-2.51062-1.98621-3.47375-2.72559l-0.147-.11279c-0.96338-.7395-1.61792-1.53271-1.45483-1.7627s-0.24609-1.25049-.9093-2.26758l-1.49548-2.29346c-0.66333-1.01709-1.382-1.54858-1.59717-1.18115a3.19357,3.19357,0,0,0-.35425,1.49023,1.79277,1.79277,0,0,1-.75024,1.36169,1.28752,1.28752,0,0,1-1.60168-.43933,6.589,6.589,0,0,1-1.11267-2.46509,2.54351,2.54351,0,0,0-1.44043-1.83423,5.23721,5.23721,0,0,1-2.06982-1.47021,2.16163,2.16163,0,0,0-1.6665-.93579,3.73612,3.73612,0,0,1-1.8728-.27612,1.11282,1.11282,0,0,0-1.44141.24487,1.57494,1.57494,0,0,0-.004,1.23633,1.26454,1.26454,0,0,1,.04639,1.05518,2.45414,2.45414,0,0,0,.36487,1.67944,1.46447,1.46447,0,0,1-.14819,1.76489,0.91534,0.91534,0,0,0-.00586,1.38574,6.52523,6.52523,0,0,1,1.2041,2.41162,3.26135,3.26135,0,0,1-1.02783,2.9364,3.28678,3.28678,0,0,0-.87793,3.16638,4.22311,4.22311,0,0,1,.136,2.62573,1.82658,1.82658,0,0,1-1.15942.83374,2.48127,2.48127,0,0,1-1.50562-1.51709,9.75966,9.75966,0,0,1-.89307-3.14661,1.82634,1.82634,0,0,0-1.47266-1.70886,9.1643,9.1643,0,0,1-2.97046-1.09692c-0.87524-.51831-2.16077-1.295-2.85669-1.7262a3.05141,3.05141,0,0,0-1.88354-.57324c-0.34009.11584-.8418-0.57629-1.115-1.53845-0.27295-.96191-0.79907-1.71619-1.16919-1.676s-0.50305-.87134-0.29553-2.02539a7.63508,7.63508,0,0,1,1.99292-3.60327l0.40417-.37646a11.86589,11.86589,0,0,0,2.07886-2.45142,1.82662,1.82662,0,0,1,.76074-0.94678l0.59424,0.00024c0.14868,0.00012.29712,0.00024,0.89087,0.001,0.47632-1.07971,1.11523-2.4729,1.41992-3.09595a2.71782,2.71782,0,0,1,1.91431-1.29932,3.22688,3.22688,0,0,0,1.978-1.028,1.90914,1.90914,0,0,0-.03271-1.92737,1.106,1.106,0,0,1-.16675-1.33594,0.71757,0.71757,0,0,0,.10071-0.968,4.201,4.201,0,0,0-1.68542-1.283c-0.71631-.32153-1.33594-0.27734-1.37646.09839a2.45789,2.45789,0,0,0,.10242,1.05847,1.06121,1.06121,0,0,1-.93933.75183,1.43707,1.43707,0,0,1-1.62048-.43262c-0.27771-.44507-0.66321-0.49414-0.85657-0.109-0.1936.38513-.68872,0.1731-1.10059-0.47107a2.82633,2.82633,0,0,1-.58044-1.635,3.94034,3.94034,0,0,0-.51843-1.89673,4.78344,4.78344,0,0,0-1.14941-1.66553c-0.25464-.12793-0.80664.4519-1.22644,1.28833a3.9876,3.9876,0,0,0-.52307,2.23975,2.45081,2.45081,0,0,0,.96509,1.1377,1.74872,1.74872,0,0,1,.66357,1.501c-0.03369.59521-.41479,0.79053-0.84717,0.43408a7.81917,7.81917,0,0,1-1.44727-1.80542c-0.36365-.63647-0.80469-0.80347-0.98022-0.37109a3.051,3.051,0,0,1-1.00537,1.22241,18.51217,18.51217,0,0,1-2.50049,1.11365,2.99391,2.99391,0,0,1-2.52209.03284,2.34592,2.34592,0,0,0-1.96545-.29541A1.19036,1.19036,0,0,0,95.792,41.46582c0.11377,0.45264-.21338.63159-0.72705,0.39771a2.71426,2.71426,0,0,0-1.7489-.13428,8.06862,8.06862,0,0,1-2.24524.27148c-0.78674-.01074-1.15637-0.19983-0.82141-0.42017a1.52308,1.52308,0,0,0,.64819-0.99548,0.80293,0.80293,0,0,0-.70679-0.73584,10.61935,10.61935,0,0,1-2.10071-.83069,8.07826,8.07826,0,0,0-1.81274-.72668,1.50116,1.50116,0,0,0-.95117.44531c-0.27112.26526-.38062,0.10925-0.24316-0.3468s0.0144-.72949-0.27344-0.60791a2.48652,2.48652,0,0,0-.89111.74927c-0.20251.29028-.39111,0.05029-0.41919-0.53357a0.96416,0.96416,0,0,0-1.37158-.704,34.56352,34.56352,0,0,0-3.266,1.1593,8.92815,8.92815,0,0,0-2.65918,1.61487c-0.39246.44739-.87415,0.587-1.07019,0.3103a5.56464,5.56464,0,0,0-.89087-0.9303,3.35831,3.35831,0,0,1-.75757-0.861,0.9613,0.9613,0,0,0-1.06494-.18311,2.256,2.256,0,0,1-1.6416-.27307,2.80731,2.80731,0,0,0-.50293-0.25281A80.00307,80.00307,0,1,1,128.55334,185.17731Z" style="fill:#fff"/></svg>