<?xml version="1.0" encoding="utf-8"?>
<!-- Generator: Adobe Illustrator 22.0.1, SVG Export Plug-In . SVG Version: 6.00 Build 0)  -->
<svg version="1.1" id="Layer_1" xmlns="http://www.w3.org/2000/svg" xmlns:xlink="http://www.w3.org/1999/xlink" x="0px" y="0px"
	 viewBox="0 0 1532 273" style="enable-background:new 0 0 1532 273;" xml:space="preserve">
<style type="text/css">
	.st0{fill:#FFFFFF;}
</style>
<title>mapanything-logo-white-min</title>
<polygon class="st0" points="364.1,85 332.4,190.7 300.1,85 271.6,85 250.3,218.3 272.9,218.3 289.1,115 320.8,218.3 343.2,218.3 
	374.9,115 391,218.3 413.9,218.3 392.8,85 "/>
<path class="st0" d="M468.4,116.6c-11.3-0.1-22.4,2.7-32.3,8.1V144c8.3-4.7,17.3-8.1,28.7-8.1c11,0,19.1,4.9,19.1,15.7v8.3h-11
	c-28.7,0-46,9.9-46,30.1c0,22.5,18.8,30.3,44.7,30.3c11.5,0,22.9-1.4,34.1-4.1v-65.8C505.7,125.6,490.2,116.6,468.4,116.6z
	 M483.9,202.6c-4,0.7-8.1,1.1-12.1,1.1c-13.5,0-22.9-4-22.9-14.4c0-10.1,10.1-14.6,25.6-14.6h9.4V202.6z"/>
<path class="st0" d="M569.7,116.6c-13.8,0.1-27.4,2.7-40.2,7.9v134.2h22v-40.8c4,1.6,11,2.7,18.2,2.7c33.7,0,54.8-19.5,54.8-53.2
	C624.5,135,603,116.6,569.7,116.6z M568.4,201.4c-5.7,0-11.4-0.9-16.8-2.9v-59.5c5.8-1.7,11.9-2.5,17.9-2.5
	c20,0,32.6,11.7,32.6,31.4C602.1,190.2,588.2,201.4,568.4,201.4z"/>
<path class="st0" d="M679.8,85l-51.8,133.3h24.2l11.7-31.4h59.5l11.7,31.4h24.9L707.8,85H679.8z M670.8,168l22.9-61.5l22.7,61.5
	L670.8,168z"/>
<path class="st0" d="M818.7,116.6c-15.6,0.2-31,3-45.6,8.5v93.1h22.2v-78.6c7-2,14.3-3,21.6-2.9c12.3,0,21.3,5.2,21.3,19.5v61.9h22
	v-64C860.3,126.3,844.1,116.6,818.7,116.6z"/>
<polygon class="st0" points="920.1,197.2 891.8,118.9 868,118.9 909.1,222.8 895.2,258.7 917,258.7 970.8,118.9 947.9,118.9 "/>
<path class="st0" d="M1014.5,184.8v-47.4h28.3v-18.6h-28.3V94.6h-22v24.3h-15v18.6h15v52.3c0,22.7,13.7,30.7,29.8,30.7
	c8.3,0.2,16.6-1.7,24-5.4v-20c-6.1,3.6-11.7,5.6-18.2,5.6C1019.6,200.8,1014.5,196.7,1014.5,184.8z"/>
<path class="st0" d="M1111,116.6c-8.9,0-17.7,1.6-26,4.7V65.6h-22.2v152.6h22.2v-78.1c7-2.3,14.2-3.4,21.6-3.4
	c12.3,0,21.3,5.2,21.3,19.5v61.9h22v-64C1149.9,126.5,1133.5,116.6,1111,116.6z"/>
<path class="st0" d="M1184.9,74.6c-7.6,0-13.8,6.1-13.9,13.7c-0.1,7.7,6,14,13.7,14.1c7.7,0.1,14-6,14.1-13.7c0-0.1,0-0.3,0-0.4
	C1198.7,80.7,1192.5,74.6,1184.9,74.6z"/>
<rect x="1173.9" y="118.9" class="st0" width="22.2" height="99.4"/>
<path class="st0" d="M1266.4,116.6c-15.6,0.2-31,3-45.5,8.5v93.1h22.2v-78.6c7-2,14.3-3,21.5-2.9c12.3,0,21.3,5.2,21.3,19.5v61.9h22
	v-64C1308,126.3,1291.8,116.6,1266.4,116.6z"/>
<path class="st0" d="M1326,167.8c0,33,21.8,50.3,52.7,50.3c7.6,0,15.7-1.8,19.1-3.8v2.2c0,18.6-12.1,25.8-26.3,25.8
	c-11.7,0-22-2.9-32.8-8.8V254c10.3,4.6,21.5,7,32.8,7c22.7,0,48.3-10.6,48.3-43.1v-94c-11.9-4.7-24.7-7.1-37.5-7.2
	C1347.8,116.6,1326,135.9,1326,167.8z M1397.8,196.1c-5.5,2.2-11.4,3.4-17.3,3.4c-19.5,0-32.1-12.1-32.1-31.7
	c0-20.4,12.8-31.6,33.9-31.6c5.3-0.1,10.5,0.8,15.5,2.5V196.1z"/>
<path class="st0" d="M106.8,10C51.6,10.1,6.9,54.9,7,110.1c0,0,0,0,0,0c0,22.9,15.6,55,46.1,95.5c14.2,18.7,29.4,36.6,45.6,53.7
	c2.2,2.3,5.3,3.6,8.5,3.6h0c3.2,0,6.3-1.3,8.6-3.7c16.1-17.1,31.2-35.1,45.4-53.9c30.4-40.6,45.8-72.8,45.8-95.7
	C206.9,54.8,162,10,106.8,10z M123.9,167.6l0,0.3c0,0.3-0.1,0.6-0.1,0.9c0,0.3-0.1,0.6-0.1,0.9c0,0.3-0.1,0.6-0.1,0.9l-1.2,2.3
	c-0.5,0.8-0.8,1.7-0.9,2.6c0,0.5-0.1,1.1-0.3,1.6c-0.2,0.6-0.4,1.3-0.6,2c-0.1,0.7-0.2,1.4-0.1,2.1c0.1,0.5-0.1,0.9-0.5,1.2
	c-0.3,0.1-0.6,0.4-0.7,0.8c0,0,0,0.1,0,0.1c-41.5,6.8-80.6-21.4-87.4-62.9c-4-24.3,4.1-49,21.6-66.3c0.1,0,0.2,0,0.8-0.1
	c0.9-0.5,1.6-0.8,1.5-0.7c-0.2,0.3-0.4,0.7-0.6,1c-0.7,0.7-1.4,1.4-2.3,2l-0.1,0.1c-0.8,0.5-1.5,1.1-2.2,1.8
	c-0.4,0.7-0.7,1.4-0.9,2.2c-0.2,0.9-0.3,1.6-0.1,1.6c0.2,0,0.4,0,0.6,0c0.1,0,0.2,0.1,0.2,0.4c0,0.3-0.1,0.7-0.3,1
	c-0.1,0.2-0.1,0.4,0.1,0.4l0.5,0c0.1,0,0.3,0,0.8-0.1c0.4-0.1,0.1,0.6-0.5,1.6l-0.3,0.4c-2.6,2.1-3.8,2.7-6.3,4.9
	c2-1.4,2.7-1,4.8-2.4l0.8-0.7c0.9-0.8,2.3-2,3.1-2.8c0.7-0.6,1.4-1.2,2.1-1.7c0.3-0.2,1-0.7,1.5-1c0.4-0.3,0.9-0.6,1.4-0.8
	c0.5-0.2,1-0.5,1.4-0.9c0.5-0.4,0.9-0.5,1-0.2c0.1,0.3,0.4,0.6,0.8,0.8c0.5,0.2,0.9,0.3,1.4,0.4c0.5,0.1,0.9,0.2,1.3,0.5
	c0.6,0.7,1,1.5,1.3,2.3l0.4,0.8c0.5,1.3,0.8,2.6,1,4l0.1,2c0,1.1,0.8,2.1,1.9,2.4c1,0.2,1.8,0.9,1.7,1.6c-0.1,0.7-0.1,1.4,0.1,2
	c0.2,0.6,0.6,1.1,1,1.6c0.5,0.7,0.8,1.5,0.9,2.3c0,0.9,0,1.8-0.2,2.7c-0.1,0.7-0.4,1.8-0.6,2.4c-0.2,0.7-0.3,1.4-0.3,2.2
	c0,0.5,0.1,1,0,1.5L71.4,90c0,0.2,0,0.4-0.1,1.1l1.3,3c0.4,1.1,1.1,2.5,1.5,3.2c0.4,0.7,1,1.4,1.8,1.9c0.8,0.7,1.5,1.6,1.9,2.6
	c0.4,1,1,2.7,1.3,3.6c0.4,1.2,1,2.3,1.8,3.3l0.1,0.1c0.9,1.1,1.8,2.1,2.8,3c0.8,0.7,1.3,0.8,1,0.2c-0.4-1-0.9-2-1.5-2.9
	c-0.6-0.9-1.5-2.5-2-3.5l-0.1-0.2c-0.5-0.9-0.9-1.8-1.2-2.8c-0.1-0.5,0.2-0.7,0.7-0.5c0.6,0.4,1.1,1,1.3,1.7c0.4,1.1,1,2.1,1.8,2.9
	l0.2,0.2c0.6,0.6,1.1,1.4,1.6,2.2c0.3,0.5,0.7,1,1.2,1.4c0.8,0.7,1.5,1.4,2.1,2.3c0.5,0.7,0.9,1.5,0.9,2.4c0,0.7,0.3,1.4,0.8,1.9
	c0.6,0.6,1.2,1,2,1.3c0.9,0.3,1.8,0.8,2.7,1.3c0.9,0.6,1.9,1.1,2.9,1.6c0.7,0.3,1.4,0.3,2.1,0.2c0.5-0.2,1-0.2,1.6-0.1
	c0.7,0.3,1.3,0.7,1.9,1.2c1,0.7,2.1,1.1,3.2,1.3c1.2,0.2,2.3,0.9,3,1.9c0.5,0.9,1.3,1.6,2.1,2.1c0.6,0.3,2,1,3,1.6l0,0
	c1,0.6,1.9,0.8,2,0.6c0.2-0.4,0.5-0.8,0.8-1.1c0.4-0.4,1.1-0.3,1.4,0.2c0.4,0.4,0.7,0.9,0.8,1.4l0,0.3c0,0.3,0,0.6,0,0.9
	c0,0.3,0,0.6,0,0.9c0,0.3,0,0.6,0,0.9l-0.6,1.5c-0.3,0.9-0.8,1.7-1.5,2.3c-0.5,0.5-0.9,1.1-1,1.7c-0.2,0.7-0.4,1.4-0.4,1.4l0,0.6
	c0.5,0.1,0.8,0.4,0.5,0.8c-0.3,0.4-0.5,0.8-0.7,1.3c-0.1,0.6,0.1,1.3,0.6,1.7c0.5,0.6,1.1,1.3,1.3,1.7c0.4,0.7,0.7,1.5,1,2.3
	c0.3,0.8,0.6,1.5,1,2.2c0.3,0.4,0.5,0.8,0.6,1.3c0.4,0.7,1,1.2,1.7,1.5c0.8,0.5,2,1.2,2.5,1.6c0.7,0.7,1,1.6,1.1,2.5
	c0.1,0.9,0,1.8-0.2,2.7c-0.2,0.6-0.4,1.3-0.5,2c-0.2,0.9-0.4,1.9-0.7,2.8C124.2,166.1,124,166.9,123.9,167.6z M124.8,182
	c0.1-0.1,0.2-0.2,0.3-0.3c0.3-0.2,0.7-0.4,1.1-0.5c0.6-0.3,1.1-0.8,1.5-1.4c0.5-0.7,0.8-1.5,0.5-1.9c-0.3-0.3-0.1-0.5,0.3-0.4
	c0.4,0.1,0.8,0.1,1-0.1c0.2-0.4,0.4-0.8,0.6-1.2c0.4-0.7,1.1-1.1,1.9-1.1c0.8-0.1,1.6-0.5,2.2-1c0.4-0.5,0.6-1,0.5-1.2
	c-0.1-0.3-0.3-0.7-0.4-1.1c-0.1-0.4,0.3-0.6,0.9-0.4c1,0,2.1-0.2,2.9-0.7l0.2-0.1c1.5-1.6,3.6-3.8,5.1-5.4c0.3-1.1,0.8-2.2,1.6-3
	c0.6-0.6,1.4-1.1,2.2-1.4c0.4-0.1,0.8-0.2,1.2-0.3l0.6,0c0.1,0,0.3,0,0.9,0c0.6-0.7,1.4-1.8,2-2.5c0.6-0.9,1.2-1.9,1.6-3
	c0.4-0.9,0.8-2.3,1-2.9c0.4-1,1-1.9,1.8-2.7l2.6-2.6c0,0,0.1-0.6,0.3-1.2c0.2-0.6,0.2-1.2,0.2-1.8c-0.2-0.4-0.6-0.6-1-0.6
	c-0.7-0.1-1.2-0.5-1.7-1c-0.7-0.7-1.6-1.2-2.6-1.4c-1.1-0.3-2.2-0.6-3.2-1.1c-0.8-0.4-1.8-0.9-2.4-1.2c-0.5-0.2-1-0.5-1-0.6l0.1-0.8
	l-0.5-1.3c-0.4-1-1.1-1.9-2-2.5c-0.9-0.4-1.8-0.6-2.8-0.8c-1.1-0.3-2.1-0.9-2.8-1.7c-0.7-0.8-1.8-2-2.4-2.6c-0.7-0.7-1.8-1-2.8-0.7
	c-0.9,0.3-1.8,0.3-2.8,0.1c-0.8-0.3-1.6-0.5-2.5-0.6c-0.9-0.2-1.8-0.4-2.6-0.6c-0.9-0.2-1.9-0.1-2.8,0.2c-0.8,0.3-1.4,0.8-1.8,1.6
	c-0.1,0.5-0.3,0.9-0.7,1.1c-0.3,0.1-0.9-0.3-1.4-0.9c-0.6-0.6-1.6-0.6-2.2,0c-0.9,0.6-2,0.4-2.7-0.4c-0.8-0.9-1.2-2.2-1.1-3.4
	c0.2-1.1-0.1-2.2-0.6-2.6c-0.5-0.3-1-0.5-1.6-0.6l-0.3,0c-0.3,0-0.6,0-0.9,0l-0.9,0l-0.9,0l1.3-4.9c0.3-1.1-0.4-1.9-1.4-1.7
	c-1.1,0.2-2,0.9-2.5,1.9c-0.4,1-1.2,1.6-2.2,1.8c-1,0.1-2.1-0.3-2.9-0.9c-0.8-0.9-1.4-2-1.7-3.1l-0.4-1.4c-0.3-1.1-0.3-2.3,0-2.6
	c0.4-0.5,0.5-1.1,0.3-1.7c-0.1-0.7,0-1.4,0.4-1.9c0.4-0.5,0.9-0.8,1.4-1c0.4-0.1,0.7-0.2,0.8-0.3l0-0.8l1.5,0.1
	c1,0.1,2.1,0.1,3.1-0.1c0.5-0.1,0.9-0.4,0.7-0.7c-0.1-0.2,0.7-0.4,1.8-0.3c0.9,0,1.9,0.2,2.7,0.6c0.3,0.3,0.8,0.4,1.2,0.3
	c0.4-0.1,0.8,0,1.1,0.3c0.4,0.6,0.6,1.2,0.7,1.9c0.3,1,0.7,2,1.4,2.9c0.6,0.8,1.2,0.6,1.3-0.5c0-1.3-0.2-2.6-0.7-3.9l-0.1-0.2
	c-0.5-0.9-0.5-2,0-2.9c0.4-0.5,0.9-1,1.5-1.3c0.6-0.3,1-0.7,1.4-1.2c0.5-0.7,1.1-1.3,1.7-1.9c0.7-0.9,1.2-1.9,1.5-3
	c0.3-1.2,0.6-2.3,1-3.4c0.4-0.8,1-1.4,1.7-1.7c0.5-0.2,0.9-0.3,1.4-0.4l0.5,0c0.1,0,0.3,0,0.8,0c-0.4-0.8-0.5-1.7-0.4-2.6
	c0.6-0.8,1.4-1.3,2.3-1.5c1.1-0.3,2.1-0.3,2.1,0.2c0.1,0.4,0.9,0.3,1.9-0.3l1.8-1.1c1-0.6,1.7-1.5,1.6-2.1c0-0.3-0.3-0.6-0.6-0.6
	c-0.1,0-0.3,0-0.4,0.1c-0.8,0.2-1.6,0.1-2.2-0.4c-0.8-0.5-1.4-1.1-1.4-1.3l-0.1-0.7c0-0.2,0-0.4-0.1-1.1l-0.3,0
	c-1.2-0.1-2-0.6-1.8-1c0.2-0.5,1.2-0.8,2.4-0.7l1,0.1c1.3,0.1,2.6-0.2,3.7-0.7c0.9-0.5,2-1.1,2.3-1.4s0.7-0.7,0.6-0.9l-0.1-0.8
	c0-0.2-0.1-0.4-0.2-1.1l-1.6-1.3c-0.9-0.7-2.4-1.9-3.3-2.6l-0.1-0.1c-0.9-0.7-1.5-1.5-1.4-1.7c0.2-0.2-0.2-1.2-0.9-2.2l-1.4-2.2
	c-0.6-1-1.3-1.5-1.5-1.1c-0.2,0.4-0.3,0.9-0.3,1.4c0,0.5-0.3,1-0.7,1.3c-0.5,0.3-1.2,0.1-1.5-0.4c-0.5-0.7-0.9-1.5-1.1-2.3
	c-0.1-0.8-0.7-1.4-1.4-1.7c-0.8-0.3-1.4-0.8-2-1.4c-0.5-0.6-1.2-1-1.6-0.9c-0.6,0.1-1.2,0-1.8-0.3c-0.6-0.2-1.2-0.1-1.4,0.2
	c-0.2,0.4-0.2,0.8,0,1.2c0.2,0.3,0.2,0.7,0,1c-0.1,0.6,0,1.1,0.3,1.6c0.3,0.5,0.3,1.2-0.1,1.7c-0.4,0.3-0.4,0.9-0.1,1.2
	c0,0,0.1,0.1,0.1,0.1c0.5,0.7,0.9,1.5,1.1,2.3c0.2,1-0.2,2.1-1,2.8c-0.8,0.8-1.1,1.9-0.8,3c0.3,0.8,0.4,1.7,0.1,2.5
	c-0.2,0.4-0.6,0.7-1.1,0.8c-0.4,0-1-0.6-1.4-1.4c-0.4-0.9-0.7-2-0.9-3c0-0.8-0.6-1.5-1.4-1.6c-1-0.2-2-0.5-2.8-1
	c-0.8-0.5-2.1-1.2-2.7-1.6c-0.5-0.4-1.2-0.6-1.8-0.5c-0.3,0.1-0.8-0.5-1.1-1.5c-0.3-0.9-0.8-1.6-1.1-1.6c-0.4,0-0.5-0.8-0.3-1.9
	c0.3-1.3,1-2.5,1.9-3.4l0.4-0.4c0.8-0.7,1.4-1.5,2-2.3c0.2-0.5,0.6-0.9,0.7-0.9l0.6,0c0.1,0,0.3,0,0.8,0c0.5-1,1.1-2.4,1.4-2.9
	c0.4-0.7,1.1-1.1,1.8-1.2c0.7-0.1,1.4-0.4,1.9-1c0.3-0.6,0.3-1.3,0-1.8c-0.3-0.6-0.4-1.1-0.2-1.3c0.3-0.2,0.3-0.6,0.1-0.9
	c-0.4-0.5-1-1-1.6-1.2c-0.7-0.3-1.3-0.3-1.3,0.1c0,0.3,0,0.7,0.1,1c0.1,0.2-0.3,0.5-0.9,0.7c-0.5,0.2-1.2,0-1.5-0.4
	c-0.3-0.4-0.6-0.5-0.8-0.1c-0.2,0.4-0.7,0.2-1-0.4c-0.3-0.4-0.5-1-0.6-1.6c0-0.6-0.2-1.3-0.5-1.8c-0.2-0.6-0.6-1.1-1.1-1.6
	c-0.2-0.1-0.8,0.4-1.2,1.2c-0.4,0.6-0.5,1.4-0.5,2.1c0.2,0.4,0.5,0.8,0.9,1.1c0.4,0.3,0.7,0.9,0.6,1.4c0,0.6-0.4,0.8-0.8,0.4
	c-0.5-0.5-1-1.1-1.4-1.7c-0.3-0.6-0.8-0.8-0.9-0.4c-0.2,0.5-0.5,0.9-1,1.2c-0.8,0.4-1.6,0.8-2.4,1.1c-0.8,0.4-1.6,0.4-2.4,0
	c-0.6-0.4-1.2-0.5-1.9-0.3c-0.7,0.2-1.1,0.7-1,1.1c0.1,0.4-0.2,0.6-0.7,0.4c-0.5-0.2-1.1-0.3-1.7-0.1c-0.7,0.2-1.4,0.3-2.1,0.3
	c-0.7,0-1.1-0.2-0.8-0.4c0.3-0.2,0.5-0.6,0.6-0.9c0-0.4-0.3-0.7-0.7-0.7c-0.7-0.2-1.4-0.5-2-0.8c-0.5-0.3-1.1-0.5-1.7-0.7
	c-0.3,0-0.7,0.2-0.9,0.4c-0.3,0.3-0.4,0.1-0.2-0.3c0.1-0.4,0-0.7-0.3-0.6c-0.3,0.2-0.6,0.4-0.8,0.7c-0.2,0.3-0.4,0-0.4-0.5
	c0-0.6-0.6-0.9-1.3-0.7c-1.1,0.3-2.1,0.7-3.1,1.1c-0.9,0.4-1.8,0.9-2.5,1.5c-0.4,0.4-0.8,0.6-1,0.3c-0.2-0.3-0.5-0.6-0.8-0.9
	c-0.3-0.2-0.5-0.5-0.7-0.8c-0.1-0.2-0.6-0.3-1-0.2c-0.5,0.1-1.1,0-1.6-0.3c-0.2-0.1-0.3-0.2-0.5-0.2c36.5-20.8,83.1-8.1,103.9,28.4
	s8.1,83.1-28.4,103.9C138.5,177.7,131.8,180.4,124.8,182L124.8,182z"/>
<path class="st0" d="M1514,104.2c-19.4,19.5-50.9,19.6-70.4,0.2c-9.5-9.4-14.8-22.3-14.7-35.6c0.1-27.5,22.5-49.8,50-49.7
	c27.5,0.1,49.8,22.5,49.7,50C1528.6,82.2,1523.3,94.8,1514,104.2z M1448.3,38.4c-8.2,8-12.7,19-12.5,30.4
	c-0.2,11.5,4.3,22.5,12.4,30.6c16.7,16.8,43.8,16.9,60.6,0.2c0.1-0.1,0.1-0.1,0.2-0.2c16.7-16.9,16.7-44.1,0-61
	c-16.6-16.8-43.7-16.9-60.5-0.2C1448.5,38.2,1448.4,38.3,1448.3,38.4z M1477.7,41.2c5.1-0.3,10.1,0.4,15,2c5.7,2.4,8.5,7,8.5,13.9
	c0.3,4.3-1.7,8.4-5.3,10.8c-2.4,1.4-5.1,2.3-7.9,2.7c3.8,0.4,7.2,2.3,9.4,5.4c1.8,2.5,2.9,5.4,3,8.5v4c0,1.3,0,2.6,0.1,4.1
	c0,1,0.2,1.9,0.5,2.9l0.3,0.7h-9c0-0.2-0.1-0.4-0.1-0.5c0-0.2-0.1-0.4-0.1-0.6l-0.2-1.8v-4.3c0-6.3-1.7-10.5-5.2-12.5
	c-3.4-1.4-7.1-2-10.7-1.8h-7.6V96h-9.7V41.2L1477.7,41.2z M1488.1,49.8c-3.7-1.6-7.7-2.3-11.7-2h-8.3v19.9h8.7
	c3.1,0.1,6.2-0.3,9.2-1.2c3.6-1.2,5.9-4.8,5.7-8.6C1491.8,53.9,1490.6,51.2,1488.1,49.8z"/>
</svg>
