<svg xmlns="http://www.w3.org/2000/svg" viewBox="0 0 183.33333 183"><path d="M91.88574,181.73584h-.06934a25.63657,25.63657,0,0,1-10.35937-2.1543l1.60547-3.66309a21.6716,21.6716,0,0,0,8.75391,1.81738Zm8.374-1.40576-1.30469-3.78125a21.45479,21.45479,0,0,0,7.65332-4.605l2.72461,2.92969A25.4418,25.4418,0,0,1,100.25977,180.33008Zm-25.9043-5.40381q-.37646-.34717-.74023-.7124L67.334,167.93262l2.82813-2.82812,6.28125,6.28125q.30908.30835.627.603Zm40.60254-5.65381-2.82812-2.82812,6.95215-6.95264,2.82813,2.82813Zm-53.18652-6.90186-6.95215-6.95215,2.82813-2.82812,6.95215,6.95215Zm65.70117-5.6123-2.82812-2.82812,6.95215-6.95264,2.82813,2.82813Zm-78.21484-6.90186-6.95215-6.95215,2.82813-2.82812,6.95215,6.95215Zm90.72852-5.6123L137.1582,141.416l6.95215-6.95264,2.82813,2.82813ZM36.74316,137.34229,29.791,130.39014l2.82812-2.82812,6.95215,6.95215ZM152.501,131.73l-2.82812-2.82812,6.95215-6.95264,2.82813,2.82813ZM24.22949,124.82813,17.27734,117.876l2.82813-2.82812L27.05762,122Zm140.78516-5.6123-2.82812-2.82812,6.95215-6.95264,2.82813,2.82813ZM11.71484,112.314,9.24316,109.8418a25.71934,25.71934,0,0,1-4.15723-5.44385l3.47461-1.98047a21.73521,21.73521,0,0,0,3.51074,4.59619l2.47168,2.47217ZM177.458,106.14111l-3.30469-2.25391a21.50864,21.50864,0,0,0,3.39844-8.26221l3.93359.72754A25.496,25.496,0,0,1,177.458,106.14111ZM2.15918,96.42725a25.95856,25.95856,0,0,1,.21094-10.57812l3.89844.89551A21.94514,21.94514,0,0,0,6.09082,95.688Zm175.52441-7.97656a21.53275,21.53275,0,0,0-3.08984-8.38428l3.38672-2.12988a25.50509,25.50509,0,0,1,3.66016,9.93311ZM9.00391,80.12158,5.61133,78.00146a25.77416,25.77416,0,0,1,3.63184-4.56152l3.14062-3.14062,2.82813,2.82813-3.14062,3.14063A21.79707,21.79707,0,0,0,9.00391,80.12158Zm160.75586-5.6543-6.95215-6.95264,2.82813-2.82812,6.95215,6.95264ZM20.77441,67.56543,17.94629,64.7373l6.95215-6.95215,2.82813,2.82813Zm136.4707-5.6123L150.293,55.00049l2.82813-2.82812,6.95215,6.95264Zm-123.957-6.90186L30.46,52.22314,37.41211,45.271l2.82813,2.82813ZM144.73145,49.439l-6.95215-6.95264,2.82813-2.82812,6.95215,6.95264ZM45.80273,42.53711,42.97461,39.709l6.95215-6.95215L52.75488,35.585Zm86.41406-5.6123-6.95215-6.95215,2.82813-2.82812,6.95215,6.95215ZM58.31641,30.02295l-2.82812-2.82812,6.95215-6.95215,2.82813,2.82813Zm61.38672-5.6123L112.751,17.4585l2.82813-2.82812,6.95215,6.95215ZM70.83105,17.50879l-2.82812-2.82813,5.6123-5.61279c.48438-.48437.99121-.95312,1.50781-1.39355l2.5957,3.043c-.43652.37207-.86523.769-1.27539,1.17871Zm37.77148-5.02686a1.99352,1.99352,0,0,1-1.41406-.58594A21.51864,21.51864,0,0,0,99.709,7.0083l1.44531-3.72949a25.48351,25.48351,0,0,1,8.8623,5.78906,2,2,0,0,1-1.41406,3.41406ZM83.86328,7.03223l-1.457-3.72559A25.782,25.782,0,0,1,92.84082,1.56592L92.68652,5.563A21.84966,21.84966,0,0,0,83.86328,7.03223Z" style="fill:#ecebea"/><path d="M91.81608,169.73577a13.64564,13.64564,0,0,1-9.7168-4.00781L17.72819,101.35637a13.7574,13.7574,0,0,1,0-19.43164L82.10026,17.55315a13.78233,13.78233,0,0,1,19.43262.00049L165.904,81.92522a13.7574,13.7574,0,0,1,0,19.43164L101.5319,165.72844A13.64328,13.64328,0,0,1,91.81608,169.73577Z" style="fill:#fafaf9"/><path d="M139.38952,92.494l-24.39878,24.39878a6.65882,6.65882,0,1,1-9.417-9.417L118.60382,94.445H69.34193v18.58361a6.65953,6.65953,0,0,1-13.31907,0V87.78546a6.65986,6.65986,0,0,1,6.65953-6.65953h55.92142L105.57374,68.09519a6.65882,6.65882,0,1,1,9.417-9.417L139.38952,83.077A6.65709,6.65709,0,0,1,139.38952,92.494Z" style="fill:#dddbda"/></svg>