<?xml version="1.0" encoding="UTF-8"?>
<svg width="384px" height="70px" viewBox="0 0 384 70" version="1.1" xmlns="http://www.w3.org/2000/svg" xmlns:xlink="http://www.w3.org/1999/xlink">
    <!-- Generator: Sketch 56.3 (81716) - https://sketch.com -->
    <title>Artboard</title>
    <desc>Created with Sketch.</desc>
    <g id="Artboard" stroke="none" stroke-width="1" fill="none" fill-rule="evenodd">
        <path d="M177.157692,35.8009615 L198.226923,35.8009615 C198.798077,35.8009615 199.051923,36.4990385 198.671154,36.8798077 L192.578846,42.9721154 C192.198077,43.3528846 192.198077,43.9240385 192.578846,44.3048077 L193.975,45.7009615 C194.355769,46.0817308 194.926923,46.0817308 195.307692,45.7009615 L206.413462,34.5317308 C206.794231,34.1509615 206.794231,33.5798077 206.413462,33.1990385 L195.307692,22.0932692 C194.926923,21.7125 194.355769,21.7125 193.975,22.0932692 L192.642308,23.4259615 C192.261538,23.8067308 192.261538,24.3778846 192.642308,24.7586538 L198.734615,30.8509615 C199.115385,31.2951923 198.861538,31.9932692 198.290385,31.9932692 L177.221154,31.9932692 C176.713462,31.9932692 176.269231,32.3740385 176.269231,32.8817308 L176.269231,34.7855769 C176.269231,35.2932692 176.65,35.8009615 177.157692,35.8009615 L177.157692,35.8009615 Z" id="Mask" fill="#706E6B"></path>
        <path d="M53.9195415,37.7687975 C53.4805752,37.8421584 52.9660678,37.890993 52.5990453,37.890993 C51.1310642,37.890993 50.1033575,37.4510456 50.1033575,36.3246887 C50.1033575,35.2238391 51.2040981,34.7342941 52.8924889,34.7342941 L53.9195415,34.7342941 L53.9195415,37.7687975 Z M52.2323498,28.3975689 C50.8871092,28.3975689 49.6633011,28.7403921 48.7086283,29.2787718 L48.7086283,31.3819297 C49.6140305,30.8677493 50.5938836,30.5022529 51.8401469,30.5022529 C53.0394287,30.5022529 53.9195415,31.0396515 53.9195415,32.214298 L53.9195415,33.1201362 L52.7205868,33.1201362 C49.5893952,33.1201362 47.7059929,34.1959144 47.7059929,36.3970685 C47.7059929,38.8450118 49.7606433,39.7024514 52.574519,39.7024514 C53.7978911,39.7024514 55.2657632,39.5296772 56.2941239,39.2603239 L56.2941239,32.0912304 C56.2941239,29.376332 54.605515,28.3975689 52.2323498,28.3975689 L52.2323498,28.3975689 Z" id="Fill-2" fill="#0070D2"></path>
        <path d="M63.1275013,37.6456864 C62.4427268,37.6456864 61.807005,37.5234909 61.2933697,37.3270624 L61.2933697,30.8444875 C61.807005,30.6736754 62.5657944,30.5746981 63.2498058,30.5746981 C65.4285047,30.5746981 66.7984896,31.8474499 66.7984896,34.0012955 C66.7984896,36.4231863 65.2814559,37.6456864 63.1275013,37.6456864 M63.273569,28.3976343 C61.6359749,28.3976343 59.9962007,28.7900552 58.8945881,29.2540929 L58.8945881,43.8847423 L61.2933697,43.8847423 L61.2933697,39.4321824 C61.7340801,39.6031035 62.4921065,39.725299 63.273569,39.725299 C66.9448844,39.725299 69.2441437,37.5973968 69.2441437,33.9273895 C69.2441437,30.403232 66.8949597,28.3976343 63.273569,28.3976343" id="Fill-4" fill="#0070D2"></path>
        <path d="M74.2912212,34.0012846 L76.786691,27.2962288 L79.2573075,34.0012846 L74.2912212,34.0012846 Z M75.2691123,24.9478079 L69.6174886,39.4804611 L72.2593531,39.4804611 L73.5316688,36.0562619 L80.0156608,36.0562619 L81.2880855,39.4804611 L84.003747,39.4804611 L78.327379,24.9478079 L75.2691123,24.9478079 Z" id="Fill-6" fill="#0070D2"></path>
        <path d="M90.4171141,28.3976016 C88.8270465,28.3976016 86.9681706,28.7404248 85.4507009,29.3275301 L85.4507009,39.4804393 L87.8728098,39.4804393 L87.8728098,30.9174887 C88.5095126,30.7219323 89.3655352,30.5983197 90.2217758,30.5983197 C91.5675614,30.5983197 92.5454524,31.1613347 92.5454524,32.728511 L92.5454524,39.4804393 L94.943907,39.4804393 L94.943907,32.5074473 C94.943907,29.4496166 93.1820463,28.3976016 90.4171141,28.3976016" id="Fill-8" fill="#0070D2"></path>
        <polygon id="Fill-10" fill="#0070D2" points="101.466825 37.1802316 98.384686 28.6433334 95.790675 28.6433334 100.268633 39.9709981 98.7519265 43.8847423 101.124438 43.8847423 106.996907 28.6433334 104.50111 28.6433334"></polygon>
        <path d="M111.753768,35.8360157 L111.753768,30.67361 L114.836888,30.67361 L114.836888,28.643377 L111.753768,28.643377 L111.753768,25.9993323 L109.35673,25.9993323 L109.35673,28.643377 L107.716847,28.643377 L107.716847,30.67361 L109.35673,30.67361 L109.35673,36.3739593 C109.35673,38.8450118 110.848693,39.7252336 112.610553,39.7252336 C113.636516,39.7252336 114.519136,39.5060229 115.229091,39.1376923 L115.229091,36.9615006 C114.567425,37.3516323 113.955685,37.5732411 113.246602,37.5732411 C112.317001,37.5732411 111.753768,37.1324216 111.753768,35.8360157" id="Fill-12" fill="#0070D2"></path>
        <path d="M122.275967,28.3976016 C121.125411,28.3976016 120.049959,28.6665189 119.43702,28.912327 L119.43702,22.8431021 L117.01611,22.8431021 L117.01611,39.4804393 L119.43702,39.4804393 L119.43702,30.9662143 C120.07405,30.7470036 120.930072,30.5983197 121.786858,30.5983197 C123.132207,30.5983197 124.111188,31.1613347 124.111188,32.728511 L124.111188,39.4804393 L126.509861,39.4804393 L126.509861,32.5074473 C126.509861,29.4742519 124.722166,28.3976016 122.275967,28.3976016" id="Fill-14" fill="#0070D2"></path>
        <path d="M130.32853,23.822759 C129.521233,23.822759 128.812478,24.4828981 128.812478,25.3147214 C128.812478,26.1703079 129.521233,26.8559544 130.32853,26.8559544 C131.136481,26.8559544 131.845782,26.1703079 131.845782,25.3147214 C131.845782,24.4828981 131.136481,23.822759 130.32853,23.822759" id="Fill-16" fill="#0070D2"></path>
        <polygon id="Fill-18" fill="#0070D2" points="129.130655 39.480472 131.551129 39.480472 131.551129 28.6434424 129.130655 28.6434424"></polygon>
        <path d="M139.218444,28.3976016 C137.628267,28.3976016 135.768628,28.7404248 134.25323,29.3275301 L134.25323,39.4804393 L136.675339,39.4804393 L136.675339,30.9174887 C137.311496,30.7219323 138.167083,30.5983197 139.023105,30.5983197 C140.369,30.5983197 141.347654,31.1613347 141.347654,32.728511 L141.347654,39.4804393 L143.746109,39.4804393 L143.746109,32.5074473 C143.746109,29.4496166 141.984793,28.3976016 139.218444,28.3976016" id="Fill-20" fill="#0070D2"></path>
        <path d="M153.540138,37.0590389 C152.953033,37.2796667 152.414653,37.4259525 151.656191,37.4259525 C149.527853,37.4259525 148.158304,36.1040391 148.158304,33.9752649 C148.158304,31.7503475 149.55227,30.5258853 151.852619,30.5258853 C152.488777,30.5258853 153.0761,30.6238816 153.540138,30.7953477 L153.540138,37.0590389 Z M145.71156,33.9752649 C145.71156,37.5732193 148.084398,39.4567305 151.461071,39.4567305 C152.292567,39.4567305 153.173443,39.2603021 153.540138,39.0405464 L153.540138,39.2848284 C153.540138,41.3165875 152.219097,42.1002302 150.678409,42.1002302 C149.405003,42.1002302 148.279736,41.7810612 147.105962,41.1442493 L147.105962,43.3705838 C148.108379,43.8360385 149.356714,44.1295911 150.678409,44.1295911 C153.148371,44.1295911 155.938593,42.9794709 155.938593,39.4322042 L155.938593,29.1807538 C154.861179,28.7404793 153.3448,28.3976561 151.852619,28.3976561 C148.084398,28.3976561 145.71156,30.5022311 145.71156,33.9752649 L145.71156,33.9752649 Z" id="Fill-21" fill="#0070D2"></path>
        <path d="M14.3264877,34.5820239 C14.3341181,34.5690522 14.3438196,34.5566255 14.3569003,34.547251 C14.3922182,34.5221797 14.4467211,34.4960183 14.4782237,34.4891509 C14.5097264,34.4823926 14.5869025,34.4112118 14.6496899,34.3309835 C14.7125862,34.2508642 14.7396196,34.1537401 14.7100791,34.115152 C14.6804295,34.076673 14.6934012,34.057706 14.7389656,34.0731848 C14.784421,34.0885546 14.8342367,34.0846304 14.8494975,34.0642463 C14.8648673,34.0440802 14.8940809,33.9803118 14.9144649,33.9225388 C14.934849,33.8648747 15.0325182,33.8072106 15.1314955,33.7944569 C15.2304728,33.7818123 15.3462369,33.7277454 15.3888582,33.6743326 C15.4313704,33.6210287 15.4565508,33.5573693 15.4446691,33.532952 C15.4328965,33.5085347 15.4137115,33.4533778 15.4021569,33.4105385 C15.3904933,33.3675902 15.4375838,33.3457891 15.5068025,33.3620309 C15.5760211,33.3782728 15.7277572,33.3399028 15.8441754,33.2768974 L15.8640145,33.2662148 C16.0399498,33.081123 16.2713691,32.8314997 16.4457784,32.6450998 C16.4687786,32.5261745 16.5518411,32.3710592 16.6301072,32.3002054 C16.7084824,32.2294607 16.8194503,32.1568628 16.8768964,32.1387679 C16.9343424,32.1207819 16.9968027,32.1055211 17.0157697,32.1048671 L17.0843344,32.1025779 C17.1015573,32.1021419 17.1185622,32.1014879 17.1866908,32.0991988 C17.2514403,32.0234397 17.3522706,31.8950309 17.4108068,31.8139306 C17.4693429,31.7329393 17.5512062,31.578151 17.5928464,31.4702353 C17.6343777,31.3621015 17.6855014,31.2123276 17.7064305,31.1373316 C17.7274686,31.0622266 17.8205596,30.9236802 17.9134325,30.8293902 L18.2062221,30.5319134 C18.2062221,30.5319134 18.2219189,30.467818 18.2411039,30.3895518 C18.260289,30.3112856 18.2690094,30.2171046 18.260507,30.1802607 C18.2520045,30.1433077 18.2006628,30.1106059 18.1463779,30.1075538 C18.092202,30.1045016 18.0067415,30.0529419 17.9564898,29.9930977 C17.9062381,29.9331445 17.7707439,29.8629448 17.6553068,29.8371104 C17.5398696,29.811167 17.3738538,29.7521949 17.2863221,29.7058674 C17.1987905,29.6595399 17.076704,29.5989327 17.0151157,29.5711362 C16.9534184,29.5433398 16.9038208,29.5126001 16.9048018,29.5028986 L16.9140673,29.4140589 L16.8576023,29.266683 C16.8101848,29.1430705 16.7072833,29.0142256 16.6290172,28.9804338 C16.550751,28.946642 16.4090435,28.9035847 16.3140994,28.8847267 C16.2191554,28.8658687 16.0730876,28.777029 15.9894801,28.6873172 C15.9058727,28.5976054 15.7818241,28.4620022 15.7138045,28.3860252 C15.6457848,28.3099391 15.5027692,28.2734222 15.3959436,28.3049249 C15.2891179,28.3364275 15.1467563,28.3414418 15.0794997,28.3161525 C15.0123521,28.2909721 14.8852514,28.2579434 14.7970657,28.2427916 C14.708989,28.2277488 14.5725137,28.194502 14.4939206,28.1689946 C14.4152184,28.1435963 14.2728568,28.1524258 14.1773677,28.1887247 C14.0819876,28.2250236 13.9909678,28.3051429 13.975271,28.3665131 C13.9594651,28.4279924 13.9218581,28.4867465 13.8915545,28.4969931 C13.8612509,28.5072396 13.787781,28.4614572 13.7283728,28.3952907 C13.6688557,28.3291242 13.5581058,28.3294512 13.4820197,28.3959447 C13.4061517,28.4624383 13.2693494,28.4416181 13.1782206,28.3496172 C13.0870917,28.2576164 13.0295366,28.0802639 13.0502478,27.9555613 C13.0710679,27.8308586 13.0377121,27.6988526 12.9761238,27.6623357 C12.9145355,27.6257097 12.8320181,27.5958421 12.792558,27.5958421 L12.7568041,27.5958421 C12.7209412,27.5958421 12.6850783,27.5958421 12.6492154,27.5959512 L12.5415177,27.5959512 C12.5056548,27.5959512 12.4696829,27.5959512 12.43382,27.5959512 L12.5778166,27.0393675 C12.6109544,26.9111767 12.5362854,26.8237541 12.4118008,26.8450102 C12.2873162,26.8662663 12.1605424,26.9664427 12.1299118,27.067491 C12.0992812,27.1685394 11.9851521,27.2598863 11.8762553,27.2703508 C11.7673585,27.2809244 11.6182386,27.2329618 11.5448777,27.1637432 C11.4716258,27.0945245 11.382677,26.9335229 11.3473591,26.8059861 L11.3035388,26.6471647 C11.2682209,26.5195189 11.269202,26.3843517 11.3058279,26.3467447 C11.3423449,26.3091377 11.3595678,26.221715 11.344198,26.1522783 C11.3287192,26.0829506 11.3503023,25.9825563 11.3921605,25.9292525 C11.4339098,25.8759486 11.5067256,25.8236259 11.5538161,25.8130523 C11.6010156,25.8024787 11.6397127,25.7850378 11.6398217,25.7744642 L11.6404757,25.6775581 L11.815212,25.6935819 C11.9470001,25.7056816 12.1058215,25.7028474 12.1681728,25.6872596 C12.2305241,25.6716718 12.2687852,25.6372259 12.2533063,25.6107375 C12.2378275,25.5843581 12.3309185,25.5668082 12.4603084,25.5719315 C12.5896982,25.5769457 12.7291167,25.6072493 12.7701028,25.639188 C12.811089,25.6711267 12.8742034,25.6842074 12.9101753,25.6682926 C12.9462562,25.6523777 13.0010861,25.6654584 13.0321528,25.6973971 C13.0632194,25.7293358 13.1010445,25.8292942 13.1163053,25.9194419 C13.1315661,26.0096988 13.2028559,26.1580556 13.2747997,26.2492935 C13.3466345,26.3405314 13.4140001,26.314479 13.4244647,26.1914114 C13.4348202,26.0684529 13.3991753,25.8688633 13.3452174,25.7479758 L13.3348619,25.7249756 C13.280904,25.6040882 13.2783969,25.4536602 13.3294116,25.3907638 C13.3803173,25.3277585 13.4592375,25.2593028 13.5049109,25.2385917 C13.5504754,25.2177716 13.6247083,25.1541122 13.6697277,25.0971022 C13.7147471,25.0399832 13.8046769,24.94275 13.8695353,24.8808347 C13.9342848,24.8190284 14.0098258,24.6638041 14.0374043,24.5359403 C14.0649827,24.4081855 14.1181776,24.2339943 14.1558936,24.1487517 C14.1935006,24.0635092 14.2835394,23.9736884 14.3560282,23.9490531 C14.4284081,23.9244178 14.5010059,23.9043607 14.5172478,23.9044697 L14.5763289,23.9047968 C14.5910447,23.9049058 14.6058695,23.9049058 14.6647327,23.9053418 C14.6220024,23.796118 14.6008553,23.6623679 14.6177512,23.608192 C14.6347561,23.5539071 14.7522643,23.4785841 14.878929,23.4407591 C15.0055938,23.4028251 15.1153626,23.4116545 15.122666,23.4603801 C15.1300784,23.5089967 15.2281836,23.4918828 15.3408956,23.4223371 L15.5485517,23.2941463 C15.6612637,23.2246006 15.7450891,23.1166848 15.7350606,23.0543335 C15.7249231,22.9919822 15.6743444,22.9676739 15.6224576,23.0003756 C15.5706799,23.0330774 15.4564418,23.0123663 15.3688011,22.9541572 C15.2810514,22.8960571 15.2077995,22.8292365 15.2060555,22.8055823 L15.1994061,22.7200127 C15.197771,22.6986476 15.1961359,22.6773915 15.1892686,22.5923669 L15.160382,22.5901868 C15.028376,22.5801583 14.9358301,22.5265274 14.9545791,22.4709345 C14.9734371,22.4154505 15.0965046,22.3804597 15.2282926,22.3933223 L15.347,22.404986 C15.478788,22.4178486 15.6715102,22.3810047 15.7753927,22.3231226 C15.8792753,22.2652405 15.9999447,22.1926427 16.043438,22.161685 C16.0869313,22.1307274 16.1198511,22.085599 16.1164719,22.0613997 L16.1042632,21.973759 C16.1012111,21.9519579 16.0980499,21.9301567 16.0855142,21.8432791 L15.9057637,21.6991734 C15.8025352,21.616329 15.6321591,21.4826879 15.5271865,21.4020236 L15.5111627,21.3898149 C15.4060811,21.3091507 15.3347913,21.2227091 15.3525592,21.1976377 C15.3703272,21.1725664 15.3257438,21.0612715 15.253364,20.9504126 L15.0904003,20.7004623 C15.0181295,20.5896034 14.9397543,20.5316123 14.916318,20.5717264 C14.8928818,20.6117315 14.8754409,20.6848744 14.87773,20.7341451 C14.8799101,20.7834157 14.8430661,20.8502362 14.7958666,20.882611 C14.7487761,20.9149857 14.6700739,20.8934025 14.6213483,20.8346484 C14.5725137,20.7760033 14.5179018,20.6551159 14.5000249,20.5659491 C14.4821479,20.4768914 14.4115122,20.3868526 14.3429475,20.3660325 C14.2744919,20.3452124 14.1730075,20.2730505 14.1174145,20.2057939 C14.0618216,20.1385374 13.9800672,20.0926459 13.9357019,20.1037645 C13.8914455,20.1149921 13.7995536,20.1013664 13.731534,20.0736789 C13.6636234,20.0458824 13.5928786,20.0579821 13.5744566,20.1003853 C13.5560347,20.1427886 13.5558167,20.2033958 13.5740206,20.2351165 C13.5922246,20.2668372 13.5945137,20.318615 13.5791439,20.3501176 C13.5636651,20.3817293 13.581542,20.4640287 13.618822,20.5332474 C13.656102,20.602357 13.6489076,20.6889077 13.6026891,20.7256426 C13.5565797,20.7622686 13.5562527,20.8302882 13.6020351,20.8767246 C13.6478175,20.9230521 13.7068987,21.0414324 13.7332781,21.1395376 C13.7596575,21.2377519 13.7091878,21.3817485 13.6212201,21.4596877 C13.5333615,21.5375178 13.4901952,21.6928511 13.525513,21.8048 C13.5609399,21.916749 13.5675893,22.0454848 13.5404468,22.0910493 C13.5131954,22.1365047 13.4564034,22.1773818 13.4140001,22.1818511 C13.3717059,22.1864293 13.2977999,22.1119784 13.2499464,22.0164893 C13.2019838,21.9210002 13.1581635,21.766757 13.1524952,21.673557 C13.1469359,21.5803571 13.074665,21.4965316 12.9920387,21.4872661 C12.9093033,21.4780006 12.7636715,21.4241518 12.6681824,21.3676868 C12.5728023,21.3111128 12.4326209,21.2265243 12.3568619,21.1794338 C12.2809938,21.1325613 12.1885569,21.1043288 12.1514949,21.1169734 C12.114433,21.1296181 12.059712,21.0541861 12.0299535,20.9493225 C12.0001949,20.8444589 11.9428578,20.7622686 11.9025257,20.7666288 C11.8621935,20.770989 11.8476958,20.6716847 11.87026,20.545783 C11.8929332,20.4199903 11.9907114,20.2432919 12.0875085,20.1530351 L12.1315469,20.112049 C12.228453,20.0217922 12.3303734,19.9015588 12.3581699,19.8447667 C12.3859664,19.7880837 12.4233554,19.7415382 12.4411233,19.7415382 L12.5058728,19.7416473 C12.5221147,19.7416473 12.5382475,19.7416473 12.602997,19.7417563 C12.6549927,19.62403 12.7245384,19.4721849 12.7577852,19.4042743 C12.791032,19.3363637 12.884886,19.2725953 12.9664223,19.2625668 C13.0479586,19.2526472 13.1450828,19.2021775 13.1820358,19.1506178 C13.2190977,19.0989491 13.2174626,19.004332 13.1785476,18.9404546 C13.1395235,18.8765772 13.1313481,18.8110647 13.1603436,18.7948229 C13.1893392,18.77869 13.1942444,18.7311635 13.1713532,18.6893053 C13.148353,18.647447 13.0657266,18.5845507 12.9875694,18.5494508 C12.9095213,18.51446 12.8419377,18.5192562 12.8375774,18.5602424 C12.8331082,18.6012286 12.8381225,18.6531153 12.848696,18.6755705 C12.8592696,18.6981347 12.8132691,18.7349787 12.7463396,18.7575429 C12.67941,18.7801071 12.5999448,18.758851 12.5696412,18.7103434 C12.5393376,18.6618358 12.4973703,18.6564945 12.4763322,18.6985708 C12.4551851,18.740429 12.4012272,18.7173198 12.3563168,18.64712 C12.3115154,18.5769203 12.2829559,18.496692 12.2930935,18.4688955 C12.303122,18.4410991 12.2777236,18.3481171 12.2365195,18.2622205 C12.1954243,18.176324 12.1390683,18.0945696 12.1112718,18.0806169 C12.0834753,18.0666641 12.0233041,18.1298875 11.9776307,18.2210163 C11.9318482,18.3122542 11.9061229,18.422132 11.9205116,18.4651893 C11.9350094,18.5082466 11.9823179,18.5640576 12.0258112,18.5892379 C12.0691956,18.6143093 12.1017883,18.6879972 12.0980821,18.7528556 C12.0943759,18.8177141 12.0528447,18.8389702 12.0057542,18.8001642 C11.9585547,18.7612491 11.8875919,18.6727364 11.8480228,18.6034087 C11.8083447,18.533972 11.7602731,18.515768 11.7410881,18.5628585 C11.7220121,18.610058 11.6727415,18.6700112 11.6315373,18.6961726 C11.5903331,18.722334 11.4677015,18.7769459 11.3589138,18.8174961 C11.250235,18.8581552 11.1265134,18.8597903 11.0840011,18.8210933 C11.0415979,18.7825052 10.9451277,18.7680074 10.8698047,18.7889366 C10.7943727,18.8098657 10.742922,18.8673117 10.7552396,18.9166914 C10.7676663,18.965962 10.7320214,18.985474 10.6759924,18.9599667 C10.6200725,18.9344593 10.5341759,18.927919 10.4854503,18.9453599 C10.4365067,18.9628008 10.3264108,18.9760995 10.2406233,18.9749005 C10.1548357,18.9738104 10.1146126,18.9532083 10.1511295,18.929118 C10.1876464,18.9051367 10.2193671,18.8563021 10.2217653,18.8206573 C10.2241634,18.7850124 10.1893905,18.7489314 10.1446982,18.740429 C10.1000058,18.7319265 9.9969953,18.6911584 9.91578598,18.6498452 C9.83457666,18.608532 9.74562792,18.5728871 9.71815846,18.570707 C9.690689,18.5684178 9.64403452,18.590219 9.61438494,18.6192145 C9.58484437,18.6481011 9.57296274,18.6310962 9.58789653,18.5813895 C9.60293933,18.5316829 9.58953162,18.5018153 9.55813795,18.515114 C9.52674428,18.5284127 9.48303295,18.5651477 9.46101378,18.5967593 C9.43899461,18.62848 9.41839251,18.6023186 9.41534035,18.5386592 C9.41217918,18.4749999 9.3449226,18.440445 9.26578439,18.4619192 C9.18664618,18.4832843 9.02640766,18.5401853 8.90977145,18.5882569 C8.79313525,18.6363284 8.66276431,18.7155757 8.61992503,18.7643013 C8.57708575,18.8130268 8.52465396,18.8282877 8.50328882,18.7980931 C8.48192369,18.7678984 8.43821236,18.722334 8.40616466,18.6967177 C8.37411695,18.6711013 8.33694597,18.628807 8.32353826,18.6028637 C8.31023955,18.5768113 8.25802578,18.5678728 8.20744708,18.5829156 C8.1569774,18.5979584 8.07653112,18.5845507 8.02856857,18.553157 C8.01134565,18.5419294 7.99248765,18.5329909 7.97373865,18.5255786 C9.24758043,17.7967658 10.7204668,17.3777475 12.2902593,17.3777475 C17.1004672,17.3777475 21.0137755,21.2911647 21.0137755,26.1013726 C21.0137755,30.2101282 18.1573875,33.6622329 14.3264877,34.5820239 M14.2183539,32.931785 L14.2147567,32.9654678 C14.2112685,32.9991506 14.2076713,33.0327244 14.2040741,33.0659712 C14.200586,33.099218 14.1969888,33.1324647 14.1932826,33.1653845 C14.1896854,33.1983042 14.1859792,33.231006 14.182382,33.2635987 L14.0456887,33.5241226 C13.9842094,33.6414128 13.9357019,33.77658 13.937773,33.8246516 C13.9399531,33.8728321 13.9250193,33.9532784 13.9046352,34.0036391 C13.8843601,34.0539998 13.8548196,34.1561382 13.8390137,34.2308072 C13.8232079,34.3053671 13.8180846,34.4140459 13.8276771,34.472473 C13.8371606,34.5309001 13.8130703,34.5913984 13.7740463,34.6070952 C13.7350222,34.622792 13.6973062,34.6623611 13.6902208,34.6951719 C13.6890217,34.7002951 13.6890217,34.7056364 13.6885857,34.7108687 C13.2330505,34.7845566 12.7662876,34.8244528 12.2902593,34.8244528 C7.48048741,34.8244528 3.5673972,30.9112535 3.5673972,26.1013726 C3.5673972,23.683733 4.55640683,21.4931524 6.15050764,19.9115873 C6.16075419,19.9107152 6.17874014,19.9090802 6.23847532,19.9038479 C6.34072276,19.8467288 6.41920694,19.811629 6.4128846,19.8259087 C6.40645326,19.8402975 6.37407854,19.8914212 6.34094077,19.9397108 C6.30769401,19.9881094 6.19138482,20.0890487 6.08237902,20.1641537 L6.0689713,20.1734192 C5.9599655,20.2485242 5.84768953,20.3420512 5.81945703,20.3811843 C5.79122453,20.4203174 5.74609612,20.5342284 5.7192807,20.6345138 C5.69246527,20.7347991 5.6893041,20.8184065 5.71230433,20.8203686 C5.73519554,20.8223308 5.76582617,20.8200416 5.78043295,20.8153544 C5.79493072,20.8105581 5.80463224,20.8322503 5.80190709,20.863753 C5.79929096,20.8951466 5.7832671,20.9508486 5.77127646,20.976901 C5.75928583,21.0029534 5.76299202,21.0234465 5.77956091,21.0222474 L5.84038614,21.0181052 C5.85575596,21.0171241 5.87112578,21.0161431 5.93315008,21.0121098 C5.97511731,21.0013183 5.94928294,21.0824186 5.87581303,21.1925144 L5.84692649,21.2357898 C5.55468194,21.4747305 5.41079428,21.5501625 5.12781523,21.7998948 C5.36097863,21.6375851 5.44131591,21.6844576 5.67938458,21.5294514 L5.77312956,21.447152 C5.87265186,21.3598384 6.0313643,21.2178038 6.12598134,21.1316892 C6.22048937,21.0455746 6.32895014,20.9569529 6.36699316,20.9348247 C6.40514519,20.9128056 6.48461042,20.8596107 6.54369156,20.8167715 C6.6026637,20.7739322 6.6760246,20.7310929 6.70676424,20.7216094 C6.73739487,20.7121259 6.80803063,20.6669975 6.8638416,20.6212151 C6.91943455,20.5754326 6.97186634,20.563115 6.98015078,20.5937456 C6.98854423,20.6243762 7.02800433,20.6639453 7.06779145,20.6818223 C7.10768757,20.6996992 7.18072146,20.7188842 7.23021009,20.7245525 C7.27969872,20.7302209 7.34597425,20.7535481 7.37736792,20.7764393 C7.40887059,20.7992215 7.47830729,20.9169478 7.53182914,21.0380532 L7.5724883,21.1300541 C7.62601015,21.2511596 7.67495375,21.4583796 7.68127609,21.5906036 L7.69228567,21.8197338 C7.69871702,21.9519579 7.79845732,22.0762245 7.91400347,22.0959545 C8.02965862,22.1154666 8.1175173,22.198747 8.10934186,22.2809374 C8.10116643,22.3631277 8.10476362,22.4677733 8.11729929,22.5133377 C8.12972595,22.5590112 8.18106768,22.6413105 8.23131935,22.6963585 C8.28157103,22.7514064 8.32582738,22.8700047 8.32953358,22.9599345 C8.33334878,23.0498643 8.32364727,23.1904818 8.30805944,23.2725631 C8.29247161,23.3545355 8.26205899,23.477712 8.24058485,23.5461677 C8.21921971,23.6146233 8.20603001,23.7268993 8.2114803,23.795682 C8.21693059,23.8645736 8.21943772,23.9397876 8.21693059,23.9628968 L8.20842814,24.0471583 C8.20624802,24.0683055 8.20417691,24.0894526 8.19600148,24.1742591 L8.34021615,24.5200255 C8.39123086,24.642112 8.46742592,24.8047486 8.50972017,24.8812707 C8.55190541,24.9576838 8.64292525,25.0540449 8.71203493,25.0951401 C8.7810356,25.1363443 8.87772375,25.2680233 8.92677636,25.3877117 C8.97593797,25.507509 9.0422135,25.6917288 9.0742612,25.7971374 C9.1061999,25.902437 9.19929086,26.0739032 9.2809362,26.1781127 L9.28802158,26.1870512 C9.36966692,26.2912607 9.51497165,26.446703 9.61111477,26.5322726 C9.70714888,26.6179511 9.76067073,26.6267806 9.7300401,26.5517846 C9.69951847,26.4766796 9.62147032,26.3281047 9.55682988,26.221497 C9.49208043,26.1149984 9.38688984,25.9329587 9.32290343,25.8170855 L9.31134882,25.7960474 C9.24736241,25.6801742 9.18446607,25.5383577 9.17138537,25.4809116 C9.15830468,25.4233566 9.19547565,25.3977402 9.25379376,25.4236836 C9.31222086,25.449736 9.37882341,25.5397747 9.40171463,25.6238182 C9.42460584,25.7078617 9.51518966,25.8576357 9.60315734,25.9567219 L9.62659359,25.9831013 C9.71445227,26.0819696 9.79478954,26.1935915 9.80503609,26.2309805 C9.81528263,26.2683695 9.87828798,26.3383512 9.94510854,26.3865318 C10.0118201,26.4347124 10.1216979,26.5529837 10.1893905,26.6493448 C10.2569741,26.7455969 10.3042826,26.8680104 10.2944721,26.9214233 C10.2846616,26.9747271 10.3282639,27.0704342 10.3913783,27.1342026 C10.4544926,27.197971 10.5572851,27.2629384 10.6198544,27.2786353 C10.6823148,27.2943321 10.8194441,27.3634418 10.9245256,27.4322244 C11.0294982,27.5010071 11.1792722,27.5829795 11.2573204,27.6143731 C11.3354775,27.6457668 11.4415402,27.6543783 11.4930999,27.6335582 C11.5446596,27.612738 11.6252149,27.6085958 11.6718694,27.6245107 C11.7187419,27.6403165 11.8167381,27.7046299 11.889772,27.7674173 C11.9629149,27.8300956 12.1280587,27.8984422 12.2569035,27.9190443 C12.3856394,27.9397554 12.5417357,28.0370976 12.603651,28.1350938 C12.6656753,28.2333081 12.7746811,28.3428589 12.8459709,28.3786128 C12.9172607,28.4143667 13.0698688,28.4971021 13.1848699,28.5625056 L13.1874861,28.5640317 C13.3025962,28.6293261 13.4054977,28.6579947 13.4160712,28.627691 C13.4266448,28.5973874 13.468394,28.5389603 13.5088352,28.4979741 C13.5492763,28.456988 13.6228552,28.4650544 13.6724529,28.5159601 C13.7221595,28.5668658 13.7622736,28.6389186 13.7617286,28.6761986 L13.7611836,28.7098814 C13.7607476,28.7436732 13.7602025,28.777356 13.7596575,28.8110388 C13.7591125,28.8446126 13.7586764,28.8781864 13.7580224,28.9116512 C13.7574774,28.9452249 13.7569324,28.9785807 13.7563873,29.0119365 L13.6821544,29.1869998 C13.6304856,29.3088683 13.5555986,29.4288837 13.5157025,29.453628 C13.4756974,29.4783723 13.4221755,29.56634 13.3965592,29.6492934 C13.3709428,29.7321378 13.3500137,29.8065888 13.3499047,29.8146552 L13.3490326,29.8877981 C13.4076778,29.8968456 13.4353652,29.9357606 13.4105119,29.9743487 C13.3855496,30.0129367 13.3490326,30.0795393 13.3291936,30.1222696 C13.3093545,30.1651088 13.3393311,30.2538396 13.3956871,30.3194611 C13.4520431,30.3850825 13.5209348,30.4729412 13.5487313,30.5145814 C13.5765278,30.5562217 13.6276515,30.6727489 13.6624243,30.7734702 C13.6971972,30.8741916 13.7471218,30.9895197 13.7732832,31.0299609 C13.7994446,31.070293 13.8308383,31.1360235 13.8430469,31.1760286 C13.8552556,31.2161428 13.9440953,31.295172 14.0405654,31.351746 C14.1370356,31.40832 14.2644634,31.4895293 14.3236535,31.5321506 C14.3829527,31.5747718 14.4377826,31.7036167 14.445522,31.8183998 C14.4533704,31.9332919 14.444977,32.0712933 14.426991,32.1253601 C14.409005,32.179318 14.3852418,32.2802574 14.3742322,32.3495851 C14.3631136,32.4188038 14.3251796,32.5629094 14.2897527,32.6697351 C14.2542168,32.7765608 14.2221691,32.8945051 14.2183539,32.931785 M12.2700932,14.8824957 C9.21258956,14.887619 6.34006873,16.0831946 4.18153588,18.2491398 C2.02300303,20.4151941 0.837128938,23.2921842 0.842127368,26.3501239 C0.846503436,28.9686612 2.62307996,32.6479339 6.12249315,37.2856947 C8.68118629,40.6764291 11.3131313,43.4096405 11.3387477,43.4360199 C11.5982905,43.7042832 11.945365,43.8519861 12.3160937,43.8519861 L12.3162027,43.8519861 C12.6884575,43.8519861 13.036513,43.7031932 13.2963828,43.4329678 C13.3223262,43.4060433 15.9252757,40.6919079 18.4938884,37.2652016 C21.9790218,32.6158862 23.7437167,28.9305092 23.7390388,26.3117538 C23.7285649,20.0095835 18.5837092,14.8824957 12.2700932,14.8824957" id="Fill-22" fill="#0070D2"></path>
        <path d="M159.711643,27.967214 C159.421688,28.2603306 159.069381,28.4069434 158.654941,28.4069434 C158.240392,28.4069434 157.888085,28.2603306 157.59813,27.967214 C157.3097,27.6740974 157.165595,27.3195015 157.165595,26.9034264 C157.165595,26.4905124 157.310572,26.1382057 157.600528,25.8466152 C157.892118,25.5534986 158.243553,25.4069948 158.654941,25.4069948 C159.067855,25.4069948 159.420053,25.5534986 159.711643,25.8466152 C160.001599,26.1382057 160.146576,26.4905124 160.146576,26.9034264 C160.146576,27.3195015 160.001599,27.6740974 159.711643,27.967214 M159.884199,25.6764571 C159.5453,25.3391932 159.135548,25.1705612 158.654941,25.1705612 C158.177387,25.1705612 157.769923,25.3391932 157.432659,25.6764571 C157.093869,26.0153562 156.924365,26.4234739 156.924365,26.9010283 C156.924365,27.3832699 157.092234,27.7938948 157.427972,28.1326848 C157.765236,28.4731099 158.174225,28.643377 158.654941,28.643377 C159.135548,28.643377 159.5453,28.4731099 159.884199,28.1326848 C160.223098,27.7922597 160.392493,27.3817439 160.392493,26.9010283 C160.392493,26.4219478 160.223098,26.0137211 159.884199,25.6764571" id="Fill-23" fill="#0070D2"></path>
        <path d="M158.914397,26.8206365 C158.843216,26.848978 158.736499,26.8632578 158.594356,26.8632578 L158.290883,26.8632578 L158.290883,26.172924 L158.577678,26.172924 C158.764187,26.172924 158.899681,26.1964693 158.984269,26.2437778 C159.068858,26.2910863 159.111152,26.3840683 159.111152,26.5228327 C159.111152,26.6693364 159.045531,26.7686407 158.914397,26.8206365 M159.411354,27.7262567 C159.408193,27.675896 159.406667,27.6286965 159.406667,27.5845491 L159.406667,27.4451307 C159.406667,27.3492056 159.372112,27.2507734 159.303111,27.150052 C159.234111,27.0493307 159.125105,26.9870884 158.976094,26.9635431 C159.09382,26.9445761 159.185603,26.9137275 159.251552,26.8712152 C159.375382,26.7907689 159.437406,26.6653032 159.437406,26.4950362 C159.437406,26.2552234 159.338865,26.0942218 159.141892,26.0122495 C159.031578,25.9664671 158.858259,25.9435758 158.621825,25.9435758 L157.955146,25.9435758 L157.955146,27.8489972 L158.290883,27.8489972 L158.290883,27.0995823 L158.55555,27.0995823 C158.733665,27.0995823 158.858259,27.1200754 158.929112,27.1609526 C159.04891,27.2315884 159.108754,27.3770021 159.108754,27.5968668 L159.108754,27.7477308 L159.115839,27.8088831 C159.117474,27.8168405 159.119001,27.8239259 159.120636,27.8302482 C159.122162,27.8364615 159.123797,27.8426749 159.125323,27.8489972 L159.439805,27.8489972 L159.427923,27.825452 C159.420075,27.8096461 159.414515,27.7766174 159.411354,27.7262567" id="Fill-24" fill="#0070D2"></path>
        <polygon id="Fill-1" fill="#0070D2" points="40.8549784 24.9477861 37.4047269 36.4708982 33.8834035 24.9477861 30.7751031 24.9477861 28.4501184 39.4804393 30.9212799 39.4804393 32.6831406 28.2262445 36.1330652 39.4804393 38.5801364 39.4804393 42.030497 28.2262445 43.7913767 39.4804393 46.2857564 39.4804393 43.9869331 24.9477861"></polygon>
        <path d="M262.424651,8.41631746 C265.558317,5.15204762 269.920032,3.12715873 274.744524,3.12715873 C281.156492,3.12715873 286.751381,6.70255556 289.729079,12.010873 C292.320095,10.8546032 295.186079,10.2104921 298.200746,10.2104921 C309.766952,10.2104921 319.142857,19.6686984 319.142857,31.3371746 C319.142857,43.0045714 309.766952,52.4627778 298.200746,52.4627778 C296.788127,52.4627778 295.409508,52.321381 294.075143,52.0515397 C291.451476,56.7305873 286.451048,59.8928571 280.713683,59.8928571 C278.311556,59.8928571 276.038952,59.3383333 274.016222,58.3517937 C271.356667,64.6077937 265.158683,68.9946032 257.93746,68.9946032 C250.416714,68.9946032 244.005825,64.2367619 241.546762,57.5622381 C240.471444,57.7889048 239.35619,57.9089841 238.213683,57.9089841 C229.25927,57.9089841 222,50.5749683 222,41.5269206 C222,35.4627778 225.261302,30.1682222 230.107921,27.3359683 C229.109778,25.0390794 228.555254,22.5060794 228.555254,19.8424762 C228.555254,9.43577778 237.002635,1 247.423095,1 C253.540937,1 258.977698,3.90807937 262.424651,8.41631746" id="Fill-1" fill="#00A1E0"></path>
        <path d="M236.069794,36.2606984 C236.00854,36.4199048 236.091921,36.4536349 236.111889,36.4808889 C236.294302,36.6136508 236.479683,36.7086349 236.666413,36.8160317 C237.657,37.3411429 238.593079,37.493873 239.571254,37.493873 C241.563492,37.493873 242.802063,36.4344762 242.802063,34.7290794 L242.802063,34.6953492 C242.802063,33.1173175 241.404286,32.5439048 240.095286,32.1307778 L239.923397,32.0749206 C238.935778,31.754619 238.083079,31.4783016 238.083079,30.8269048 L238.083079,30.7931746 C238.083079,30.2367619 238.582556,29.8266032 239.354032,29.8266032 C240.212127,29.8266032 241.229429,30.1123651 241.885952,30.4747619 C241.885952,30.4747619 242.078889,30.5991587 242.149587,30.4126984 C242.187365,30.3125873 242.51954,29.4186032 242.554349,29.3228095 C242.592127,29.2173016 242.525746,29.1393175 242.458286,29.0983016 C241.708937,28.642 240.673825,28.330873 239.602825,28.330873 L239.403683,28.3319524 C237.580095,28.3319524 236.306984,29.4345238 236.306984,31.0136349 L236.306984,31.0473651 C236.306984,32.7106667 237.710968,33.2514286 239.027524,33.6275873 L239.239349,33.6918095 C240.197556,33.9859365 241.024889,34.240127 241.024889,34.9147302 L241.024889,34.9484603 C241.024889,35.566127 240.487365,36.0245873 239.620905,36.0245873 C239.284683,36.0245873 238.212603,36.0181111 237.054175,35.2857619 C236.914127,35.2045397 236.832905,35.1454444 236.725238,35.0801429 C236.668302,35.044254 236.526095,34.9821905 236.464032,35.1697302 L236.069794,36.2606984 Z" id="Fill-4" fill="#FFFFFF"></path>
        <path d="M265.242063,36.2606984 C265.18081,36.4199048 265.26419,36.4536349 265.283079,36.4808889 C265.465492,36.6136508 265.651143,36.7086349 265.838683,36.8160317 C266.82846,37.3411429 267.76454,37.493873 268.742714,37.493873 C270.735762,37.493873 271.973254,36.4344762 271.973254,34.7290794 L271.973254,34.6953492 C271.973254,33.1173175 270.576825,32.5439048 269.266476,32.1307778 L269.095667,32.0749206 C268.108048,31.754619 267.255349,31.4783016 267.255349,30.8269048 L267.255349,30.7931746 C267.255349,30.2367619 267.754016,29.8266032 268.525492,29.8266032 C269.384667,29.8266032 270.401698,30.1123651 271.057413,30.4747619 C271.057413,30.4747619 271.251429,30.5991587 271.321857,30.4126984 C271.358825,30.3125873 271.69181,29.4186032 271.726619,29.3228095 C271.763587,29.2173016 271.698286,29.1393175 271.629746,29.0983016 C270.880397,28.642 269.846095,28.330873 268.775365,28.330873 L268.575952,28.3319524 C266.752635,28.3319524 265.478175,29.4345238 265.478175,31.0136349 L265.478175,31.0473651 C265.478175,32.7106667 266.883238,33.2514286 268.199794,33.6275873 L268.41054,33.6918095 C269.368746,33.9859365 270.197159,34.240127 270.197159,34.9147302 L270.197159,34.9484603 C270.197159,35.566127 269.658556,36.0245873 268.792095,36.0245873 C268.455873,36.0245873 267.384873,36.0181111 266.225635,35.2857619 C266.085317,35.2045397 266.003016,35.1486825 265.897778,35.0801429 C265.86081,35.0569365 265.693238,34.9916349 265.635222,35.1697302 L265.242063,36.2606984 Z" id="Fill-5" fill="#FFFFFF"></path>
        <path d="M285.156619,32.9181746 C285.156619,33.8815079 284.977444,34.6427302 284.623143,35.1791746 C284.272079,35.7115714 283.742111,35.9698095 283.003016,35.9698095 C282.26419,35.9698095 281.736111,35.7115714 281.391524,35.1791746 C281.042619,34.6438095 280.865333,33.8815079 280.865333,32.9181746 C280.865333,31.9548413 281.042619,31.1968571 281.391524,30.6658095 C281.736111,30.1385397 282.26419,29.8835397 283.003016,29.8835397 C283.742111,29.8835397 284.272079,30.139619 284.623143,30.6658095 C284.977444,31.1968571 285.156619,31.9548413 285.156619,32.9181746 M286.821,31.1304762 C286.656397,30.5781111 286.402476,30.0913175 286.064095,29.6854762 C285.724635,29.2785556 285.294508,28.9517778 284.786667,28.7145873 C284.278556,28.4773968 283.677619,28.3573175 283.003016,28.3573175 C282.328413,28.3573175 281.727746,28.4773968 281.219635,28.7145873 C280.711524,28.9517778 280.281397,29.2785556 279.942206,29.6865556 C279.603825,30.0932063 279.348556,30.5791905 279.185302,31.1304762 C279.022857,31.6796032 278.940825,32.2805397 278.940825,32.9181746 C278.940825,33.5558095 279.022857,34.1578254 279.185302,34.705873 C279.348556,35.2571587 279.602746,35.7431429 279.942206,36.1511429 C280.282476,36.5577937 280.712603,36.8826825 281.220714,37.1144762 C281.728825,37.3451905 282.328413,37.463381 283.003016,37.463381 C283.677619,37.463381 284.276397,37.3451905 284.785587,37.1144762 C285.293698,36.8826825 285.723556,36.5577937 286.064095,36.1511429 C286.402476,35.7453016 286.656397,35.2582381 286.821,34.705873 C286.983175,34.156746 287.065476,33.555 287.065476,32.9181746 C287.065476,32.281619 286.983175,31.6796032 286.821,31.1304762" id="Fill-6" fill="#FFFFFF"></path>
        <path d="M300.479556,35.7126508 C300.424778,35.5502063 300.26773,35.6114603 300.26773,35.6114603 C300.025143,35.7040159 299.767984,35.7895556 299.494095,35.8316508 C299.216698,35.8759048 298.910159,35.8969524 298.582302,35.8969524 C297.777905,35.8969524 297.137032,35.657873 296.679651,35.1856508 C296.22119,34.7112698 295.961873,33.946 295.964841,32.9108889 C295.968079,31.9696825 296.195825,31.2613492 296.603825,30.7205873 C297.008587,30.183873 297.626254,29.9089048 298.44846,29.9089048 C299.135476,29.9089048 299.658429,29.9879683 300.207556,30.1595873 C300.207556,30.1595873 300.337349,30.2165238 300.400492,30.0449048 C300.545937,29.6412222 300.653333,29.3522222 300.809571,28.9086032 C300.853825,28.7820476 300.745079,28.7283492 300.706222,28.7124286 C300.490079,28.6293175 299.980889,28.4911587 299.596095,28.4320635 C299.236667,28.3783651 298.816254,28.3489524 298.348349,28.3489524 C297.64946,28.3489524 297.026397,28.4679524 296.494,28.7051429 C295.962952,28.9423333 295.511778,29.2691111 295.154508,29.6760317 C294.798048,30.0826825 294.525238,30.5686667 294.345794,31.1210317 C294.16581,31.6701587 294.074063,32.273254 294.074063,32.9108889 C294.074063,34.2916667 294.446175,35.4058413 295.180683,36.2226508 C295.917619,37.041619 297.022079,37.4579841 298.46519,37.4579841 C299.31681,37.4579841 300.190825,37.2852857 300.820095,37.0375714 C300.820095,37.0375714 300.940175,36.9795556 300.888635,36.8403175 L300.479556,35.7126508 Z" id="Fill-7" fill="#FFFFFF"></path>
        <path d="M303.389794,31.9947778 C303.468857,31.4583333 303.61646,31.0136349 303.844206,30.6658095 C304.189873,30.139619 304.714714,29.8487302 305.454619,29.8487302 C306.193714,29.8487302 306.681587,30.139619 307.032651,30.6658095 C307.264444,31.0136349 307.365635,31.4772222 307.405841,31.9947778 L303.389794,31.9947778 Z M308.989,30.8174603 C308.847873,30.2839841 308.498968,29.745381 308.269063,29.498746 C307.906397,29.1088254 307.552365,28.835746 307.200222,28.6851746 C306.740683,28.4879206 306.190476,28.3573175 305.587651,28.3573175 C304.884444,28.3573175 304.24681,28.4763175 303.728175,28.7189048 C303.20954,28.9623016 302.774286,29.2942063 302.431587,29.7076032 C302.090238,30.1207302 301.833079,30.6129206 301.669556,31.1696032 C301.505222,31.7238571 301.422921,32.3291111 301.422921,32.966746 C301.422921,33.6159841 301.50819,34.2209683 301.677921,34.7649683 C301.84873,35.3130159 302.123968,35.7946825 302.493921,36.1953968 C302.863873,36.598 303.340413,36.9131746 303.909508,37.1333651 C304.476444,37.352746 305.16373,37.466619 305.953286,37.4644904 C307.579619,37.4590635 308.435556,37.0955873 308.789857,36.9004921 C308.851921,36.8667619 308.911016,36.8055079 308.837349,36.6317302 L308.468206,35.6009365 C308.412349,35.4468571 308.256381,35.5027143 308.256381,35.5027143 C307.853778,35.6535556 307.281444,35.9223175 305.944921,35.9190794 C305.071984,35.918 304.424905,35.6597619 304.019063,35.2571587 C303.602698,34.8451111 303.399238,34.2390476 303.364429,33.3841905 L308.993317,33.3882381 C308.993317,33.3882381 309.142,33.3871587 309.157651,33.2417143 C309.163048,33.1818095 309.350587,32.0854444 308.989,30.8174603 L308.989,30.8174603 Z" id="Fill-8" fill="#FFFFFF"></path>
        <path d="M258.29581,31.9947778 C258.375952,31.4583333 258.522476,31.0136349 258.751032,30.6658095 C259.095889,30.139619 259.62181,29.8487302 260.360635,29.8487302 C261.10054,29.8487302 261.587603,30.139619 261.938667,30.6658095 C262.17046,31.0136349 262.271651,31.4772222 262.311857,31.9947778 L258.29581,31.9947778 Z M263.895016,30.8174603 C263.754698,30.2839841 263.404714,29.745381 263.175079,29.498746 C262.813492,29.1088254 262.45946,28.835746 262.106238,28.6851746 C261.646698,28.4879206 261.096492,28.3573175 260.493397,28.3573175 C259.79154,28.3573175 259.152825,28.4763175 258.63527,28.7189048 C258.116635,28.9623016 257.680302,29.2942063 257.338683,29.7076032 C256.995984,30.1207302 256.739905,30.6129206 256.575571,31.1696032 C256.412048,31.7238571 256.328937,32.3291111 256.328937,32.966746 C256.328937,33.6159841 256.414206,34.2209683 256.583937,34.7649683 C256.755825,35.3130159 257.029714,35.7946825 257.399937,36.1953968 C257.770698,36.598 258.246159,36.9131746 258.816603,37.1333651 C259.38246,37.352746 260.070825,37.466619 260.859302,37.4644904 C262.486714,37.4590635 263.342651,37.0955873 263.695873,36.9004921 C263.757937,36.8667619 263.817032,36.8055079 263.743095,36.6317302 L263.375302,35.6009365 C263.318365,35.4468571 263.163476,35.5027143 263.163476,35.5027143 C262.759794,35.6535556 262.18854,35.9223175 260.850937,35.9190794 C259.979079,35.918 259.332,35.6597619 258.925079,35.2571587 C258.509794,34.8451111 258.305254,34.2390476 258.270444,33.3841905 L263.900143,33.3882381 C263.900143,33.3882381 264.047746,33.3871587 264.063667,33.2417143 C264.069873,33.1818095 264.257683,32.0854444 263.895016,30.8174603 L263.895016,30.8174603 Z" id="Fill-9" fill="#FFFFFF"></path>
        <path d="M246.125429,35.6808095 C245.905238,35.504873 245.874746,35.4616984 245.80081,35.3478254 C245.689095,35.1748571 245.632159,34.9282222 245.632159,34.6152063 C245.632159,34.1208571 245.796762,33.7646667 246.134873,33.5253175 C246.130825,33.5263968 246.619778,33.1038254 247.767683,33.1183968 C248.573968,33.1289206 249.296063,33.2481905 249.296063,33.2481905 L249.296063,35.8084444 C249.296063,35.8084444 248.581524,35.9611746 247.776048,36.009746 C246.630302,36.0793651 246.12246,35.68 246.125429,35.6808095 M248.36646,31.7238571 C248.137635,31.7082063 247.841619,31.6987619 247.487317,31.6987619 C247.004571,31.6987619 246.538825,31.7586667 246.100063,31.8768571 C245.660762,31.9958571 245.265444,32.1793492 244.924905,32.422746 C244.582476,32.6683016 244.307238,32.9794286 244.108095,33.3504603 C243.908683,33.7225714 243.806413,34.1589048 243.806413,34.6489365 C243.806413,35.1476032 243.894111,35.5806984 244.064921,35.9339206 C244.23654,36.2890317 244.484254,36.5863968 244.799429,36.8152222 C245.112444,37.0426984 245.498317,37.2102698 245.946254,37.3114603 C246.387984,37.4126508 246.889619,37.4644603 247.436857,37.4644603 C248.014317,37.4644603 248.589889,37.4158889 249.147381,37.3211746 C249.699746,37.2272698 250.377587,37.0901905 250.565127,37.0459365 C250.752937,37.0027619 250.960444,36.9458254 250.960444,36.9458254 C251.099683,36.9110159 251.088079,36.7623333 251.088079,36.7623333 L251.085921,31.6132222 C251.085921,30.4833968 250.784508,29.6474286 250.191127,29.1266349 C249.599635,28.6101587 248.730206,28.3489524 247.605508,28.3489524 C247.181587,28.3489524 246.502937,28.405619 246.096016,28.4879206 C246.096016,28.4879206 244.866889,28.7261905 244.359857,29.1225873 C244.359857,29.1225873 244.249222,29.191127 244.309397,29.3470952 L244.708762,30.4170159 C244.758413,30.5559841 244.893333,30.5084921 244.893333,30.5084921 C244.893333,30.5084921 244.935429,30.4917619 244.986159,30.4623492 C246.068492,29.8740952 247.438746,29.8908254 247.438746,29.8908254 C248.046968,29.8908254 248.516222,30.0141429 248.830317,30.2545714 C249.137937,30.4906825 249.293905,30.8457937 249.293905,31.5964921 L249.293905,31.8347619 C248.810079,31.7651429 248.36646,31.7238571 248.36646,31.7238571" id="Fill-10" fill="#FFFFFF"></path>
        <path d="M293.779937,28.8241429 C293.823111,28.6967778 293.732444,28.6355238 293.695476,28.6206825 C293.599683,28.5839841 293.119905,28.4827937 292.751032,28.4606667 C292.043778,28.4172222 291.651698,28.5354127 291.299556,28.694619 C290.950651,28.8516667 290.563968,29.1055873 290.347825,29.3953968 L290.347825,28.7094603 C290.347825,28.6155556 290.280365,28.5386508 290.18646,28.5386508 L288.74254,28.5386508 C288.648635,28.5386508 288.581175,28.6155556 288.581175,28.7094603 L288.581175,37.1090794 C288.581175,37.2029841 288.657,37.2798889 288.751984,37.2798889 L290.231794,37.2798889 C290.325698,37.2798889 290.401524,37.2029841 290.401524,37.1090794 L290.401524,32.9130476 C290.401524,32.3490794 290.464937,31.7883492 290.588254,31.435127 C290.710492,31.0851429 290.875905,30.8069365 291.081524,30.6067143 C291.287143,30.4073016 291.521095,30.267254 291.777175,30.1881905 C292.038651,30.1080476 292.32846,30.0826825 292.533,30.0826825 C292.827127,30.0826825 293.150667,30.1576984 293.150667,30.1576984 C293.260222,30.170381 293.320397,30.1037302 293.356286,30.0057778 C293.453159,29.748619 293.727048,28.9771429 293.779937,28.8241429" id="Fill-11" fill="#FFFFFF"></path>
        <path d="M279.894714,24.9316825 C279.71446,24.8755556 279.550937,24.8388571 279.336952,24.7986508 C279.121079,24.7597937 278.863651,24.7398254 278.572762,24.7398254 C277.554651,24.7398254 276.751333,25.0274762 276.187365,25.5954921 C275.627714,26.1605397 275.247238,27.0197143 275.05646,28.1495397 L274.986841,28.5300159 L273.709413,28.5300159 C273.709413,28.5300159 273.553444,28.5248889 273.520794,28.694619 L273.310857,29.8657302 C273.296286,29.9774444 273.343508,30.0470635 273.494349,30.0470635 L274.738048,30.0470635 L273.47546,37.0934286 C273.377238,37.6614444 273.264444,38.1274603 273.139238,38.4814921 C273.014841,38.8303968 272.894492,39.091873 272.746079,39.2826508 C272.602524,39.4661429 272.465714,39.6010635 272.230413,39.680127 C272.036667,39.7454286 271.813238,39.7759206 271.568492,39.7759206 C271.431683,39.7759206 271.250349,39.7527143 271.117317,39.7265397 C270.983476,39.6990159 270.913048,39.6696032 270.812937,39.6272381 C270.812937,39.6272381 270.667222,39.571381 270.609476,39.7179048 C270.563063,39.8371746 270.230889,40.7500476 270.192032,40.8617619 C270.151825,40.9734762 270.207683,41.0619841 270.278381,41.0862698 C270.443794,41.1461746 270.567111,41.1842222 270.792698,41.2379206 C271.105714,41.3107778 271.370429,41.3159048 271.618143,41.3159048 C272.135698,41.3159048 272.607921,41.2422381 273,41.1019206 C273.394238,40.9586349 273.736667,40.7109206 274.040238,40.3757778 C274.368095,40.0131111 274.574794,39.6337143 274.771778,39.1161587 C274.966873,38.6029206 275.133365,37.9660952 275.267206,37.2240317 L276.53546,30.0470635 L278.38954,30.0470635 C278.38954,30.0470635 278.545508,30.0521905 278.578159,29.8824603 L278.787825,28.7124286 C278.802667,28.5996349 278.755175,28.5300159 278.604603,28.5300159 L276.804222,28.5300159 C276.813667,28.4900794 276.895968,27.8575714 277.102397,27.2609524 C277.189825,27.0059524 277.355508,26.8014127 277.496635,26.6602857 C277.634794,26.522127 277.794,26.4230952 277.967778,26.3661587 C278.146952,26.3092222 278.350413,26.2798095 278.572762,26.2798095 C278.741413,26.2798095 278.908984,26.2997778 279.03446,26.3259524 C279.209587,26.364 279.278127,26.3828889 279.32346,26.3966508 C279.506683,26.4525079 279.530968,26.3988095 279.566857,26.3103016 L279.998063,25.1275873 C280.042317,25.0010317 279.933571,24.946254 279.894714,24.9316825" id="Fill-12" fill="#FFFFFF"></path>
        <path d="M254.740381,37.1090794 C254.740381,37.2029841 254.672921,37.2798889 254.579016,37.2798889 L253.085444,37.2798889 C252.99181,37.2798889 252.924349,37.2029841 252.924349,37.1090794 L252.924349,25.0916984 C252.924349,24.9980635 252.99181,24.9208889 253.085444,24.9208889 L254.579016,24.9208889 C254.672921,24.9208889 254.740381,24.9980635 254.740381,25.0916984 L254.740381,37.1090794 Z" id="Fill-13" fill="#FFFFFF"></path>
        <path d="M327.027349,27.6751587 C327.027349,26.7687619 326.970413,25.8453651 326.857619,24.9063175 L328.824492,24.9063175 C328.904635,25.3437302 328.961571,25.9265873 328.994222,26.6548889 L329.042794,26.6548889 C329.431635,26.0404603 329.977524,25.537746 330.682889,25.1497143 C331.386905,24.760873 332.200746,24.5668571 333.123063,24.5668571 C334.174905,24.5668571 335.033,24.7892063 335.697079,25.2341746 C336.361159,25.6799524 336.846873,26.2914127 337.154762,27.0680159 L337.203333,27.0680159 C337.623746,26.2914127 338.198238,25.6799524 338.927619,25.2341746 C339.65619,24.7892063 340.529937,24.5668571 341.550206,24.5668571 C342.570476,24.5668571 343.420206,24.7892063 344.099937,25.2341746 C344.779937,25.6799524 345.281571,26.2628095 345.60619,26.982746 C345.93,27.7037619 346.091095,28.4933175 346.091095,29.3511429 L346.091095,37.2682857 L344.027349,37.2682857 L344.027349,29.6423016 C344.027349,28.6870635 343.796365,27.8861746 343.334667,27.237746 C342.874048,26.5906667 342.133063,26.267127 341.112794,26.267127 C340.367492,26.267127 339.728778,26.460873 339.194492,26.8489048 C338.659937,27.237746 338.255175,27.756381 337.980206,28.4037302 C337.704968,29.0518889 337.56681,29.7475397 337.56681,30.4917619 L337.56681,37.2682857 L335.503063,37.2682857 L335.503063,29.5937302 C335.503063,28.6544127 335.268032,27.8659365 334.799048,27.2261429 C334.328714,26.5863492 333.592048,26.267127 332.588508,26.267127 C331.519667,26.267127 330.670206,26.6432857 330.038778,27.395873 C329.407349,28.1484603 329.091095,29.0761746 329.091095,30.1765873 L329.091095,37.2682857 L327.027349,37.2682857 L327.027349,27.6751587 Z" id="Fill-14" fill="#032E61"></path>
        <path d="M356.388238,32.7020317 L356.388238,31.0989048 L355.295381,31.074619 C354.081095,31.074619 353.113444,31.1569206 352.393508,31.3180159 C351.672492,31.4804603 351.137937,31.7556984 350.790111,32.1434603 C350.442286,32.5323016 350.268508,33.0752222 350.268508,33.770873 C350.268508,34.4835238 350.478175,35.0294127 350.899937,35.4101587 C351.320349,35.7906349 351.903206,35.9814127 352.648508,35.9814127 C353.425381,35.9814127 354.096746,35.8149206 354.663952,35.482746 C355.230889,35.1516508 355.659937,34.7344762 355.950825,34.2325714 C356.242794,33.7309365 356.388238,33.2206667 356.388238,32.7020317 M348.130825,33.8923016 C348.130825,32.2889048 348.709365,31.1768889 349.867794,30.5530159 C351.025143,29.9299524 352.769667,29.6180159 355.101365,29.6180159 C355.668302,29.6180159 356.097349,29.626381 356.388238,29.6423016 L356.388238,28.9380159 C356.388238,28.014619 356.137556,27.3273333 355.635651,26.8742698 C355.134016,26.4209365 354.364429,26.1931905 353.328508,26.1931905 C352.017079,26.1931905 350.778508,26.5420952 349.612794,27.237746 L348.884492,25.8537302 C350.276873,24.9959048 351.799048,24.5668571 353.449667,24.5668571 C355.182587,24.5668571 356.449492,24.971619 357.250651,25.7811429 C358.05154,26.5906667 358.452254,27.820873 358.452254,29.4725714 L358.452254,34.5234603 C358.452254,35.4142063 358.50919,36.3292381 358.623063,37.2682857 L356.728778,37.2682857 C356.614905,36.5559048 356.557968,35.9970635 356.557968,35.5923016 L356.485381,35.5923016 C356.032048,36.256381 355.460794,36.7582857 354.773508,37.0985556 C354.085143,37.4380159 353.198714,37.607746 352.114222,37.607746 C350.915587,37.607746 349.952254,37.288254 349.223952,36.6484603 C348.495381,36.009746 348.130825,35.0906667 348.130825,33.8923016" id="Fill-15" fill="#032E61"></path>
        <path d="M371.159079,31.074619 C371.159079,29.5853651 370.831222,28.4037302 370.174429,27.5297143 C369.519794,26.6548889 368.609079,26.2174762 367.443365,26.2174762 C366.682413,26.2174762 366.001333,26.3966508 365.402825,26.7520317 C364.804048,27.1082222 364.342349,27.5942063 364.01881,28.2097143 C363.695,28.8252222 363.532825,29.4965873 363.532825,30.2251587 L363.532825,34.3297143 C364.099762,34.8966508 364.662651,35.3097778 365.221492,35.5680159 C365.778984,35.8273333 366.423095,35.9560476 367.151397,35.9560476 C368.446905,35.9560476 369.438841,35.5070317 370.126937,34.609 C370.814222,33.7098889 371.159079,32.5323016 371.159079,31.074619 M373.295683,31.074619 C373.295683,32.3059048 373.069016,33.4146825 372.615683,34.4023016 C372.162349,35.3899206 371.502587,36.1711111 370.636127,36.7456032 C369.769667,37.3211746 368.754524,37.607746 367.58881,37.607746 C366.018333,37.607746 364.665889,37.0985556 363.532825,36.0782857 L363.532825,43.1942698 L361.46881,43.1942698 L361.46881,27.6751587 C361.46881,26.7687619 361.412143,25.8453651 361.299349,24.9063175 L363.266222,24.9063175 C363.347175,25.4406032 363.403032,26.0720317 363.435952,26.8003333 L363.484254,26.8003333 C363.889016,26.1206032 364.456222,25.5787619 365.184524,25.174 C365.912825,24.7692381 366.803571,24.5668571 367.855413,24.5668571 C369.037048,24.5668571 370.033302,24.8545079 370.842825,25.429 C371.652349,26.0034921 372.26354,26.7803651 372.676937,27.759619 C373.090063,28.7399524 373.295683,29.8446825 373.295683,31.074619" id="Fill-16" fill="#032E61"></path>
        <path d="M383.337556,25.8780159 L382.415238,27.1651587 C381.45946,26.5021587 380.42327,26.1689048 379.306937,26.1689048 C378.528984,26.1689048 377.921841,26.319746 377.485508,26.619 C377.048095,26.9185238 376.828714,27.343254 376.828714,27.8934603 C376.828714,28.2982222 376.918302,28.6303968 377.096667,28.8894444 C377.274762,29.1487619 377.574016,29.3670635 377.994698,29.5451587 C378.41619,29.723254 379.030889,29.9099841 379.840413,30.1037302 C381.104079,30.411619 382.039079,30.8606349 382.646222,31.452127 C383.253365,32.0422698 383.556937,32.8159048 383.556937,33.770873 C383.556937,34.9851587 383.102524,35.9285238 382.196127,36.6001587 C381.28973,37.2715238 380.172317,37.607746 378.845238,37.607746 C377.063746,37.607746 375.574492,37.1312063 374.376127,36.1751587 L375.32354,34.8882857 C375.873746,35.2603968 376.416667,35.5353651 376.950952,35.7137302 C377.485508,35.8929048 378.092651,35.9814127 378.772381,35.9814127 C379.597825,35.9814127 380.249222,35.8033175 380.726841,35.4468571 C381.20419,35.0906667 381.44354,34.5803968 381.44354,33.9163175 C381.44354,33.4789048 381.353952,33.1270317 381.176937,32.8601587 C380.997762,32.5924762 380.702556,32.3712063 380.290238,32.1920317 C379.877111,32.0139365 379.257286,31.8199206 378.432111,31.6091746 C377.153333,31.2853651 376.221571,30.8490317 375.639794,30.297746 C375.056937,29.7475397 374.764968,28.9865873 374.764968,28.014619 C374.764968,26.9627778 375.174048,26.1246508 375.990857,25.5018571 C376.808746,24.8787937 377.88919,24.5668571 379.23327,24.5668571 C380.820476,24.5668571 382.187762,25.0031905 383.337556,25.8780159" id="Fill-17" fill="#032E61"></path>
    </g>
</svg>