<?xml version="1.0" encoding="utf-8"?>
<!-- Generator: Adobe Illustrator 19.2.0, SVG Export Plug-In . SVG Version: 6.00 Build 0)  -->
<svg version="1.1" id="Layer_1" xmlns="http://www.w3.org/2000/svg" xmlns:xlink="http://www.w3.org/1999/xlink" x="0px" y="0px"
	 viewBox="0 0 19 19" style="enable-background:new 0 0 19 19;" xml:space="preserve" width="19" height="19">
<style type="text/css">
	.st0{fill:#72889E;}
</style>
<g>
	<ellipse class="st0" cx="9.5" cy="4.6" rx="6.5" ry="2.2"/>
	<path class="st0" d="M9.5,8.2C5.9,8.2,3,7.1,3,6.2v1.6c0,1.2,2.9,2.2,6.5,2.2s6.5-1,6.5-2.2V6.2C16,7.2,13.1,8.2,9.5,8.2z"/>
	<path class="st0" d="M9.5,11.5c-3.6,0-6.5-1.1-6.5-2v1.6c0,1.2,2.9,2.2,6.5,2.2s6.5-1,6.5-2.2V9.5C16,10.4,13.1,11.5,9.5,11.5z"/>
	<path class="st0" d="M9.5,14.8c-3.6,0-6.5-1.1-6.5-2v1.6c0,1.2,2.9,2.2,6.5,2.2s6.5-1,6.5-2.2v-1.6C16,13.7,13.1,14.8,9.5,14.8z"/>
</g>
</svg>
