<svg width="18px" height="19px" viewBox="0 0 18 19" version="1.1" xmlns="http://www.w3.org/2000/svg" xmlns:xlink="http://www.w3.org/1999/xlink">
    <path d="M0.456536842,18.112415 C0.204536842,18.112415 -9.47368421e-05,17.906265 -9.47368421e-05,17.654515 L-9.47368421e-05,13.981815 C-9.47368421e-05,13.730065 0.204536842,13.523915 0.456536842,13.523915 C0.708536842,13.523915 0.913168421,13.730065 0.913168421,13.981815 L0.913168421,17.195665 L4.11811579,17.195665 C4.37011579,17.195665 4.57474737,17.401815 4.57474737,17.654515 C4.57474737,17.906265 4.37011579,18.112415 4.11811579,18.112415 L0.456536842,18.112415 Z" id="Fill-4" fill="#75889F"></path>
    <path d="M12.9953368,18.112415 C12.7433368,18.112415 12.5387053,17.906265 12.5387053,17.654515 C12.5387053,17.401815 12.7433368,17.195665 12.9953368,17.195665 L16.2002842,17.195665 L16.2002842,13.981815 C16.2002842,13.730065 16.4058632,13.523915 16.6569158,13.523915 C16.9089158,13.523915 17.1135474,13.730065 17.1135474,13.981815 L17.1135474,17.654515 C17.1135474,17.906265 16.9089158,18.112415 16.6569158,18.112415 L12.9953368,18.112415 Z" id="Fill-10" fill="#75889F"></path>
    <path d="M0.456536842,5.53793 C0.204536842,5.53793 -9.47368421e-05,5.33273 -9.47368421e-05,5.08098 L-9.47368421e-05,1.40828 C-9.47368421e-05,1.15653 0.204536842,0.95038 0.456536842,0.95038 L4.11811579,0.95038 C4.37011579,0.95038 4.57474737,1.15653 4.57474737,1.40828 C4.57474737,1.66098 4.37011579,1.86618 4.11811579,1.86618 L0.913168421,1.86618 L0.913168421,5.08098 C0.913168421,5.33273 0.708536842,5.53793 0.456536842,5.53793" id="Fill-1" fill="#75889F"></path>
    <path d="M16.6571053,5.53793 C16.4051053,5.53793 16.2004737,5.33273 16.2004737,5.08098 L16.2004737,1.86618 L12.9955263,1.86618 C12.7435263,1.86618 12.5388947,1.66098 12.5388947,1.40828 C12.5388947,1.15653 12.7435263,0.95038 12.9955263,0.95038 L16.6571053,0.95038 C16.9091053,0.95038 17.1137368,1.15653 17.1137368,1.40828 L17.1137368,5.08098 C17.1137368,5.33273 16.9091053,5.53793 16.6571053,5.53793" id="Fill-7" fill="#75889F"></path>
    <path d="M8.55682105,6.601075 C6.91787368,6.601075 5.58776842,7.933925 5.58776842,9.578375 C5.58776842,11.221875 6.91787368,12.555675 8.55682105,12.555675 C10.1967158,12.555675 11.5258737,11.221875 11.5258737,9.578375 C11.5258737,7.933925 10.1967158,6.601075 8.55682105,6.601075" id="Fill-13" fill="#3A3A3A"></path>
    <path d="M12.9661579,10.43176 C12.6232105,12.21681 11.2296316,13.62661 9.45521053,13.98761 C9.16531579,14.04746 8.86405263,14.07786 8.55710526,14.07786 C8.24921053,14.07786 7.94889474,14.04746 7.65805263,13.98761 C5.88457895,13.62661 4.491,12.21681 4.14710526,10.43176 C4.09405263,10.15436 4.06468421,9.86746 4.06468421,9.57391 C4.06468421,9.24996 4.09973684,8.93456 4.16415789,8.63056 C4.53552632,6.88636 5.913,5.51551 7.65805263,5.16021 C7.94889474,5.10131 8.24921053,5.06901 8.55710526,5.06901 C8.86405263,5.06901 9.16531579,5.10131 9.45521053,5.16021 C11.2012105,5.51551 12.5777368,6.88636 12.9491053,8.63056 C13.0135263,8.93456 13.0485789,9.24996 13.0485789,9.57391 C13.0485789,9.86746 13.0201579,10.15436 12.9661579,10.43176 M15.4302632,8.63056 L14.7746842,8.63056 C14.3644737,5.88886 12.195,3.72571 9.45521053,3.33241 L9.45521053,2.63891 C9.45521053,2.14111 9.05352632,1.73831 8.55710526,1.73831 C8.06068421,1.73831 7.65805263,2.14111 7.65805263,2.63891 L7.65805263,3.33241 C4.91921053,3.72571 2.74878947,5.88886 2.33857895,8.63056 L1.68394737,8.63056 C1.18752632,8.63056 0.785842105,9.03336 0.785842105,9.53116 C0.785842105,10.02801 1.18752632,10.43176 1.68394737,10.43176 L2.32815789,10.43176 C2.70521053,13.21336 4.89078947,15.41736 7.65805263,15.81446 L7.65805263,16.42341 C7.65805263,16.92026 8.06068421,17.32401 8.55710526,17.32401 C9.05352632,17.32401 9.45521053,16.92026 9.45521053,16.42341 L9.45521053,15.81446 C12.2234211,15.41736 14.4080526,13.21336 14.7851053,10.43176 L15.4302632,10.43176 C15.9266842,10.43176 16.3283684,10.02801 16.3283684,9.53116 C16.3283684,9.03336 15.9266842,8.63056 15.4302632,8.63056" id="Fill-15" fill="#3A3A3A"></path>
</svg>