<?xml version="1.0" encoding="utf-8"?>
<!-- Generator: Adobe Illustrator 19.2.1, SVG Export Plug-In . SVG Version: 6.00 Build 0)  -->
<svg version="1.1" id="Layer_1" xmlns="http://www.w3.org/2000/svg" xmlns:xlink="http://www.w3.org/1999/xlink" x="0px" y="0px"
	 viewBox="0 0 28 28" style="enable-background:new 0 0 28 28;" xml:space="preserve">
<style type="text/css">
	.st0{fill:#4194E4;}
</style>
<path class="st0" d="M14,0.14C6.3453255,0.14,0.14,6.3453856,0.14,14c0,6.6017723,4.6170592,12.1214581,10.7972479,13.516304
	C11.9229574,27.7386665,12.9470377,27.8600006,14,27.8600006s2.0770416-0.1213341,3.0628128-0.3436966
	C23.2430019,26.1214581,27.8600006,20.6017723,27.8600006,14C27.8600006,6.3453856,21.6546745,0.14,14,0.14z M16.5939159,25.4231892
	l-0.0232029,0.0454388c-0.0212688,0.0435066-0.5462399,1.0731449-2.5528269,1.0731449
	c-2.0070705,0-2.5320415-1.0296383-2.5533113-1.0731449l-0.0555906-0.1140823l0.0352879-0.1614552
	c0.0464067-0.0850773,1.9060402-3.5665131,1.9853182-8.7002048c-1.1388874-0.2668362-1.9447126-1.2655373-1.9447126-2.4527636
	c0-1.3970213,1.1364698-2.5330076,2.5330086-2.5330076s2.5330076,1.1359863,2.5330076,2.5330076
	c0,1.1872263-0.8058252,2.1868944-1.9451952,2.4527636c0.079277,5.1336918,1.939395,8.6151276,1.9582472,8.649931
	l0.0623589,0.1140823L16.5939159,25.4231892z M17.0270405,20.0671329c-0.2900982,0.1371651-0.538868,0.2365036-0.7489643,0.311552
	c-0.0453796-0.218256-0.0882206-0.4432774-0.1285248-0.6751881c0.1618786-0.0767384,0.3464756-0.1700344,0.5598965-0.2928181
	c0.5302887-0.3200092,1.8494835-1.2558689,2.5320415-2.9864349c0.3045406-0.7947083,0.4384422-1.6580572,0.3862343-2.4953032
	c-0.0638084-0.9203911-0.3451462-1.8195124-0.813076-2.5977831c-0.523037-0.838213-1.2239647-1.5188379-2.0244713-1.9625978
	c-0.7889061-0.4669628-1.7416849-0.7212305-2.7621393-0.7396002c-1.0161037,0.0135355-1.9703321,0.262969-2.7495699,0.7192974
	c-0.8183937,0.4505272-1.5222225,1.127285-2.0433254,1.9606638c-0.4698639,0.7618361-0.7555523,1.6580563-0.8256445,2.5919828
	C8.3490725,14.71978,8.4781399,15.5840969,8.782197,16.400074c0.6704741,1.728632,1.9853172,2.673193,2.5194731,2.9990025
	c0.2233295,0.1300354,0.4171724,0.2290115,0.5837641,0.3081665c-0.040122,0.230341-0.0827818,0.4541531-0.1278591,0.6709576
	c-0.2169857-0.0772228-0.4739723-0.1795826-0.7749481-0.3236351c-0.6173-0.3180771-1.1417875-0.6854591-1.6116505-1.126318
	c-0.6119823-0.5713768-1.1306686-1.2790718-1.4995017-2.044775c-0.4215236-0.8778515-0.6492043-1.888155-0.6583886-2.9216614
	c0.0038671-1.1176167,0.2871385-2.2352343,0.8183937-3.2378025c0.6148825-1.0982809,1.4671135-1.9877338,2.4672651-2.5784473
	c0.9972515-0.6235838,2.25457-0.9754977,3.5346098-0.9870992c1.2819719,0.0174022,2.5373583,0.3760839,3.5413771,1.010303
	c0.9919338,0.5916796,1.8388481,1.4869328,2.4426117,2.5832806c0.5341549,1.0190039,0.811142,2.1385546,0.8043747,3.2436037
	c-0.0149841,1.0451078-0.2484665,2.0554104-0.6748238,2.9226265c-0.3726997,0.7637691-0.8947697,1.467598-1.5096531,2.0360756
	C18.1635113,19.3932762,17.6370907,19.7577591,17.0270405,20.0671329z M21.6246433,22.1573486
	c-0.7763386,0.7231636-1.6421051,1.3235455-2.6456394,1.835947c-0.5253334,0.2496758-0.9667969,0.421524-1.3330307,0.5480537
	c-0.023325-0.0450783-0.1322098-0.2624855-0.2885895-0.6324062c0.33288-0.1418781,0.7628632-0.3434544,1.2919426-0.6426792
	c0.8962212-0.5472069,1.6628914-1.1678905,2.3352985-1.8920212c0.8570652-0.918457,1.5618591-2.0254383,2.0389729-3.2010632
	c0.5331898-1.3757534,0.7710209-2.8617201,0.6864262-4.2945127c-0.1029625-1.5971479-0.5829773-3.1527243-1.3873539-4.4965725
	c-0.8986359-1.4559956-2.1110001-2.6383882-3.5036716-3.4156928c-1.3631821-0.8092093-3.0173721-1.2520022-4.7909613-1.2829394
	c-0.7961569,0.0319042-1.6570902,0.0831442-2.4629154,0.3229098L11.2354441,5.086616l-0.8836517,0.3132424
	c-0.0957136,0.0493064-0.2257471,0.1073146-0.3562651,0.1662889C9.7441597,5.6792626,9.4918261,5.7914109,9.2593117,5.9412646
	c-1.4197412,0.7889061-2.6354885,1.966465-3.5317092,3.4176269c-0.8067918,1.3264456-1.2911572,2.8800879-1.3999219,4.4907713
	c-0.0932961,1.415391,0.1397023,2.9023247,0.6733742,4.2983799c0.4674463,1.1688576,1.1688576,2.2777729,2.0259228,3.2029972
	c0.6641893,0.7192974,1.4506788,1.3602829,2.3381987,1.9055576c0.5366926,0.3059902,0.9742889,0.5114346,1.3099489,0.6546421
	c-0.1354723,0.3200092-0.2392216,0.5357265-0.2866554,0.6296253c-0.3697996-0.1274967-0.8188162-0.3027287-1.3563557-0.5601368
	c-1.0103025-0.5201378-1.873652-1.1234188-2.6480565-1.8485165c-1.0064354-0.9387589-1.860117-2.1008492-2.4682324-3.3596191
	c-0.6931932-1.4376259-1.0692773-3.0995502-1.087163-4.8049803c0.0053174-1.83498,0.4698632-3.6738281,1.3423975-5.322217
	C5.178462,6.8413525,6.5779004,5.3766551,8.220005,4.4050245c1.6396875-1.028672,3.7062159-1.6087501,5.8123827-1.6300197
	c2.1066504,0.0261035,4.1712446,0.6129491,5.8206015,1.652256c1.6338863,0.9725976,3.027523,2.4411621,4.024292,4.2442384
	c0.8759174,1.6677246,1.3341789,3.5085058,1.3283787,5.3299513c-0.0232029,1.7160645-0.4041214,3.3760538-1.10215,4.8030462
	C23.492012,20.0622997,22.6349468,21.222456,21.6246433,22.1573486z"/>
</svg>
