<svg xmlns="http://www.w3.org/2000/svg" xmlns:xlink="http://www.w3.org/1999/xlink" viewBox="3756 1660 24 24">
  <defs>
    <style>
      .cls-1 {
        clip-path: url(#clip-Artboard_2);
      }

      .cls-2 {
        fill: #4bca81;
      }

      .cls-3 {
        fill: #fff;
      }
    </style>
    <clipPath id="clip-Artboard_2">
      <rect x="3756" y="1660" width="24" height="24"/>
    </clipPath>
  </defs>
  <g id="Artboard_2" data-name="Artboard – 2" class="cls-1">
    <rect class="cls-3" x="3756" y="1660" width="24" height="24"/>
    <path id="checkin" class="cls-2" d="M17.1,1A8.1,8.1,0,0,0,9,9.145c0,5.668,5.811,14.242,7.574,15.576a.857.857,0,0,0,1.048,0C19.432,23.34,25.2,14.814,25.2,9.145A8.1,8.1,0,0,0,17.1,1Zm0,11.527a3.43,3.43,0,1,1,3.43-3.43A3.446,3.446,0,0,1,17.1,12.527Z" transform="translate(3751 1659)"/>
  </g>
</svg>
