<?xml version="1.0" encoding="utf-8"?>
<!-- Generator: Adobe Illustrator 18.1.1, SVG Export Plug-In . SVG Version: 6.00 Build 0)  -->
<svg version="1.1" xmlns="http://www.w3.org/2000/svg" xmlns:xlink="http://www.w3.org/1999/xlink" x="0px" y="0px"
	 viewBox="0 0 79.6 73.1" enable-background="new 0 0 79.6 73.1" xml:space="preserve">
<g id="Layer_1">
</g>
<g id="Layer_2">
</g>
<g id="Layer_3">
	<g>
		<path fill="#DDDDDF" d="M47.6,36.9c5.2,1.8,12.6-0.5,18.4-6.3l12.9-12.9L75.3,14L62.3,27c-1.2,1.2-2.5,2.2-3.8,3l-2.8-2.8
			l16.4-16.4l-3.7-3.7L52,23.5l-2.8-2.8c0.8-1.3,1.8-2.6,3-3.8L65.2,4l-3.7-3.7L48.6,13.3c-5.8,5.8-8.1,13.2-6.3,18.4
			c-1.1,1.1-3,3-5.5,5.5L32,32.3c0.6-1.4,1-2.9,1.1-4.6c0.1-1.7-0.1-3.4-0.5-5.1c-0.4-1.7-1.1-3.5-2.1-5.2c-1-1.7-2.2-3.3-3.7-4.8
			C25,10.8,23.1,9.4,21,8.3c-2.1-1-4.2-1.7-6.2-1.9c-2-0.3-4-0.2-5.9,0.3C7,7.3,5.4,8.2,4,9.6c-1.3,1.4-2.3,3-2.8,4.9
			c-0.5,1.9-0.7,3.8-0.4,5.9c0.3,2,1,4.1,2,6.2s2.5,4,4.3,5.8c1.5,1.5,3,2.8,4.8,3.7c1.7,1,3.4,1.7,5.1,2.1c1.7,0.4,3.5,0.6,5.1,0.5
			c1.7-0.1,3.2-0.5,4.7-1.2c4.1,4.1,15,15,35.1,35.2l5.3-5.3l-25-25L47.6,36.9z"/>
		<path fill="#DDDDDF" d="M6.6,67.4l5.2,5.3L33.6,51l-5.3-5.3C22.5,51.5,15.2,58.8,6.6,67.4z"/>
	</g>
</g>
</svg>
