<svg xmlns="http://www.w3.org/2000/svg" width="63" height="7" viewBox="0 0 63 7">
    <g fill="#D9D9D9" fill-rule="evenodd" opacity=".8" style="mix-blend-mode:hard-light">
        <path d="M18.25 6.104h-2V4.09h2zM18.25 2.078h-2V.065h2zM22.25 6.104h-2V4.09h2zM22.25 2.078h-2V.065h2zM42.25 6.104h-2V4.09h2zM42.25 2.078h-2V.065h2zM46.25 6.104h-2V4.09h2zM46.25 2.078h-2V.065h2zM50.25 6.104h-2V4.09h2zM50.25 2.078h-2V.065h2zM54.25 6.104h-2V4.09h2zM54.25 2.078h-2V.065h2zM58.25 6.104h-2V4.09h2zM58.25 2.078h-2V.065h2zM62.25 6.104h-2V4.09h2zM62.25 2.078h-2V.065h2zM2.25 6.104h-2V4.09h2zM2.25 2.078h-2V.065h2zM6.25 6.104h-2V4.09h2zM6.25 2.078h-2V.065h2zM10.25 6.104h-2V4.09h2zM10.25 2.078h-2V.065h2zM14.25 6.104h-2V4.09h2zM14.25 2.078h-2V.065h2z"/>
        <g>
            <path d="M27.745 1.263l4.196 4.014 4.21-4.014-.938-.881L31.941 3.5 28.68.38z"/>
        </g>
    </g>
</svg>
