<svg xmlns="http://www.w3.org/2000/svg" width="63" height="7" viewBox="0 0 63 7">
    <g fill="#D9D9D9" fill-rule="evenodd" opacity=".8" style="mix-blend-mode:hard-light">
        <path d="M44.75.896h2V2.91h-2zM44.75 4.922h2v2.013h-2zM40.75.896h2V2.91h-2zM40.75 4.922h2v2.013h-2zM20.75.896h2V2.91h-2zM20.75 4.922h2v2.013h-2zM16.75.896h2V2.91h-2zM16.75 4.922h2v2.013h-2zM12.75.896h2V2.91h-2zM12.75 4.922h2v2.013h-2zM8.75.896h2V2.91h-2zM8.75 4.922h2v2.013h-2zM4.75.896h2V2.91h-2zM4.75 4.922h2v2.013h-2zM.75.896h2V2.91h-2zM.75 4.922h2v2.013h-2zM60.75.896h2V2.91h-2zM60.75 4.922h2v2.013h-2zM56.75.896h2V2.91h-2zM56.75 4.922h2v2.013h-2zM52.75.896h2V2.91h-2zM52.75 4.922h2v2.013h-2zM48.75.896h2V2.91h-2zM48.75 4.922h2v2.013h-2z"/>
        <g>
            <path d="M35.255 5.737L31.06 1.723l-4.21 4.014.938.881L31.059 3.5l3.26 3.12z"/>
        </g>
    </g>
</svg>
