<?xml version="1.0" encoding="UTF-8"?>
<svg width="28px" height="35px" viewBox="0 0 28 35" version="1.1" xmlns="http://www.w3.org/2000/svg" xmlns:xlink="http://www.w3.org/1999/xlink">
    <!-- Generator: Sketch 49.3 (51167) - http://www.bohemiancoding.com/sketch -->
    <title>stop</title>
    <desc>Created with Sketch.</desc>
    <defs></defs>
    <g id="Page-1" stroke="none" stroke-width="1" fill="none" fill-rule="evenodd">
        <g id="stop" fill-rule="nonzero">
            <path d="M27.65,14 C27.6515918,7.1432051 22.5662036,1.34936885 15.7671096,0.461698086 C8.9680156,-0.425972683 2.56558516,3.86804597 0.806721949,10.4954164 C-0.952141258,17.1227869 2.47849595,24.026441 8.823,26.627 L14,34.3 L19.177,26.627 C24.3015294,24.5267928 27.6489863,19.5382011 27.65,14 Z" id="Shape" fill="#c23934"></path>
            <path d="M14,1.35 C20.0424073,1.34975613 25.2410856,5.62351124 26.4097077,11.5518338 C27.5783298,17.4801564 24.3904689,23.4071102 18.8,25.7 L18.52,25.815 L18.351,26.066 L14,32.512 L9.652,26.068 L9.483,25.817 L9.2,25.7 C3.60953112,23.4071102 0.421670228,17.4801564 1.59029234,11.5518338 C2.75891445,5.62351124 7.95759269,1.34975613 14,1.35 Z M14,0.35 C7.47861488,0.348842707 1.86757259,4.96144414 0.606984978,11.3598333 C-0.653602638,17.7582225 2.78852056,24.154446 8.823,26.627 L14,34.3 L19.177,26.627 C25.2114794,24.154446 28.6536026,17.7582225 27.393015,11.3598333 C26.1324274,4.96144414 20.5213851,0.348842707 14,0.35 Z" id="Shape" fill="#000000" opacity="0.32"></path>
            <polygon id="Shape" fill="#FFFFFF" points="9 9 19 9 19 19 9 19"></polygon>
        </g>
    </g>
</svg>