<svg xmlns="http://www.w3.org/2000/svg" viewBox="0 0 65.68 65.68"><defs><style>.cls-1{fill:#fff;}</style></defs><title>Asset 1</title><g id="Layer_2" data-name="Layer 2"><g id="Layer_1-2" data-name="Layer 1"><g id="Layer_2-2" data-name="Layer 2"><g id="Layer_2-2-2" data-name="Layer 2-2"><path class="cls-1" d="M32.84,0A32.84,32.84,0,1,0,65.68,32.84,32.84,32.84,0,0,0,32.84,0Zm5.57,59.77c0,.09-1.16,2.21-5.52,2.21s-5.48-2.12-5.52-2.21l-.06-.12.06-.12a49.32,49.32,0,0,0,4.72-21.26,5.42,5.42,0,1,1,1.6,0A49.32,49.32,0,0,0,38.4,59.53l.06.12Zm1.33-13.1c-.39.19-.74.33-1.07.47l-.08-.4c.3-.15.63-.32,1-.53a15.47,15.47,0,0,0,6.27-7.39,14.79,14.79,0,0,0,1-6.18,14.47,14.47,0,0,0-2-6.44A13.93,13.93,0,0,0,21,26.14a14.37,14.37,0,0,0-2,6.43,14.74,14.74,0,0,0,.92,6.18,15.46,15.46,0,0,0,6.23,7.42c.39.23.73.41,1.06.57l-.07.39c-.35-.14-.72-.3-1.14-.5a15.52,15.52,0,0,1-8.58-13.89,16,16,0,0,1,1.87-7.37A15.5,15.5,0,1,1,43.45,44.12a16,16,0,0,1-3.72,2.55Zm10.76,5A26.71,26.71,0,0,1,44.36,56c-1,.47-1.86.83-2.61,1.1l-.18-.4c.72-.33,1.6-.76,2.6-1.32a26.43,26.43,0,0,0,5.68-4.6,25.66,25.66,0,0,0,5-7.78,25,25,0,0,0,1.67-10.45,24.41,24.41,0,0,0-3.42-11A23.72,23.72,0,0,0,32.92,10.15a24.53,24.53,0,0,0-6,.79l-.75.18L24,11.88l-.89.42a13.51,13.51,0,0,0-1.83.93,23.66,23.66,0,0,0-8.56,8.3A24.26,24.26,0,0,0,9.3,32.44,24.9,24.9,0,0,0,10.93,42.9a25.57,25.57,0,0,0,4.93,7.79,26.39,26.39,0,0,0,5.67,4.62c1,.58,1.92,1,2.66,1.36l-.18.4c-.76-.28-1.65-.65-2.67-1.14a26.76,26.76,0,0,1-6.12-4.27A25.81,25.81,0,0,1,7,32.76a26.6,26.6,0,0,1,3.1-12.31A25.9,25.9,0,0,1,56.22,44a26.43,26.43,0,0,1-5.73,7.72Z"/></g></g></g></g></svg>