<svg id="Layer_1" data-name="Layer 1" xmlns="http://www.w3.org/2000/svg" viewBox="0 0 153 153"><defs><style>.cls-1{fill:#c9c7c5;}.cls-2{fill:#dddbda;}</style></defs><title>route-index-emptystate copy 4</title><path id="Shape" class="cls-1" d="M76.5,7.628a49.126,49.126,0,0,1,18.644,94.578l-1.088.447-.656.975L76.5,128.665,59.612,103.636l-.656-.975-1.1-.455A49.126,49.126,0,0,1,76.5,7.628Zm0-3.885A53.011,53.011,0,0,0,56.392,105.807L76.5,135.61l20.108-29.8A53.011,53.011,0,0,0,76.5,3.743Z"/><polygon id="Shape-2" data-name="Shape" class="cls-1" points="57.08 37.341 95.921 37.341 95.921 76.183 57.08 76.183 57.08 37.341"/><ellipse class="cls-2" cx="76.497" cy="146.621" rx="22.376" ry="3.289"/></svg>