<svg xmlns="http://www.w3.org/2000/svg" width="28" height="35" viewBox="0 0 28 35"><title>stop</title><path d="M27.65,14A13.65,13.65,0,1,0,8.823,26.627L14,34.3l5.177-7.673A13.649,13.649,0,0,0,27.65,14Z" style="fill:#e90006"/><path d="M14,1.35A12.648,12.648,0,0,1,18.8,25.7l-.28.115-.169.251L14,32.512,9.652,26.068l-.169-.251L9.2,25.7A12.648,12.648,0,0,1,14,1.35m0-1A13.648,13.648,0,0,0,8.823,26.627L14,34.3l5.177-7.673A13.648,13.648,0,0,0,14,.35Z" style="opacity:0.32"/><path d="M9,9H19V19H9Z" style="fill:#fff"/></svg>