<?xml version="1.0" encoding="utf-8"?>
<!-- Generator: Adobe Illustrator 21.0.2, SVG Export Plug-In . SVG Version: 6.00 Build 0)  -->
<svg version="1.1" id="Layer_1" xmlns="http://www.w3.org/2000/svg" xmlns:xlink="http://www.w3.org/1999/xlink" x="0px" y="0px"
	 viewBox="0 0 24 24" style="enable-background:new 0 0 24 24;" xml:space="preserve">
<path d="M24,24h-1.5v-1H23v-0.5h1V24z M19.6,23h1.9v1h-1.9V23z M16.8,23h1.9v1h-1.9V23z M13.9,23h1.9v1h-1.9V23z M11,23h2v1h-2V23z
	 M8.2,23h1.9v1H8.2V23z M5.3,23h1.9v1H5.3V23z M2.5,23h1.9v1H2.5V23z M1.5,23H1v-0.5H0V24h1.5V23z M0,19.6h1v1.9H0V19.6z M0,16.8h1
	v1.9H0V16.8z M0,13.9h1v1.9H0V13.9z M0,11h1v2H0V11z M0,8.2h1v1.9H0V8.2z M0,5.3h1v1.9H0V5.3z M0,2.5h1v1.9H0V2.5z M1,1h0.5V0H0v1.5
	h1V1z M19.6,0h1.9v1h-1.9V0z M16.8,0h1.9v1h-1.9V0z M13.9,0h1.9v1h-1.9V0z M11,0h2v1h-2V0z M8.2,0h1.9v1H8.2V0z M5.3,0h1.9v1H5.3V0z
	 M2.5,0h1.9v1H2.5V0z M24,0h-1.5v1H23v0.5h1V0z M23,19.6h1v1.9h-1V19.6z M23,16.8h1v1.9h-1V16.8z M23,13.9h1v1.9h-1V13.9z M23,11h1
	v2h-1V11z M23,8.2h1v1.9h-1V8.2z M23,5.3h1v1.9h-1V5.3z M23,2.5h1v1.9h-1V2.5z M18.6,14.4v4.1H5.4v-4.1H18.6z M19.2,13H4.8
	C4.4,13,4,13.4,4,13.9v5.2C4,19.6,4.4,20,4.8,20h14.4c0.4,0,0.8-0.4,0.8-0.9v-5.2C20,13.4,19.6,13,19.2,13L19.2,13z M7.9,17.1v-1.2
	c0-0.4-0.3-0.7-0.7-0.7l0,0c-0.4,0-0.7,0.3-0.7,0.7v1.2c0,0.4,0.3,0.7,0.7,0.7l0,0C7.5,17.8,7.9,17.5,7.9,17.1z M18.6,5.4v4.1H5.4
	V5.4H18.6z M19.2,4H4.8C4.4,4,4,4.4,4,4.9v5.2C4,10.6,4.4,11,4.8,11h14.4c0.4,0,0.8-0.4,0.8-0.9V4.9C20,4.4,19.6,4,19.2,4L19.2,4z
	 M7.9,8.1V6.8c0-0.4-0.3-0.7-0.7-0.7l0,0c-0.4,0-0.7,0.3-0.7,0.7V8c0,0.4,0.3,0.7,0.7,0.7l0,0C7.5,8.8,7.9,8.5,7.9,8.1z" fill="#3cb6ce" fill-rule="nonzero"/>
</svg>
