<?xml version="1.0" encoding="UTF-8"?>
<svg width="15px" height="12px" viewBox="0 0 15 12" version="1.1" xmlns="http://www.w3.org/2000/svg" xmlns:xlink="http://www.w3.org/1999/xlink">
    <!-- Generator: Sketch 49.3 (51167) - http://www.bohemiancoding.com/sketch -->
    <title>reply_all</title>
    <desc>Created with Sketch.</desc>
    <defs></defs>
    <g id="DRSKW-83227,-DRSKW-86610-ActivityFeed-|-Reply-to-emails" stroke="none" stroke-width="1" fill="none" fill-rule="evenodd">
        <g id="1.002-|-ActivityFeed-|-Reply-to-emails" transform="translate(-1047.000000, -839.000000)">
            <g id="Activity-Feed-Component-/-Actions-List/-Item-Email-opened" transform="translate(921.000000, 431.000000)">
                <g id="reply" transform="translate(57.000000, 406.000000)">
                    <g id="Reply-Copy" transform="translate(69.000000, 0.000000)">
                        <g id="reply_all">
                            <rect id="Rectangle-5" fill-opacity="0" fill="#FFFFFF" x="0" y="0" width="16" height="16"></rect>
                            <path d="M7.02808593,5.61048689 C7.02808593,5.61048689 6.69981016,5.28089888 6.87886967,5.1011236 L8.5500918,3.42322097 C8.72915132,3.24344569 8.72915132,2.97378277 8.5500918,2.79400749 L7.9233835,2.13483146 C7.74432399,1.95505618 7.47573472,1.95505618 7.2966752,2.13483146 L3.26783613,6.17977528 C3.08877662,6.35955056 3.08877662,6.62921348 3.26783613,6.80898876 L7.2966752,10.8539326 C7.47573472,11.0337079 7.74432399,11.0337079 7.9233835,10.8539326 L8.5500918,10.2247191 C8.72915132,10.0449438 8.72915132,9.7752809 8.5500918,9.59550562 L6.90871292,7.917603 C6.72965341,7.73782772 6.84902642,7.46816479 7.05792918,7.4082397 C10.3705302,7.52808989 13.0564229,10.1947566 13.2653257,13.5805243 C13.2653257,13.8202247 13.4742284,14 13.7129745,14 L14.608272,14 C14.8768613,14 15.0260776,13.7902622 14.9962343,13.5205993 C14.7873315,9.17602996 11.5045738,5.76029963 7.02808593,5.61048689 Z M1.35786798,6.29962547 L4.81968526,2.82397004 C4.99874477,2.64419476 4.99874477,2.37453184 4.81968526,2.19475655 L4.789842,2.13483146 C4.61078249,1.95505618 4.34219322,1.95505618 4.1631337,2.13483146 L0.134294636,6.17977528 C-0.0447648785,6.35955056 -0.0447648785,6.62921348 0.134294636,6.80898876 L4.1631337,10.8539326 C4.34219322,11.0337079 4.61078249,11.0337079 4.789842,10.8539326 L4.81968526,10.82397 C4.99874477,10.6441948 4.99874477,10.3745318 4.81968526,10.1947566 L1.38771123,6.71910112 C1.38771123,6.71910112 1.17880847,6.53932584 1.35786798,6.29962547 Z" id="Shape" fill="#3cb6ce" fill-rule="nonzero"></path>
                        </g>
                    </g>
                </g>
            </g>
        </g>
    </g>
</svg>