<?xml version="1.0" encoding="UTF-8"?>
<svg width="12px" height="12px" viewBox="0 0 12 12" version="1.1" xmlns="http://www.w3.org/2000/svg" xmlns:xlink="http://www.w3.org/1999/xlink">
    <!-- Generator: Sketch 49.3 (51167) - http://www.bohemiancoding.com/sketch -->
    <title>reply</title>
    <desc>Created with Sketch.</desc>
    <defs></defs>
    <g id="DRSKW-83227,-DRSKW-86610-ActivityFeed-|-Reply-to-emails" stroke="none" stroke-width="1" fill="none" fill-rule="evenodd">
        <g id="1.002-|-ActivityFeed-|-Reply-to-emails" transform="translate(-980.000000, -839.000000)">
            <g id="Activity-Feed-Component-/-Actions-List/-Item-Email-opened" transform="translate(921.000000, 431.000000)">
                <g id="reply" transform="translate(57.000000, 406.000000)">
                    <g id="Reply">
                        <g id="reply">
                            <rect id="Rectangle-5" fill-opacity="0" fill="#FFFFFF" x="0" y="0" width="16" height="16"></rect>
                            <path d="M5.93837245,5.61048689 C5.93837245,5.61048689 5.60640236,5.28089888 5.78747695,5.1011236 L7.47750651,3.42322097 C7.6585811,3.24344569 7.6585811,2.97378277 7.47750651,2.79400749 L6.84374542,2.13483146 C6.66267083,1.95505618 6.39105893,1.95505618 6.20998434,2.13483146 L2.13580595,6.17977528 C1.95473135,6.35955056 1.95473135,6.62921348 2.13580595,6.80898876 L6.20998434,10.8539326 C6.39105893,11.0337079 6.66267083,11.0337079 6.84374542,10.8539326 L7.47750651,10.2247191 C7.6585811,10.0449438 7.6585811,9.7752809 7.47750651,9.59550562 L5.81765605,7.917603 C5.63658145,7.73782772 5.75729785,7.46816479 5.96855155,7.4082397 C9.31843156,7.52808989 12.0345505,10.1947566 12.2458042,13.5805243 C12.2458042,13.8202247 12.4570579,14 12.6984907,14 L13.6038636,14 C13.8754755,14 14.026371,13.7902622 13.9961919,13.5205993 C13.7849382,9.17602996 10.4652373,5.76029963 5.93837245,5.61048689 Z" id="Shape" fill="#666666" fill-rule="nonzero"></path>
                        </g>
                    </g>
                </g>
            </g>
        </g>
    </g>
</svg>