<?xml version="1.0" encoding="UTF-8"?>
<svg width="18px" height="18px" viewBox="0 0 18 18" version="1.1" xmlns="http://www.w3.org/2000/svg" xmlns:xlink="http://www.w3.org/1999/xlink">
    <!-- Generator: Sketch 50.2 (55047) - http://www.bohemiancoding.com/sketch -->
    <title>sign_edit</title>
    <desc>Created with Sketch.</desc>
    <defs></defs>
    <g id="Page-1" stroke="none" stroke-width="1" fill="none" fill-rule="evenodd">
        <g id="Desktop" transform="translate(-1111.000000, -594.000000)" fill="#000000">
            <g id="sign_edit" transform="translate(1111.000000, 594.000000)">
                <path d="M5.08791571,12.1073056 C5.05965469,12.2023483 5.04242906,12.3011232 5.01567647,12.3963552 C5.90823037,11.377716 7.69580078,9.77319336 7.69580078,7.94091797 C5.63934735,7.94091797 4.09228516,10.9709473 5.08791571,12.1073056 Z M11.0232174,16.6849894 C11.1793805,16.7540597 11.3496488,16.7999039 11.493554,16.838833 C12.1372786,17.0129727 13.3438993,11.034668 14.9453125,11.034668 C16.5467257,11.034668 15.7621992,15.952813 16.5058594,15.9335938 C17.8440963,14.4612399 17.8440963,15.9335938 17.8440963,15.9540234 C17.8440963,16.7563952 16.2854676,17.3576199 14.9453125,17.6868896 C14.7623975,17.731831 15.097016,12.5767651 14.9453125,13.1303711 C13.5367719,18.2705078 12.0026794,18.1369974 10.0965576,17.6868896 L11.0232174,16.6849894 Z M3.96551835,14.4780837 C2.62978307,15.6209362 2.48218604,15.9627887 0.669610839,16.5597451 C0.215233132,16.7093906 -0.255247077,16.1132491 0.203217372,15.9627887 C2.11328125,15.3359375 2.48218604,14.8211402 3.90947868,13.5170118 C2.11328125,11.2519337 4.59829183,8.91611189 5.05248993,8.1016581 C5.64186036,7.0442614 7.48003566,6.31054161 8.63261349,5.9444307 C8.96308808,5.83920747 9.1325154,6.09059139 9.1325154,6.43634197 C9.1325154,7.36246305 8.75659072,8.38454844 8.21235665,9.37503022 C7.29935656,11.0366497 5.9126836,12.6093273 5.0325376,13.4907852 L6.20813063,14.4369138 L6.35860608,15.8970912 C5.73401639,15.7990518 4.21532378,15.3904952 3.96551835,14.4780837 Z" id="Fill-1"></path>
                <path d="M15.1723921,0 L14.0838323,1.92269988 L16.9120706,3.58762555 L18,1.66492567 L15.1723921,0 Z M13.791995,3.03222178 C13.6533249,2.95058256 13.4755752,2.99943753 13.3955247,3.14021695 L8.24330287,12.2413821 C8.19855027,12.3210928 8.20044122,12.4072318 8.22943587,12.4869425 L8,16 L10.8685786,14.0406589 C10.95052,14.0258738 11.0248976,13.9847328 11.0702805,13.9063078 L16.2231327,4.80514263 C16.3025528,4.66372037 16.2546486,4.48244275 16.1166089,4.40080354 L13.791995,3.03222178 Z" id="Fill-4"></path>
            </g>
        </g>
    </g>
</svg>