<?xml version="1.0" encoding="utf-8"?>
<!-- Generator: Adobe Illustrator 17.1.0, SVG Export Plug-In . SVG Version: 6.00 Build 0)  -->
<!DOCTYPE svg PUBLIC "-//W3C//DTD SVG 1.1//EN" "http://www.w3.org/Graphics/SVG/1.1/DTD/svg11.dtd">
<svg version="1.1" id="Layer_1" xmlns="http://www.w3.org/2000/svg" xmlns:xlink="http://www.w3.org/1999/xlink" x="0px" y="0px"
	 viewBox="0 0 24 24" enable-background="new 0 0 24 24" xml:space="preserve">
<rect x="0" y="11.7" fill="#268ED1" width="7" height="0.7"/>
<rect x="17" y="11.7" fill="#268ED1" width="7" height="0.7"/>
<rect x="11.2" fill="#268ED1" width="1.7" height="7"/>
<rect x="11.2" y="16.9" fill="#268ED1" width="1.7" height="7"/>
<path fill="#268ED1" d="M12,3c-5,0-9,4-9,9c0,5,4,9,9,9c5,0,9-4,9-9C21,7,17,3,12,3z M12,18.5c-3.6,0-6.5-2.9-6.5-6.5
	S8.4,5.5,12,5.5s6.5,2.9,6.5,6.5S15.6,18.5,12,18.5z"/>
</svg>
