<svg xmlns="http://www.w3.org/2000/svg" viewBox="0 0 210.36 223.42"><defs><style>.cls-1{fill:#fff;}</style></defs><title>Asset 57</title><g id="Layer_2" data-name="Layer 2"><g id="Layer_1-2" data-name="Layer 1"><path class="cls-1" d="M160,15.53C144.53,5.76,125.12.25,105.32,0,85.52.2,66.1,5.65,50.68,15.32c-15.44,9.13-28.59,22.9-38.06,39.86A108,108,0,0,0,0,105.22a107.2,107.2,0,0,0,10.22,45.17,106.59,106.59,0,0,0,48.1,49,119,119,0,0,0,12.75,5.27c.45-.88,1.42-2.91,2.69-5.92a118.5,118.5,0,0,1-12.31-6.15,103.74,103.74,0,0,1-22-17.91,98.75,98.75,0,0,1-19-30.11,96.37,96.37,0,0,1-6.33-40.41A93.63,93.63,0,0,1,27.25,61.89a91.58,91.58,0,0,1,33.2-32.13,52,52,0,0,1,6.92-3.53c1.23-.55,2.45-1.1,3.35-1.56L79,21.73l3.1-.75c7.58-2.25,15.67-2.74,23.15-3,16.67.29,32.22,4.45,45,12.06a91.74,91.74,0,0,1,32.94,32.11,94.46,94.46,0,0,1,13,42.27,96.81,96.81,0,0,1-6.45,40.37,99.26,99.26,0,0,1-19.17,30.09,102.2,102.2,0,0,1-22,17.79,120.12,120.12,0,0,1-12.14,6c1.47,3.48,2.49,5.52,2.71,5.94a120.62,120.62,0,0,0,12.53-5.15A106.55,106.55,0,0,0,200,150.69a105.22,105.22,0,0,0-2.13-95.25C188.5,38.48,175.4,24.68,160,15.53Z"/><path class="cls-1" d="M110.71,129A23.54,23.54,0,0,0,129,105.9a23.81,23.81,0,0,0-47.62,0A23.55,23.55,0,0,0,99.65,129c-.74,48.26-18.23,81-18.66,81.79l-.33,1.52.52,1.07c.2.41,5.13,10.09,24,10.09s23.8-9.68,24-10.09l.22-.43.3-1.56-.59-1.07C128.94,209.94,111.46,177.21,110.71,129Z"/><path class="cls-1" d="M162.8,133A63.91,63.91,0,0,0,72.1,50.49,64.51,64.51,0,0,0,48.91,74.72a64,64,0,0,0-1.5,57.9,64.8,64.8,0,0,0,29.25,29.81,75,75,0,0,0,7.28,3q.64-3.06,1.2-6.31c-1.57-.74-3.39-1.67-5.49-2.9A58.82,58.82,0,0,1,56,128.08a56.08,56.08,0,0,1-3.5-23.49,54.29,54.29,0,0,1,7.76-24.37,52.8,52.8,0,0,1,90.05.21,55,55,0,0,1,7.64,24.42,56.28,56.28,0,0,1-3.63,23.46,58.83,58.83,0,0,1-23.8,28.07c-2,1.15-3.74,2-5.26,2.75q.57,3.27,1.21,6.35c2-.71,4.31-1.64,7-2.93A64.65,64.65,0,0,0,162.8,133Z"/></g></g></svg>