<svg xmlns="http://www.w3.org/2000/svg" width="32" height="32" viewBox="0 0 32 32">
    <path fill="#333" fill-rule="nonzero" d="M27.827 13.357h-9.74v-7.93c0-1.455-1.252-2.644-2.783-2.644H4.174c-1.53 0-2.783 1.19-2.783 2.643v23.791H30.61V16c0-1.454-1.253-2.644-2.783-2.644v.001zM8.348 25.253H5.565v-2.644h2.783v2.644zm0-5.287H5.565v-2.644h2.783v2.644zm0-5.287H5.565v-2.643h2.783v2.643zm0-5.287H5.565V6.748h2.783v2.644zm5.565 15.861H11.13v-2.644h2.783v2.644zm0-5.287H11.13v-2.644h2.783v2.644zm0-5.287H11.13v-2.643h2.783v2.643zm0-5.287H11.13V6.748h2.783v2.644zm6.957 15.861h-2.783v-2.644h2.783v2.644zm0-5.287h-2.783v-2.644h2.783v2.644zm5.566 5.287h-2.783v-2.644h2.783v2.644zm0-5.287h-2.783v-2.644h2.783v2.644z"/>
</svg>
