<svg xmlns="http://www.w3.org/2000/svg" width="32" height="32" viewBox="0 0 32 32">
    <g fill="#333" fill-rule="evenodd">
        <path fill-rule="nonzero" d="M30.857 12.19v7.429a2.483 2.483 0 0 1-2.476 2.476c-.631 0-1.213-.26-1.647-.644a12.425 12.425 0 0 1-8.295 5.98A2.476 2.476 0 0 1 16 29.524a2.476 2.476 0 0 1-2.439-2.093 1.922 1.922 0 0 1-.037-.383c0-.298.05-.595.16-.855A2.474 2.474 0 0 1 16 24.571c1.065 0 1.969.681 2.315 1.622a11.206 11.206 0 0 0 7.676-5.98 2.295 2.295 0 0 1-.086-.594V12.19c0-.26.037-.507.111-.73v-.012a10.558 10.558 0 0 0-8.877-7.243 2.404 2.404 0 0 0-.297-.025 9.367 9.367 0 0 0-1.684 0c-.099 0-.198.012-.297.025a10.558 10.558 0 0 0-8.877 7.243v.012c.074.223.111.47.111.73v7.429c0 .21-.025.409-.086.594-.087.372-.26.718-.508 1.003a1.409 1.409 0 0 1-.235.235 2.444 2.444 0 0 1-1.647.644 2.483 2.483 0 0 1-2.476-2.476V12.19a2.483 2.483 0 0 1 2.476-2.476c.334 0 .656.062.953.198A12.364 12.364 0 0 1 16 2.286c5.15 0 9.57 3.144 11.428 7.626a2.27 2.27 0 0 1 .953-.198c.68 0 1.3.273 1.746.73a2.42 2.42 0 0 1 .73 1.746z"/>
        <path d="M20.12 13.444c.617.164 1.084.374 1.376.63.292.257.455.56.455.91 0 .187-.046.35-.128.49-.082.141-.21.28-.373.409a3.09 3.09 0 0 1-.583.35c-.221.104-.478.21-.747.303-.023.023-.046.023-.07.023a.339.339 0 0 0-.093.024.194.194 0 0 1 .046.058c.012.024.024.035.046.059.188.362.315.676.397.945.082.268.116.49.094.665a2.275 2.275 0 0 1-.094.49.838.838 0 0 1-.175.303.717.717 0 0 1-.14.105c-.058.035-.104.07-.163.105-.07.024-.152.035-.233.059-.081.023-.164.023-.257.023-.105 0-.222-.011-.327-.046a5.426 5.426 0 0 1-.35-.094 2.857 2.857 0 0 1-.454-.152c-.163-.07-.327-.14-.502-.233-.023 0-.035-.011-.058-.024-.024-.012-.035-.023-.059-.023-.023.023-.023.046-.023.07a.339.339 0 0 1-.024.093 3.86 3.86 0 0 1-.268.735 3.717 3.717 0 0 1-.35.572 1.89 1.89 0 0 1-.443.384.84.84 0 0 1-.467.14.863.863 0 0 1-.49-.14 1.794 1.794 0 0 1-.408-.384 2.957 2.957 0 0 1-.35-.572 7.476 7.476 0 0 1-.303-.735c-.023-.035-.023-.07-.023-.093a.158.158 0 0 0-.024-.07c-.024 0-.035.011-.059.023-.023.013-.035.024-.058.024-.187.093-.35.163-.502.233-.152.07-.292.116-.42.152-.14.059-.268.094-.384.105-.105.024-.21.024-.303.024-.105 0-.21-.012-.292-.024-.081-.023-.152-.035-.21-.058a1.137 1.137 0 0 1-.175-.105c-.046-.035-.08-.07-.128-.105a.64.64 0 0 1-.21-.303 1.776 1.776 0 0 1-.093-.49c-.024-.188.011-.409.093-.666.082-.257.222-.583.42-.944 0-.024.011-.035.023-.059.024-.024.024-.035.024-.059a.23.23 0 0 0-.07-.046c-.024-.011-.059-.011-.093-.011a4.862 4.862 0 0 1-.735-.304 6.184 6.184 0 0 1-.572-.35 1.306 1.306 0 0 1-.397-.407.983.983 0 0 1-.128-.49c0-.35.152-.642.466-.899.315-.257.758-.467 1.342-.63.035-.024.07-.024.105-.024a.16.16 0 0 0 .081-.023.158.158 0 0 0-.024-.07c-.023-.024-.034-.046-.058-.07a4.917 4.917 0 0 1-.397-.933c-.082-.281-.116-.502-.093-.688a2.45 2.45 0 0 1 .093-.478.628.628 0 0 1 .21-.315 1.08 1.08 0 0 1 .408-.245c.163-.057.35-.058.572-.023.198.035.42.093.652.163.234.07.478.175.735.303.024.024.047.035.07.059.024.024.047.024.07.024a.23.23 0 0 0 .047-.07.235.235 0 0 0 .01-.094c.094-.268.188-.513.304-.723.105-.21.234-.408.35-.582a1.5 1.5 0 0 1 .408-.374.992.992 0 0 1 .49-.128c.164 0 .315.046.467.128.14.082.28.21.408.397.128.164.245.35.35.572.104.222.21.466.303.735.023.023.023.046.023.07 0 .023.012.058.024.093a.23.23 0 0 1 .07-.046.249.249 0 0 0 .07-.047c.257-.128.502-.233.723-.314.233-.081.454-.14.665-.175.222-.024.408 0 .571.046a.789.789 0 0 1 .408.257.64.64 0 0 1 .21.304c.046.128.081.28.094.466.023.187-.012.408-.094.688a5.41 5.41 0 0 1-.397.956l-.058.059c-.024.023-.024.046-.024.081a.23.23 0 0 1 .082.011c.034.012.07.024.093.024l.004-.004zm-8.772 1.948c.105.07.245.14.409.222.163.082.35.14.548.222a.924.924 0 0 0 .174.046c.059.011.129.023.175.046.07-.128.164-.257.257-.397.094-.14.198-.268.292-.396a.48.48 0 0 0 .081-.07c.023-.024.035-.059.059-.094l-.059-.058c-.023-.024-.035-.047-.058-.082-.105-.128-.21-.257-.304-.396-.093-.14-.187-.269-.268-.397-.058.023-.116.035-.175.058-.058.024-.128.035-.174.059-.222.07-.409.14-.56.21a1.6 1.6 0 0 0-.397.233.897.897 0 0 0-.245.222.311.311 0 0 0-.081.187c0 .059.023.116.08.187.047.046.13.116.246.198zm1.505-2.461a.58.58 0 0 0 .093.163.393.393 0 0 1 .094.163c.198-.035.396-.07.571-.104l.548-.105c.024-.024.024-.047.024-.082v-.104c.023-.188.046-.35.07-.502.023-.152.058-.315.093-.478a3.996 3.996 0 0 1-.454-.222 2.396 2.396 0 0 0-.397-.187c-.14-.059-.28-.094-.397-.129a1.087 1.087 0 0 0-.315-.046h-.163c-.035.024-.059.035-.081.046-.023.012-.035.024-.059.047a.448.448 0 0 0-.046.163c-.011.07-.011.175-.011.303.023.105.058.257.128.455.07.197.175.384.303.618h-.001zm1.225 5.296c.035-.024.081-.047.128-.07.047-.024.094-.059.152-.094a4.784 4.784 0 0 1-.093-.466 30.027 30.027 0 0 1-.07-.526v-.07a.339.339 0 0 0-.024-.093h-.163a9.093 9.093 0 0 0-.525-.081 5.693 5.693 0 0 1-.467-.082c-.024.035-.046.082-.081.129a.617.617 0 0 0-.082.152 4.757 4.757 0 0 0-.292.63 4.259 4.259 0 0 0-.128.467c0 .128 0 .233.011.303.012.07.024.128.047.163.035.024.093.035.163.059.07.024.175.024.303 0 .129 0 .28-.035.467-.105.187-.07.397-.187.653-.315v-.001zm-.245-3.826c0-.024.011-.035.024-.047.023-.011.023-.023.023-.046l.105-.105.105-.105v-.163c0-.059.011-.105.024-.164h-.105a.325.325 0 0 0-.105.024c-.094 0-.175.011-.245.023-.07.024-.14.035-.222.059.059.094.116.175.175.257.059.082.152.187.222.268v-.001zm0 1.154a5.13 5.13 0 0 1-.21.268c-.058.094-.128.175-.174.245.07.024.152.035.233.059.081.023.163.035.233.058h.105c.035 0 .07.012.105.024v-.187a.866.866 0 0 0-.024-.164.776.776 0 0 1-.093-.105c-.024-.035-.059-.07-.094-.104l-.046-.047c0-.011-.024-.035-.035-.046v-.001zm3.219.385l.21-.21a.659.659 0 0 0 .152-.21c0-.093 0-.186.011-.267.011-.094.011-.187.011-.269 0-.093 0-.187-.011-.268-.011-.093-.011-.187-.011-.268l-.175-.21c-.059-.07-.129-.128-.21-.21-.058-.07-.116-.14-.175-.187-.058-.058-.128-.105-.21-.163-.093 0-.186 0-.268-.012-.081-.01-.187-.01-.268-.01-.105 0-.21 0-.303.01-.094.012-.187.012-.269.012l-.174.175a1.041 1.041 0 0 1-.21.174c-.07.07-.14.14-.187.21-.047.07-.116.129-.187.21v1.073c.07.07.14.14.187.21.047.07.116.128.187.21.07.07.14.14.21.187.058.058.128.116.21.187h1.085c.07-.07.14-.14.222-.21.082-.07.128-.116.175-.164h-.002zm-2.123-3.172c-.024.035-.024.081-.024.128v.129c.059-.024.105-.024.164-.024h.187l.152-.152c.047-.047.093-.081.152-.128-.094-.07-.187-.14-.268-.222a3.056 3.056 0 0 0-.269-.187c-.023.07-.035.14-.058.222a.746.746 0 0 0-.035.233l-.001.001zm0 4.42c0 .094.011.175.024.245.012.07.035.152.058.245a3.512 3.512 0 0 0 .514-.385h.024l-.059-.058c-.024-.024-.035-.024-.058-.024-.024-.035-.047-.07-.07-.093l-.094-.094h-.384v.07a.358.358 0 0 0 .046.094h-.001zm.35-6.007c-.024.058-.035.105-.059.163-.024.059-.035.117-.059.187.129.07.257.164.397.257.14.105.28.199.42.292.023.024.035.047.058.07a.517.517 0 0 0 .082.07l.07-.07.07-.07c.128-.093.256-.187.396-.292.14-.105.268-.187.397-.257-.024-.07-.035-.14-.046-.187a.882.882 0 0 0-.047-.163 3.835 3.835 0 0 0-.222-.572c-.082-.163-.14-.303-.222-.408-.093-.105-.163-.187-.233-.244a.263.263 0 0 0-.175-.082c-.07 0-.14.024-.21.082-.058.058-.128.14-.21.244a3.81 3.81 0 0 0-.233.408c-.08.164-.116.35-.174.572zm1.692 7.594a.82.82 0 0 0 .046-.164.882.882 0 0 1 .046-.163c-.128-.094-.257-.187-.384-.292-.128-.105-.269-.198-.408-.292a.48.48 0 0 0-.07-.081c-.024-.023-.047-.035-.07-.059-.035.024-.07.046-.094.07l-.07.07c-.128.094-.257.187-.397.292-.14.105-.268.198-.396.292.023.058.035.105.058.163.024.059.035.105.059.164.058.222.128.408.21.571.08.164.163.303.233.408.07.105.14.187.21.245.07.058.128.081.21.081a.245.245 0 0 0 .174-.08c.059-.059.14-.14.234-.246.07-.105.14-.244.222-.408.046-.163.116-.35.187-.571zm.36-6.007c-.023-.094-.034-.175-.058-.245s-.024-.14-.024-.222c-.093.059-.187.117-.268.187-.093.07-.187.14-.303.222.058.059.105.105.163.152.059.048.105.082.164.129a.393.393 0 0 0 .163.023h.163v-.128V12.768zm0 4.42v-.093V17h-.187c-.07 0-.14.012-.187.024-.035.024-.07.046-.093.07-.024.024-.046.058-.07.093-.024.024-.035.035-.059.047-.023.011-.034.023-.058.046h.024a2.34 2.34 0 0 0 .513.385c.023-.07.034-.14.058-.222.024-.083.035-.164.059-.257v.001zm1.424-5.739c-.128.059-.268.116-.408.187-.14.071-.292.14-.443.222.035.164.07.327.093.478.024.151.047.327.07.502v.186c.199.035.397.07.572.105l.548.105c.035-.059.07-.105.105-.164.035-.058.07-.104.105-.163.128-.233.222-.443.292-.63.058-.187.093-.338.093-.467a.9.9 0 0 0 .011-.303.308.308 0 0 0-.07-.164.194.194 0 0 0-.058-.046c-.024-.011-.035-.023-.059-.046h-.163a1.08 1.08 0 0 0-.315.046c-.116.035-.233.105-.373.152zm.63 5.576c-.024-.035-.047-.081-.07-.128-.024-.048-.047-.082-.07-.129-.164.035-.327.07-.49.094l-.491.07h-.187v.187l-.07.49c-.024.163-.058.314-.093.466a.766.766 0 0 1 .14.07c.034.024.08.059.14.094.256.128.477.222.652.292.175.07.327.105.443.128.129 0 .233 0 .303-.011a.301.301 0 0 0 .164-.07c.023-.024.035-.07.046-.152.012-.082.012-.187.012-.315 0-.105-.035-.257-.105-.431-.07-.175-.199-.397-.327-.653l.002-.002zm-.957-2.624c.07-.094.14-.187.187-.269.059-.093.117-.187.187-.268-.07 0-.14-.011-.222-.024-.07-.023-.152-.035-.244-.058h-.105a.325.325 0 0 1-.105-.024c0 .059 0 .116.011.175.012.059.012.128.012.175l.105.105c.034.035.058.07.08.105.024 0 .036.01.047.023.011.024.024.046.046.059h.001zm0 1.154l-.058.059c-.024.023-.024.035-.024.058-.035.035-.07.07-.105.094-.035.023-.07.058-.105.093v.35h.094a.339.339 0 0 0 .093-.024c.094-.023.175-.035.257-.046.083-.012.164-.024.234-.046a3.056 3.056 0 0 1-.187-.269l-.199-.268v-.001zm2.485-.163c.093-.07.163-.14.233-.21.07-.07.094-.129.094-.175 0-.07-.024-.14-.081-.21-.058-.07-.14-.14-.245-.233-.105-.07-.245-.14-.408-.222-.164-.082-.35-.14-.572-.222a.82.82 0 0 0-.163-.046 1.527 1.527 0 0 1-.187-.047c-.07.129-.164.257-.257.385-.094.127-.21.268-.315.408-.023.024-.035.046-.058.07-.024.024-.035.046-.059.07.024.035.046.07.07.093.024.024.046.047.046.07.105.129.21.257.315.397.105.14.187.268.257.397.07-.024.14-.035.187-.059.058-.023.105-.035.163-.058.222-.059.408-.129.572-.21.163-.081.303-.128.408-.198z"/>
    </g>
</svg>
