<svg xmlns="http://www.w3.org/2000/svg" width="32" height="32" viewBox="0 0 32 32">
    <path fill="#333" fill-rule="nonzero" d="M25.728 10.672c1.342 0 2.432 1.043 2.432 2.328v14.088c0 1.308-1.09 2.352-2.432 2.352H6.272c-.04 0-.102 0-.141-.008-1.279-.062-2.291-1.067-2.291-2.336v-14.08c0-1.293 1.09-2.336 2.432-2.336h2.432V5.968c0-1.191.463-2.274 1.216-3.1.408-.443.91-.825 1.498-1.105a4.655 4.655 0 0 1 1.483-.42c.204-.04.447-.063.667-.063h4.864c2.699 0 4.864 2.095 4.864 4.688v.685h-2.432v-.685c0-1.293-1.098-2.336-2.432-2.336h-4.864a1.95 1.95 0 0 0-.604.078 2.319 2.319 0 0 0-1.522 1.145c-.204.319-.306.7-.306 1.105v4.712h14.592zM18.126 23.81V16.77h-4.252V23.81h4.252z"/>
</svg>
