<svg xmlns="http://www.w3.org/2000/svg" width="32" height="32" viewBox="0 0 32 32">
    <path fill="#333" fill-rule="nonzero" d="M7.766 26.47c0 .18 0 .362.013.53.013.167.039.349.077.53.027.155.052.324.09.492.04.167.078.323.117.491H2.058c-.143 0-.272-.012-.388-.026a1.907 1.907 0 0 1-.363-.09 1.503 1.503 0 0 1-.349-.182 2.176 2.176 0 0 1-.324-.271 1.33 1.33 0 0 1-.285-.324c-.065-.116-.142-.233-.194-.349a3.26 3.26 0 0 1-.104-.375A2.243 2.243 0 0 1 0 26.469V14.058c0-.143.013-.272.051-.388.04-.116.065-.246.104-.363.065-.116.13-.246.194-.362a1.57 1.57 0 0 1 .259-.337 2.12 2.12 0 0 1 .324-.271c.116-.078.233-.143.349-.182a3.26 3.26 0 0 1 .375-.103c.13-.027.272-.052.414-.052h16.502c.142 0 .285.013.426.052.142.038.272.065.388.103l.35.194c.116.065.22.155.323.26.104.116.181.232.26.348.077.117.142.233.193.35.039.103.078.22.104.348.026.13.051.272.051.415v8.257a8.625 8.625 0 0 0-.44-.53l-.466-.505c-.18-.143-.362-.285-.544-.427a11.241 11.241 0 0 0-.582-.426v-3.495H2.055v9.525h5.711zM1.968 15.001c.027.04.04.078.065.117.027.039.052.077.09.116a.51.51 0 0 0 .143.09c.053.026.09.04.143.065.052.026.09.04.142.052.053.012.104.012.168.012a.967.967 0 0 0 .337-.051.647.647 0 0 0 .246-.143c.065-.077.116-.168.155-.259a.886.886 0 0 0 .065-.349c0-.065 0-.116-.013-.168a.647.647 0 0 0-.051-.143c-.025-.052-.051-.078-.078-.116-.026-.04-.09-.065-.129-.104a.47.47 0 0 1-.129-.078c-.051-.038-.09-.038-.142-.038a.443.443 0 0 0-.143-.052c-.052-.012-.103-.012-.167-.012-.04 0-.09 0-.143.012a.386.386 0 0 0-.129.052.346.346 0 0 0-.155.077.37.37 0 0 1-.116.065.674.674 0 0 0-.09.116c-.026.04-.04.078-.066.117a.443.443 0 0 0-.051.142c-.013.053-.013.104-.013.17a.6.6 0 0 0 .013.142c.013.052.039.103.051.168h-.003zm2.07-.569a.443.443 0 0 0-.05.143c-.013.052-.013.09-.013.142 0 .053 0 .09.012.143.013.052.027.104.052.169l.077.116.078.116a.51.51 0 0 0 .142.09c.053.026.09.04.143.065.052.027.09.04.143.052.052.012.103.012.167.012.064 0 .233-.012.337-.051.104-.039.168-.078.207-.143a.467.467 0 0 0 .168-.246c.025-.104.051-.207.051-.336 0-.065 0-.117-.012-.169a.647.647 0 0 0-.052-.143.85.85 0 0 0-.077-.155c-.026-.039-.078-.065-.104-.09a.453.453 0 0 0-.129-.09c-.051-.025-.104-.039-.142-.051-.04-.013-.09-.04-.13-.052-.038-.012-.116-.012-.167-.012a.6.6 0 0 0-.143.012 1.184 1.184 0 0 0-.167.052.302.302 0 0 0-.117.077.252.252 0 0 1-.129.065c-.039.065-.065.116-.09.155a.395.395 0 0 0-.051.13h-.003zm2.176.84H18.65v-1.216H6.214v1.217zm9.11-14.041h15.737v21.353h-9.098v-9.551c0-.155-.013-.31-.052-.453-.039-.142-.077-.285-.142-.427a1.098 1.098 0 0 0-.194-.387 2.659 2.659 0 0 0-.324-.363 1.538 1.538 0 0 0-.35-.298 3.837 3.837 0 0 0-.374-.207 2.484 2.484 0 0 0-.44-.143 2.087 2.087 0 0 0-.505-.051h-4.27V1.23h.012zm11.247 4.465h-6.769v3.391h6.769v-3.39zm-14.385 19.87h2.211l-2.822 3.394-2.831-3.394h2.298a4.57 4.57 0 0 1 .485-1.532 4.515 4.515 0 0 1 4.005-2.424v1.134a3.346 3.346 0 0 0-2.648 1.29c-.358.436-.6.96-.698 1.532zm10.134 2.27H20.02a4.511 4.511 0 0 1-1.988 3.2 4.38 4.38 0 0 1-2.075.736c-.135.01-.28.02-.426.02v-1.135c1.231 0 2.317-.66 2.909-1.648.213-.36.368-.757.436-1.174h-2.21l2.821-3.394 2.832 3.394z"/>
</svg>
