<svg xmlns="http://www.w3.org/2000/svg" width="32" height="32" viewBox="0 0 32 32">
    <path fill="#333" fill-rule="nonzero" d="M30.8 4.596c0-1.312-1.147-1.64-1.64-1.64H3.248c-1.148 0-1.968.82-1.968 1.967v17.713c0 .984.82 1.64 1.968 1.64h5.084v5.412c0 .82.492 1.148.984 1.148.164 0 .492 0 .657-.164l7.872-6.396h10.988c.984 0 1.968-.656 1.968-1.64V4.596zM8.498 15.584c-1.312 0-2.296-.984-2.296-2.132 0-1.311.984-2.296 2.296-2.296 1.312 0 2.296.985 2.296 2.296-.164 1.148-1.148 2.132-2.296 2.132zm7.38 0c-1.312 0-2.296-.984-2.296-2.296.164-1.147 1.148-2.132 2.296-2.132 1.312 0 2.296.985 2.296 2.296 0 1.148-.984 2.132-2.296 2.132zm7.544 0c-1.312 0-2.296-.984-2.296-2.296 0-1.311.984-2.295 2.296-2.295 1.312 0 2.296.984 2.296 2.295-.164 1.312-1.148 2.296-2.296 2.296z"/>
</svg>
