<svg xmlns="http://www.w3.org/2000/svg" width="32" height="32" viewBox="0 0 32 32">
    <g fill="none" fill-rule="evenodd">
        <path fill="#333" d="M29.16 21.037c.642.168 1.126.384 1.428.648.303.264.472.576.472.935 0 .193-.048.36-.133.504a1.548 1.548 0 0 1-.387.42 3.21 3.21 0 0 1-.604.36c-.23.107-.496.215-.774.31-.025.025-.048.025-.073.025a.354.354 0 0 0-.097.024.2.2 0 0 1 .048.06c.012.025.025.037.048.06.194.373.327.696.412.972.085.276.12.504.097.684a2.32 2.32 0 0 1-.097.504.86.86 0 0 1-.181.311.743.743 0 0 1-.145.108c-.061.036-.11.072-.17.108-.072.024-.158.036-.242.06-.084.024-.17.024-.266.024-.11 0-.23-.011-.34-.047a5.667 5.667 0 0 1-.362-.096 2.981 2.981 0 0 1-.471-.157c-.169-.072-.34-.143-.52-.24-.025 0-.037-.011-.061-.024-.025-.012-.036-.024-.06-.024-.025.024-.025.048-.025.072 0 .024-.012.06-.025.096-.072.276-.17.54-.278.756-.109.228-.242.42-.363.587-.145.168-.302.3-.459.395a.876.876 0 0 1-.484.144.9.9 0 0 1-.508-.144 1.854 1.854 0 0 1-.424-.395 3.035 3.035 0 0 1-.362-.587 7.648 7.648 0 0 1-.315-.756c-.024-.036-.024-.072-.024-.096a.162.162 0 0 0-.025-.072c-.024 0-.036.012-.06.024-.025.013-.037.025-.061.025-.194.096-.363.168-.52.24-.158.071-.303.119-.435.156-.145.06-.279.096-.4.108a1.428 1.428 0 0 1-.314.024c-.108 0-.217-.012-.302-.024-.085-.025-.158-.036-.218-.06a1.181 1.181 0 0 1-.181-.108c-.048-.036-.084-.072-.133-.108a.659.659 0 0 1-.218-.312 1.812 1.812 0 0 1-.097-.504c-.024-.192.012-.42.097-.684.085-.264.23-.599.435-.97 0-.025.012-.037.025-.061.024-.024.024-.036.024-.06a.24.24 0 0 0-.072-.048c-.025-.012-.061-.012-.097-.012a5.067 5.067 0 0 1-.763-.311 6.423 6.423 0 0 1-.592-.36 1.347 1.347 0 0 1-.412-.42 1.004 1.004 0 0 1-.133-.503c0-.36.158-.66.484-.924.326-.264.786-.48 1.391-.647.036-.025.073-.025.109-.025.036 0 .06-.011.084-.024a.162.162 0 0 0-.024-.072c-.025-.024-.037-.047-.061-.072a5.03 5.03 0 0 1-.411-.96c-.086-.288-.121-.515-.097-.706a2.5 2.5 0 0 1 .097-.492.646.646 0 0 1 .217-.323c.109-.108.254-.192.423-.252.17-.059.363-.06.593-.024.206.036.435.096.677.168.242.072.496.18.762.312.025.024.048.036.073.06.024.024.048.024.072.024a.237.237 0 0 0 .048-.072c.012-.024.012-.06.012-.096.097-.276.194-.527.315-.743.108-.215.242-.42.362-.599.133-.168.278-.3.423-.384a1.008 1.008 0 0 1 .992 0c.146.084.29.216.424.408.133.168.254.36.363.588.108.228.217.48.314.755.025.025.025.048.025.072 0 .025.011.06.024.096a.24.24 0 0 1 .072-.047.258.258 0 0 0 .073-.048c.266-.132.52-.24.75-.323a4.22 4.22 0 0 1 .69-.18c.23-.024.422 0 .592.048.17.047.314.132.423.264.097.072.17.18.218.312.048.132.084.287.097.48.024.192-.012.419-.097.706a5.534 5.534 0 0 1-.412.983l-.06.06c-.025.025-.025.048-.025.084.025 0 .048 0 .084.012.037.011.073.024.097.024l.005-.004zm-9.095 2.002c.109.072.254.144.423.228.17.085.363.144.569.228.06.025.12.036.18.048.062.012.134.024.182.048.073-.133.17-.265.267-.408.097-.144.205-.276.302-.408a.496.496 0 0 0 .085-.072c.023-.024.036-.06.06-.096l-.06-.06c-.025-.025-.037-.048-.061-.084a5.374 5.374 0 0 1-.315-.408c-.097-.144-.194-.276-.278-.408-.06.025-.12.036-.181.06-.06.025-.133.036-.181.06-.23.073-.424.144-.581.216a1.663 1.663 0 0 0-.412.24.927.927 0 0 0-.254.228.318.318 0 0 0-.084.193c0 .06.025.12.084.192.048.047.134.12.254.204l.001-.001zm1.56-2.53c.024.06.048.108.097.168.049.06.084.108.097.168.206-.036.411-.072.593-.108l.568-.108c.024-.024.024-.047.024-.083v-.108c.025-.192.048-.36.073-.516.024-.156.06-.323.097-.491a4.159 4.159 0 0 1-.472-.228 2.495 2.495 0 0 0-.411-.192c-.145-.06-.29-.097-.412-.133a1.137 1.137 0 0 0-.326-.047H21.384c-.037.024-.061.036-.085.047-.023.012-.036.025-.06.048a.457.457 0 0 0-.048.168c-.012.072-.012.18-.012.312.024.108.06.264.133.467.073.203.181.395.315.635l-.002.001zm1.27 5.444c.037-.024.085-.047.134-.072.049-.024.097-.06.157-.096a4.88 4.88 0 0 1-.097-.48 30.611 30.611 0 0 1-.072-.54v-.071a.346.346 0 0 0-.025-.096H22.823a9.507 9.507 0 0 0-.545-.084 5.951 5.951 0 0 1-.484-.083c-.024.035-.048.083-.084.132a.632.632 0 0 0-.084.156 4.87 4.87 0 0 0-.303.648c-.06.192-.109.347-.133.48 0 .131 0 .24.012.311a.475.475 0 0 0 .048.168c.036.024.097.036.17.06a.675.675 0 0 0 .314 0c.133 0 .29-.036.484-.107.194-.072.411-.193.677-.324v-.002zm-.253-3.933c0-.024.011-.036.024-.047.025-.012.025-.025.025-.048l.108-.108.11-.108v-.168c0-.06.01-.108.024-.168h-.11a.34.34 0 0 0-.108.025c-.097 0-.181.011-.254.024-.072.024-.145.036-.23.06.06.096.12.18.181.264.061.085.158.192.23.276v-.002zm0 1.187c-.073.096-.145.192-.218.276-.06.096-.133.18-.181.251.072.025.158.036.242.06.084.025.17.036.242.06h.109a.34.34 0 0 1 .108.025v-.192a.883.883 0 0 0-.024-.168c-.036-.036-.073-.072-.097-.108-.024-.036-.06-.072-.097-.108l-.048-.048c0-.011-.025-.036-.036-.047v-.001zm3.338.396l.217-.216a.677.677 0 0 0 .158-.215c0-.096 0-.192.012-.276.011-.096.011-.192.011-.276 0-.096 0-.192-.011-.276-.012-.096-.012-.192-.012-.275l-.181-.216c-.061-.072-.134-.132-.218-.216-.06-.071-.12-.143-.181-.192-.06-.06-.133-.108-.218-.168-.097 0-.194 0-.278-.012-.084-.011-.194-.011-.278-.011-.109 0-.218 0-.315.011-.097.012-.194.012-.278.012l-.181.18c-.06.06-.133.132-.218.18-.072.071-.145.143-.194.215-.049.072-.12.132-.194.216V23.17c.073.072.145.144.194.216.05.071.12.132.194.215.073.072.145.144.218.192.06.06.133.12.217.193H25.57c.073-.072.145-.144.23-.216.085-.072.133-.12.181-.168h-.001zm-2.202-3.261c-.024.036-.024.083-.024.132v.132c.06-.024.109-.024.17-.024h.193l.158-.157c.049-.048.097-.083.158-.132a2.432 2.432 0 0 1-.279-.228 3.17 3.17 0 0 0-.278-.192c-.024.072-.036.144-.06.228a.76.76 0 0 0-.037.24zm0 4.544c0 .096.012.18.025.252.012.071.036.156.06.251.097-.06.182-.12.267-.18.085-.06.17-.132.266-.215h.025l-.06-.06c-.025-.025-.037-.025-.062-.025-.024-.036-.048-.071-.072-.096l-.097-.096h-.398v.072c.01.036.024.06.047.096v.001zm.363-6.176c-.025.06-.036.108-.061.168-.024.06-.036.12-.06.193.133.072.266.168.41.264.146.108.29.204.436.3.024.024.036.048.06.072.025.024.049.047.085.072l.072-.072.073-.072c.133-.096.266-.192.411-.3.145-.108.279-.192.412-.264-.025-.072-.036-.144-.048-.193a.9.9 0 0 0-.048-.168 3.922 3.922 0 0 0-.23-.587c-.086-.168-.146-.312-.23-.42-.098-.107-.17-.192-.243-.251a.274.274 0 0 0-.181-.084.336.336 0 0 0-.217.084c-.061.06-.134.144-.218.251a3.908 3.908 0 0 0-.242.42c-.084.168-.12.36-.181.587zm1.754 7.807a.836.836 0 0 0 .048-.168.9.9 0 0 1 .048-.168 8.406 8.406 0 0 1-.398-.3c-.133-.108-.279-.204-.424-.3a.494.494 0 0 0-.072-.084c-.025-.023-.048-.036-.073-.06-.036.024-.072.047-.097.072l-.072.071a34.64 34.64 0 0 0-.412.3 34.64 34.64 0 0 1-.411.3c.024.06.036.108.06.169.025.06.037.107.061.168.061.228.134.42.218.587.084.168.17.312.242.42.072.108.145.192.217.251.073.06.134.084.218.084.06 0 .12-.024.181-.084.061-.059.145-.143.242-.251.073-.108.145-.252.23-.42.048-.168.121-.36.194-.587zm.375-6.175c-.025-.096-.037-.18-.061-.252-.024-.071-.024-.143-.024-.228-.097.06-.194.12-.279.192a13.72 13.72 0 0 1-.314.229c.06.06.109.107.17.156l.169.132c.06.024.108.024.17.024h.169v-.132-.121zm0 4.544v-.096-.096h-.194a.817.817 0 0 0-.194.024c-.036.024-.073.048-.097.072-.025.024-.048.06-.073.096-.024.024-.036.036-.06.048-.025.011-.037.024-.061.047h.024a2.421 2.421 0 0 0 .532.396c.025-.072.037-.144.061-.229.025-.084.036-.168.06-.264l.002.002zm1.476-5.9c-.133.06-.278.12-.423.193-.145.072-.303.143-.46.228.037.168.073.336.097.491.025.156.048.336.073.516v.191c.206.036.411.072.593.108l.568.108c.036-.06.072-.108.109-.168.036-.06.072-.108.108-.168.134-.24.23-.456.303-.648.06-.192.097-.348.097-.48a.917.917 0 0 0 .012-.311.315.315 0 0 0-.073-.168.201.201 0 0 0-.06-.048c-.025-.012-.037-.024-.061-.048H28.459c-.097 0-.205.012-.326.048-.12.036-.242.108-.387.156zm.653 5.732c-.025-.036-.048-.084-.073-.132-.024-.049-.048-.084-.072-.132a7.78 7.78 0 0 1-.509.096l-.508.072h-.194v.192l-.073.504c-.024.168-.06.324-.097.48.061.024.11.048.145.072.037.024.085.06.145.096.267.132.496.228.677.3a2.6 2.6 0 0 0 .46.132c.133 0 .242 0 .314-.012a.314.314 0 0 0 .17-.072c.024-.024.036-.071.048-.156.012-.084.012-.192.012-.323a1.29 1.29 0 0 0-.11-.444c-.072-.18-.205-.408-.338-.671l.003-.002zm-.992-2.698c.073-.096.145-.192.194-.276.06-.096.12-.192.194-.275-.072 0-.145-.012-.23-.025-.073-.024-.158-.036-.254-.06h-.109a.34.34 0 0 1-.108-.024c0 .06 0 .12.011.18.012.06.012.132.012.18l.109.107c.036.036.06.072.084.108.025 0 .036.011.048.024.012.024.025.048.048.06l.001.001zm0 1.187l-.06.06c-.025.024-.025.036-.025.06-.036.036-.073.072-.109.096a.803.803 0 0 0-.109.097v.359h.097c.025 0 .061-.012.097-.024.097-.025.182-.036.267-.048.085-.012.17-.024.242-.048-.073-.096-.145-.192-.194-.275-.073-.097-.133-.18-.206-.276v-.001zm2.577-.168a2.15 2.15 0 0 0 .242-.216c.072-.072.097-.132.097-.18a.33.33 0 0 0-.085-.215c-.06-.072-.145-.144-.253-.24-.11-.072-.254-.144-.424-.228-.169-.085-.362-.144-.592-.228a.855.855 0 0 0-.17-.048 1.595 1.595 0 0 1-.194-.047c-.072.132-.17.264-.266.395-.097.131-.218.276-.326.42-.025.024-.037.047-.061.071-.025.024-.036.048-.06.072.024.036.047.072.072.096.024.024.048.048.048.072.108.132.217.264.326.408a3.3 3.3 0 0 1 .266.408c.073-.024.145-.036.194-.06.061-.025.11-.036.17-.06.23-.06.423-.133.593-.216.169-.084.314-.132.423-.204z"/>
        <path fill="#2B2826" d="M1.179 15.697c.322.263.75.562 1.286.898a12.348 12.348 0 0 0-.482 1.49c-.125.497-.232.994-.322 1.49A9.344 9.344 0 0 1 .47 17.232 9.037 9.037 0 0 1 0 14.689c.464.409.857.745 1.179 1.008zm-.448-4.674c.037.579.118 1.2.244 1.865.127.608.298 1.208.515 1.8a7.446 7.446 0 0 1-.731-.628c-.217-.188-.47-.434-.759-.738.072-.39.167-.78.284-1.171a7.08 7.08 0 0 1 .447-1.128zm.502-3.222l.315-.443v.16c-.036.055-.054.09-.054.108a.2.2 0 0 1-.135.094.195.195 0 0 0-.126.081zm.009.779l-.01.013a.298.298 0 0 1 .01-.013zm.005 0l-.014.02a.448.448 0 0 1 .014-.02zm-.014-.786c.03-.041.062-.066.094-.074a.469.469 0 0 0 .135-.067l.027-.027.027-.08a.457.457 0 0 0 .027-.188l-.31.436zm.014.786l-.014.02a.448.448 0 0 1 .014-.02zm-.014-.786c.03-.041.062-.066.094-.074a.469.469 0 0 0 .135-.067l.027-.027.027-.08a.457.457 0 0 0 .027-.188l-.31.436zm1.232 9.338l.033.02h-.027a1.837 1.837 0 0 0-.006-.02zm0 0l.033.02h-.027a1.837 1.837 0 0 0-.006-.02zM6.062 6.595a15.386 15.386 0 0 1 3.751-.46l.596.024.684.023c-.882.458-1.71.982-2.482 1.57a16.053 16.053 0 0 0-2.14 1.961 18.12 18.12 0 0 0-1.777 2.293c-.53.81-1.008 1.704-1.434 2.683a17.077 17.077 0 0 1-.772-5.962l.043-.757a13.92 13.92 0 0 1 3.531-1.375zm-4.83 9.61v-.053l.055-.08v-.108c.018-.036.036-.054.054-.054.018.09.045.18.081.269l.163.322a.723.723 0 0 1-.19-.134l-.162-.161zm1.659 2.15a17.148 17.148 0 0 0 3.496 4.369 15.998 15.998 0 0 0 2.208 1.665c.784.491 1.617.924 2.498 1.296-.851 0-1.684-.09-2.498-.268a11.206 11.206 0 0 1-2.365-.805 11.426 11.426 0 0 1-2.04-1.274 11.443 11.443 0 0 1-1.725-1.676c0-.581.038-1.155.112-1.721.075-.566.18-1.095.314-1.587zm1.05-2.31l-.108.215-.135-.35.244.135zm0 0l-.108.215-.135-.35.244.135zm-.243-.135l.244.135-.109.215-.135-.35zm12.057-6.018a13.771 13.771 0 0 1 1.535 2.687c.41.953.713 1.928.908 2.924a16.96 16.96 0 0 1 .29 3.163 16.142 16.142 0 0 1-5.378.91 16.905 16.905 0 0 1-4.942-.747 14.829 14.829 0 0 1-2.274-.921 19.643 19.643 0 0 1-2.196-1.3c.418-1.054.941-2.05 1.569-2.99a15.46 15.46 0 0 1 2.218-2.62 16.475 16.475 0 0 1 2.746-2.113c.978-.6 2.02-1.087 3.126-1.462a.176.176 0 0 1 .067-.022l.045-.043h.045l.09.086c.851.795 1.568 1.61 2.15 2.448zM5.878 4.627a8.823 8.823 0 0 1 2.45-.935c.42.176.9.424 1.44.743.479.303.92.599 1.325.886l-.921-.095a8.514 8.514 0 0 0-.944-.048c-1.004.032-1.941.12-2.81.263-.944.176-1.851.407-2.72.695a11.52 11.52 0 0 1 2.18-1.51zm9.993 15.434c.88-.123 1.753-.315 2.618-.576-.045.631-.142 1.241-.291 1.831-.15.63-.328 1.22-.537 1.77a14.38 14.38 0 0 1-1.622.822c-.544.233-1.108.418-1.69.555a19.106 19.106 0 0 1-2.83-.915 15.99 15.99 0 0 1-2.494-1.306 14.807 14.807 0 0 1-2.204-1.728 15.968 15.968 0 0 1-1.89-2.16c.626.302 1.278.576 1.957.823s1.361.449 2.047.607c.686.157 1.373.277 2.059.36.686.082 1.424.123 2.215.123.88 0 1.767-.068 2.662-.206zM13.716 4.095c.776.25 1.545.654 2.308 1.208-.382.072-.815.17-1.302.296-.42.107-.828.25-1.223.43-.368-.43-.762-.855-1.183-1.276-.42-.42-.828-.774-1.223-1.06h.198c.828 0 1.636.134 2.425.402zM12.57 6.19c.036.035.054.071.054.107a.185.185 0 0 1-.136-.054l-.162-.053c.036 0 .063-.01.081-.027h.054l.055-.027.027.054h.027zm5.168-.054a11.509 11.509 0 0 1 1.804 1.657 11.077 11.077 0 0 1 1.412 2.008 20.963 20.963 0 0 0-2.922-1.964 18.99 18.99 0 0 0-3.24-1.416c.54-.102 1.03-.175 1.472-.22h.025a22.967 22.967 0 0 1 1.449-.065zm4.383 6.823c.044.331.066.634.066.908s-.022.591-.066.951a5.708 5.708 0 0 1-.13.93c-.407.274-.817.527-1.23.757-.415.23-.825.44-1.231.627a15.104 15.104 0 0 0-.272-2.649 17.307 17.307 0 0 0-.686-2.508c-.29-.815-.65-1.608-1.078-2.379a18.29 18.29 0 0 0-1.47-2.238 15.047 15.047 0 0 1 3.288 1.968c.508.418.98.843 1.416 1.276.479.475.907.965 1.284 1.47.03.187.066.469.11.843v.044z"/>
    </g>
</svg>
