<svg xmlns="http://www.w3.org/2000/svg" width="32" height="32" viewBox="0 0 32 32">
    <path fill="#333" fill-rule="nonzero" d="M13.58 28.232l.822 2.512c0 .183-.183.329-.411.329H8.573c-.229 0-.411-.146-.411-.329l.822-2.512h4.595zm8.057-14.863v12.772a1.48 1.48 0 0 1-1.48 1.48H2.407a1.471 1.471 0 0 1-1.48-1.471V13.378c0-.823.658-1.49 1.48-1.49h17.75c.823 0 1.48.659 1.48 1.48v.001zm-2.056.402H2.9v11.51H19.58v-11.51zM31.074.926v20.738h-7.61V11.542c0-.823-.657-1.48-1.48-1.48H16.43l.027-9.135h14.617zm-4.185 4.157h-6.257v3.143h6.257V5.083z"/>
</svg>
