<svg xmlns="http://www.w3.org/2000/svg" width="32" height="32" viewBox="0 0 32 32">
    <g fill="none" fill-rule="evenodd">
        <path fill="#333" d="M12.754 16.434a3.492 3.492 0 0 0-3.479 3.485v2.323H0v-4.356c0-1.905 2.91-3.508 6.957-4.112l.87-.104v-.988a5.265 5.265 0 0 1-.87-.743c-1.067-1.104-1.74-2.707-1.74-4.507 0-3.369 2.33-6.099 5.218-6.099.65 0 1.275.14 1.855.407 1.97.871 3.362 3.09 3.362 5.692 0 2.253-1.055 4.193-2.609 5.25v.988c.314.035.627.081.94.116a3.466 3.466 0 0 0-1.23 2.648zm17.81 6.88h-1.482c-.137 0-.258.055-.394.151a.696.696 0 0 0-.246.327l-.53 1.266a.687.687 0 0 0-.054.409c.028.15.081.272.163.367l1.087 1.062a.535.535 0 0 1 .123.354.502.502 0 0 1-.123.34l-1.495 1.499a.46.46 0 0 1-.68 0l-1.06-1.062a.59.59 0 0 0-.381-.177.612.612 0 0 0-.394.054l-1.264.532a.64.64 0 0 0-.34.232.633.633 0 0 0-.137.394v1.526a.453.453 0 0 1-.136.341.471.471 0 0 1-.353.15h-2.107a.46.46 0 0 1-.34-.15.467.467 0 0 1-.15-.341v-1.526a.662.662 0 0 0-.137-.394.597.597 0 0 0-.34-.246l-1.25-.532c-.123-.054-.258-.081-.408-.054a.666.666 0 0 0-.367.177l-1.06 1.062a.551.551 0 0 1-.366.15.461.461 0 0 1-.34-.15l-1.482-1.498a.461.461 0 0 1 0-.682l1.06-1.062a.593.593 0 0 0 .176-.38.722.722 0 0 0-.053-.396l-.53-1.266a.668.668 0 0 0-.246-.34.63.63 0 0 0-.394-.138H13.01a.451.451 0 0 1-.34-.136.472.472 0 0 1-.15-.354v-2.11c0-.137.055-.246.15-.342a.451.451 0 0 1 .34-.136h1.523c.136 0 .258-.054.394-.15a.696.696 0 0 0 .245-.328l.53-1.252c.054-.123.082-.259.054-.423a.625.625 0 0 0-.176-.367l-1.06-1.09a.461.461 0 0 1 0-.682l1.482-1.497a.533.533 0 0 1 .353-.123c.135 0 .257.041.352.123l1.06 1.089a.755.755 0 0 0 .775.109l1.25-.504a.786.786 0 0 0 .34-.258.597.597 0 0 0 .137-.381v-1.526c0-.15.053-.258.15-.354a.453.453 0 0 1 .34-.136h2.107c.136 0 .245.041.34.136.095.096.15.205.15.354v1.498c0 .137.042.258.137.395a.667.667 0 0 0 .34.246l1.25.531a.684.684 0 0 0 .408.054.666.666 0 0 0 .367-.177l1.06-1.062a.494.494 0 0 1 .352-.15c.136 0 .246.054.34.15l1.496 1.485a.6.6 0 0 1 .123.367.502.502 0 0 1-.123.341l-1.087 1.062a.758.758 0 0 0-.11.776l.531 1.266a.586.586 0 0 0 .245.327.709.709 0 0 0 .395.123h1.495a.46.46 0 0 1 .34.15c.081.123.136.232.136.354v2.111c0 .15-.053.258-.15.354a.453.453 0 0 1-.34.136l.001.003z"/>
        <path fill="#FFF" d="M21.81 25.942c.544 0 1.046-.109 1.522-.313a3.921 3.921 0 0 0 2.08-2.07 3.828 3.828 0 0 0 0-3.037 3.915 3.915 0 0 0-.842-1.241 3.876 3.876 0 0 0-1.238-.831 3.808 3.808 0 0 0-1.523-.314c-.544 0-1.046.11-1.522.314a3.921 3.921 0 0 0-2.08 2.07 3.828 3.828 0 0 0-.001 3.038 3.928 3.928 0 0 0 2.08 2.07c.477.205.98.314 1.523.314z"/>
    </g>
</svg>
