<svg xmlns="http://www.w3.org/2000/svg" width="32" height="32" viewBox="0 0 32 32">
    <path fill="#2B2826" fill-rule="evenodd" d="M30.227 2.41c.058.096.101.202.13.317.029.115.043.259.043.431v13.696a8.41 8.41 0 0 0-1.352-1.9 9.271 9.271 0 0 0-1.842-1.524V4.31H4.794v14.414h8.027c-.154.46-.264.916-.331 1.366-.067.451-.1.926-.1 1.424v.375H3.671c-.135 0-.298-.01-.49-.03-.095 0-.22-.028-.374-.086a1.776 1.776 0 0 1-.316-.201 1.093 1.093 0 0 1-.259-.316l-.259-.346c-.058-.076-.13-.177-.216-.302a.929.929 0 0 1-.158-.33 2.383 2.383 0 0 1-.029-.432V3.158c0-.172.02-.316.058-.431l.115-.374c.057-.115.125-.226.201-.331.077-.106.173-.197.288-.273a1.75 1.75 0 0 1 .259-.202l.403-.259c.096-.057.215-.1.36-.13.143-.028.282-.042.417-.042h25.117c.096.019.22.057.374.115.115.038.225.1.33.187.106.086.197.196.274.33l.46.662zm-8.976 8.574v.95a8.956 8.956 0 0 0-1.669.287 7.16 7.16 0 0 0-1.554.547.309.309 0 0 0 .058-.1c.02-.049.038-.111.057-.188l.058-.172a.748.748 0 0 0 .029-.23v-.46l-.029-.202-.058-.26-.086-.172-.086-.201a.67.67 0 0 0-.115-.173l-.26-.345-.143-.144-.288-.201-.46-.202-.23-.057-.46-.029-.461.029-.173.057a.396.396 0 0 0-.201.087.396.396 0 0 0-.201.086l-.346.23a.494.494 0 0 0-.143.144l-.173.173-.086.143-.116.202a.396.396 0 0 0-.086.201l-.086.173-.115.46.029.46.028.202.058.201c.038.096.067.163.086.202l.173.374.288.345.345.259a.67.67 0 0 0 .172.115l.374.144a.66.66 0 0 0 .202.057l.201.058h.23a4.083 4.083 0 0 0-.719.604c-.25.23-.46.46-.633.69l-.575-.23-.26.03-.69.69h-.057l-.087.057v.03h-.143l-.03-.03-.114-.057-.835-.835-.028-.115c-.02 0-.03-.019-.03-.057v-.115l.03-.115.057-.03c.02 0 .029-.009.029-.028l.662-.604v-.058c.019-.019.028-.038.028-.057v-.087l.03-.115-.058-.057-.317-.748v-.058c0-.019-.005-.033-.014-.043l-.043-.043-.173-.086-.115-.03h-.892c-.02 0-.038-.009-.058-.028l-.028-.029h-.087v-.057l-.057-.029v-.086l-.029-.058v-1.18l.029-.115.144-.115c0-.019.01-.028.028-.028h1.094l.057-.03c.02-.018.029-.038.029-.057v-.028l.058-.03c.019 0 .033-.009.043-.028a.128.128 0 0 0 .014-.058v-.057l.317-.662v-.057l.057-.087-.029-.172c0-.02-.01-.039-.028-.058l-.058-.115-.604-.575-.029-.058-.057-.086v-.115c0-.02.01-.03.028-.03l.058-.114.834-.806.029-.057c.02-.02.038-.03.058-.03h.2l.749.663c0 .019.005.033.014.043.01.01.034.014.072.014l.058.058.201.028.058-.028.057-.058.69-.23.058-.058h.058l.173-.2.028-.145v-.92l.03-.087.028-.057c0-.02.01-.034.029-.043a.128.128 0 0 1 .057-.015h1.468l.057.058v.057l.029.058c.019 0 .029.01.029.029v.92c0 .02.01.048.028.087l.03.115.085.115c.039 0 .068.01.087.028l.748.288.057.029.03.029.2-.03.116-.057.69-.69c.02-.02.038-.029.058-.029h.23c0 .02.01.038.029.058.019.019.028.038.028.057l.864.806.028.115c.02.02.03.048.03.086v.087l-.03.143-.633.576c0 .038-.019.077-.057.115-.096 0-.144.01-.144.029v.057c-.02.02-.029.039-.029.058v.144l.058.028.287.748v.058l.058.058c.038.038.067.057.086.057l.058.058h1.007l.057.028c.02 0 .03.01.03.03l.057.028c.019 0 .028.01.028.029l.058.057h.029zm-8.574 12.832c.134.537.302 1.04.503 1.51.202.47.456.945.763 1.425H12.13l-.201-.029-.086-.057v-.087a.319.319 0 0 0-.015-.1c-.01-.03-.033-.053-.072-.072l-.086-.058v-.115l1.007-2.417zM27.782 19.3c.863.23 1.515.532 1.956.906.441.374.662.81.662 1.31 0 .23-.058.455-.173.676-.115.22-.297.426-.546.618a5.79 5.79 0 0 1-.835.49c-.326.153-.68.297-1.064.43a.255.255 0 0 1-.115.03h-.115l.057.115c.02.019.029.038.029.057.288.557.49 1.026.604 1.41.115.384.163.7.144.95a3.241 3.241 0 0 1-.144.69 1.71 1.71 0 0 1-.259.46.768.768 0 0 1-.201.144l-.26.144a.604.604 0 0 1-.316.086l-.374.03c-.172 0-.335-.01-.489-.03a46.326 46.326 0 0 1-.518-.143c-.23-.077-.44-.154-.633-.23l-.719-.346a.18.18 0 0 0-.072-.043.79.79 0 0 1-.1-.043l-.058.23a5.09 5.09 0 0 1-.432 1.036c-.134.287-.307.57-.517.848-.211.279-.403.466-.576.562-.288.172-.527.258-.72.258a1.41 1.41 0 0 1-.704-.187 1.81 1.81 0 0 1-.59-.56 5.512 5.512 0 0 1-.92-1.899l-.087-.23-.086.028-.087.058c-.191.115-.431.23-.719.345-.192.077-.393.153-.604.23a5.577 5.577 0 0 1-.518.115h-.057a1.46 1.46 0 0 1-.403.058 3.49 3.49 0 0 1-.432-.03.584.584 0 0 1-.316-.114.797.797 0 0 1-.245-.115.663.663 0 0 1-.187-.173 1.062 1.062 0 0 1-.288-.431 2.576 2.576 0 0 1-.158-.662c-.029-.25.024-.585.158-1.007.116-.365.317-.825.605-1.381l.115-.173c-.02-.019-.067-.029-.144-.029l-.115-.028a8.388 8.388 0 0 1-1.065-.403 5.141 5.141 0 0 1-.863-.518 1.813 1.813 0 0 1-.518-.575 1.419 1.419 0 0 1-.172-.691c0-.499.215-.935.647-1.31.432-.373 1.098-.685 2-.934h.115l.143-.058-.115-.172c-.287-.537-.493-.993-.618-1.367s-.168-.705-.13-.993a3.18 3.18 0 0 1 .144-.661 1.35 1.35 0 0 1 .288-.46 1.28 1.28 0 0 1 .619-.346c.24-.057.513-.067.82-.029.306.039.613.115.92.23a10 10 0 0 1 1.093.432l.173.144.058-.23c.115-.326.259-.681.431-1.065.115-.268.278-.546.49-.834.191-.25.397-.436.618-.561a1.384 1.384 0 0 1 1.367-.015c.21.116.417.298.618.547.202.25.379.528.532.834.154.307.298.662.432 1.065 0 .02.01.058.029.115l.028.144.202-.115c.364-.192.72-.35 1.064-.475.346-.125.667-.206.964-.244a1.77 1.77 0 0 1 .791.057c.23.077.442.202.633.374.116.115.207.264.274.446.067.182.115.412.144.69.028.279-.024.6-.159.964-.153.442-.354.902-.604 1.381l-.115.202h.202c.038-.038.076-.048.115-.029h-.03zm-12.688 2.79c.153.116.355.231.604.346.192.077.46.173.805.288l.518.115.374-.547c.058-.096.154-.23.288-.402l.144-.173.173-.23-.087-.087-.518-.661-.374-.576-.259.087-.259.057c-.345.096-.613.201-.805.317-.25.115-.446.225-.59.33a2.278 2.278 0 0 0-.345.303c-.086.095-.13.187-.13.273 0 .086.03.172.087.259.057.086.182.187.374.302zm4.143 4h.029l.172-.086a8.835 8.835 0 0 1-.144-.69l-.115-.72v-.288h-.144l-1.496-.23-.144.173c-.057.076-.086.144-.086.201a5.673 5.673 0 0 0-.46.964c-.096.278-.144.494-.144.647-.02.192-.014.336.014.432a.487.487 0 0 0 .101.201c.038.039.1.067.187.087.086.019.235.019.446 0 .21-.02.436-.072.676-.159.24-.086.542-.225.906-.417l.202-.115zm-1.928-7.538c0 .02.02.058.058.115l.23.317c.268-.058.537-.106.805-.144l.806-.115v-.144a.32.32 0 0 1 .029-.144l.086-.72c.038-.249.086-.479.144-.69-.269-.153-.48-.268-.633-.345l-.575-.259-.576-.173a1.42 1.42 0 0 0-.431-.086h-.173a.79.79 0 0 1-.1.043.18.18 0 0 0-.073.043l-.086.058c-.038.038-.067.115-.086.23v.432c.019.21.067.431.144.661.134.346.278.653.431.921zm1.381 2.13l.058-.058.057-.087a.617.617 0 0 0 .144-.115l.144-.172v-.23c0-.077.01-.164.029-.26h-.288l-.69.144c.057.058.124.144.2.26l.346.517zm0 1.64v.028l-.547.777.691.144h.115l.144.028v-.287c0-.077-.01-.173-.029-.288a.943.943 0 0 0-.115-.144l-.115-.086-.058-.087-.086-.086zm4.69.546c.096-.096.182-.192.259-.288l.287-.259.03-.806-.03-.776a4.087 4.087 0 0 1-.273-.302 2.247 2.247 0 0 0-.302-.303l-.547-.517a1.906 1.906 0 0 0-.402-.03h-.806c-.096 0-.23.01-.403.03a1.653 1.653 0 0 0-.259.259l-.287.258-.547.605v1.582l.834.834c.115.116.22.202.317.26l.748.028.805-.029.576-.546zm-3.107-4.575v.173l-.03.144h.26l.23-.03.431-.373-.776-.576-.115.662zm0 6.387a.4.4 0 0 1 .028.173l.115.518c.096-.058.221-.144.374-.26l.432-.287-.144-.144c-.077-.019-.125-.048-.144-.086l-.115-.115-.546-.029v.23zm.517-8.66a.892.892 0 0 0-.057.202l-.086.316 1.18.806.057.086.086.086.201-.172.605-.432c.115-.077.307-.201.575-.374l-.144-.518a13.99 13.99 0 0 0-.316-.805 3.34 3.34 0 0 0-.331-.576 1.829 1.829 0 0 0-.317-.36.421.421 0 0 0-.259-.1.446.446 0 0 0-.273.115 2.758 2.758 0 0 0-.316.288l-.317.633c-.077.115-.163.335-.259.661l-.029.144zm2.446 10.962c0-.038.01-.086.029-.144l.029-.086a.677.677 0 0 1 .086-.26 6.38 6.38 0 0 1-.604-.373l-.662-.547-.115-.057-.173.172-.604.432a9.764 9.764 0 0 1-.575.374l.143.489c.115.345.221.623.317.834.115.25.22.442.316.576.135.172.25.292.346.36.096.067.187.1.273.1a.392.392 0 0 0 .259-.115c.086-.077.182-.187.288-.33.105-.145.215-.341.33-.59.058-.116.135-.317.23-.605l.087-.23zm.518-2.273v-.144l.029-.144a1.21 1.21 0 0 1-.288.03h-.288l-.144.143-.086.115-.144.144c.173.134.297.23.374.288l.403.259.144-.69zm0-6.416a.4.4 0 0 1-.029-.173l-.086-.489-.806.547.288.259a.819.819 0 0 0 .173.144l.489.029-.03-.317zm2.848 5.956c-.038-.02-.077-.067-.115-.144l-.029-.058c-.23.058-.46.106-.69.144l-.72.115h-.115l-.143.03v.085l-.115.864a6.23 6.23 0 0 1-.144.69l.402.23c.327.173.633.307.921.403.23.096.45.153.662.173.153 0 .292-.005.417-.015.125-.01.201-.033.23-.072a.717.717 0 0 0 .087-.23c.028-.115.038-.259.028-.431a2.317 2.317 0 0 0-.158-.648 8.174 8.174 0 0 0-.431-.935c0-.038-.03-.105-.087-.201zm-.834-7.826c-.077.038-.202.096-.374.173l-.806.402.115.69c.058.25.096.49.115.72v.317h.03l.805.086.805.144.26-.374c.21-.384.364-.715.46-.993.096-.278.143-.494.143-.647 0-.154-.01-.283-.028-.389a1.88 1.88 0 0 0-.058-.244l-.172-.115-.26-.029c-.134 0-.287.029-.46.086l-.575.173zm-.46 4.258c.153-.192.258-.326.316-.403.096-.153.182-.278.259-.374l-.69-.144h-.26l.03.518c.018.039.057.087.114.144l.23.26zm0 1.64l-.144.115c-.02.077-.048.13-.087.158a.522.522 0 0 0-.115.13l-.029.547h.144l.835-.144a3.673 3.673 0 0 1-.302-.403 9.954 9.954 0 0 0-.274-.403h-.029zm3.567-.23c.173-.096.297-.197.374-.302.077-.106.115-.197.115-.274 0-.076-.043-.172-.13-.287a1.258 1.258 0 0 0-.33-.302 6.89 6.89 0 0 0-.604-.331 6.425 6.425 0 0 0-.806-.317l-.518-.115a5.722 5.722 0 0 1-.374.547l-.604.777.604.805.374.547.317-.058c.096-.038.163-.067.201-.086.326-.096.595-.192.806-.288l.144-.057c.21-.096.354-.182.431-.26z"/>
</svg>
