<svg xmlns="http://www.w3.org/2000/svg" width="32" height="32" viewBox="0 0 32 32">
    <path fill="#333" fill-rule="nonzero" d="M11.86 4.564h16.667v12.084h-4.87v2.846c-.863-.565-2.64-1.603-3.586-2.404-.483-.4-1.715-.452-2.435-.452h-5.785V4.503l.01.062zm-.657-2.374c-1.007 0-1.715.709-1.715 1.716v13.162c0 1.007.708 1.716 1.715 1.716h6.577c.144 0 .287.02.287.02s7.892 4.738 8.025 4.738v-4.758h3.01c1.008 0 1.716-.709 1.716-1.716V3.906c0-1.007-.708-1.716-1.715-1.716h-17.9zm3.278 20.212h-1.44c-.564 0-1.181-.052-2.434.565-1.007.708-2.59 1.439-3.586 2.004V22.4H2.367V10.493h4.747V8.118H1.719c-1.007 0-1.715.864-1.715 1.716v13.162c0 1.007.708 1.716 1.715 1.716h3.02v4.696c.145 0 7.152-3.987 8.016-4.552.143 0 .143-.144.287-.144h10.101c0 .144-4.069-2.374-4.069-2.374l-4.593.062v.002z"/>
</svg>
