<svg xmlns="http://www.w3.org/2000/svg" width="32" height="32" viewBox="0 0 32 32">
    <path fill="#333" fill-rule="evenodd" d="M2.406 1.087h2.388v2.388h-.806v.403H1.571V1.49h.835v-.403zm-.835 4h2.417v2.387H1.571V5.086zm0 3.624h2.417V11.1H1.571V8.711zm2.417 3.597v2.388H1.571v-2.388h2.417zm-2.417 3.596h2.417v2.388H1.571v-2.388zm0 3.596h2.417v2.389H1.571V19.5zm0 3.626h2.417v2.388H1.571v-2.388zm2.417 4.373h.374v2.417H1.974v-.806h-.403v-2.388h2.417v.777zm1.611 0h2.388v2.417H5.6v-2.417zm1.64-7.337c.25 0 .475.043.676.13a1.683 1.683 0 0 1 .892.892c.087.201.13.412.13.633 0 .22-.043.431-.13.633a1.913 1.913 0 0 1-.374.56 1.59 1.59 0 0 1-1.18.518 1.59 1.59 0 0 1-1.18-.517 1.512 1.512 0 0 1-.344-.561 1.988 1.988 0 0 1-.101-.633c0-.221.034-.432.1-.633.068-.202.183-.38.346-.533.163-.153.345-.273.547-.36.201-.086.407-.129.618-.129zM6.002 1.087H8.39v2.388H6.002V1.087zm4 17.838L8.993 20.22l-.633-.518 1.036-1.295.604.518zm1.582 8.574v2.417H9.196v-2.417h2.388zM9.598 1.087h2.388v2.388H9.598V1.087zm1.813 14.76l.662.517-1.065 1.295-.604-.547 1.007-1.265zm1.554-.605l-.662-.546 1.007-1.266.662.546-1.007 1.266zM12.792 27.5h1.726a5.8 5.8 0 0 0 .317.403l.345.402v1.612h-2.388v-2.417zm.432-26.412h2.388v2.388h-2.388V1.087zm.374 20.715c.23.25.465.49.704.72.24.23.504.46.792.69l-.03.173c-.133.44-.22.767-.258.978a8.038 8.038 0 0 0-.201 1.15 8.006 8.006 0 0 1-.72-1.798 8.328 8.328 0 0 1-.287-1.913zm.086-1.467c.038-.288.096-.59.173-.906.076-.317.163-.61.258-.878.039.422.096.902.173 1.439.058.44.163.91.317 1.41l-.46-.518c-.077-.058-.173-.173-.288-.346l-.173-.201zm1.295-7.682l-.633-.49 1.035-1.294.633.49-1.035 1.294zm.201 3.913v.172l-.201.116.201-.288zm.575 5.092a15.582 15.582 0 0 1-.489-1.87 9.7 9.7 0 0 1-.172-1.899l.057-1.15a11.35 11.35 0 0 1 2.676-.993c.94-.22 1.899-.331 2.877-.331h.49c.114 0 .277.01.488.029a13.995 13.995 0 0 0-3.524 2.618 11.996 11.996 0 0 0-2.403 3.596zm-.604 1.468v-.058c0-.019.01-.029.029-.029l.173.374-.115-.057-.144-.115c.019-.02.028-.039.028-.058l.03-.057zm.777-12.775a1.813 1.813 0 0 1-.345-.56 1.724 1.724 0 0 1 0-1.238c.077-.201.201-.393.374-.575.172-.183.36-.312.56-.389.202-.077.408-.115.62-.115.21 0 .421.038.632.115.211.077.398.197.561.36.164.163.288.345.374.547.087.2.13.412.13.632 0 .221-.043.437-.13.648a1.744 1.744 0 0 1-.388.575 1.34 1.34 0 0 1-.532.36c-.22.086-.441.13-.662.13a1.55 1.55 0 0 1-.647-.144 2.216 2.216 0 0 1-.547-.346zm-.086 14.07a13.366 13.366 0 0 0 2.618 3.236c1.017.911 2.196 1.674 3.539 2.287a8.168 8.168 0 0 1-1.87-.215 8.797 8.797 0 0 1-1.77-.619 7.981 7.981 0 0 1-1.539-.95 9.026 9.026 0 0 1-1.295-1.265c.02-.576.048-1.007.087-1.295.057-.422.134-.815.23-1.18zm.316-1.64l.144.115-.057.086-.087-.202zm7.394-7.05c.02.02.048.039.087.058h.057a14.224 14.224 0 0 1 1.64 1.899c.441.614.82 1.29 1.137 2.028.316.739.551 1.51.705 2.316.153.825.23 1.64.23 2.446-.614.21-1.266.379-1.957.503-.69.125-1.38.187-2.071.187-1.324 0-2.57-.191-3.74-.575a12.465 12.465 0 0 1-3.338-1.697c.307-.844.695-1.626 1.165-2.345.47-.72 1.017-1.391 1.64-2.014a12.246 12.246 0 0 1 2.057-1.655c.69-.44 1.487-.824 2.388-1.15zm-2.82-1.352c-.69 0-1.385.053-2.085.158-.7.106-1.386.274-2.057.504.518-.403 1.07-.753 1.654-1.05a7.493 7.493 0 0 1 1.798-.648c.326.116.69.288 1.094.518.345.192.671.394.978.605l-.72-.087h-.661zM16.82 1.087h2.388v2.388H16.82V1.087zm.345 23.535c.978.518 1.985.901 3.021 1.15 1.036.25 2.1.375 3.194.375.671 0 1.352-.048 2.043-.144a9.774 9.774 0 0 0 1.927-.46c-.038.479-.11.968-.216 1.467a9.963 9.963 0 0 1-.417 1.438 7.391 7.391 0 0 1-1.237.72 6.584 6.584 0 0 1-1.266.431 12.008 12.008 0 0 1-3.999-1.812c-1.17-.806-2.187-1.86-3.05-3.165zm3.251-23.535h2.388v2.79h-2.388v-2.79zm0 4h2.388v2.387h-2.388V5.086zm2.388 3.624V11.1h-2.388V8.711h2.388zm-.978 4.374H22c.71 0 1.405.086 2.086.258.68.173 1.338.432 1.97.777-.364.039-.728.096-1.093.173-.326.057-.69.153-1.093.288a22.115 22.115 0 0 0-.993-.82c-.24-.183-.59-.408-1.05-.676zm7.768 4.804a11.71 11.71 0 0 0-2.014-1.539 14.282 14.282 0 0 0-2.244-1.079 5.83 5.83 0 0 1 1.007-.172c.384-.039.72-.058 1.007-.058.499.403.92.834 1.266 1.295.422.537.748 1.055.978 1.553zm.72 2.244l.086.662v1.468c-.02.172-.058.412-.115.719-.269.192-.57.383-.906.575-.336.192-.667.365-.993.518a13.056 13.056 0 0 0-.734-4.057 11.996 11.996 0 0 0-1.97-3.51c.901.384 1.745.883 2.531 1.496.73.557 1.43 1.266 2.1 2.13zm-2.043 6.129c.057-.365.096-.73.115-1.094a5.63 5.63 0 0 0 .777-.345l.748-.403a8.523 8.523 0 0 1-.763 1.54c-.297.47-.656.916-1.078 1.338.057-.23.124-.576.2-1.036z"/>
</svg>
