<svg xmlns="http://www.w3.org/2000/svg" width="32" height="32" viewBox="0 0 32 32">
    <path fill="#333" fill-rule="nonzero" d="M11.975 27.126a11.488 11.488 0 0 0 2.474 3.31l-.27.16a1.233 1.233 0 0 1-1.268 0L1.834 23.853a1.24 1.24 0 0 1-.59-1.07L1.23 9.218c0-.443.221-.849.603-1.07L12.91 1.403a1.233 1.233 0 0 1 1.267 0l11.065 6.745c.382.221.603.627.603 1.07v2.228a11.446 11.446 0 0 0-3.692-.615c-1.317 0-2.585.221-3.766.64l3.827-2.265-8.677-5.28-8.676 5.28 8.676 5.145 1.084-.64a11.281 11.281 0 0 0-2.314 2.855v-.05L3.692 11.41V22.08l8.283 5.046zm18.794-4.972c0 .283-.012.554-.037.824a7.346 7.346 0 0 1-.11.751c0 .05-.013.086-.025.136a1.288 1.288 0 0 1-.05.209 4.606 4.606 0 0 1-.147.59.848.848 0 0 0-.037.1 6.33 6.33 0 0 1-.246.676 7.954 7.954 0 0 1-.899 1.65 5.068 5.068 0 0 1-.393.504c-.173.221-.37.443-.579.652-.21.21-.43.406-.652.579-.16.147-.332.27-.505.393-.517.37-1.07.665-1.649.899a6.33 6.33 0 0 1-.677.246c-.037.012-.074.025-.098.037-.185.062-.394.11-.591.148a1.288 1.288 0 0 1-.21.049c-.036.012-.073.012-.11.025-.246.049-.492.086-.75.11a9.517 9.517 0 0 1-.838.037h-.024c-.296 0-.591-.012-.874-.049a6.17 6.17 0 0 1-.813-.123c-.086-.012-.16-.037-.246-.05-.135-.036-.258-.06-.381-.098-.099-.024-.197-.061-.283-.086-.062-.025-.123-.037-.185-.061a2.891 2.891 0 0 1-.455-.173 4.769 4.769 0 0 1-.677-.307c-.111-.05-.222-.111-.32-.173a5.344 5.344 0 0 1-.566-.344 5.97 5.97 0 0 1-.345-.247c-.037-.036-.086-.061-.123-.098a1.243 1.243 0 0 1-.197-.16 6.579 6.579 0 0 1-.615-.554c-.21-.21-.407-.43-.579-.652a4.53 4.53 0 0 1-.37-.48 7.81 7.81 0 0 1-.344-.53 7.06 7.06 0 0 1-.492-.96 5.328 5.328 0 0 1-.197-.467c-.025-.062-.037-.123-.062-.172-.061-.173-.11-.345-.16-.517a5.379 5.379 0 0 1-.147-.603 7.8 7.8 0 0 1-.173-1.773c0-.246.013-.492.05-.726a4.27 4.27 0 0 1 .074-.554c.012-.123.024-.246.049-.357.037-.197.086-.406.147-.603.05-.197.111-.394.185-.59.074-.197.148-.382.234-.579.135-.32.308-.64.492-.948v-.012c.099-.172.21-.332.32-.505.123-.172.246-.344.394-.504.172-.222.37-.443.579-.652.209-.21.43-.407.652-.579.16-.148.332-.27.504-.394.099-.061.185-.123.284-.184l.369-.222c.061-.05.135-.086.209-.123.197-.11.394-.21.603-.283.197-.086.382-.16.579-.234a5.44 5.44 0 0 1 .59-.185c.197-.061.406-.11.603-.147a8.677 8.677 0 0 1 2.93-.074c.16.012.32.037.48.074.197.037.406.086.603.147.172.05.344.099.517.16.049.025.11.037.172.062.16.062.32.123.468.197.073.025.147.061.221.098.136.062.27.123.406.197.136.074.259.148.394.234.148.086.296.185.443.283.173.123.345.246.505.394.221.172.443.37.652.579.21.209.406.43.579.652.147.16.27.332.393.504.444.64.8 1.33 1.047 2.044.073.196.135.393.184.59.062.197.111.406.148.603.012.062.025.111.025.173.049.209.086.418.098.64.037.295.05.59.05.886zm-4.923-.002c0-.126-.005-.253-.02-.38a1.566 1.566 0 0 0-.043-.274c0-.026-.005-.048-.01-.074a2.307 2.307 0 0 0-.064-.259 3.621 3.621 0 0 0-.527-1.13 2.173 2.173 0 0 0-.17-.215 3.037 3.037 0 0 0-.527-.528 2.172 2.172 0 0 0-.216-.169c-.063-.042-.126-.084-.19-.121a2.628 2.628 0 0 0-.343-.185c-.031-.016-.063-.031-.094-.042a2.282 2.282 0 0 0-.2-.084c-.027-.011-.054-.016-.075-.027-.074-.026-.147-.047-.221-.068a2.304 2.304 0 0 0-.259-.064 1.386 1.386 0 0 0-.205-.031 3.717 3.717 0 0 0-1.256.031 2.304 2.304 0 0 0-.258.064 2.33 2.33 0 0 0-.253.079 4.873 4.873 0 0 0-.248.1c-.09.032-.174.074-.259.121a82741.894 82741.894 0 0 0-.248.148l-.12.08c-.075.052-.148.105-.217.168a3.037 3.037 0 0 0-.527.528c-.064.068-.117.142-.17.216-.047.074-.094.143-.136.217v.005c-.08.132-.153.269-.211.406a4.878 4.878 0 0 0-.1.248 2.333 2.333 0 0 0-.08.253 2.307 2.307 0 0 0-.063.26c-.01.047-.016.1-.021.152-.016.08-.026.158-.032.238a3.346 3.346 0 0 0 .053 1.071c.016.084.037.174.063.258.021.074.043.148.069.222.01.021.016.047.026.074.027.068.053.137.085.2a3.349 3.349 0 0 0 .517.844c.073.096.158.19.247.28.085.085.17.164.264.238a.533.533 0 0 0 .085.068c.015.016.036.027.052.043.048.037.1.074.148.105.08.053.158.106.243.148.042.026.09.053.137.074.095.053.19.095.29.132.063.031.126.053.195.074.026.01.053.015.079.026.037.01.08.026.121.037.053.016.106.026.164.042.037.005.068.016.105.021.116.027.232.042.348.053.122.016.248.021.375.021h.01a3.147 3.147 0 0 0 .68-.063c.017-.005.032-.005.048-.01a.552.552 0 0 0 .09-.022 1.973 1.973 0 0 0 .295-.079c.1-.032.195-.063.29-.106a3.408 3.408 0 0 0 .923-.554 3.037 3.037 0 0 0 .528-.527c.063-.069.116-.143.169-.217.158-.221.284-.459.385-.707.042-.095.073-.19.105-.29a.552.552 0 0 0 .1-.385c.006-.021.01-.037.01-.058a3.151 3.151 0 0 0 .064-.676z"/>
</svg>
