<svg xmlns="http://www.w3.org/2000/svg" width="32" height="32" viewBox="0 0 32 32">
    <path fill="#333" fill-rule="nonzero" d="M19.407.911H5.962c-1.387 0-2.563 1.145-2.563 2.563v25.052c0 1.386 1.145 2.563 2.563 2.563h19.234c1.386 0 2.562-1.145 2.562-2.563V9.262c0-.694-.24-1.386-.814-1.96l-5.577-5.577c-.573-.573-1.145-.814-1.96-.814zm1.388 3.377l3.467 3.588h-3.467V4.288zm4.763 24.208c0 .12-.12.361-.361.361H5.963c-.12 0-.362-.12-.362-.361V3.474c0-.241.12-.362.362-.362H18.624v5.789c0 .573.452 1.145 1.146 1.145h5.908v18.45h-.12zM14.071 9.924c.09-.097.13-.076.22-.076h1.84c.08 0 .17.011.261.097.09.086.09.184.09.28v1.695c0 .097 0 .183-.01.28-.07.108-.16.108-.25.108h-1.85c-.08 0-.17-.011-.26-.097-.081-.087-.081-.184-.081-.28v-1.695c0-.097-.04-.215.04-.312zm4.39 13.028c0 .115-.109.218-.109.45-.097.115-.206.115-.316.115h-5.303a.423.423 0 0 1-.316-.116c-.11-.102-.11-.217-.11-.333v-2.013c0-.102 0-.217.11-.333.097-.115.207-.115.316-.115H13.9v-4.026h-1.167a.423.423 0 0 1-.316-.116c-.11-.102-.11-.217-.11-.333V14.03a.35.35 0 0 1 .34-.359h3.796c.097 0 .206 0 .316.116.11.102.11.217.11.333v6.373h1.167c.097 0 .207 0 .316.115.11.103.11.218.11.333v2.013z"/>
</svg>
