<svg xmlns="http://www.w3.org/2000/svg" width="32" height="32" viewBox="0 0 32 32">
    <path fill="#000" fill-rule="nonzero" d="M14.673 16.729l1.226.977-1.943 2.466-1.225-.977 1.942-2.466zm-5.811 7.383l1.225.977 1.943-2.466-1.226-.977-1.942 2.466zm7.752-9.85l1.226.977 1.943-2.45-1.226-.977-1.943 2.45zM20.5 9.345l1.226.977 1.942-2.466-1.225-.977-1.943 2.466zM25.881.601a3.05 3.05 0 0 0-3.04 3.059 3.04 3.04 0 0 0 3.04 3.059 3.04 3.04 0 0 0 3.041-3.059 3.04 3.04 0 0 0-3.04-3.059zM6.76 25.281a3.05 3.05 0 0 0-3.04 3.059 3.04 3.04 0 0 0 3.04 3.059A3.04 3.04 0 0 0 9.8 28.34a3.04 3.04 0 0 0-3.04-3.059z"/>
</svg>
