<svg xmlns="http://www.w3.org/2000/svg" width="32" height="32" viewBox="0 0 32 32">
    <path fill="#000" fill-rule="nonzero" d="M29.014 3.649c.402.166.766.41 1.105.717.3.333.54.704.703 1.102.162.397.25.846.25 1.32V25.2a3.436 3.436 0 0 1-.954 2.395c-.326.333-.702.59-1.105.755a3.33 3.33 0 0 1-1.281.257H4.255c-.477 0-.904-.09-1.294-.257a3.394 3.394 0 0 1-1.784-1.844 3.497 3.497 0 0 1-.25-1.294V6.788c0-.461.087-.884.25-1.282.164-.397.402-.769.703-1.102.327-.333.691-.59 1.08-.755.39-.166.818-.257 1.295-.257h23.477c.452 0 .879.09 1.28.257h.002zM27.67 7.044c0-.218-.05-.422-.139-.628a2.121 2.121 0 0 0-.39-.563 1.479 1.479 0 0 0-1.13-.512H4.443c-.213 0-.414.039-.615.128-.214.09-.39.218-.528.384a1.61 1.61 0 0 0-.364.538c-.088.192-.126.41-.126.654v17.912c0 .244.038.46.126.654.087.193.2.371.376.538a1.479 1.479 0 0 0 1.13.512H26.01c.214 0 .414-.039.616-.128.201-.09.376-.205.515-.384.163-.167.3-.345.39-.538.1-.192.138-.41.138-.654V7.045zm1.733 10.058a.885.885 0 0 0 .402-.09c.125-.063.24-.14.339-.23a1.4 1.4 0 0 0 .226-.359.834.834 0 0 0 .087-.397.973.973 0 0 0-.087-.436 2.898 2.898 0 0 0-.226-.359.893.893 0 0 0-.339-.23.873.873 0 0 0-.402-.09.923.923 0 0 0-.427.09c-.126.063-.24.14-.352.23-.1.115-.176.244-.226.384a.92.92 0 0 0-.087.41c0 .141.025.282.087.397.063.116.138.244.226.36.113.102.24.179.352.23.113.05.264.09.427.09z"/>
</svg>
