<svg xmlns="http://www.w3.org/2000/svg" width="32" height="32" viewBox="0 0 32 32">
    <path fill="#333" fill-rule="evenodd" d="M23.581 20.249c.173.115.24.172.202.172-.077.173-.25.46-.518.863-.346.48-.518.739-.518.777h-.029a.617.617 0 0 1-.201.115c-.403.134-1.074.106-2.014-.086-.48-.096-1.237-.46-2.273-1.093a21.772 21.772 0 0 1-2.216-1.554 60.083 60.083 0 0 1-1.61-1.41l-.835-.777a43.873 43.873 0 0 1-1.007-.978 15.347 15.347 0 0 1-1.05-1.165 9.197 9.197 0 0 1-.878-1.28c-.614-1.055-.968-1.827-1.064-2.317a9.305 9.305 0 0 1-.173-1.309c0-.249.029-.45.086-.604l.058-.144.029-.028 1.61-1.123c.097-.019.154-.01.173.03l.979 1.524.69 1.065.26.518a.47.47 0 0 1-.03.115 1.339 1.339 0 0 1-.23.345l-.518.575c-.21.23-.297.585-.259 1.065.039.537.374 1.17 1.007 1.899.557.652.95 1.093 1.18 1.323l.403.432c.076.077.24.23.489.46.268.25.7.595 1.295 1.036.69.537 1.285.777 1.783.72.442 0 .777-.097 1.007-.289.173-.115.394-.326.662-.632.058-.058.154-.077.288-.058.25.058.422.125.518.201.192.154.642.432 1.352.835.652.364 1.103.623 1.352.777zM29.278 9.89c.748 1.765 1.122 3.64 1.122 5.625 0 1.985-.374 3.85-1.122 5.596a14.451 14.451 0 0 1-3.079 4.574 14.809 14.809 0 0 1-4.589 3.108c-1.755.767-3.625 1.15-5.61 1.15-1.985 0-3.855-.383-5.61-1.15a14.809 14.809 0 0 1-4.59-3.108 14.652 14.652 0 0 1-3.092-4.574C1.95 19.366 1.57 17.5 1.57 15.516c0-1.986.379-3.856 1.137-5.61A14.606 14.606 0 0 1 5.8 5.315a14.606 14.606 0 0 1 4.589-3.093c1.755-.757 3.625-1.136 5.61-1.136 1.985 0 3.855.379 5.61 1.136a14.606 14.606 0 0 1 4.59 3.093 14.451 14.451 0 0 1 3.078 4.575zm-4.373 10.904c.076-.23.076-.48 0-.748-.077-.268-.298-.537-.662-.805a71.67 71.67 0 0 0-1.424-.82c-.662-.374-1.06-.61-1.194-.705-.25-.211-.595-.365-1.036-.46-.556-.116-1.026.019-1.41.402-.23.269-.393.441-.489.518a2.18 2.18 0 0 1-.374.058c-.23 0-.556-.163-.978-.49-.537-.422-.94-.748-1.209-.978l-.402-.403-.46-.431c-.192-.211-.566-.633-1.123-1.266-.46-.537-.69-.94-.69-1.208l-.029-.23.46-.49a2.52 2.52 0 0 0 .46-.661 1.44 1.44 0 0 0 .03-1.094 4.257 4.257 0 0 0-.317-.662l-1.669-2.56c-.153-.307-.379-.508-.676-.604-.297-.096-.618-.087-.964.028l-.172.087-1.698 1.18c-.21.134-.383.364-.518.69-.134.326-.192.705-.172 1.136.019.432.086.926.201 1.482.115.614.518 1.506 1.208 2.676.288.498.614.973.979 1.424.364.45.738.868 1.122 1.251.383.384.738.73 1.064 1.036l.835.748c.46.46 1.016.955 1.668 1.482a25.796 25.796 0 0 0 2.33 1.654c1.152.71 2.034 1.127 2.648 1.252.614.125 1.136.187 1.568.187.431 0 .8-.058 1.107-.173.365-.134.633-.326.806-.575.058-.077.23-.326.518-.748.345-.48.566-.873.662-1.18z"/>
</svg>
