<svg xmlns="http://www.w3.org/2000/svg" width="32" height="32" viewBox="0 0 32 32">
    <g fill="none" fill-rule="nonzero">
        <path fill="#333" d="M17.2 16.729l1.233.977-1.954 2.466-1.233-.977 1.954-2.466zm-5.846 7.383l1.233.977 1.954-2.466-1.233-.977-1.954 2.466zm7.799-9.85l1.233.977 1.954-2.45-1.233-.977-1.954 2.45zm3.908-4.917l1.233.977 1.954-2.466-1.233-.977-1.954 2.466zM28.475.601a3.058 3.058 0 0 0-3.06 3.059 3.048 3.048 0 0 0 3.06 3.059 3.048 3.048 0 0 0 3.059-3.059 3.048 3.048 0 0 0-3.06-3.059zM9.24 25.281a3.058 3.058 0 0 0-3.06 3.059 3.048 3.048 0 0 0 3.06 3.059 3.048 3.048 0 0 0 3.059-3.059 3.048 3.048 0 0 0-3.06-3.059zM5.73 17.105H2.066C1.028 17.105 0 16.17 0 15.049V2.056C0 .841.944 0 2.066 0h12.6c1.036 0 2.065.935 2.065 2.056V15.05c0 1.215-.944 2.056-2.066 2.056h-3.767l-2.45 3.365-2.72-3.365h.002z"/>
        <path fill="#FFF" d="M2.056 1.963s-.093 0 0 0l-.093 13.086 4.795.093 1.505 2.15 1.411-2.15h4.795l.28-13.086-12.693-.093z"/>
        <path fill="#333" d="M8.282 12.431c-.374 0-.758-.093-.851-.373-.28-.28-.373-.468-.373-.841 0-.374.093-.748.373-.935.28-.28.467-.374.944-.374.374 0 .757.094.85.374.28.28.374.468.374.841 0 .374-.093.748-.373.842-.29.373-.57.467-.944.467zM7.431 9.627l-.373-6.075h2.355l-.374 6.075z"/>
    </g>
</svg>
