<svg xmlns="http://www.w3.org/2000/svg" width="32" height="32" viewBox="0 0 32 32">
    <path fill="#333" fill-rule="evenodd" d="M30.256 22.291a.784.784 0 0 1-.201.346 2.17 2.17 0 0 1-.288.244l-.345.245a3.598 3.598 0 0 1-.36.23 2.827 2.827 0 0 1-.302.144 3.49 3.49 0 0 1-.432.028H3.672c-.135 0-.298-.01-.49-.028a1.126 1.126 0 0 1-.676-.274 1.173 1.173 0 0 1-.273-.33l-.259-.346a4.087 4.087 0 0 1-.201-.302 1.009 1.009 0 0 1-.144-.36 3.49 3.49 0 0 1-.029-.431V4.798c0-.172.01-.326.029-.46l.115-.374c.057-.134.13-.254.216-.36.086-.105.187-.191.302-.259a2.75 2.75 0 0 0 .302-.2c.086-.068.196-.14.33-.217.116-.076.236-.134.36-.172.125-.039.264-.058.418-.058h24.656c.116 0 .26.01.432.029.096 0 .23.029.403.086.115.077.225.154.33.23a.886.886 0 0 1 .26.302c.067.125.139.235.215.331l.23.317c.058.096.11.21.159.345.048.134.072.278.072.432v16.687c0 .192-.02.345-.058.46l-.115.374zm-3.05-1.956V5.92H4.794v14.415h22.412zm-14.558-8.998v-.008l-.029-.115c0-.019-.01-.038-.028-.057v-.058l-.69-.719-.03-.029v-.172c0-.039.01-.068.03-.087v-.028c.018-.02.028-.048.028-.087l.892-.834.029-.058h.115c.019 0 .048.01.086.03l.029.028.086.029.69.69h.26l.748-.288h.057l.086-.057h.058l.057-.086.03-.173v-.95l.057-.143v-.03l.086-.085h1.439l.028.057.058.029.086.115.03.115v.92l.028.058-.029.029v.029l.058.057c0 .02.01.03.028.03l.087.028.748.288.057.057h.26l.057-.029.057-.057.576-.72.23-.057h.057l.087.058c.019.019.029.038.029.057l.891.806.058.172v.115c0 .02-.01.039-.029.058l-.029.115-.633.604-.057.115-.058.03v.258l.058.029.288.748.028.115.116.086.115.029c0 .02.01.029.028.029h.979c.019 0 .028.01.028.029h.03l.028.028c.02 0 .033.005.043.015.01.01.053.014.13.014l.086.029.086.057-.029 1.381-.086.087-.173.057h-.949l-.058.03-.143.114v.058c-.02 0-.039.01-.058.028l-.288.749-.057.057v.259c0 .02.01.038.029.058v.057l.057.058.633.575.029.058v.316c0 .02-.01.029-.029.029l-.892.892-.057.029-.115.028c-.039 0-.068-.01-.087-.028l-.115-.058-.604-.633-.115-.058-.029-.028-.201-.03-.115.058-.72.288-.057.058h-.058c0 .019-.01.038-.029.057l-.028.029-.087.144v1.036l-.028.028-.03.116-.057.028-.115.029H15.44l-.058-.029-.115-.115v-.144l-.028-.95-.058-.114-.115-.115h-.058c-.019 0-.038-.01-.057-.03l-.72-.316-.2-.028-.145.028-.028.058h-.058l-.69.662-.058.029c0 .019-.01.028-.029.028l-.057.03c-.039 0-.058-.01-.058-.03l-.115-.057-.863-.863c-.02 0-.029-.015-.029-.044 0-.028-.01-.043-.029-.043v-.259l.03-.028c0-.02.009-.039.028-.058l.604-.604c.02 0 .038-.01.058-.029.019-.02.038-.029.057-.029v-.172c.02-.02.02-.039 0-.058l-.029-.144-.316-.719c0-.038-.01-.067-.029-.086l-.144-.115-.057-.03h-.95c-.038 0-.067-.009-.086-.028l-.115-.057c-.02 0-.038-.01-.058-.03v-.086l-.057-.028v-1.295l.029-.086.028-.03v-.028l.087-.057.028-.03h1.007l.087-.028c.019 0 .038-.01.057-.029l.087-.086c.019 0 .028-.01.028-.029l.03-.029v-.086l.373-.806v.008zm7.625 16.824h-.101a.205.205 0 0 0-.115.028c-.029.02-.043.039-.043.058l-.058.057c-.02.02-.048.03-.086.03h-7.74l-.201-.03-.086-.057v-.086a.2.2 0 0 0-.015-.087c-.01-.019-.033-.033-.072-.043-.038-.01-.057-.033-.057-.072l-.03-.086 1.123-2.733h6.416l1.122 2.733-.029.173c0 .057-.01.095-.028.115zM18.2 13.89a.494.494 0 0 0 .029-.202l.029-.26-.03-.43-.143-.404-.201-.402-.23-.317-.346-.288-.345-.201-.49-.144h-.848c-.048 0-.11.02-.187.058l-.23.086-.374.201-.144.144-.173.144-.287.317-.173.374-.115.431-.058.23v.432l.043.216c.01.048.024.11.044.187l.086.23a.365.365 0 0 1 .086.173l.115.23.115.144c.058.057.106.11.144.158a.546.546 0 0 0 .159.13.812.812 0 0 1 .172.129c.048.048.11.09.187.13l.173.057a.396.396 0 0 0 .201.086l.202.058c.076.019.143.028.201.028h.46c.115 0 .192-.01.23-.028l.202-.058c.077-.02.153-.048.23-.086l.345-.173c.077-.057.135-.1.173-.13.038-.028.096-.08.173-.158l.259-.316.23-.518c0-.038.01-.057.028-.057l.058-.202z"/>
</svg>
