<svg xmlns="http://www.w3.org/2000/svg" width="32" height="32" viewBox="0 0 32 32">
    <path fill="#333" fill-rule="nonzero" d="M23.706 16.282c.05 1.19.281 2.188.704 2.982.422.794.883 1.42 1.382 1.869.5.499.96.857 1.382 1.088.423.23.666.333.704.333-.05 0-.115.14-.192.41-.076.268-.192.614-.332 1.01-.205.397-.423.845-.679 1.344-.256.5-.576 1.024-.973 1.575a13.9 13.9 0 0 1-.972 1.42c-.346.449-.692.845-1.05 1.191-.397.346-.806.64-1.229.858-.422.23-.909.332-1.459.332-.5 0-.934-.064-1.306-.192a15.83 15.83 0 0 1-1.088-.41c-.396-.153-.793-.294-1.19-.447-.384-.128-.883-.205-1.472-.205s-1.1.064-1.498.192a7.764 7.764 0 0 0-1.19.486 12.02 12.02 0 0 1-1.088.41 3.75 3.75 0 0 1-1.229.192 2.59 2.59 0 0 1-1.42-.256 5.056 5.056 0 0 1-1.268-.934 8.913 8.913 0 0 1-1.152-1.23 15.65 15.65 0 0 1-1.011-1.458c-.691-.948-1.306-2.061-1.83-3.367a19.666 19.666 0 0 1-1.152-4.032 16.66 16.66 0 0 1-.192-4.224c.115-1.42.537-2.7 1.228-3.853a6.003 6.003 0 0 1 1.152-1.6 6.52 6.52 0 0 1 1.536-1.152 6.725 6.725 0 0 1 1.754-.844 6.056 6.056 0 0 1 1.907-.295c.5 0 .986.077 1.46.23.473.154.934.295 1.382.449.397.153.793.294 1.19.448.397.153.743.23 1.05.23.294 0 .665-.09 1.088-.256.422-.18.883-.333 1.382-.486.5-.205 1.05-.372 1.639-.525a5.322 5.322 0 0 1 1.792-.154c.243.051.601.103 1.05.154.447.051.92.205 1.42.448.55.205 1.1.499 1.638.896.55.397 1.05.921 1.498 1.574-.051.051-.243.205-.602.448-.345.243-.716.602-1.126 1.05-.448.499-.832 1.113-1.152 1.83-.333.691-.486 1.523-.486 2.47zM19.89 4.852a6.692 6.692 0 0 1-.973.934 5.956 5.956 0 0 1-1.126.704 5.451 5.451 0 0 1-1.229.448 5.522 5.522 0 0 1-1.305.153 4.734 4.734 0 0 1 .038-1.344 7.65 7.65 0 0 1 .333-1.267c.153-.448.333-.845.563-1.19.23-.346.46-.679.704-.973.294-.346.627-.666.973-.935a5.956 5.956 0 0 1 1.126-.704 7.218 7.218 0 0 1 1.229-.486A4.312 4.312 0 0 1 21.466 0a5.9 5.9 0 0 1 0 1.344c-.052.448-.154.87-.295 1.267a5.998 5.998 0 0 1-.563 1.229c-.23.384-.46.717-.717 1.011z"/>
</svg>
