<svg xmlns="http://www.w3.org/2000/svg" width="32" height="32" viewBox="0 0 32 32">
    <path fill="#333" fill-rule="nonzero" d="M28.06.926H3.941A3.023 3.023 0 0 0 .927 3.941v24.117a3.023 3.023 0 0 0 3.015 3.015h24.117a3.023 3.023 0 0 0 3.015-3.015V3.941A3.023 3.023 0 0 0 28.059.926zM24.35 23.96c-2.728 2.547-6.467 2.593-7.522 2.547v.015h-1.658v-.015c-1.025.046-4.809.03-7.552-2.547-3.21-2.985-3.21-8.02-3.21-8.02s5.034-.451 8.033 2.518c1.674 1.553 2.413 3.904 2.729 5.653v-9.692c-2.97-.331-5.2-2.924-5.2-6 0-1.1.361-2.019.724-2.743l2.562 3.468 1.824-3.468h1.644l1.824 3.468 2.758-3.468c.543.92.724 1.824.724 2.744 0 2.94-2.351 5.457-5.2 5.939v9.602c.331-1.734 1.07-3.995 2.698-5.503 2.985-2.969 8.02-2.517 8.02-2.517s0 5.034-3.196 8.019h-.002z"/>
</svg>
