<svg xmlns="http://www.w3.org/2000/svg" width="32" height="32" viewBox="0 0 32 32">
    <path fill="#333" fill-rule="nonzero" d="M22.731.926H10.174a2.795 2.795 0 0 0-2.788 2.789v24.579a2.793 2.793 0 0 0 2.788 2.779h12.568a2.795 2.795 0 0 0 2.788-2.789V3.714A2.81 2.81 0 0 0 22.731.927zM14.63 3.16h3.344a.556.556 0 0 1 0 1.11H14.63a.55.55 0 0 1-.556-.555.55.55 0 0 1 .556-.555zm1.668 26.801a1.665 1.665 0 0 1-1.668-1.667c0-.924.744-1.668 1.668-1.668.923 0 1.676.744 1.676 1.668a1.685 1.685 0 0 1-1.676 1.667zm6.792-4.879H9.807l-.01-18.117h13.284V25.08h.009v.002z"/>
</svg>
