<svg xmlns="http://www.w3.org/2000/svg" width="32" height="32" viewBox="0 0 32 32">
    <path fill="#333" fill-rule="nonzero" d="M2.37 15.784V26.96a2.246 2.246 0 0 0 2.237 2.237h22.357a2.246 2.246 0 0 0 2.237-2.237V15.784H2.371zm20.614 11.734h-14.4v-3.911h14.395l.005 3.911zm6.213-13.971H2.37V11.31a2.246 2.246 0 0 1 2.237-2.237h2.86c.617 0 1.117.5 1.117 1.116v1.116H26.96a2.246 2.246 0 0 1 2.237 2.242zm-.65-9.018l-15.476 5.634a.991.991 0 0 1-1.268-.588l-.09-.247A.991.991 0 0 1 12.3 8.06l15.481-5.63a.991.991 0 0 1 1.268.59l.09.246a.992.992 0 0 1-.592 1.263z"/>
</svg>
