<svg xmlns="http://www.w3.org/2000/svg" width="32" height="32" viewBox="0 0 32 32">
    <path fill="#000" fill-rule="nonzero" d="M31.074 23.07v2.607H.927V23.07c3.18-1.673 5.382-5.14 5.382-9.15 0-.301-.015-.603-.03-.904h.03c0-4.206 2.879-7.763 6.858-8.924-.015-.15-.03-.286-.03-.406 0-1.523 1.28-2.759 2.864-2.759 1.583 0 2.864 1.236 2.864 2.759 0 .135-.015.256-.03.406 3.949 1.176 6.858 4.703 6.858 8.924h.045c-.015.286-.045.588-.045.889-.015 4.01 2.2 7.477 5.382 9.165h-.001zM16 31.073c2.125 0 3.859-1.478 4.07-3.33h-8.14c.211 1.883 1.945 3.33 4.07 3.33z"/>
</svg>
