<svg xmlns="http://www.w3.org/2000/svg" width="32" height="32" viewBox="0 0 32 32">
    <path fill="#333" fill-rule="nonzero" d="M10.986 22.341c.392.472.637 1.07.637 1.734a2.722 2.722 0 0 1-2.725 2.724 2.722 2.722 0 0 1-2.725-2.724c0-.664.245-1.261.638-1.734.026-.03.05-.063.076-.091.07-.08.146-.15.225-.22l.145-.119a2.64 2.64 0 0 1 .437-.27c.07-.034.14-.07.216-.099.095-.037.194-.064.293-.09.061-.016.12-.037.182-.05.167-.032.338-.051.514-.051s.346.02.514.052c.063.011.12.033.18.049.1.026.2.053.294.09.074.03.144.064.215.1.073.036.144.073.213.115a2.86 2.86 0 0 1 .595.493c.026.028.05.06.076.091zm20.088-5.986v5.68c0 .808-.651 1.458-1.459 1.458h-1.459c-.29-2.23-2.182-3.968-4.486-3.968-2.303 0-4.21 1.738-4.487 3.968h-5.788c-.29-2.23-2.183-3.968-4.486-3.968a4.523 4.523 0 0 0-4.485 3.968h-2.04c-.806.001-1.458-.65-1.458-1.458V7.673c0-.809.651-1.459 1.459-1.459h16.677c.808 0 1.458.651 1.458 1.459v1.085h2.883c.507 0 1 .205 1.363.567l5.728 5.667c.375.35.58.845.58 1.363zm-3.402-1.579l-3.99-3.787a.257.257 0 0 0-.156-.06h-1.05a.23.23 0 0 0-.23.23v3.786c0 .12.097.23.23.23h5.053c.192-.013.29-.266.144-.399zm-4.015 6.572a2.722 2.722 0 0 0-2.724 2.725 2.722 2.722 0 0 0 2.724 2.725 2.722 2.722 0 0 0 2.725-2.725 2.722 2.722 0 0 0-2.725-2.725z"/>
</svg>
