<svg xmlns="http://www.w3.org/2000/svg" width="32" height="32" viewBox="0 0 32 32">
    <path fill="#333" fill-rule="nonzero" d="M18.123 20.22c-.025-.025-.125-.138-.326-.339-.202-.2-.503-.502-.917-.892-.39-.414-.69-.703-.917-.879-.226-.176-.339-.251-.376-.201-.038.05 0 .15.138.339.125.188.339.451.628.778.314.314.628.64.942.967.113.113.214.252.277.415a1.375 1.375 0 0 1 0 1.03c-.063.15-.164.301-.277.44a1.208 1.208 0 0 1-.414.276 1.452 1.452 0 0 1-1.056 0 1.484 1.484 0 0 1-.414-.276l-.188-.226c-.063-.076-.151-.15-.252-.252-.075-.1-.15-.2-.239-.288.038-.24.05-.465.026-.704a2.806 2.806 0 0 0-.15-.703 3.033 3.033 0 0 0-.264-.627 2.714 2.714 0 0 0-.44-.578 1.32 1.32 0 0 0-.264-.264c-.1-.075-.2-.15-.326-.201a2.257 2.257 0 0 0-.339-.188 1.19 1.19 0 0 0-.339-.101c-.037-.138-.075-.264-.113-.402a1.565 1.565 0 0 0-.15-.364 5.325 5.325 0 0 0-.24-.34c-.088-.112-.163-.213-.263-.313a1.26 1.26 0 0 0-.263-.252c-.1-.075-.202-.138-.327-.226a1.737 1.737 0 0 0-.301-.176c-.113-.05-.226-.087-.339-.138-.025-.113-.05-.239-.1-.352a1.74 1.74 0 0 0-.189-.327c-.063-.1-.125-.213-.188-.314a.995.995 0 0 0-.251-.263c-.076-.101-.164-.176-.252-.252a2.215 2.215 0 0 0-.314-.213c-.113-.063-.226-.113-.339-.164a1.16 1.16 0 0 0-.339-.1 1.63 1.63 0 0 0-.1-.377 2.14 2.14 0 0 0-.163-.34 1.221 1.221 0 0 0-.202-.3 5.58 5.58 0 0 1-.239-.29 2.778 2.778 0 0 0-1.005-.652 3.21 3.21 0 0 0-1.231-.226c-.453 0-.88.075-1.269.239-.39.15-.74.376-1.055.678-.1.101-.188.189-.263.29-.076.1-.163.213-.24.326-.075.113-.138.239-.188.364-.05.125-.1.251-.162.364-.202-.075-.428-.163-.691-.263-.264-.1-.578-.202-.93-.315V2.623l3.002 1.03c.39.15.804.226 1.257.226.452 0 .904-.101 1.394-.277.414-.277.803-.515 1.168-.729.364-.213.69-.39.992-.54.314-.15.627-.314.942-.452.314-.137.627-.276.942-.401.339-.139.64-.24.917-.315.275-.075.514-.1.753-.1.452 0 .905.087 1.357.263.451.176.892.44 1.318.792a76.064 76.064 0 0 0-2.512 1.407c-.653.39-1.143.703-1.457.916a2.993 2.993 0 0 0-.565.44 2.184 2.184 0 0 0-.44.615c-.138.226-.239.452-.314.703-.063.252-.1.503-.1.779 0 .414.074.804.225 1.168.15.364.364.678.653.954.29.29.616.515.968.666.352.15.74.225 1.143.25.075 0 .176-.011.29-.025.112-.025.25-.063.376-.113.138-.037.3-.1.49-.176.19-.075.39-.163.603-.263.202-.1.402-.201.616-.314a8.56 8.56 0 0 1 .678-.315c.252-.113.49-.226.717-.314.225-.089.44-.176.627-.277.29-.138.604-.176.942-.1.34.075.691.225 1.093.451l1.972 1.972c.1.1.465.465 1.106 1.093.64.627 1.532 1.532 2.688 2.713l.025.026c.113.112.214.25.277.414a1.323 1.323 0 0 1 0 1.017c-.063.15-.164.289-.277.427a1.853 1.853 0 0 1-.44.277 1.36 1.36 0 0 1-1.03 0 1.484 1.484 0 0 1-.414-.277 36.028 36.028 0 0 0-1.696-1.607c-.402-.339-.628-.49-.665-.452-.038.039.025.176.176.402.15.226.427.528.791.892.352.39.616.691.792.88.176.2.263.3.263.326.1.113.176.251.24.376.062.125.087.29.087.44-.414.1-.804.226-1.168.402a7.668 7.668 0 0 0-1.043.578c-.98-.88-1.734-1.533-2.236-1.96-.503-.427-.779-.603-.83-.54-.037.037.113.251.478.615.352.377.916.917 1.683 1.621l.087.088.05.05.05.05c.063.062.113.125.164.188.05.063.087.138.1.188-.314.251-.615.54-.916.841a6.92 6.92 0 0 0-.792.955 2.083 2.083 0 0 1-.226-.139c-.075-.05-.1-.125-.176-.213l-.002.005zm-6.042-1.205c.15.025.301.063.44.15.138.075.263.176.376.29.15.175.263.376.339.59.063.213.1.439.1.678-.025.251-.087.49-.188.69-.1.202-.251.403-.427.579a2.661 2.661 0 0 1-.665.44 3.871 3.871 0 0 1-.842.263c-.313.062-.59.05-.841-.013a1.06 1.06 0 0 1-.604-.402c-.176-.2-.289-.376-.338-.565a.637.637 0 0 1 .05-.503c.075-.176.15-.339.225-.502.076-.164.139-.315.189-.465-.151.037-.327.087-.515.138-.188.05-.377.088-.578.138a1.03 1.03 0 0 1-.59-.05 1.242 1.242 0 0 1-.477-.338 1.27 1.27 0 0 1-.29-.515.923.923 0 0 1 .026-.49c.063-.138.113-.288.163-.44.05-.15.087-.3.138-.439-.138.038-.289.076-.452.113a4.636 4.636 0 0 0-.514.15.968.968 0 0 1-.566-.049 1.103 1.103 0 0 1-.477-.364c-.15-.202-.251-.377-.29-.54a.564.564 0 0 1 .064-.452c.063-.15.113-.315.163-.452.05-.15.087-.289.138-.427-.15.037-.314.075-.477.113-.15.037-.327.087-.503.15a.778.778 0 0 1-.502-.05 1.767 1.767 0 0 1-.515-.364 1.29 1.29 0 0 1-.327-.653c-.037-.24-.025-.49.063-.766.101-.277.214-.528.352-.754.139-.226.29-.427.478-.603.176-.176.376-.315.603-.414.226-.088.452-.139.69-.139.252-.012.478.012.692.1.2.088.39.227.54.403.1.1.176.213.251.339.063.125.125.263.163.402.025.15.025.3.012.44a3.008 3.008 0 0 1-.075.439c.15-.038.301-.063.44-.063.138 0 .276.012.413.025.151.038.29.087.415.164.125.076.239.15.352.251.1.113.176.24.25.364.064.125.114.264.14.402.025.138.025.277.025.427 0 .151-.026.302-.088.452a1.6 1.6 0 0 1 .427-.063c.151 0 .29.012.428.026.15.037.3.087.427.163.126.077.24.15.339.252.113.113.213.25.277.401.063.151.112.315.138.49.025.15.025.314 0 .452a3.52 3.52 0 0 1-.113.451c.15-.063.314-.087.477-.1.163-.013.301.012.452.05h-.001zM26.338 4.657c.477-.1 1.106-.226 1.884-.402a226.65 226.65 0 0 0 2.852-.628v9.12c-.69.138-1.231.238-1.62.314-.39.075-.642.113-.742.138-.1 0-.239.012-.414.05-.175.038-.402.05-.678.075a1.56 1.56 0 0 1-.754-.075 2.029 2.029 0 0 1-.716-.452c-.176-.176-.402-.39-.666-.653-.263-.251-.578-.566-.93-.917-.376-.352-.74-.703-1.092-1.055l-1.055-1.055c-.377-.352-.779-.754-1.22-1.193l-1.456-1.457c-.39-.24-.779-.364-1.168-.377a2.038 2.038 0 0 0-1.106.264c-.314.15-.653.326-1.017.515-.365.188-.741.39-1.13.603-.415.201-.767.376-1.056.528-.289.152-.54.289-.74.376-.377.202-.717.29-1.03.277a1.505 1.505 0 0 1-.88-.339 3.04 3.04 0 0 1-.577-.665 1.322 1.322 0 0 1-.202-.69c0-.202.026-.377.076-.529.05-.151.125-.289.226-.414.113-.138.25-.264.376-.376.125-.113.277-.226.44-.302.239-.138.49-.289.766-.451.263-.176.578-.352.904-.553.315-.176.641-.364.968-.566l1.005-.59c.352-.201.69-.376 1.017-.565.327-.19.641-.352.955-.528.314-.15.603-.315.854-.452.252-.137.477-.264.679-.364.239-.139.465-.226.69-.277a2.37 2.37 0 0 1 .666-.05c.214.013.452.1.716.251.265.151.566.365.893.628.414.339.879.716 1.381 1.144.503.427 1.067.916 1.683 1.444.214.113.427.202.628.24.2.037.414.05.59.012v-.004zM29.1 23.135c.666.176 1.168.402 1.483.679.314.276.49.603.49.98 0 .2-.05.376-.138.527a1.617 1.617 0 0 1-.402.44c-.176.138-.39.263-.628.376a8.23 8.23 0 0 1-.804.327c-.025.025-.05.025-.075.025a.365.365 0 0 0-.1.026c.025.025.037.037.049.063.012.025.025.038.05.063.201.39.339.728.427 1.017.089.29.125.528.1.717a2.45 2.45 0 0 1-.1.528.903.903 0 0 1-.188.326.772.772 0 0 1-.15.113c-.064.038-.114.075-.177.113-.075.025-.163.038-.25.063-.088.026-.177.026-.278.026-.113 0-.239-.013-.352-.05a5.844 5.844 0 0 1-.376-.101 3.077 3.077 0 0 1-.49-.164c-.175-.076-.352-.15-.54-.251-.025 0-.037-.012-.063-.026-.025-.013-.037-.025-.063-.025-.025.025-.025.05-.025.075a.365.365 0 0 1-.026.101 4.157 4.157 0 0 1-.289.792c-.113.239-.25.44-.376.615-.15.176-.314.314-.477.414-.15.1-.327.15-.503.15a.93.93 0 0 1-.528-.15c-.151-.1-.301-.239-.44-.414a3.184 3.184 0 0 1-.376-.615 8.051 8.051 0 0 1-.326-.792c-.026-.038-.026-.075-.026-.1a.17.17 0 0 0-.025-.076c-.026 0-.038.012-.063.025-.026.014-.038.026-.063.026-.202.1-.377.176-.54.251a3.01 3.01 0 0 1-.452.164c-.151.063-.29.1-.415.113-.112.025-.225.025-.326.025-.113 0-.226-.012-.314-.025-.088-.026-.164-.038-.226-.063a1.224 1.224 0 0 1-.189-.113c-.05-.038-.087-.075-.138-.113a.69.69 0 0 1-.226-.327 1.913 1.913 0 0 1-.1-.528c-.026-.201.012-.44.1-.716.089-.277.24-.628.452-1.017 0-.026.012-.038.025-.063.026-.026.026-.038.026-.063a.249.249 0 0 0-.076-.05c-.025-.013-.063-.013-.1-.013a5.236 5.236 0 0 1-.792-.326 6.66 6.66 0 0 1-.615-.377 1.406 1.406 0 0 1-.428-.44 1.059 1.059 0 0 1-.138-.527c0-.377.164-.69.503-.968.338-.276.816-.502 1.444-.678.038-.026.076-.026.113-.026a.172.172 0 0 0 .088-.025.17.17 0 0 0-.026-.075c-.025-.026-.037-.05-.063-.076a5.295 5.295 0 0 1-.427-1.005c-.088-.302-.125-.54-.1-.74a2.64 2.64 0 0 1 .1-.515.677.677 0 0 1 .226-.34c.113-.112.263-.2.44-.263.175-.062.376-.063.615-.025.214.038.452.1.703.176.251.075.515.188.792.326.025.026.05.038.075.064.025.025.05.025.075.025a.249.249 0 0 0 .05-.075c.012-.026.012-.063.012-.101.101-.289.202-.553.327-.778.113-.226.251-.44.376-.628.139-.176.29-.315.44-.402.15-.088.339-.138.528-.138.176 0 .339.05.502.138.151.087.302.226.44.427.138.176.264.377.376.616.113.239.226.502.327.791.025.026.025.05.025.076 0 .025.013.063.026.1a.249.249 0 0 1 .075-.05.268.268 0 0 0 .075-.05c.277-.138.54-.25.779-.338.251-.088.49-.15.716-.189.24-.025.44 0 .616.05a.85.85 0 0 1 .44.277.69.69 0 0 1 .225.327c.05.138.088.3.1.502.026.202-.012.44-.1.74-.088.302-.226.642-.427 1.03l-.063.064c-.026.025-.026.05-.026.087.026 0 .05 0 .088.012.037.013.075.026.1.026l.005-.004zm-9.445 2.097c.112.075.263.15.44.24.175.088.376.15.59.238a.995.995 0 0 0 .187.05c.063.012.139.025.189.05.075-.138.176-.277.276-.427.101-.151.214-.29.315-.428a.517.517 0 0 0 .087-.075c.025-.025.038-.063.063-.1l-.063-.064c-.025-.025-.037-.05-.063-.087-.113-.139-.226-.277-.326-.428-.101-.15-.202-.289-.29-.427-.062.026-.125.038-.188.063-.063.026-.138.038-.188.063-.239.076-.44.15-.603.226-.164.075-.314.15-.427.251a.966.966 0 0 0-.264.24.335.335 0 0 0-.087.2c0 .064.025.126.087.202.05.05.138.125.264.214v-.001zm1.62-2.65c.025.063.05.113.1.176.05.063.088.113.1.176.214-.038.428-.076.616-.113.202-.038.39-.076.59-.113.026-.026.026-.05.026-.088v-.113c.025-.201.05-.376.075-.54.025-.164.063-.339.1-.515a4.303 4.303 0 0 1-.489-.239 2.58 2.58 0 0 0-.427-.201c-.15-.063-.301-.1-.427-.139a1.171 1.171 0 0 0-.34-.05h-.175c-.038.026-.063.038-.088.05-.024.013-.037.026-.063.05a.482.482 0 0 0-.05.176c-.012.076-.012.189-.012.327.026.113.063.277.139.49.075.212.188.413.326.665h-.002zm1.319 5.703c.037-.025.087-.05.138-.075.051-.026.1-.063.164-.1a5.152 5.152 0 0 1-.1-.503c-.026-.176-.05-.365-.076-.566v-.075a.365.365 0 0 0-.025-.101h-.176a9.793 9.793 0 0 0-.566-.088 6.13 6.13 0 0 1-.503-.087c-.025.038-.05.087-.087.138a.664.664 0 0 0-.088.164c-.138.251-.239.477-.314.679a4.586 4.586 0 0 0-.138.502c0 .139 0 .251.012.327a.501.501 0 0 0 .05.176c.037.025.1.037.176.063a.695.695 0 0 0 .326 0c.139 0 .301-.038.503-.113.201-.075.427-.202.703-.339v-.002zm-.264-4.12c0-.026.013-.038.026-.05.025-.012.025-.026.025-.05l.113-.113.113-.113v-.176c0-.063.012-.113.025-.176h-.113a.35.35 0 0 0-.112.025c-.101 0-.189.013-.264.026-.075.025-.15.038-.24.063.064.1.126.188.19.277.062.088.163.201.238.289v-.002zm0 1.243c-.075.1-.15.201-.226.289-.063.1-.138.188-.188.263.075.026.164.038.251.064.088.025.176.037.252.063h.113a.35.35 0 0 1 .113.025v-.201a.932.932 0 0 0-.026-.176.836.836 0 0 1-.1-.113.836.836 0 0 0-.101-.113l-.05-.05c0-.012-.025-.038-.038-.05v-.001zm3.467.415l.226-.226a.71.71 0 0 0 .163-.226c0-.1 0-.201.013-.289.012-.1.012-.201.012-.289 0-.1 0-.201-.012-.289-.013-.1-.013-.2-.013-.288L26 23.99c-.063-.076-.138-.139-.226-.226-.063-.076-.125-.15-.188-.202-.063-.063-.138-.113-.226-.176-.1 0-.201 0-.289-.012-.087-.012-.201-.012-.289-.012-.113 0-.226 0-.326.012-.101.012-.202.012-.29.012l-.188.189a1.122 1.122 0 0 1-.225.188c-.076.075-.151.15-.202.226-.05.075-.125.138-.201.226v1.155c.075.076.15.15.201.226.05.076.125.139.202.226.075.075.15.15.225.202.063.063.139.125.226.2h1.169c.076-.074.15-.15.24-.225.088-.075.138-.125.188-.176h-.002zm-2.286-3.416c-.026.037-.026.087-.026.138v.138c.063-.025.113-.025.176-.025h.202l.163-.164c.051-.05.101-.087.164-.138a2.53 2.53 0 0 1-.289-.24c-.1-.075-.201-.15-.289-.2-.025.075-.037.15-.063.238a.803.803 0 0 0-.038.252zm0 4.76c0 .1.012.188.025.264.013.075.038.163.063.263a3.783 3.783 0 0 0 .553-.414h.026l-.063-.063c-.026-.025-.038-.025-.063-.025-.026-.038-.05-.076-.076-.101l-.1-.1H23.463v.074a.386.386 0 0 0 .05.101l-.001.001zm.376-6.47c-.025.063-.038.113-.063.176-.025.063-.038.126-.063.202.138.075.277.176.427.277.15.112.301.213.452.314.025.025.038.05.063.075.025.026.05.05.088.075l.075-.075.075-.075c.138-.1.277-.202.427-.314a3.46 3.46 0 0 1 .428-.277c-.026-.075-.038-.15-.05-.202a.95.95 0 0 0-.05-.176 4.13 4.13 0 0 0-.24-.615c-.088-.176-.15-.327-.238-.44-.1-.113-.176-.201-.251-.263a.283.283 0 0 0-.189-.088.347.347 0 0 0-.226.088c-.063.063-.138.15-.225.263a4.103 4.103 0 0 0-.252.44c-.087.176-.125.376-.188.615zm1.822 8.178a.882.882 0 0 0 .05-.176.95.95 0 0 1 .05-.176c-.138-.1-.277-.201-.414-.314-.138-.113-.29-.214-.44-.314a.517.517 0 0 0-.075-.088c-.025-.024-.05-.038-.075-.063-.038.025-.076.05-.101.075l-.075.076c-.139.1-.277.201-.428.314-.15.113-.289.214-.427.314.025.063.038.113.063.176.026.063.038.113.063.176.063.24.139.44.226.616.088.176.176.326.251.44.076.112.15.2.226.263a.325.325 0 0 0 .226.087.263.263 0 0 0 .188-.087c.063-.062.15-.15.252-.264.075-.113.15-.263.239-.44.05-.175.125-.376.201-.615zm.389-6.468c-.026-.101-.038-.189-.063-.264-.026-.075-.026-.15-.026-.239-.1.063-.201.125-.289.201-.1.076-.201.151-.326.24.063.063.113.112.176.163l.176.139c.063.025.113.025.176.025h.176v-.138-.127zm0 4.76v-.1-.101h-.202a.842.842 0 0 0-.201.025c-.038.025-.075.05-.1.075-.026.026-.05.063-.076.101-.025.025-.038.038-.063.05-.025.012-.038.025-.063.05h.025a2.52 2.52 0 0 0 .553.414c.025-.075.037-.15.063-.24.025-.088.037-.175.063-.276v.002zm1.533-6.18c-.138.062-.289.125-.44.2-.15.077-.314.151-.477.24.038.176.076.352.101.515.025.162.05.352.075.54v.2c.214.038.428.076.616.113.201.038.39.076.59.113.038-.063.075-.113.113-.176.038-.063.075-.113.113-.176.138-.251.239-.477.314-.678.063-.202.1-.365.1-.503a.97.97 0 0 0 .013-.327.331.331 0 0 0-.075-.176.21.21 0 0 0-.063-.05c-.026-.012-.038-.025-.063-.05h-.176c-.101 0-.214.013-.34.05-.124.038-.25.114-.401.164zm.678 6.004c-.026-.038-.05-.087-.076-.138-.025-.051-.05-.088-.075-.139-.176.038-.352.076-.528.101l-.528.075h-.201v.201l-.076.529c-.025.176-.063.339-.1.502.063.026.113.05.15.076.038.025.088.063.15.1.278.139.516.24.704.315.188.075.352.113.477.138.138 0 .251 0 .327-.012a.324.324 0 0 0 .176-.075c.025-.026.037-.076.05-.164.012-.089.012-.202.012-.34a1.36 1.36 0 0 0-.113-.464c-.075-.188-.214-.427-.352-.703l.003-.002zm-1.03-2.826c.075-.101.15-.202.201-.29.063-.1.126-.2.202-.288-.075 0-.15-.012-.24-.026-.075-.025-.163-.037-.263-.063h-.113a.35.35 0 0 1-.113-.025c0 .063 0 .125.013.188.012.063.012.139.012.188l.113.113a.654.654 0 0 1 .087.113c.026 0 .038.013.05.026.012.025.026.05.05.063h.001zm0 1.243l-.063.063c-.025.025-.025.038-.025.063a.836.836 0 0 1-.113.1c-.038.026-.076.064-.113.102v.376h.1a.365.365 0 0 0 .101-.025c.1-.026.188-.038.277-.05.088-.013.176-.026.251-.05-.075-.1-.15-.202-.201-.29-.076-.1-.139-.187-.214-.288v-.001zm2.676-.176c.1-.075.176-.15.251-.226.075-.075.1-.138.1-.188a.347.347 0 0 0-.087-.226c-.062-.075-.15-.15-.263-.251-.113-.076-.264-.15-.44-.24-.176-.088-.376-.15-.615-.238a.882.882 0 0 0-.176-.05 1.644 1.644 0 0 1-.202-.05 3.821 3.821 0 0 1-.276.414c-.101.137-.226.289-.34.44-.025.025-.037.05-.062.075-.026.025-.038.05-.063.075.025.038.05.075.075.1.025.026.05.05.05.076.113.138.226.277.339.427.113.15.201.29.276.428.076-.026.15-.038.202-.063.063-.026.113-.038.176-.063.239-.064.44-.139.615-.226.176-.088.327-.139.44-.214z"/>
</svg>
