<svg xmlns="http://www.w3.org/2000/svg" width="32" height="32" viewBox="0 0 32 32">
    <path fill="#333" fill-rule="nonzero" d="M30.77 19.558V7.846c0-.78-.287-1.462-.857-2.046a2.82 2.82 0 0 0-2.098-.877H4.185c-.788 0-1.478.292-2.068.877-.59.585-.886 1.267-.886 2.046v17.539c0 .818.295 1.51.886 2.075.591.565 1.28.848 2.068.848h23.63c.788 0 1.478-.283 2.068-.848.59-.565.886-1.257.886-2.075v-5.827c0-.01 0-.01 0 0zM27.824 7.847v1.754H10.092V7.847h17.733zm-20.598.146a1.09 1.09 0 0 1 .797-.321c.316 0 .581.097.798.292a.973.973 0 0 1 .325.76c0 .74-.375 1.11-1.123 1.11a1.09 1.09 0 0 1-.797-.32 1.034 1.034 0 0 1-.325-.76c0-.293.108-.547.325-.761zm-2.954 0a1.09 1.09 0 0 1 .798-.321c.315 0 .58.097.797.292a.973.973 0 0 1 .325.76c0 .74-.374 1.11-1.122 1.11a1.09 1.09 0 0 1-.798-.32 1.067 1.067 0 0 1-.325-.79c0-.273.108-.517.325-.731zm-.088 17.392V11.939h23.64v13.446H4.186z"/>
</svg>
