<svg xmlns="http://www.w3.org/2000/svg" width="32" height="32" viewBox="0 0 32 32">
    <path fill="#333" fill-rule="evenodd" d="M19.333 20H26v-2h-6.667v2zM32 21.333v9.334C32 31.4 31.4 32 30.667 32h-16c-.734 0-1.334-.6-1.334-1.333v-9.334c0-.733.6-1.333 1.334-1.333h2.666v-2.667c0-.733.6-1.333 1.334-1.333h8C27.4 16 28 16.6 28 17.333V20h2.667C31.4 20 32 20.6 32 21.333zm-17.333-4c-2.2 0-4 1.8-4 4V24H0v-5c0-2.187 3.347-4.027 8-4.72l1-.12v-1.133a6.051 6.051 0 0 1-1-.854C6.773 10.907 6 9.067 6 7c0-3.867 2.68-7 6-7 .747 0 1.467.16 2.133.467C16.4 1.467 18 4.013 18 7c0 2.587-1.213 4.813-3 6.027v1.133c.36.04.72.093 1.08.133a3.975 3.975 0 0 0-1.413 3.04z"/>
</svg>
