<svg xmlns="http://www.w3.org/2000/svg" width="32" height="32" viewBox="0 0 32 32">
    <path fill="#333" fill-rule="nonzero" d="M30.77 12.308v7.384a2.469 2.469 0 0 1-2.462 2.462 2.49 2.49 0 0 1-1.637-.64 12.352 12.352 0 0 1-8.246 5.944A2.461 2.461 0 0 1 16 29.538a2.461 2.461 0 0 1-2.425-2.08 1.91 1.91 0 0 1-.037-.381c0-.295.05-.59.16-.85A2.459 2.459 0 0 1 16 24.616c1.058 0 1.957.677 2.302 1.613a11.14 11.14 0 0 0 7.63-5.945 2.282 2.282 0 0 1-.086-.59v-7.385c0-.259.037-.505.11-.726v-.013a10.495 10.495 0 0 0-8.824-7.2c-.098-.012-.197-.024-.295-.024a9.311 9.311 0 0 0-1.674 0 2.39 2.39 0 0 0-.295.024 10.495 10.495 0 0 0-8.825 7.2v.013c.074.221.11.467.11.726v7.384c0 .21-.024.406-.085.591-.086.37-.259.714-.505.997a1.4 1.4 0 0 1-.234.234 2.43 2.43 0 0 1-1.637.64 2.469 2.469 0 0 1-2.461-2.462v-7.384a2.469 2.469 0 0 1 2.461-2.462c.333 0 .653.062.948.197A12.291 12.291 0 0 1 16 2.462c5.12 0 9.514 3.126 11.36 7.581.295-.135.615-.197.948-.197.677 0 1.292.27 1.735.726.455.443.726 1.059.726 1.736z"/>
</svg>
