<svg xmlns="http://www.w3.org/2000/svg" width="32" height="32" viewBox="0 0 32 32">
    <path fill="#333" fill-rule="nonzero" d="M30.671 24.654h-1.217a.553.553 0 0 0-.324.124.571.571 0 0 0-.201.268l-.436 1.038c-.044.1-.067.212-.044.335a.625.625 0 0 0 .134.301l.893.87c.067.079.1.18.1.29a.411.411 0 0 1-.1.28l-1.228 1.229a.378.378 0 0 1-.56 0l-.87-.871a.486.486 0 0 0-.313-.145.504.504 0 0 0-.323.044l-1.038.436a.526.526 0 0 0-.28.19.519.519 0 0 0-.112.324v1.25a.371.371 0 0 1-.112.28.387.387 0 0 1-.29.124h-1.73a.378.378 0 0 1-.28-.124.383.383 0 0 1-.124-.28v-1.25a.542.542 0 0 0-.112-.324.49.49 0 0 0-.28-.201l-1.026-.436c-.1-.044-.212-.067-.335-.044a.547.547 0 0 0-.301.145l-.87.87a.453.453 0 0 1-.302.124.38.38 0 0 1-.28-.124l-1.216-1.228a.378.378 0 0 1 0-.56l.87-.87a.486.486 0 0 0 .145-.312.591.591 0 0 0-.044-.324l-.436-1.038a.548.548 0 0 0-.201-.28.519.519 0 0 0-.324-.112h-1.25a.371.371 0 0 1-.28-.112.387.387 0 0 1-.123-.29v-1.73a.38.38 0 0 1 .123-.28.371.371 0 0 1 .28-.112h1.25a.553.553 0 0 0 .324-.123.571.571 0 0 0 .201-.268l.436-1.027a.587.587 0 0 0 .044-.346.512.512 0 0 0-.145-.302l-.87-.893a.378.378 0 0 1 0-.56l1.217-1.227a.438.438 0 0 1 .29-.1c.11 0 .211.033.29.1l.87.893a.62.62 0 0 0 .636.09l1.027-.414a.645.645 0 0 0 .28-.211.489.489 0 0 0 .112-.313v-1.25c0-.123.044-.213.123-.29a.372.372 0 0 1 .28-.113h1.73c.112 0 .202.034.28.112a.387.387 0 0 1 .123.29v1.228c0 .112.034.212.112.324.078.1.168.168.28.202l1.026.435c.101.045.212.067.335.045a.547.547 0 0 0 .302-.145l.87-.87a.406.406 0 0 1 .29-.124.38.38 0 0 1 .28.123l1.228 1.217c.067.09.1.19.1.301a.411.411 0 0 1-.1.28l-.893.87a.62.62 0 0 0-.09.637l.436 1.038a.48.48 0 0 0 .201.268c.101.067.212.1.324.1h1.228c.112 0 .202.045.28.124.067.1.112.19.112.29v1.73a.383.383 0 0 1-.123.29.372.372 0 0 1-.28.113l.001.001zm-7.19 2.155c.447 0 .859-.09 1.25-.257a3.214 3.214 0 0 0 1.71-1.698 3.133 3.133 0 0 0 0-2.49 3.21 3.21 0 0 0-.693-1.017 3.184 3.184 0 0 0-1.017-.681 3.133 3.133 0 0 0-1.25-.257c-.448 0-.86.09-1.251.257a3.214 3.214 0 0 0-1.71 1.698 3.133 3.133 0 0 0 0 2.49 3.22 3.22 0 0 0 1.71 1.698c.391.167.803.257 1.25.257zm-7.75 1.072c0-.547.213-1.061.604-1.452l.123-.123h-.178c-.202 0-.402-.034-.592-.1-.38.591-.749.904-1.039.904-.625 0-1.552-1.306-2.233-3.864a28.2 28.2 0 0 0 1.954-1.407c.112-.3.28-.57.514-.792a2.04 2.04 0 0 1 1.127-.525s-.011 0-.011-.012l.268-.234a2.03 2.03 0 0 1-.525-1.35c0-.235.044-.458.122-.67-.39.01-.792.022-1.205.022-.447 0-.882-.011-1.295-.023a36.27 36.27 0 0 1-1.843-1.842 48.7 48.7 0 0 1-.023-1.307c0-.447.012-.882.023-1.295.29-.312.592-.625.904-.938.324-.324.637-.604.96-.905.414-.011.838-.022 1.284-.022.436 0 .86.011 1.284.022.324.301.636.581.96.905.312.312.614.625.904.938.012.425.023.849.023 1.295 0 .324-.011.636-.011.949a2.1 2.1 0 0 1 1.205-.39c.514 0 .994.178 1.373.513l.19.19v-.145c0-.57.224-1.106.637-1.496.156-.145.335-.257.525-.346.38-.503.737-1.006 1.06-1.497 2.558.693 3.864 1.608 3.864 2.233 0 .18-.123.38-.324.592.045.168.067.336.067.514v.145l.112-.112c.39-.39.905-.603 1.452-.603.112 0 .223.011.323.034.056-.19.078-.38.078-.57 0-1.685-1.898-2.913-4.69-3.717.056-.1.124-.212.168-.313 1.754-3.35 1.24-4.935.503-5.682-1.184-1.184-3.417-.726-5.951.658-.815-2.78-2.078-4.678-3.752-4.678s-2.925 1.898-3.751 4.678c-2.558-1.395-4.79-1.853-5.974-.67-.737.748-1.25 2.333.503 5.683.055.1.112.201.167.313-2.791.792-4.69 2.032-4.69 3.707 0 1.675 1.899 2.925 4.679 3.751-.044.09-.112.19-.156.28-1.754 3.35-1.24 4.935-.503 5.683.368.369.96.692 1.864.692.905 0 2.144-.312 3.807-1.184.09-.044.19-.1.28-.156.815 2.78 2.077 4.679 3.752 4.679.424 0 .815-.124 1.184-.347a2.442 2.442 0 0 1-.101-.613zm4.322-14.124c-.19-.212-.38-.436-.581-.648-.011-.29-.034-.58-.056-.87a27.67 27.67 0 0 1 1.575.234c-.29.413-.592.849-.938 1.284zm2.435-7.347c.3 0 .525.067.658.201.269.268.414 1.35-.803 3.674-.124.223-.246.457-.38.68a36.766 36.766 0 0 0-2.68-.412 32.494 32.494 0 0 0-.435-2.758c1.575-.916 2.87-1.384 3.64-1.384V6.41zm-4.947 3.986a17.683 17.683 0 0 0-.804-.045c-.234-.223-.48-.435-.726-.647.436-.335.87-.659 1.284-.939.09.514.168 1.061.246 1.63zm-2.893-7.303c.625 0 1.552 1.306 2.234 3.864a30.177 30.177 0 0 0-2.234 1.618 30.177 30.177 0 0 0-2.233-1.618c.693-2.558 1.608-3.864 2.233-3.864zm-2.634 5.672c.413.28.838.604 1.284.939-.246.212-.48.424-.726.647-.268.012-.535.023-.804.045.067-.57.145-1.117.246-1.63zM6.163 6.61c.133-.133.357-.201.659-.201.77 0 2.066.468 3.65 1.384-.19.87-.335 1.798-.447 2.758-.938.1-1.831.234-2.68.413-.133-.234-.267-.457-.378-.681C5.75 7.96 5.883 6.877 6.163 6.609v.001zm3.081 9.837c.19.212.38.436.58.648.012.301.035.592.056.882a27.67 27.67 0 0 1-1.574-.235c.29-.435.603-.859.938-1.295zm-.937-3.986c.491-.089 1.016-.167 1.574-.234-.022.29-.044.58-.055.87-.202.224-.39.436-.58.66a29.2 29.2 0 0 1-.94-1.296zm-5.661 2.635c0-.625 1.306-1.54 3.863-2.234.48.726 1.027 1.486 1.619 2.234-.592.76-1.15 1.508-1.619 2.233-2.557-.681-3.863-1.607-3.863-2.233zm7.179 7.693c-2.323 1.217-3.395 1.083-3.673.804-.269-.268-.414-1.35.803-3.674.112-.211.235-.424.358-.636.86.179 1.775.324 2.713.436.112.938.257 1.853.436 2.713-.212.124-.424.246-.636.358l-.001-.001zm1.954-2.914c.29.023.58.034.882.056.211.201.435.39.647.58a29.2 29.2 0 0 1-1.295.939 27.545 27.545 0 0 1-.234-1.575z"/>
</svg>
