<svg xmlns="http://www.w3.org/2000/svg" width="32" height="32" viewBox="0 0 32 32">
    <path fill="#333" fill-rule="nonzero" d="M16 0C7.867 0 1.28 6.874 1.28 15.36S7.867 30.72 16 30.72c8.133 0 14.72-6.874 14.72-15.36S24.133 0 16 0zm-.613 24.32c-1.018 0-1.84-.858-1.84-1.92 0-1.062.822-1.92 1.84-1.92 1.018 0 1.84.858 1.84 1.92 0 1.062-.822 1.92-1.84 1.92zm5.532-11.354c-.393.628-1.153 1.332-2.27 2.138-.772.563-1.25.986-1.46 1.28-.195.294-.306.678-.306 1.152v.704h-3.177v-.87c0-.756.172-1.421.503-1.984.319-.564.92-1.152 1.791-1.805.834-.576 1.386-1.063 1.656-1.447a2 2 0 0 0 .405-1.241c0-.512-.196-.909-.577-1.178-.38-.269-.92-.397-1.607-.397-1.19 0-2.563.384-4.097 1.165l-1.3-2.598A11.388 11.388 0 0 1 16.147 6.4c1.644 0 2.944.384 3.926 1.165.969.793 1.447 1.843 1.447 3.136 0 .883-.196 1.638-.601 2.265z"/>
</svg>
