<svg xmlns="http://www.w3.org/2000/svg" width="32" height="32" viewBox="0 0 32 32">
    <path fill="#333" fill-rule="nonzero" d="M28.737 10.936c.679 0 1.236.225 1.688.678.453.453.664 1.01.634 1.689v10.416c0 .648-.226 1.205-.679 1.658-.452.453-.995.679-1.658.679h-2.683v2.35c0 .74-.256 1.372-.784 1.9-.513.513-1.146.769-1.885.769H8.6c-.77 0-1.402-.256-1.9-.784a2.676 2.676 0 0 1-.754-1.9v-2.35H3.262c-.678 0-1.236-.226-1.688-.694-.453-.468-.664-1.07-.664-1.84V13.304c0-.679.226-1.236.679-1.689.452-.453 1.01-.678 1.688-.678l2.683.03V.927h13.386l6.708 6.648v3.376h2.683v-.015zM7.589 2.569v8.382H24.35V8.237l-.648-.648h-4.357V3.248l-.649-.694H7.586l.003.015zM24.38 28.391v-8.05c0-.255-.105-.497-.316-.708-.21-.21-.437-.316-.709-.316H8.6c-.256 0-.498.105-.71.316-.21.21-.315.437-.315.709v8.049c0 .24.105.467.316.693.21.211.437.332.709.332h14.756c.256 0 .498-.106.709-.332.21-.226.316-.452.316-.693zm-3.377-4.025v-1.673H10.966v1.673h10.038zm0 3.33v-1.672H10.966v1.673h10.038zm0-22.806V5.9h1.01l-1.01-1.01z"/>
</svg>
