<svg xmlns="http://www.w3.org/2000/svg" width="32" height="32" viewBox="0 0 32 32">
    <g fill="#333" fill-rule="evenodd">
        <path d="M30.545 8.87L16 16 1.455 8.87 16 2.91l14.545 5.96zM27.012 9L16 4.55 5.033 9 16 14.086 27.012 9zM7.864 17.496l-6.41 3.049L16 27.636l14.545-7.091-6.366-3.049-1.544.753 4.64 2.296L16 25.976 4.893 20.545l4.591-2.248z"/>
        <path d="M7.571 11.636l-6.116 2.88L16 21.607l14.545-7.091-6.097-2.88-1.544.753 4.372 2.127L16 19.947 4.893 14.516l4.298-2.079z"/>
    </g>
</svg>
