<svg xmlns="http://www.w3.org/2000/svg" width="100" height="100" viewBox="0 0 100 100">
  <path fill-rule="evenodd" fill="#fff" d="M71.024,42.1852 C86.826,42.1852 99.682,55.0422 99.682,70.8432 C99.682,86.6432 86.826,99.5002 71.024,99.5002 C55.222,99.5002 42.367,86.6432 42.367,70.8432 C42.367,55.0422 55.222,42.1852 71.024,42.1852 Z M88.687,73.1982 C89.982,71.9022 89.982,69.7832 88.687,68.4872 L73.379,53.1792 C72.732,52.5322 71.878,52.2092 71.024,52.2092 C70.17,52.2092 69.317,52.5322 68.669,53.1792 L53.362,68.4872 C52.067,69.7832 52.067,71.9022 53.362,73.1982 L68.669,88.5062 C69.317,89.1532 70.17,89.4762 71.024,89.4762 C71.878,89.4762 72.732,89.1532 73.379,88.5062 L88.687,73.1982 Z M75.8578,63.3193 L80.8498,68.3123 C81.5238,68.9873 81.5238,70.0873 80.8498,70.7613 L75.8578,75.7553 C75.5298,76.0823 75.0948,76.2613 74.6318,76.2613 C74.1708,76.2613 73.7358,76.0823 73.4078,75.7553 C72.7338,75.0803 72.7338,73.9803 73.4078,73.3043 L75.4458,71.2693 L66.6238,71.2693 L66.6238,74.7023 C66.6238,75.6573 65.8468,76.4343 64.8918,76.4343 C63.9368,76.4343 63.1598,75.6573 63.1598,74.7023 L63.1598,69.5363 C63.1598,68.5823 63.9368,67.8043 64.8918,67.8043 L75.4458,67.8043 L73.4078,65.7693 C72.7338,65.0933 72.7338,63.9943 73.4078,63.3193 C73.7348,62.9923 74.1708,62.8113 74.6318,62.8113 C75.0948,62.8113 75.5298,62.9923 75.8578,63.3193 Z M31.6826,57.4805 C32.7886,57.4805 33.5256,58.2175 33.5256,59.3245 L33.5256,66.6965 C33.5256,67.8015 32.7886,68.5395 31.6826,68.5395 L24.3106,68.5395 C23.2046,68.5395 22.4676,67.8015 22.4676,66.6965 L22.4676,59.3245 C22.4676,58.2175 23.2046,57.4805 24.3106,57.4805 L31.6826,57.4805 Z M33.5258,40.8936 L33.5258,48.2656 C33.5258,49.3716 32.7888,50.1086 31.6828,50.1086 L24.3108,50.1086 C23.2048,50.1086 22.4668,49.3716 22.4668,48.2656 L22.4668,40.8936 C22.4668,39.7876 23.2048,39.0506 24.3108,39.0506 L31.6828,39.0506 C32.7888,39.0506 33.5258,39.7876 33.5258,40.8936 Z M43.9067,50.1084 L42.7407,50.1084 C41.6357,50.1084 40.8977,49.3714 40.8977,48.2654 L40.8977,40.8934 C40.8977,39.7874 41.6357,39.0504 42.7407,39.0504 L50.1137,39.0504 C51.2187,39.0504 51.9567,39.7874 51.9567,40.8934 L51.9567,42.4834 C48.8697,44.5654 46.1677,47.1584 43.9067,50.1084 Z M16.3085,78.2148 L37.6605,78.2148 C38.2305,80.7968 39.1085,83.2588 40.2285,85.5868 L16.3085,85.5868 C11.1675,85.5868 6.9995,81.4198 6.9995,76.2778 L6.9995,19.1948 L6.9995,16.0418 C6.9995,10.9008 11.1675,6.7338 16.3085,6.7338 L23.9685,6.7338 L23.9685,14.6298 C23.9685,18.7008 27.2695,22.0018 31.3415,22.0018 C35.4125,22.0018 38.7135,18.7008 38.7135,14.6298 L38.7135,6.7338 L54.1415,6.7338 L54.1415,14.6298 C54.1415,18.7008 57.4415,22.0018 61.5135,22.0018 C65.5845,22.0018 68.8855,18.7008 68.8855,14.6298 L68.8855,6.7338 L76.5455,6.7338 C81.6855,6.7338 85.8535,10.9008 85.8535,16.0418 L85.8535,19.1948 L85.8535,40.0888 C83.5265,38.9618 81.0645,38.0788 78.4815,37.5008 L78.4815,28.5038 L14.3715,28.5038 L14.3715,76.2778 C14.3715,77.3468 15.2405,78.2148 16.3085,78.2148 Z M31.3417,18.3149 C29.3057,18.3149 27.6557,16.6649 27.6557,14.6289 L27.6557,4.1859 C27.6557,2.1499 29.3057,0.4999 31.3417,0.4999 C33.3777,0.4999 35.0277,2.1499 35.0277,4.1859 L35.0277,14.6289 C35.0277,16.6649 33.3777,18.3149 31.3417,18.3149 Z M61.5121,18.3149 C59.4771,18.3149 57.8261,16.6649 57.8261,14.6289 L57.8261,4.1859 C57.8261,2.1499 59.4771,0.4999 61.5121,0.4999 C63.5481,0.4999 65.1991,2.1499 65.1991,4.1859 L65.1991,14.6289 C65.1991,16.6649 63.5481,18.3149 61.5121,18.3149 Z"/>
</svg>
