<?xml version="1.0" encoding="UTF-8"?>
<svg width="178px" height="168px" viewBox="0 0 178 168" version="1.1" xmlns="http://www.w3.org/2000/svg" xmlns:xlink="http://www.w3.org/1999/xlink">
    <!-- Generator: Sketch 55.2 (78181) - https://sketchapp.com -->
    <title>vennDiagramBalance</title>
    <desc>Created with Sketch.</desc>
    <g id="vennDiagramBalance" stroke="none" stroke-width="1" fill="none" fill-rule="evenodd">
        <path d="M145.799456,61.2942697 C164.827083,70.240675 178,89.5819877 178,112 C178,142.927946 152.927946,168 122,168 C109.661228,168 98.2544961,164.00946 89,157.248576 C79.7455039,164.00946 68.3387722,168 56,168 C25.072054,168 0,142.927946 0,112 C0,89.205111 13.6195488,69.5912381 33.1651127,60.851915 C33.0557054,59.4156231 33,57.9643169 33,56.5 C33,25.2959116 58.2959116,0 89.5,0 C120.704088,0 146,25.2959116 146,56.5 C146,58.1148079 145.932256,59.7137935 145.799456,61.2942697 Z" id="Combined-Shape" fill="#C2E8FF" opacity="0.5"></path>
        <circle id="Oval" stroke="#8CD3F8" stroke-width="2" cx="122" cy="112" r="55"></circle>
        <circle id="Oval" stroke="#8CD3F8" stroke-width="2" cx="56" cy="112" r="55"></circle>
        <circle id="Oval" stroke="#8CD3F8" stroke-width="2" cx="89.5" cy="56.5" r="55.5"></circle>
        <path d="M144.904201,61.7887978 C144.967982,60.6970751 145,59.6005084 145,58.5 C145,26.1203988 122.077264,1 89.5,1 C56.9227357,1 34,26.1203988 34,58.5 C34,59.4599978 34.0243641,60.4170088 34.0729249,61.3704359 C40.9557765,58.4993598 48.3731551,57 56,57 C67.9979946,57 79.4377621,60.71715 89,67.5187009 C98.5622379,60.71715 110.002005,57 122,57 C129.99162,57 137.751607,58.6463867 144.904201,61.7887978 Z" id="Combined-Shape" stroke="#0070D2" stroke-width="2" fill="#8CD3F8"></path>
    </g>
</svg>