<svg xmlns="http://www.w3.org/2000/svg" width="101" height="101" viewBox="0 0 101 101">
  <path d="M4.65251383,54.4235603 C2.25251383,56.8235603 1.15251383,60.6235603 2.75251383,63.8235603 C3.35251383,64.9235603 4.15251383,65.8235603 5.05251383,66.7235603 C11.5525138,73.7235603 18.2525138,80.6235603 25.2525138,87.1235603 C28.8525138,90.4235603 32.7525138,93.6235603 37.1525138,95.9235603 C44.1525138,99.6235603 52.7525138,101.22356 60.5525138,99.3235603 C67.2525138,97.6235603 73.2525138,93.3235603 76.9525138,87.5235603 C78.7525138,84.6235603 79.8525138,81.5235603 80.8525138,78.3235603 C83.3525138,70.0235603 85.9525138,61.8235603 88.4525138,53.5235603 C89.6525138,49.6235603 90.8525138,45.8235603 91.9525138,41.9235603 C92.7525138,39.4235603 93.9525138,36.6235603 92.9525138,34.0235603 C91.6525138,30.7235603 87.7525138,29.1235603 84.5525138,30.7235603 C82.6525138,31.6235603 81.7525138,33.3235603 81.0525138,35.1235603 C79.5525138,39.1235603 78.0525138,43.1235603 76.5525138,47.1235603 C75.8525138,48.9235603 75.1525138,50.7235603 74.5525138,52.5235603 C74.3525138,52.9235603 74.2525138,53.3235603 74.0525138,53.7235603 C73.7525138,54.4235603 73.4525138,54.3235603 73.5525138,53.5235603 C73.5525138,52.7235603 73.7525138,51.9235603 73.8525138,51.1235603 C74.0525138,49.4235603 74.3525138,47.6235603 74.5525138,45.9235603 C75.7525138,37.2235603 76.9525138,28.6235603 78.1525138,19.9235603 C78.2525138,19.2235603 78.3525138,18.6235603 78.4525138,17.9235603 C78.9525138,14.6235603 76.9525138,11.1235603 73.4525138,10.5235603 C70.0525138,9.92356031 66.9525138,12.4235603 66.2525138,15.7235603 C66.0525138,16.5235603 65.9525138,17.2235603 65.8525138,18.0235603 C64.3525138,26.5235603 62.7525138,35.0235603 61.2525138,43.5235603 C61.1525138,44.3235603 61.0525138,45.4235603 60.7525138,46.2235603 C60.3525138,47.2235603 60.3525138,45.6235603 60.3525138,45.3235603 L60.3525138,35.3235603 C60.3525138,26.6235603 60.2525138,17.9235603 60.2525138,9.12356031 C60.2525138,8.42356031 60.2525138,7.82356031 60.2525138,7.12356031 C60.0525138,4.02356031 57.7525138,1.32356031 54.4525138,1.02356031 C51.0525138,0.723560306 47.9525138,3.32356031 47.7525138,6.82356031 C47.7525138,7.52356031 47.6525138,8.22356031 47.6525138,8.82356031 C47.2525138,17.4235603 46.8525138,25.9235603 46.4525138,34.5235603 C46.2525138,37.9235603 46.1525138,41.4235603 45.9525138,44.8235603 C45.9525138,45.2235603 45.9525138,47.4235603 45.1525138,46.4235603 C44.7525138,45.9235603 44.7525138,44.7235603 44.6525138,44.1235603 C43.2525138,35.6235603 41.7525138,27.2235603 40.3525138,18.7235603 C40.2525138,17.9235603 40.0525138,17.1235603 39.9525138,16.3235603 C39.4525138,13.1235603 36.7525138,10.4235603 33.3525138,10.7235603 C29.7525138,11.0235603 27.3525138,14.4235603 27.6525138,17.8235603 C27.7525138,18.4235603 27.7525138,19.0235603 27.8525138,19.6235603 L30.9525138,45.5235603 C31.3525138,48.7235603 31.7525138,51.9235603 32.1525138,55.1235603 C32.3525138,56.7235603 32.5525138,58.2235603 32.5525138,59.8235603 C32.5525138,61.2235603 32.6525138,63.0235603 31.5525138,64.0235603 C30.3525138,65.2235603 28.6525138,65.4235603 27.1525138,64.9235603 C25.4525138,64.3235603 24.1525138,62.7235603 22.8525138,61.4235603 C21.1525138,59.7235603 19.4525138,58.1235603 17.8525138,56.4235603 C16.7525138,55.3235603 15.5525138,53.9235603 14.2525138,53.0235603 C11.2525138,50.9235603 7.25251383,51.8235603 4.65251383,54.4235603 C5.45251383,53.5235603 6.25251383,52.7235603 4.65251383,54.4235603 C4.35251383,54.7235603 4.05251383,55.0235603 3.95251383,55.1235603 C4.05251383,54.9235603 4.35251383,54.6235603 4.65251383,54.4235603"/>
</svg>
