<svg xmlns="http://www.w3.org/2000/svg" width="100" height="100" viewBox="0 0 100 100">
  <path fill-rule="evenodd" d="M79.7664234,52.2952344 L79.7664234,52.2952344 C71.3658759,56.3669638 59.6266494,58.4688377 47.6164374,58.0519371 C46.3414163,50.891669 40.0357945,45.4893318 32.6358085,45.4893318 C27.7337521,45.4893318 23.140897,47.8760879 20.2990244,51.8157987 C14.4693641,48.7863209 11.0368824,45.0168445 11.0368824,41.5739402 C11.0368824,37.9538532 14.8480488,33.9446589 21.2335766,30.8491718 C28.9670831,27.1040146 39.358331,25.0368824 50.5,25.0368824 C61.641669,25.0368824 72.0329169,27.1040146 79.7664234,30.8491718 C86.1519512,33.9446589 89.9665918,37.9538532 89.9665918,41.5739402 C89.9665918,45.1940272 86.1519512,49.1997473 79.7664234,52.2952344 M32.6358085,65.9035654 C29.7696168,65.9035654 27.4419217,63.5758703 27.4419217,60.7131527 C27.4419217,57.8539093 29.7696168,55.52274 32.6358085,55.52274 C35.4985261,55.52274 37.8262212,57.8539093 37.8262212,60.7131527 C37.8262212,63.5758703 35.4985261,65.9035654 32.6358085,65.9035654 M100,41.5739402 C100,26.6732173 78.2551586,15 50.5,15 C22.7448414,15 1,26.6732173 1,41.5739402 C1,49.4255685 6.97210135,56.6831134 17.4363069,61.5990665 C17.8914234,69.5861875 24.537514,75.943922 32.6358085,75.943922 C33.5981541,75.943922 34.5570255,75.8501193 35.5020003,75.6694624 C35.5923287,76.1454239 35.637493,76.631808 35.637493,77.1216662 C35.637493,81.3914234 32.1633212,84.8655952 27.893564,84.8655952 L26.1564781,84.8655952 L26.1564781,94.9024775 L27.893564,94.9024775 C37.701151,94.9024775 45.6743754,86.9257791 45.6743754,77.1216662 C45.6743754,74.7974453 45.2331555,72.5461819 44.3576642,70.4130404 C44.9691185,69.6730418 45.5110893,68.8774565 45.9731541,68.0367069 C47.4774705,68.1061903 48.9887353,68.1444062 50.5,68.1444062 C78.2551586,68.1444062 100,56.4746631 100,41.5739402"/>
</svg>
