<svg xmlns="http://www.w3.org/2000/svg" width="16" height="16" viewBox="0 0 16 16">
    <path fill="#333" fill-rule="evenodd" d="M4.392 8.715c.035.755.22 1.481.558 2.178H0V8.715h4.392zm1.586-4.358a5.42 5.42 0 0 0-1.307 2.179H0V4.357h5.978zm8.575-2.178H0V0h14.553v2.179zM16 13.403l-.767.767-2.37-2.37c-.372.29-.787.517-1.246.68a4.272 4.272 0 0 1-1.438.243 4.241 4.241 0 0 1-1.996-.488 4.346 4.346 0 0 1-1.542-1.342 4.123 4.123 0 0 1-.802-2.178 4.14 4.14 0 0 1 .383-2.179c.221-.488.523-.92.907-1.299.383-.377.819-.67 1.307-.88a4.324 4.324 0 0 1 1.751-.366c.61 0 1.188.122 1.735.366.5.21.94.503 1.324.88.384.378.686.81.907 1.299a4.14 4.14 0 0 1 .383 2.179 4.244 4.244 0 0 1-.82 2.178l-.086.14 2.37 2.37zm-3.765-2.51c.244-.197.448-.412.61-.645a3.124 3.124 0 0 0 .61-1.9c0-.65-.186-1.254-.557-1.812a3.17 3.17 0 0 0-1.16-1.055c-.482-.261-.999-.392-1.55-.392-.553 0-1.07.131-1.552.392A3.319 3.319 0 0 0 7.46 6.536a3.277 3.277 0 0 0-.54 1.813 3.129 3.129 0 0 0 .4 1.586c.21.371.482.691.82.958a3.117 3.117 0 0 0 2.039.732 3.143 3.143 0 0 0 2.056-.732z"/>
</svg>
