<svg xmlns="http://www.w3.org/2000/svg" xmlns:xlink="http://www.w3.org/1999/xlink" width="16" height="16" viewBox="0 0 16 16">
    <defs>
        <path id="a" d="M4.5 7c.812 0 1.564.204 2.257.61.67.395 1.205.93 1.606 1.606A4.63 4.63 0 0 1 9 11.496c0 .825-.206 1.588-.62 2.288a4.47 4.47 0 0 1-1.614 1.606c-.7.407-1.458.61-2.275.61a4.4 4.4 0 0 1-2.275-.62A4.47 4.47 0 0 1 .61 13.767a4.44 4.44 0 0 1-.61-2.27c0-.826.203-1.586.61-2.28A4.4 4.4 0 0 1 2.216 7.61 4.442 4.442 0 0 1 4.5 7zm-.677 6.523l3.284-3.15-.584-.672-2.745 2.611-1.391-1.4-.583.637 2.019 1.974z"/>
    </defs>
    <g fill="none" fill-rule="evenodd">
        <path fill="#333" d="M4.392 8.715c.035.755.22 1.481.558 2.178H0V8.715h4.392zm1.586-4.358a5.42 5.42 0 0 0-1.307 2.179H0V4.357h5.978zm8.575-2.178H0V0h14.553v2.179zM8 12.134V9H5.869a4.99 4.99 0 0 1-.047-.651c0-.651.133-1.255.4-1.813.221-.488.523-.92.907-1.299.383-.377.819-.67 1.307-.88a4.324 4.324 0 0 1 1.751-.366c.61 0 1.188.122 1.735.366.5.21.94.503 1.324.88.384.378.686.81.907 1.299a4.14 4.14 0 0 1 .383 2.179 4.244 4.244 0 0 1-.82 2.178l-.086.14 2.37 2.37-.767.767-2.37-2.37c-.372.29-.787.517-1.246.68a4.272 4.272 0 0 1-1.438.243A4.241 4.241 0 0 1 8 12.134zm4.235-1.24c.244-.198.448-.413.61-.646a3.124 3.124 0 0 0 .61-1.9c0-.65-.186-1.254-.557-1.812a3.17 3.17 0 0 0-1.16-1.055c-.482-.261-.999-.392-1.55-.392-.553 0-1.07.131-1.552.392A3.319 3.319 0 0 0 7.46 6.536a3.277 3.277 0 0 0-.54 1.813 3.129 3.129 0 0 0 .4 1.586c.21.371.482.691.82.958a3.117 3.117 0 0 0 2.039.732 3.143 3.143 0 0 0 2.056-.732z"/>
        <g>
            <use fill="#666" xlink:href="#a"/>
            <use fill="#F86E00" xlink:href="#a"/>
        </g>
    </g>
</svg>
