<svg xmlns="http://www.w3.org/2000/svg" width="12" height="13" viewBox="0 0 32 32">
<path d="M31.65 28.686l-8.629-8.627c3.541-4.959 3.090-11.892-1.36-16.342-2.477-2.481-5.725-3.719-8.971-3.719-3.451 0-6.902 1.398-9.428 4.196-4.327 4.792-4.327 12.201 0 16.994 2.527 2.798 5.978 4.196 9.428 4.196 2.583 0 5.168-0.788 7.364-2.358l8.629 8.627c0.35 0.35 0.92 0.35 1.27 0l1.698-1.698c0.35-0.349 0.35-0.918 0-1.269zM6.090 19.292c-3.639-3.639-3.639-9.563 0-13.201 1.762-1.764 4.106-2.734 6.598-2.734s4.834 0.972 6.598 2.734c3.639 3.639 3.639 9.563 0 13.201-1.762 1.764-4.106 2.734-6.598 2.734s-4.837-0.972-6.598-2.734z" fill="#00A79D" ></path>
</svg>