<svg xmlns="http://www.w3.org/2000/svg" xmlns:xlink="http://www.w3.org/1999/xlink" width="17" height="16" viewBox="0 0 17 16">
    <defs>
        <path id="a" d="M10.5 5c.812 0 1.564.204 2.257.61.67.395 1.205.93 1.606 1.606A4.63 4.63 0 0 1 15 9.496c0 .825-.206 1.588-.62 2.288a4.47 4.47 0 0 1-1.614 1.606c-.7.407-1.458.61-2.275.61a4.4 4.4 0 0 1-2.275-.62 4.47 4.47 0 0 1-1.606-1.614A4.44 4.44 0 0 1 6 9.496c0-.826.203-1.586.61-2.28A4.4 4.4 0 0 1 8.216 5.61 4.442 4.442 0 0 1 10.5 5zm-.677 6.523l3.284-3.15-.584-.672-2.745 2.611-1.391-1.4-.583.637 2.019 1.974z"/>
    </defs>
    <g fill="none" fill-rule="evenodd">
        <path fill="#333" d="M11.234 0v1.52L6.748 5.993V12l-2.273-1.52V5.995L0 1.519V0z"/>
        <g>
            <use fill="#666" xlink:href="#a"/>
            <use fill="#F86E00" xlink:href="#a"/>
        </g>
    </g>
</svg>
