<svg xmlns="http://www.w3.org/2000/svg" width="22" height="22" viewBox="0 0 22 22">
    <path fill="#333" fill-rule="nonzero" d="M9.818 20.167H7.315l.715-2.127c.018-.046.037-.092.055-.128.174.357.385.706.632 1.036.321.449.688.861 1.1 1.219zM20.166 0H1.833A1.839 1.839 0 0 0 0 1.833v12.834C0 15.675.825 16.5 1.833 16.5h5.73a6.87 6.87 0 0 1-.202-1.228 8.763 8.763 0 0 1-.028-.605h-5.5v-2.31l4.345-4.364c.578.33 1.284.33 1.861 0l1.384 1.384c-.055.101-.11.211-.146.321a2.24 2.24 0 0 1 .247-.266c.358-.348.743-.66 1.155-.916-.21.027-.412.1-.605.21L8.681 7.343c.412-.705.33-1.622-.275-2.218a1.82 1.82 0 0 0-2.594 0c-.605.596-.688 1.513-.275 2.219l-3.704 3.73v-9.24h18.334v7.975c.485.541.87 1.146 1.155 1.779A6.95 6.95 0 0 1 22 14.254V1.834A1.839 1.839 0 0 0 20.167 0zm-5.491 7.333c.568 0 1.127.064 1.659.193a1.801 1.801 0 0 0-.156-2.402 1.81 1.81 0 0 0-2.585 0 1.821 1.821 0 0 0-.284 2.219l-.147.146c.495-.1 1-.156 1.513-.156zm4.336 10.716L22 21.038l-.962.962-2.989-2.988a5.41 5.41 0 0 1-1.567.852 5.472 5.472 0 0 1-1.815.312 5.275 5.275 0 0 1-2.512-.614 5.413 5.413 0 0 1-1.943-1.696 5.136 5.136 0 0 1-1.009-2.75c-.018-.193-.018-.348-.018-.458 0-.816.165-1.586.504-2.283a5.354 5.354 0 0 1 1.146-1.64 5.39 5.39 0 0 1 1.65-1.11 5.392 5.392 0 0 1 2.21-.458c.77 0 1.493.155 2.19.458a5.258 5.258 0 0 1 1.668 1.11 5.402 5.402 0 0 1 1.146 1.64c.34.706.504 1.467.504 2.283 0 .119-.009.274-.018.458a5.384 5.384 0 0 1-1.036 2.75l-.137.183zm-.22-3.391c0-.816-.239-1.586-.706-2.283-.367-.56-.853-1-1.458-1.33a4.014 4.014 0 0 0-1.952-.494c-.697 0-1.348.165-1.953.495-.605.33-1.1.77-1.485 1.329a4.103 4.103 0 0 0-.678 2.283c0 .165.01.311.018.458.055.559.22 1.072.486 1.54.266.467.605.87 1.036 1.21a3.95 3.95 0 0 0 2.576.926c.889 0 1.696-.257 2.392-.77.046-.028.11-.083.202-.156.312-.248.568-.523.77-.816a3.97 3.97 0 0 0 .752-1.934c-.01-.138 0-.293 0-.458z"/>
</svg>
