<svg xmlns="http://www.w3.org/2000/svg" width="17" height="15" viewBox="0 0 18 18">
    <path fill="#333" fill-rule="nonzero" d="M14.798 0c0 .015.165.188.502.518.337.33.697.697 1.095 1.095.398.397.937.922 1.605 1.567v13.026a1.872 1.872 0 0 1-.143.69c-.045.113-.105.21-.165.308-.06.097-.143.195-.24.292-.09.067-.188.135-.285.202a1.798 1.798 0 0 1-.623.27c-.104.023-.217.03-.337.03H1.793a1.627 1.627 0 0 1-.668-.143 1.26 1.26 0 0 1-.3-.15 3.454 3.454 0 0 1-.284-.217 2.539 2.539 0 0 1-.233-.277 1.385 1.385 0 0 1-.165-.316 1.882 1.882 0 0 1-.143-.69V1.791c0-.12.015-.232.038-.345.022-.112.052-.217.105-.322A.919.919 0 0 1 .3.816C.375.72.45.63.547.546.637.45.735.367.825.3a1.481 1.481 0 0 1 .622-.27C1.553.016 1.672 0 1.792 0h13.005zm1.41 16.206V4.237l-2.445-2.445H13.5v5.52h-9v-5.52H1.795v14.414h14.414zM10.125 1.792v4.395h2.25V1.792h-2.25z"/>
</svg>
