<?xml version="1.0" encoding="utf-8"?><svg version="1.1" id="Layer_1" xmlns="http://www.w3.org/2000/svg" xmlns:xlink="http://www.w3.org/1999/xlink" x="0px" y="0px" viewBox="0 0 100 100" style="enable-background:new 0 0 100 100;" xml:space="preserve"><path fill="#0070d2" d="M86,10H14c-2.2,0-4,1.8-4,4v14c0,2.2,1.8,4,4,4h72c2.2,0,4-1.8,4-4V14C90,11.8,88.2,10,86,10z M78.3,25 c-2.2,0-3.9-1.8-3.9-3.9s1.8-3.9,3.9-3.9c2.2,0,3.9,1.8,3.9,3.9c0,0,0,0,0,0C82.2,23.2,80.4,25,78.3,25z"/><path fill="#0070d2" d="M86,39H14c-2.2,0-4,1.8-4,4v14c0,2.2,1.8,4,4,4h72c2.2,0,4-1.8,4-4V43C90,40.8,88.2,39,86,39z M78.3,54 c-2.2,0-3.9-1.8-3.9-3.9c0-2.2,1.8-3.9,3.9-3.9c2.2,0,3.9,1.8,3.9,3.9l0,0C82.2,52.2,80.5,54,78.3,54z"/><path fill="#0070d2" d="M86,67.9H14c-2.2,0-4,1.8-4,4v14c0,2.2,1.8,4,4,4h72c2.2,0,4-1.8,4-4V71.9C90,69.7,88.2,67.9,86,67.9z M78.3,82.9 c-2.2,0-3.9-1.8-3.9-3.9c0-2.2,1.8-3.9,3.9-3.9c2.2,0,3.9,1.8,3.9,3.9C82.2,81.1,80.5,82.9,78.3,82.9C78.3,82.9,78.3,82.9,78.3,82.9 z"/></svg>
