<?xml version="1.0" encoding="utf-8"?>
<!-- Generator: Adobe Illustrator 18.1.1, SVG Export Plug-In . SVG Version: 6.00 Build 0)  -->
<svg version="1.1" id="Layer_1" xmlns="http://www.w3.org/2000/svg" xmlns:xlink="http://www.w3.org/1999/xlink" x="0px" y="0px"
	 viewBox="0 0 15.8 14.1" enable-background="new 0 0 15.8 14.1" xml:space="preserve">
<path d="M14,0.9l1.8,5.3v7c0,0.1,0,0.2-0.1,0.4s-0.1,0.2-0.2,0.3c-0.1,0.1-0.2,0.1-0.3,0.2s-0.2,0.1-0.4,0.1h-0.9
	c-0.1,0-0.2,0-0.4-0.1c-0.1,0-0.2-0.1-0.3-0.2c-0.1-0.1-0.1-0.2-0.2-0.3c0-0.1-0.1-0.2-0.1-0.4v-0.9H2.6v0.9c0,0.1,0,0.2-0.1,0.4
	c0,0.1-0.1,0.2-0.2,0.3C2.3,13.9,2.2,14,2.1,14c-0.1,0-0.2,0.1-0.4,0.1H0.9c-0.1,0-0.2,0-0.4-0.1s-0.2-0.1-0.3-0.2
	c-0.1-0.1-0.1-0.2-0.2-0.3S0,13.3,0,13.2v-7l1.8-5.3c0-0.1,0.1-0.2,0.2-0.4c0.1-0.1,0.2-0.2,0.3-0.3c0.1-0.1,0.2-0.1,0.4-0.2
	C2.8,0,2.9,0,3.1,0h9.7c0.1,0,0.3,0,0.4,0.1s0.3,0.1,0.4,0.2c0.1,0.1,0.2,0.2,0.3,0.3C13.9,0.6,14,0.8,14,0.9z M1.8,5.3h12.3l-1.3-4
	H3.1L1.8,5.3z M3.1,9.7c0.2,0,0.4,0,0.5-0.1C3.8,9.5,3.9,9.4,4,9.3C4.1,9.2,4.2,9,4.3,8.9c0.1-0.2,0.1-0.3,0.1-0.5
	c0-0.2,0-0.4-0.1-0.5C4.2,7.7,4.1,7.5,4,7.4C3.9,7.3,3.8,7.2,3.6,7.2C3.4,7.1,3.3,7.1,3.1,7.1c-0.2,0-0.3,0-0.5,0.1
	C2.4,7.2,2.3,7.3,2.1,7.4C2,7.5,1.9,7.7,1.9,7.8C1.8,8,1.8,8.2,1.8,8.4c0,0.2,0,0.3,0.1,0.5C1.9,9,2,9.2,2.1,9.3s0.3,0.2,0.4,0.3
	C2.7,9.7,2.9,9.7,3.1,9.7z M12.8,9.7c0.2,0,0.3,0,0.5-0.1c0.2-0.1,0.3-0.2,0.4-0.3S13.9,9,14,8.9c0.1-0.2,0.1-0.3,0.1-0.5
	c0-0.2,0-0.4-0.1-0.5c-0.1-0.2-0.2-0.3-0.3-0.4c-0.1-0.1-0.3-0.2-0.4-0.3c-0.2-0.1-0.3-0.1-0.5-0.1c-0.2,0-0.4,0-0.5,0.1
	c-0.2,0.1-0.3,0.2-0.4,0.3c-0.1,0.1-0.2,0.3-0.3,0.4c-0.1,0.2-0.1,0.3-0.1,0.5c0,0.2,0,0.3,0.1,0.5c0.1,0.2,0.2,0.3,0.3,0.4
	c0.1,0.1,0.3,0.2,0.4,0.3C12.4,9.7,12.6,9.7,12.8,9.7z"/>
</svg>
