    <svg xmlns="http://www.w3.org/2000/svg" viewBox="0 0 183.33333 183" width="183" height="183"><circle cx="91.5" cy="91.5" r="74.50185" style="fill:#fafaf9" /><path d="M121.29862,49.8074H75.97914A12.12634,12.12634,0,0,0,63.77769,62.00881V67.238h45.31955a6.9927,6.9927,0,0,1,6.97222,6.97225v45.31952h5.22916A12.12633,12.12633,0,0,0,133.5,107.32833V62.00881A12.12633,12.12633,0,0,0,121.29862,49.8074Z" style="fill:#dddbda"/><path d="M56.80547,74.21023H102.125a6.97222,6.97222,0,0,1,6.97222,6.97222V126.502a6.97225,6.97225,0,0,1-6.97225,6.97225H56.80547a6.97222,6.97222,0,0,1-6.97222-6.97222V81.18245A6.97222,6.97222,0,0,1,56.80547,74.21023Z" style="fill:#dddbda"/><path d="M91.5,1.472h-.05078l-.02515,0h-.01672l-.02112,0-.01746,0-.02051,0-.01831,0-.01965,0-.01794,0-.02051.00006-.01746,0-.02112.00006-.0166.00006-.02148.00006-.01709.00006-.02112.00009-.01685.00006-.02136.00009-.017.00006-.02368.00009-.01392.00006-.03247.00018-.02112.00009-.02173.00012-.01794.00012-.01978.00009-.01807.00012-.02051.00012L90.894,1.474l-.01819.00012L90.855,1.4743l-.01709.00012-.02063.00015-.017.00012-.02063.00015L90.762,1.475l-.02026.00015-.01709.00015-.02075.00018-.01733.00015-.02051.00018-.01855.00015-.0188.00018-.01953.00018-.07922.00079-.01331.00015-.02075.00021-.01746.00021-.02075.00021-.01685.00021L90.42,1.47839l-.01685.00018-.02124.00024-.01709.00021-.01929.00024-.019.00024-.0199.00027L90.29028,1.48l-.02185.00027-.01465.00021L90.23,1.4808l-.01257.00018-.02429.00034-.01331.00018-.1217.00183-.014.00024-.02368.00037-.01318.00021-.02417.0004-.01367.00021-.02356.0004-.01367.00024-.02332.0004-.015.00027-.02246.0004-.01465.00024-.02344.00043-.01306.00024-.025.00046-.011.00021-.02612.00049-.0116.00021-.02625.00052-.00525.00009-.13977.00281-.00061,0-.02991.00064-.0083.00015-.0271.00061-.0105.00021-.02576.00058-.0116.00024-.02734.00061-.00842.00018-.02844.00067-.00867.00018-.02869.00067-.00781.00018-.02905.00067-.007.00018-.20972.00522-.00293.00009-.033.00085-.00354.00009-.03149.00085-.006.00015-.03162.00085-.004.00012-.03284.00089-.00354.00012-.03345.00092-.0022.00006-.03406.001-.00256.00006c-.09656.00275-.19067.00558-.287.00864l-.00061,0q-3.57788.1133-7.079.50116L81.957,5.995A87.385,87.385,0,0,1,91.5,5.472v-4ZM73.61682,3.24817c-.50989.10278-1.02.21021-1.52673.32156L72.08862,3.57l-.0304.00668-.00562.00125-.0282.00623-.00769.00168-.02649.00586L71.9801,3.594l-.02588.00574-.00732.00162-.02844.00632-.00183.0004-.09668.02151-.00452.001-.026.0058-.01013.00226-.02344.00525-.01343.003-.02.00449-.01782.004-.01782.004-.01868.00421-.01746.00394-.0188.00421-.01794.004-.021.00476-.0144.00323-.036.00815-.00659.0015-.03027.00687-.011.00247-.025.00571-.01306.003-.02466.00562-.0116.00262-.02527.00577-.01147.00259-.02673.00613-.00989.00226-.02979.00681-.00623.00143-.15063.03467-.00244.00055-.03491.00806-.00378.00089-.03394.00787-.004.00092-.0354.00824-.00122.00027q-2.15643.501-4.27246,1.10449l-.00171.00049-.03638.01041-.00024,0-.037.01059-.00049.00012-.14856.0426-.00452.00134-.03113.009-.00818.00235-.027.00778-.01111.0032-.025.00723-.01135.00327-.02332.00677-.01367.004-.02087.006-.01538.00452-.01978.00571-.01575.00458-.03357.00977-.02087.00607-.01392.00409-.02283.00665-.01172.00342-.02258.00659-.01245.00363-.02258.00662-.01233.0036-.02246.00659-.01135.00333L66.0896,5.108l-.00781.00229-.02747.00806-.00061.00018q-1.05981.31169-2.10937.64883l1.22314,3.80841A85.70763,85.70763,0,0,1,74.4071,7.16934l-.79028-3.92117ZM56.447,8.55121q-1.8783.79468-3.7124,1.6712l-.001.00046q-.14008.067-.28027.13455l-.00183.00092-.17493.08456-.00024.00012-.03418.01654-.00183.00095-.03345.0162-.00134.00064-.03333.0162-.00171.00082-.13965.06808-.00085.0004-.03394.0166-.00122.00064-.0332.0162-.00232.00113-.03271.016-.00183.00092-.1394.06851-.00073.00031-.03357.01654-.00208.0011-.03357.01651-.00061.00031q-2.1535,1.06261-4.24109,2.2355l1.959,3.48749A86.006,86.006,0,0,1,58.00562,12.235L56.447,8.55121ZM40.68213,17.17572A90.43824,90.43824,0,0,0,32.76135,23.272l2.61108,3.03018a86.71663,86.71663,0,0,1,7.57031-5.82654l-2.26074-3.3ZM26.93921,28.755a90.46628,90.46628,0,0,0-6.56042,7.54059l3.15808,2.45483a86.8545,86.8545,0,0,1,6.27063-7.20737L26.93921,28.755ZM15.75488,42.821q-1.33521,2.07326-2.55725,4.22067l-.00024.00052c-.03931.06891-.077.13553-.11609.20456l-.00183.0033-.0144.02542-.0033.00592-.014.02487-.00293.00513-.01465.026-.00085.00146-.06311.112-.00391.007-.0127.02246-.00488.00879-.012.02136-.00623.01108-.01123.02-.00623.011-.01147.02063-.00537.00964-.03979.071-.00647.01151-.01013.01834-.00757.01337-.01025.01846-.00757.01346-.00989.01782-.00793.01419-.00977.01773-.00818.01459-.0094.01694-.00793.01431-.0177.0318-.00891.01614-.009.01624-.00842.015-.00964.01746-.0083.015-.00916.01654-.00867.01572-.00879.01581-.00977.01761-.00781.01413-.0105.019-.00732.01324-.01624.02948-.00122.00223-.0177.032-.0061.01126-.01147.02072-.00769.01407-.00964.01749-.00854.01559-.00952.01727-.00781.01425-.01025.01868-.00757.01379-.011.02005-.00671.01215-.01611.02942-.0061.01114-.01306.024-.00513.00928-.01257.02286-.00635.01181-.01147.02084-.00659.01221-.01123.02042-.00647.012-.01306.02393-.00427.008-.01733.03174-.00037.00073-.0365.06714-.0033.00592-.01428.02643-.00464.00858-.01343.0246-.00476.009-.01367.02509-.004.00754-.01392.0256-.00439.00824L12.223,48.8l-.00171.00314-.01636.03027-.00317.00589-.01392.02576-.00537.01007-.01257.02341-.00525.00961-.01257.02356-.00513.00955-.01355.02521-.00427.00784-.03528.06573-.00391.00742-.01367.02557-.00525.00974-.01221.02267-.00586.011-.0116.0217-.00635.012-.01221.02274-.00476.00906-.0144.02692-.00342.00644-.01733.03262-.00427.008-.0127.02393-.00684.01273-.01111.021-.0061.01157-.01111.0209-.00671.0126-.01074.02023-.00684.013-.01086.02036-.00635.012-.01416.02679-.00305.00577-.01721.03259-.00464.00867-.0127.02411-.00562.01065-.01172.02219-.00647.0123-.01086.02045-.00647.0123-.01074.02042-.007.01324-.01074.02054-.00623.01172-.01318.02524-.0083.01581-.01257.02383-.00684.01294-.00977.01868-.0083.0159L11.694,49.795l-.00891.01712-.0072.01361-.00989.019-.007.01331-.01.0192-.00586.0112-.038.07275-.005.00964-.01074.02063-.00623.012-.00952.01828-.00757.01453-.01.01932-.00574.011-.01111.02133-.00464.00888-.05762.11127-.0022.00433-.01306.02512-.00317.00629-.01245.02414-.00415.008-.01257.02429-.00281.00546-.01392.02695-.00012.00034-.07751.15076-.00037.00079-.01453.02826-.00183.0036c-.16956.33109-.33643.662-.50208.99548l3.58264,1.779a86.22932,86.22932,0,0,1,4.717-8.30423l-3.363-2.16577ZM7.58472,58.8262Q6.9519,60.45044,6.3811,62.10312l-.00012.00012-.01062.03091-.00085.00262-.0105.03033-.00085.00253-.01074.03125-.00012.00034c-.02625.07611-.05151.15015-.07751.22632l-.0011.00327-.01025.02994-.001.0029-.01025.03009-.0011.00314-.0542.16-.00049.00153-.00964.02844-.002.00583-.00928.02744-.0022.00638-.00891.02652-.00256.00763-.009.02707-.00146.00433-.0531.15851-.001.00262-.00977.02948-.00146.00409-.00928.028-.0022.00684-.00928.02771-.00134.00394-.01.03021-.00012.00046-.05383.16226-.00061.00183-.0094.0285-.00208.00638-.0094.02835-.00122.00391L5.9624,63.345l-.00073.00241-.0636.19385-.00073.00229-.00977.02991-.00122.004-.00964.02942-.00122.004-.00989.03012-.00037.00116c-.02136.06573-.04211.12979-.06323.19556l-.00049.00134-.01.03088-.00085.003-.01.03091-.00049.00134-.01025.032v.00021l-.06274.196-.00073.00244-.00989.03107-.00061.00174-.01013.03171-.00024.00092c-.02441.07687-.04858.15311-.07275.23007l-.00012.00012-.01013.03226-.00049.00168c-.02771.088-.05481.17471-.08215.26282l-.00024.00061q-.48285,1.55269-.91077,3.12842l-.00012.00043-.00867.03214-.00073.00259-.00818.03009-.00146.00562-.00818.03v.00021l-.04431.16443L4.536,68.1272l-.00769.02881-.00159.00583-.00732.02737-.0022.00848-.0072.02679-.00183.00674-.00732.02774-.00171.0062-.01648.06216,3.866,1.02682a85.6604,85.6604,0,0,1,2.96313-9.07571L7.58472,58.8262ZM2.77722,76.14151q-.23273,1.35333-.4248,2.72v.0004l-.032.22952-.00073.0058-.00427.03094-.00134.0098-.00378.02713-.00146.01114-.00354.02536-.00183.01379-.00317.02295-.002.01416-.00305.02322-.002.01425-.00317.02332-.00183.01379-.00305.02213L2.2832,79.365l-.00293.02121-.00464.03464-.00208.0159-.00281.02054-.0022.01645-.00305.02347-.00159.01166-.0033.02512-.00159.01147-.00342.02548-.00134.01013-.00342.02591-.00134.01019-.00354.02722-.00085.00674-.004.03-.00037.00348c-.01233.09375-.02417.18491-.03613.27875v.00009q-.38654,3.0222-.57117,6.10641l3.99292.23755a86.56615,86.56615,0,0,1,1.093-9.48825l-3.94214-.67758Zm2.72949,17.815-3.99854.112q.11774,4.20044.61316,8.29736l.00024.00183.00366.03009.00085.00745.00342.02808.001.00815.0033.02719.0011.00964.0033.0264.00122.01031.00305.02512.00159.01276.00293.02374.00159.01346.00281.02249.00183.01529.00378.03009.00342.02777.001.00745.00354.02893.00171.01392.00305.0239.00159.01288.00293.02414.00171.01276.0033.02634.0011.00949.00366.02878.001.008.004.03177.00061.00482.00464.0365v.00006q.0683.53806.14307,1.07413L6.299,103.478a86.97628,86.97628,0,0,1-.79224-9.52145ZM7.68884,110.991l-3.89685.90244q.58575,2.52937,1.31213,5.00272v.00024q.03845.1311.07727.26175l.00012.00052.01062.03549.00085.00308.01038.03482.00061.00183.0105.03528.00049.00192.03345.11157.00012.00046.01038.03488.00208.00684.009.02979.002.00684.00867.02863.00281.00922.0083.0275.00244.00839.00867.02859.00232.00769.022.07245.00073.00265.01025.0336.002.00674.00879.02875.00293.0098.00806.0264.00317.0105.00732.024.00415.01358.00671.02213.00415.01343.00684.02258.004.01321.007.02274.00415.01318.00842.02783.00732.02386.00537.01721.005.01657.006.01923.00513.01678.00549.01791.00562.01813.00513.01666.00574.01862.00549.01755.00513.01682.00586.01871.00525.01721.006.01917.00488.01553.00684.02222.009.02893.00562.01813.00513.01636.00574.01859.00549.01776.00537.017.00586.01907.00464.01486.00647.02066.00427.01355.007.02222.00293.00943.00806.02557.00085.0029.02917.09283.00134.00421.00793.025.00305.00995.00793.02493.00281.00879.00793.02536.00281.00867.0083.02634.00208.00653.00867.02725.00183.006.05054.15869.00061.002.00928.029.00183.00571.009.02841.00146.00458.0094.02924.00122.00378c.021.06583.04126.12848.0625.19424l.00024.00092.01025.03174.00049.00153.00989.03067.0011.00339.01.03073.00037.001.01038.03192.00024.001.053.16263.00037.00116.00977.02969.00159.00494.0094.02878.00146.00421.00952.02921.00134.00409c.02148.06561.04138.126.06311.19159l.00122.00357.0094.02863.00183.00543.00891.02692.00256.00781.009.0271.00134.00424.00989.02957.00037.00119.04211.12631.00159.00479.00867.02573.00293.00888.00781.02325.00391.012.00781.02295.0033.0101.00806.024.00342.01022.00818.0242.00244.00729.03979.118.00293.00879.00732.02158.00476.01389.00684.02039.00464.01385.00708.0206.00464.01376.00708.02094.00464.01364.007.02026.005.01483.00684.02017.00146.00406.017.05.00427.01233.00635.01877.00586.017.00574.01669.0061.018.00574.01672.00647.01886.00537.01575.00659.0192.00525.01541.00781.02252.004.01178.00952.0278.00244.007.02454.07108.00256.00751.00952.02759.0033.0094.009.02628.0033.00943.00952.02725.00244.00735.01025.02954.0022.00607q.076.21895.1532.43756l3.77173-1.33206A85.6651,85.6651,0,0,1,7.68884,110.991Zm5.53467,16.24872-3.6377,1.6637q1.10907,2.42464,2.35547,4.77042l.00012.00034q.06409.12067.12854.241h0l.01794.0336.00085.00159q.11975.22343.24048.44583v.00009l.01843.03387.00037.00064c.037.06805.07422.13647.11145.20441l.001.00183.01782.03253.00073.00128q.10291.188.20654.37518l.00037.00082.01831.033.00073.00125.01843.03323.00012.00027q.05658.102.11353.204l.00049.00076q.06647.11893.13318.23767v.00012l.01868.0332.00073.00122q.61194,1.08714,1.25281,2.15549l3.43005-2.05774a86.088,86.088,0,0,1-4.44946-8.44965Zm8.66809,14.82251-3.23437,2.35358c.06641.09119.12927.17728.19592.26819l.00244.00327.01709.02322.00452.00632.01648.02231.00366.005.05664.07709.00061.00082.015.02036.00647.00876.01392.01889.00769.01047.01355.01825.00781.01065.01294.01761.01013.0137.01123.01508.0105.01419.0144.01962.01758.02362.00757.01019.01428.01938.00928.01245.0127.01718.00891.01208.01379.01846.00793.01077.01611.0217.00525.007.01819.02448.00452.006.04517.0607.00256.00342.02.02683.004.00537.01831.0246.00476.00647.01929.0257.00281.00378.09253.12363.00049.0007.02271.03018.001.00137q2.32233,3.09448,4.89893,5.97775l.0033.00369.02222.0249.0033.00369.02234.02493.0033.00363.02344.02615.00183.00214.05127.05719.00208.00229.02222.02475.00745.00827.01648.01828.01013.01129.01331.01483.01208.01349.01245.0137.01172.01312.01221.01349.0509.05649.00818.009.015.01666.00928.01028.01526.01682.00806.009.01672.01846.00623.0069.01807.02.00305.00333.11.12134.00171.00186.11548.12671,2.95483-2.696a86.78548,86.78548,0,0,1-6.03918-7.40195Zm11.43579,12.81619-2.70557,2.94611q.76758.70491,1.55237,1.393l.00415.00369.02271.0199.00183.00159.1217.10645.006.00519.01892.01651.0083.00723.01782.01556.01013.00885.017.01474.00977.00851.01709.01489.01.00876.02966.02579.01318.01144.01318.01141.01489.01291.01135.00992.01721.01489.01062.00919.01855.01611.0083.00723.02161.01871.00659.00571.08655.07486.00073.00055.02673.023.00562.00488.02429.021.00366.00311.02673.023.00171.0015q.08844.07622.17712.15216v0q1.58624,1.35887,3.235,2.64447l.002.00153.02722.02118.00464.0036.02588.02017.00427.00336.02759.02139.0022.00171.06042.04694.00476.00375.024.01862.009.007.01978.01526.01147.00888.01721.01334.012.00934.017.01306.01306.01013.01624.01254.01233.00955.02722.02106.01428.011.015.01157.01636.01266.01111.00858.01794.01379.01086.00839.01794.01379.01013.00781.01794.01382.0105.00806.09314.07153.00806.00613.02148.01645.00549.00421.02295.01761.00378.0029c.5033.38528,1.00574.76157,1.51733,1.13638l2.36414-3.22659a86.80849,86.80849,0,0,1-7.3822-6.06345Zm13.74121,10.303-2.069,3.42334a89.76009,89.76009,0,0,0,8.82849,4.68622l1.67566-3.63208a86.12114,86.12114,0,0,1-8.43518-4.47748ZM62.577,172.5462l-1.3446,3.76727q1.472.52528,2.9657,1.00024l.00464.00146.02881.00912.00464.0015.02917.00925.00378.00119.16089.05084.00171.00052.0282.00888.00659.00208.02661.00839.00781.00244.026.00818.00781.00241.02686.00842.00647.002.02722.00848.00623.002.08862.02762.00586.00186.02112.00656.01453.00452.02173.00674.01172.00366.02319.00717.01221.00381.022.00681.01245.00385.02222.00687.01318.00409.02148.00665.01135.00351.07458.023.01709.00528.01843.00565.01636.005.01941.006.01538.0047.02014.0062.01514.00464.0188.00574.01746.00537.01782.00543.01892.00577.01563.00476.02307.007.01221.00375.0354.01077.005.0015.02979.00906.014.00427.02148.0065.01514.00461.01978.006.01624.00491.02026.00613.01453.00439.02148.0065.01416.00424.02527.00766.00928.00278.03357.0101.0022.00067.07227.0217.00977.003.02612.00778.01086.0033.02466.00735.01233.00369.02466.00735.01038.00311.02722.00812.00854.00253.03345.01.00159.00046.1106.03284.00549.00162.0304.009.00867.00256.02625.00775.01135.00336.02686.0079.00793.00232.03088.00912.00476.0014.14807.0434.002.00061.03418.00995.00488.00143.03162.00925.00574.00165.03381.00986.00134.00037.03687.01071.00012.00006q.11206.03255.22424.06482l.002.00055q2.103.60475,4.24744,1.10922l.91541-3.89389a85.66042,85.66042,0,0,1-9.15686-2.701Zm16.66553,4.11566-.5647,3.95993q3.13806.44751,6.34326.67661l.001.00009q.156.01108.312.02164l.00073.00006.03784.00253.002.00015.03638.00241.0033.00024.03589.00238.00281.00018.03479.00229.00488.00034.03613.00238.00159.00009q.11646.00764.23315.015l.00452.00031.03247.002.00879.00055.02966.00186.00842.00052.03.00186.00879.00052.0304.00189.00745.00043.031.00189.00769.00049.03394.002.00391.00024.0376.00226.001.00006.07642.00452.01123.00067.02686.00159.01221.0007.02527.00146.01428.00082.02356.00137.015.00085.02222.00128.01575.00092.02307.00131.01477.00082.02258.00128.0155.00089.02185.00122.0166.00095.02.0011.0177.001.02075.00116.02539.0014.02783.00153.01587.00085.02234.00122.01611.00089.021.00113.019.001.01843.001.01941.001.0177.00092.02051.0011.017.00089.02075.0011.01575.00082.02246.00116.01489.00076.02209.00116.015.00076.02283.00116.01257.00064.02515.00128.00281.00015.13879.00693.00317.00015.03491.00171.00061,0,.03345.00162.00391.00018.0321.00156.00452.00021.03186.00153.00452.00021q.73792.03506,1.47778.05817l.125-3.998a86.92094,86.92094,0,0,1-9.51782-.82333Zm26.66028-.33362a86.61683,86.61683,0,0,1-9.49255,1.062l.22461,3.99371q2.11871-.1192,4.21057-.33524l.0022-.00021.03406-.00354.00085-.00009.0343-.00354.002-.00021.03394-.00354.00085-.00009.17151-.01807.006-.00064.028-.003.0083-.00089.02637-.00281.01135-.00122.02356-.00253.014-.00153.02112-.00226.0177-.00192.01917-.002.01746-.00192.01965-.00211.0188-.002.0177-.002.02295-.0025.01367-.0015.03369-.00369.00342-.00037.03784-.00418.00635-.0007.03149-.00348.00879-.001.02856-.00317.01123-.00125.02673-.003.01086-.00122.02612-.00293.01282-.00143.02576-.0029.01062-.00119.02905-.00327.0083-.00095.03271-.00369.004-.00049q2.42413-.275,4.80823-.67715l-.66467-3.9444Zm16.55518-4.53766a85.67449,85.67449,0,0,1-9.08521,2.93311l1.014,3.86935q1.287-.33737,2.55884-.71143l.00012,0,.03149-.00931.00305-.00085.0304-.009.00342-.001.03076-.00909.00183-.00055.15747-.04663.00952-.00287.0238-.00708.01074-.0032.02319-.00693.01257-.00375.02185-.00647.01306-.00394.022-.00656.01282-.00385.02246-.00671.00928-.00278.07678-.02307.01709-.00513.017-.0051.01868-.00562.01733-.00525.01758-.00531.01782-.00537.01892-.00574.01526-.00461.02161-.0065.014-.00427.02332-.00708.01208-.00363.02856-.0087.00708-.00214.0365-.01111.00208-.00064.03333-.01013.00916-.00278.02649-.00809.01123-.00345.02417-.00735.01245-.00381.02417-.00739.01172-.0036.02429-.00745.01147-.00354.02844-.0087.007-.00214.07263-.02234.00549-.00171.03-.00925.00928-.00287.02747-.00848.0083-.00256.02783-.00864.00891-.00275.02905-.009.00623-.00192.03259-.01013.00342-.001.14758-.046.00281-.00088.03381-.01059.00378-.00116.03186-.01.00574-.0018.03418-.01071.001-.00031.18555-.05844.00159-.00052.0354-.0112.00171-.00052.03552-.01129.00134-.00043q.11115-.03529.22217-.0708l.00171-.00052.03613-.0116.00012,0,.03687-.01181.00037-.00015c.07446-.0239.14844-.04776.22266-.07184l.00049-.00012c.099-.0321.19751-.06421.29639-.09665l.00061-.00018q.29681-.09727.59216-.19641l.00024-.00012c.074-.02481.14758-.04962.22144-.07465l.00049-.00015.03577-.01208.002-.00067.0343-.01163.00269-.00095q.10913-.037.2179-.07428l.006-.002.03064-.0105.00513-.0018.03186-.01089.00391-.00134.03455-.0119.00122-.0004.14465-.0499.00781-.00269.02673-.00928.011-.00378.02478-.00861.01025-.00354.02551-.00885.0105-.00366.02612-.00906.00891-.00308.03271-.01138.00244-.00085.07117-.02484.00867-.00305.026-.00909.01257-.00439.02136-.00748.01453-.00507.02136-.00748.01379-.00482.02087-.00735.01416-.005.02319-.00815.01147-.004.03-.01059.005-.00174.03381-.01193.01611-.00571.01807-.00638.019-.00668.015-.00534.02-.007.01355-.00482.02209-.00781.01135-.004.02209-.00781.01221-.00433.02271-.00809.0083-.003.08716-.031.00354-.00128.02551-.00909.0083-.003.02393-.00854.0105-.00372.02441-.00876.00806-.00287.02563-.00916.00806-.0029.02612-.0094.005-.0018.02869-.01025.00012-.00006.12854-.0463.00122-.00043.03113-.01123.00159-.00058.03113-.01126.00122-.00043c.59082-.21378,1.18127-.43448,1.76624-.66019l-1.43994-3.73184Zm15.3175-7.75568a86.225,86.225,0,0,1-8.3197,4.68964L131.223,172.313c.6886-.33908,1.36829-.68472,2.04675-1.04074l.00256-.00134.02686-.0141.00452-.00235.02539-.01334.00684-.0036.025-.01321.00391-.002.10986-.05792.00964-.00507.01965-.01041.01282-.00674.019-.01007.01343-.00714.01758-.00931.01575-.00833.0166-.00882.01782-.0094.01379-.00729.028-.01489.00671-.00351.03064-.0163.00757-.00406.02454-.013.01123-.006.02234-.01184.01038-.00558.02319-.01233.0094-.005.02588-.01379.007-.00369.03113-.01666.00159-.00079.10181-.0545.00378-.002.02905-.01562.0061-.00327.03052-.01636.00122-.0007q3.0141-1.61911,5.88733-3.45685l-2.15466-3.37Zm13.47839-10.6456a86.87769,86.87769,0,0,1-7.22778,6.247l2.44446,3.16611q1.5163-1.17064,2.98047-2.40356l.00159-.00128.02881-.02426.00037-.00031.147-.12418.00525-.00442.02429-.02054.00452-.00391.02478-.02094.00427-.00366.02673-.02264.00208-.0018.05811-.04935.005-.00424.02258-.0192.01013-.00858.01746-.01489.01147-.0098.01538-.01309.014-.012.01367-.01169.01331-.01138.01514-.01288.02051-.01749.019-.01627.01343-.01147.01331-.01141.01489-.01273.01355-.01163.01453-.01242.01208-.01031.016-.01367.01135-.00977.01648-.01419.00842-.0072.06567-.05643.00513-.00436.0188-.01611.00867-.00748.01782-.01535.00916-.00787.01868-.01614.00769-.00656.019-.01642.007-.006.0957-.08267.002-.00171.02209-.01913.00476-.00409.02039-.01764.0072-.00626.02063-.01782.0033-.0029.15015-.1304.00122-.0011.02368-.0206.00293-.00266q.84009-.73206,1.65979-1.4827l.00024-.00024c.0498-.04559.09814-.09006.14783-.13577l.00183-.00159.02307-.02124.00232-.00214.02344-.02158.00073-.00067.12146-.11212.00281-.00259.02026-.0188.00684-.00629.01916-.01776.006-.00549.02026-.01883.00427-.004.08972-.08322.00781-.00726.01624-.01517.01111-.01025.01416-.01315.01331-.01242.01355-.01257.01282-.012.01379-.01282.01209-.01132.02686-.025.01282-.01193.01331-.01245.01294-.01212.01355-.0127.01379-.01282.01257-.01181.01416-.01328.01233-.01147.01526-.01434.01172-.011.0155-.01459.011-.01028.02417-.02261.00854-.008.02-.01883.0105-.00986.01648-.01556.00977-.00919.01794-.01678.009-.00861.01941-.01825.00684-.00638.02258-.02124.00464-.00443.05554-.05243.00037-.00027.02734-.02591.00256-.00235.02441-.02307.00488-.00464.02356-.02231.00354-.00342q.32538-.30807.64758-.61914l-2.77869-2.87732Zm11.11011-13.099a86.70916,86.70916,0,0,1-5.85107,7.55109l3.02173,2.621.0376-.04358.00366-.004.01978-.02292.00171-.00211q2.27637-2.62967,4.34692-5.43057l.00122-.00174.01709-.02319.00464-.00607.01709-.02316.00244-.00345.01855-.02518v-.00006l.07837-.10641.00244-.00323.01636-.02234.00488-.00659.01563-.02127.00586-.00784.01514-.02069.00513-.00711.01611-.02209.002-.00247.05566-.07614.00317-.00443.0144-.01971.00732-.00989.01343-.01825.00854-.01184.01172-.01593.01-.01392.012-.01645.00854-.01175.0127-.01724.00854-.01175.022-.03024.011-.0152.01074-.01462.01025-.01428.01147-.01572.01074-.01477.01-.0137.01221-.01678.009-.01254.01392-.01926.00757-.01041.01587-.02209.00562-.00781.02173-.02979.00439-.00613.01709-.02374.00708-.00977.01489-.0206.00684-.00964.01489-.02039.00732-.01044.01685-.0231.00391-.00546.02051-.02844.00146-.0022.04492-.06247.00171-.00244.021-.02911.00171-.00226.02-.02814.00317-.00433.02051-.02847.00122-.00183q.46655-.65131.92188-1.3111l-3.29272-2.27142Zm8.29028-15.036a86.00131,86.00131,0,0,1-4.23389,8.55914l3.481,1.97043q.36-.636.71069-1.2796l.00171-.003.01416-.02621.00293-.00528.01392-.02573.00244-.00421.01416-.02637.0022-.004.0625-.11526.001-.00165.01465-.02722.002-.00369.01392-.02551.00317-.006.01392-.0256.0022-.00415.01416-.02631.0022-.00388.06055-.1124.00293-.00583.01343-.02469.00317-.0061.0127-.02374.00464-.00867.01221-.02249.00464-.009.01172-.02173.00586-.01077.043-.08038.00049-.00122.01147-.02112.0061-.01169.0105-.0195.00659-.01239.01025-.01935.00659-.01221.01074-.02026.0061-.01157.01025-.01947.00732-.01337.01-.0192.001-.00168.02686-.05087.00464-.00836.01025-.01938.00732-.01389.009-.01718.00781-.01486.009-.01715.00854-.016.0083-.01593.00928-.01736.00781-.01462.011-.021.0061-.01147.0166-.03177.00537-.0101.01172-.02213.00684-.01324.0105-.01962.00732-.014.00977-.01874.00684-.01321.011-.02057.00635-.01227.01172-.02246.00513-.00958.01318-.0253.00439-.00821.01709-.0329.002-.00348.01489-.0289.00513-.0097.01245-.02386.00513-.00995.01172-.02219.0061-.01172.01221-.02344.00439-.00854.01489-.02881.002-.00351.05273-.10156.00269-.00534.01465-.02835.00342-.00629.0144-.02774.00293-.00592.01416-.02737.00366-.007c.02319-.04477.04639-.08987.06934-.1347l.00269-.00488.01489-.02933.00269-.00494.01465-.02869.00293-.00552.01538-.02988.00171-.0036.08789-.1716.001-.00208.0166-.03256.001-.00177.01709-.0336.00024-.00058q1.363-2.67815,2.55029-5.45676l-3.67871-1.57083Zm5.11987-16.38422a85.72027,85.72027,0,0,1-2.43677,9.231l3.8042,1.23569q.52441-1.61417.98975-3.257l.00024-.00052.00928-.03268.00024-.00116.009-.03189.00073-.00244c.0188-.06677.03638-.12906.05493-.19592l.00122-.00421.00806-.02859.00171-.006.00757-.02722.00244-.00836.00732-.02637.002-.00729.00757-.02713.0022-.00757.00732-.02707.00122-.00409.02393-.08615.00342-.01233.00562-.02057.00415-.01538.00537-.01932.00439-.01575.00586-.02094.00391-.0141.00537-.02029.00439-.01572.00562-.02.00439-.01648.00488-.01794.00537-.019.00659-.02448.00732-.02716.00342-.01215.00635-.02307.00415-.01526.00562-.02112.00439-.0159.00513-.01865.00488-.01773.00513-.01913.00415-.01575.0061-.02213.00342-.01245.00708-.02667.00269-.00946.00854-.03152.001-.00436.01-.03714.00024-.00031.00952-.03592.0022-.00769.00732-.02789.00317-.01117.00659-.02484.00342-.01248.00659-.02487.00269-.01016.00732-.02692.00269-.01.00757-.02835.002-.00739.00928-.03531.00024-.00082.01978-.07489.00073-.00247.009-.03375.00171-.00674.00781-.02933.0022-.00851.00781-.02917.002-.00729.00781-.03012.00171-.00635.00879-.03366.00073-.00253.03906-.1496.001-.003.00854-.03342.00146-.00589.0083-.03156.00122-.005.00854-.03287.00122-.00424.05786-.224.00073-.00354.009-.03455.00049-.00244.009-.03516.00073-.00241.00928-.03613.00024-.00116.04761-.18771.001-.00388.00879-.03409.00049-.00272.00879-.03491.00073-.00287.00928-.03635v-.00052c.01587-.06262.03149-.12482.04712-.1875l.00146-.00571.00781-.03189.00146-.00537.00781-.03159.00146-.006.00806-.03268.001-.00412c.01245-.05026.0249-.10022.03711-.15048l.00024-.00064.00879-.03571.00122-.00543.00781-.03183.00146-.00571.00781-.03137.00146-.00635.00806-.0329.00073-.00339.00854-.03519.00073-.00235.02734-.11279.001-.00412.00757-.03125.00244-.01019.00659-.0274.0022-.00916.00684-.02759.0022-.00955.00684-.02789.0022-.00934.00659-.02756.0022-.00934.00806-.03336.00073-.00287.01758-.0744.002-.00739.00684-.0285.00269-.0119.00586-.02469.00293-.01224.00586-.02411.00317-.01358.00513-.02234.00342-.01447.00537-.02176.00342-.015.00586-.02475.00269-.0108.00757-.03238.00366-.01611.00562-.02362.00391-.01672.00439-.01871.00415-.01794.00439-.01886.00439-.01794.00391-.01718.00439-.0191.00415-.01739.00439-.019.00391-.01639.00439-.01947.00439-.01828.00391-.01764.00513-.02188.00732-.03152.00391-.01678.00488-.02063.00342-.01523.00513-.02176.00293-.01376.00513-.02219.00317-.01309.00537-.02383.00244-.01059.00562-.02478.00244-.01007.0061-.02679.00073-.0029c.01294-.05676.02515-.11011.03784-.16693l.00049-.0015.00732-.03253.00049-.00189.00708-.032.00073-.00281c.13159-.58237.25635-1.1615.37646-1.74808l-3.91846-.80322Zm1.75317-17.08655a87.29822,87.29822,0,0,1-.554,9.54016l3.97437.45157q.14319-1.25908.25146-2.52768V99.2471l.00293-.03409.00024-.00269.00269-.03357.00024-.00168.00293-.03421V99.1395c.00806-.09506.01538-.18588.02319-.281l.00049-.00467.00244-.03049.00049-.00613.0022-.02875.00073-.00867.0022-.027.00073-.01044.0022-.02573.00073-.01059.0022-.02734.00049-.00693.00244-.02951.00024-.00607.00244-.03064.00024-.00214.00757-.09909.00073-.00662.00146-.02151.00122-.016.00171-.01984.00122-.01752.00146-.02081.00122-.01559.00171-.02164.00122-.01624.00146-.01981.00146-.01779.00122-.01917.00146-.01852.00146-.0191.00122-.01709.00146-.02042.00146-.01837.00122-.01794.00171-.02139.001-.01608.00171-.02252.00122-.015.00073-.01141.00317-.045.00122-.01706.00122-.01651.00146-.02151.00122-.01511.00146-.02283.00122-.01465.00146-.02271.00122-.01511.00146-.02344.001-.01321.00171-.02527.001-.01248.00171-.02505.001-.01306.00171-.02478.00073-.01285.0022-.03.00049-.0065.0022-.03513.00024-.003.00513-.07712.00024-.00211.00244-.03635.00024-.00385.0022-.03351.00049-.00833.002-.02939.00073-.01.00171-.02725.00073-.01175.002-.0267.00049-.01086.002-.02783.00049-.00964.002-.03091.00049-.00613.0022-.03427.00024-.00363c.00415-.06467.00806-.129.012-.1937l.00024-.00061.0022-.03751.00024-.00314.0022-.03561v-.00305l.0022-.03442.00024-.00592.002-.03259.00049-.00571.002-.03326.00024-.005.0022-.036v-.0015c.00684-.11633.01343-.23315.01978-.34964l.00024-.00192q.03845-.70152.06616-1.40622v-.001q.00623-.15578.01172-.31171l.00024-.00449.00122-.03461.00024-.00409.00122-.03409v-.00549l.00122-.033.00024-.00629.001-.03146.00024-.00766.00122-.03192.00024-.00635.00122-.0354V94.553l.00513-.15576v-.00443l.001-.03278.00049-.01068.00073-.02686.00049-.01337.00073-.02444.00049-.014.00073-.0238.00024-.01517.00073-.02271.00049-.015.00073-.02264.00049-.01608L181.49,94.132l.00049-.01361.00073-.02448.00049-.01456.00049-.024.00049-.01364.00073-.02747.00073-.02594.00049-.02164.00049-.01837.00049-.01862.00073-.02045.00024-.01755.00073-.021.00024-.01581.00073-.02188.00024-.01617.00073-.02209.00024-.0141.00049-.02417.00049-.01254.00049-.02585.00024-.00888.00073-.02921v-.005q.02234-.937.02539-1.8786l-4-.01288Zm2.28247-17.8764-3.92383.77731a86.34584,86.34584,0,0,1,1.33179,9.45633l3.9856-.33746q-.11316-1.33594-.26489-2.66083l-.00024-.00183-.00439-.03812v-.00006l-.00439-.03845v-.00067l-.01807-.15454-.00049-.00452-.00391-.03348-.00073-.00674-.00366-.0296-.00122-.01114-.00317-.02658-.00146-.0116-.00293-.02554-.00146-.0126-.00317-.02554-.00146-.01227-.00269-.02374-.00171-.01447-.00317-.02664-.00122-.01022-.00464-.03723-.00122-.00964-.00317-.027-.0022-.0184-.0022-.018-.00269-.02118-.00171-.01553-.00269-.021-.002-.01581-.00269-.02191-.00171-.01437-.00269-.02267-.00171-.01279-.00317-.02518-.00122-.00974-.00317-.02618-.00122-.00943c-.00684-.05579-.01392-.11218-.021-.16794v-.001l-.00415-.03189-.00049-.00464-.00391-.03119-.00049-.00421-.00391-.0311-.00073-.00516L180.8,79.99933l-.00024-.00208q-.39258-3.07974-.99-6.09006Zm-5.24634-17.18762-3.689,1.54645a85.65611,85.65611,0,0,1,3.19312,8.99765l3.83862-1.12485q-.12122-.414-.24634-.82642l-.00122-.004-.01-.03247-.00146-.00513-.00928-.0307-.0022-.00711-.00928-.02982-.002-.00671-.01-.03314-.001-.00311-.01123-.03662-.002-.006-.00854-.0282-.00513-.01672-.00562-.01849-.00562-.01825-.00513-.01633-.00586-.0191-.00488-.01584-.00635-.02094-.00342-.01065-.00781-.02542-.00146-.00476c-.01343-.04407-.02588-.084-.03955-.12805v-.00043l-.00977-.03094-.001-.003-.00879-.02887-.002-.00589-.00928-.02951-.00049-.00189q-1.26929-4.0751-2.90625-7.97473ZM165.991,40.92624,162.68359,43.176a86.35571,86.35571,0,0,1,4.92554,8.18277l3.53638-1.8692q-.7002-1.32445-1.44287-2.62308l-.002-.00323-.01514-.02643-.0022-.00388-.01514-.02661-.00122-.00214-.06274-.10916-.00513-.00909-.012-.02078-.0061-.01035-.01172-.02054-.0061-.01056-.01172-.02042-.00684-.01163-.011-.019-.00732-.01276-.011-.0191-.002-.00345-.02759-.04755-.00513-.00885-.01025-.018-.00854-.01465-.00952-.01657-.0083-.01425-.01025-.01767-.0083-.01434-.00977-.01678-.009-.01541-.00928-.01587-.01074-.01883-.00757-.0127-.01782-.03061-.0061-.01083-.0127-.02151-.00635-.01093-.01221-.021-.00708-.0123-.012-.02026-.00659-.01129-.01221-.021-.00684-.0116-.01392-.024-.00415-.007-.03833-.06564-.002-.00308-.0166-.02829-.00488-.00824-.01489-.02536-.00391-.00674-.01465-.025-.00488-.00848-.01611-.02744-.0022-.00372-.05908-.09988-.00024-.00043-.01929-.03287-.00073-.00116-.0188-.0318-.00146-.00232-.01855-.03168-.00073-.00122c-.033-.05569-.06616-.11166-.09937-.16727l-.00024-.00061q-.39917-.67072-.80957-1.33408l-.00146-.00232-.01929-.03107-.00073-.00146-.10229-.16464-.001-.00153-.019-.03055-.002-.00327-.01807-.02905-.00244-.00391-.08081-.1293-.00342-.0054-.01709-.02716-.00342-.0054-.01611-.026-.00439-.007-.0166-.02615-.00342-.00565-.01831-.02911-.00146-.00247-.04077-.0647-.00317-.00507-.01611-.02563-.00635-.01013-.01294-.02042-.0083-.013-.01172-.01868-.00732-.01163-.01294-.02051-.00708-.01129-.01465-.023-.00488-.0076-.01929-.03061-.00708-.011-.0127-.02026-.0083-.01312-.011-.01718-.00952-.01523-.00977-.01526-.01074-.017-.00757-.01184-.01245-.01938-.00635-.01022-.01294-.02032-.00439-.00668-.05-.07886-.001-.00125-.01611-.02551-.00269-.00424-.01562-.02448-.00342-.005-.0166-.02594-.00049-.00082q-.68958-1.07817-1.4082-2.13474Zm-11.5343-13.78058-2.79736,2.8591a86.879,86.879,0,0,1,6.44958,7.04788l3.09546-2.53342-.02393-.02936-.00293-.00345-.02075-.02548-.00439-.00525-.02026-.02466-.00391-.00482-.02026-.02457-.00391-.00494-.09692-.11774-.00317-.00388-.022-.02655-.00171-.00214-.02295-.02771-.002-.00235-.09814-.11871-.0022-.00269-.022-.02634-.00366-.00443-.02026-.02457-.00415-.0051-.02222-.02673-.00146-.00171-.07422-.08926-.00122-.00146-.02319-.02786-.0022-.00266-.022-.02631-.00342-.00415-.02295-.02725-.00073-.001-.02393-.02856-.00122-.00146-.0498-.05951-.00024-.00037-.02417-.02884-.0022-.00259-.02124-.02539-.00488-.00586-.02026-.02393-.00415-.00494-.02173-.02612-.0022-.00238-.0498-.0592v-.00012l-.02417-.02881-.00293-.0033-.02148-.02545-.00415-.0051-.02075-.02466-.00342-.004-.02148-.02533-.00342-.00412-.09814-.11591-.00464-.00549-.02026-.02393-.00415-.005-.02075-.02426-.00391-.00458c-.033-.03879-.06567-.07751-.09888-.11624l-.00342-.004-.021-.02487-.00391-.00461-.02026-.02356-.00537-.00644-.02148-.02512-.0022-.00244-.075-.08755-.00269-.0033-.022-.02554-.00366-.00443-.021-.02426-.00415-.00485-.02222-.02591-.002-.00241-.02466-.02856-.00024-.00034-.07544-.08768-.00269-.003-.02173-.02518-.00439-.00519-.02173-.02527-.0022-.00247-.02441-.0282-.00049-.00067-.07617-.0881-.00122-.00131-.02295-.02649-.00415-.00464-.02148-.025-.00293-.00339-.02368-.02719-.00122-.00122c-.03345-.03873-.06738-.07751-.10107-.11618l-.00293-.00354-.02246-.02573-.00269-.003-.02246-.02573-.00293-.00354-.10083-.11517-.00293-.00339-.02222-.02527-.00366-.00424-.02051-.02325-.00537-.00623-.02246-.02545-.00171-.002-.07593-.08652-.00317-.00339-.02222-.02539-.00317-.00351-.02173-.02469-.00415-.00479-.02246-.02539-.0022-.00247-.07642-.08624-.00269-.00317-.02271-.0256-.00293-.00339-.022-.02481-.00391-.00436-.02295-.02573-.002-.00226-.02441-.02753-.001-.00113-.05151-.0578-.00146-.00162-.02344-.02631-.00415-.00464-.021-.02371-.00464-.00507-.02148-.02414-.00342-.00385-.02295-.0257-.00244-.00266-.07666-.08591-.00244-.00272-.022-.02451-.00562-.00616-.02026-.02277L158.533,31.402l-.02271-.02527-.0022-.00232-.0769-.08548-.00366-.00415-.02124-.02353-.00586-.00656-.019-.02109-.00659-.00735-.0188-.02072-.00635-.0072-.02222-.02457-.0022-.00235-.07666-.08481-.00439-.00482-.02148-.02368-.00415-.00452-.02148-.02383-.00391-.00439-.02295-.02518-.00244-.00275-.07739-.08508-.00293-.00333-.022-.0239-.00562-.00613-.01953-.02161-.00635-.00681-.01978-.02182-.00513-.00571-.02344-.02557-.00171-.00174-.05127-.05606-.00537-.00589-.01953-.02142-.00708-.00775-.01831-.02-.00708-.00763-.0188-.02057-.00659-.00723-.0188-.02048-.00659-.00723-.05127-.05573-.00024-.00015-.02466-.02673-.00586-.00659-.01831-.01978-.00928-.00995-.01611-.0177-.0083-.00888-.01831-.01981-.00708-.0076-.02222-.02426-.00244-.00253-.02563-.02765-.00415-.00467-.02148-.023-.0061-.00662-.01855-.02014-.00854-.00906-.0166-.018-.00928-.01-.01538-.01651-.01-.01077-.01758-.019-.00684-.00754-.051-.05481-.00415-.00446-.021-.02243-.00732-.008-.01782-.01926-.00781-.00824-.01758-.019-.00854-.009-.01733-.01877-.00781-.00818-.01929-.02078-.00635-.00662-.02466-.02661-.00635-.00665-.0188-.0202-.0083-.00879-.01733-.01855-.009-.00949-.01538-.01654-.01074-.01135-.0144-.01544-.011-.01166-.01514-.01624-.00952-.01019-.02075-.02191-.01514-.01627-.01318-.01379-.01294-.01376-.01221-.01309-.01172-.01251-.01392-.01462-.01172-.01239-.01318-.01407-.012-.0127-.01221-.013-.01343-.01419-.01245-.01312-.01831-.01947-.01733-.01837-.01245-.01294-.0127-.01355-.01343-.01407-.011-.01172-.01367-.01431-.01245-.01328-.01245-.013-.01221-.01288-.01318-.01382-.01123-.012-.02637-.02777-.01074-.01126-.0127-.01321-.01245-.01324-.0127-.01318-.01245-.01331-.01294-.01346-.01245-.01306-.01245-.01306-.01221-.01294-.01392-.01443-.0105-.01114-.01392-.01456-.0127-.01318-.0249-.026-.011-.01163-.01538-.01608-.009-.00934-.01538-.01617-.01-.01041-.01514-.01578-.00952-.00983-.01514-.01584-.01-.01044-.01562-.0162-.00464-.00485-.05957-.062-.00806-.00839-.01636-.01715-.0083-.00851-.01636-.01688-.00854-.00885-.01685-.01749-.00732-.00772-.01685-.0174-.00757-.0079-.084-.08688-.00537-.00562-.01929-.01981-.00464-.00473-.01929-.02014-.00537-.00543-.01929-.02-.00366-.00372-.08887-.09137-.00317-.00348-.01953-.01984-.00537-.00562-.01953-.02-.00464-.00479-.01929-.01984-.00537-.0054-.08984-.09219-.00073-.00067-.02173-.02213-.00269-.00281-.02051-.021-.00439-.00436-.02124-.02179-.00049-.0004c-.03931-.04016-.07788-.07956-.11743-.11966l-.00073-.00067-.02246-.02283-.00171-.00192-.022-.02216-.00244-.00244q-.583-.59207-1.17664-1.17261Zm-14.0293-11.23044-2.17676,3.35583a86.6735,86.6735,0,0,1,7.71411,5.63419l2.53418-3.09482a90.3003,90.3003,0,0,0-7.989-5.84155l-.0033-.0022-.02454-.0159-.00623-.00406-.02393-.01553-.00269-.00174-.02185-.01422Zm-15.978-8.22278-1.4646,3.72223a85.91073,85.91073,0,0,1,8.67627,3.98666l1.87012-3.53589a89.56727,89.56727,0,0,0-9.08179-4.173ZM107.15015,2.82751l-.69067,3.93991a85.801,85.801,0,0,1,9.29834,2.17105l1.12585-3.83832c-.57935-.16992-1.15686-.333-1.741-.49155l-.00037-.00009-.03333-.009-.00012,0-.03247-.00882-.00269-.00073c-.07837-.02118-.153-.04126-.23132-.06223l-.00293-.00082-.02954-.0079-.00549-.00143-.03015-.00806-.00244-.00067-.03137-.00833-.00256-.00073-.1947-.05161-.00745-.002-.028-.00735-.00549-.00143-.02893-.00763-.00574-.0015-.02893-.00763-.00439-.00116-.02991-.00784-.00391-.001-.13086-.03424-.001-.00024-.03027-.0079-.00415-.00107-.028-.00723-.00745-.002-.0271-.007-.00769-.002-.026-.00674-.00964-.0025-.026-.00671-.00708-.00183-.02771-.00717-.005-.00128L113.93555,4.29l-.00452-.00116-.03015-.00775-.00378-.00095-.02893-.00742-.00659-.00168-.02856-.00729-.005-.00128-.02942-.00751-.00488-.00122-.03015-.00769-.00134-.00037-.167-.04227-.001-.00027-.03149-.0079-.00342-.00089-.03-.00757-.00452-.00113-.03076-.00772-.00244-.00061-.03137-.00787-.00305-.00076c-.09009-.02258-.17688-.04419-.26709-.0665l-.00281-.0007q-2.98132-.73741-6.03711-1.274ZM91.5,1.472v4c2.46008,0,4.9436.10495,7.38159.312l.3385-3.98566q-1.67926-.14259-3.37476-.22333l-.00061,0-.14282-.00668-.00232-.00012-.03333-.0015-.00232-.00012-.14258-.00638-.00122-.00006-.03418-.0015-.00208-.00009-.14246-.00607-.002-.00009-.03308-.00137L95.303,1.5509l-.032-.00131-.00342-.00015L95.162,1.54517,95.15759,1.545l-.03-.00119-.00647-.00027-.03027-.00119L95.087,1.54218l-.10425-.004-.0083-.00034-.02686-.001-.00745-.00027-.02771-.001-.007-.00027-.03186-.00116L94.87134,1.534l-.07007-.00256-.00537-.00018-.02856-.001-.0083-.00027L94.7323,1.529l-.00781-.00031-.02722-.00095-.00769-.00027-.06824-.00232-.00781-.00027L94.58679,1.524l-.00891-.00031-.0249-.00082-.01013-.00034-.02637-.00089-.00757-.00024-.06921-.00223L94.43481,1.519l-.02832-.00092-.0105-.00034-.024-.00076-.00964-.00031-.027-.00082-.00708-.00021-.069-.00211-.00623-.00018-.02844-.00085-.00769-.00024-.02637-.00076-.009-.00027-.02783-.00079-.0061-.00018-.03333-.00095-.00134-.00006-.03467-.001L94.072,1.50806l-.02734-.00076L94.03406,1.507l-.02332-.00064L93.99927,1.506l-.02258-.00061-.012-.00031-.02893-.00076-.004-.00012-.03381-.00089-.00989-.00027-.0238-.00061-.0127-.00034-.02039-.00052-.0144-.00037L93.796,1.50073l-.01245-.00031L93.759,1.49982l-.00928-.00021-.03357-.00082L93.71,1.49863,93.68225,1.498,93.672,1.49771l-.024-.00055-.0105-.00024-.02478-.00058-.00952-.00021-.03064-.0007-.00281-.00006-.03455-.00079-.0072-.00015-.0271-.00058-.01-.00021-.02417-.00052-.01038-.00024-.026-.00055-.00793-.00015-.02856-.00061-.006-.00012-.06873-.00137-.0094-.00018L93.286,1.48941l-.01257-.00024-.02161-.00043-.01233-.00024L93.2113,1.488,93.207,1.48788l-.06909-.00125-.01038-.00018-.02283-.0004-.01294-.00024-.02185-.00037-.012-.00021-.024-.0004-.00964-.00015-.068-.0011-.0094-.00015L92.922,1.483l-.01038-.00015-.02417-.00037-.01062-.00015-.02527-.0004-.00879-.00012L92.813,1.48141l-.00476-.00006-.03381-.00049-.00867-.00012-.0249-.00034-.0116-.00015-.02295-.00031-.012-.00015-.021-.00027-.01367-.00018L92.63391,1.479l-.00745-.00009-.03357-.00043-.00916-.00009-.0249-.00031L92.54749,1.478,92.525,1.47775,92.5127,1.4776l-.02478-.00024-.0083-.00009-.03076-.00034-.00378,0-.03442-.00037-.0072-.00006-.026-.00024-.01233-.00012-.02271-.00021L92.3313,1.4758l-.02356-.00021-.011-.00009-.02747-.00024-.00623-.00006-.03442-.00027-.006,0-.028-.00021-.0105-.00009-.02332-.00018-.01208-.00006L92.126,1.47415l-.01135-.00006-.02295-.00015-.01184-.00006-.03308-.00021-.00586,0-.02844-.00018-.00928,0-.02551-.00015-.00977,0-.02441-.00012-.01086-.00006-.02576-.00012-.00818,0-.0343-.00015h-.00317l-.03064-.00012-.01074,0-.02271-.00009-.01306,0-.02234-.00006-.01086,0-.02612-.00006-.00818,0-.06824-.00012-.01013,0-.02393,0-.01233,0h-.021l-.01355,0H91.5Z" style="fill:#ecebea"/></svg>