<?xml version="1.0" encoding="utf-8"?>
<!-- Generator: Adobe Illustrator 21.0.2, SVG Export Plug-In . SVG Version: 6.00 Build 0)  -->
<svg version="1.1" id="Layer_1" xmlns="http://www.w3.org/2000/svg" xmlns:xlink="http://www.w3.org/1999/xlink" x="0px" y="0px"
	 viewBox="0 0 24 24" style="enable-background:new 0 0 24 24;" xml:space="preserve">
<style type="text/css">
	.st0{fill:#FFFFFF;}
	.st1{fill:#F44336;}
	.st2{fill:url(#SVGID_1_);}
	.st3{opacity:0.7;fill:url(#SVGID_2_);enable-background:new    ;}
	.st4{opacity:0.6;}
	.st5{fill:url(#SVGID_3_);}
	.st6{fill:url(#SVGID_4_);}
	.st7{opacity:0.7;fill:url(#SVGID_5_);enable-background:new    ;}
	.st8{fill:url(#SVGID_6_);}
	.st9{fill:url(#SVGID_7_);}
	.st10{opacity:0.7;fill:url(#SVGID_8_);enable-background:new    ;}
	.st11{fill:url(#SVGID_9_);}
	.st12{fill:url(#SVGID_10_);}
	.st13{fill:url(#SVGID_11_);}
	.st14{opacity:0.7;fill:url(#SVGID_12_);enable-background:new    ;}
</style>
<g>
	<g>
		<path class="st0" d="M12,23.5C5.7,23.5,0.5,18.3,0.5,12S5.7,0.5,12,0.5S23.5,5.7,23.5,12S18.3,23.5,12,23.5z M12,1.5
			C6.2,1.5,1.5,6.2,1.5,12S6.2,22.5,12,22.5S22.5,17.8,22.5,12S17.8,1.5,12,1.5z"/>
	</g>
	<g>
		<circle class="st1" cx="12" cy="12" r="11"/>
		<linearGradient id="SVGID_1_" gradientUnits="userSpaceOnUse" x1="12.0002" y1="1" x2="12.0002" y2="20.25">
			<stop  offset="0.19" style="stop-color:#FFFFFF;stop-opacity:0.25"/>
			<stop  offset="0.92" style="stop-color:#FFFFFF;stop-opacity:0"/>
		</linearGradient>
		<path class="st2" d="M23,12c0,11-22,11-22,0C1,5.9,5.9,1,12,1S23,5.9,23,12z"/>
	</g>
	
		<linearGradient id="SVGID_2_" gradientUnits="userSpaceOnUse" x1="8.8502" y1="1118" x2="15.1502" y2="1118" gradientTransform="matrix(1 0 0 1 0 -1106)">
		<stop  offset="0" style="stop-color:#000000"/>
		<stop  offset="1" style="stop-color:#000000"/>
	</linearGradient>
	<ellipse class="st3" cx="12" cy="12" rx="3.1" ry="3.2"/>
	<g class="st4">
		<linearGradient id="SVGID_3_" gradientUnits="userSpaceOnUse" x1="1" y1="12" x2="23" y2="12">
			<stop  offset="0" style="stop-color:#000000"/>
			<stop  offset="1" style="stop-color:#000000"/>
		</linearGradient>
		<path class="st5" d="M12,23C5.9,23,1,18.1,1,12S5.9,1,12,1s11,4.9,11,11S18.1,23,12,23z M12,1.5C6.2,1.5,1.5,6.2,1.5,12
			S6.2,22.5,12,22.5S22.5,17.8,22.5,12S17.8,1.5,12,1.5z"/>
	</g>
</g>
</svg>
