<?xml version="1.0" encoding="utf-8"?>
<!-- Generator: Adobe Illustrator 21.0.2, SVG Export Plug-In . SVG Version: 6.00 Build 0)  -->
<svg version="1.1" id="Layer_1" xmlns="http://www.w3.org/2000/svg" xmlns:xlink="http://www.w3.org/1999/xlink" x="0px" y="0px"
	 viewBox="0 0 52 52" style="enable-background:new 0 0 52 52;" xml:space="preserve">
<style type="text/css">
	.st0{fill:#54698D;}
</style>
<path class="st0" d="M26,2C12.7,2,2,12.7,2,26s10.7,24,24,24s24-10.7,24-24S39.3,2,26,2z M26,14.1c1.7,0,3,1.3,3,3s-1.3,3-3,3
	s-3-1.3-3-3S24.3,14.1,26,14.1z M31,35.1c0,0.5-0.4,0.9-1,0.9h-8c-0.5,0-1-0.3-1-0.9v-2c0-0.5,0.4-1.1,1-1.1c0.5,0,1-0.3,1-0.9v-4
	c0-0.5-0.4-1.1-1-1.1c-0.5,0-1-0.3-1-0.9v-2c0-0.5,0.4-1.1,1-1.1h6c0.5,0,1,0.5,1,1.1v8c0,0.5,0.4,0.9,1,0.9c0.5,0,1,0.5,1,1.1V35.1
	z"/>
</svg>
