<?xml version="1.0" encoding="utf-8"?>
<!-- Generator: Adobe Illustrator 21.1.0, SVG Export Plug-In . SVG Version: 6.00 Build 0)  -->
<svg version="1.1" id="Layer_1" xmlns="http://www.w3.org/2000/svg" xmlns:xlink="http://www.w3.org/1999/xlink" x="0px" y="0px"
	 viewBox="0 0 19.1 23.2" style="enable-background:new 0 0 19.1 23.2;" xml:space="preserve">
<style type="text/css">
	.st0{fill:#FFFFFF;}
</style>
<path class="st0" d="M9.5,1.5c-4.4,0-8,3.6-8,8l0,0c0,1.8,1.2,4.4,3.7,7.6c1.1,1.5,2.4,2.9,3.6,4.3c0.2,0.2,0.4,0.3,0.7,0.3l0,0
	c0.3,0,0.5-0.1,0.7-0.3c1.3-1.4,2.5-2.8,3.6-4.3c2.4-3.2,3.7-5.8,3.7-7.6C17.5,5.1,14,1.5,9.5,1.5z M10.9,14.1L10.9,14.1L10.9,14.1
	v0.2v0.1l-0.1,0.1c0,0.1-0.1,0.1-0.1,0.2v0.1c0,0.1,0,0.1,0,0.2s0,0.1,0,0.2v0.1c0,0,0,0-0.1,0.1l0,0c-3.3,0.5-6.4-1.7-7-5
	C3.2,8.5,3.8,6.6,5,5.3c0,0.1,0,0.1,0,0.2l0,0c0,0.1,0,0.1,0,0.2l0,0l0,0v0.1l0,0l0,0h0.1C5.1,5.9,5,5.9,5,6l0,0
	C4.8,6.2,4.8,6.2,4.6,6.3c0,0.1,0.2,0,0.3-0.1l0.2-0.1C5.2,6,5.2,5.9,5.3,5.9c0-0.1,0.1-0.1,0.1-0.2l0.1-0.1c0,0,0.1,0,0.1-0.1
	c0,0,0.1,0,0.1-0.1h0.1c0,0,0,0,0.1,0.1H6h0.1c0,0.1,0.1,0.1,0.1,0.2v0.1c0,0.1,0.1,0.2,0.1,0.3v0.2c0,0.1,0.1,0.2,0.2,0.2
	s0.1,0.1,0.1,0.1c0,0.1,0,0.1,0,0.2c0,0,0,0.1,0.1,0.1C6.8,7,6.8,7.1,6.8,7.1c0,0.1,0,0.2,0,0.3s0,0.1,0,0.2c0,0.1,0,0.1,0,0.2v0.1
	V8v0.1v0.1c0,0.1,0.1,0.2,0.1,0.3S7,8.6,7,8.7c0,0.1,0.1,0.1,0.1,0.2c0,0.1,0.1,0.2,0.1,0.3s0.1,0.2,0.1,0.3l0,0
	c0.1,0.1,0.1,0.1,0.2,0.2c0.1,0.1,0.1,0,0.1,0c0-0.1-0.1-0.1-0.1-0.2c0-0.1-0.1-0.2-0.2-0.3l0,0c0-0.1-0.1-0.1-0.1-0.2
	c0,0,0.1-0.1,0.1,0c0.1,0,0.1,0.1,0.1,0.1c0,0.1,0.1,0.2,0.1,0.2l0,0c0.2,0,0.3,0.1,0.3,0.1l0.1,0.1C8,9.6,8,9.6,8.1,9.7
	c0,0.1,0.1,0.1,0.1,0.2c0,0.1,0,0.1,0.1,0.1c0,0,0.1,0.1,0.2,0.1c0.1,0,0.1,0.1,0.2,0.1c0,0.1,0.1,0.1,0.1,0.2c0.1,0,0.1,0,0.2,0
	h0.1c0.1,0,0.1,0.1,0.2,0.1c0.1,0.1,0.2,0.1,0.3,0.1s0.2,0.1,0.2,0.2c0,0.1,0.1,0.1,0.2,0.2l0.2,0.1l0,0c0,0,0.1,0,0.1,0.1l0,0
	c0.1,0,0.1-0.1,0.3,0.1l0,0v0.1v0.1v0.1l-0.1,0.1c0,0.1-0.1,0.1-0.1,0.2L10.3,12c0,0.1,0,0.1,0,0.1v0.1v0.1v0.1c0,0.1,0,0.1,0,0.1
	l0.1,0.1c0,0.1,0.1,0.1,0.1,0.2c0,0.1,0,0.1,0.1,0.2v0.1c0,0.1,0.1,0.1,0.1,0.1c0.1,0,0.2,0.1,0.2,0.1c0.1,0.1,0.1,0.1,0.1,0.2
	c0,0.1,0,0.1,0,0.2c0,0.1,0,0.1,0,0.2C11,14,11,14.1,10.9,14.1C10.9,14,10.9,14,10.9,14.1z M11,15.3C11,15.2,11,15.2,11,15.3
	l0.1-0.1l0.1-0.1c0,0,0.1-0.1,0-0.2l0,0h0.1v-0.1c0-0.1,0.1-0.1,0.2-0.1c0.1,0,0.1,0,0.2-0.1v-0.1v-0.1c0,0,0,0,0.1,0s0.2,0,0.2-0.1
	l0,0c0.1-0.1,0.3-0.3,0.4-0.4c0-0.1,0.1-0.2,0.1-0.2c0.1,0,0.1-0.1,0.2-0.1h0.1l0,0h0.1c0-0.1,0.1-0.1,0.2-0.2
	c0.1-0.1,0.1-0.2,0.1-0.2c0-0.1,0.1-0.2,0.1-0.2c0-0.1,0.1-0.2,0.1-0.2l0.2-0.2v-0.1v-0.1c0,0,0-0.1-0.1-0.1s-0.1,0-0.1-0.1
	c-0.1-0.1-0.1-0.1-0.2-0.1c-0.1,0-0.2-0.1-0.3-0.1s-0.1-0.1-0.2-0.1h-0.1v-0.1v-0.1c0-0.1-0.1-0.2-0.2-0.2c-0.1,0-0.1-0.1-0.2-0.1
	c-0.1,0-0.2-0.1-0.2-0.1c-0.1-0.1-0.1-0.2-0.2-0.2C11.7,11,11.7,11,11.6,11c-0.1,0-0.1,0-0.2,0c-0.1,0-0.1,0-0.2-0.1
	c-0.1,0-0.1,0-0.2-0.1c-0.1,0-0.2,0-0.2,0c-0.1,0-0.1,0.1-0.1,0.1s0,0.1-0.1,0.1c0,0-0.1,0-0.1-0.1c0,0-0.1,0-0.2,0
	c-0.1,0-0.2,0-0.2,0C10,10.8,10,10.7,10,10.6s0-0.1-0.1-0.2H9.8l0,0h0H9.7H9.6L9.7,10V9.9c0,0,0,0-0.1,0S9.4,10,9.4,10.1
	c0,0.1-0.1,0.1-0.2,0.1c-0.1,0-0.2,0-0.2-0.1C8.9,10,8.9,9.9,8.9,9.9V9.8c0-0.1,0-0.1,0-0.2V9.5c0-0.1,0-0.1,0-0.2L9,9.2
	c0,0,0,0,0.1,0V9.1h0.1c0.1,0,0.2,0,0.2,0s0.1,0,0.1-0.1s0.1,0,0.1,0c0.1,0,0.1,0,0.2,0h0.1H10c0,0,0.1,0.1,0.1,0.2
	c0,0.1,0.1,0.2,0.1,0.2c0.1,0.1,0.1,0,0.1,0c0-0.1,0-0.2-0.1-0.3l0,0c0-0.1,0-0.2,0-0.2l0.1-0.1l0.1-0.1c0-0.1,0.1-0.1,0.1-0.2
	c0.2-0.1,0.3-0.2,0.3-0.3s0-0.2,0.1-0.3c0-0.1,0.1-0.1,0.1-0.1h0.1l0,0h0.1c0.1,0-0.1-0.2-0.1-0.2c0-0.1,0.1-0.1,0.2-0.1
	c0.1,0,0.2,0,0.2,0s0.1,0,0.2,0l0.1-0.1c0.1,0,0.1-0.1,0.1-0.2l0,0l0,0c-0.1,0-0.1,0-0.2,0l-0.1-0.1V7V6.9l0,0c-0.1,0-0.2,0-0.1-0.1
	c0-0.1,0.1-0.1,0.2-0.1h0.1c0.1,0,0.2,0,0.3-0.1c0.1,0,0.2-0.1,0.2-0.1s0,0,0.1-0.1V6.3V6.2l-0.3,0.1c-0.1-0.1-0.2-0.2-0.3-0.2l0,0
	c-0.1,0-0.1-0.1-0.1-0.1c0-0.1,0-0.1-0.1-0.2l-0.1-0.2c-0.1-0.1-0.1-0.1-0.1-0.1v0.1c0,0,0,0.1-0.1,0.1h-0.1c0-0.1-0.1-0.1-0.1-0.2
	c0-0.1-0.1-0.1-0.1-0.1c-0.1-0.1-0.1-0.1-0.2-0.2l-0.1-0.1h-0.1h-0.1v0.1v0.1v0.1v0.1v0.1l0,0c0,0.1,0.1,0.1,0.1,0.2
	c0,0.1,0,0.2-0.1,0.2c-0.1,0.1-0.1,0.2-0.1,0.2c0,0.1,0,0.1,0,0.2l-0.1,0.1c-0.1,0-0.1-0.1-0.1-0.1c0-0.1-0.1-0.2-0.1-0.2
	c0-0.1,0-0.1-0.1-0.1S9.8,6.1,9.8,6C9.7,6,9.6,5.9,9.6,5.9H9.5L9.4,5.8c0-0.1,0-0.1-0.1-0.1c0,0,0-0.1,0-0.2c0-0.1,0.1-0.2,0.2-0.3
	l0,0C9.6,5.1,9.6,5.1,9.7,5c0,0,0-0.1,0.1-0.1l0,0h0.1c0-0.1,0.1-0.2,0.1-0.2c0-0.1,0.1-0.1,0.1-0.1c0.1,0,0.1,0,0.2-0.1V4.4V4.3
	V4.2l-0.1-0.1c-0.1,0-0.1,0-0.1,0v0.1c0,0,0,0.1-0.1,0.1s-0.1,0-0.2,0c0,0-0.1,0-0.1-0.1V4.1c0-0.1,0-0.1,0-0.1s0-0.1-0.1-0.1L9.5,4
	c0,0.1,0,0.1,0,0.2c0,0,0,0.1,0.1,0.1l0.1,0.1c0,0,0,0.1-0.1,0c-0.1,0-0.1-0.1-0.2-0.1c0,0-0.1-0.1-0.1,0c0,0,0,0.1-0.1,0.1L9.1,4.5
	C8.8,4.3,8.8,4.3,8.7,4.2H8.6c0,0-0.1,0-0.1,0.1c0,0,0,0-0.1,0H8.3c-0.1,0-0.1,0-0.2,0C8,4.3,8,4.3,8,4.3s0,0,0-0.1
	c0,0,0-0.1-0.1-0.1S7.8,4.1,7.7,4c0,0-0.1,0-0.1-0.1H7.5c0,0,0,0-0.1,0H7.3c0,0,0-0.1-0.1-0.1l0,0C7.1,3.8,7,3.9,7,3.9
	C6.9,3.9,6.9,4,6.8,4H6.7c0,0,0,0-0.1-0.1c0,0,0,0-0.1-0.1H6.4H6.3l0,0c3.2-1.4,6.9-0.4,8.5,2.5s0.6,6.6-2.3,8.3
	C12.1,14.9,11.5,15.1,11,15.3L11,15.3z"/>
</svg>
