<?xml version="1.0" encoding="UTF-8" standalone="no"?>
<svg width="101px" height="101px" viewBox="0 0 101 101" version="1.1" xmlns="http://www.w3.org/2000/svg" xmlns:xlink="http://www.w3.org/1999/xlink">
    <!-- Generator: Sketch 40.3 (33839) - http://www.bohemiancoding.com/sketch -->
    <title>Maps</title>
    <desc>Created with Sketch.</desc>
    <defs></defs>
    <g id="Page-1" stroke="none" stroke-width="1" fill="none" fill-rule="evenodd">
        <g id="Maps" fill="#000000">
            <path d="M57.7288493,68.2603767 C57.7547261,68.2160872 57.7876265,68.1736586 57.8323564,68.1416511 C57.9517592,68.0560496 58.1365934,67.9667263 58.2434275,67.9436511 C58.3502616,67.9202038 58.6119867,67.6771699 58.8249156,67.4036173 C59.0382142,67.1296925 59.1298919,66.7980797 59.0297118,66.6667 C58.9291621,66.5349481 58.9731526,66.4701887 59.1276739,66.5230383 C59.2821953,66.5755158 59.450764,66.5617451 59.5028872,66.4928917 C59.5546408,66.4236662 59.6537118,66.2059406 59.7228398,66.008685 C59.7919678,65.8118015 60.1231905,65.614918 60.4588493,65.5717451 C60.7945081,65.5282 61.1874654,65.3435985 61.331636,65.1612301 C61.4758066,64.9792338 61.5612,64.7618805 61.5209062,64.678512 C61.480982,64.5951436 61.4159204,64.4068203 61.3767355,64.2605534 C61.337181,64.1142865 61.4968777,64.0394782 61.7316171,64.0949331 C61.9663564,64.150388 62.4813043,64.0193805 62.87611,63.8042602 L62.9430199,63.7677865 C63.5400341,63.1361962 64.3244701,62.2835308 64.9159393,61.6471023 C64.994309,61.2410534 65.2756265,60.7114406 65.5410483,60.4698955 C65.8068398,60.2279782 66.1831621,59.980106 66.3779773,59.9183241 C66.5727924,59.8569143 66.7846123,59.804809 66.8489346,59.8025759 L67.0818256,59.7951323 C67.1398635,59.7928992 67.1979014,59.7910383 67.4289441,59.7832226 C67.6481573,59.5245571 67.9901005,59.0861286 68.1886123,58.8095985 C68.3871242,58.5326962 68.6651147,58.0045722 68.8059583,57.6357414 C68.9468019,57.2669105 69.1201763,56.7555346 69.1915223,56.4991023 C69.2624986,56.2430421 69.5781953,55.7696286 69.8931526,55.4476925 L70.8860815,54.432012 C70.8860815,54.432012 70.9393137,54.2131699 71.0043754,53.9459444 C71.0698066,53.6787188 71.0993801,53.3571549 71.070546,53.2313579 C71.0413422,53.1051887 70.8672284,52.9935346 70.6835033,52.9831135 C70.4997782,52.9726925 70.2095886,52.7966511 70.0391716,52.5923241 C69.8687545,52.3876248 69.4092569,52.1479406 69.0177782,52.0597338 C68.6262995,51.9715271 68.0632948,51.7698053 67.7664512,51.6116286 C67.4696076,51.4534519 67.0555791,51.2465195 66.8467166,51.1516135 C66.6374844,51.0567075 66.4692853,50.9517526 66.4726123,50.9186286 L66.5044038,50.6153015 L66.312546,50.1121135 C66.1517403,49.6900609 65.8031431,49.2505158 65.5373517,49.1347677 C65.2719299,49.0193917 64.7913611,48.8723805 64.4693801,48.8079932 C64.1477687,48.743606 63.6520436,48.4402789 63.3685081,48.1339744 C63.0849725,47.8276699 62.66429,47.3646774 62.4336171,47.1052677 C62.2029441,46.8454857 61.7179393,46.7211774 61.3556645,46.8283654 C60.9933896,46.9355534 60.5106028,46.9530459 60.2825175,46.8667 C60.0548019,46.7807263 59.6237687,46.6679556 59.3250768,46.6162226 C59.0260152,46.5648617 58.5635602,46.4513466 58.2966597,46.3642564 C58.0301289,46.2775383 57.5469725,46.307685 57.2231431,46.4316211 C56.8996834,46.5555571 56.5910104,46.8291098 56.5377782,47.0390195 C56.484546,47.2489293 56.3566408,47.4491624 56.253873,47.4841474 C56.1511052,47.5191323 55.9019488,47.3628165 55.7004796,47.136903 C55.4986408,46.9109895 55.1230578,46.912106 54.8653991,47.1391361 C54.6077403,47.3661662 54.1438066,47.2950797 53.834764,46.9809594 C53.5257213,46.6668391 53.3305365,46.0613015 53.4011431,45.6355271 C53.4713801,45.2097526 53.3582616,44.7594143 53.1493991,44.6343617 C52.9405365,44.509309 52.6606976,44.4073316 52.5272474,44.4073316 L52.4056265,44.4073316 L52.040764,44.4073316 C51.9191431,44.4077038 51.7975223,44.4077038 51.6759014,44.4077038 L51.3102995,44.4077038 L51.7986313,42.5073504 C51.9110104,42.0696662 51.6577877,41.7711774 51.2356265,41.8437526 C50.8138351,41.9163278 50.3835412,42.2583617 50.2796645,42.6033729 C50.1761573,42.9483842 49.7891147,43.2602714 49.4194464,43.2960008 C49.0501479,43.3321023 48.5444417,43.1679707 48.2960246,42.9320083 C48.0472379,42.6956737 47.7459583,42.1459632 47.6261858,41.710512 L47.4772095,41.1678729 C47.357437,40.7324218 47.360764,40.270918 47.4849725,40.1425158 C47.6088114,40.0144857 47.667219,39.7156248 47.6150957,39.4785459 C47.5626028,39.2418391 47.6357972,38.8990609 47.7777498,38.7170647 C47.9193327,38.5350684 48.1662711,38.3564218 48.3263374,38.3203203 C48.4860341,38.2842188 48.6172664,38.2250421 48.617636,38.1885684 L48.6202237,37.8577 L49.2124322,37.9124105 C49.6597308,37.9540947 50.1983374,37.9440459 50.409418,37.8908241 C50.6208682,37.8376023 50.7506218,37.7199932 50.6981289,37.6295534 C50.645636,37.5391135 50.9617024,37.4795647 51.4004986,37.4970571 C51.8392948,37.5141774 52.3121005,37.6176436 52.4510957,37.7266925 C52.590091,37.8357414 52.8037592,37.880403 52.9257498,37.8260647 C53.04811,37.7717263 53.2344227,37.816388 53.3394085,37.9254368 C53.444764,38.0344857 53.5730389,38.3757752 53.6247924,38.6835684 C53.676546,38.9917338 53.918309,39.4982714 54.16229,39.8097865 C54.4062711,40.1213015 54.6343564,40.0323504 54.6698445,39.6125308 C54.704963,39.1923391 54.5840815,38.5112489 54.4010957,38.0985008 L54.3659773,38.0195985 C54.1829915,37.6068504 54.1748588,37.0932414 54.3474938,36.8784932 C54.5201289,36.6633729 54.7881384,36.4296436 54.9426597,36.3585571 C55.0975507,36.2878429 55.3489251,36.0704895 55.5015981,35.8758391 C55.6542711,35.6811887 55.9592474,35.3488316 56.1792,35.1374331 C56.3987829,34.9264068 56.6553327,34.3964218 56.7484891,33.9602263 C56.8420152,33.5236586 57.0227829,32.9289143 57.1503185,32.6378692 C57.277854,32.3471962 57.5832,32.0401474 57.8290294,31.9560346 C58.0744891,31.8719218 58.3206882,31.8034406 58.3761384,31.8038128 L58.5761289,31.8049293 C58.6264038,31.8053015 58.676309,31.8056737 58.8759299,31.8067902 C58.7310199,31.4338654 58.6593043,30.9772 58.7166028,30.7922263 C58.7742711,30.6068805 59.1727735,30.3497038 59.602328,30.2205571 C60.0322521,30.0914105 60.4041384,30.1215571 60.4292758,30.2875496 C60.4540436,30.4535421 60.7871147,30.3951098 61.168982,30.1576586 L61.8735697,29.7199744 C62.255437,29.4825233 62.5400815,29.1140647 62.5057024,28.9011774 C62.4713232,28.6882902 62.2997972,28.605294 62.1238351,28.7169481 C61.9482427,28.8286023 61.5608303,28.757888 61.2636171,28.5591436 C60.9660341,28.3607714 60.7179867,28.1326248 60.7117024,28.0518617 L60.6891526,27.7597 C60.6836076,27.6867526 60.6780626,27.6141774 60.6547735,27.3242489 L60.557181,27.3164331 C60.1095128,27.2821925 59.7952948,27.0990797 59.8588777,26.9092677 C59.9228303,26.7198278 60.3405555,26.6003579 60.7871147,26.6442752 L61.1900531,26.6840985 C61.6366123,26.7280158 62.2905555,26.6022188 62.6424796,26.404591 C62.9947735,26.2069632 63.4039962,25.959091 63.5514938,25.8533917 C63.6989915,25.7476925 63.8106313,25.5936098 63.7995412,25.5109857 L63.7577687,25.2117526 C63.747418,25.1373165 63.7370673,25.0628805 63.6941858,24.7662526 L63.0849725,24.2742301 C62.734527,23.9913729 62.1567355,23.5350797 61.800745,23.2600383 L61.7464038,23.217982 C61.3900436,22.9425684 61.1482806,22.6474293 61.2085365,22.5618278 C61.2687924,22.4762263 61.1175981,22.0966023 60.8725081,21.7177226 L60.3194844,20.8643128 C60.0743943,20.4858053 59.8086028,20.2878053 59.7291242,20.4247677 C59.6496455,20.5617301 59.5904986,20.811091 59.5982616,20.9793165 C59.605655,21.1475421 59.4810768,21.3756887 59.3210104,21.4862263 C59.1609441,21.5967639 58.8944133,21.5230722 58.7288019,21.3224669 C58.5631905,21.1222338 58.3779867,20.7094857 58.3173611,20.4050421 C58.2567355,20.1009707 58.0171905,19.7939218 57.7850389,19.7224632 C57.5525175,19.6513767 57.2083564,19.4049932 57.0198256,19.1753579 C56.8312948,18.9457226 56.5540436,18.7890346 56.4035886,18.826997 C56.2535033,18.8653316 55.941873,18.818809 55.7115697,18.7242752 C55.4808967,18.6297414 55.240982,18.6706812 55.1785081,18.8154594 C55.1160341,18.9602376 55.1152948,19.1671699 55.1770294,19.2754744 C55.238764,19.3837789 55.246527,19.5605647 55.1944038,19.6681248 C55.1419109,19.7760571 55.2025365,20.0574256 55.328963,20.293388 C55.4553896,20.5293504 55.4309915,20.8252338 55.2742521,20.9502865 C55.1178825,21.0753391 55.1167735,21.3075797 55.2720341,21.4657564 C55.4276645,21.6243053 55.6280246,22.0284932 55.7171147,22.3634556 C55.8065744,22.698418 55.6357877,23.1904406 55.3374654,23.4561774 C55.0391431,23.7222865 54.8927545,24.2526436 55.0128967,24.6348729 C55.1326692,25.0171023 55.155219,25.4566474 55.0631716,25.6122188 C54.9707545,25.767418 54.7781573,25.9069857 54.6343564,25.9222451 C54.4909251,25.9378767 54.24029,25.6836774 54.0780057,25.3576474 C53.9153517,25.0316173 53.766745,24.504982 53.7478919,24.1867677 C53.7286692,23.8685534 53.4835791,23.5823466 53.2033706,23.5507113 C52.9227924,23.5190759 52.4289156,23.3352188 52.1050863,23.1424293 C51.7816265,22.9496398 51.3066028,22.6604556 51.0493137,22.5000459 C50.7920246,22.3396361 50.478546,22.2436135 50.3528588,22.2864143 C50.2271716,22.3295872 50.0415981,22.0720383 49.9406787,21.7140008 C49.8397592,21.3559632 49.6453137,21.0753391 49.5085365,21.0902263 C49.3717592,21.1051135 49.3225934,20.7660571 49.3994844,20.3365609 C49.4760057,19.9066925 49.8075981,19.303388 50.1358635,18.9952226 L50.2855791,18.8552827 C50.6138445,18.5471173 50.959854,18.1366023 51.0537498,17.9426962 C51.1480152,17.7491624 51.2748114,17.5906135 51.3350673,17.5906135 L51.5546502,17.5906135 C51.6097308,17.5906135 51.6648114,17.5906135 51.8840246,17.5909857 C52.0603564,17.1890308 52.2965744,16.6705835 52.4089536,16.438715 C52.5217024,16.2068466 52.8399867,15.9891211 53.1168682,15.9552526 C53.3933801,15.921012 53.7223848,15.7486925 53.848072,15.5726511 C53.9733896,15.3962376 53.9678445,15.073185 53.835873,14.8550872 C53.7035318,14.6369895 53.6758066,14.413309 53.7741384,14.3578541 C53.8724701,14.3027714 53.8891052,14.1405008 53.8114749,13.9975835 C53.7334749,13.8550383 53.4532664,13.639918 53.1882142,13.5200759 C52.9235318,13.400606 52.6943374,13.416982 52.6795507,13.5569218 C52.6643943,13.6964895 52.6813991,13.8740195 52.7172569,13.9506887 C52.7531147,14.0277301 52.5971147,14.1535271 52.3701384,14.2305684 C52.1435318,14.3076098 51.8736739,14.2354068 51.7712758,14.0694143 C51.6685081,13.903794 51.5258161,13.8855571 51.4544701,14.0288466 C51.3827545,14.1725083 51.1997687,14.093606 51.0474654,13.8535496 C50.8955318,13.6138654 50.7990483,13.3399406 50.8330578,13.2450346 C50.8670673,13.1501286 50.7809346,12.8326586 50.6415697,12.5393805 C50.5018351,12.2461023 50.3107166,11.9669669 50.2164512,11.9193278 C50.1221858,11.8716887 49.9181289,12.0875534 49.7632379,12.3986962 C49.6079773,12.7102113 49.5207355,13.0853692 49.5699014,13.2323805 C49.6186976,13.3793917 49.7791336,13.5699481 49.9266313,13.6559218 C50.0737592,13.7415233 50.18429,13.9931173 50.1717213,14.2145647 C50.1595223,14.436012 50.018309,14.5085872 49.8586123,14.376091 C49.6989156,14.2432226 49.4578919,13.941012 49.3237024,13.7039331 C49.1891431,13.4672263 49.0261194,13.4050722 48.9614275,13.5658541 C48.8963659,13.7270083 48.7292758,13.9317075 48.5895412,14.0210308 C48.4501763,14.1103541 48.0339299,14.2968165 47.6653706,14.4352677 C47.2964417,14.574091 46.8768682,14.5796737 46.7330673,14.4475496 C46.5888967,14.3157977 46.26211,14.2662977 46.0062995,14.3377564 C45.7508588,14.409215 45.5760057,14.6053541 45.6181479,14.7739519 C45.6599204,14.9421774 45.5390389,15.0087977 45.3493991,14.9217075 C45.1593896,14.8346173 44.8684607,14.8122865 44.7028493,14.8718353 C44.5368682,14.9313842 44.1635033,14.9767902 43.8725744,14.9726962 C43.5820152,14.9689744 43.4452379,14.8986323 43.5690768,14.8163805 C43.6929156,14.7345008 43.8008588,14.5677639 43.8086218,14.4460609 C43.8167545,14.3243579 43.6992,14.200794 43.5472664,14.1721361 C43.3957024,14.143106 43.0463659,14.0042827 42.770963,13.8628541 C42.4955602,13.7217977 42.1939109,13.6000947 42.1007545,13.5926511 C42.0075981,13.5848353 41.8493801,13.6596436 41.7492,13.7582714 C41.6490199,13.8568992 41.6083564,13.7988391 41.6593706,13.6291248 C41.7100152,13.4594105 41.664546,13.3578053 41.5580815,13.4028391 C41.4519867,13.4482451 41.3037498,13.5736699 41.2287071,13.6816023 C41.1540341,13.7899068 41.0841668,13.7005835 41.0738161,13.4832301 C41.0634654,13.2658767 40.8353801,13.1478955 40.5666313,13.221215 C40.2982521,13.2945346 39.7548398,13.4884406 39.3592948,13.6525722 C38.9637498,13.8167038 38.5216265,14.0872789 38.3763469,14.2536436 C38.231437,14.4200083 38.0532569,14.4721135 37.9808019,14.3690195 C37.9083469,14.2662977 37.76011,14.1103541 37.6514275,14.0228917 C37.542745,13.9354293 37.4166882,13.7913955 37.3715886,13.7024444 C37.3261194,13.6138654 37.1490483,13.5829744 36.9778919,13.6343353 C36.8063659,13.6856962 36.5335507,13.639918 36.3708967,13.5327301 C36.3128588,13.4943955 36.2485365,13.4638767 36.1849536,13.4385684 C40.5048967,10.9501699 45.5002237,9.51988045 50.8234464,9.51988045 C67.1361668,9.51988045 80.4076265,22.8811586 80.4076265,39.3047376 C80.4076265,53.3333353 70.7204701,65.119918 57.7288493,68.2603767 M57.3621384,62.6259368 L57.3499393,62.7409406 C57.33811,62.8559444 57.3262806,62.9705759 57.3140815,63.084091 C57.3018825,63.1979782 57.2896834,63.3111211 57.2771147,63.4235195 C57.2649156,63.535918 57.2527166,63.6475722 57.2401479,63.7588541 L56.7765839,64.6483654 C56.568091,65.0488316 56.4035886,65.5103353 56.4106123,65.6744669 C56.4180057,65.8389707 56.3673611,66.1136398 56.2986028,66.2855872 C56.2294749,66.4575346 56.1292948,66.8066398 56.0760626,67.0612113 C56.0224607,67.3157827 56.0050863,67.6872188 56.0372474,67.8863353 C56.0694085,68.0858241 55.9877118,68.2927564 55.8553706,68.3459782 C55.7230294,68.3995722 55.5951242,68.5350459 55.5710957,68.6467 C55.5673991,68.6641925 55.5670294,68.6824293 55.5659204,68.700294 C54.0210768,68.9522602 52.4381573,69.088106 50.8234464,69.088106 C34.5122047,69.088106 21.241854,55.7272 21.241854,39.3047376 C21.241854,31.0501474 24.595854,23.570809 30.0018825,18.1708429 C30.0370009,18.1678654 30.0976265,18.1622827 30.3002047,18.144418 C30.6469536,17.9493955 30.9131147,17.8295534 30.8916739,17.8786812 C30.8702332,17.9274368 30.7604417,18.1023617 30.6476929,18.2672376 C30.5349441,18.4321135 30.1405081,18.7767526 29.7708398,19.033185 L29.7253706,19.0648203 C29.3557024,19.3212526 28.9749441,19.6405835 28.8792,19.7741962 C28.7834559,19.9074368 28.6304133,20.2967376 28.5394749,20.6391436 C28.4485365,20.9815496 28.4378161,21.267012 28.5158161,21.2737113 C28.5934464,21.2804105 28.6976929,21.2725947 28.7468588,21.2562188 C28.7960246,21.240215 28.8289251,21.3142789 28.8196834,21.4218391 C28.8108114,21.5290271 28.7564701,21.7192113 28.7158066,21.8081624 C28.6755128,21.8971135 28.6880815,21.9670835 28.7439014,21.9629895 L28.9501763,21.9492188 C29.0022995,21.945497 29.0544227,21.9421474 29.264764,21.9283767 C29.4070863,21.8911586 29.3198445,22.1684331 29.0703185,22.5443353 L28.9723564,22.692091 C27.9816455,23.5079105 27.4933137,23.7654594 26.533655,24.6181248 C27.3243754,24.0639481 27.5968209,24.2239857 28.4041763,23.6951173 L28.7224607,23.4137489 C29.0595981,23.1156323 29.5978351,22.6310534 29.9187071,22.3366586 C30.2392095,22.0426361 30.6070294,21.7400534 30.7364133,21.6645008 C30.8654275,21.5893203 31.1349156,21.4076962 31.3352758,21.2614293 C31.5352664,21.1151624 31.7844227,20.9688955 31.8882995,20.9365158 C31.992546,20.9041361 32.232091,20.7500534 32.4209915,20.5937376 C32.6098919,20.437794 32.7873327,20.3953654 32.8157972,20.4999481 C32.8438919,20.6045308 32.9777118,20.7396323 33.1130104,20.8006699 C33.2479393,20.8613353 33.4959867,20.9272113 33.6638161,20.9465647 C33.8316455,20.965918 34.0560341,21.0455647 34.1628682,21.1237226 C34.2693327,21.2015083 34.505181,21.6034632 34.6863185,22.0169556 L34.8242047,22.3310759 C35.0057118,22.7445684 35.1716929,23.4520835 35.1931336,23.9035383 L35.2308398,24.6862338 C35.2522806,25.1376887 35.590527,25.5616023 35.982745,25.6285947 C36.3745934,25.6955872 36.672546,25.9803053 36.6448209,26.2609293 C36.6174654,26.5411812 36.6292948,26.8984744 36.6718066,27.0540459 C36.7139488,27.2099895 36.8880626,27.4909857 37.0584796,27.679309 C37.2288967,27.8672602 37.378982,28.2718203 37.3915507,28.5788692 C37.4044891,28.885918 37.3715886,29.3660308 37.3187261,29.6462827 C37.2658635,29.9265346 37.1630957,30.3467263 37.0902711,30.5804556 C37.0174464,30.814185 36.9727166,31.1975308 36.9912,31.4323767 C37.0096834,31.6675947 37.0181858,31.9243992 37.0100531,32.0033015 L36.9808493,32.2913692 C36.9734559,32.3632 36.9664322,32.435403 36.9387071,32.7249594 L37.4281479,33.9055158 C37.6007829,34.3223579 37.8595507,34.8776511 38.0026123,35.1389218 C38.1460436,35.4001925 38.4547166,35.7288278 38.6887166,35.8691398 C38.9230863,36.0098241 39.250982,36.459418 39.4173327,36.8684444 C39.5836834,37.2770985 39.8088114,37.9060835 39.9171242,38.265982 C40.0258066,38.6255083 40.3411336,39.2109481 40.6180152,39.5667526 L40.6420436,39.5976436 C40.9189251,39.9530759 41.4120626,40.4834331 41.7377403,40.7763391 C42.063418,41.0688729 42.2449251,41.0986474 42.1410483,40.842215 C42.0375412,40.5861549 41.7732284,40.0788729 41.5536455,39.7152526 C41.3344322,39.3512602 40.9773327,38.7297188 40.7603374,38.334091 L40.7211526,38.2626323 C40.504527,37.8666323 40.2908588,37.3824256 40.2464986,37.1862865 C40.2021384,36.9901474 40.3281953,36.9023128 40.5263374,36.9908917 C40.7244796,37.0798429 40.9499773,37.3872639 41.0276076,37.674215 C41.1052379,37.9615383 41.4128019,38.4725421 41.7107545,38.810482 L41.7902332,38.9009218 C42.0885555,39.2388617 42.3606313,39.6196023 42.3953801,39.7472602 C42.4304986,39.874918 42.6437972,40.1138579 42.8704038,40.2783617 C43.0966408,40.4428654 43.469636,40.8466812 43.6988303,41.1753165 C43.9280246,41.5043241 44.0884607,41.9222827 44.0551905,42.1046511 C44.0219204,42.2866474 44.1697877,42.613794 44.3838256,42.8311474 C44.5978635,43.0488729 44.9464607,43.2706925 45.1586502,43.3242865 C45.3708398,43.3778805 45.8355128,43.6138429 46.191873,43.8486887 C46.5478635,44.0835346 47.0561573,44.3634143 47.3208398,44.4706023 C47.5855223,44.5777902 47.9452095,44.6071925 48.1200626,44.536106 C48.2952853,44.4650195 48.5681005,44.4512489 48.7266882,44.505215 C48.8852758,44.5591812 49.2176076,44.7787677 49.465655,44.9931436 C49.7133327,45.2071474 50.2733801,45.4405045 50.710328,45.5112188 C51.1469062,45.5819331 51.6762711,45.913918 51.8862427,46.2488805 C52.0965839,46.5838429 52.4662521,46.9578842 52.7080152,47.0799594 C52.9497782,47.2020346 53.4673137,47.4845195 53.8576834,47.7078278 L53.8665555,47.7130383 C54.2569251,47.9359744 54.6055223,48.0338579 54.6413801,47.9303917 C54.6772379,47.8269256 54.8188209,47.6274368 54.9559678,47.487497 C55.0931147,47.3475571 55.3430104,47.3750985 55.5112095,47.5489068 C55.6794085,47.722715 55.8154464,47.9687263 55.8135981,48.096012 L55.8121194,48.2110158 C55.8102711,48.3263917 55.8084227,48.4413955 55.8065744,48.5563992 C55.8050957,48.6710308 55.8032474,48.7856624 55.8013991,48.8999218 C55.799181,49.0145534 55.7973327,49.1284406 55.7954844,49.2427 L55.5437403,49.8400496 C55.3685175,50.2561474 55.1145555,50.665918 54.9792569,50.750403 C54.8439583,50.834888 54.6620815,51.1352376 54.5752095,51.4184669 C54.4883374,51.7016962 54.4173611,51.9555233 54.4169915,51.9830647 L54.4140341,52.2327977 C54.6129156,52.2636887 54.7068114,52.3969293 54.622527,52.528309 C54.5382427,52.6600609 54.4140341,52.8874632 54.3467545,53.0333579 C54.2798445,53.1796248 54.3811336,53.4825797 54.5722521,53.7066323 C54.7633706,53.930685 54.9970009,54.2306624 55.0912664,54.3728353 C55.1855318,54.5153805 55.3589062,54.9128692 55.4768303,55.2567639 C55.5947545,55.6006586 55.7640626,55.9947977 55.8527829,56.1325045 C55.9415033,56.2702113 56.0479678,56.4946361 56.0893706,56.6312263 C56.1307735,56.7681887 56.4320531,57.0380195 56.7592095,57.2311812 C57.0863659,57.4243429 57.5185081,57.7016173 57.7192379,57.8471398 C57.9203374,57.9926624 58.1062806,58.4325797 58.1328967,58.8244857 C58.1591431,59.2167639 58.1306787,59.6883165 58.0696834,59.8725459 C58.0086882,60.0567752 57.9281005,60.4014143 57.890764,60.6377489 C57.8534275,60.8744556 57.7244133,61.3664782 57.6042711,61.731215 C57.4841289,62.0959519 57.3750768,62.4986511 57.3621384,62.6259368 M50.7550578,0.999925564 C40.3862332,1.01741805 30.6447355,5.09949323 23.3245649,12.4943466 C16.004764,19.8903165 11.9827735,29.7132752 12.0001479,40.1540534 C12.0145649,49.0945722 18.039418,61.6567789 29.9068777,77.4915684 C38.5841005,89.0686135 47.51011,98.4006662 47.596982,98.4907338 C48.4771621,99.4062977 49.6538161,99.9106023 50.9110578,99.9109744 L50.9114275,99.9109744 C52.1738445,99.9109744 53.3541953,99.4029481 54.2354844,98.4803128 C54.3234654,98.3883842 63.1507735,89.1214632 71.861636,77.4215985 C83.6806692,61.5473579 89.6652284,48.964309 89.6493327,40.0230459 C89.6138445,18.5058053 72.1666123,0.999925564 50.7550578,0.999925564" id="Fill-1"></path>
        </g>
    </g>
</svg>