<?xml version="1.0" encoding="utf-8"?>
<!-- Generator: Adobe Illustrator 18.1.1, SVG Export Plug-In . SVG Version: 6.00 Build 0)  -->
<svg version="1.1" id="Layer_1" xmlns="http://www.w3.org/2000/svg" xmlns:xlink="http://www.w3.org/1999/xlink" x="0px" y="0px"
	 viewBox="0 0 19 18.9" enable-background="new 0 0 19 18.9" xml:space="preserve" width="19" height="19">
<g>
	<path fill="#3884E1" d="M17,8c-0.3,0-0.6,0.1-0.8,0.2L11,2.9c0.1-0.3,0.2-0.6,0.2-0.9c0-1.1-0.9-2-2-2c-1.1,0-2,0.9-2,2
		c0,0,0,0.1,0,0.1L3.5,3.7C3.1,3.3,2.6,3,2,3C0.9,3,0,3.9,0,5c0,0.9,0.6,1.6,1.3,1.9V15C0.6,15.3,0,16,0,16.9c0,1.1,0.9,2,2,2
		c0.9,0,1.6-0.6,1.9-1.3h6.2c0.3,0.8,1,1.3,1.9,1.3c1.1,0,2-0.9,2-2c0-0.4-0.1-0.8-0.4-1.1l2.8-3.9c0.2,0.1,0.4,0.1,0.6,0.1
		c1.1,0,2-0.9,2-2S18.1,8,17,8z M7.8,3.3C8.1,3.7,8.7,4,9.3,4c0.3,0,0.6-0.1,0.8-0.2l5.1,5.3C15.1,9.3,15,9.6,15,10
		c0,0.4,0.1,0.8,0.4,1.1L12.6,15c-0.2-0.1-0.4-0.1-0.6-0.1c-0.9,0-1.6,0.6-1.9,1.3H3.9c-0.2-0.6-0.7-1-1.2-1.2V6.9
		C3.4,6.6,4,5.9,4,5c0,0,0-0.1,0-0.1L7.8,3.3z"/>
	<polygon opacity="0.3" fill="#3884E1" points="2,5 9.3,2 17,10 12,16.9 2,16.9 	"/>
</g>
</svg>
