<?xml version="1.0" encoding="utf-8"?>
<!-- Generator: Adobe Illustrator 18.1.1, SVG Export Plug-In . SVG Version: 6.00 Build 0)  -->
<svg version="1.1" id="Layer_1" xmlns="http://www.w3.org/2000/svg" xmlns:xlink="http://www.w3.org/1999/xlink" x="0px" y="0px"
	 viewBox="0 0 35 28" enable-background="new 0 0 35 28" xml:space="preserve" width="19" height="15">
<g opacity="0.25">
	<path d="M14,0l3.5,4.1h14c0.5,0,0.9,0.1,1.4,0.3c0.4,0.2,0.8,0.4,1.1,0.8c0.3,0.3,0.5,0.7,0.7,1.1C34.9,6.6,35,7.1,35,7.5v16.9
		c0,0.5-0.1,0.9-0.3,1.4c-0.2,0.4-0.4,0.8-0.7,1.1c-0.3,0.3-0.7,0.6-1.1,0.8C32.4,27.9,32,28,31.5,28h-28c-0.5,0-0.9-0.1-1.4-0.3
		c-0.4-0.2-0.8-0.4-1.1-0.8c-0.3-0.3-0.5-0.7-0.7-1.1C0.1,25.4,0,25,0,24.5l0-21C0,3,0.1,2.5,0.3,2.1S0.7,1.3,1.1,1
		c0.3-0.3,0.7-0.6,1.1-0.8S3,0,3.5,0H14z"/>
</g>
</svg>
