
<svg width="19px" height="19px" viewBox="0 0 19 19" version="1.1" xmlns="http://www.w3.org/2000/svg" xmlns:xlink="http://www.w3.org/1999/xlink">
  <path d="M17.62212,15.615245 C17.62212,17.011745 13.77272,18.143195 9.02557,18.143195 C4.27747,18.143195 0.42807,17.011745 0.42807,15.615245 C0.42807,14.218745 4.27747,13.086345 9.02557,13.086345 C13.77272,13.086345 17.62212,14.218745 17.62212,15.615245" id="Fill-1" fill="#E2ECF3"></path>
  <path d="M9.02519,13.515745 C4.03864,13.515745 0.85614,14.759295 0.85614,15.615245 C0.85614,16.471195 4.03864,17.715695 9.02519,17.715695 C14.01174,17.715695 17.19329,16.471195 17.19329,15.615245 C17.19329,14.759295 14.01174,13.515745 9.02519,13.515745 M9.02519,18.571645 C4.54024,18.571645 0.00019,17.556095 0.00019,15.615245 C0.00019,13.674395 4.54024,12.658845 9.02519,12.658845 C13.51014,12.658845 18.05019,13.674395 18.05019,15.615245 C18.05019,17.556095 13.51014,18.571645 9.02519,18.571645" id="Fill-3" fill="#A5B7CD"></path>
  <path d="M9.02519,7.452085 C8.02769,7.452085 7.21924,6.642685 7.21924,5.646135 C7.21924,4.648635 8.02769,3.839235 9.02519,3.839235 C10.02269,3.839235 10.83114,4.648635 10.83114,5.646135 C10.83114,6.642685 10.02269,7.452085 9.02519,7.452085 M9.02519,0.949335 C6.43169,0.949335 4.32934,3.052635 4.32934,5.646135 C4.32934,9.619035 8.66419,16.120835 9.02519,16.120835 C9.38619,16.120835 13.72104,9.619035 13.72104,5.646135 C13.72104,3.052635 11.61774,0.949335 9.02519,0.949335" id="Fill-6" fill="#C0443F"></path>
</svg>