<?xml version="1.0" encoding="utf-8"?>
<!-- Generator: Adobe Illustrator 18.1.1, SVG Export Plug-In . SVG Version: 6.00 Build 0)  -->
<svg version="1.1" xmlns="http://www.w3.org/2000/svg" xmlns:xlink="http://www.w3.org/1999/xlink" x="0px" y="0px"
	 viewBox="0 0 98.5 64.1" enable-background="new 0 0 98.5 64.1" xml:space="preserve" width="94" height="64">
<g id="Layer_1">
</g>
<g id="Layer_2">
</g>
<g id="Layer_3">
	<g>
		<polygon fill="#348CD6" points="28.1,13.9 17.9,7.5 7.6,13.9 17.9,20.3 		"/>
		<polygon fill="#348CD6" points="17.9,23 10.1,18.2 7.6,19.6 17.9,26 28.1,19.6 25.6,18.2 		"/>
	</g>
	<path fill="#348CD6" d="M61.3,14.6l-9.9-9.9c-0.4-0.4-1.1-0.4-1.6,0l-9.9,9.9c-0.4,0.4-0.4,1.1,0,1.6l9.9,9.9
		c0.4,0.4,1.1,0.4,1.6,0l9.9-9.9C61.8,15.7,61.8,15,61.3,14.6z M52.9,18.1v-2.5h-3.9v3.3h-2.2v-4.4c0-0.6,0.5-1.1,1.1-1.1h5v-2.5
		l3.6,3.6L52.9,18.1z"/>
	<g>
		<path fill="#348CD6" d="M84.5,15.5c1.5,0.5,3.6-0.1,5.2-1.8l3.7-3.7l-1-1l-3.7,3.7c-0.3,0.3-0.7,0.6-1.1,0.9l-0.8-0.8l4.6-4.6
			l-1-1l-4.6,4.6L85,10.9c0.2-0.4,0.5-0.7,0.9-1.1l3.7-3.7l-1-1l-3.7,3.7c-1.6,1.6-2.3,3.7-1.8,5.2c-0.3,0.3-0.8,0.8-1.6,1.6
			l-1.4-1.4c0.2-0.4,0.3-0.8,0.3-1.3c0-0.5,0-1-0.1-1.4c-0.1-0.5-0.3-1-0.6-1.5c-0.3-0.5-0.6-0.9-1-1.3c-0.5-0.5-1.1-0.9-1.6-1.2
			c-0.6-0.3-1.2-0.5-1.8-0.5c-0.6-0.1-1.1,0-1.7,0.1c-0.5,0.1-1,0.4-1.4,0.8c-0.4,0.4-0.6,0.9-0.8,1.4c-0.1,0.5-0.2,1.1-0.1,1.7
			c0.1,0.6,0.3,1.2,0.6,1.8c0.3,0.6,0.7,1.1,1.2,1.6c0.4,0.4,0.9,0.8,1.3,1c0.5,0.3,1,0.5,1.4,0.6c0.5,0.1,1,0.2,1.4,0.1
			c0.5,0,0.9-0.1,1.3-0.3c1.2,1.2,4.2,4.2,9.9,9.9l1.5-1.5L83,17L84.5,15.5z"/>
		<path fill="#348CD6" d="M72.9,24.1l1.5,1.5l6.1-6.1L79.1,18C77.4,19.6,75.4,21.7,72.9,24.1z"/>
	</g>
	<g>
		<polygon fill="#FFFFFF" points="28.1,45.4 17.9,38.9 7.6,45.4 17.9,51.8 		"/>
		<polygon fill="#FFFFFF" points="17.9,54.5 10.1,49.7 7.6,51.1 17.9,57.5 28.1,51.1 25.6,49.7 		"/>
	</g>
	<path fill="#FFFFFF" d="M61.3,46.1l-9.9-9.9c-0.4-0.4-1.1-0.4-1.6,0l-9.9,9.9c-0.4,0.4-0.4,1.1,0,1.6l9.9,9.9
		c0.4,0.4,1.1,0.4,1.6,0l9.9-9.9C61.8,47.2,61.8,46.5,61.3,46.1z M52.9,49.6V47h-3.9v3.3h-2.2v-4.4c0-0.6,0.5-1.1,1.1-1.1h5v-2.5
		l3.6,3.6L52.9,49.6z"/>
	<g>
		<path fill="#FFFFFF" d="M84.5,47c1.5,0.5,3.6-0.1,5.2-1.8l3.7-3.7l-1-1l-3.7,3.7c-0.3,0.3-0.7,0.6-1.1,0.9l-0.8-0.8l4.6-4.6l-1-1
			l-4.6,4.6L85,42.4c0.2-0.4,0.5-0.7,0.9-1.1l3.7-3.7l-1-1l-3.7,3.7c-1.6,1.6-2.3,3.7-1.8,5.2c-0.3,0.3-0.8,0.8-1.6,1.6l-1.4-1.4
			c0.2-0.4,0.3-0.8,0.3-1.3c0-0.5,0-1-0.1-1.4c-0.1-0.5-0.3-1-0.6-1.5c-0.3-0.5-0.6-0.9-1-1.3c-0.5-0.5-1.1-0.9-1.6-1.2
			c-0.6-0.3-1.2-0.5-1.8-0.5c-0.6-0.1-1.1,0-1.7,0.1c-0.5,0.1-1,0.4-1.4,0.8c-0.4,0.4-0.6,0.9-0.8,1.4c-0.1,0.5-0.2,1.1-0.1,1.7
			c0.1,0.6,0.3,1.2,0.6,1.8c0.3,0.6,0.7,1.1,1.2,1.6c0.4,0.4,0.9,0.8,1.3,1c0.5,0.3,1,0.5,1.4,0.6c0.5,0.1,1,0.2,1.4,0.1
			c0.5,0,0.9-0.1,1.3-0.3c1.2,1.2,4.2,4.2,9.9,9.9l1.5-1.5L83,48.5L84.5,47z"/>
		<path fill="#FFFFFF" d="M72.9,55.6l1.5,1.5l6.1-6.1l-1.5-1.5C77.4,51.1,75.4,53.2,72.9,55.6z"/>
	</g>
</g>
</svg>
