<?xml version="1.0" encoding="utf-8"?>
<!-- Generator: Adobe Illustrator 21.0.0, SVG Export Plug-In . SVG Version: 6.00 Build 0)  -->
<svg version="1.1" id="Layer_1" xmlns="http://www.w3.org/2000/svg" xmlns:xlink="http://www.w3.org/1999/xlink" x="0px" y="0px"
	 viewBox="0 0 23.9 23.9" style="enable-background:new 0 0 23.9 23.9;" xml:space="preserve">
<style type="text/css">
	.st0{fill:#4194E4;}
	.st1{enable-background:new    ;}
	.st2{fill:#FFFFFF;}
</style>
<g id="Group_45" transform="translate(3744 1731)">
	<circle id="Ellipse_28" class="st0" cx="-3732.1" cy="-1719.1" r="11.9"/>
	<g class="st1">
		<path class="st2" d="M-3732.7-1720.7c0,0.5-0.1,0.9-0.3,1.3s-0.5,0.8-1,1.2c-0.5,0.4-1.2,1.1-2.2,1.9h3.8v1.2h-5.6v-1.1l0.2-0.2
			c1.2-1,2-1.7,2.5-2.1c0.5-0.4,0.8-0.8,1-1.1s0.3-0.6,0.3-1c0-0.4-0.1-0.7-0.4-0.9c-0.3-0.2-0.6-0.4-1.1-0.4c-0.4,0-0.7,0.1-1,0.2
			c-0.3,0.2-0.6,0.4-0.9,0.7l-0.9-0.7c0.4-0.4,0.8-0.8,1.2-1c0.4-0.2,1-0.3,1.6-0.3c0.6,0,1.1,0.1,1.5,0.3c0.4,0.2,0.7,0.5,1,0.9
			C-3732.8-1721.5-3732.7-1721.1-3732.7-1720.7z"/>
		<path class="st2" d="M-3725.7-1717.1c0,0.4-0.1,0.8-0.4,1.1c-0.2,0.3-0.6,0.6-1,0.8c-0.5,0.2-1,0.3-1.6,0.3
			c-0.6,0-1.1-0.1-1.6-0.3c-0.5-0.2-0.8-0.5-1-0.8c-0.2-0.3-0.4-0.7-0.4-1.1c0-0.5,0.1-0.9,0.4-1.2c0.3-0.3,0.6-0.6,1.2-0.9
			c-0.4-0.2-0.7-0.5-0.9-0.7c-0.2-0.3-0.3-0.6-0.3-1.1c0-0.4,0.1-0.7,0.4-1.1c0.2-0.3,0.6-0.6,1-0.7c0.4-0.2,0.9-0.3,1.3-0.3
			c0.5,0,0.9,0.1,1.3,0.2c0.4,0.2,0.7,0.4,1,0.7c0.2,0.3,0.4,0.7,0.4,1.1c0,0.8-0.4,1.4-1.3,1.9c0.6,0.2,1,0.5,1.2,0.8
			C-3725.8-1718-3725.7-1717.6-3725.7-1717.1z M-3727.1-1717.1c0-0.2,0-0.4-0.1-0.6s-0.2-0.3-0.4-0.4s-0.5-0.2-0.8-0.4l-0.6-0.2
			c-0.4,0.2-0.7,0.4-0.9,0.6c-0.2,0.3-0.3,0.6-0.3,0.9c0,0.4,0.1,0.7,0.4,0.9s0.7,0.3,1.1,0.3s0.9-0.1,1.1-0.3
			S-3727.1-1716.8-3727.1-1717.1z M-3729.9-1720.9c0,0.3,0.1,0.5,0.3,0.7c0.2,0.2,0.5,0.4,0.9,0.5l0.4,0.2c0.3-0.2,0.6-0.4,0.7-0.6
			s0.2-0.5,0.2-0.7c0-0.3-0.1-0.6-0.4-0.8c-0.2-0.2-0.5-0.3-0.9-0.3c-0.4,0-0.6,0.1-0.9,0.3
			C-3729.8-1721.5-3729.9-1721.2-3729.9-1720.9z"/>
	</g>
</g>
</svg>
