<?xml version="1.0" encoding="utf-8"?>
<!-- Generator: Adobe Illustrator 18.1.1, SVG Export Plug-In . SVG Version: 6.00 Build 0)  -->
<svg version="1.1" id="Layer_1" xmlns="http://www.w3.org/2000/svg" xmlns:xlink="http://www.w3.org/1999/xlink" x="0px" y="0px"
	 viewBox="-339 71.6 18 18" enable-background="new -339 71.6 18 18" xml:space="preserve" width="18" height="18">
<g>
	<path opacity="0.3" fill="#C1272D" d="M-330,89.6c-5,0-9-4-9-9s4-9,9-9s9,4,9,9S-325,89.6-330,89.6z"/>
	<path fill="#C1272D" d="M-330,72.6c4.4,0,8,3.6,8,8s-3.6,8-8,8c-4.4,0-8-3.6-8-8S-334.4,72.6-330,72.6 M-330,71.6c-5,0-9,4-9,9
		s4,9,9,9s9-4,9-9S-325,71.6-330,71.6L-330,71.6z"/>
	<circle fill="#C1272D" cx="-330" cy="80.6" r="1.5"/>
</g>
</svg>
