<?xml version="1.0" encoding="utf-8"?>
<!-- Generator: Adobe Illustrator 18.1.1, SVG Export Plug-In . SVG Version: 6.00 Build 0)  -->
<svg version="1.1" id="Layer_1" xmlns="http://www.w3.org/2000/svg" xmlns:xlink="http://www.w3.org/1999/xlink" x="0px" y="0px"
	 viewBox="-300.2 71.6 18 18" enable-background="new -300.2 71.6 18 18" xml:space="preserve" width="18" height="18">
<g>
	<path opacity="0.3" fill="#6F1922" d="M-291.2,89.6c-5,0-9-4-9-9s4-9,9-9s9,4,9,9S-286.2,89.6-291.2,89.6z"/>
	<path fill="#6F1922" d="M-291.2,72.6c4.4,0,8,3.6,8,8s-3.6,8-8,8c-4.4,0-8-3.6-8-8S-295.6,72.6-291.2,72.6 M-291.2,71.6
		c-5,0-9,4-9,9s4,9,9,9s9-4,9-9S-286.2,71.6-291.2,71.6L-291.2,71.6z"/>
	<circle fill="#6F1922" cx="-291.2" cy="80.6" r="1.5"/>
</g>
</svg>
