<svg xmlns="http://www.w3.org/2000/svg" viewBox="0 0 24 24"><title>territory_layer</title><path d="M10.125,20A1.306,1.306,0,0,1,9,18.571V1.429A1.306,1.306,0,0,1,10.125,0h.75A1.306,1.306,0,0,1,12,1.429V18.571A1.306,1.306,0,0,1,10.875,20Z" style="fill:#005fb2"/><path d="M13,16.337V19a2,2,0,0,1-2,2H10a2,2,0,0,1-2-2V16.337c-4.032.44-7,1.911-7,3.663,0,2.1,4.253,3.8,9.5,3.8S20,22.1,20,20C20,18.248,17.032,16.777,13,16.337Z" style="fill:#005fb2"/><path d="M22.7,10H14a1,1,0,0,1-1-1V2a1,1,0,0,1,1-1h8.7a.5.5,0,0,1,.335.872L19.826,4.757a1,1,0,0,0,0,1.486l3.206,2.885A.5.5,0,0,1,22.7,10Z" style="fill:#005fb2"/></svg>