<svg xmlns="http://www.w3.org/2000/svg" width="66" height="66" viewBox="0 0 66 66"><title>arcgis_logo_icon</title><path d="M48.576,58.415c-.161-.149-.47-.438-.88-.841a28.193,28.193,0,0,1-3.441,1.688,27.152,27.152,0,0,0,2.064-3.092c-.83-.877-1.817-1.973-2.861-3.243-.169.338-.337.679-.518,1-2.112,3.755-4.7,6.231-7.333,7.088V51.975a55.7,55.7,0,0,0,6.6-.633c-.917-1.2-1.844-2.514-2.723-3.916-1.279.149-2.567.267-3.873.318V39.208a21.3,21.3,0,0,1-1-6.225,18.054,18.054,0,0,1,1-6.032V18.256a50.7,50.7,0,0,1,5.634.545,18.155,18.155,0,0,1,7.528-3.716,31.789,31.789,0,0,0-4.514-8.347A28.478,28.478,0,0,1,55.3,14.813a18.394,18.394,0,0,1,6.471,2.217A32.407,32.407,0,1,0,50.791,60.454ZM35.607,4.984c2.63.857,5.221,3.333,7.333,7.088a30.672,30.672,0,0,1,1.438,2.974,54.922,54.922,0,0,0-8.771-1.021Zm-12.7,1.754a32.7,32.7,0,0,0-4.926,9.491,55.258,55.258,0,0,0-9.6,3.831A28.5,28.5,0,0,1,22.908,6.738ZM8.125,20.574c-.15.3-.3.609-.441.92C7.823,21.183,7.975,20.88,8.125,20.574Zm-.838,1.879q-.238.591-.451,1.194C6.977,23.244,7.128,22.847,7.287,22.453Zm-.843,2.37c-.071.234-.131.472-.2.708C6.313,25.3,6.373,25.057,6.444,24.823ZM6.052,26.3a51.076,51.076,0,0,1,10.57-5.175,54.331,54.331,0,0,0-1.229,9.851H5.307A28.245,28.245,0,0,1,6.052,26.3Zm9.341,8.726a54.331,54.331,0,0,0,1.229,9.851A51.151,51.151,0,0,1,6.052,39.7a28.245,28.245,0,0,1-.745-4.676ZM6.248,40.467c.065.237.125.476.2.71C6.373,40.943,6.313,40.7,6.248,40.467Zm.586,1.881q.215.611.457,1.209C7.13,43.158,6.977,42.756,6.834,42.348Zm.849,2.157c.139.311.292.615.441.92C7.975,45.12,7.822,44.817,7.683,44.505Zm.7,1.435a55.176,55.176,0,0,0,9.6,3.83,32.665,32.665,0,0,0,4.926,9.492A28.5,28.5,0,0,1,8.381,45.94ZM31.556,61.016c-2.629-.857-5.221-3.333-7.333-7.088a30.906,30.906,0,0,1-1.438-2.974,54.922,54.922,0,0,0,8.771,1.021Zm0-13.272a50.739,50.739,0,0,1-10.418-1.5,48.8,48.8,0,0,1-1.679-11.218h12.1Zm0-16.769h-12.1a48.8,48.8,0,0,1,1.679-11.218,50.739,50.739,0,0,1,10.418-1.5Zm0-16.95a55.036,55.036,0,0,0-8.771,1.02,31,31,0,0,1,1.438-2.973c2.112-3.755,4.7-6.231,7.333-7.088Z" style="fill:#fff"/><path d="M52.825,20.872A12.028,12.028,0,0,0,40.882,32.983c0,9.822,11.943,20.816,11.943,20.816s12-11.441,12-20.816A12.112,12.112,0,0,0,52.825,20.872Zm0,17.357a5.225,5.225,0,0,1-4.8-3.181,5.122,5.122,0,0,1,1.061-5.637,5.267,5.267,0,0,1,5.692-1.172,5.2,5.2,0,0,1-1.953,9.99Z" style="fill:#fff"/></svg>