<?xml version="1.0" encoding="utf-8"?>
<!-- Generator: Adobe Illustrator 21.0.2, SVG Export Plug-In . SVG Version: 6.00 Build 0)  -->
<svg width="25px" height="42px" version="1.1" id="Layer_1" xmlns="http://www.w3.org/2000/svg" xmlns:xlink="http://www.w3.org/1999/xlink" x="0px" y="0px"
	 viewBox="0 0 25 42" style="enable-background:new 0 0 25 42;" xml:space="preserve">
<style type="text/css">
	.st0{fill:#1589ee;}
	.st1{opacity:0.32;}
	.st2{opacity:0.7;fill:url(#SVGID_1_);enable-background:new    ;}
</style>
<title>marker-4CAF50</title>
<path class="st0" d="M12.5,1C6.2294478,1.0339537,1.1721252,6.1418495,1.2005652,12.4124289
	c0.1463621,2.7284956,1.1130329,5.3492479,2.7734976,7.5192614l0.8115046,1.201849
	c2.5783257,3.8212624,6.4304056,9.5839748,6.4304056,19.404211V41h2.5475092v-0.4622498
	c0-9.7996941,3.8828974-15.5624027,6.4509497-19.3733959l0.8115044-1.171032
	c1.672121-2.1871052,2.639431-4.8310862,2.7734985-7.5808935C23.8278751,6.1418495,18.7705536,1.0339537,12.5,1z"/>
<path class="st1" d="M12.5,1.0000305C6.2294607,1.0339494,1.1721009,6.1418428,1.2005652,12.4124451
	c0.1463339,2.7284937,1.113053,5.3492126,2.77351,7.519268l0.8114824,1.2018299
	c2.5783358,3.8212337,6.4304152,9.5839939,6.4304152,19.4042263v0.4622002h2.5474892v-0.4622002
	c0-9.7997303,3.8829269-15.5624275,6.4509811-19.3734417l0.8114815-1.1709843
	c1.6721191-2.187109,2.6394653-4.8310881,2.77351-7.5808983C23.8278999,6.1418428,18.7705402,1.0339494,12.5,1.0000305z
	 M20.2091751,19.3693867l-0.839632,1.2102947c-2.5961418,3.8520813-6.4843349,9.621172-6.628788,19.3928146h-0.5015726
	c-0.1434498-9.8418617-4.0206089-15.5878811-6.6017032-19.4133778l-0.8115449-1.2022705
	c-1.5769453-2.0639725-2.4637263-4.4670095-2.5991509-6.9994507C2.202708,6.7147017,6.8131661,2.0580986,12.5060186,2.0270011
	c5.6808157,0.0310974,10.2912741,4.6877003,10.2661943,10.3810549
	C22.6488266,14.9159203,21.7620449,17.3390198,20.2091751,19.3693867z"/>
<linearGradient id="SVGID_1_" gradientUnits="userSpaceOnUse" x1="8.9870558" y1="1118.5151367" x2="16.0129433" y2="1118.5151367" gradientTransform="matrix(1 0 0 1 0 -1106)">
	<stop  offset="0" style="stop-color:#000000"/>
	<stop  offset="1" style="stop-color:#000000"/>
</linearGradient>
<ellipse class="st2" cx="12.5" cy="12.515152" rx="3.5129442" ry="3.5464015"/>
</svg>
