<svg xmlns="http://www.w3.org/2000/svg" width="28" height="35" viewBox="0 0 28 35">
  <g fill="none">
    <path fill="#1589EE" d="M24,0 L4,0 C1.8,0 0,1.8 0,4 L0,24 C0,26.2 1.8,28 4,28 L8.4,28 L14,34.3 L19.6,28 L24,28 C26.2,28 28,26.2 28,24 L28,4 C28,1.8 26.2,0 24,0 Z"/>
    <path fill="#000" d="M24,0 L4,0 C1.8,0 0,1.8 0,4 L0,24 C0,26.2 1.8,28 4,28 L8.4,28 L14,34.3 L19.6,28 L24,28 C26.2,28 28,26.2 28,24 L28,4 C28,1.8 26.2,0 24,0 Z M27,24 C27,25.7 25.7,27 24,27 L19.1,27 L14,32.8 L8.9,27 L4,27 C2.3,27 1,25.7 1,24 L1,4 C1,2.3 2.3,1 4,1 L24,1 C25.7,1 27,2.3 27,4 L27,24 Z" opacity=".32"/>
  </g>
</svg>
